<?xml version="1.0" encoding="UTF-8"?><svg id="Capa_1" xmlns="http://www.w3.org/2000/svg" viewBox="0 0 20 20"><defs><style>.cls-1{fill:#fff;stroke-width:0px;}</style></defs><path class="cls-1" d="M9.99,4.87c-2.86,0-5.14,2.29-5.14,5.15s2.29,5.15,5.14,5.15,5.14-2.29,5.14-5.15-2.29-5.15-5.14-5.15ZM9.99,13.31c-1.86,0-3.29-1.43-3.29-3.29s1.43-3.29,3.29-3.29,3.29,1.43,3.29,3.29-1.43,3.29-3.29,3.29ZM16.56,4.72c0,.72-.57,1.14-1.14,1.14-.71,0-1.14-.57-1.14-1.14s.57-1.14,1.14-1.14,1.14.43,1.14,1.14ZM19.99,5.87c-.14-1.57-.57-3.01-1.71-4.15C17.15.58,15.72.15,14.15,0H5.86c-1.57.14-3,.57-4.14,1.72C.58,2.86.15,4.3,0,5.87v8.3c.14,1.57.57,3.01,1.71,4.15,1.14,1.14,2.57,1.57,4.14,1.57,1.71.14,6.57.14,8.29,0,1.57-.14,3-.43,4.14-1.57s1.57-2.58,1.57-4.15c.14-1.72.14-6.58.14-8.3ZM17.86,15.89c-.29.86-1,1.57-1.86,1.86-1.43.57-4.57.43-6,.43s-4.57.14-5.86-.43c-.86-.29-1.57-1-1.86-1.86-.57-1.29-.43-4.44-.43-5.87s-.14-4.58.29-5.87c.29-.86,1-1.57,1.86-1.86,1.43-.57,4.57-.43,6-.43s4.57-.14,5.86.43c.86.29,1.57,1,1.86,1.86.57,1.29.43,4.44.43,5.87s.14,4.58-.29,5.87Z"/></svg>