<?xml version="1.0" encoding="UTF-8"?><svg id="Capa_1" xmlns="http://www.w3.org/2000/svg" viewBox="0 0 20 20"><defs><style>.cls-1{fill:#fff;stroke-width:0px;}</style></defs><path class="cls-1" d="M18.57,0H1.43C.57,0,0,.71,0,1.43v17.14c0,.86.57,1.43,1.43,1.43h17.14c.86,0,1.43-.71,1.43-1.43V1.43c0-.71-.57-1.43-1.43-1.43ZM6,17.14h-2.86V7.57h3l-.14,9.57h0ZM4.57,6.29c-1,0-1.71-.71-1.71-1.71s.71-1.71,1.71-1.71,1.71.71,1.71,1.71-.71,1.71-1.71,1.71ZM17.14,17.14h-3v-4.57c0-1.14,0-2.57-1.43-2.57-1.57,0-1.86,1.14-1.86,2.43v4.71h-3V7.57h2.86v1.29h0c.43-.71,1.43-1.57,2.86-1.57,3,0,3.57,2,3.57,4.57v5.29h0Z"/></svg>