<?xml version="1.0" encoding="UTF-8"?><svg id="Capa_1" xmlns="http://www.w3.org/2000/svg" viewBox="0 0 20 20"><defs><style>.cls-1{fill:#689f63;stroke-width:0px;}</style></defs><g id="Capa_1-2"><path class="cls-1" d="M10.01,20c-.27,0-.53-.07-.76-.21l-2.44-1.45c-.37-.21-.19-.27-.07-.32.49-.17.59-.21,1.1-.5.05-.03.13-.02.19.01l1.88,1.11c.07.03.16.03.23,0l7.33-4.23c.07-.04.11-.12.11-.2V5.77c0-.09-.04-.16-.11-.21L10.13,1.33c-.07-.04-.15-.04-.23,0L2.57,5.56c-.08.04-.12.12-.12.2v8.45c0,.08.04.15.11.2l2.01,1.16c1.09.55,1.76-.1,1.76-.74V6.48c0-.12.1-.21.22-.21h.93c.12,0,.21.09.21.21v8.35c0,1.45-.8,2.29-2.17,2.29-.43,0-.75,0-1.69-.46l-1.92-1.11c-.48-.27-.76-.79-.76-1.34V5.76c0-.55.29-1.07.76-1.33L9.24.2c.47-.26,1.08-.26,1.54,0l7.33,4.23c.47.27.76.79.76,1.33v8.45c0,.55-.29,1.06-.76,1.33l-7.33,4.23c-.24.13-.5.21-.77.21"/><path class="cls-1" d="M12.58,13.58c-2.82,0-3.42-1.3-3.42-2.39,0-.1.09-.19.19-.19h.84c.09,0,.17.07.19.16.13.85.5,1.28,2.21,1.28,1.36,0,1.94-.31,1.94-1.03,0-.41-.16-.72-2.28-.93-1.77-.17-2.86-.57-2.86-1.97,0-1.31,1.1-2.08,2.94-2.08,2.07,0,3.1.72,3.23,2.26,0,.05-.01.11-.05.14-.03.03-.09.05-.14.05h-.84c-.09,0-.16-.07-.19-.14-.21-.89-.69-1.18-2.02-1.18-1.48,0-1.66.51-1.66.91,0,.47.21.61,2.21.87,1.98.26,2.93.63,2.93,2.03s-1.18,2.21-3.22,2.21"/></g></svg>