<?xml version="1.0" encoding="UTF-8"?><svg id="Capa_1" xmlns="http://www.w3.org/2000/svg" viewBox="0 0 20 20"><defs><style>.cls-1{fill:#132035;}.cls-1,.cls-2{stroke-width:0px;}.cls-2{fill:#53a0d8;}</style></defs><g id="Capa_1-2"><g id="Layer_2"><g id="Surfaces"><g id="Photo_Surface"><g id="Outline_no_shadow"><path class="cls-1" d="M3.54,0h12.92c1.96,0,3.54,1.62,3.54,3.63v12.74c0,2.01-1.58,3.63-3.54,3.63H3.54c-1.96,0-3.54-1.62-3.54-3.63V3.63C0,1.62,1.58,0,3.54,0Z"/></g></g></g><g id="Outlined_Mnemonics_Logos"><g id="Ps"><path class="cls-2" d="M4.5,14.02V5.23c0-.05.02-.1.09-.1h.47c.2,0,.4,0,.64-.02.22,0,.47,0,.72-.02h.75c.68,0,1.25.09,1.71.26.41.14.8.38,1.12.7.27.27.48.61.61.97s.19.73.19,1.11c0,.73-.17,1.34-.5,1.82s-.8.84-1.34,1.05c-.56.22-1.19.29-1.87.29h-.78v2.75c0,.05-.03.11-.1.12h-1.62c-.06,0-.1-.03-.1-.11v-.03ZM6.32,6.78v2.87c.12,0,.22.02.33.02h.45c.33,0,.65-.05.96-.15.27-.08.5-.24.68-.46.17-.22.26-.5.26-.88,0-.26-.05-.53-.19-.76-.14-.22-.34-.39-.58-.49-.31-.13-.64-.17-.98-.17h-.9v.03Z"/><path class="cls-2" d="M16,9.14c-.26-.14-.52-.23-.8-.29-.31-.07-.62-.11-.94-.11-.17,0-.34.02-.5.05-.11.02-.2.09-.26.17-.04.07-.06.15-.06.23s.03.15.09.22c.07.1.17.17.29.23.19.1.39.2.6.28.45.15.88.37,1.29.62.28.17.5.41.66.71.14.27.2.58.19.88,0,.4-.11.81-.33,1.13-.23.34-.56.61-.94.76-.4.17-.9.27-1.51.27-.38,0-.75-.03-1.14-.11-.29-.05-.58-.14-.85-.27-.05-.03-.1-.1-.1-.16v-1.48s0-.05.03-.08c.02-.02.05,0,.07,0,.33.2.67.34,1.03.41.32.09.65.13.98.13s.54-.04.69-.12c.14-.05.22-.21.22-.36,0-.12-.06-.23-.2-.34-.14-.11-.4-.24-.82-.4-.43-.15-.82-.36-1.18-.61-.26-.19-.48-.44-.64-.73-.14-.27-.2-.58-.19-.87,0-.37.1-.72.29-1.04.21-.34.52-.61.87-.79.39-.21.88-.29,1.48-.29.34,0,.69.02,1.03.08.26.03.49.1.71.2.03,0,.06.04.09.08,0,.03.02.07.02.1v1.4s-.02.07-.04.09c-.07.02-.12.02-.15,0h.01Z"/></g></g></g></g></svg>