<?xml version="1.0" encoding="UTF-8"?><svg id="Capa_1" xmlns="http://www.w3.org/2000/svg" viewBox="0 0 20 20"><defs><style>.cls-1{fill:#fff;}.cls-1,.cls-2{stroke-width:0px;}.cls-2{fill:#ed6c3f;}</style></defs><g id="Capa_1-2"><path class="cls-2" d="M17.92,3.89C14.54-.49,8.25-1.29,3.89,2.09-.49,5.46-1.29,11.74,2.09,16.11c3.37,4.37,9.65,5.18,14.03,1.8h0c4.36-3.37,5.18-9.65,1.8-14.02h0Z"/><path class="cls-1" d="M13.38,6.37l-4.22,4.25-1.19-1.22c4.16-4.15,4.56-3.77,5.41-3.02h0Z"/><path class="cls-2" d="M9.16,10.74s-.08-.01-.1-.04l-1.2-1.2c-.05-.05-.05-.15,0-.21,4.09-4.09,4.65-3.9,5.62-3.02.03.02.05.07.05.11s0,.08-.04.11l-4.22,4.22s-.07.04-.11.04h0ZM8.18,9.4l.98.98,4-4c-.29-.36-.79-.44-1.19-.2-.73.33-1.89,1.32-3.8,3.22h.01Z"/><path class="cls-1" d="M10.36,11.79l-1.15-1.18,4.22-4.17c1.13,1.11-.55,2.96-3.07,5.34h0Z"/><path class="cls-2" d="M10.36,11.95s-.08-.02-.1-.04l-1.18-1.15s-.02-.09,0-.13c-.01-.03-.01-.08,0-.11l4.22-4.22c.07-.05.15-.05.22,0,.27.25.43.62.42.99,0,1.12-1.29,2.54-3.46,4.61-.03.03-.07.04-.11.05h-.01ZM9.43,10.62l.95.95c1.67-1.57,3.25-3.2,3.26-4.3,0-.23-.07-.46-.22-.64l-3.99,4h0Z"/><path class="cls-1" d="M8,9.42l.84.84s.02.05,0,.07h0l-1.76.37c-.08.01-.14-.02-.19-.09s-.02-.14.03-.2l1.02-1.01s.03,0,.05.02Z"/><path class="cls-2" d="M7.03,10.87c-.11,0-.22-.07-.27-.15-.07-.12-.04-.27.05-.37l1.01-1.02c.08-.07.19-.07.26,0l.84.84s.07.12.05.19-.08.12-.14.13l-1.76.37-.05.03h.01ZM7.97,9.6l-.95.95,1.56-.33-.62-.6h0Z"/><path class="cls-1" d="M15.61,4.03c-.6-.58-1.55-.6-2.19-.05-.64.55-.74,1.49-.25,2.17s1.42.87,2.14.44l-1.13-1.13s1.43-1.42,1.43-1.42Z"/><path class="cls-2" d="M14.49,6.96c-.7,0-1.34-.44-1.62-1.1-.26-.66-.12-1.41.37-1.91.69-.68,1.8-.68,2.5,0,.03.02.05.07.05.11s-.02.08-.05.11l-1.35,1.27,1.02,1.01s.04.08.04.12-.03.09-.07.11c-.27.18-.59.26-.91.27h.01ZM14.49,3.72c-.59,0-1.12.36-1.35.9s-.1,1.18.32,1.59c.43.43,1.07.55,1.62.31l-.98-.98s-.05-.07-.05-.11.02-.08.05-.1l1.3-1.31c-.26-.2-.57-.31-.9-.31h0Z"/><path class="cls-1" d="M15.64,4.05l-1.43,1.42,1.13,1.13c.11-.07.22-.14.32-.23.62-.66.6-1.68-.02-2.32Z"/><path class="cls-2" d="M15.32,6.72s-.08-.01-.1-.04l-1.13-1.13s-.05-.07-.05-.11.02-.08.05-.1l1.42-1.4c.04-.07.14-.09.21-.04.02.01.03.02.04.04.69.68.7,1.78.02,2.47l-.02.02c-.1.1-.21.2-.33.26-.03.01-.07.02-.1,0h0v.02ZM14.41,5.44l.95.95c.07-.04.12-.1.19-.15.27-.27.43-.65.43-1.04,0-.35-.13-.69-.36-.95,0,0-1.2,1.2-1.2,1.2Z"/><path class="cls-1" d="M13.54,6.55c-.23-.22-.59-.22-.84,0l-3.77,3.77.63.64,3.99-3.5c.12-.12.2-.29.19-.45s-.08-.33-.2-.45h0Z"/><path class="cls-2" d="M9.53,11.09s-.08-.01-.1-.04l-.64-.64c-.05-.05-.05-.15,0-.21l3.77-3.76c.3-.3.78-.3,1.09,0,.15.15.23.35.22.57,0,.21-.1.41-.26.55l-3.99,3.5s-.07.03-.1.02h.01ZM9.09,10.31l.42.43,3.91-3.41c.1-.09.15-.21.15-.33s-.04-.25-.14-.34c-.19-.18-.47-.18-.66,0l-3.69,3.66h.01Z"/><path class="cls-1" d="M6.01,14.61s-.02.07,0,.1l.16.73c.01.09-.02.18-.1.22s-.18.03-.24-.02l-1.14-1.1,3.56-3.58h1.23l.84.84c-1.3,1.13-2.75,2.09-4.31,2.84h0Z"/><path class="cls-2" d="M5.93,15.83c-.1,0-.19-.04-.25-.11l-1.09-1.09s-.05-.07-.05-.11.02-.08.05-.1l3.58-3.59s.04-.03.08-.04h1.24s.07-.01.1,0l.84.84s.04.08.04.12-.02.08-.05.11l-.07.05c-1.31,1.09-2.74,2.01-4.28,2.74l.15.67c.04.2-.08.38-.26.43h-.08l.04.07v.02ZM4.92,14.52l.98.99s.04.02.07,0c.01-.02.01-.04,0-.05l-.16-.73c-.02-.11.02-.22.12-.26,1.5-.73,2.89-1.63,4.17-2.68l-.68-.68h-1.12l-3.37,3.43h.01Z"/><path class="cls-1" d="M3.83,15.37l.84-.84,1.29,1.29-2.04-.14c-.08,0-.13-.05-.15-.13s.01-.14.08-.18h0Z"/><path class="cls-2" d="M5.98,15.95l-2.03-.14c-.12-.01-.22-.1-.26-.21s-.02-.24.07-.33l.84-.84c.05-.05.15-.05.21,0l1.28,1.27s.03.12,0,.16c-.02.03-.04.05-.09.07h0ZM3.94,15.48l1.67.11-.91-.86-.75.75h-.01Z"/><path class="cls-1" d="M9.61,11.03l-1.68.26.98-.97s.7.7.7.7Z"/><path class="cls-2" d="M7.92,11.45c-.05,0-.11-.03-.13-.09-.03-.05-.03-.12,0-.16l.97-.98c.07-.05.15-.05.22,0l.7.7s.03.1,0,.15c-.01.05-.05.1-.12.11l-1.67.26h.03ZM8.9,10.54l-.54.54.93-.14s-.4-.4-.4-.4Z"/><path class="cls-1" d="M9.61,11.03l-1.18.15c-.08.02-.16-.03-.18-.11-.01-.04,0-.1.03-.13l.6-.6.7.7h.01Z"/><path class="cls-2" d="M8.4,11.34c-.11,0-.21-.07-.26-.15-.07-.12-.04-.26.05-.36l.6-.6c.07-.05.15-.05.22,0l.7.7c.05.05.07.15,0,.21-.02.02-.05.04-.1.04l-1.17.15h-.05ZM8.4,11.03l.88-.11-.4-.4-.49.49h.01ZM15.65,5.01s-.1-.08-.15-.05c-.03.01-.04.04-.05.07v.09c.05.12.04.26-.04.37-.02.02-.03.04-.03.08s.01.05.03.08h.07s.08,0,.11-.03c.14-.18.16-.41.08-.6h0Z"/></g></svg>