<?xml version="1.0" encoding="UTF-8"?><svg id="Capa_1" xmlns="http://www.w3.org/2000/svg" viewBox="0 0 20 20"><defs><style>.cls-1{fill:#fff;stroke-width:0px;}</style></defs><path class="cls-1" d="M16.38,20h-.02c-3.42-.11-7.42-3.43-10.17-6.18C3.42,11.06.11,7.05,0,3.65-.04,2.46,2.89.34,2.92.32c.76-.53,1.6-.35,1.95.14.24.33,2.45,3.69,2.69,4.07.25.39.22.98-.1,1.57-.17.33-.75,1.34-1.01,1.8.29.41,1.05,1.42,2.64,3,1.58,1.58,2.59,2.35,3,2.64.47-.26,1.47-.84,1.8-1.01.58-.31,1.17-.35,1.57-.1.41.25,3.76,2.48,4.07,2.7.26.18.43.49.46.85s-.08.75-.32,1.09c-.02.03-2.12,2.92-3.3,2.92h0Z"/></svg>