<?xml version="1.0" encoding="UTF-8"?><svg id="Capa_1" xmlns="http://www.w3.org/2000/svg" viewBox="0 0 20 20"><defs><style>.cls-1{fill:#fff;stroke-width:0px;}</style></defs><g id="Capa_1-2"><g id="Capa-1"><path class="cls-1" d="M15.65,14.55c-.82,1.01-1.89,1.81-3.13,2.27.28-.66.51-1.44.69-2.27h-1.87c-.44,1.8-1.05,2.73-1.33,2.73s-.89-.93-1.33-2.73h-1.87c.17.84.4,1.61.69,2.27-1.25-.46-2.31-1.26-3.13-2.27h-2.22c1.57,2.71,4.51,4.55,7.86,4.55s6.29-1.84,7.86-4.55h-2.24ZM4.35,5.45c.82-1.01,1.89-1.81,3.13-2.27-.28.66-.51,1.44-.69,2.27h1.87c.44-1.8,1.05-2.73,1.33-2.73s.89.93,1.33,2.73h1.87c-.17-.84-.4-1.61-.69-2.27,1.25.46,2.31,1.26,3.13,2.27h2.22c-1.55-2.71-4.49-4.55-7.85-4.55S3.72,2.75,2.14,5.45h2.22Z"/><path class="cls-1" d="M4.32,10.34l.49-3.06h1.36l-1.13,5.45h-1.18l-.77-3.15-.77,3.15h-1.19L0,7.27h1.37l.48,3.06.73-3.06h1.02l.73,3.06h0ZM11.24,10.34l.49-3.06h1.36l-1.13,5.45h-1.18l-.77-3.15-.77,3.15h-1.19l-1.13-5.45h1.37l.48,3.06.73-3.06h1.01s.73,3.06.73,3.06ZM18.15,10.34l.49-3.06h1.36l-1.13,5.45h-1.18l-.77-3.15-.77,3.15h-1.19l-1.13-5.45h1.37l.48,3.06.73-3.06h1.01s.73,3.06.73,3.06Z"/></g></g></svg>