<?xml version="1.0" encoding="UTF-8"?><svg id="Capa_1" xmlns="http://www.w3.org/2000/svg" viewBox="0 0 20 20"><defs><style>.cls-1{fill:#464443;stroke-width:0px;}</style></defs><g id="Capa_1-2"><path class="cls-1" d="M1.42,10c0,3.39,1.97,6.32,4.83,7.72L2.16,6.51c-.48,1.07-.74,2.25-.74,3.49Z"/><path class="cls-1" d="M15.79,9.56c0-1.06-.38-1.8-.71-2.37-.44-.71-.84-1.31-.84-2.01,0-.79.6-1.53,1.44-1.53h.11c-1.53-1.4-3.56-2.26-5.79-2.26-3,0-5.64,1.54-7.16,3.87h.56c.89,0,2.29-.11,2.29-.11.46-.02.51.65.05.71,0,0-.47.05-.98.08l3.12,9.29,1.88-5.63-1.34-3.66c-.46-.02-.89-.08-.89-.08-.46-.02-.4-.73.05-.71,0,0,1.42.11,2.26.11.89,0,2.29-.11,2.29-.11.46-.02.51.65.05.71,0,0-.47.05-.98.08l3.1,9.23.85-2.86c.37-1.19.65-2.04.65-2.77h0Z"/><path class="cls-1" d="M10.15,10.75l-2.57,7.48c.76.23,1.58.35,2.42.35,1,0,1.95-.17,2.85-.49-.02-.03-.04-.08-.07-.12l-2.64-7.22h.01Z"/><path class="cls-1" d="M17.52,5.89c.03.27.05.57.05.88,0,.87-.16,1.85-.65,3.08l-2.62,7.58c2.55-1.48,4.26-4.25,4.26-7.42,0-1.49-.38-2.89-1.05-4.11h0Z"/><path class="cls-1" d="M10,0C4.48,0,0,4.48,0,10s4.48,10,10,10,10-4.48,10-10S15.52,0,10,0ZM10,19.54C4.74,19.54.46,15.26.46,10S4.74.46,10,.46s9.54,4.27,9.54,9.54-4.27,9.54-9.54,9.54Z"/></g></svg>