<svg width="150" height="45" viewBox="0 0 150 45" fill="none" xmlns="http://www.w3.org/2000/svg">
<rect width="149.407" height="45" rx="6" fill="#EADEC4"/>
<path d="M39.407 7.00354H15V37.9964H39.407V7.00354Z" fill="white"/>
<path d="M35.9205 31.8289C35.6725 31.6895 35.5021 31.581 35.4091 31.5345C35.1147 31.3795 34.9132 31.2711 34.6343 31.1316C34.3554 30.9921 34.0609 30.8992 33.751 30.8682C33.596 30.8682 33.441 30.8682 33.3171 30.8992C33.1621 30.9301 33.0226 30.9766 32.9142 31.0696C32.7747 31.1471 32.6662 31.2556 32.5732 31.364C32.4648 31.488 32.4028 31.5965 32.3408 31.7515C32.3098 31.8289 32.2788 31.9374 32.2788 32.0459H36.1374C36.1374 32.0459 36.0755 31.9684 36.029 31.9219L35.9515 31.8444H35.936L35.9205 31.8289Z" fill="#42768C"/>
<path d="M22.0352 31.7048C21.7717 31.6273 21.4928 31.5498 21.2139 31.5188C20.9504 31.4878 20.656 31.4724 20.3926 31.5188C20.3306 31.5188 20.2531 31.5343 20.1911 31.5498C20.1291 31.5498 20.0516 31.5808 19.9896 31.5963C19.8502 31.6273 19.7262 31.7048 19.6022 31.7668C19.4473 31.8443 19.2923 31.9527 19.1528 32.0302H23.0734C23.0734 32.0302 22.9185 31.9837 22.8565 31.9682C22.5931 31.8908 22.3141 31.7823 22.0507 31.7048H22.0662H22.0352Z" fill="#42768C"/>
<path d="M37.9969 24.5299C37.7024 24.2045 37.408 23.9101 37.1136 23.5691C36.8037 23.2282 36.5247 22.8718 36.2613 22.4689L36.2148 22.4069V22.3449C36.2148 22.3449 36.1373 22.2365 36.0908 22.19C36.0288 22.0815 35.9668 21.9885 35.9203 21.88C35.8119 21.6786 35.7034 21.4771 35.6104 21.2757C35.3935 21.3997 35.161 21.5081 34.8976 21.5856C34.7426 21.6321 34.5876 21.6631 34.4482 21.6631C34.3862 21.6631 34.2932 21.6631 34.2312 21.6476C34.1692 21.6321 34.0763 21.6011 34.0298 21.5391C34.1537 21.6166 34.3242 21.6476 34.4482 21.6166C34.6031 21.6011 34.7426 21.5546 34.8666 21.4926C35.099 21.3842 35.316 21.2602 35.5484 21.1207C35.378 20.7333 35.254 20.3459 35.1765 19.9275C35.068 19.4781 35.037 19.0132 35.0525 18.5638C35.0525 18.3314 35.0835 18.1144 35.1145 17.8665C35.13 17.7425 35.161 17.6495 35.1765 17.5255L35.254 17.2001H35.223C35.068 17.2311 34.8976 17.2621 34.7426 17.2621C34.4172 17.2621 34.1227 17.1846 33.8128 17.0451C33.5184 16.9212 33.2549 16.7352 33.038 16.5183C32.821 16.3013 32.6661 16.0069 32.6196 15.697C32.6661 16.0069 32.8365 16.2703 33.0535 16.4873C33.2704 16.7042 33.5494 16.8592 33.8283 16.9832C34.1227 17.0916 34.4172 17.1536 34.7271 17.1536C34.8821 17.1536 35.037 17.1226 35.161 17.0916C35.192 17.0916 35.223 17.0761 35.285 17.0606C35.3935 16.6887 35.5174 16.3168 35.6414 15.9449C35.7189 15.7125 35.7964 15.4645 35.8584 15.2321C35.7964 14.7517 35.6569 14.2868 35.44 13.8684C35.2075 13.388 34.8511 12.9696 34.4327 12.6287C34.2157 12.4582 34.0143 12.2877 33.8283 12.0863C33.6424 11.8848 33.4719 11.6679 33.3789 11.4044C33.2859 11.141 33.2394 10.8776 33.2239 10.6141C33.2239 10.3507 33.2394 10.0718 33.2704 9.80832C33.2394 10.0718 33.224 10.3507 33.2394 10.6141C33.2394 10.8776 33.2859 11.1565 33.4099 11.4044C33.5184 11.6524 33.6734 11.8538 33.8593 12.0708C34.0453 12.2568 34.2622 12.4272 34.4792 12.5977C34.9131 12.9231 35.285 13.357 35.5484 13.8374C35.7344 14.1783 35.8739 14.5347 35.9513 14.9221C35.9513 14.8757 35.9668 14.7982 35.9823 14.7517C36.0443 14.3333 36.0288 13.8994 35.9358 13.4965C35.8894 13.295 35.8119 13.0936 35.7344 12.8921C35.6569 12.6907 35.5639 12.4892 35.4709 12.3032C35.285 11.9158 35.0835 11.5284 34.8356 11.172C35.13 11.5129 35.347 11.8848 35.5639 12.2723C35.6724 12.4582 35.7654 12.6597 35.8739 12.8456C35.9358 12.9696 35.9978 13.0781 36.0443 13.2175C36.2148 13.0781 36.3388 12.8921 36.4007 12.6907C36.5092 12.4582 36.5557 12.1793 36.6177 11.9313C36.6797 11.6834 36.7417 11.4044 36.8656 11.172C36.9276 11.048 37.0206 10.9396 37.0981 10.8466C37.2066 10.7691 37.315 10.6916 37.4545 10.6606C37.3305 10.6916 37.2066 10.7691 37.1136 10.8466C37.0051 10.9241 36.9431 11.048 36.8966 11.172C36.7882 11.4044 36.7417 11.6834 36.6952 11.9313C36.6487 12.1948 36.5867 12.4582 36.5092 12.7216C36.4627 12.8611 36.4007 12.9696 36.3233 13.0936C36.2613 13.202 36.1838 13.2795 36.0908 13.3415C36.0908 13.3725 36.1218 13.4035 36.1218 13.45C36.1838 13.6669 36.2458 13.8839 36.2768 14.1163C36.3078 14.3488 36.3078 14.5657 36.2768 14.7982C36.2458 15.2476 36.1373 15.697 36.0288 16.1154C35.9203 16.5338 35.8119 16.9677 35.7189 17.3861L35.6724 17.7115C35.6569 17.82 35.6414 17.913 35.6259 18.0214C35.6104 18.2229 35.5949 18.4243 35.6104 18.6413C35.6259 19.4626 35.8739 20.2839 36.2768 21.0122C36.3852 21.1982 36.4782 21.3687 36.6022 21.5546C36.6487 21.6321 36.7262 21.7251 36.7727 21.8026C36.8036 21.849 36.8346 21.88 36.8501 21.9265L36.9586 22.066C37.1911 22.3759 37.4545 22.6549 37.7334 22.9493C37.7334 22.9028 37.7644 22.8408 37.7799 22.8098C37.8574 22.5619 37.9969 22.3294 38.1209 22.1125C38.2293 21.942 38.3223 21.7716 38.4308 21.6011V16.7817C38.4308 16.7817 38.3843 16.6422 38.3533 16.5803C38.1673 16.1309 37.9659 15.666 37.7799 15.2166C37.594 14.7672 37.4235 14.2868 37.2995 13.8064C37.1756 13.326 37.1136 12.8301 37.1446 12.3342C37.1291 12.8301 37.2066 13.3105 37.346 13.7909C37.4855 14.2713 37.6715 14.7207 37.8729 15.1546L38.2758 16.0224C38.2448 15.8364 38.2293 15.6505 38.2293 15.4645C38.2293 15.2321 38.2448 14.9686 38.3068 14.7362C38.3378 14.6122 38.3688 14.5037 38.4308 14.3798V7.99524H15.9453V32.0612H19.0136C19.1841 31.9217 19.37 31.8133 19.556 31.6893C19.68 31.6273 19.804 31.5498 19.9589 31.5033C20.0209 31.4723 20.0984 31.4568 20.1604 31.4413C20.2224 31.4258 20.3153 31.4103 20.3773 31.3948C20.6718 31.3484 20.9507 31.3484 21.2606 31.3639C21.5551 31.3949 21.834 31.4413 22.1284 31.5188C22.3764 31.5808 22.6243 31.6583 22.8723 31.7203C22.8568 31.7048 22.8413 31.6893 22.8258 31.6738C22.6708 31.5343 22.5158 31.4104 22.3919 31.2554C22.3299 31.1934 22.2524 31.1004 22.2059 31.0229C22.1594 30.9455 22.1284 30.837 22.0819 30.7285C22.0354 30.527 22.0355 30.3256 22.0664 30.1396C22.0664 30.3411 22.0664 30.5425 22.1129 30.7285C22.1439 30.806 22.1749 30.9145 22.2369 30.9919C22.2989 31.0694 22.3609 31.1469 22.4229 31.2089C22.5623 31.3484 22.7328 31.4568 22.8723 31.5963C22.9497 31.6583 23.0272 31.7358 23.0892 31.7978C23.1667 31.8288 23.2597 31.8442 23.3217 31.8597H23.3681L23.4146 31.8907L23.5231 31.9217L23.7246 31.9837C23.7246 31.9837 23.864 32.0147 23.9105 32.0457H32.0772C32.0772 31.9217 32.1082 31.8132 32.1392 31.7048C32.1857 31.5343 32.2787 31.3794 32.3716 31.2554C32.4646 31.1314 32.6041 31.0074 32.7436 30.899C32.8985 30.7905 33.0535 30.7285 33.2239 30.682C33.3634 30.651 33.4874 30.6355 33.6269 30.62C33.5494 30.6045 33.4564 30.5735 33.3789 30.558C32.883 30.4341 32.3871 30.3876 31.8757 30.4186C31.3644 30.4496 30.8375 30.5271 30.3261 30.589C29.8147 30.651 29.2723 30.7285 28.7609 30.7285H28.358C28.2186 30.7285 28.0946 30.6975 27.9551 30.682C27.6917 30.6355 27.4437 30.5735 27.1803 30.5271C26.9324 30.4806 26.6689 30.4496 26.4055 30.4496C26.266 30.4496 26.1575 30.4496 26.0181 30.4961C25.8941 30.527 25.7701 30.5735 25.6616 30.651C25.7701 30.5735 25.8786 30.5116 26.0181 30.4651C26.142 30.4341 26.266 30.4031 26.4055 30.4031C26.6689 30.3876 26.9324 30.4031 27.1958 30.4341C27.4592 30.4651 27.7227 30.4961 27.9706 30.5425C28.0946 30.5425 28.2186 30.5735 28.358 30.558C28.4975 30.5425 28.606 30.558 28.7454 30.5425C29.7837 30.4651 30.791 30.1706 31.8603 30.0467C32.4026 29.9847 32.9605 30.0157 33.4874 30.0932C34.0298 30.1706 34.5566 30.3256 35.0525 30.5735C35.099 30.589 35.161 30.62 35.2075 30.6355C35.13 30.5271 35.0216 30.4341 34.9131 30.3256C34.4792 29.8917 33.9678 29.5198 33.4254 29.1634C33.162 28.9929 32.8675 28.8224 32.5731 28.652C32.2787 28.4815 31.9842 28.3111 31.6898 28.1096C31.4728 27.9546 31.2714 27.7997 31.0699 27.6602C30.574 27.6912 30.0937 27.7842 29.5978 27.8772C29.0399 28.0011 28.482 28.1716 27.8931 28.2956C27.3198 28.435 26.7309 28.559 26.111 28.6055C25.8011 28.621 25.5067 28.6365 25.1967 28.6055C25.0418 28.6055 24.8868 28.5745 24.7473 28.559H24.6234L24.5149 28.528C24.5149 28.528 24.3599 28.497 24.2979 28.4815C24.0035 28.4195 23.7246 28.3266 23.4301 28.2646C23.1357 28.2026 22.8723 28.1096 22.6088 28.0941C22.3144 28.0631 22.0509 28.0941 21.7875 28.1406C21.648 28.1716 21.5241 28.2026 21.3846 28.2646C21.3226 28.2801 21.2451 28.3111 21.1831 28.342C21.1212 28.373 21.0437 28.3885 20.9817 28.4195C20.4238 28.621 19.8349 28.745 19.2616 28.8069C18.6882 28.8844 18.0993 28.9464 17.526 29.1014C18.0838 28.9309 18.6727 28.8379 19.2461 28.7295C19.8194 28.621 20.3928 28.497 20.9197 28.2491C20.9817 28.2181 21.0592 28.2026 21.1212 28.1716C21.1831 28.1406 21.2606 28.1096 21.3226 28.0941C21.4621 28.0476 21.617 27.9856 21.741 27.9391C22.0355 27.8617 22.3454 27.8152 22.6553 27.8307C22.8103 27.8307 22.9652 27.8617 23.1047 27.8772C22.9033 27.7532 22.7173 27.6292 22.5158 27.4898C22.02 27.1333 21.5551 26.7459 21.0437 26.4205C20.5323 26.0951 20.0054 25.8006 19.5095 25.4752C18.9981 25.1498 18.5022 24.8089 18.0218 24.4215C18.5022 24.7934 18.9981 25.1343 19.525 25.4287C20.0519 25.7232 20.5788 26.0331 21.0902 26.343C21.617 26.6529 22.0819 27.0404 22.5778 27.3813C22.8258 27.5517 23.0892 27.7222 23.3372 27.8307C23.4146 27.8617 23.4921 27.8926 23.5696 27.9391C23.8331 27.9856 24.112 28.0631 24.3599 28.1096C24.4219 28.1096 24.4994 28.1251 24.5769 28.1406H24.6854L24.7938 28.1716C24.9333 28.1716 25.0883 28.1871 25.2122 28.2026C25.5067 28.2026 25.7701 28.2026 26.0645 28.1561C26.6224 28.0941 27.1803 27.9392 27.7382 27.7687C27.7847 27.7687 27.8466 27.7377 27.8931 27.7222C27.5832 27.5362 27.2888 27.3503 26.9633 27.1488C26.5294 26.8854 26.08 26.5755 25.6926 26.188L25.1503 25.6457C24.9643 25.4597 24.7783 25.2893 24.5924 25.1343C24.4064 24.9793 24.1895 24.8399 23.9725 24.7624C23.864 24.7159 23.7556 24.6849 23.6316 24.6539L23.5696 24.8089C23.6316 24.9173 23.6006 25.1033 23.2752 25.3512C22.9342 25.6147 22.5003 25.6457 22.5003 25.6457C22.5003 25.6457 22.6398 25.2273 22.9807 24.9483C23.2752 24.7314 23.4301 24.7004 23.5386 24.7624L23.5851 24.6384C23.4766 24.6229 23.3836 24.6074 23.2752 24.5919C23.2132 24.5919 23.1512 24.5919 23.0892 24.5764C23.0272 24.5609 22.9652 24.5764 22.9033 24.5764H22.5158C22.2679 24.5764 22.0045 24.5764 21.741 24.5454C21.4776 24.5144 21.2141 24.4679 20.9817 24.3285C20.9197 24.2975 20.8577 24.2665 20.8112 24.22L20.7337 24.1735L20.6563 24.127C20.5478 24.065 20.4548 23.9721 20.3308 23.8946C19.9279 23.5692 19.5405 23.2127 19.1996 22.8253C18.8587 22.4379 18.5332 22.035 18.2853 21.5701C18.5487 22.004 18.8742 22.4224 19.2306 22.7943C19.587 23.1662 19.9744 23.5072 20.3773 23.8016C20.4858 23.8636 20.5788 23.9566 20.7027 24.0185L20.7802 24.065L20.8577 24.1115C20.8577 24.1115 20.9662 24.1735 21.0282 24.189C21.2451 24.2975 21.5086 24.344 21.7565 24.3595C22.0045 24.375 22.2679 24.3595 22.5158 24.3595H22.5623V24.2045C22.4384 24.2045 22.3144 24.127 22.1439 23.8171C21.927 23.4452 21.958 23.0113 21.958 23.0113C21.958 23.0113 22.3609 23.1972 22.5778 23.5691C22.7948 23.9411 22.7638 24.1115 22.6398 24.1735H22.6243V24.344H23.3217C23.5851 24.3595 23.864 24.406 24.112 24.5144C24.3599 24.5919 24.6079 24.7314 24.8248 24.8864C25.0418 25.0413 25.2432 25.2118 25.4292 25.3977L26.0026 25.9246C26.359 26.2655 26.7774 26.529 27.2423 26.7924C27.6607 27.0249 28.0946 27.2418 28.513 27.5207C28.8384 27.4123 29.1793 27.3193 29.5048 27.2108C29.7992 27.1333 30.0781 27.0559 30.3881 26.9939C30.4191 26.9939 30.4501 26.9939 30.4966 26.9784C30.3881 26.8699 30.3106 26.7614 30.2331 26.6374C30.0162 26.343 29.8457 26.0331 29.6907 25.7077C29.5358 25.3822 29.4273 25.0413 29.3343 24.7314L29.3033 24.6074V24.5454L29.2723 24.4834L29.2103 24.251C29.1794 24.0805 29.1329 23.9256 29.0864 23.7551C29.0709 23.6466 29.0399 23.5382 29.0244 23.4297C28.6215 23.3677 28.2341 23.2282 27.8621 23.0578C27.4747 22.8873 27.1183 22.6859 26.7619 22.4999C26.4055 22.3139 26.0491 22.128 25.6616 21.9885C25.2897 21.849 24.9023 21.7716 24.5149 21.7561H24.205C24.0965 21.7561 24.0035 21.7406 23.8795 21.7251C23.6781 21.6941 23.4766 21.6476 23.2752 21.5856C22.8723 21.4616 22.5003 21.2757 22.1439 21.0742C21.7875 20.8573 21.4621 20.5783 21.2141 20.2684C20.9507 19.943 20.7337 19.5866 20.6408 19.1837C20.7647 19.5711 20.9817 19.9275 21.2606 20.2374C21.5396 20.5474 21.865 20.7798 22.2059 20.9812C22.5623 21.1827 22.9342 21.3377 23.3217 21.4306C23.5076 21.4771 23.7091 21.5081 23.9105 21.5391H24.5149C24.9333 21.5391 25.3672 21.6011 25.7701 21.7406C26.173 21.8645 26.5449 22.0505 26.9169 22.221C27.2888 22.3914 27.6452 22.5774 28.0171 22.7168C28.327 22.8408 28.6215 22.9338 28.9469 22.9803C28.9469 22.9183 28.9159 22.8253 28.9159 22.7633C28.8694 22.4534 28.8384 22.159 28.8074 21.849C28.4665 21.7096 28.1411 21.5391 27.8466 21.3532C27.5057 21.1362 27.2113 20.8728 26.9169 20.5938C26.3435 20.036 25.9096 19.3696 25.5067 18.7033C25.4757 18.6568 25.4602 18.6258 25.4447 18.5638C25.2897 18.6878 25.1193 18.7808 24.9488 18.8582C24.7319 18.9357 24.4994 18.9822 24.267 18.9977C24.0345 18.9977 23.8176 18.9977 23.5696 18.9202C23.4611 18.8892 23.3526 18.8427 23.2442 18.7653C23.1357 18.6878 23.0582 18.6258 22.9497 18.5638C22.8723 18.5018 22.7638 18.4243 22.6863 18.3778C22.6398 18.3469 22.5778 18.3314 22.5313 18.3159L22.3764 18.2539C22.1749 18.1764 21.958 18.0989 21.741 18.0369C21.3226 17.882 20.8732 17.7425 20.4703 17.5565C20.8887 17.7425 21.3226 17.8665 21.7565 17.9904C21.9735 18.0524 22.1904 18.1299 22.3919 18.1919L22.5623 18.2384C22.5623 18.2384 22.6708 18.2694 22.7328 18.3004C22.8413 18.3469 22.9342 18.4243 23.0272 18.4863C23.1202 18.5483 23.2132 18.6258 23.3217 18.6723C23.4301 18.7188 23.5231 18.7808 23.6316 18.7963C23.8485 18.8427 24.0655 18.8582 24.2979 18.8427C24.5149 18.8272 24.7318 18.7808 24.9333 18.6878C25.1038 18.6258 25.2742 18.5173 25.4137 18.3778C24.7163 17.0916 24.1895 15.7435 23.4921 14.4727C23.8021 14.9531 24.0655 15.4335 24.3134 15.9449C24.4684 15.8209 24.5769 15.6505 24.6544 15.4645C24.7318 15.2631 24.7783 15.0461 24.8248 14.8292C24.8713 14.6122 24.9023 14.3953 24.9953 14.1628C25.0418 14.0543 25.1038 13.9614 25.1658 13.8684C25.2277 13.7754 25.3207 13.6979 25.4137 13.6514C25.3362 13.7134 25.2432 13.7909 25.1812 13.8839C25.1193 13.9614 25.0573 14.0698 25.0263 14.1783C24.9643 14.3798 24.9178 14.5967 24.9023 14.8447C24.8713 15.0616 24.8403 15.2786 24.7628 15.511C24.7318 15.6195 24.6854 15.728 24.6079 15.8364C24.5459 15.9139 24.4684 16.0069 24.3909 16.0844C24.4529 16.2393 24.5459 16.3788 24.6079 16.5183C24.9643 17.2156 25.3362 17.882 25.7391 18.5483C26.142 19.1837 26.6224 19.819 27.1803 20.3304C27.4747 20.5783 27.7537 20.8108 28.0791 20.9967C28.3115 21.1362 28.575 21.2447 28.8229 21.3532V20.7178C28.8539 20.1909 28.9314 19.6641 29.0554 19.1682C28.8539 19.1837 28.668 19.1682 28.482 19.1062C28.2806 19.0597 28.0946 18.9512 27.9241 18.8427C27.5832 18.6103 27.3198 18.3004 27.1028 17.9594C26.8859 17.6185 26.7309 17.2311 26.6689 16.8437C26.6379 16.6422 26.6224 16.4408 26.6379 16.2393C26.6379 16.0379 26.6844 15.8364 26.7774 15.6505C26.8084 15.542 26.8549 15.4645 26.9324 15.387C26.9943 15.3095 27.0718 15.2321 27.1338 15.1701C27.2888 15.0306 27.4747 14.9531 27.6452 14.8447C27.8157 14.7362 28.0016 14.6587 28.1566 14.5502C28.2341 14.5037 28.3115 14.4263 28.389 14.3643C28.451 14.3023 28.544 14.2248 28.5905 14.1628C28.73 14.0078 28.8229 13.8374 28.9004 13.6514C28.9779 13.4655 29.0244 13.2795 29.0399 13.0781C29.0709 12.6752 29.0244 12.2877 28.9624 11.9003C29.0244 12.2877 29.1019 12.6907 29.0709 13.0781C29.0709 13.2795 29.0244 13.481 28.9469 13.6669C28.8849 13.8529 28.7764 14.0233 28.637 14.1783C28.575 14.2558 28.4975 14.3333 28.4355 14.3953C28.3735 14.4572 28.2806 14.5347 28.2031 14.5812C28.0326 14.7052 27.8621 14.7827 27.6917 14.8911C27.5212 14.9686 27.3353 15.0771 27.1958 15.2166C27.0408 15.3405 26.9324 15.511 26.8549 15.697C26.6999 16.0534 26.6999 16.4563 26.7774 16.8437C26.8549 17.2311 27.0098 17.5875 27.2113 17.9284C27.4282 18.2539 27.6917 18.5483 28.0171 18.7498C28.1876 18.8582 28.358 18.9357 28.544 18.9822C28.73 19.0287 28.9159 19.0442 29.1019 19.0287V19.0752C29.1329 18.9512 29.1639 18.8427 29.2103 18.7188C29.3498 18.3159 29.4738 17.9439 29.6288 17.5565C29.6133 17.4791 29.5823 17.3861 29.5513 17.3241C29.4738 17.1536 29.3188 17.0142 29.1639 16.8902C29.0089 16.7507 28.8539 16.6422 28.7299 16.4718C28.668 16.3943 28.606 16.3013 28.5905 16.2083C28.5905 16.0999 28.606 16.0069 28.6525 15.9139C28.606 15.9914 28.5905 16.0999 28.606 16.2083C28.6215 16.3168 28.6835 16.3943 28.7609 16.4563C28.9004 16.6113 29.0709 16.7042 29.2103 16.8437C29.3653 16.9677 29.5358 17.1071 29.6443 17.2776C29.6752 17.3086 29.6907 17.3551 29.7062 17.4016C30.0317 16.6113 30.3881 15.8054 30.6825 15.0151C30.6825 14.9841 30.7135 14.9531 30.7135 14.9066L30.4966 14.8292C30.3881 14.9066 30.2021 14.8757 29.9387 14.5347C29.6752 14.1938 29.6288 13.7599 29.6288 13.7599C29.6288 13.7599 30.0626 13.8839 30.3261 14.2093C30.543 14.4728 30.574 14.6432 30.5276 14.7517L30.729 14.8292C30.8375 14.5812 30.8995 14.3178 30.946 14.0543C31.0079 13.7289 31.0234 13.388 31.0079 13.0781C30.9924 12.7681 30.9305 12.4117 30.853 12.1018C30.7755 11.7919 30.698 11.4354 30.636 11.1255C30.7135 11.4509 30.8065 11.7609 30.8995 12.0863C30.9924 12.4117 31.0699 12.7216 31.1009 13.0626C31.1319 13.3725 31.1319 13.6669 31.1009 13.9614H31.2404C31.2249 13.8374 31.3024 13.6979 31.5813 13.481C31.9222 13.233 32.3716 13.2175 32.3716 13.2175C32.3716 13.2175 32.2167 13.6359 31.8757 13.8994C31.5348 14.1628 31.3489 14.1318 31.2714 14.0234L31.1009 14.0079V14.0698C31.0544 14.4108 30.9615 14.7362 30.853 15.0461C30.6515 15.666 30.4036 16.3013 30.1711 16.9212C30.1401 16.9987 30.1091 17.1071 30.0627 17.1846C30.0936 17.1536 30.1246 17.1226 30.1711 17.0761C30.2951 16.9522 30.4346 16.8592 30.574 16.7507C30.636 16.7042 30.7135 16.6422 30.7755 16.5958L30.884 16.5338H30.915C30.915 16.5338 30.946 16.5028 30.977 16.5028C31.0544 16.4718 31.1474 16.4563 31.2249 16.4408C31.3024 16.4408 31.3954 16.4098 31.4573 16.3788C31.5193 16.3478 31.5968 16.3013 31.6433 16.2238C31.6743 16.1928 31.6898 16.1619 31.7208 16.1154C31.7518 16.0689 31.7673 16.0534 31.7828 16.0069C31.8448 15.8519 31.8912 15.6815 31.9377 15.5265C31.9687 15.356 31.9997 15.1856 32.0462 15.0306C32.0152 15.2011 31.9997 15.3715 31.9687 15.542C31.9377 15.7125 31.9067 15.8829 31.8293 16.0379C31.8138 16.0689 31.7983 16.1154 31.7673 16.1619C31.7363 16.2083 31.7208 16.2238 31.6898 16.2703C31.6433 16.3323 31.5658 16.3943 31.4883 16.4408C31.4108 16.4873 31.3179 16.5028 31.2404 16.5028C31.1629 16.5183 31.0854 16.5338 31.0079 16.5648L30.9615 16.5958H30.9305L30.822 16.6732C30.822 16.6732 30.6825 16.7817 30.6205 16.8282C30.4811 16.9367 30.3726 17.0451 30.2486 17.1536C30.1401 17.2621 30.0472 17.3706 29.9387 17.4945C29.9077 17.6185 29.8612 17.727 29.8147 17.851C29.7682 18.0059 29.7062 18.1764 29.6597 18.3314L29.6288 18.4553L29.5978 18.5793C29.5978 18.5793 29.5513 18.7343 29.5358 18.8117C29.3653 19.4316 29.2878 20.0825 29.2723 20.7333C29.2723 21.3687 29.3343 22.0195 29.4738 22.6549C29.5358 22.9803 29.6133 23.2902 29.6907 23.6001C29.7372 23.7551 29.7682 23.9256 29.8302 24.0805L29.8922 24.313V24.3595L29.9232 24.406L29.9542 24.5299C30.1711 25.1343 30.4501 25.7077 30.8375 26.188C31.2094 26.6684 31.7208 27.0559 32.2632 27.3658C32.5266 27.5362 32.821 27.6912 33.1155 27.8462H33.1465C33.162 27.7222 33.1775 27.6292 33.193 27.5052C33.224 27.2728 33.2549 27.0249 33.2549 26.7924C33.2549 26.56 33.2239 26.343 33.1775 26.0951C33.1155 25.8781 33.0225 25.6457 32.9295 25.4287C32.8985 25.3822 32.883 25.3202 32.852 25.2583C32.821 25.2118 32.8055 25.1498 32.7745 25.1033C32.7436 25.0413 32.7281 25.0413 32.6971 24.9638H32.4801C32.4801 24.9638 32.3561 24.9948 32.2942 25.0103C32.2477 25.0258 32.1702 25.0568 32.1392 25.1188C32.1082 25.1808 32.0772 25.2273 32.0772 25.2893C32.0617 25.2273 32.0772 25.1498 32.1082 25.0878C32.1392 25.0258 32.2167 24.9793 32.2632 24.9328C32.3251 24.9018 32.3871 24.8708 32.4491 24.8554C32.4956 24.8554 32.5266 24.8244 32.5886 24.8244C32.4336 24.6229 32.2787 24.4369 32.1392 24.2355C31.9842 24.034 31.8293 23.8326 31.7363 23.6311C31.6433 23.4297 31.5348 23.1817 31.5348 22.9183C31.5658 23.1507 31.6588 23.3987 31.7828 23.6001C31.9067 23.8016 32.0772 23.9875 32.2322 24.1735C32.3871 24.3595 32.5731 24.5299 32.7436 24.7159C32.821 24.7934 32.914 24.9018 32.976 25.0103C33.007 25.0568 33.038 25.1188 33.0845 25.1653C33.131 25.2118 33.1465 25.2738 33.193 25.3357C33.3169 25.5527 33.4254 25.7696 33.5184 26.0331C33.5184 26.0331 33.5339 26.0331 33.5494 26.0176C33.5804 25.9866 33.6114 25.9711 33.6733 25.9556C33.7353 25.9246 33.8283 25.8936 33.9058 25.8781C34.0608 25.8316 34.2312 25.8161 34.3862 25.8006C34.2312 25.8316 34.0763 25.8781 33.9368 25.9556C33.8748 25.9866 33.7973 26.0176 33.7353 26.0796C33.6733 26.1416 33.6114 26.1571 33.5959 26.2345C33.6424 26.436 33.6733 26.622 33.7043 26.8234C33.7198 27.0713 33.7043 27.3348 33.7043 27.5827C33.7043 27.7532 33.6733 27.9237 33.6578 28.0941C33.8128 28.1716 33.9833 28.2646 34.1382 28.3575C34.6496 28.652 35.13 28.9619 35.6104 29.3493C35.6569 29.0549 35.7189 28.7914 35.7499 28.497C35.7809 28.2026 35.8119 27.9391 35.8274 27.6757C35.8274 27.5362 35.8429 27.4123 35.8429 27.2573V27.0558V26.8854C35.8119 26.6529 35.7344 26.3895 35.6414 26.1571C35.5329 25.9246 35.409 25.7077 35.2385 25.4752C35.068 25.2583 34.8821 25.0413 34.6961 24.8399L34.4017 24.5144L34.2467 24.344L34.2157 24.313L34.2002 24.2975L34.1382 24.189C33.7973 23.8016 33.4719 23.4142 33.2084 22.9958C33.131 22.9493 33.0535 22.8718 32.976 22.8253C32.8985 22.7788 32.8055 22.7478 32.7126 22.7168C32.6196 22.6859 32.5111 22.7168 32.4181 22.7168C32.2167 22.7478 31.9997 22.7788 31.7983 22.7633C31.5968 22.7478 31.3954 22.6549 31.2094 22.5619C31.3954 22.6394 31.5968 22.7169 31.7983 22.7323C31.9997 22.7323 32.2012 22.7014 32.4026 22.6549C32.5111 22.6239 32.6196 22.6239 32.7281 22.6239C32.8365 22.6239 32.945 22.6704 33.038 22.7323C32.7281 22.2365 32.4646 21.7251 32.2942 21.1827C32.1082 20.6248 31.9997 20.0205 32.0307 19.4316C32.0617 18.8427 32.1857 18.2694 32.4181 17.727C32.2322 18.2849 32.1547 18.8582 32.1857 19.4316C32.2167 20.005 32.3561 20.5628 32.5731 21.0897C32.6816 21.3067 32.7745 21.5236 32.8985 21.7251C32.9605 21.6786 33.038 21.6476 33.1 21.5856C33.2084 21.5236 33.3014 21.4306 33.3634 21.3377C33.5184 21.1362 33.6579 20.9038 33.7508 20.6558C33.7973 20.4854 33.8593 20.2994 33.8748 20.1289C33.8748 19.8965 33.7663 19.6331 33.8128 19.3851C33.8128 19.6331 33.9213 19.881 33.9368 20.1289C33.9213 20.3149 33.8748 20.4854 33.8283 20.6713C33.7508 20.9193 33.6114 21.1672 33.4564 21.3842C33.3944 21.5081 33.2704 21.6011 33.162 21.6941C33.1 21.7406 33.0225 21.8026 32.9605 21.849C33.1155 22.0815 33.2704 22.3294 33.4409 22.5464C33.7818 22.9958 34.1692 23.4297 34.5722 23.8171L34.6496 23.8791H34.6651V23.9101L34.6961 23.9411L34.8666 24.096L35.192 24.406C35.409 24.6074 35.6259 24.8089 35.8119 25.0413C35.9668 25.2118 36.1218 25.3977 36.2303 25.5992C36.4007 25.4907 36.5557 25.3977 36.7417 25.3048C36.8501 25.2583 36.9586 25.2428 37.0826 25.2273C37.2066 25.2273 37.2995 25.2273 37.4235 25.1963C37.315 25.2273 37.2066 25.2428 37.0826 25.2583C36.9586 25.2738 36.8656 25.3048 36.7727 25.3667C36.6022 25.4752 36.4472 25.5682 36.2923 25.7077C36.3078 25.7387 36.3233 25.7696 36.3388 25.7851C36.4937 26.0796 36.6332 26.374 36.6797 26.7149C36.6797 26.7459 36.6952 26.7924 36.6952 26.8389V26.9474V26.9939C36.6952 26.9939 36.6952 27.1488 36.7107 27.2263C36.7107 27.3813 36.7107 27.5362 36.7262 27.6757C36.7262 27.9856 36.7262 28.2801 36.7107 28.5745C36.6797 29.1479 36.6022 29.7057 36.5402 30.2791C36.5402 30.2791 36.5712 30.3101 36.5712 30.3256C36.6177 30.3876 36.6952 30.4806 36.7417 30.5425L36.8036 30.651L36.8811 30.7595C36.9896 30.9145 37.0826 31.0694 37.1756 31.2089C37.346 31.4723 37.4855 31.7513 37.6095 32.0302H38.6012V25.0568C38.4153 24.8864 38.2603 24.7159 38.1209 24.5454L38.0899 24.6539L37.9969 24.5299Z" fill="#42768C"/>
<path d="M38.4304 23.5382V22.345C38.2754 22.6549 38.136 22.9493 38.105 23.2438C38.2135 23.3522 38.3219 23.4452 38.4304 23.5537V23.5382Z" fill="#42768C"/>
<path d="M38.354 15.4026C38.354 15.6196 38.385 15.852 38.4314 16.0845V14.5813C38.4314 14.5813 38.416 14.6588 38.4005 14.7053C38.354 14.9222 38.3385 15.1857 38.354 15.4181V15.4026Z" fill="#42768C"/>
<path d="M17.6342 37.0357C17.2623 37.0357 16.9678 37.0047 16.7819 36.9272C16.5959 36.8652 16.4254 36.7567 16.286 36.6018C16.1465 36.4623 16.069 36.2918 15.9915 36.1214C15.9141 35.9509 15.9141 35.703 15.9141 35.3775V32.9756H16.7664V35.362C16.7664 35.5945 16.7664 35.7649 16.7974 35.8579C16.8284 35.9509 16.8439 36.0284 16.9058 36.0904C16.9833 36.1988 17.0918 36.2608 17.2158 36.2918C17.3397 36.3228 17.5102 36.3538 17.7117 36.3538H18.7034V37.0357H17.6342Z" fill="#010101"/>
<path d="M19.8971 33.0065V35.4239C19.8971 35.7958 19.9591 36.0593 20.0986 36.2142C20.238 36.3692 20.4705 36.4312 20.8114 36.4312C21.1523 36.4312 21.3848 36.3692 21.5243 36.2142C21.6637 36.0593 21.7257 35.8113 21.7257 35.4239V33.0065H22.578V35.4394C22.578 35.7338 22.5625 35.9508 22.5315 36.1367C22.5005 36.3072 22.4231 36.4467 22.3456 36.5397C22.1751 36.7256 21.9892 36.8806 21.7412 36.9581C21.5088 37.0355 21.1833 37.0975 20.8269 37.0975C20.4705 37.0975 20.1451 37.051 19.9126 36.9581C19.6802 36.8651 19.4632 36.7256 19.3083 36.5397C19.2308 36.4312 19.1688 36.3227 19.1378 36.1522C19.1068 35.9818 19.0913 35.7493 19.0913 35.4549V33.022H19.9436H19.9281L19.8971 33.0065Z" fill="#010101"/>
<path d="M23.3994 33.0065H24.6546L25.6929 36.1213L26.7312 33.0065H27.9864V37.051H27.1651L27.227 33.9053L26.1888 37.051H25.29L24.2207 33.8743L24.2982 37.051H23.4304V33.0065H23.3994Z" fill="#010101"/>
<path d="M29.6753 37.0355H28.792V32.991H29.6753V37.0355Z" fill="#010101"/>
<path d="M30.2485 34.9745C30.2485 34.2771 30.419 33.7503 30.7444 33.4248C31.0853 33.0839 31.5967 32.9135 32.2631 32.9135C32.9294 32.9135 33.4563 33.0839 33.7817 33.4248C34.1072 33.7657 34.2776 34.3081 34.2776 35.021C34.2776 35.7338 34.1072 36.2762 33.7817 36.6171C33.4563 36.958 32.9604 37.1285 32.2631 37.1285C31.5657 37.1285 31.0699 36.958 30.7444 36.6016C30.419 36.2607 30.2485 35.7183 30.2485 34.9745ZM32.2631 33.6108C31.9067 33.6108 31.6277 33.7348 31.4573 33.9517C31.2868 34.1687 31.1938 34.5251 31.1938 34.99C31.1938 35.4859 31.2713 35.8578 31.4573 36.0902C31.6432 36.3227 31.9067 36.4466 32.2786 36.4466C32.6505 36.4466 32.9139 36.3227 33.0999 36.1057C33.2859 35.8733 33.3633 35.5168 33.3633 35.0365C33.3633 34.5561 33.2859 34.2152 33.0999 33.9672C32.9294 33.7348 32.6505 33.6263 32.2786 33.6263H32.2631V33.6108Z" fill="#42768C"/>
<path d="M34.8662 33.0065H35.951L37.6091 35.9198L37.5781 33.0065H38.4459V37.051H37.4696L35.734 33.9982L35.765 37.051H34.8817V33.0065H34.8662Z" fill="#42768C"/>
<path d="M61.2952 25.304L60.7192 29H50.0872L52.8232 11.72H57.2152L55.0552 25.304H61.2952ZM76.3024 17L74.4064 29H70.5184L70.5904 27.776C70.6064 27.536 70.6784 27.28 70.8064 27.008H70.7584C70.3904 27.6 69.7904 28.136 68.9584 28.616C68.1744 29.096 67.3584 29.336 66.5104 29.336C65.1824 29.336 64.2144 28.92 63.6064 28.088C62.9984 27.256 62.8224 26.056 63.0784 24.488L64.2544 17H68.5504L67.4704 23.84C67.2944 24.944 67.6384 25.496 68.5024 25.496C69.1584 25.496 69.7184 25.264 70.1824 24.8C70.6464 24.336 70.9344 23.744 71.0464 23.024L72.0064 17H76.3024ZM77.2451 29L79.1411 17H83.0291L82.9571 18.224C82.9571 18.528 82.8851 18.784 82.7411 18.992H82.7891C83.1091 18.464 83.5651 18 84.1571 17.6C84.7651 17.2 85.3971 16.936 86.0531 16.808C86.4691 16.696 86.8611 16.664 87.2291 16.712C88.7811 16.776 89.7491 17.488 90.1331 18.848C91.4451 17.392 92.8531 16.664 94.3571 16.664C95.6691 16.664 96.6211 17.08 97.2131 17.912C97.8051 18.728 97.9731 19.928 97.7171 21.512L96.5411 29H92.2691L93.3731 22.064C93.5491 21.024 93.2291 20.504 92.4131 20.504C91.6451 20.504 91.0691 20.792 90.6851 21.368C90.3011 21.928 90.0291 22.776 89.8691 23.912L89.0531 29H84.7571L85.8611 22.064C86.0371 21.024 85.7251 20.504 84.9251 20.504C84.1571 20.504 83.5811 20.784 83.1971 21.344C82.8291 21.904 82.5491 22.76 82.3571 23.912L81.5411 29H77.2451ZM99.206 29L101.102 17H105.398L103.502 29H99.206ZM101.462 13.928C101.462 13.16 101.71 12.544 102.206 12.08C102.702 11.6 103.35 11.36 104.15 11.36C104.774 11.36 105.254 11.528 105.59 11.864C105.942 12.184 106.118 12.632 106.118 13.208C106.118 13.976 105.87 14.6 105.374 15.08C104.878 15.56 104.238 15.8 103.454 15.8C102.83 15.8 102.342 15.632 101.99 15.296C101.638 14.96 101.462 14.504 101.462 13.928ZM113.915 16.664C115.595 16.664 116.947 17.176 117.971 18.2C118.995 19.208 119.507 20.512 119.507 22.112C119.507 24.144 118.763 25.856 117.275 27.248C115.819 28.64 114.035 29.336 111.923 29.336C110.259 29.336 108.907 28.832 107.867 27.824C106.843 26.8 106.331 25.496 106.331 23.912C106.331 21.864 107.067 20.144 108.539 18.752C109.995 17.36 111.787 16.664 113.915 16.664ZM112.475 25.784C113.259 25.784 113.955 25.48 114.563 24.872C115.155 24.28 115.451 23.504 115.451 22.544C115.451 21.84 115.259 21.28 114.875 20.864C114.491 20.432 113.987 20.216 113.363 20.216C112.579 20.216 111.883 20.52 111.275 21.128C110.683 21.72 110.387 22.496 110.387 23.456C110.387 24.16 110.579 24.728 110.963 25.16C111.347 25.576 111.851 25.784 112.475 25.784ZM120.44 29L122.336 17H126.224L126.152 18.224C126.152 18.528 126.08 18.784 125.936 18.992H125.984C126.352 18.4 126.952 17.864 127.784 17.384C128.6 16.904 129.424 16.664 130.256 16.664C131.584 16.664 132.552 17.08 133.16 17.912C133.768 18.744 133.944 19.944 133.688 21.512L132.512 29H128.24L129.32 22.16C129.496 21.056 129.152 20.504 128.288 20.504C127.616 20.504 127.04 20.736 126.56 21.2C126.096 21.664 125.808 22.256 125.696 22.976L124.736 29H120.44Z" fill="black"/>
</svg>
