<svg width="111" height="45" viewBox="0 0 111 45" fill="none" xmlns="http://www.w3.org/2000/svg">
<rect width="110.916" height="45" rx="6" fill="#EADEC4"/>
<path d="M45.3345 21.1828L31.8525 7.70093C31.0777 6.92611 29.8379 6.92611 29.0631 7.70093L26.2737 10.3353L29.8379 13.8995C30.6128 13.5896 31.6975 13.7445 32.1624 14.3644C32.7823 14.9843 32.9372 16.069 32.6273 16.6889L36.0365 20.0981C36.8114 19.7881 37.8961 19.9431 38.361 20.563C39.4458 21.6477 39.4458 22.8874 38.361 23.9722C37.2763 25.0569 36.0366 25.0569 34.9518 23.9722C34.3319 23.3523 34.177 22.2676 34.4869 21.4928L31.3876 18.3935V26.7615C31.5426 26.9165 31.8525 26.9165 32.0075 27.2264C33.0922 28.3112 33.0922 29.5509 32.0075 30.6357C30.9227 31.7204 29.8379 31.7204 28.9081 30.7906C27.8234 29.7059 27.8234 28.4662 28.9081 27.3814C29.0631 27.2264 29.373 27.0715 29.683 26.9165V18.3935C29.373 18.2385 29.0631 18.0835 28.9081 17.7736C28.1333 16.9988 27.9783 16.069 28.2883 15.2942L24.879 11.73L15.5811 21.0279C14.8063 21.8027 14.8063 23.0424 15.5811 23.8172L29.0631 37.2991C29.8379 38.0739 31.0777 38.0739 31.8525 37.2991L45.3345 23.8172C46.1093 23.1974 46.1093 21.8027 45.3345 21.1828Z" fill="#EA5235"/>
<path d="M72.2675 20.888L71.1155 28.04C69.2755 28.904 67.2115 29.336 64.9235 29.336C62.4435 29.336 60.4755 28.608 59.0195 27.152C57.5635 25.696 56.8355 23.848 56.8355 21.608C56.8355 18.808 57.8835 16.408 59.9795 14.408C62.0915 12.392 64.6275 11.384 67.5875 11.384C69.6675 11.384 71.4595 11.768 72.9635 12.536L72.3155 16.544C70.7795 15.776 69.1235 15.392 67.3475 15.392C65.5715 15.392 64.1155 15.96 62.9795 17.096C61.8595 18.216 61.2995 19.544 61.2995 21.08C61.2995 22.296 61.6755 23.32 62.4275 24.152C63.1795 24.968 64.2195 25.376 65.5475 25.376C66.1875 25.376 66.7955 25.304 67.3715 25.16L68.0675 20.888H72.2675ZM81.7704 11.72L79.0344 29H74.6424L77.3784 11.72H81.7704ZM98.2657 11.72L97.6897 15.416H93.0817L90.9217 29H86.5057L88.6657 15.416H84.0577L84.6337 11.72H98.2657Z" fill="black"/>
</svg>
