<svg width="149" height="45" viewBox="0 0 149 45" fill="none" xmlns="http://www.w3.org/2000/svg">
<rect width="148.993" height="45" rx="6" fill="#EADEC4"/>
<path d="M30.4965 37.9964C39.055 37.9964 45.9931 31.0584 45.9931 22.5C45.9931 13.9415 39.055 7.00354 30.4965 7.00354C21.938 7.00354 15 13.9415 15 22.5C15 31.0584 21.938 37.9964 30.4965 37.9964Z" fill="url(#paint0_linear_257_109)"/>
<path fill-rule="evenodd" clip-rule="evenodd" d="M16.0854 22.4999C16.0854 28.8535 20.2695 34.4322 26.0032 36.1368C26.6231 36.2918 26.933 35.8269 26.933 35.5169V32.8825C23.3688 33.5024 22.2841 32.1077 22.1291 31.1779C21.9741 30.713 21.3543 29.4733 20.5794 29.1634C20.1145 28.8535 19.4947 28.2336 20.5794 28.2336C21.6642 28.2336 22.594 29.1634 22.749 29.7833C24.1436 31.9528 26.0032 31.3329 26.933 30.868C27.088 29.9382 27.3979 29.3184 27.8628 28.8535C24.7635 28.5435 21.1993 27.1489 21.1993 21.7251C21.1993 20.1755 21.6642 18.9358 22.749 17.6961C22.749 17.5411 22.2841 16.1464 23.0589 14.1319C23.0589 14.1319 24.1436 13.8219 27.088 15.6815C28.1727 15.3716 29.4125 15.2166 30.6522 15.2166C31.8919 15.2166 33.1316 15.3716 34.2164 15.6815C37.0058 13.8219 38.2455 14.1319 38.2455 14.1319C39.0203 16.1464 38.5554 17.5411 38.4005 17.851C39.1753 18.7808 39.9501 20.1755 39.9501 21.8801C39.9501 27.4588 36.6958 28.6985 33.2866 29.0084C33.7515 29.4733 34.2164 30.4031 34.2164 31.6428V35.6719C34.2164 35.9818 34.5263 36.4467 35.1462 36.2918C40.8799 34.2772 45.064 29.0084 45.064 22.6549C45.064 14.7517 38.7104 8.08826 30.4972 8.08826C22.2841 8.08826 16.0854 14.5968 16.0854 22.4999Z" fill="url(#paint1_linear_257_109)"/>
<path d="M72.3452 20.888L71.1932 28.04C69.3532 28.904 67.2892 29.336 65.0012 29.336C62.5212 29.336 60.5532 28.608 59.0972 27.152C57.6412 25.696 56.9132 23.848 56.9132 21.608C56.9132 18.808 57.9612 16.408 60.0572 14.408C62.1692 12.392 64.7052 11.384 67.6652 11.384C69.7452 11.384 71.5372 11.768 73.0412 12.536L72.3932 16.544C70.8572 15.776 69.2012 15.392 67.4252 15.392C65.6492 15.392 64.1932 15.96 63.0572 17.096C61.9372 18.216 61.3772 19.544 61.3772 21.08C61.3772 22.296 61.7532 23.32 62.5052 24.152C63.2572 24.968 64.2972 25.376 65.6252 25.376C66.2652 25.376 66.8732 25.304 67.4492 25.16L68.1452 20.888H72.3452ZM73.4951 29L75.3911 17H79.6871L77.7911 29H73.4951ZM75.7511 13.928C75.7511 13.16 75.9991 12.544 76.4951 12.08C76.9911 11.6 77.6391 11.36 78.4391 11.36C79.0631 11.36 79.5431 11.528 79.8791 11.864C80.2311 12.184 80.4071 12.632 80.4071 13.208C80.4071 13.976 80.1591 14.6 79.6631 15.08C79.1671 15.56 78.5271 15.8 77.7431 15.8C77.1191 15.8 76.6311 15.632 76.2791 15.296C75.9271 14.96 75.7511 14.504 75.7511 13.928ZM80.5481 20.312L81.0761 17H82.6361L83.2121 13.4H87.3641L86.7881 17H89.7641L89.2361 20.312H86.2601L85.6121 24.416C85.5321 24.88 85.6041 25.232 85.8281 25.472C86.0521 25.712 86.3881 25.832 86.8361 25.832C87.3961 25.832 88.0601 25.672 88.8281 25.352L88.2761 28.808C87.5241 29.16 86.4281 29.336 84.9881 29.336C83.8361 29.336 82.9241 29.064 82.2521 28.52C81.5801 27.976 81.2361 27.152 81.2201 26.048C81.2361 25.552 81.2761 25.128 81.3401 24.776L82.0361 20.312H80.5481ZM93.042 29H90.81V11.72H93.018V18.392C93.018 18.504 93.01 18.656 92.994 18.848C92.994 19.04 92.986 19.208 92.97 19.352C92.954 19.496 92.946 19.576 92.946 19.592H92.97C93.322 18.872 93.874 18.216 94.626 17.624C95.41 17.016 96.362 16.712 97.482 16.712C100.218 16.712 101.586 18.296 101.586 21.464V29H99.354V21.92C99.354 20.944 99.194 20.176 98.874 19.616C98.57 19.056 97.97 18.776 97.074 18.776C95.906 18.776 94.938 19.192 94.17 20.024C93.418 20.856 93.042 21.88 93.042 23.096V29ZM115.778 17V29H113.69L113.642 27.32C113.642 27.144 113.666 26.888 113.714 26.552L113.738 26.408H113.69C113.418 27.08 112.874 27.736 112.058 28.376C111.258 28.984 110.314 29.288 109.226 29.288C106.49 29.288 105.122 27.704 105.122 24.536V17H107.354V24.08C107.354 25.056 107.506 25.824 107.81 26.384C108.13 26.944 108.738 27.224 109.634 27.224C110.754 27.224 111.69 26.816 112.442 26C113.178 25.168 113.546 24.136 113.546 22.904V17H115.778ZM122.218 29H120.154V11.72H122.386V17.912L122.314 18.896H122.362C122.714 18.272 123.274 17.752 124.042 17.336C124.81 16.92 125.642 16.712 126.538 16.712C128.138 16.712 129.45 17.296 130.474 18.464C131.53 19.632 132.058 21.144 132.058 23C132.058 24.856 131.53 26.368 130.474 27.536C129.418 28.704 128.09 29.288 126.49 29.288C125.578 29.288 124.722 29.032 123.922 28.52C123.154 28.024 122.594 27.416 122.242 26.696H122.194C122.242 26.936 122.266 27.232 122.266 27.584L122.218 29ZM126.178 18.656C125.17 18.656 124.29 19.032 123.538 19.784C122.786 20.536 122.41 21.608 122.41 23C122.41 24.392 122.786 25.464 123.538 26.216C124.29 26.968 125.17 27.344 126.178 27.344C127.266 27.344 128.162 26.936 128.866 26.12C129.554 25.32 129.898 24.28 129.898 23C129.898 21.704 129.554 20.664 128.866 19.88C128.162 19.064 127.266 18.656 126.178 18.656Z" fill="black"/>
<defs>
<linearGradient id="paint0_linear_257_109" x1="30.0626" y1="8.08829" x2="30.0626" y2="39.3291" gradientUnits="userSpaceOnUse">
<stop stop-color="white"/>
<stop offset="1" stop-color="#E0E0E0"/>
</linearGradient>
<linearGradient id="paint1_linear_257_109" x1="30.5902" y1="34.1997" x2="30.5902" y2="5.88776" gradientUnits="userSpaceOnUse">
<stop stop-color="#492779"/>
<stop offset="1" stop-color="#833189"/>
</linearGradient>
</defs>
</svg>
