<svg width="262" height="45" viewBox="0 0 262 45" fill="none" xmlns="http://www.w3.org/2000/svg">
<rect width="261.993" height="45" rx="6" fill="#C6A857"/>
<path d="M20.4858 7.00354H40.5073C43.5446 7.00354 45.9931 9.51396 45.9931 12.6287V32.3712C45.9931 35.486 43.5446 37.9964 40.5073 37.9964H20.4858C17.4485 37.9964 15 35.486 15 32.3712V12.6442C15 9.52946 17.4485 7.00354 20.4858 7.00354Z" fill="#2D0E0F"/>
<path d="M29.9853 25.5526H25.1813L24.1896 28.6674C24.1586 28.7914 24.0501 28.8689 23.9416 28.8534H21.5242C21.3692 28.8534 21.3382 28.7759 21.3692 28.6209L25.5223 16.3323C25.5533 16.1928 25.5997 16.0688 25.6617 15.8984C25.7082 15.6349 25.7392 15.325 25.7392 15.0306C25.7392 14.9686 25.7702 14.8911 25.8322 14.8756H29.1795C29.2724 14.8756 29.3344 14.9066 29.3499 14.9841L34.0609 28.6209C34.0919 28.7759 34.0609 28.8379 33.9214 28.8379H31.225C31.1475 28.8379 31.039 28.7914 31.008 28.6829L29.9543 25.5217L29.9853 25.5526ZM25.9252 22.8563H29.2104C29.133 22.5928 29.0245 22.2519 28.916 21.911C28.8075 21.5546 28.6836 21.1672 28.5751 20.7797C28.4356 20.3768 28.3271 19.9739 28.2032 19.5555C28.0792 19.1371 27.9552 18.7652 27.8623 18.3778C27.7693 18.0059 27.6608 17.665 27.5833 17.3395H27.5523C27.4438 17.9129 27.2889 18.4708 27.1029 19.0442C26.9015 19.6795 26.7 20.3459 26.514 20.9967C26.3281 21.6785 26.1421 22.2984 25.9562 22.8563H25.9252Z" fill="#F4991C"/>
<path d="M36.9433 17.2001C36.5094 17.2001 36.1065 17.0451 35.7966 16.7507C35.5021 16.4098 35.3472 15.9914 35.3472 15.5265C35.3472 15.0616 35.5021 14.6432 35.8121 14.3487C36.122 14.0543 36.5404 13.8994 36.9588 13.8994C37.4702 13.8994 37.8421 14.0543 38.121 14.3487C38.4 14.6742 38.5704 15.0926 38.555 15.5265C38.555 15.9759 38.4 16.4253 38.1056 16.7507C37.8111 17.0761 37.3617 17.2466 36.9433 17.2001ZM35.5021 28.6984V18.5018C35.5021 18.3623 35.5486 18.3158 35.6726 18.3158H38.2295C38.338 18.3158 38.4 18.3778 38.4 18.5018V28.6984C38.4 28.8534 38.3535 28.9154 38.2295 28.9154H35.6881C35.5486 28.9154 35.4866 28.8379 35.4866 28.6984H35.5021Z" fill="#F4991C"/>
<path d="M59.3852 29H54.8012L66.1772 11.48H66.3932L72.2012 29H67.6172L66.8012 26.36H60.9932L59.3852 29ZM65.0492 19.28L62.7452 23.408H66.0332C65.5692 21.744 65.2412 20.368 65.0492 19.28ZM83.9692 11.72H88.2412L85.5052 29H81.6412L81.6892 28.064L81.8572 27.296H81.8092C81.4572 27.872 80.8972 28.36 80.1292 28.76C79.3612 29.144 78.5692 29.336 77.7532 29.336C76.3772 29.336 75.2492 28.872 74.3692 27.944C73.4892 27.016 73.0492 25.736 73.0492 24.104C73.0492 21.88 73.7052 20.088 75.0172 18.728C76.3452 17.352 77.8892 16.664 79.6492 16.664C80.4332 16.664 81.1132 16.8 81.6892 17.072C82.2812 17.344 82.7052 17.712 82.9612 18.176H83.0092C82.9932 18.016 83.0252 17.68 83.1052 17.168L83.9692 11.72ZM80.0332 20.216C79.2332 20.216 78.5452 20.528 77.9692 21.152C77.4092 21.76 77.1292 22.536 77.1292 23.48C77.1292 24.168 77.3132 24.728 77.6812 25.16C78.0492 25.576 78.5372 25.784 79.1452 25.784C79.9132 25.784 80.5932 25.488 81.1852 24.896C81.7772 24.304 82.0732 23.512 82.0732 22.52C82.0732 21.816 81.8812 21.256 81.4972 20.84C81.1132 20.424 80.6252 20.216 80.0332 20.216ZM95.9385 16.664C97.6185 16.664 98.9705 17.176 99.9945 18.2C101.018 19.208 101.53 20.512 101.53 22.112C101.53 24.144 100.786 25.856 99.2985 27.248C97.8425 28.64 96.0585 29.336 93.9465 29.336C92.2825 29.336 90.9305 28.832 89.8905 27.824C88.8665 26.8 88.3545 25.496 88.3545 23.912C88.3545 21.864 89.0905 20.144 90.5625 18.752C92.0185 17.36 93.8105 16.664 95.9385 16.664ZM94.4985 25.784C95.2825 25.784 95.9785 25.48 96.5865 24.872C97.1785 24.28 97.4745 23.504 97.4745 22.544C97.4745 21.84 97.2825 21.28 96.8985 20.864C96.5145 20.432 96.0105 20.216 95.3865 20.216C94.6025 20.216 93.9065 20.52 93.2985 21.128C92.7065 21.72 92.4105 22.496 92.4105 23.456C92.4105 24.16 92.6025 24.728 92.9865 25.16C93.3705 25.576 93.8745 25.784 94.4985 25.784ZM110.744 20.216C109.976 20.216 109.296 20.512 108.704 21.104C108.112 21.696 107.816 22.488 107.816 23.48C107.816 24.184 108.008 24.744 108.392 25.16C108.776 25.576 109.264 25.784 109.856 25.784C110.656 25.784 111.344 25.48 111.92 24.872C112.496 24.248 112.784 23.464 112.784 22.52C112.784 21.816 112.592 21.256 112.208 20.84C111.84 20.424 111.352 20.216 110.744 20.216ZM106.352 29H102.464L105.2 11.72H109.496L108.632 17.168L108.392 18.176H108.44C109.368 17.168 110.632 16.664 112.232 16.664C113.576 16.664 114.68 17.128 115.544 18.056C116.408 18.984 116.84 20.256 116.84 21.872C116.84 24.112 116.176 25.92 114.848 27.296C113.536 28.656 111.96 29.336 110.12 29.336C109.304 29.336 108.576 29.144 107.936 28.76C107.296 28.36 106.888 27.872 106.712 27.296H106.664C106.68 27.456 106.648 27.712 106.568 28.064L106.352 29ZM125.251 16.664C126.819 16.664 128.027 17.112 128.875 18.008C129.707 18.888 130.123 20.024 130.123 21.416C130.123 22.376 129.971 23.192 129.667 23.864H122.347C122.331 24.488 122.547 24.968 122.995 25.304C123.443 25.624 124.083 25.784 124.915 25.784C125.651 25.784 126.459 25.696 127.339 25.52C128.203 25.344 128.787 25.176 129.091 25.016L128.539 28.592C127.451 29.088 125.923 29.336 123.955 29.336C122.099 29.336 120.627 28.84 119.539 27.848C118.483 26.872 117.955 25.568 117.955 23.936C117.955 21.904 118.675 20.184 120.115 18.776C121.539 17.368 123.251 16.664 125.251 16.664ZM122.635 21.896H126.067C126.163 21.304 126.091 20.832 125.851 20.48C125.627 20.128 125.243 19.952 124.699 19.952C124.171 19.952 123.715 20.136 123.331 20.504C122.963 20.856 122.731 21.32 122.635 21.896ZM140.179 11.72V29H137.875V11.72H140.179ZM144.646 25.928V11.72H146.878V25.472C146.878 26.112 146.982 26.576 147.19 26.864C147.414 27.152 147.774 27.296 148.27 27.296C148.686 27.296 149.038 27.248 149.326 27.152V29.072C148.894 29.216 148.358 29.288 147.718 29.288C146.742 29.288 145.982 29.008 145.438 28.448C144.91 27.888 144.646 27.048 144.646 25.928ZM151.841 25.928V11.72H154.073V25.472C154.073 26.112 154.177 26.576 154.385 26.864C154.609 27.152 154.969 27.296 155.465 27.296C155.881 27.296 156.233 27.248 156.521 27.152V29.072C156.089 29.216 155.553 29.288 154.913 29.288C153.937 29.288 153.177 29.008 152.633 28.448C152.105 27.888 151.841 27.048 151.841 25.928ZM169.567 17V29H167.479L167.431 27.32C167.431 27.144 167.455 26.888 167.503 26.552L167.527 26.408H167.479C167.207 27.08 166.663 27.736 165.847 28.376C165.047 28.984 164.103 29.288 163.015 29.288C160.279 29.288 158.911 27.704 158.911 24.536V17H161.143V24.08C161.143 25.056 161.295 25.824 161.599 26.384C161.919 26.944 162.527 27.224 163.423 27.224C164.543 27.224 165.479 26.816 166.231 26C166.967 25.168 167.335 24.136 167.335 22.904V17H169.567ZM179.223 25.88C179.223 25.416 179.031 25.048 178.647 24.776C178.279 24.504 177.583 24.2 176.559 23.864C175.311 23.464 174.391 22.984 173.799 22.424C173.223 21.848 172.935 21.072 172.935 20.096C172.935 19.104 173.335 18.296 174.135 17.672C174.935 17.032 175.967 16.712 177.231 16.712C178.447 16.712 179.575 16.952 180.615 17.432V19.448C179.543 18.888 178.495 18.608 177.471 18.608C176.735 18.608 176.143 18.744 175.695 19.016C175.247 19.288 175.023 19.672 175.023 20.168C175.023 20.6 175.207 20.96 175.575 21.248C175.959 21.52 176.599 21.808 177.495 22.112C178.871 22.56 179.847 23.064 180.423 23.624C180.999 24.184 181.287 24.944 181.287 25.904C181.287 26.96 180.895 27.792 180.111 28.4C179.327 28.992 178.263 29.288 176.919 29.288C175.415 29.288 174.111 29.024 173.007 28.496V26.456C174.367 27.112 175.647 27.44 176.847 27.44C177.567 27.44 178.143 27.312 178.575 27.056C179.007 26.784 179.223 26.392 179.223 25.88ZM182.995 18.824V17H184.987V13.4H187.171V17H190.795V18.824H187.171V25.04C187.171 26.56 187.763 27.32 188.947 27.32C189.731 27.32 190.483 27.144 191.203 26.792V28.736C190.515 29.104 189.619 29.288 188.515 29.288C187.459 29.288 186.603 28.992 185.947 28.4C185.291 27.792 184.963 26.896 184.963 25.712V18.824H182.995ZM195.741 29H193.509V17H195.597L195.621 18.68L195.597 19.568H195.621C196.421 17.664 197.653 16.712 199.317 16.712C199.605 16.712 199.845 16.736 200.037 16.784V18.944C199.845 18.896 199.637 18.872 199.413 18.872C198.309 18.872 197.421 19.376 196.749 20.384C196.077 21.36 195.741 22.488 195.741 23.768V29ZM202.2 19.664V17.6C203.288 17.008 204.696 16.712 206.424 16.712C209.784 16.712 211.464 18.256 211.464 21.344V29H209.4L209.376 27.584L209.448 26.624H209.4C209.24 26.992 208.872 27.48 208.296 28.088C207.496 28.888 206.472 29.288 205.224 29.288C204.088 29.288 203.168 28.968 202.464 28.328C201.776 27.688 201.432 26.832 201.432 25.76C201.432 24.256 202.12 23.176 203.496 22.52C204.872 21.864 206.792 21.712 209.256 22.064V21.464C209.256 19.592 208.208 18.656 206.112 18.656C204.624 18.656 203.32 18.992 202.2 19.664ZM205.608 27.488C206.6 27.488 207.448 27.088 208.152 26.288C208.856 25.488 209.208 24.6 209.208 23.624C207.4 23.336 206.016 23.384 205.056 23.768C204.112 24.136 203.64 24.776 203.64 25.688C203.64 26.216 203.816 26.648 204.168 26.984C204.536 27.32 205.016 27.488 205.608 27.488ZM213.769 18.824V17H215.761V13.4H217.945V17H221.569V18.824H217.945V25.04C217.945 26.56 218.537 27.32 219.721 27.32C220.505 27.32 221.257 27.144 221.977 26.792V28.736C221.289 29.104 220.393 29.288 219.289 29.288C218.233 29.288 217.377 28.992 216.721 28.4C216.065 27.792 215.737 26.896 215.737 25.712V18.824H213.769ZM229.728 16.712C231.52 16.712 233 17.312 234.168 18.512C235.336 19.68 235.92 21.176 235.92 23C235.92 24.824 235.336 26.328 234.168 27.512C232.984 28.696 231.504 29.288 229.728 29.288C227.968 29.288 226.496 28.696 225.312 27.512C224.144 26.328 223.56 24.824 223.56 23C223.56 21.176 224.144 19.68 225.312 18.512C226.496 17.312 227.968 16.712 229.728 16.712ZM229.728 27.344C230.912 27.344 231.872 26.936 232.608 26.12C233.376 25.304 233.76 24.264 233.76 23C233.76 21.736 233.376 20.696 232.608 19.88C231.872 19.064 230.912 18.656 229.728 18.656C228.576 18.656 227.616 19.064 226.848 19.88C226.096 20.712 225.72 21.752 225.72 23C225.72 24.248 226.096 25.288 226.848 26.12C227.616 26.936 228.576 27.344 229.728 27.344ZM241.351 29H239.119V17H241.207L241.231 18.68L241.207 19.568H241.231C242.031 17.664 243.263 16.712 244.927 16.712C245.215 16.712 245.455 16.736 245.647 16.784V18.944C245.455 18.896 245.247 18.872 245.023 18.872C243.919 18.872 243.031 19.376 242.359 20.384C241.687 21.36 241.351 22.488 241.351 23.768V29Z" fill="black"/>
</svg>
