<svg width="155" height="46" viewBox="0 0 155 46" fill="none" xmlns="http://www.w3.org/2000/svg">
<rect y="0.467285" width="154.795" height="45" rx="6" fill="#EADEC4"/>
<path d="M25.6926 13.6616L32.0462 7.46307H17.7894L15 13.6616H25.6926Z" stroke="#231F20" stroke-width="0.03" stroke-miterlimit="2.29"/>
<path d="M15 13.6616L22.5933 16.6059L25.6926 13.6616" stroke="#231F20" stroke-width="0.03" stroke-miterlimit="2.29"/>
<path d="M25.5381 17.6906L22.5937 16.4509L15.4653 23.1144L22.4388 29.6229L25.5381 28.3832V13.6616" stroke="#231F20" stroke-width="0.03" stroke-miterlimit="2.29"/>
<path d="M25.6934 13.6616L39.7952 22.9595L32.0469 7.46307" stroke="#231F20" stroke-width="0.03" stroke-miterlimit="2.29"/>
<path d="M39.7939 22.9595L25.5371 17.6907" stroke="#231F20" stroke-width="0.03" stroke-miterlimit="2.29"/>
<path d="M25.5371 28.2282V32.2573" stroke="#231F20" stroke-width="0.03" stroke-miterlimit="2.29"/>
<path d="M32.0462 38.4559L22.4383 29.468L15 32.2573L17.7894 38.4559H32.0462Z" stroke="#231F20" stroke-width="0.03" stroke-miterlimit="2.29"/>
<path d="M32.0457 38.456L39.7939 22.9595L25.5371 32.4124" stroke="#231F20" stroke-width="0.03" stroke-miterlimit="2.29"/>
<path d="M39.7939 22.9595L25.5371 28.3833" stroke="#231F20" stroke-width="0.03" stroke-miterlimit="2.29"/>
<path d="M25.5376 32.4279L15 32.2729" stroke="#231F20" stroke-width="0.22" stroke-miterlimit="2.29"/>
<path fill-rule="evenodd" clip-rule="evenodd" d="M25.5371 17.6906L39.7939 22.9594L25.6921 13.6616L25.5371 17.6906Z" fill="#091212"/>
<path fill-rule="evenodd" clip-rule="evenodd" d="M39.7939 22.9595L25.5371 28.3833V32.4124L39.7939 22.9595Z" fill="#0C1616"/>
<path fill-rule="evenodd" clip-rule="evenodd" d="M25.6934 13.6616L39.7952 22.9595L32.0469 7.46307L25.6934 13.6616Z" fill="#066362"/>
<path fill-rule="evenodd" clip-rule="evenodd" d="M39.7939 22.9595L25.5371 32.4124L32.0457 38.456L39.7939 22.9595Z" fill="#014242"/>
<path fill-rule="evenodd" clip-rule="evenodd" d="M25.5371 28.2282L39.7939 22.9595L25.5371 17.6907V28.2282Z" fill="#055455"/>
<path fill-rule="evenodd" clip-rule="evenodd" d="M25.5381 28.2283V17.5358L22.5937 16.451L15.4653 23.1145L22.4388 29.623L25.5381 28.2283Z" fill="#036E6E"/>
<path fill-rule="evenodd" clip-rule="evenodd" d="M22.5933 16.4665L25.5376 17.7063V13.6772L22.5933 16.4665Z" fill="#0D2323"/>
<path fill-rule="evenodd" clip-rule="evenodd" d="M25.5378 28.2282L22.4385 29.4679L25.5378 32.2573V28.2282Z" fill="#102222"/>
<path fill-rule="evenodd" clip-rule="evenodd" d="M25.5376 32.4279L15 32.2729L17.7894 38.4715H32.0462L25.5376 32.4279Z" fill="#02696A"/>
<path fill-rule="evenodd" clip-rule="evenodd" d="M15 13.6616H25.5376L32.0462 7.46307H17.7894L15 13.6616Z" fill="#037B7E"/>
<path fill-rule="evenodd" clip-rule="evenodd" d="M25.6926 13.6616H15L22.5933 16.6059C22.5933 16.4509 25.6926 13.6616 25.6926 13.6616Z" fill="#153838"/>
<path fill-rule="evenodd" clip-rule="evenodd" d="M22.4383 29.468L15 32.2573H25.5376L22.4383 29.468Z" fill="#162D2C"/>
<path d="M57.3869 17.1553C57.3869 16.6913 57.1709 16.3313 56.7389 16.0753C56.3229 15.8193 55.7549 15.6913 55.0349 15.6913C53.7709 15.6913 52.6029 15.9233 51.5309 16.3873L52.1309 12.6193C53.4269 12.1073 54.8669 11.8513 56.4509 11.8513C58.1949 11.8513 59.5629 12.2433 60.5549 13.0273C61.5629 13.8113 62.0669 14.8433 62.0669 16.1233C62.0669 17.1313 61.7469 18.0353 61.1069 18.8353C60.4829 19.6353 59.6749 20.2433 58.6829 20.6593C59.4029 20.9153 59.9869 21.3553 60.4349 21.9793C60.8829 22.6033 61.1069 23.3313 61.1069 24.1633C61.1069 25.8753 60.3869 27.2513 58.9469 28.2913C57.5069 29.2993 55.7309 29.8033 53.6189 29.8033C51.8749 29.8033 50.4349 29.5073 49.2989 28.9153L49.8989 25.1473C51.0509 25.6913 52.3549 25.9633 53.8109 25.9633C54.6429 25.9633 55.3149 25.7873 55.8269 25.4353C56.3389 25.0833 56.5949 24.5953 56.5949 23.9713C56.5949 23.4433 56.3229 23.0273 55.7789 22.7233C55.2509 22.4193 54.4909 22.2673 53.4989 22.2673H52.8029L53.3069 19.0513H54.1469C55.0909 19.0513 55.8669 18.8833 56.4749 18.5473C57.0829 18.1953 57.3869 17.7313 57.3869 17.1553ZM73.2241 12.1873H77.4961L74.7601 29.4673H70.8961L70.9441 28.5313L71.1121 27.7633H71.0641C70.7121 28.3393 70.1521 28.8273 69.3841 29.2273C68.6161 29.6113 67.8241 29.8033 67.0081 29.8033C65.6321 29.8033 64.5041 29.3393 63.6241 28.4113C62.7441 27.4833 62.3041 26.2033 62.3041 24.5713C62.3041 22.3473 62.9601 20.5553 64.2721 19.1953C65.6001 17.8193 67.1441 17.1313 68.9041 17.1313C69.6881 17.1313 70.3681 17.2673 70.9441 17.5393C71.5361 17.8113 71.9601 18.1793 72.2161 18.6433H72.2641C72.2481 18.4833 72.2801 18.1473 72.3601 17.6353L73.2241 12.1873ZM69.2881 20.6833C68.4881 20.6833 67.8001 20.9953 67.2241 21.6193C66.6641 22.2273 66.3841 23.0033 66.3841 23.9473C66.3841 24.6353 66.5681 25.1953 66.9361 25.6273C67.3041 26.0433 67.7921 26.2513 68.4001 26.2513C69.1681 26.2513 69.8481 25.9553 70.4401 25.3633C71.0321 24.7713 71.3281 23.9793 71.3281 22.9873C71.3281 22.2833 71.1361 21.7233 70.7521 21.3073C70.3681 20.8913 69.8801 20.6833 69.2881 20.6833ZM83.2254 25.7953C83.2254 25.6033 83.1054 25.4433 82.8654 25.3153C82.6254 25.1873 82.2014 25.0433 81.5934 24.8833C80.4574 24.5793 79.6094 24.1633 79.0494 23.6353C78.5054 23.1073 78.2334 22.3953 78.2334 21.4993C78.2334 20.1713 78.7134 19.1153 79.6734 18.3313C80.6334 17.5313 81.9374 17.1313 83.5854 17.1313C85.1214 17.1313 86.4734 17.3713 87.6414 17.8513L87.0654 21.4753C86.1854 21.0113 85.2254 20.7073 84.1854 20.5633C83.6094 20.5313 83.2654 20.5233 83.1534 20.5393C82.4974 20.6193 82.1694 20.8433 82.1694 21.2113C82.1694 21.5633 82.6414 21.8593 83.5854 22.0993C84.8494 22.4353 85.7614 22.8593 86.3214 23.3713C86.8814 23.8833 87.1614 24.5713 87.1614 25.4353C87.1614 26.8113 86.6414 27.8833 85.6014 28.6513C84.5614 29.4193 83.1214 29.8033 81.2814 29.8033C79.7774 29.8033 78.4254 29.5473 77.2254 29.0353L77.8014 25.3153C78.3294 25.6353 78.9694 25.9153 79.7214 26.1553C80.5374 26.3793 81.2174 26.4913 81.7614 26.4913C82.7374 26.4913 83.2254 26.2593 83.2254 25.7953ZM108.544 18.4513L103.36 24.7153L98.2004 18.4513L97.7444 17.8993V29.4673H95.5124V11.8993H95.5364L103.36 21.4753L111.208 11.8993H111.232V29.4673H109V17.8993L108.544 18.4513ZM115.33 20.1313V18.0673C116.418 17.4753 117.826 17.1793 119.554 17.1793C122.914 17.1793 124.594 18.7233 124.594 21.8113V29.4673H122.53L122.506 28.0513L122.578 27.0913H122.53C122.37 27.4593 122.002 27.9473 121.426 28.5553C120.626 29.3553 119.602 29.7553 118.354 29.7553C117.218 29.7553 116.298 29.4353 115.594 28.7953C114.906 28.1553 114.562 27.2993 114.562 26.2273C114.562 24.7233 115.25 23.6433 116.626 22.9873C118.002 22.3313 119.922 22.1793 122.386 22.5313V21.9313C122.386 20.0593 121.338 19.1233 119.242 19.1233C117.754 19.1233 116.45 19.4593 115.33 20.1313ZM118.738 27.9553C119.73 27.9553 120.578 27.5553 121.282 26.7553C121.986 25.9553 122.338 25.0673 122.338 24.0913C120.53 23.8033 119.146 23.8513 118.186 24.2353C117.242 24.6033 116.77 25.2433 116.77 26.1553C116.77 26.6833 116.946 27.1153 117.298 27.4513C117.666 27.7873 118.146 27.9553 118.738 27.9553ZM135.542 17.4673H138.134L133.934 23.2753L138.35 29.4673H135.83L132.614 24.9073L129.422 29.4673H126.902L131.246 23.4193L127.07 17.4673H129.614L132.566 21.8833L135.542 17.4673Z" fill="black"/>
</svg>
