<svg width="188" height="45" viewBox="0 0 188 45" fill="none" xmlns="http://www.w3.org/2000/svg">
<rect width="187.993" height="45" rx="6" fill="#A7D5F3"/>
<path d="M45.9931 7.01129H15V37.9887H45.9931V7.01129Z" fill="#F6DF1C"/>
<path d="M35.8271 31.2012C36.4469 32.2085 37.2682 32.9678 38.6939 32.9678C39.8871 32.9678 40.6775 32.3635 40.6775 31.5267C40.6775 30.5349 39.8871 30.1785 38.5699 29.6051L37.8416 29.2952C35.7496 28.3964 34.3394 27.2807 34.3394 24.9097C34.3394 22.7247 35.9975 21.0511 38.6009 21.0511C40.4605 21.0511 41.7777 21.6864 42.7385 23.3756L40.476 24.8322C39.9646 23.9334 39.4377 23.577 38.6009 23.577C37.7641 23.577 37.2217 24.1194 37.2217 24.8322C37.2217 25.7155 37.7641 26.0719 39.0193 26.5988L39.7477 26.9087C42.2116 27.978 43.6218 29.0472 43.6218 31.4802C43.6218 34.0991 41.5608 35.5403 38.7869 35.5403C36.013 35.5403 34.3394 34.254 33.4871 32.5649L35.858 31.2012H35.8271ZM25.5219 31.4647C25.9713 32.2705 26.4052 32.9678 27.3969 32.9678C28.3887 32.9678 28.9466 32.5959 28.9466 31.1393V21.237H31.8599V31.1703C31.8599 34.1766 30.0778 35.5557 27.5209 35.5557C25.1964 35.5557 23.8327 34.3625 23.1509 32.9059L25.5219 31.4647Z" fill="#010101"/>
<path d="M61.7612 11.72H66.1772L64.2572 23.84C63.9692 25.728 63.2892 27.12 62.2172 28.016C61.1452 28.896 59.6972 29.336 57.8732 29.336C56.7532 29.336 55.9452 29.192 55.4492 28.904L56.0252 25.28C56.4412 25.536 56.9932 25.664 57.6812 25.664C58.9292 25.664 59.6492 25.072 59.8412 23.888L61.7612 11.72ZM73.1426 20.216C72.3426 20.216 71.6546 20.528 71.0786 21.152C70.5186 21.76 70.2386 22.536 70.2386 23.48C70.2386 24.168 70.4226 24.728 70.7906 25.16C71.1586 25.576 71.6466 25.784 72.2546 25.784C73.0226 25.784 73.7026 25.488 74.2946 24.896C74.8866 24.304 75.1826 23.512 75.1826 22.52C75.1826 21.816 74.9906 21.256 74.6066 20.84C74.2226 20.424 73.7346 20.216 73.1426 20.216ZM76.6466 17H80.5106L78.6146 29H74.7506L74.7986 28.064L74.9666 27.296H74.9186C74.5666 27.888 74.0066 28.376 73.2386 28.76C72.4706 29.144 71.6546 29.336 70.7906 29.336C69.4306 29.336 68.3186 28.872 67.4546 27.944C66.5906 27.016 66.1586 25.736 66.1586 24.104C66.1586 21.864 66.8146 20.064 68.1266 18.704C69.4386 17.344 71.0146 16.664 72.8546 16.664C73.6706 16.664 74.3986 16.856 75.0386 17.24C75.6946 17.608 76.1106 18.08 76.2866 18.656H76.3346C76.3186 18.448 76.3426 18.192 76.4066 17.888L76.6466 17ZM88.5199 20.456L90.3919 17H94.8319L87.6559 29.072H84.8479L81.4639 17H85.9039C86.6719 20.504 87.0799 22.656 87.1279 23.456C87.1439 23.424 87.3519 22.976 87.7519 22.112C88.1999 21.136 88.4559 20.584 88.5199 20.456ZM100.822 20.216C100.022 20.216 99.3343 20.528 98.7583 21.152C98.1983 21.76 97.9183 22.536 97.9183 23.48C97.9183 24.168 98.1023 24.728 98.4703 25.16C98.8383 25.576 99.3263 25.784 99.9343 25.784C100.702 25.784 101.382 25.488 101.974 24.896C102.566 24.304 102.862 23.512 102.862 22.52C102.862 21.816 102.67 21.256 102.286 20.84C101.902 20.424 101.414 20.216 100.822 20.216ZM104.326 17H108.19L106.294 29H102.43L102.478 28.064L102.646 27.296H102.598C102.246 27.888 101.686 28.376 100.918 28.76C100.15 29.144 99.3343 29.336 98.4703 29.336C97.1103 29.336 95.9983 28.872 95.1343 27.944C94.2703 27.016 93.8383 25.736 93.8383 24.104C93.8383 21.864 94.4943 20.064 95.8063 18.704C97.1183 17.344 98.6943 16.664 100.534 16.664C101.35 16.664 102.078 16.856 102.718 17.24C103.374 17.608 103.79 18.08 103.966 18.656H104.014C103.998 18.448 104.022 18.192 104.086 17.888L104.326 17ZM113.752 29.288C111.96 29.288 110.296 28.952 108.76 28.28V26C110.408 26.816 112.032 27.224 113.632 27.224C114.752 27.224 115.656 27 116.344 26.552C117.048 26.104 117.4 25.504 117.4 24.752C117.4 23.952 117.12 23.296 116.56 22.784C116 22.272 115 21.768 113.56 21.272C111.848 20.68 110.608 19.984 109.84 19.184C109.072 18.384 108.688 17.344 108.688 16.064C108.688 14.624 109.224 13.496 110.296 12.68C111.368 11.848 112.752 11.432 114.448 11.432C116.016 11.432 117.448 11.728 118.744 12.32V14.504C117.48 13.832 116.088 13.496 114.568 13.496C113.496 13.496 112.624 13.72 111.952 14.168C111.28 14.616 110.944 15.224 110.944 15.992C110.944 16.744 111.224 17.392 111.784 17.936C112.36 18.464 113.344 18.968 114.736 19.448C116.496 20.088 117.752 20.8 118.504 21.584C119.272 22.352 119.656 23.352 119.656 24.584C119.656 26.056 119.128 27.208 118.072 28.04C117.016 28.872 115.576 29.288 113.752 29.288ZM128.061 27.296C129.325 27.296 130.541 26.944 131.709 26.24V28.328C130.525 28.968 129.269 29.288 127.941 29.288C126.117 29.288 124.613 28.696 123.429 27.512C122.261 26.344 121.677 24.84 121.677 23C121.677 21.16 122.261 19.656 123.429 18.488C124.613 17.304 126.117 16.712 127.941 16.712C129.221 16.712 130.453 17.024 131.637 17.648V19.76C130.501 19.056 129.309 18.704 128.061 18.704C126.861 18.704 125.877 19.104 125.109 19.904C124.341 20.688 123.957 21.72 123.957 23C123.957 24.264 124.333 25.296 125.085 26.096C125.853 26.896 126.845 27.296 128.061 27.296ZM136.96 29H134.728V17H136.816L136.84 18.68L136.816 19.568H136.84C137.64 17.664 138.872 16.712 140.536 16.712C140.824 16.712 141.064 16.736 141.256 16.784V18.944C141.064 18.896 140.856 18.872 140.632 18.872C139.528 18.872 138.64 19.376 137.968 20.384C137.296 21.36 136.96 22.488 136.96 23.768V29ZM144.013 29V17H146.245V29H144.013ZM143.725 13.52C143.725 13.104 143.853 12.776 144.109 12.536C144.365 12.28 144.701 12.152 145.117 12.152C145.533 12.152 145.869 12.28 146.125 12.536C146.381 12.792 146.509 13.12 146.509 13.52C146.509 13.92 146.381 14.248 146.125 14.504C145.869 14.744 145.533 14.864 145.117 14.864C144.701 14.864 144.365 14.744 144.109 14.504C143.853 14.248 143.725 13.92 143.725 13.52ZM152.878 34.28H150.646V17H152.71L152.758 18.248L152.686 19.136H152.734C153.086 18.464 153.646 17.896 154.414 17.432C155.198 16.952 156.054 16.712 156.982 16.712C158.582 16.712 159.91 17.304 160.966 18.488C162.022 19.672 162.55 21.176 162.55 23C162.55 24.856 162.022 26.368 160.966 27.536C159.942 28.704 158.63 29.288 157.03 29.288C156.134 29.288 155.302 29.064 154.534 28.616C153.766 28.168 153.206 27.608 152.854 26.936H152.806C152.854 27.176 152.878 27.504 152.878 27.92V34.28ZM156.67 27.344C157.758 27.344 158.654 26.944 159.358 26.144C160.046 25.344 160.39 24.296 160.39 23C160.39 21.72 160.046 20.68 159.358 19.88C158.67 19.064 157.774 18.656 156.67 18.656C155.662 18.656 154.782 19.032 154.03 19.784C153.278 20.536 152.902 21.608 152.902 23C152.902 24.392 153.278 25.464 154.03 26.216C154.782 26.968 155.662 27.344 156.67 27.344ZM164.152 18.824V17H166.144V13.4H168.328V17H171.952V18.824H168.328V25.04C168.328 26.56 168.92 27.32 170.104 27.32C170.888 27.32 171.64 27.144 172.36 26.792V28.736C171.672 29.104 170.776 29.288 169.672 29.288C168.616 29.288 167.76 28.992 167.104 28.4C166.448 27.792 166.12 26.896 166.12 25.712V18.824H164.152Z" fill="black"/>
</svg>
