<svg width="240" height="46" viewBox="0 0 240 46" fill="none" xmlns="http://www.w3.org/2000/svg">
<rect y="0.467285" width="239.993" height="45" rx="6" fill="#EADEC4"/>
<path d="M44.7537 8.86554H16.395V37.379H44.7537V8.86554Z" fill="#1F090B"/>
<path d="M41.3442 26.0666C40.7243 25.4467 39.3297 24.9818 37.625 24.9818C36.6952 24.9818 35.4555 25.1368 34.2158 25.2918C33.5959 24.6719 32.6661 23.7421 32.0463 22.8123C31.4264 22.0375 30.9615 21.2627 30.4966 20.6428C31.1165 18.6283 31.5814 16.6138 31.5814 15.0641C31.5814 13.8244 31.2715 11.9648 29.5668 11.9648C29.1019 12.1198 28.792 12.4297 28.4821 12.7397C27.7073 13.9794 28.0172 16.6138 29.4119 19.5581C28.947 20.9528 28.4821 22.1925 27.8622 23.7421C27.3973 25.1368 26.7775 26.2216 26.0026 27.4613C22.4384 29.0109 20.1139 30.5606 19.959 31.8003C19.959 32.2652 19.959 32.5751 20.2689 33.04C20.4239 33.195 20.8888 33.5049 21.6636 33.5049C23.6782 33.5049 26.1576 30.4056 27.7073 27.3063C28.637 26.9964 29.7218 26.6865 30.6516 26.2216C31.7364 25.9116 32.8211 25.7567 33.7509 25.6017C36.2303 27.9262 38.3999 28.2361 39.4846 28.2361C40.8793 28.2361 41.3442 27.7712 41.3442 27.1513C41.6541 26.9964 41.4992 26.3765 41.3442 26.0666ZM28.792 12.8946C28.947 12.5847 29.4119 12.4297 29.5668 12.4297C30.1867 12.4297 30.4966 12.8946 30.4966 13.9794C30.4966 15.0641 30.1867 16.7687 29.5668 18.7833C28.3271 16.1489 28.3271 13.6695 28.792 12.8946ZM20.2689 32.2652C20.4239 31.1804 22.5934 29.7857 25.6927 28.3911C23.8331 31.4903 22.2835 33.3499 21.0437 33.3499C20.8888 33.3499 20.7338 33.3499 20.5788 33.195C20.2689 32.7301 20.2689 32.5751 20.2689 32.2652ZM33.441 25.4622C32.5112 25.6172 31.4264 25.7722 30.4966 26.0821C29.7218 26.2371 28.637 26.547 27.8622 26.8569C28.3271 25.7722 28.792 24.9973 29.2569 24.2225C29.5668 23.1378 30.0317 22.208 30.3417 21.1232C30.6516 21.7431 31.1165 22.363 31.4264 22.9828C32.2012 23.9126 32.8211 24.6874 33.441 25.4622ZM34.5257 25.7722C36.6952 25.4622 38.5548 25.4622 39.3297 25.6172C40.1045 25.7722 40.7243 26.2371 40.4144 27.0119C40.2594 27.6317 39.4846 28.2516 38.3999 27.7867C36.6952 27.4768 35.4555 26.547 34.5257 25.7722Z" fill="url(#paint0_linear_257_215)"/>
<path fill-rule="evenodd" clip-rule="evenodd" d="M15 7.47083V38.4637H45.9931V7.47083H15ZM16.3947 8.8655H44.7534V37.3789H16.3947V8.8655Z" fill="#E73F1E"/>
<path d="M59.3852 29.4673H54.8012L66.1772 11.9473H66.3932L72.2012 29.4673H67.6172L66.8012 26.8273H60.9932L59.3852 29.4673ZM65.0492 19.7473L62.7452 23.8753H66.0332C65.5692 22.2113 65.2412 20.8353 65.0492 19.7473ZM83.9692 12.1873H88.2412L85.5052 29.4673H81.6412L81.6892 28.5313L81.8572 27.7633H81.8092C81.4572 28.3393 80.8972 28.8273 80.1292 29.2273C79.3612 29.6113 78.5692 29.8033 77.7532 29.8033C76.3772 29.8033 75.2492 29.3393 74.3692 28.4113C73.4892 27.4833 73.0492 26.2033 73.0492 24.5713C73.0492 22.3473 73.7052 20.5553 75.0172 19.1953C76.3452 17.8193 77.8892 17.1313 79.6492 17.1313C80.4332 17.1313 81.1132 17.2673 81.6892 17.5393C82.2812 17.8113 82.7052 18.1793 82.9612 18.6433H83.0092C82.9932 18.4833 83.0252 18.1473 83.1052 17.6353L83.9692 12.1873ZM80.0332 20.6833C79.2332 20.6833 78.5452 20.9953 77.9692 21.6193C77.4092 22.2273 77.1292 23.0033 77.1292 23.9473C77.1292 24.6353 77.3132 25.1953 77.6812 25.6273C78.0492 26.0433 78.5372 26.2513 79.1452 26.2513C79.9132 26.2513 80.5932 25.9553 81.1852 25.3633C81.7772 24.7713 82.0732 23.9793 82.0732 22.9873C82.0732 22.2833 81.8812 21.7233 81.4972 21.3073C81.1132 20.8913 80.6252 20.6833 80.0332 20.6833ZM95.9385 17.1313C97.6185 17.1313 98.9705 17.6433 99.9945 18.6673C101.018 19.6753 101.53 20.9793 101.53 22.5793C101.53 24.6113 100.786 26.3233 99.2985 27.7153C97.8425 29.1073 96.0585 29.8033 93.9465 29.8033C92.2825 29.8033 90.9305 29.2993 89.8905 28.2913C88.8665 27.2673 88.3545 25.9633 88.3545 24.3793C88.3545 22.3313 89.0905 20.6113 90.5625 19.2193C92.0185 17.8273 93.8105 17.1313 95.9385 17.1313ZM94.4985 26.2513C95.2825 26.2513 95.9785 25.9473 96.5865 25.3393C97.1785 24.7473 97.4745 23.9713 97.4745 23.0113C97.4745 22.3073 97.2825 21.7473 96.8985 21.3313C96.5145 20.8993 96.0105 20.6833 95.3865 20.6833C94.6025 20.6833 93.9065 20.9873 93.2985 21.5953C92.7065 22.1873 92.4105 22.9633 92.4105 23.9233C92.4105 24.6273 92.6025 25.1953 92.9865 25.6273C93.3705 26.0433 93.8745 26.2513 94.4985 26.2513ZM110.744 20.6833C109.976 20.6833 109.296 20.9793 108.704 21.5713C108.112 22.1633 107.816 22.9553 107.816 23.9473C107.816 24.6513 108.008 25.2113 108.392 25.6273C108.776 26.0433 109.264 26.2513 109.856 26.2513C110.656 26.2513 111.344 25.9473 111.92 25.3393C112.496 24.7153 112.784 23.9313 112.784 22.9873C112.784 22.2833 112.592 21.7233 112.208 21.3073C111.84 20.8913 111.352 20.6833 110.744 20.6833ZM106.352 29.4673H102.464L105.2 12.1873H109.496L108.632 17.6353L108.392 18.6433H108.44C109.368 17.6353 110.632 17.1313 112.232 17.1313C113.576 17.1313 114.68 17.5953 115.544 18.5233C116.408 19.4513 116.84 20.7233 116.84 22.3393C116.84 24.5793 116.176 26.3873 114.848 27.7633C113.536 29.1233 111.96 29.8033 110.12 29.8033C109.304 29.8033 108.576 29.6113 107.936 29.2273C107.296 28.8273 106.888 28.3393 106.712 27.7633H106.664C106.68 27.9233 106.648 28.1793 106.568 28.5313L106.352 29.4673ZM125.251 17.1313C126.819 17.1313 128.027 17.5793 128.875 18.4753C129.707 19.3553 130.123 20.4913 130.123 21.8833C130.123 22.8433 129.971 23.6593 129.667 24.3313H122.347C122.331 24.9553 122.547 25.4353 122.995 25.7713C123.443 26.0913 124.083 26.2513 124.915 26.2513C125.651 26.2513 126.459 26.1633 127.339 25.9873C128.203 25.8113 128.787 25.6433 129.091 25.4833L128.539 29.0593C127.451 29.5553 125.923 29.8033 123.955 29.8033C122.099 29.8033 120.627 29.3073 119.539 28.3153C118.483 27.3393 117.955 26.0353 117.955 24.4033C117.955 22.3713 118.675 20.6513 120.115 19.2433C121.539 17.8353 123.251 17.1313 125.251 17.1313ZM122.635 22.3633H126.067C126.163 21.7713 126.091 21.2993 125.851 20.9473C125.627 20.5953 125.243 20.4193 124.699 20.4193C124.171 20.4193 123.715 20.6033 123.331 20.9713C122.963 21.3233 122.731 21.7873 122.635 22.3633ZM138.301 29.4673H135.853L143.821 11.8993H143.869L151.837 29.4673H149.389L147.685 25.6273H139.981L138.301 29.4673ZM140.821 23.7313H146.845C145.517 20.7553 144.517 18.3713 143.845 16.5793C143.077 18.5633 142.069 20.9473 140.821 23.7313ZM158.928 27.7633C160.192 27.7633 161.408 27.4113 162.576 26.7073V28.7953C161.392 29.4353 160.136 29.7553 158.808 29.7553C156.984 29.7553 155.48 29.1633 154.296 27.9793C153.128 26.8113 152.544 25.3073 152.544 23.4673C152.544 21.6273 153.128 20.1233 154.296 18.9553C155.48 17.7713 156.984 17.1793 158.808 17.1793C160.088 17.1793 161.32 17.4913 162.504 18.1153V20.2273C161.368 19.5233 160.176 19.1713 158.928 19.1713C157.728 19.1713 156.744 19.5713 155.976 20.3713C155.208 21.1553 154.824 22.1873 154.824 23.4673C154.824 24.7313 155.2 25.7633 155.952 26.5633C156.72 27.3633 157.712 27.7633 158.928 27.7633ZM167.827 29.4673H165.595V17.4673H167.683L167.707 19.1473L167.683 20.0353H167.707C168.507 18.1313 169.739 17.1793 171.403 17.1793C171.691 17.1793 171.931 17.2033 172.123 17.2513V19.4113C171.931 19.3633 171.723 19.3393 171.499 19.3393C170.395 19.3393 169.507 19.8433 168.835 20.8513C168.163 21.8273 167.827 22.9553 167.827 24.2353V29.4673ZM180.04 17.1793C181.832 17.1793 183.312 17.7793 184.48 18.9793C185.648 20.1473 186.232 21.6433 186.232 23.4673C186.232 25.2913 185.648 26.7953 184.48 27.9793C183.296 29.1633 181.816 29.7553 180.04 29.7553C178.28 29.7553 176.808 29.1633 175.624 27.9793C174.456 26.7953 173.872 25.2913 173.872 23.4673C173.872 21.6433 174.456 20.1473 175.624 18.9793C176.808 17.7793 178.28 17.1793 180.04 17.1793ZM180.04 27.8113C181.224 27.8113 182.184 27.4033 182.92 26.5873C183.688 25.7713 184.072 24.7313 184.072 23.4673C184.072 22.2033 183.688 21.1633 182.92 20.3473C182.184 19.5313 181.224 19.1233 180.04 19.1233C178.888 19.1233 177.928 19.5313 177.16 20.3473C176.408 21.1793 176.032 22.2193 176.032 23.4673C176.032 24.7153 176.408 25.7553 177.16 26.5873C177.928 27.4033 178.888 27.8113 180.04 27.8113ZM191.663 29.4673H189.599V12.1873H191.831V18.3793L191.759 19.3633H191.807C192.159 18.7393 192.719 18.2193 193.487 17.8033C194.255 17.3873 195.087 17.1793 195.983 17.1793C197.583 17.1793 198.895 17.7633 199.919 18.9313C200.975 20.0993 201.503 21.6113 201.503 23.4673C201.503 25.3233 200.975 26.8353 199.919 28.0033C198.863 29.1713 197.535 29.7553 195.935 29.7553C195.023 29.7553 194.167 29.4993 193.367 28.9873C192.599 28.4913 192.039 27.8833 191.687 27.1633H191.639C191.687 27.4033 191.711 27.6993 191.711 28.0513L191.663 29.4673ZM195.623 19.1233C194.615 19.1233 193.735 19.4993 192.983 20.2513C192.231 21.0033 191.855 22.0753 191.855 23.4673C191.855 24.8593 192.231 25.9313 192.983 26.6833C193.735 27.4353 194.615 27.8113 195.623 27.8113C196.711 27.8113 197.607 27.4033 198.311 26.5873C198.999 25.7873 199.343 24.7473 199.343 23.4673C199.343 22.1713 198.999 21.1313 198.311 20.3473C197.607 19.5313 196.711 19.1233 195.623 19.1233ZM204.497 20.1313V18.0673C205.585 17.4753 206.993 17.1793 208.721 17.1793C212.081 17.1793 213.761 18.7233 213.761 21.8113V29.4673H211.697L211.673 28.0513L211.745 27.0913H211.697C211.537 27.4593 211.169 27.9473 210.593 28.5553C209.793 29.3553 208.769 29.7553 207.521 29.7553C206.385 29.7553 205.465 29.4353 204.761 28.7953C204.073 28.1553 203.729 27.2993 203.729 26.2273C203.729 24.7233 204.417 23.6433 205.793 22.9873C207.169 22.3313 209.089 22.1793 211.553 22.5313V21.9313C211.553 20.0593 210.505 19.1233 208.409 19.1233C206.921 19.1233 205.617 19.4593 204.497 20.1313ZM207.905 27.9553C208.897 27.9553 209.745 27.5553 210.449 26.7553C211.153 25.9553 211.505 25.0673 211.505 24.0913C209.697 23.8033 208.313 23.8513 207.353 24.2353C206.409 24.6033 205.937 25.2433 205.937 26.1553C205.937 26.6833 206.113 27.1153 206.465 27.4513C206.833 27.7873 207.313 27.9553 207.905 27.9553ZM216.066 19.2913V17.4673H218.058V13.8673H220.242V17.4673H223.866V19.2913H220.242V25.5073C220.242 27.0273 220.834 27.7873 222.018 27.7873C222.802 27.7873 223.554 27.6113 224.274 27.2593V29.2033C223.586 29.5713 222.69 29.7553 221.586 29.7553C220.53 29.7553 219.674 29.4593 219.018 28.8673C218.362 28.2593 218.034 27.3633 218.034 26.1793V19.2913H216.066Z" fill="black"/>
<defs>
<linearGradient id="paint0_linear_257_215" x1="19.866" y1="22.7504" x2="41.6541" y2="22.7504" gradientUnits="userSpaceOnUse">
<stop offset="0.14" stop-color="white"/>
<stop offset="1" stop-color="#ECEDEB"/>
</linearGradient>
</defs>
</svg>
