<svg width="207" height="45" viewBox="0 0 207 45" fill="none" xmlns="http://www.w3.org/2000/svg">
<rect width="206.984" height="45" rx="6" fill="#EADEC4"/>
<path d="M30.6835 22.4545H15.001C14.9235 29.3659 19.3865 35.518 25.9725 37.548C26.6234 37.7494 27.2742 37.9199 27.9871 37.9974L30.699 22.4545H30.6835Z" fill="#010101"/>
<path d="M37.4556 22.4545L38.4784 16.7053H44.8319C41.5932 8.70915 32.5742 4.91254 24.64 8.16679C20.7813 9.73193 17.744 12.8467 16.1943 16.6898H37.4866L33.7984 37.8579C39.2687 36.6647 43.6852 32.5737 45.3278 27.1964C45.7772 25.6623 46.0252 24.0506 45.9787 22.4855H37.4401V22.4545H37.4556Z" fill="#010101"/>
<path d="M71.5924 11.72L71.0164 15.416H66.4084L64.2484 29H59.8324L61.9924 15.416H57.3844L57.9604 11.72H71.5924ZM78.5884 17.048H81.1564L81.8284 20.84C81.9884 21.64 82.1004 22.632 82.1644 23.816C82.2604 23.656 82.4684 23.2 82.7884 22.448C83.1404 21.6 83.3804 21.056 83.5084 20.816L85.3564 17H89.8204L82.9084 29.072H80.0044L78.8764 23.312L75.9484 29.072H73.0444L69.9244 17H74.3884C75.0284 20.824 75.3564 23.096 75.3724 23.816C76.9564 20.408 78.0284 18.152 78.5884 17.048ZM88.8613 29L90.7573 17H95.0533L93.1573 29H88.8613ZM91.1173 13.928C91.1173 13.16 91.3653 12.544 91.8613 12.08C92.3573 11.6 93.0053 11.36 93.8053 11.36C94.4293 11.36 94.9093 11.528 95.2453 11.864C95.5973 12.184 95.7733 12.632 95.7733 13.208C95.7733 13.976 95.5253 14.6 95.0293 15.08C94.5333 15.56 93.8933 15.8 93.1093 15.8C92.4853 15.8 91.9973 15.632 91.6453 15.296C91.2933 14.96 91.1173 14.504 91.1173 13.928ZM95.9863 29L97.8823 17H101.77L101.698 18.224C101.698 18.528 101.626 18.784 101.482 18.992H101.53C101.898 18.4 102.498 17.864 103.33 17.384C104.146 16.904 104.97 16.664 105.802 16.664C107.13 16.664 108.098 17.08 108.706 17.912C109.314 18.744 109.49 19.944 109.234 21.512L108.058 29H103.786L104.866 22.16C105.042 21.056 104.698 20.504 103.834 20.504C103.162 20.504 102.586 20.736 102.106 21.2C101.642 21.664 101.354 22.256 101.242 22.976L100.282 29H95.9863ZM111.497 29V17H113.585L113.633 18.68C113.633 19.176 113.601 19.48 113.537 19.592H113.585C113.921 18.728 114.489 18.032 115.289 17.504C116.089 16.976 116.985 16.712 117.977 16.712C118.889 16.712 119.665 16.96 120.305 17.456C120.961 17.936 121.385 18.6 121.577 19.448H121.601C121.985 18.648 122.561 17.992 123.329 17.48C124.097 16.968 124.913 16.712 125.777 16.712C128.577 16.712 129.977 18.296 129.977 21.464V29H127.745V21.896C127.745 20.872 127.569 20.096 127.217 19.568C126.881 19.04 126.305 18.776 125.489 18.776C124.273 18.776 123.369 19.24 122.777 20.168C122.169 21.096 121.865 22.184 121.865 23.432V29H119.633V21.872C119.633 20.848 119.465 20.08 119.129 19.568C118.809 19.04 118.241 18.776 117.425 18.776C116.241 18.776 115.329 19.24 114.689 20.168C114.049 21.064 113.729 22.152 113.729 23.432V29H111.497ZM139.11 16.712C140.902 16.712 142.382 17.312 143.55 18.512C144.718 19.68 145.302 21.176 145.302 23C145.302 24.824 144.718 26.328 143.55 27.512C142.366 28.696 140.886 29.288 139.11 29.288C137.35 29.288 135.878 28.696 134.694 27.512C133.526 26.328 132.942 24.824 132.942 23C132.942 21.176 133.526 19.68 134.694 18.512C135.878 17.312 137.35 16.712 139.11 16.712ZM139.11 27.344C140.294 27.344 141.254 26.936 141.99 26.12C142.758 25.304 143.142 24.264 143.142 23C143.142 21.736 142.758 20.696 141.99 19.88C141.254 19.064 140.294 18.656 139.11 18.656C137.958 18.656 136.998 19.064 136.23 19.88C135.478 20.712 135.102 21.752 135.102 23C135.102 24.248 135.478 25.288 136.23 26.12C136.998 26.936 137.958 27.344 139.11 27.344ZM146.916 18.824V17H148.908V13.4H151.092V17H154.716V18.824H151.092V25.04C151.092 26.56 151.684 27.32 152.868 27.32C153.652 27.32 154.404 27.144 155.124 26.792V28.736C154.436 29.104 153.54 29.288 152.436 29.288C151.38 29.288 150.524 28.992 149.868 28.4C149.212 27.792 148.884 26.896 148.884 25.712V18.824H146.916ZM157.598 29V17H159.83V29H157.598ZM157.31 13.52C157.31 13.104 157.438 12.776 157.694 12.536C157.95 12.28 158.286 12.152 158.702 12.152C159.118 12.152 159.454 12.28 159.71 12.536C159.966 12.792 160.094 13.12 160.094 13.52C160.094 13.92 159.966 14.248 159.71 14.504C159.454 14.744 159.118 14.864 158.702 14.864C158.286 14.864 157.95 14.744 157.694 14.504C157.438 14.248 157.31 13.92 157.31 13.52ZM169.367 16.712C171.159 16.712 172.639 17.312 173.807 18.512C174.975 19.68 175.559 21.176 175.559 23C175.559 24.824 174.975 26.328 173.807 27.512C172.623 28.696 171.143 29.288 169.367 29.288C167.607 29.288 166.135 28.696 164.951 27.512C163.783 26.328 163.199 24.824 163.199 23C163.199 21.176 163.783 19.68 164.951 18.512C166.135 17.312 167.607 16.712 169.367 16.712ZM169.367 27.344C170.551 27.344 171.511 26.936 172.247 26.12C173.015 25.304 173.399 24.264 173.399 23C173.399 21.736 173.015 20.696 172.247 19.88C171.511 19.064 170.551 18.656 169.367 18.656C168.215 18.656 167.255 19.064 166.487 19.88C165.735 20.712 165.359 21.752 165.359 23C165.359 24.248 165.735 25.288 166.487 26.12C167.255 26.936 168.215 27.344 169.367 27.344ZM178.926 29V17H181.014L181.062 18.68C181.062 19.176 181.03 19.48 180.966 19.592H181.014C181.302 18.888 181.854 18.24 182.67 17.648C183.486 17.024 184.462 16.712 185.598 16.712C188.334 16.712 189.702 18.296 189.702 21.464V29H187.47V21.92C187.47 20.944 187.31 20.176 186.99 19.616C186.686 19.056 186.086 18.776 185.19 18.776C184.022 18.776 183.054 19.192 182.286 20.024C181.534 20.856 181.158 21.88 181.158 23.096V29H178.926Z" fill="black"/>
</svg>
