<svg width="168" height="45" viewBox="0 0 168 45" fill="none" xmlns="http://www.w3.org/2000/svg">
<rect width="168.003" height="45" rx="6" fill="#EADEC4"/>
<path d="M42.7718 13.0317C37.5495 6.25974 27.8022 5.00452 21.0302 10.2423C14.2427 15.4646 13.003 25.1964 18.2408 31.9683C23.4632 38.7403 33.195 39.9955 39.9825 34.7577C46.739 29.5354 48.0097 19.8036 42.7718 13.0317Z" fill="#ED6C3F"/>
<path d="M35.7366 16.8902L29.1971 23.4762L27.353 21.5856C33.7996 15.1546 34.4194 15.7435 35.7366 16.9057V16.8902Z" fill="white"/>
<path d="M29.1967 23.6467C29.1967 23.6467 29.0727 23.6312 29.0417 23.5847L27.1821 21.7252C27.1047 21.6477 27.1047 21.4927 27.1821 21.3998C33.5202 15.0617 34.388 15.3561 35.8912 16.7198C35.9377 16.7508 35.9687 16.8283 35.9687 16.8903C35.9687 16.9523 35.9687 17.0143 35.9067 17.0608L29.3671 23.6002C29.3671 23.6002 29.2587 23.6622 29.1967 23.6622V23.6467ZM27.678 21.5702L29.1967 23.0889L35.3953 16.8903C34.9459 16.3324 34.1711 16.2085 33.5512 16.5804C32.42 17.0917 30.6224 18.6259 27.6625 21.5702H27.678Z" fill="#ED6C3F"/>
<path d="M31.057 25.2894L29.2749 23.4608L35.8144 16.9988C37.5656 18.7189 34.9621 21.5857 31.057 25.2739V25.2894Z" fill="white"/>
<path d="M31.0559 25.5218C31.0559 25.5218 30.932 25.4909 30.901 25.4599L29.0724 23.6778C29.0724 23.6778 29.0414 23.5383 29.0724 23.4763C29.0569 23.4298 29.0569 23.3523 29.0724 23.3059L35.6119 16.7664C35.7204 16.6889 35.8443 16.6889 35.9528 16.7664C36.3712 17.1538 36.6192 17.7272 36.6037 18.3005C36.6037 20.0361 34.6046 22.2366 31.2419 25.4444C31.1954 25.4909 31.1334 25.5064 31.0714 25.5218H31.0559ZM29.6147 23.4608L31.0869 24.933C33.6748 22.5 36.1233 19.9741 36.1388 18.2695C36.1388 17.9131 36.0303 17.5567 35.7979 17.2777L29.6147 23.4763V23.4608Z" fill="#ED6C3F"/>
<path d="M27.3986 21.6011L28.7003 22.9028C28.7003 22.9028 28.7313 22.9802 28.7003 23.0112L25.9729 23.5846C25.849 23.6001 25.756 23.5536 25.6785 23.4451C25.601 23.3367 25.6475 23.2282 25.725 23.1352L27.3056 21.5701C27.3056 21.5701 27.3521 21.5701 27.3831 21.6011H27.3986Z" fill="white"/>
<path d="M25.8963 23.8482C25.7258 23.8482 25.5554 23.7397 25.4779 23.6157C25.3694 23.4298 25.4159 23.1973 25.5554 23.0424L27.1205 21.4617C27.2445 21.3533 27.415 21.3533 27.5234 21.4617L28.8252 22.7634C28.8252 22.7634 28.9336 22.9494 28.9026 23.0579C28.8716 23.1663 28.7787 23.2438 28.6857 23.2593L25.9583 23.8327L25.8808 23.8792H25.8963V23.8482ZM27.353 21.8956L25.8808 23.3678L28.2983 22.8564L27.3375 21.9266L27.353 21.8956Z" fill="#ED6C3F"/>
<path d="M39.1924 13.2641C38.2627 12.3654 36.7905 12.3344 35.7987 13.1867C34.8069 14.039 34.652 15.4956 35.4113 16.5494C36.1706 17.6031 37.6118 17.8976 38.7275 17.2312L36.9764 15.4801L39.1924 13.2796V13.2641Z" fill="white"/>
<path d="M37.4567 17.7891C36.3719 17.7891 35.3801 17.1073 34.9462 16.0845C34.5433 15.0617 34.7603 13.8995 35.5196 13.1247C36.5889 12.0709 38.309 12.0709 39.3937 13.1247C39.4402 13.1557 39.4712 13.2331 39.4712 13.2951C39.4712 13.3571 39.4402 13.4191 39.3937 13.4656L37.3017 15.4336L38.8824 16.9988C38.8824 16.9988 38.9443 17.1228 38.9443 17.1847C38.9443 17.2467 38.8978 17.3242 38.8359 17.3552C38.4175 17.6341 37.9216 17.7581 37.4257 17.7736H37.4412L37.4567 17.7891ZM37.4567 12.7837C36.5424 12.7837 35.7211 13.3416 35.3646 14.1784C35.0082 15.0152 35.2097 16.007 35.8605 16.6424C36.5269 17.3087 37.5187 17.4947 38.371 17.1228L36.8523 15.6041C36.8523 15.6041 36.7748 15.4956 36.7748 15.4336C36.7748 15.3716 36.8058 15.3097 36.8523 15.2787L38.8669 13.2486C38.4639 12.9387 37.9836 12.7683 37.4722 12.7683L37.4567 12.7837Z" fill="#ED6C3F"/>
<path d="M39.2385 13.295L37.0225 15.4955L38.7736 17.2466C38.944 17.1382 39.1145 17.0297 39.2695 16.8902C40.2303 15.8675 40.1993 14.2868 39.2385 13.295Z" fill="white"/>
<path d="M38.7428 17.4327C38.7428 17.4327 38.6189 17.4172 38.5879 17.3707L36.8368 15.6196C36.8368 15.6196 36.7593 15.5111 36.7593 15.4491C36.7593 15.3872 36.7903 15.3252 36.8368 15.2942L39.0373 13.1247C39.0993 13.0162 39.2542 12.9852 39.3627 13.0627C39.3937 13.0782 39.4092 13.0937 39.4247 13.1247C40.4939 14.1784 40.5094 15.883 39.4557 16.9523L39.4247 16.9833C39.2697 17.1383 39.0993 17.2932 38.9133 17.3862C38.8668 17.4017 38.8048 17.4172 38.7583 17.3862V17.4172L38.7428 17.4327ZM37.3327 15.4336L38.8048 16.9058C38.9133 16.8438 38.9908 16.7508 39.0993 16.6734C39.5177 16.255 39.7656 15.6661 39.7656 15.0617C39.7656 14.5194 39.5642 13.9925 39.2077 13.5896L37.3481 15.4491L37.3327 15.4336Z" fill="#ED6C3F"/>
<path d="M35.9837 17.1538C35.6273 16.8128 35.0694 16.8128 34.682 17.1538L28.8398 22.9959L29.8161 23.9877L35.9992 18.5639C36.1852 18.378 36.3092 18.1145 36.2937 17.8666C36.2782 17.6187 36.1697 17.3552 35.9837 17.1693V17.1538Z" fill="white"/>
<path d="M29.7708 24.1892C29.7708 24.1892 29.6468 24.1737 29.6158 24.1272L28.624 23.1354C28.5465 23.0579 28.5465 22.903 28.624 22.81L34.4662 16.9833C34.9311 16.5184 35.675 16.5184 36.1553 16.9833C36.3878 17.2158 36.5118 17.5257 36.4963 17.8666C36.4963 18.192 36.3413 18.502 36.0934 18.7189L29.9102 24.1427C29.9102 24.1427 29.8018 24.1892 29.7553 24.1737H29.7708V24.1892ZM29.0889 22.9804L29.7398 23.6468L35.7989 18.3625C35.9539 18.223 36.0314 18.0371 36.0314 17.8511C36.0314 17.6652 35.9694 17.4637 35.8144 17.3242C35.52 17.0453 35.0861 17.0453 34.7916 17.3242L29.0734 22.9959H29.0889V22.9804Z" fill="#ED6C3F"/>
<path d="M24.3151 29.6439C24.3151 29.6439 24.2841 29.7523 24.3151 29.7988L24.563 30.9301C24.5785 31.0695 24.532 31.209 24.408 31.271C24.2841 31.333 24.1291 31.3175 24.0361 31.24L22.2695 29.5354L27.7863 23.9877H29.6924L30.9941 25.2894C28.9795 27.0405 26.7325 28.5281 24.3151 29.6904V29.6439Z" fill="white"/>
<path d="M24.1916 31.5345C24.0367 31.5345 23.8972 31.4725 23.8042 31.364L22.1151 29.6749C22.1151 29.6749 22.0376 29.5664 22.0376 29.5045C22.0376 29.4425 22.0686 29.3805 22.1151 29.3495L27.6628 23.7863C27.6628 23.7863 27.7248 23.7398 27.7868 23.7243H29.7084C29.7084 23.7243 29.8169 23.7088 29.8633 23.7243L31.1651 25.026C31.1651 25.026 31.227 25.15 31.227 25.212C31.227 25.2739 31.196 25.3359 31.1496 25.3824L31.0411 25.4599C29.011 27.149 26.795 28.5747 24.4086 29.7059L24.641 30.7442C24.703 31.0541 24.517 31.333 24.2381 31.4105H24.1141L24.1761 31.519V31.55L24.1916 31.5345ZM22.6265 29.5045L24.1451 31.0386C24.1451 31.0386 24.2071 31.0696 24.2536 31.0386C24.2691 31.0076 24.2691 30.9766 24.2536 30.9611L24.0057 29.8299C23.9747 29.6594 24.0367 29.489 24.1916 29.427C26.5161 28.2957 28.6701 26.9011 30.6537 25.2739L29.5999 24.2202H27.8643L22.642 29.5355H22.6575L22.6265 29.5045Z" fill="#ED6C3F"/>
<path d="M20.9374 30.8371L22.2391 29.5354L24.2381 31.5344L21.0768 31.3175C20.9529 31.3175 20.8754 31.24 20.8444 31.116C20.8134 30.9921 20.8599 30.8991 20.9684 30.8371H20.9374Z" fill="white"/>
<path d="M24.2691 31.7203L21.1233 31.5034C20.9373 31.4879 20.7824 31.3484 20.7204 31.178C20.6584 31.0075 20.6894 30.806 20.8289 30.6666L22.1306 29.3649C22.208 29.2874 22.363 29.2874 22.456 29.3649L24.4395 31.3329C24.4395 31.3329 24.486 31.5189 24.4395 31.5809C24.4085 31.6274 24.3776 31.6583 24.3001 31.6893L24.2691 31.7203ZM21.1078 31.0075L23.6957 31.178L22.2855 29.8453L21.1233 31.0075H21.1078Z" fill="#ED6C3F"/>
<path d="M29.8944 24.1117L27.291 24.5146L28.8097 23.0115L29.8944 24.0962V24.1117Z" fill="white"/>
<path d="M27.2754 24.7625C27.1979 24.7625 27.1049 24.716 27.0739 24.623C27.0274 24.5456 27.0274 24.4371 27.0739 24.3751L28.5771 22.8565C28.6856 22.779 28.8095 22.779 28.918 22.8565L30.0028 23.9412C30.0028 23.9412 30.0493 24.0962 30.0028 24.1736C29.9873 24.2511 29.9253 24.3286 29.8168 24.3441L27.2289 24.747H27.2754V24.7625ZM28.794 23.3368L27.9572 24.1736L29.3984 23.9567L28.7785 23.3368H28.794Z" fill="#ED6C3F"/>
<path d="M29.8936 24.1117L28.065 24.3442C27.9411 24.3752 27.8171 24.2977 27.7861 24.1737C27.7706 24.1117 27.7861 24.0188 27.8326 23.9723L28.7624 23.0425L29.8471 24.1272H29.8626L29.8936 24.1117Z" fill="white"/>
<path d="M28.019 24.592C27.8485 24.592 27.6936 24.4835 27.6161 24.3595C27.5076 24.1736 27.5541 23.9566 27.6936 23.8017L28.6234 22.8719C28.7318 22.7944 28.8558 22.7944 28.9643 22.8719L30.049 23.9566C30.1265 24.0341 30.1575 24.1891 30.049 24.282C30.018 24.313 29.9716 24.344 29.8941 24.344L28.081 24.5765H28.0035L28.019 24.592ZM28.019 24.1116L29.3827 23.9411L28.7628 23.3213L28.0035 24.0806H28.019V24.1116ZM39.254 14.7672C39.254 14.7672 39.099 14.6433 39.0215 14.6898C38.975 14.7052 38.9595 14.7517 38.944 14.7982V14.9377C39.0215 15.1236 39.006 15.3406 38.8821 15.5111C38.8511 15.5421 38.8356 15.5731 38.8356 15.635C38.8356 15.697 38.8511 15.7125 38.8821 15.759H38.9905C38.9905 15.759 39.1145 15.759 39.161 15.7125C39.3779 15.4336 39.4089 15.0772 39.285 14.7827L39.254 14.7672Z" fill="#ED6C3F"/>
<path d="M63.3074 23.504H61.9394L61.0754 29H56.6834L59.4194 11.72H65.1794C67.1314 11.72 68.6514 12.152 69.7394 13.016C70.8274 13.864 71.3714 15.088 71.3714 16.688C71.3714 18.88 70.6274 20.568 69.1394 21.752C67.6834 22.92 65.7394 23.504 63.3074 23.504ZM64.7954 15.416H63.2354L62.5394 19.808H64.1234C64.9554 19.808 65.6194 19.592 66.1154 19.16C66.6274 18.712 66.8834 18.072 66.8834 17.24C66.8834 16.648 66.6914 16.2 66.3074 15.896C65.9394 15.576 65.4354 15.416 64.7954 15.416ZM78.6284 16.664C80.3084 16.664 81.6604 17.176 82.6844 18.2C83.7084 19.208 84.2204 20.512 84.2204 22.112C84.2204 24.144 83.4764 25.856 81.9884 27.248C80.5324 28.64 78.7484 29.336 76.6364 29.336C74.9724 29.336 73.6204 28.832 72.5804 27.824C71.5564 26.8 71.0444 25.496 71.0444 23.912C71.0444 21.864 71.7804 20.144 73.2524 18.752C74.7084 17.36 76.5004 16.664 78.6284 16.664ZM77.1884 25.784C77.9724 25.784 78.6684 25.48 79.2764 24.872C79.8684 24.28 80.1644 23.504 80.1644 22.544C80.1644 21.84 79.9724 21.28 79.5884 20.864C79.2044 20.432 78.7004 20.216 78.0764 20.216C77.2924 20.216 76.5964 20.52 75.9884 21.128C75.3964 21.72 75.1004 22.496 75.1004 23.456C75.1004 24.16 75.2924 24.728 75.6764 25.16C76.0604 25.576 76.5644 25.784 77.1884 25.784ZM90.7698 25.328C90.7698 25.136 90.6498 24.976 90.4098 24.848C90.1698 24.72 89.7458 24.576 89.1378 24.416C88.0018 24.112 87.1538 23.696 86.5938 23.168C86.0498 22.64 85.7778 21.928 85.7778 21.032C85.7778 19.704 86.2578 18.648 87.2178 17.864C88.1778 17.064 89.4818 16.664 91.1298 16.664C92.6658 16.664 94.0178 16.904 95.1858 17.384L94.6098 21.008C93.7298 20.544 92.7698 20.24 91.7298 20.096C91.1538 20.064 90.8098 20.056 90.6978 20.072C90.0418 20.152 89.7138 20.376 89.7138 20.744C89.7138 21.096 90.1858 21.392 91.1298 21.632C92.3938 21.968 93.3058 22.392 93.8658 22.904C94.4258 23.416 94.7058 24.104 94.7058 24.968C94.7058 26.344 94.1858 27.416 93.1458 28.184C92.1058 28.952 90.6658 29.336 88.8258 29.336C87.3218 29.336 85.9698 29.08 84.7698 28.568L85.3458 24.848C85.8738 25.168 86.5138 25.448 87.2658 25.688C88.0818 25.912 88.7618 26.024 89.3058 26.024C90.2818 26.024 90.7698 25.792 90.7698 25.328ZM96.0505 20.312L96.5785 17H98.1385L98.7145 13.4H102.867L102.291 17H105.267L104.739 20.312H101.763L101.115 24.416C101.035 24.88 101.107 25.232 101.331 25.472C101.555 25.712 101.891 25.832 102.339 25.832C102.899 25.832 103.563 25.672 104.331 25.352L103.779 28.808C103.027 29.16 101.931 29.336 100.491 29.336C99.3385 29.336 98.4265 29.064 97.7545 28.52C97.0825 27.976 96.7385 27.152 96.7225 26.048C96.7385 25.552 96.7785 25.128 96.8425 24.776L97.5385 20.312H96.0505ZM119.44 17.984L114.256 24.248L109.096 17.984L108.64 17.432V29H106.408V11.432H106.432L114.256 21.008L122.104 11.432H122.128V29H119.896V17.432L119.44 17.984ZM126.226 19.664V17.6C127.314 17.008 128.722 16.712 130.45 16.712C133.81 16.712 135.49 18.256 135.49 21.344V29H133.426L133.402 27.584L133.474 26.624H133.426C133.266 26.992 132.898 27.48 132.322 28.088C131.522 28.888 130.498 29.288 129.25 29.288C128.114 29.288 127.194 28.968 126.49 28.328C125.802 27.688 125.458 26.832 125.458 25.76C125.458 24.256 126.146 23.176 127.522 22.52C128.898 21.864 130.818 21.712 133.282 22.064V21.464C133.282 19.592 132.234 18.656 130.138 18.656C128.65 18.656 127.346 18.992 126.226 19.664ZM129.634 27.488C130.626 27.488 131.474 27.088 132.178 26.288C132.882 25.488 133.234 24.6 133.234 23.624C131.426 23.336 130.042 23.384 129.082 23.768C128.138 24.136 127.666 24.776 127.666 25.688C127.666 26.216 127.842 26.648 128.194 26.984C128.562 27.32 129.042 27.488 129.634 27.488ZM139.43 29V17H141.518L141.566 18.68C141.566 19.176 141.534 19.48 141.47 19.592H141.518C141.806 18.888 142.358 18.24 143.174 17.648C143.99 17.024 144.966 16.712 146.102 16.712C148.838 16.712 150.206 18.296 150.206 21.464V29H147.974V21.92C147.974 20.944 147.814 20.176 147.494 19.616C147.19 19.056 146.59 18.776 145.694 18.776C144.526 18.776 143.558 19.192 142.79 20.024C142.038 20.856 141.662 21.88 141.662 23.096V29H139.43Z" fill="black"/>
</svg>
