<svg width="191" height="45" viewBox="0 0 191 45" fill="none" xmlns="http://www.w3.org/2000/svg">
<rect width="190.993" height="45" rx="6" fill="#ED8E6A"/>
<path d="M17.2007 22.5C17.2007 27.7533 20.2535 32.2937 24.6855 34.4632L18.3474 17.0917C17.6036 18.7499 17.2007 20.5784 17.2007 22.5Z" fill="#464443"/>
<path d="M39.4694 21.8336C39.4694 20.191 38.8805 19.0443 38.3691 18.161C37.6873 17.0607 37.0674 16.1309 37.0674 15.0462C37.0674 13.822 37.9972 12.6752 39.2989 12.6752H39.4694C37.0984 10.5057 33.9526 9.17303 30.4969 9.17303C25.8479 9.17303 21.7568 11.5595 19.4014 15.1702H20.2692C21.6484 15.1702 23.8179 14.9997 23.8179 14.9997C24.5307 14.9687 24.6082 16.007 23.8954 16.0999C23.8954 16.0999 23.167 16.1774 22.3767 16.2239L27.2116 30.6201L30.125 21.8956L28.0484 16.2239C27.3356 16.1929 26.6692 16.0999 26.6692 16.0999C25.9564 16.0689 26.0494 14.9687 26.7467 14.9997C26.7467 14.9997 28.9472 15.1702 30.2489 15.1702C31.6281 15.1702 33.7977 14.9997 33.7977 14.9997C34.5105 14.9687 34.588 16.007 33.8751 16.0999C33.8751 16.0999 33.1468 16.1774 32.3565 16.2239L37.1604 30.5271L38.4776 26.0951C39.051 24.2511 39.4849 22.9339 39.4849 21.8026L39.4694 21.8336Z" fill="#464443"/>
<path d="M30.7292 23.6777L26.7466 35.2691C27.9243 35.6255 29.195 35.8114 30.4967 35.8114C32.0464 35.8114 33.5186 35.548 34.9133 35.0521C34.8823 35.0056 34.8513 34.9281 34.8048 34.8662L30.7137 23.6777H30.7292Z" fill="#464443"/>
<path d="M42.15 16.1309C42.1965 16.5493 42.2275 17.0142 42.2275 17.4946C42.2275 18.8428 41.9796 20.3614 41.2202 22.2675L37.1602 34.0138C41.1118 31.7203 43.7617 27.4278 43.7617 22.5155C43.7617 20.2065 43.1728 18.037 42.1345 16.1464L42.15 16.1309Z" fill="#464443"/>
<path d="M30.4965 7.00354C21.9424 7.00354 15 13.9459 15 22.5C15 31.054 21.9424 37.9964 30.4965 37.9964C39.0506 37.9964 45.9931 31.054 45.9931 22.5C45.9931 13.9459 39.0506 7.00354 30.4965 7.00354ZM30.4965 37.2991C22.3454 37.2991 15.7129 30.6511 15.7129 22.5155C15.7129 14.3798 22.3454 7.71638 30.4965 7.71638C38.6477 7.71638 45.2802 14.3334 45.2802 22.5C45.2802 30.6666 38.6632 37.2836 30.4965 37.2836V37.2991Z" fill="#464443"/>
<path d="M62.9612 29.24L57.6092 11.72H62.5292L63.8492 16.904C64.2012 18.232 64.4572 19.392 64.6172 20.384L65.9612 18.152L67.0892 16.304L69.9212 11.768H70.1132L71.0012 14.6C71.8652 17.368 72.4172 19.296 72.6572 20.384C72.8332 20.128 73.2172 19.472 73.8092 18.416L75.9692 14.504C76.8972 12.84 77.4172 11.912 77.5292 11.72H82.4492L71.5052 29.24H71.2892L69.1532 22.352L68.6252 20.576C68.6252 20.592 68.4652 20.848 68.1452 21.344C67.9372 21.712 67.7292 22.048 67.5212 22.352L63.1772 29.24H62.9612ZM86.4932 16.664C88.1732 16.664 89.5252 17.176 90.5492 18.2C91.5732 19.208 92.0852 20.512 92.0852 22.112C92.0852 24.144 91.3412 25.856 89.8532 27.248C88.3972 28.64 86.6132 29.336 84.5012 29.336C82.8372 29.336 81.4852 28.832 80.4452 27.824C79.4212 26.8 78.9092 25.496 78.9092 23.912C78.9092 21.864 79.6452 20.144 81.1172 18.752C82.5732 17.36 84.3652 16.664 86.4932 16.664ZM85.0532 25.784C85.8372 25.784 86.5332 25.48 87.1412 24.872C87.7332 24.28 88.0292 23.504 88.0292 22.544C88.0292 21.84 87.8372 21.28 87.4532 20.864C87.0692 20.432 86.5652 20.216 85.9412 20.216C85.1572 20.216 84.4612 20.52 83.8532 21.128C83.2612 21.72 82.9652 22.496 82.9652 23.456C82.9652 24.16 83.1572 24.728 83.5412 25.16C83.9252 25.576 84.4292 25.784 85.0532 25.784ZM97.2665 29H92.9945L94.8905 17H98.7785C98.7305 17.24 98.7065 17.544 98.7065 17.912C98.7065 18.024 98.6985 18.144 98.6825 18.272C98.6825 18.384 98.6745 18.472 98.6585 18.536C98.6585 18.6 98.6585 18.64 98.6585 18.656C99.7625 17.328 101.019 16.664 102.427 16.664C102.635 16.664 102.851 16.68 103.075 16.712H103.195L102.547 20.888H102.499C102.307 20.776 102.043 20.72 101.707 20.72C100.875 20.72 100.099 21.008 99.3785 21.584C98.6745 22.16 98.2345 22.952 98.0585 23.96L97.2665 29ZM113.875 11.72H118.147L115.411 29H111.547L111.595 28.064L111.763 27.296H111.715C111.363 27.872 110.803 28.36 110.035 28.76C109.267 29.144 108.475 29.336 107.659 29.336C106.283 29.336 105.155 28.872 104.275 27.944C103.395 27.016 102.955 25.736 102.955 24.104C102.955 21.88 103.611 20.088 104.923 18.728C106.251 17.352 107.795 16.664 109.555 16.664C110.339 16.664 111.019 16.8 111.595 17.072C112.187 17.344 112.611 17.712 112.867 18.176H112.915C112.899 18.016 112.931 17.68 113.011 17.168L113.875 11.72ZM109.939 20.216C109.139 20.216 108.451 20.528 107.875 21.152C107.315 21.76 107.035 22.536 107.035 23.48C107.035 24.168 107.219 24.728 107.587 25.16C107.955 25.576 108.443 25.784 109.051 25.784C109.819 25.784 110.499 25.488 111.091 24.896C111.683 24.304 111.979 23.512 111.979 22.52C111.979 21.816 111.787 21.256 111.403 20.84C111.019 20.424 110.531 20.216 109.939 20.216ZM121.285 34.28H119.053V17H121.117L121.165 18.248L121.093 19.136H121.141C121.493 18.464 122.053 17.896 122.821 17.432C123.605 16.952 124.461 16.712 125.389 16.712C126.989 16.712 128.317 17.304 129.373 18.488C130.429 19.672 130.957 21.176 130.957 23C130.957 24.856 130.429 26.368 129.373 27.536C128.349 28.704 127.037 29.288 125.437 29.288C124.541 29.288 123.709 29.064 122.941 28.616C122.173 28.168 121.613 27.608 121.261 26.936H121.213C121.261 27.176 121.285 27.504 121.285 27.92V34.28ZM125.077 27.344C126.165 27.344 127.061 26.944 127.765 26.144C128.453 25.344 128.797 24.296 128.797 23C128.797 21.72 128.453 20.68 127.765 19.88C127.077 19.064 126.181 18.656 125.077 18.656C124.069 18.656 123.189 19.032 122.437 19.784C121.685 20.536 121.309 21.608 121.309 23C121.309 24.392 121.685 25.464 122.437 26.216C123.189 26.968 124.069 27.344 125.077 27.344ZM136.374 29H134.142V17H136.23L136.254 18.68L136.23 19.568H136.254C137.054 17.664 138.286 16.712 139.95 16.712C140.238 16.712 140.478 16.736 140.67 16.784V18.944C140.478 18.896 140.27 18.872 140.046 18.872C138.942 18.872 138.054 19.376 137.382 20.384C136.71 21.36 136.374 22.488 136.374 23.768V29ZM148.299 16.712C149.995 16.712 151.323 17.256 152.283 18.344C153.243 19.432 153.723 20.752 153.723 22.304C153.723 22.448 153.715 22.68 153.699 23C153.683 23.304 153.675 23.464 153.675 23.48H144.747V23.504C144.779 24.688 145.171 25.624 145.923 26.312C146.675 27 147.675 27.344 148.923 27.344C150.635 27.344 152.083 26.968 153.267 26.216V28.256C152.051 28.944 150.555 29.288 148.779 29.288C146.875 29.288 145.339 28.704 144.171 27.536C143.003 26.368 142.419 24.856 142.419 23C142.419 21.176 142.979 19.68 144.099 18.512C145.235 17.312 146.635 16.712 148.299 16.712ZM144.771 21.896H151.515C151.531 20.952 151.243 20.168 150.651 19.544C150.059 18.904 149.267 18.584 148.275 18.584C147.331 18.584 146.531 18.904 145.875 19.544C145.235 20.168 144.867 20.952 144.771 21.896ZM162.301 25.88C162.301 25.416 162.109 25.048 161.725 24.776C161.357 24.504 160.661 24.2 159.637 23.864C158.389 23.464 157.469 22.984 156.877 22.424C156.301 21.848 156.013 21.072 156.013 20.096C156.013 19.104 156.413 18.296 157.213 17.672C158.013 17.032 159.045 16.712 160.309 16.712C161.525 16.712 162.653 16.952 163.693 17.432V19.448C162.621 18.888 161.573 18.608 160.549 18.608C159.813 18.608 159.221 18.744 158.773 19.016C158.325 19.288 158.101 19.672 158.101 20.168C158.101 20.6 158.285 20.96 158.653 21.248C159.037 21.52 159.677 21.808 160.573 22.112C161.949 22.56 162.925 23.064 163.501 23.624C164.077 24.184 164.365 24.944 164.365 25.904C164.365 26.96 163.973 27.792 163.189 28.4C162.405 28.992 161.341 29.288 159.997 29.288C158.493 29.288 157.189 29.024 156.085 28.496V26.456C157.445 27.112 158.725 27.44 159.925 27.44C160.645 27.44 161.221 27.312 161.653 27.056C162.085 26.784 162.301 26.392 162.301 25.88ZM172.871 25.88C172.871 25.416 172.679 25.048 172.295 24.776C171.927 24.504 171.231 24.2 170.207 23.864C168.959 23.464 168.039 22.984 167.447 22.424C166.871 21.848 166.583 21.072 166.583 20.096C166.583 19.104 166.983 18.296 167.783 17.672C168.583 17.032 169.615 16.712 170.879 16.712C172.095 16.712 173.223 16.952 174.263 17.432V19.448C173.191 18.888 172.143 18.608 171.119 18.608C170.383 18.608 169.791 18.744 169.343 19.016C168.895 19.288 168.671 19.672 168.671 20.168C168.671 20.6 168.855 20.96 169.223 21.248C169.607 21.52 170.247 21.808 171.143 22.112C172.519 22.56 173.495 23.064 174.071 23.624C174.647 24.184 174.935 24.944 174.935 25.904C174.935 26.96 174.543 27.792 173.759 28.4C172.975 28.992 171.911 29.288 170.567 29.288C169.063 29.288 167.759 29.024 166.655 28.496V26.456C168.015 27.112 169.295 27.44 170.495 27.44C171.215 27.44 171.791 27.312 172.223 27.056C172.655 26.784 172.871 26.392 172.871 25.88Z" fill="black"/>
</svg>
