<svg width="168" height="45" viewBox="0 0 168 45" fill="none" xmlns="http://www.w3.org/2000/svg">
<rect width="167.999" height="45" rx="6" fill="#A7D5F3"/>
<path d="M44.8827 10.3533L38.5136 7.28505C37.7698 6.92863 36.8865 7.0836 36.3131 7.65697L15.4238 26.7021C14.8659 27.2135 14.8659 28.0968 15.4238 28.6236L17.1439 30.1733C17.5933 30.5917 18.3061 30.6227 18.7865 30.2353L43.9374 11.1747C44.7742 10.5393 45.983 11.1437 45.983 12.1974V12.1354C45.983 11.3916 45.5645 10.7098 44.8982 10.3843L44.8827 10.3533Z" fill="#0866AA"/>
<path d="M44.8837 34.6362L38.4991 37.7045C37.7553 38.0609 36.872 37.9059 36.2986 37.3325L15.4248 18.2874C14.8669 17.7761 14.8669 16.8928 15.4248 16.3659L17.1449 14.8162C17.5943 14.3978 18.3071 14.3668 18.7875 14.7542L43.9384 33.8304C44.7752 34.4657 45.9839 33.8613 45.9839 32.8076V32.8696C45.9839 33.6134 45.5655 34.2952 44.8992 34.6207L44.8837 34.6362Z" fill="#2178BD"/>
<path d="M38.5296 37.7202C37.7858 38.0766 36.9025 37.9216 36.3291 37.3482C37.0574 38.0766 38.2662 37.5497 38.2662 36.5424V8.4629C38.2662 7.45563 37.0419 6.94425 36.3291 7.65709C36.918 7.06822 37.7858 6.92875 38.5296 7.28516L44.9142 10.3535C45.5805 10.6789 45.9989 11.3607 45.9989 12.1046V32.9008C45.9989 33.6446 45.5805 34.3264 44.9142 34.6519L38.5296 37.7202Z" fill="#4096D2"/>
<g opacity="0.25">
<path fill-rule="evenodd" clip-rule="evenodd" d="M36.9644 37.7666C37.4448 37.9525 38.0027 37.9525 38.4986 37.7046L44.8832 34.6363C45.5495 34.3109 45.9679 33.629 45.9679 32.8852V12.1045C45.9679 11.3607 45.5495 10.6788 44.8832 10.3534L38.5141 7.2851C37.8787 6.95968 37.1194 7.05266 36.546 7.47106C36.4685 7.53305 36.3911 7.59503 36.3136 7.67251L24.1023 18.8145L18.787 14.7854C18.3066 14.4135 17.5938 14.429 17.1444 14.8474L15.4242 16.397C14.8664 16.9084 14.8509 17.7917 15.4242 18.3186L20.0267 22.5181L15.4242 26.7176C14.8664 27.229 14.8664 28.1123 15.4242 28.6392L17.1444 30.1888C17.5938 30.6072 18.3066 30.6382 18.787 30.2508L24.1023 26.2217L36.3136 37.3637C36.4995 37.5496 36.732 37.7046 36.9799 37.7976H36.9644V37.7666ZM38.2352 15.4517L28.9837 22.4716L38.2352 29.4915V15.4517Z" fill="url(#paint0_linear_254_2)"/>
</g>
<path d="M70.287 11.72H75.087L63.519 29.24H63.327L57.327 11.72H62.151L63.615 16.496C64.287 18.864 64.663 20.336 64.743 20.912C64.823 20.8 65.215 20.128 65.919 18.896C66.095 18.592 66.287 18.256 66.495 17.888C66.719 17.504 66.895 17.208 67.023 17C67.151 16.776 67.255 16.608 67.335 16.496L70.287 11.72ZM79.1927 29.336C77.1607 29.336 75.4647 29.024 74.1047 28.4L74.7767 24.176C76.0087 24.88 77.3047 25.296 78.6647 25.424C79.0327 25.472 79.4807 25.48 80.0087 25.448C81.6247 25.352 82.4327 24.904 82.4327 24.104C82.4327 23.736 82.2407 23.424 81.8567 23.168C81.4727 22.912 80.7127 22.552 79.5767 22.088C78.1687 21.528 77.1447 20.904 76.5047 20.216C75.8807 19.512 75.5687 18.6 75.5687 17.48C75.5687 15.656 76.2647 14.184 77.6567 13.064C79.0327 11.944 80.8247 11.384 83.0327 11.384C84.8247 11.384 86.3207 11.656 87.5207 12.2L86.8727 16.256C85.8327 15.536 84.4727 15.176 82.7927 15.176C81.9447 15.176 81.2567 15.32 80.7287 15.608C80.2167 15.896 79.9607 16.264 79.9607 16.712C79.9607 17.048 80.1607 17.368 80.5607 17.672C80.9767 17.976 81.6727 18.344 82.6487 18.776C84.1047 19.4 85.1527 20.056 85.7927 20.744C86.4487 21.432 86.7767 22.336 86.7767 23.456C86.7767 25.264 86.1047 26.696 84.7607 27.752C83.4167 28.808 81.5607 29.336 79.1927 29.336ZM108.043 12.68V14.864C106.331 14 104.619 13.568 102.907 13.568C100.939 13.568 99.3146 14.208 98.0346 15.488C96.7706 16.752 96.1386 18.376 96.1386 20.36C96.1386 22.344 96.7706 23.968 98.0346 25.232C99.3146 26.512 100.939 27.152 102.907 27.152C104.747 27.152 106.499 26.728 108.163 25.88V28.064C106.787 28.88 105.035 29.288 102.907 29.288C100.267 29.288 98.0906 28.44 96.3786 26.744C94.6666 25.032 93.8106 22.904 93.8106 20.36C93.8106 17.816 94.6666 15.688 96.3786 13.976C98.0906 12.28 100.267 11.432 102.907 11.432C104.923 11.432 106.635 11.848 108.043 12.68ZM116.226 16.712C118.018 16.712 119.498 17.312 120.666 18.512C121.834 19.68 122.418 21.176 122.418 23C122.418 24.824 121.834 26.328 120.666 27.512C119.482 28.696 118.002 29.288 116.226 29.288C114.466 29.288 112.994 28.696 111.81 27.512C110.642 26.328 110.058 24.824 110.058 23C110.058 21.176 110.642 19.68 111.81 18.512C112.994 17.312 114.466 16.712 116.226 16.712ZM116.226 27.344C117.41 27.344 118.37 26.936 119.106 26.12C119.874 25.304 120.258 24.264 120.258 23C120.258 21.736 119.874 20.696 119.106 19.88C118.37 19.064 117.41 18.656 116.226 18.656C115.074 18.656 114.114 19.064 113.346 19.88C112.594 20.712 112.218 21.752 112.218 23C112.218 24.248 112.594 25.288 113.346 26.12C114.114 26.936 115.074 27.344 116.226 27.344ZM134.566 11.72H136.798V29H134.734L134.686 27.584L134.758 26.696H134.71C134.358 27.416 133.798 28.024 133.03 28.52C132.23 29.032 131.374 29.288 130.462 29.288C128.862 29.288 127.534 28.704 126.478 27.536C125.422 26.368 124.894 24.856 124.894 23C124.894 21.16 125.414 19.648 126.454 18.464C127.51 17.296 128.83 16.712 130.414 16.712C131.31 16.712 132.142 16.92 132.91 17.336C133.678 17.752 134.238 18.272 134.59 18.896H134.638C134.59 18.656 134.566 18.328 134.566 17.912V11.72ZM130.774 18.656C129.686 18.656 128.79 19.064 128.086 19.88C127.398 20.664 127.054 21.704 127.054 23C127.054 24.28 127.398 25.32 128.086 26.12C128.79 26.936 129.686 27.344 130.774 27.344C131.782 27.344 132.662 26.968 133.414 26.216C134.166 25.464 134.542 24.392 134.542 23C134.542 21.608 134.166 20.536 133.414 19.784C132.662 19.032 131.782 18.656 130.774 18.656ZM146.055 16.712C147.751 16.712 149.079 17.256 150.039 18.344C150.999 19.432 151.479 20.752 151.479 22.304C151.479 22.448 151.471 22.68 151.455 23C151.439 23.304 151.431 23.464 151.431 23.48H142.503V23.504C142.535 24.688 142.927 25.624 143.679 26.312C144.431 27 145.431 27.344 146.679 27.344C148.391 27.344 149.839 26.968 151.023 26.216V28.256C149.807 28.944 148.311 29.288 146.535 29.288C144.631 29.288 143.095 28.704 141.927 27.536C140.759 26.368 140.175 24.856 140.175 23C140.175 21.176 140.735 19.68 141.855 18.512C142.991 17.312 144.391 16.712 146.055 16.712ZM142.527 21.896H149.271C149.287 20.952 148.999 20.168 148.407 19.544C147.815 18.904 147.023 18.584 146.031 18.584C145.087 18.584 144.287 18.904 143.631 19.544C142.991 20.168 142.623 20.952 142.527 21.896Z" fill="black"/>
<defs>
<linearGradient id="paint0_linear_254_2" x1="30.4869" y1="7.08365" x2="30.4869" y2="37.8906" gradientUnits="userSpaceOnUse">
<stop stop-color="white"/>
<stop offset="1" stop-color="white" stop-opacity="0"/>
</linearGradient>
</defs>
</svg>
