<svg width="156" height="45" viewBox="0 0 156 45" fill="none" xmlns="http://www.w3.org/2000/svg">
<rect width="155.993" height="45" rx="6" fill="#EADEC4"/>
<path d="M40.9102 7.00354H20.0829C17.2757 7.00354 15 9.2792 15 12.0864V32.9136C15 35.7207 17.2757 37.9964 20.0829 37.9964H40.9102C43.7174 37.9964 45.9931 35.7207 45.9931 32.9136V12.0864C45.9931 9.2792 43.7174 7.00354 40.9102 7.00354Z" fill="#3076A1"/>
<path d="M39.8874 28.5125C38.6632 28.4815 37.7179 28.59 36.943 28.9309C36.7261 29.0084 36.3542 29.0084 36.3232 29.3029C36.4472 29.4268 36.4627 29.6283 36.5556 29.7987C36.7416 30.1087 37.067 30.5116 37.3459 30.7285C37.6714 30.961 37.9813 31.2244 38.3067 31.4259C38.8956 31.7978 39.5775 31.9992 40.1508 32.3711C40.4918 32.5881 40.8327 32.867 41.1426 33.084C41.3131 33.2079 41.406 33.4094 41.6385 33.4714V33.4249C41.53 33.2854 41.499 33.084 41.406 32.929C41.2511 32.7741 41.0961 32.6346 40.9566 32.4951C40.5227 31.9062 39.9804 31.3794 39.3915 30.961C38.8956 30.62 37.8418 30.1706 37.6559 29.6128L37.6249 29.5818C37.9658 29.5508 38.3532 29.4268 38.6786 29.3493C39.2055 29.2099 39.6549 29.2409 40.1973 29.1169C40.4298 29.0549 40.6932 28.9774 40.9257 28.8999V28.7605C40.6622 28.497 40.4453 28.1251 40.1663 27.8617C39.3915 27.1798 38.5392 26.5445 37.6714 25.9866C37.191 25.6767 36.5866 25.4752 36.1062 25.2273C35.9203 25.1498 35.6103 25.0878 35.5174 24.9329C35.2539 24.5919 35.0989 24.158 34.8975 23.7706C34.4636 22.9493 34.0297 22.0195 33.6423 21.1362C33.3788 20.5474 33.2084 19.9585 32.8674 19.4161C31.3023 16.8282 29.6132 15.2786 26.9943 13.7444C26.4364 13.419 25.7545 13.295 25.0572 13.1246C24.6853 13.1246 24.2979 13.0781 23.926 13.0626C23.6935 12.9541 23.4301 12.6752 23.2286 12.5357C22.3608 11.9933 20.1293 10.8156 19.4939 12.3652C19.091 13.3415 20.0983 14.3178 20.4547 14.8292C20.7027 15.1856 21.0436 15.573 21.2295 15.9604C21.338 16.2084 21.369 16.4873 21.462 16.7662C21.6944 17.4481 21.9424 18.1919 22.2523 18.7963C22.4228 19.1217 22.6087 19.4626 22.8102 19.7415C22.9342 19.912 23.1511 19.974 23.1821 20.2684C22.9652 20.5784 22.9652 21.0278 22.8257 21.3997C22.2833 23.1198 22.4848 25.2428 23.2596 26.498C23.492 26.8699 24.0809 27.7222 24.8557 27.3968C25.5376 27.1333 25.3826 26.2655 25.5841 25.5062C25.6306 25.3203 25.5841 25.1963 25.6926 25.0878V25.1188C25.9095 25.5372 26.111 25.9401 26.3124 26.3895C26.7928 27.1333 27.5986 27.9082 28.296 28.4196C28.6679 28.683 28.9623 29.1634 29.4117 29.3338V29.2874H29.3807C29.3032 29.1479 29.1638 29.0859 29.0243 28.9774C28.7609 28.714 28.4509 28.3731 28.234 28.0631C27.5986 27.2108 27.0408 26.2655 26.5294 25.2893C26.2969 24.8089 26.08 24.313 25.863 23.8326C25.7855 23.6466 25.7855 23.3832 25.6306 23.2902C25.4136 23.6312 25.0727 23.9101 24.9022 24.3285C24.6078 24.9948 24.5768 25.7852 24.4838 26.622C24.4218 26.622 24.4528 26.622 24.4218 26.653C23.926 26.529 23.7555 26.0331 23.6005 25.5992C23.1511 24.5144 23.0736 22.7943 23.4611 21.5391C23.5695 21.2137 24.0189 20.2219 23.833 19.912C23.7555 19.6176 23.4455 19.4626 23.2751 19.2302C23.0736 18.9357 22.8722 18.5638 22.7327 18.2539C22.3608 17.4016 22.1903 16.4563 21.7874 15.6195C21.6015 15.2321 21.276 14.8137 21.0281 14.4573C20.7337 14.0544 20.4237 13.7599 20.2068 13.2795C20.1448 13.1091 20.0208 12.8456 20.1448 12.6597C20.1758 12.5357 20.2223 12.4892 20.3617 12.4582C20.5632 12.2878 21.1211 12.5047 21.3225 12.5977C21.8804 12.8146 22.3608 13.0316 22.8257 13.357C23.0427 13.512 23.2596 13.7909 23.5385 13.8839H23.864C24.3599 13.9924 24.9022 13.9149 25.3516 14.0544C26.1575 14.3023 26.8858 14.6897 27.5366 15.1081C29.5357 16.3788 31.1628 18.1609 32.2631 20.2994C32.449 20.6558 32.511 20.9813 32.6815 21.3377C33.0069 22.0815 33.3943 22.8408 33.7198 23.5692C34.0452 24.282 34.3396 25.0103 34.8045 25.5992C35.0215 25.9246 35.9358 26.0951 36.3542 26.2655C36.6641 26.405 37.129 26.5135 37.4079 26.6839C37.9348 27.0094 38.4462 27.3658 38.9266 27.7222C39.159 27.9082 39.9184 28.2801 39.9804 28.59L39.8874 28.5125Z" fill="white"/>
<path d="M24.6548 16.7663L24.6858 16.7353C24.9027 16.5803 25.0112 16.3479 25.0112 15.976" fill="white"/>
<path d="M69.6572 21.152L65.9612 24.224L63.2252 21.152L62.2412 20.216L60.8492 29H56.6732L59.4572 11.48H59.5532L66.7532 19.136L76.4012 11.48H76.5212L73.7372 29H69.5132L70.9052 20.216L69.6572 21.152ZM82.9207 22.4L78.2887 11.72H83.2807L85.7527 18.2L90.3127 11.72H95.3047L87.3127 22.4L86.2567 29H81.8647L82.9207 22.4ZM98.9915 29.336C96.9595 29.336 95.2635 29.024 93.9035 28.4L94.5755 24.176C95.8075 24.88 97.1035 25.296 98.4635 25.424C98.8315 25.472 99.2795 25.48 99.8075 25.448C101.424 25.352 102.232 24.904 102.232 24.104C102.232 23.736 102.04 23.424 101.656 23.168C101.272 22.912 100.512 22.552 99.3755 22.088C97.9675 21.528 96.9435 20.904 96.3035 20.216C95.6795 19.512 95.3675 18.6 95.3675 17.48C95.3675 15.656 96.0635 14.184 97.4555 13.064C98.8315 11.944 100.624 11.384 102.832 11.384C104.624 11.384 106.12 11.656 107.32 12.2L106.672 16.256C105.632 15.536 104.272 15.176 102.592 15.176C101.744 15.176 101.056 15.32 100.528 15.608C100.016 15.896 99.7595 16.264 99.7595 16.712C99.7595 17.048 99.9595 17.368 100.36 17.672C100.776 17.976 101.472 18.344 102.448 18.776C103.904 19.4 104.952 20.056 105.592 20.744C106.248 21.432 106.576 22.336 106.576 23.456C106.576 25.264 105.904 26.696 104.56 27.752C103.216 28.808 101.36 29.336 98.9915 29.336ZM109.322 21.608C109.322 18.84 110.362 16.448 112.442 14.432C114.522 12.4 117.034 11.384 119.978 11.384C122.33 11.384 124.226 12.128 125.666 13.616C127.122 15.072 127.85 16.92 127.85 19.16C127.85 21.352 127.154 23.336 125.762 25.112C124.354 26.888 122.57 28.12 120.41 28.808C121.642 30.28 123.522 31.016 126.05 31.016C127.026 31.016 128.026 30.928 129.05 30.752L128.45 34.568C127.554 34.792 126.418 34.904 125.042 34.904C122.962 34.904 121.074 34.408 119.378 33.416C117.714 32.424 116.522 31.032 115.802 29.24C113.818 28.968 112.242 28.136 111.074 26.744C109.906 25.336 109.322 23.624 109.322 21.608ZM113.786 21.08C113.786 22.28 114.146 23.288 114.866 24.104C115.586 24.92 116.554 25.328 117.77 25.328C119.322 25.328 120.642 24.76 121.73 23.624C122.818 22.488 123.362 21.16 123.362 19.64C123.362 18.424 122.994 17.416 122.258 16.616C121.538 15.8 120.57 15.392 119.354 15.392C117.818 15.392 116.506 15.96 115.418 17.096C114.33 18.232 113.786 19.56 113.786 21.08ZM140.959 25.304L140.383 29H129.751L132.487 11.72H136.879L134.719 25.304H140.959Z" fill="black"/>
</svg>
