<svg width="243" height="45" viewBox="0 0 243 45" fill="none" xmlns="http://www.w3.org/2000/svg">
<rect width="243.009" height="45" rx="6" fill="#EADEC4"/>
<path d="M34.4635 21.7949L22.2212 19.6254V35.5867C22.2212 36.315 22.8256 36.9039 23.5384 36.9039H44.6757C45.404 36.9039 45.9929 36.2995 45.9929 35.5867V29.7136L34.4635 21.7949Z" fill="#1A5D38"/>
<path d="M34.4635 8.11156H23.5384C22.8101 8.11156 22.2212 8.71593 22.2212 9.42876V15.3019L34.4635 22.5077L40.9565 24.6772L46.0084 22.5077V15.3019L34.479 8.09607L34.4635 8.11156Z" fill="#1FA367"/>
<path d="M22.2056 15.302H34.4478V22.5078H22.2056V15.302Z" fill="#0E7D42"/>
<path opacity="0.1" d="M30.961 13.8763H22.1899V31.8832H30.961C31.6893 31.8832 32.2782 31.2788 32.2782 30.566V15.1935C32.2782 14.4652 31.6738 13.8763 30.961 13.8763Z" fill="#010101"/>
<path opacity="0.2" d="M30.2483 14.6046H22.2056V32.6115H30.2483C30.9766 32.6115 31.5655 32.0071 31.5655 31.2943V15.9218C31.5655 15.1935 30.9611 14.6046 30.2483 14.6046Z" fill="#010101"/>
<path opacity="0.2" d="M30.2483 14.6046H22.2056V31.1858H30.2483C30.9766 31.1858 31.5655 30.5814 31.5655 29.8686V15.9218C31.5655 15.1935 30.9611 14.6046 30.2483 14.6046Z" fill="#010101"/>
<path opacity="0.2" d="M29.5354 14.6046H22.2056V31.1858H29.5354C30.2638 31.1858 30.8526 30.5814 30.8526 29.8686V15.9218C30.8526 15.1935 30.2483 14.6046 29.5354 14.6046Z" fill="#010101"/>
<path d="M16.3172 14.6046H29.5357C30.2641 14.6046 30.853 15.209 30.853 15.9218V29.1403C30.853 29.8686 30.2486 30.4575 29.5357 30.4575H16.3172C15.5889 30.4575 15 29.8531 15 29.1403V15.9218C15 15.1935 15.6044 14.6046 16.3172 14.6046Z" fill="url(#paint0_linear_257_189)"/>
<path d="M19.0913 26.8156L21.8807 22.5076L19.3393 18.2306H21.3848L22.764 20.958C22.888 21.2214 22.9809 21.4074 23.0274 21.5468H23.0429C23.1359 21.3454 23.2289 21.1439 23.3219 20.9425L24.794 18.2306H26.6846L24.0812 22.4921L26.7466 26.8156H24.7475L23.1514 23.8093C23.0739 23.6853 23.0119 23.5459 22.9654 23.4064H22.9344C22.888 23.5459 22.826 23.6698 22.7485 23.7938L21.1059 26.8156H19.0913Z" fill="white"/>
<path d="M44.66 8.11157H34.4478V15.3174H45.9772V9.44427C45.9772 8.71593 45.3728 8.12706 44.66 8.12706V8.11157Z" fill="#4EB47F"/>
<path d="M34.4634 22.5232H45.9928V29.729H34.4634V22.5232Z" fill="#0E7D42"/>
<path d="M69.6728 21.152L65.9768 24.224L63.2408 21.152L62.2568 20.216L60.8648 29H56.6888L59.4728 11.48H59.5688L66.7688 19.136L76.4168 11.48H76.5368L73.7528 29H69.5288L70.9208 20.216L69.6728 21.152ZM76.8154 29L78.7114 17H83.0074L81.1114 29H76.8154ZM79.0714 13.928C79.0714 13.16 79.3194 12.544 79.8154 12.08C80.3114 11.6 80.9594 11.36 81.7594 11.36C82.3834 11.36 82.8634 11.528 83.1994 11.864C83.5514 12.184 83.7274 12.632 83.7274 13.208C83.7274 13.976 83.4794 14.6 82.9834 15.08C82.4874 15.56 81.8474 15.8 81.0634 15.8C80.4394 15.8 79.9514 15.632 79.5994 15.296C79.2474 14.96 79.0714 14.504 79.0714 13.928ZM88.3084 23.432C88.3084 24.12 88.5244 24.664 88.9564 25.064C89.3884 25.448 89.9804 25.64 90.7324 25.64C91.2604 25.64 91.8284 25.536 92.4364 25.328C93.0444 25.12 93.5164 24.904 93.8524 24.68L93.2284 28.496C92.0124 29.056 90.7644 29.336 89.4844 29.336C87.7724 29.336 86.4204 28.84 85.4284 27.848C84.4364 26.824 83.9404 25.528 83.9404 23.96C83.9404 21.896 84.6524 20.168 86.0764 18.776C87.4844 17.368 89.2844 16.664 91.4764 16.664C92.7724 16.664 93.9164 16.936 94.9084 17.48L94.3084 21.32C94.0204 21.064 93.6124 20.84 93.0844 20.648C92.5724 20.456 92.0684 20.36 91.5724 20.36C90.6444 20.36 89.8684 20.648 89.2444 21.224C88.6204 21.8 88.3084 22.536 88.3084 23.432ZM99.5087 29H95.2367L97.1327 17H101.021C100.973 17.24 100.949 17.544 100.949 17.912C100.949 18.024 100.941 18.144 100.925 18.272C100.925 18.384 100.917 18.472 100.901 18.536C100.901 18.6 100.901 18.64 100.901 18.656C102.005 17.328 103.261 16.664 104.669 16.664C104.877 16.664 105.093 16.68 105.317 16.712H105.437L104.789 20.888H104.741C104.549 20.776 104.285 20.72 103.949 20.72C103.117 20.72 102.341 21.008 101.621 21.584C100.917 22.16 100.477 22.952 100.301 23.96L99.5087 29ZM112.806 16.664C114.486 16.664 115.838 17.176 116.862 18.2C117.886 19.208 118.398 20.512 118.398 22.112C118.398 24.144 117.654 25.856 116.166 27.248C114.71 28.64 112.926 29.336 110.814 29.336C109.15 29.336 107.798 28.832 106.758 27.824C105.734 26.8 105.222 25.496 105.222 23.912C105.222 21.864 105.958 20.144 107.43 18.752C108.886 17.36 110.678 16.664 112.806 16.664ZM111.366 25.784C112.15 25.784 112.846 25.48 113.454 24.872C114.046 24.28 114.342 23.504 114.342 22.544C114.342 21.84 114.15 21.28 113.766 20.864C113.382 20.432 112.878 20.216 112.254 20.216C111.47 20.216 110.774 20.52 110.166 21.128C109.574 21.72 109.278 22.496 109.278 23.456C109.278 24.16 109.47 24.728 109.854 25.16C110.238 25.576 110.742 25.784 111.366 25.784ZM124.947 25.328C124.947 25.136 124.827 24.976 124.587 24.848C124.347 24.72 123.923 24.576 123.315 24.416C122.179 24.112 121.331 23.696 120.771 23.168C120.227 22.64 119.955 21.928 119.955 21.032C119.955 19.704 120.435 18.648 121.395 17.864C122.355 17.064 123.659 16.664 125.307 16.664C126.843 16.664 128.195 16.904 129.363 17.384L128.787 21.008C127.907 20.544 126.947 20.24 125.907 20.096C125.331 20.064 124.987 20.056 124.875 20.072C124.219 20.152 123.891 20.376 123.891 20.744C123.891 21.096 124.363 21.392 125.307 21.632C126.571 21.968 127.483 22.392 128.043 22.904C128.603 23.416 128.883 24.104 128.883 24.968C128.883 26.344 128.363 27.416 127.323 28.184C126.283 28.952 124.843 29.336 123.003 29.336C121.499 29.336 120.147 29.08 118.947 28.568L119.523 24.848C120.051 25.168 120.691 25.448 121.443 25.688C122.259 25.912 122.939 26.024 123.483 26.024C124.459 26.024 124.947 25.792 124.947 25.328ZM137.884 16.664C139.564 16.664 140.916 17.176 141.94 18.2C142.964 19.208 143.476 20.512 143.476 22.112C143.476 24.144 142.732 25.856 141.244 27.248C139.788 28.64 138.004 29.336 135.892 29.336C134.228 29.336 132.876 28.832 131.836 27.824C130.812 26.8 130.3 25.496 130.3 23.912C130.3 21.864 131.036 20.144 132.508 18.752C133.964 17.36 135.756 16.664 137.884 16.664ZM136.444 25.784C137.228 25.784 137.924 25.48 138.532 24.872C139.124 24.28 139.42 23.504 139.42 22.544C139.42 21.84 139.228 21.28 138.844 20.864C138.46 20.432 137.956 20.216 137.332 20.216C136.548 20.216 135.852 20.52 135.244 21.128C134.652 21.72 134.356 22.496 134.356 23.456C134.356 24.16 134.548 24.728 134.932 25.16C135.316 25.576 135.82 25.784 136.444 25.784ZM144.721 20.312L145.249 17H146.881L147.025 16.064C147.265 14.592 147.897 13.448 148.921 12.632C149.961 11.8 151.329 11.384 153.025 11.384C153.697 11.384 154.249 11.432 154.681 11.528L154.129 15.104C153.809 14.992 153.401 14.936 152.905 14.936C151.721 14.936 151.041 15.48 150.865 16.568L150.793 17H153.409L152.881 20.312H150.457L148.249 34.28H143.977L146.185 20.312H144.721ZM153.923 20.312L154.451 17H156.011L156.587 13.4H160.739L160.163 17H163.139L162.611 20.312H159.635L158.987 24.416C158.907 24.88 158.979 25.232 159.203 25.472C159.427 25.712 159.763 25.832 160.211 25.832C160.771 25.832 161.435 25.672 162.203 25.352L161.651 28.808C160.899 29.16 159.803 29.336 158.363 29.336C157.211 29.336 156.299 29.064 155.627 28.52C154.955 27.976 154.611 27.152 154.595 26.048C154.611 25.552 154.651 25.128 154.715 24.776L155.411 20.312H153.923ZM181.319 27.056V29H170.351V11.72H180.959V13.664H172.655V19.28H179.663V21.224H172.655V27.056H181.319ZM191.466 17H194.058L189.858 22.808L194.274 29H191.754L188.538 24.44L185.346 29H182.826L187.17 22.952L182.994 17H185.538L188.49 21.416L191.466 17ZM202.139 27.296C203.403 27.296 204.619 26.944 205.787 26.24V28.328C204.603 28.968 203.347 29.288 202.019 29.288C200.195 29.288 198.691 28.696 197.507 27.512C196.339 26.344 195.755 24.84 195.755 23C195.755 21.16 196.339 19.656 197.507 18.488C198.691 17.304 200.195 16.712 202.019 16.712C203.299 16.712 204.531 17.024 205.715 17.648V19.76C204.579 19.056 203.387 18.704 202.139 18.704C200.939 18.704 199.955 19.104 199.187 19.904C198.419 20.688 198.035 21.72 198.035 23C198.035 24.264 198.411 25.296 199.163 26.096C199.931 26.896 200.923 27.296 202.139 27.296ZM213.846 16.712C215.542 16.712 216.87 17.256 217.83 18.344C218.79 19.432 219.27 20.752 219.27 22.304C219.27 22.448 219.262 22.68 219.246 23C219.23 23.304 219.222 23.464 219.222 23.48H210.294V23.504C210.326 24.688 210.718 25.624 211.47 26.312C212.222 27 213.222 27.344 214.47 27.344C216.182 27.344 217.63 26.968 218.814 26.216V28.256C217.598 28.944 216.102 29.288 214.326 29.288C212.422 29.288 210.886 28.704 209.718 27.536C208.55 26.368 207.966 24.856 207.966 23C207.966 21.176 208.526 19.68 209.646 18.512C210.782 17.312 212.182 16.712 213.846 16.712ZM210.318 21.896H217.062C217.078 20.952 216.79 20.168 216.198 19.544C215.606 18.904 214.814 18.584 213.822 18.584C212.878 18.584 212.078 18.904 211.422 19.544C210.782 20.168 210.414 20.952 210.318 21.896ZM222.568 25.928V11.72H224.8V25.472C224.8 26.112 224.904 26.576 225.112 26.864C225.336 27.152 225.696 27.296 226.192 27.296C226.608 27.296 226.96 27.248 227.248 27.152V29.072C226.816 29.216 226.28 29.288 225.64 29.288C224.664 29.288 223.904 29.008 223.36 28.448C222.832 27.888 222.568 27.048 222.568 25.928Z" fill="black"/>
<defs>
<linearGradient id="paint0_linear_257_189" x1="17.7584" y1="13.5664" x2="28.0945" y2="31.4958" gradientUnits="userSpaceOnUse">
<stop stop-color="#1B8950"/>
<stop offset="0.5" stop-color="#147F44"/>
<stop offset="1" stop-color="#116732"/>
</linearGradient>
</defs>
</svg>
