<svg width="122" height="45" viewBox="0 0 122 45" fill="none" xmlns="http://www.w3.org/2000/svg">
<rect width="121.671" height="45" rx="6" fill="#EADEC4"/>
<path d="M28.9624 22.7479L33.1 21.8956L33.6733 17.4171L26.9168 7.00354L18.6262 11.451L17.433 21.6167L16.6426 25.7232L15 36.5397L20.4548 37.9964L22.2369 29.2719L37.47 37.4075L39.6705 34.1068L28.9624 22.7479Z" fill="url(#paint0_linear_257_46)"/>
<path d="M26.9165 7.00354L33.673 17.4171L28.0013 15.2786L26.9165 7.00354Z" fill="url(#paint1_linear_257_46)"/>
<path d="M33.1003 21.8955L33.6737 17.4171L28.002 15.2786L28.9628 22.7478L33.1003 21.8955Z" fill="url(#paint2_linear_257_46)"/>
<path d="M39.6709 34.1067L28.9628 22.7478L22.9037 24.8088L22.2373 29.2718L37.4704 37.4074L39.6709 34.1067Z" fill="url(#paint3_linear_257_46)"/>
<path d="M22.9028 24.8089L24.499 17.944L28.962 22.7479L22.9028 24.8089Z" fill="url(#paint4_linear_257_46)"/>
<path d="M26.916 7.00354L24.4985 17.944L28.9615 22.7479L26.916 7.00354Z" fill="url(#paint5_linear_257_46)"/>
<path d="M18.626 11.451L24.4992 17.9441L25.3205 14.2559L18.626 11.451Z" fill="#272B5F"/>
<path d="M17.4321 21.6167L18.6254 11.451L24.4985 17.9441L22.9024 24.809L17.4321 21.6167Z" fill="url(#paint6_linear_257_46)"/>
<path d="M26.9166 7.00354L18.626 11.451L25.3205 14.2559L26.9166 7.00354Z" fill="#24224B"/>
<path d="M22.9032 24.809L20.2378 28.4661L22.2368 29.2719L22.9032 24.809Z" fill="#263168"/>
<path d="M22.2369 29.2719L20.4548 37.9964L15 36.5397L20.2378 28.4661L22.2369 29.2719Z" fill="url(#paint7_linear_257_46)"/>
<path d="M20.2378 28.4661L16.6426 25.7233L15 36.5398L20.2378 28.4661Z" fill="url(#paint8_linear_257_46)"/>
<path d="M16.6431 25.7232L22.9037 24.809L20.2383 28.4661L16.6431 25.7232Z" fill="url(#paint9_linear_257_46)"/>
<path d="M16.6431 25.7233L17.4334 21.6167L22.9037 24.809L16.6431 25.7233Z" fill="#131325"/>
<path d="M28.0012 15.2786L25.3203 14.2559L26.9165 7.00354L28.0012 15.2786Z" fill="url(#paint10_linear_257_46)"/>
<path d="M58.1509 26.024L57.2869 23.312H55.5589L54.6469 29H50.3509L53.0869 11.72H59.2789C61.2309 11.72 62.7589 12.152 63.8629 13.016C64.9669 13.88 65.5189 15.104 65.5189 16.688C65.5189 18.112 65.1429 19.336 64.3909 20.36C63.6389 21.368 62.5989 22.136 61.2709 22.664L61.7509 24.344C62.0069 25.32 62.6069 25.808 63.5509 25.808C63.6149 25.808 63.8229 25.792 64.1749 25.76L63.6469 29.144C63.1349 29.272 62.5669 29.336 61.9429 29.336C60.9669 29.336 60.1829 29.088 59.5909 28.592C58.9989 28.08 58.5189 27.224 58.1509 26.024ZM58.8949 15.416H56.8069L56.1109 19.808H58.2469C59.0949 19.808 59.7669 19.592 60.2629 19.16C60.7749 18.712 61.0309 18.072 61.0309 17.24C61.0309 16.648 60.8389 16.2 60.4549 15.896C60.0709 15.576 59.5509 15.416 58.8949 15.416ZM72.6167 16.664C74.1847 16.664 75.3927 17.112 76.2407 18.008C77.0727 18.888 77.4887 20.024 77.4887 21.416C77.4887 22.376 77.3367 23.192 77.0327 23.864H69.7127C69.6967 24.488 69.9127 24.968 70.3607 25.304C70.8087 25.624 71.4487 25.784 72.2807 25.784C73.0167 25.784 73.8247 25.696 74.7047 25.52C75.5687 25.344 76.1527 25.176 76.4567 25.016L75.9047 28.592C74.8167 29.088 73.2887 29.336 71.3207 29.336C69.4647 29.336 67.9927 28.84 66.9047 27.848C65.8487 26.872 65.3207 25.568 65.3207 23.936C65.3207 21.904 66.0407 20.184 67.4807 18.776C68.9047 17.368 70.6167 16.664 72.6167 16.664ZM70.0007 21.896H73.4327C73.5287 21.304 73.4567 20.832 73.2167 20.48C72.9927 20.128 72.6087 19.952 72.0647 19.952C71.5367 19.952 71.0807 20.136 70.6967 20.504C70.3287 20.856 70.0967 21.32 70.0007 21.896ZM85.3616 20.456L87.2336 17H91.6736L84.4976 29.072H81.6896L78.3056 17H82.7456C83.5136 20.504 83.9216 22.656 83.9696 23.456C83.9856 23.424 84.1936 22.976 84.5936 22.112C85.0416 21.136 85.2976 20.584 85.3616 20.456ZM90.7041 29L92.6001 17H96.8961L95.0001 29H90.7041ZM92.9601 13.928C92.9601 13.16 93.2081 12.544 93.7041 12.08C94.2001 11.6 94.8481 11.36 95.6481 11.36C96.2721 11.36 96.7521 11.528 97.0881 11.864C97.4401 12.184 97.6161 12.632 97.6161 13.208C97.6161 13.976 97.3681 14.6 96.8721 15.08C96.3761 15.56 95.7361 15.8 94.9521 15.8C94.3281 15.8 93.8401 15.632 93.4881 15.296C93.1361 14.96 92.9601 14.504 92.9601 13.928ZM97.7571 20.312L98.2851 17H99.8451L100.421 13.4H104.573L103.997 17H106.973L106.445 20.312H103.469L102.821 24.416C102.741 24.88 102.813 25.232 103.037 25.472C103.261 25.712 103.597 25.832 104.045 25.832C104.605 25.832 105.269 25.672 106.037 25.352L105.485 28.808C104.733 29.16 103.637 29.336 102.197 29.336C101.045 29.336 100.133 29.064 99.4611 28.52C98.7891 27.976 98.4451 27.152 98.4291 26.048C98.4451 25.552 98.4851 25.128 98.5491 24.776L99.2451 20.312H97.7571Z" fill="black"/>
<defs>
<linearGradient id="paint0_linear_257_46" x1="16.4635" y1="22.9156" x2="29.634" y2="22.9156" gradientUnits="userSpaceOnUse">
<stop stop-color="#25326B"/>
<stop offset="1" stop-color="#26336D"/>
</linearGradient>
<linearGradient id="paint1_linear_257_46" x1="30.942" y1="16.5955" x2="27.6793" y2="10.9896" gradientUnits="userSpaceOnUse">
<stop stop-color="#293E7C"/>
<stop offset="1" stop-color="#263B7C"/>
</linearGradient>
<linearGradient id="paint2_linear_257_46" x1="34.1694" y1="25.1166" x2="30.7906" y2="19.6029" gradientUnits="userSpaceOnUse">
<stop stop-color="#304887"/>
<stop offset="1" stop-color="#224182"/>
</linearGradient>
<linearGradient id="paint3_linear_257_46" x1="27.2351" y1="35.5467" x2="31.6611" y2="29.2561" gradientUnits="userSpaceOnUse">
<stop stop-color="#273A7B"/>
<stop offset="1" stop-color="#263D7E"/>
</linearGradient>
<linearGradient id="paint4_linear_257_46" x1="25.7646" y1="22.4333" x2="24.7708" y2="17.8792" gradientUnits="userSpaceOnUse">
<stop stop-color="#24234E"/>
<stop offset="1" stop-color="#252B5C"/>
</linearGradient>
<linearGradient id="paint5_linear_257_46" x1="30.1195" y1="15.5152" x2="27.673" y2="14.8743" gradientUnits="userSpaceOnUse">
<stop stop-color="#262F65"/>
<stop offset="1" stop-color="#28336F"/>
</linearGradient>
<linearGradient id="paint6_linear_257_46" x1="19.7154" y1="21.7822" x2="21.4241" y2="14.7938" gradientUnits="userSpaceOnUse">
<stop stop-color="#1E1C3D"/>
<stop offset="1" stop-color="#252551"/>
</linearGradient>
<linearGradient id="paint7_linear_257_46" x1="17.6699" y1="37.4087" x2="20.9317" y2="30.5946" gradientUnits="userSpaceOnUse">
<stop stop-color="#28336F"/>
<stop offset="1" stop-color="#273A7B"/>
</linearGradient>
<linearGradient id="paint8_linear_257_46" x1="15.3383" y1="34.6955" x2="17.9476" y2="28.0099" gradientUnits="userSpaceOnUse">
<stop stop-color="#272C62"/>
<stop offset="1" stop-color="#272B5F"/>
</linearGradient>
<linearGradient id="paint9_linear_257_46" x1="20.0316" y1="29.5336" x2="19.8766" y2="26.5041" gradientUnits="userSpaceOnUse">
<stop stop-color="#252551"/>
<stop offset="1" stop-color="#262858"/>
</linearGradient>
<linearGradient id="paint10_linear_257_46" x1="26.5108" y1="16.428" x2="26.7436" y2="12.0596" gradientUnits="userSpaceOnUse">
<stop stop-color="#25326B"/>
<stop offset="1" stop-color="#26336D"/>
</linearGradient>
</defs>
</svg>
