<svg width="146" height="45" viewBox="0 0 146 45" fill="none" xmlns="http://www.w3.org/2000/svg">
<rect width="146" height="45" rx="6" fill="#EADEC4"/>
<path d="M20.0007 12.7596C20.941 13.5177 21.2938 13.4598 23.0594 13.3429L39.7052 12.3511C40.0581 12.3511 39.7645 12.0016 39.647 11.9435L36.8823 9.96024C36.3527 9.55215 35.6469 9.08477 34.2944 9.20169L18.1763 10.3683C17.5885 10.4261 17.4711 10.7178 17.7052 10.9516L20.0007 12.7596ZM21.0001 16.6092V33.9897C21.0001 34.9237 21.4705 35.2733 22.5292 35.2155L40.8228 34.1651C41.882 34.1073 42.0001 33.4646 42.0001 32.7059V15.4421C42.0001 14.6846 41.7065 14.276 41.058 14.3343L21.9409 15.4421C21.2354 15.501 21.0001 15.8512 21.0001 16.6092ZM39.0596 17.5416C39.1769 18.067 39.0596 18.592 38.5291 18.6511L37.6477 18.8253V31.6566C36.8823 32.0648 36.1767 32.2982 35.5887 32.2982C34.6471 32.2982 34.4113 32.0064 33.7061 31.132L27.9406 22.1499V30.8404L29.765 31.2488C29.765 31.2488 29.765 32.2982 28.2931 32.2982L24.2353 32.5317C24.1174 32.2982 24.2353 31.7155 24.6468 31.5986L25.7058 31.3075V19.8172L24.2355 19.7003C24.1176 19.1748 24.4113 18.4173 25.2354 18.3584L29.5885 18.0673L35.5887 27.1662V19.117L34.0588 18.9427C33.9414 18.3004 34.4113 17.8339 34.9996 17.7761L39.0596 17.5416ZM16.823 8.7936L33.5884 7.56842C35.6473 7.39318 36.1769 7.51056 37.471 8.44338L42.8226 12.1761C43.7058 12.818 44 12.9927 44 13.6925V34.1651C44 35.4479 43.5291 36.2068 41.8823 36.3228L22.4127 37.4897C21.1766 37.5482 20.5883 37.3733 19.941 36.5562L15.9999 31.4819C15.2937 30.548 15 29.8491 15 29.0315V10.8342C15 9.785 15.4711 8.9098 16.823 8.7936Z" fill="black"/>
<path d="M72.128 11.72L69.344 29.24H69.176L61.568 21.44L60.344 20.288L58.976 29H54.68L57.464 11.48H57.656L65.192 19.256C65.288 19.336 65.496 19.536 65.816 19.856C66.136 20.16 66.344 20.352 66.44 20.432L67.808 11.72H72.128ZM80.0469 16.664C81.7269 16.664 83.0789 17.176 84.1029 18.2C85.1269 19.208 85.6389 20.512 85.6389 22.112C85.6389 24.144 84.8949 25.856 83.4069 27.248C81.9509 28.64 80.1669 29.336 78.0549 29.336C76.3909 29.336 75.0389 28.832 73.9989 27.824C72.9749 26.8 72.4629 25.496 72.4629 23.912C72.4629 21.864 73.1989 20.144 74.6709 18.752C76.1269 17.36 77.9189 16.664 80.0469 16.664ZM78.6069 25.784C79.3909 25.784 80.0869 25.48 80.6949 24.872C81.2869 24.28 81.5829 23.504 81.5829 22.544C81.5829 21.84 81.3909 21.28 81.0069 20.864C80.6229 20.432 80.1189 20.216 79.4949 20.216C78.7109 20.216 78.0149 20.52 77.4069 21.128C76.8149 21.72 76.5189 22.496 76.5189 23.456C76.5189 24.16 76.7109 24.728 77.0949 25.16C77.4789 25.576 77.9829 25.784 78.6069 25.784ZM86.5003 20.312L87.0283 17H88.5883L89.1643 13.4H93.3163L92.7403 17H95.7163L95.1883 20.312H92.2122L91.5643 24.416C91.4843 24.88 91.5563 25.232 91.7803 25.472C92.0043 25.712 92.3403 25.832 92.7883 25.832C93.3483 25.832 94.0123 25.672 94.7803 25.352L94.2283 28.808C93.4763 29.16 92.3803 29.336 90.9403 29.336C89.7883 29.336 88.8763 29.064 88.2043 28.52C87.5323 27.976 87.1883 27.152 87.1723 26.048C87.1883 25.552 87.2283 25.128 87.2923 24.776L87.9883 20.312H86.5003ZM95.9941 29L97.8901 17H102.186L100.29 29H95.9941ZM98.2501 13.928C98.2501 13.16 98.4981 12.544 98.9941 12.08C99.4901 11.6 100.138 11.36 100.938 11.36C101.562 11.36 102.042 11.528 102.378 11.864C102.73 12.184 102.906 12.632 102.906 13.208C102.906 13.976 102.658 14.6 102.162 15.08C101.666 15.56 101.026 15.8 100.242 15.8C99.6181 15.8 99.1301 15.632 98.7781 15.296C98.4261 14.96 98.2501 14.504 98.2501 13.928ZM110.703 16.664C112.383 16.664 113.735 17.176 114.759 18.2C115.783 19.208 116.295 20.512 116.295 22.112C116.295 24.144 115.551 25.856 114.063 27.248C112.607 28.64 110.823 29.336 108.711 29.336C107.047 29.336 105.695 28.832 104.655 27.824C103.631 26.8 103.119 25.496 103.119 23.912C103.119 21.864 103.855 20.144 105.327 18.752C106.783 17.36 108.575 16.664 110.703 16.664ZM109.263 25.784C110.047 25.784 110.743 25.48 111.351 24.872C111.943 24.28 112.239 23.504 112.239 22.544C112.239 21.84 112.047 21.28 111.663 20.864C111.279 20.432 110.775 20.216 110.151 20.216C109.367 20.216 108.671 20.52 108.063 21.128C107.471 21.72 107.175 22.496 107.175 23.456C107.175 24.16 107.367 24.728 107.751 25.16C108.135 25.576 108.639 25.784 109.263 25.784ZM117.229 29L119.125 17H123.013L122.941 18.224C122.941 18.528 122.869 18.784 122.725 18.992H122.773C123.141 18.4 123.741 17.864 124.573 17.384C125.389 16.904 126.213 16.664 127.045 16.664C128.373 16.664 129.341 17.08 129.949 17.912C130.557 18.744 130.733 19.944 130.477 21.512L129.301 29H125.029L126.109 22.16C126.285 21.056 125.941 20.504 125.077 20.504C124.405 20.504 123.829 20.736 123.349 21.2C122.885 21.664 122.597 22.256 122.485 22.976L121.525 29H117.229Z" fill="black"/>
</svg>
