<svg width="286" height="1249" viewBox="0 0 286 1249" fill="none" xmlns="http://www.w3.org/2000/svg">
<path d="M255.889 1.58515L255.889 525.523C255.889 540.51 262.624 642.154 259.028 656.661C257.544 662.601 254.29 703.908 252.949 709.893C248.525 729.701 266.02 868.311 263.023 888.415C261.825 896.435 257.487 951.106 254.091 958.417C250.694 965.728 248.183 1021.72 250.866 1029.36C253.463 1036.76 260.683 1088.87 259.77 1096.68C259.485 1099.2 258.343 1116.13 256.916 1118.21C254.918 1121.11 253.834 1145.21 253.834 1148.77L253.834 1246.92" stroke="#A7D5F3" stroke-width="4" stroke-miterlimit="10"/>
<path d="M210.597 1.58478L210.597 529.566C210.597 559.518 224.067 632.284 216.847 661.299C213.879 673.179 207.372 701.874 204.718 713.823C195.871 753.461 230.831 851.815 224.866 892.025C222.469 908.063 213.793 945.988 207.029 960.61C200.237 975.232 195.214 1015.99 200.579 1031.23C205.745 1046.01 220.243 1081.17 218.417 1096.77C217.817 1101.8 215.591 1113.61 212.709 1117.77C208.713 1123.57 206.544 1140.82 206.544 1147.95L206.544 1246.85" stroke="#A7D5F3" stroke-width="4" stroke-miterlimit="10"/>
<path d="M32.397 1.58507L32.397 527.556C32.397 550.014 42.5 637.242 37.0775 658.991C34.8514 667.902 29.9712 702.902 27.9734 711.858C21.3238 741.581 47.5514 860.063 43.0708 890.22C41.2728 902.238 34.7658 948.547 29.6858 959.514C24.6058 970.48 20.8386 1018.85 24.8341 1030.29C28.7155 1041.37 39.589 1085.01 38.2191 1096.73C37.791 1100.5 36.0786 1114.87 33.9382 1117.98C30.9416 1122.32 29.3148 1143.02 29.3148 1148.36L29.3148 1246.9" stroke="#A7D5F3" stroke-width="4" stroke-miterlimit="10"/>
<path d="M76.7188 1.58478L76.7189 529.566C76.7189 559.518 90.1894 632.284 82.969 661.299C80.0009 673.179 73.4939 701.874 70.8398 713.823C61.9926 753.461 96.9533 851.815 90.9885 892.025C88.5912 908.063 79.9153 945.988 73.1515 960.61C66.3876 975.232 61.3362 1015.99 66.673 1031.23C71.8387 1046.01 86.3366 1081.17 84.5101 1096.77C83.9108 1101.8 81.6847 1113.61 78.8023 1117.77C74.8068 1123.57 72.6378 1140.82 72.6378 1147.95L72.6378 1246.85" stroke="#A7D5F3" stroke-width="4" stroke-miterlimit="10"/>
<path d="M121.012 1.5847L121.012 531.599C121.012 569.045 137.85 627.349 128.831 663.629C125.121 678.479 116.988 700.846 113.649 715.81C102.575 765.341 146.298 843.59 138.82 893.853C135.852 913.889 125.007 943.452 116.531 961.729C108.055 980.006 101.776 1013.13 108.454 1032.21C114.933 1050.69 133.027 1077.36 130.744 1096.87C130.002 1103.13 127.205 1112.42 123.609 1117.61C118.614 1124.85 115.903 1138.68 115.903 1147.59L115.903 1246.83" stroke="#A7D5F3" stroke-width="4" stroke-miterlimit="10"/>
<path d="M165.305 1.58501L165.305 533.633C165.305 578.572 185.511 622.437 174.694 665.937C170.271 683.757 160.482 699.818 156.486 717.752C143.215 777.199 195.671 835.32 186.709 895.612C183.142 919.669 170.128 940.848 159.939 962.781C149.779 984.713 142.245 1010.23 150.236 1033.1C157.999 1055.29 179.717 1073.45 176.977 1096.87C176.093 1104.38 172.725 1111.12 168.444 1117.36C162.451 1126.06 159.197 1136.46 159.197 1147.13L159.197 1246.78" stroke="#A7D5F3" stroke-width="4" stroke-miterlimit="10"/>
<path d="M227.178 1.6309C250.495 31.9481 268.246 61.0773 284 93.8848" stroke="#A7D5F3" stroke-width="4" stroke-miterlimit="10"/>
<path d="M142.359 1.72211C204.09 56.485 251.893 118.17 284 185.042" stroke="#A7D5F3" stroke-width="4" stroke-miterlimit="10"/>
<path d="M1.99998 1.99986C131.169 73.2808 230.629 172.777 284.14 284.176" stroke="#A7D5F3" stroke-width="4" stroke-miterlimit="10"/>
<path d="M1.86009 85.1346C131.029 156.416 230.489 255.912 284 367.311" stroke="#A7D5F3" stroke-width="4" stroke-miterlimit="10"/>
<path d="M1.86009 176.292C131.029 247.573 230.489 347.07 284 458.469" stroke="#A7D5F3" stroke-width="4" stroke-miterlimit="10"/>
<path d="M1.86009 267.426C131.029 338.707 230.489 438.203 284 549.603" stroke="#A7D5F3" stroke-width="4" stroke-miterlimit="10"/>
<path d="M1.86009 358.584C131.029 429.865 230.489 529.361 284 640.76" stroke="#A7D5F3" stroke-width="4" stroke-miterlimit="10"/>
<path d="M1.86009 449.718C131.058 520.999 230.517 620.472 284 731.895" stroke="#A7D5F3" stroke-width="4" stroke-miterlimit="10"/>
<path d="M1.86009 540.853C131.058 612.156 230.517 711.63 284 823.052" stroke="#A7D5F3" stroke-width="4" stroke-miterlimit="10"/>
<path d="M1.86009 632.01C131.058 703.291 230.517 802.764 284 914.187" stroke="#A7D5F3" stroke-width="4" stroke-miterlimit="10"/>
<path d="M1.86009 723.144C131.058 794.448 230.517 893.922 284 1005.32" stroke="#A7D5F3" stroke-width="4" stroke-miterlimit="10"/>
<path d="M1.86009 814.279C131.058 885.583 230.517 985.056 284 1096.48" stroke="#A7D5F3" stroke-width="4" stroke-miterlimit="10"/>
<path d="M1.86021 905.436C131.058 976.717 230.517 1076.19 284 1187.61" stroke="#A7D5F3" stroke-width="4" stroke-miterlimit="10"/>
<path d="M1.86001 996.571C118.7 1061.04 211.225 1148.59 267.418 1247.15" stroke="#A7D5F3" stroke-width="4" stroke-miterlimit="10"/>
<path d="M202.32 1246.99C149.18 1185.78 81.1424 1131.46 1.88871 1087.73" stroke="#A7D5F3" stroke-width="4" stroke-miterlimit="10"/>
<path d="M1.86025 1178.86C38.8187 1199.26 73.3513 1221.95 105.058 1246.58" stroke="#A7D5F3" stroke-width="4" stroke-miterlimit="10"/>
</svg>
