<svg width="436" height="259" viewBox="0 0 436 259" fill="none" xmlns="http://www.w3.org/2000/svg">
<path d="M0.782601 258.107C0.49157 258.107 0.255371 257.871 0.255371 257.58V0.593755C0.255371 0.302793 0.49157 0.0666504 0.782601 0.0666504C1.07363 0.0666504 1.30983 0.302793 1.30983 0.593755V257.58C1.30983 257.871 1.07363 258.107 0.782601 258.107Z" fill="#1D1D1D"/>
<path d="M10.7093 5.52322L10.7599 129.081L10.7346 252.638C10.7346 252.891 10.53 253.098 10.2749 253.096C10.0197 253.094 9.81511 252.891 9.81722 252.638L9.7666 129.081L9.79191 5.52322C9.79191 5.27021 9.99647 5.06358 10.2517 5.06569C10.5047 5.06569 10.7114 5.27021 10.7093 5.52322Z" fill="#1D1D1D"/>
<path d="M20.1109 10.4526L20.2058 129.074L20.1573 247.696C20.1573 247.913 19.9802 248.09 19.763 248.09C19.5457 248.09 19.3686 247.913 19.3686 247.696L19.2737 129.074L19.3222 10.4526C19.3222 10.2355 19.4993 10.0583 19.7166 10.0583C19.9338 10.0583 20.1109 10.2355 20.1109 10.4526Z" fill="#1D1D1D"/>
<path d="M29.5187 15.3821L29.6031 72.2251L29.6558 129.068L29.641 185.911L29.5925 242.754C29.5925 242.939 29.4428 243.089 29.2572 243.089C29.0716 243.089 28.9219 242.939 28.9219 242.754L28.8375 185.911L28.7848 129.068L28.7996 72.2251L28.8481 15.3821C28.8481 15.1966 28.9978 15.0469 29.1834 15.0469C29.369 15.0469 29.5187 15.1966 29.5187 15.3821Z" fill="#1D1D1D"/>
<path d="M38.9308 20.3117L39.0046 47.4997L39.0383 74.6878L39.1037 129.064L39.0847 183.44L39.0742 210.628L39.0257 237.816C39.0257 237.972 38.8991 238.096 38.7431 238.096C38.587 238.096 38.4626 237.972 38.4626 237.816L38.3888 210.628L38.355 183.44L38.2897 129.064L38.3087 74.6878L38.3192 47.4997L38.3677 20.3117C38.3677 20.1556 38.4942 20.0312 38.6503 20.0312C38.8064 20.0312 38.9308 20.1556 38.9308 20.3117Z" fill="#1D1D1D"/>
<path d="M48.3492 25.2412L48.4357 51.1958L48.4757 77.1505L48.5538 129.058L48.5348 180.965L48.5242 206.919L48.4694 232.874C48.4694 233.003 48.3661 233.106 48.2374 233.104C48.1109 233.104 48.0075 233.001 48.0075 232.874L47.9211 206.919L47.881 180.965L47.803 129.058L47.822 77.1505L47.8325 51.1958L47.8873 25.2412C47.8873 25.1126 47.9907 25.0093 48.1193 25.0093C48.2459 25.0093 48.3492 25.1126 48.3492 25.2391V25.2412Z" fill="#1D1D1D"/>
<path d="M57.7698 30.1706L57.8647 54.8897L57.9111 79.6088L58.0018 129.049L57.9849 178.489L57.9744 203.209L57.9153 227.928C57.9153 228.031 57.831 228.113 57.7276 228.113C57.6243 228.113 57.542 228.031 57.542 227.928L57.4471 203.209L57.4007 178.489L57.3101 129.049L57.3269 79.6088L57.3375 54.8897L57.3965 30.1706C57.3965 30.0673 57.4809 29.9851 57.5842 29.9851C57.6876 29.9851 57.7698 30.0673 57.7698 30.1706Z" fill="#1D1D1D"/>
<path d="M67.1967 35.1001L67.3 58.5857L67.3506 82.0714L67.4497 129.043L67.435 176.014L67.4265 199.5L67.3654 222.985C67.3654 223.066 67.3 223.131 67.2199 223.131C67.1397 223.131 67.0744 223.066 67.0744 222.985L66.971 199.5L66.9204 176.014L66.8213 129.043L66.836 82.0714L66.8445 58.5857L66.9056 35.1001C66.9056 35.02 66.971 34.9546 67.0512 34.9546C67.1313 34.9546 67.1967 35.02 67.1967 35.1001Z" fill="#1D1D1D"/>
<path d="M76.6277 40.0296L76.7373 62.2818L76.7922 84.534L76.8997 129.039L76.8892 173.543L76.8829 195.795L76.8217 218.048C76.8217 218.109 76.7732 218.157 76.712 218.157C76.6509 218.157 76.6024 218.109 76.6024 218.048L76.4927 195.795L76.4379 173.543L76.3303 129.039L76.3409 84.534L76.3472 62.2818L76.4084 40.0296C76.4084 39.9684 76.4569 39.9199 76.518 39.9199C76.5792 39.9199 76.6277 39.9684 76.6277 40.0296Z" fill="#1D1D1D"/>
<path d="M86.063 44.9592L86.1769 65.978L86.236 86.9968L86.3498 129.032L86.3456 171.068L86.3414 192.087L86.2824 213.106C86.2824 213.15 86.2465 213.184 86.2043 213.184C86.1621 213.184 86.1263 213.148 86.1263 213.106L86.0124 192.089L85.9534 171.07L85.8395 129.034L85.8437 86.999L85.8479 65.9801L85.907 44.9613C85.907 44.917 85.9428 44.8833 85.985 44.8833C86.0272 44.8833 86.063 44.9191 86.063 44.9613V44.9592Z" fill="#1D1D1D"/>
<path d="M95.5046 49.8885L95.6185 69.6718L95.6797 89.4551L95.7978 129.024V168.592V188.376L95.7429 208.159C95.7429 208.189 95.7197 208.212 95.6902 208.212C95.6607 208.212 95.6396 208.189 95.6375 208.161L95.5236 188.378L95.4625 168.595L95.3444 129.026V89.4572V69.6739L95.3992 49.8906C95.3992 49.8611 95.4224 49.8379 95.4519 49.8379C95.4814 49.8379 95.5025 49.8611 95.5046 49.8885Z" fill="#1D1D1D"/>
<path d="M104.948 54.8181L105.062 73.368L105.123 91.9178L105.246 129.018L105.256 166.117L105.26 184.667L105.214 203.217C105.214 203.234 105.201 203.247 105.185 203.247C105.168 203.247 105.155 203.234 105.155 203.217L105.041 184.667L104.98 166.117L104.858 129.018L104.847 91.9178L104.843 73.368L104.889 54.8181C104.889 54.8012 104.902 54.7886 104.919 54.7886C104.936 54.7886 104.948 54.8012 104.948 54.8181Z" fill="#1D1D1D"/>
<path d="M114.398 59.7475L114.508 77.064L114.571 94.3804L114.694 129.013L114.715 163.646L114.723 180.963L114.685 198.279C114.685 198.279 114.679 198.292 114.673 198.292C114.666 198.292 114.66 198.285 114.66 198.279L114.55 180.963L114.487 163.646L114.365 129.013L114.344 94.3804L114.335 77.064L114.373 59.7475C114.373 59.7475 114.379 59.7349 114.386 59.7349C114.392 59.7349 114.398 59.7412 114.398 59.7475Z" fill="#1D1D1D"/>
<path d="M123.853 64.677L123.958 80.76L124.019 96.8409L124.144 129.005L124.178 161.171L124.192 177.252L124.165 193.335L124.062 177.252L123.998 161.171L123.876 129.007L123.842 96.8409L123.825 80.76L123.853 64.677Z" fill="#1D1D1D"/>
<path d="M1.02509 0.125732L123.853 64.6771L0.540039 1.06187L1.02509 0.125732Z" fill="#1D1D1D"/>
<path d="M0.980827 28.6589L123.886 78.9721L0.584351 29.6372L0.980827 28.6589Z" fill="#1D1D1D"/>
<path d="M0.928116 57.1963L123.922 93.2671L0.637085 58.2083L0.928116 57.1963Z" fill="#1D1D1D"/>
<path d="M0.873262 85.7358L123.956 107.562L0.691895 86.7753L0.873262 85.7358Z" fill="#1D1D1D"/>
<path d="M0.812102 114.284L123.992 121.857L0.753052 115.336L0.812102 114.284Z" fill="#1D1D1D"/>
<path d="M0.750977 142.838L124.026 136.155L0.814244 143.89L0.750977 142.838Z" fill="#1D1D1D"/>
<path d="M0.691895 171.399L124.061 150.449L0.873262 172.438L0.691895 171.399Z" fill="#1D1D1D"/>
<path d="M0.63501 199.966L124.095 164.745L0.930258 200.98L0.63501 199.966Z" fill="#1D1D1D"/>
<path d="M0.584351 228.539L124.131 179.04L0.980827 229.515L0.584351 228.539Z" fill="#1D1D1D"/>
<path d="M0.540039 257.114L124.165 193.335L1.02509 258.048L0.540039 257.114Z" fill="#1D1D1D"/>
<path d="M87.902 258.107C87.611 258.107 87.3748 257.871 87.3748 257.58V0.593755C87.3748 0.302793 87.611 0.0666504 87.902 0.0666504C88.193 0.0666504 88.4292 0.302793 88.4292 0.593755V257.58C88.4292 257.871 88.193 258.107 87.902 258.107Z" fill="#1D1D1D"/>
<path d="M93.9926 5.52322L94.039 129.081L94.0073 252.638C94.0073 252.891 93.8028 253.098 93.5476 253.096C93.2945 253.096 93.0879 252.891 93.09 252.638L93.0436 129.081L93.0752 5.52322C93.0752 5.27021 93.2798 5.06358 93.535 5.06569C93.788 5.06569 93.9947 5.27021 93.9926 5.52322Z" fill="#1D1D1D"/>
<path d="M99.5622 10.4526L99.6487 129.074L99.5918 247.696C99.5918 247.913 99.4146 248.09 99.1974 248.09C98.9802 248.09 98.803 247.913 98.803 247.696L98.7166 129.074L98.7735 10.4526C98.7735 10.2355 98.9506 10.0583 99.1679 10.0583C99.3851 10.0583 99.5622 10.2355 99.5622 10.4526Z" fill="#1D1D1D"/>
<path d="M105.136 15.3821L105.214 72.2251L105.258 129.068L105.235 185.911L105.178 242.754C105.178 242.939 105.028 243.089 104.843 243.089C104.657 243.089 104.508 242.939 104.508 242.754L104.43 185.911L104.385 129.068L104.408 72.2251L104.465 15.3821C104.465 15.1966 104.615 15.0469 104.801 15.0469C104.986 15.0469 105.136 15.1966 105.136 15.3821Z" fill="#1D1D1D"/>
<path d="M110.714 20.3117L110.782 47.4997L110.811 74.6878L110.868 129.064L110.841 183.44L110.826 210.628L110.771 237.816C110.771 237.972 110.645 238.096 110.489 238.096C110.332 238.096 110.208 237.972 110.208 237.816L110.141 210.628L110.111 183.44L110.054 129.064L110.081 74.6878L110.096 47.4997L110.151 20.3117C110.151 20.1556 110.278 20.0312 110.434 20.0312C110.59 20.0312 110.714 20.1556 110.714 20.3117Z" fill="#1D1D1D"/>
<path d="M116.296 25.2411L116.377 51.1957L116.41 77.1503L116.478 129.057L116.446 180.965L116.429 206.919L116.368 232.874C116.368 233.002 116.265 233.106 116.136 233.104C116.01 233.104 115.906 233 115.906 232.874L115.826 206.919L115.792 180.965L115.725 129.057L115.757 77.1503L115.773 51.1957L115.835 25.2411C115.835 25.1125 115.938 25.0092 116.067 25.0113C116.193 25.0113 116.296 25.1146 116.296 25.2411Z" fill="#1D1D1D"/>
<path d="M121.885 30.1706L121.974 54.8897L122.012 79.6088L122.087 129.049L122.056 178.489L122.039 203.209L121.971 227.928C121.971 228.031 121.887 228.113 121.784 228.113C121.68 228.113 121.598 228.031 121.598 227.928L121.51 203.209L121.472 178.489L121.396 129.049L121.427 79.6088L121.444 54.8897L121.512 30.1706C121.512 30.0673 121.596 29.9851 121.699 29.9851C121.803 29.9851 121.885 30.0673 121.885 30.1706Z" fill="#1D1D1D"/>
<path d="M127.476 35.1001L127.571 58.5857L127.613 82.0714L127.695 129.043L127.664 176.014L127.647 199.5L127.577 222.985C127.577 223.066 127.512 223.131 127.432 223.131C127.351 223.131 127.286 223.066 127.286 222.985L127.191 199.5L127.149 176.014L127.067 129.043L127.098 82.0714L127.115 58.5857L127.185 35.1001C127.185 35.02 127.25 34.9546 127.33 34.9546C127.411 34.9546 127.476 35.02 127.476 35.1001Z" fill="#1D1D1D"/>
<path d="M133.073 40.0296L133.172 62.2818L133.216 84.534L133.305 129.039L133.275 173.543L133.258 195.795L133.187 218.048C133.187 218.109 133.138 218.157 133.077 218.157C133.016 218.157 132.967 218.109 132.967 218.048L132.868 195.795L132.824 173.543L132.735 129.039L132.765 84.534L132.782 62.2818L132.854 40.0296C132.854 39.9684 132.902 39.9199 132.963 39.9199C133.024 39.9199 133.073 39.9684 133.073 40.0296Z" fill="#1D1D1D"/>
<path d="M138.674 44.9591L138.775 65.9779L138.822 86.9968L138.913 129.032L138.885 171.068L138.87 192.087L138.801 213.105C138.801 213.15 138.765 213.183 138.723 213.183C138.681 213.183 138.645 213.148 138.645 213.105L138.541 192.087L138.495 171.068L138.404 129.032L138.432 86.9968L138.446 65.9779L138.516 44.9591C138.516 44.9148 138.552 44.8811 138.594 44.8811C138.636 44.8811 138.672 44.9169 138.672 44.9591H138.674Z" fill="#1D1D1D"/>
<path d="M144.282 49.8885L144.385 69.6718L144.434 89.4551L144.529 129.024L144.505 168.592L144.493 188.376L144.425 208.159C144.425 208.189 144.402 208.212 144.372 208.212C144.343 208.212 144.322 208.189 144.32 208.161L144.216 188.378L144.168 168.595L144.073 129.026L144.096 89.4572L144.109 69.6739L144.176 49.8906C144.176 49.8611 144.2 49.8379 144.229 49.8379C144.259 49.8379 144.28 49.8611 144.282 49.8885Z" fill="#1D1D1D"/>
<path d="M149.892 54.8181L149.991 73.368L150.039 91.9178L150.134 129.018L150.117 166.117L150.109 184.667L150.048 203.217C150.048 203.234 150.035 203.247 150.018 203.247C150.001 203.247 149.989 203.234 149.989 203.217L149.89 184.667L149.841 166.117L149.746 129.018L149.763 91.9178L149.771 73.368L149.833 54.8181C149.833 54.8012 149.845 54.7886 149.862 54.7886C149.879 54.7886 149.892 54.8012 149.892 54.8181Z" fill="#1D1D1D"/>
<path d="M155.508 59.7475L155.603 77.064L155.651 94.3804L155.746 129.013L155.738 163.646L155.733 180.963L155.681 198.279C155.681 198.279 155.674 198.292 155.668 198.292C155.662 198.292 155.655 198.285 155.655 198.279L155.56 180.963L155.512 163.646L155.417 129.013L155.425 94.3804L155.43 77.064L155.482 59.7475C155.482 59.7475 155.489 59.7349 155.495 59.7349C155.501 59.7349 155.508 59.7412 155.508 59.7475Z" fill="#1D1D1D"/>
<path d="M161.128 64.677L161.216 80.76L161.263 96.8409L161.356 129.005V161.171V177.252L161.313 193.335L161.225 177.252L161.178 161.171L161.086 129.007V96.8409V80.76L161.128 64.677Z" fill="#1D1D1D"/>
<path d="M88.2479 0.197266L161.128 64.6769L87.5541 0.990031L88.2479 0.197266Z" fill="#1D1D1D"/>
<path d="M88.1973 28.7117L161.149 78.9721L87.6047 29.5846L88.1973 28.7117Z" fill="#1D1D1D"/>
<path d="M88.1319 57.228L161.168 93.2672L87.6721 58.1768L88.1319 57.228Z" fill="#1D1D1D"/>
<path d="M88.0496 85.7507L161.189 107.562L87.7544 86.7628L88.0496 85.7507Z" fill="#1D1D1D"/>
<path d="M87.9525 114.286L161.21 121.857L87.8513 115.336L87.9525 114.286Z" fill="#1D1D1D"/>
<path d="M87.8492 142.84L161.231 136.155L87.9526 143.888L87.8492 142.84Z" fill="#1D1D1D"/>
<path d="M87.7544 171.413L161.252 150.449L88.0496 172.423L87.7544 171.413Z" fill="#1D1D1D"/>
<path d="M87.67 199.999L161.273 164.745L88.1319 200.946L87.67 199.999Z" fill="#1D1D1D"/>
<path d="M87.6047 228.592L161.292 179.04L88.1995 229.463L87.6047 228.592Z" fill="#1D1D1D"/>
<path d="M87.5541 257.184L161.313 193.335L88.2479 257.977L87.5541 257.184Z" fill="#1D1D1D"/>
<path d="M175.021 258.107C174.73 258.107 174.494 257.871 174.494 257.58V0.593755C174.494 0.302793 174.73 0.0666504 175.021 0.0666504C175.312 0.0666504 175.549 0.302793 175.549 0.593755V257.58C175.549 257.871 175.312 258.107 175.021 258.107Z" fill="#1D1D1D"/>
<path d="M177.278 5.52322L177.318 129.081L177.282 252.638C177.282 252.891 177.078 253.098 176.822 253.096C176.569 253.096 176.363 252.891 176.365 252.638L176.325 129.081L176.361 5.52322C176.361 5.27021 176.565 5.06358 176.82 5.06569C177.075 5.0678 177.28 5.27021 177.278 5.52322Z" fill="#1D1D1D"/>
<path d="M179.014 10.4526L179.089 129.074L179.022 247.696C179.022 247.913 178.845 248.09 178.628 248.09C178.41 248.09 178.233 247.913 178.233 247.696L178.157 129.074L178.225 10.4526C178.225 10.2355 178.402 10.0583 178.619 10.0583C178.836 10.0583 179.014 10.2355 179.014 10.4526Z" fill="#1D1D1D"/>
<path d="M180.751 15.3821L180.821 72.2251L180.859 129.068L180.829 185.911L180.766 242.754C180.766 242.939 180.616 243.089 180.431 243.089C180.245 243.089 180.095 242.939 180.095 242.754L180.026 185.911L179.988 129.068L180.017 72.2251L180.081 15.3821C180.081 15.1966 180.23 15.0469 180.416 15.0469C180.602 15.0469 180.751 15.1966 180.751 15.3821Z" fill="#1D1D1D"/>
<path d="M182.495 20.3117L182.559 47.4997L182.584 74.6878L182.63 129.064L182.592 183.44L182.573 210.628L182.514 237.816C182.514 237.972 182.388 238.096 182.232 238.096C182.076 238.096 181.951 237.972 181.951 237.816L181.888 210.628L181.863 183.44L181.816 129.064L181.854 74.6878L181.873 47.4997L181.932 20.3117C181.932 20.1556 182.059 20.0312 182.215 20.0312C182.371 20.0312 182.495 20.1556 182.495 20.3117Z" fill="#1D1D1D"/>
<path d="M184.246 25.2411L184.32 51.1957L184.347 77.1503L184.402 129.057L184.36 180.965L184.337 206.919L184.269 232.874C184.269 233.002 184.166 233.106 184.037 233.104C183.911 233.104 183.807 233 183.807 232.874L183.733 206.919L183.706 180.965L183.651 129.057L183.693 77.1503L183.716 51.1957L183.784 25.2411C183.784 25.1125 183.887 25.0092 184.016 25.0113C184.142 25.0113 184.246 25.1146 184.246 25.2411Z" fill="#1D1D1D"/>
<path d="M185.998 30.1706L186.081 54.8897L186.112 79.6088L186.173 129.049L186.127 178.489L186.102 203.209L186.028 227.928C186.028 228.031 185.943 228.113 185.84 228.113C185.737 228.113 185.655 228.029 185.655 227.928L185.572 203.209L185.541 178.489L185.479 129.049L185.526 79.6088L185.551 54.8897L185.625 30.1706C185.625 30.0673 185.709 29.9851 185.813 29.9851C185.916 29.9851 185.998 30.0694 185.998 30.1706Z" fill="#1D1D1D"/>
<path d="M187.757 35.1001L187.844 58.5857L187.877 82.0714L187.943 129.043L187.894 176.014L187.869 199.5L187.791 222.985C187.791 223.066 187.726 223.131 187.645 223.131C187.565 223.131 187.5 223.066 187.5 222.985L187.413 199.5L187.38 176.014L187.314 129.043L187.363 82.0714L187.388 58.5857L187.466 35.1001C187.466 35.02 187.532 34.9546 187.612 34.9546C187.692 34.9546 187.757 35.02 187.757 35.1001Z" fill="#1D1D1D"/>
<path d="M189.518 40.0296L189.609 62.2818L189.645 84.534L189.712 129.039L189.662 173.543L189.636 195.795L189.556 218.048C189.556 218.109 189.508 218.157 189.447 218.157C189.385 218.157 189.337 218.109 189.337 218.048L189.246 195.795L189.21 173.543L189.143 129.039L189.193 84.534L189.219 62.2818L189.299 40.0296C189.299 39.9684 189.347 39.9199 189.409 39.9199C189.47 39.9199 189.518 39.9684 189.518 40.0296Z" fill="#1D1D1D"/>
<path d="M191.288 44.9591L191.378 65.9779L191.414 86.9968L191.484 129.032L191.435 171.068L191.41 192.087L191.33 213.105C191.33 213.15 191.294 213.183 191.252 213.183C191.21 213.183 191.174 213.148 191.174 213.105L191.083 192.087L191.047 171.068L190.978 129.032L191.026 86.9968L191.051 65.9779L191.131 44.9591C191.131 44.9148 191.167 44.8811 191.21 44.8811C191.252 44.8811 191.288 44.9169 191.288 44.9591Z" fill="#1D1D1D"/>
<path d="M193.059 49.8885L193.15 69.6718L193.186 89.4551L193.255 129.024L193.209 168.592L193.183 188.376L193.105 208.159C193.105 208.189 193.082 208.212 193.053 208.212C193.023 208.212 193.002 208.189 193 208.161L192.909 188.378L192.873 168.595L192.804 129.026L192.85 89.4572L192.876 69.6739L192.954 49.8906C192.954 49.8611 192.977 49.8379 193.006 49.8379C193.036 49.8379 193.057 49.8611 193.059 49.8885Z" fill="#1D1D1D"/>
<path d="M194.835 54.8181L194.921 73.368L194.957 91.9178L195.025 129.018L194.982 166.117L194.959 184.667L194.885 203.217C194.885 203.234 194.873 203.247 194.856 203.247C194.839 203.247 194.826 203.234 194.826 203.217L194.74 184.667L194.704 166.117L194.636 129.018L194.679 91.9178L194.702 73.368L194.776 54.8181C194.776 54.8012 194.788 54.7886 194.805 54.7886C194.822 54.7886 194.835 54.8012 194.835 54.8181Z" fill="#1D1D1D"/>
<path d="M196.617 59.7475L196.697 77.064L196.731 94.3804L196.796 129.013L196.758 163.646L196.739 180.963L196.672 198.279C196.672 198.279 196.665 198.292 196.659 198.292C196.653 198.292 196.646 198.285 196.646 198.279L196.566 180.963L196.532 163.646L196.467 129.013L196.505 94.3804L196.524 77.064L196.591 59.7475C196.591 59.7475 196.598 59.7349 196.604 59.7349C196.61 59.7349 196.617 59.7412 196.617 59.7475Z" fill="#1D1D1D"/>
<path d="M198.403 64.677L198.475 80.76L198.506 96.8409L198.565 129.005L198.536 161.171L198.519 177.252L198.462 193.335L198.388 177.252L198.359 161.171L198.298 129.007L198.329 96.8409L198.344 80.76L198.403 64.677Z" fill="#1D1D1D"/>
<path d="M175.515 0.412354L198.403 64.6769L174.526 0.775001L175.515 0.412354Z" fill="#1D1D1D"/>
<path d="M175.498 28.9246L198.409 78.9721L174.543 29.3715L175.498 28.9246Z" fill="#1D1D1D"/>
<path d="M175.46 57.4114L198.416 93.2671L174.581 57.9912L175.46 57.4114Z" fill="#1D1D1D"/>
<path d="M175.376 85.8667L198.422 107.562L174.665 86.6468L175.376 85.8667Z" fill="#1D1D1D"/>
<path d="M175.173 114.305L198.428 121.857L174.867 115.315L175.173 114.305Z" fill="#1D1D1D"/>
<path d="M174.865 142.861L198.435 136.155L175.175 143.869L174.865 142.861Z" fill="#1D1D1D"/>
<path d="M174.665 171.529L198.443 150.449L175.378 172.307L174.665 171.529Z" fill="#1D1D1D"/>
<path d="M174.579 200.183L198.449 164.745L175.462 200.763L174.579 200.183Z" fill="#1D1D1D"/>
<path d="M174.543 228.803L198.456 179.04L175.498 229.25L174.543 228.803Z" fill="#1D1D1D"/>
<path d="M174.526 257.401L198.462 193.335L175.515 257.762L174.526 257.401Z" fill="#1D1D1D"/>
<path d="M435.245 258.107C434.954 258.107 434.718 257.871 434.718 257.58V0.593755C434.718 0.302793 434.954 0.0666504 435.245 0.0666504C435.536 0.0666504 435.772 0.302793 435.772 0.593755V257.58C435.772 257.871 435.536 258.107 435.245 258.107Z" fill="#1D1D1D"/>
<path d="M426.236 5.52322L426.261 129.081L426.21 252.638C426.21 252.891 426.006 253.096 425.751 253.096C425.495 253.096 425.293 252.891 425.293 252.638L425.268 129.081L425.318 5.52322C425.318 5.27021 425.523 5.06358 425.778 5.06569C426.033 5.0678 426.236 5.27021 426.236 5.52322Z" fill="#1D1D1D"/>
<path d="M416.706 10.4526L416.754 129.074L416.659 247.696C416.659 247.913 416.482 248.09 416.265 248.09C416.048 248.09 415.87 247.913 415.87 247.696L415.822 129.074L415.917 10.4526C415.917 10.2355 416.094 10.0583 416.311 10.0583C416.528 10.0583 416.706 10.2355 416.706 10.4526Z" fill="#1D1D1D"/>
<path d="M407.18 15.3821L407.228 72.2251L407.243 129.068L407.19 185.911L407.106 242.754C407.106 242.939 406.954 243.089 406.77 243.089C406.585 243.089 406.435 242.939 406.435 242.754L406.387 185.911L406.372 129.068L406.425 72.2251L406.509 15.3821C406.509 15.1966 406.661 15.0469 406.844 15.0469C407.03 15.0469 407.18 15.1966 407.18 15.3821Z" fill="#1D1D1D"/>
<path d="M397.658 20.3117L397.706 47.4997L397.717 74.6878L397.736 129.064L397.67 183.44L397.637 210.628L397.563 237.816C397.563 237.972 397.436 238.096 397.28 238.096C397.124 238.096 397 237.972 397 237.816L396.951 210.628L396.941 183.44L396.924 129.064L396.989 74.6878L397.023 47.4997L397.097 20.3117C397.097 20.1556 397.223 20.0312 397.379 20.0312C397.536 20.0312 397.66 20.1556 397.66 20.3117H397.658Z" fill="#1D1D1D"/>
<path d="M388.14 25.2411L388.195 51.1957L388.206 77.1503L388.225 129.057L388.147 180.965L388.106 206.919L388.02 232.874C388.02 233.002 387.917 233.106 387.788 233.104C387.661 233.104 387.558 233 387.558 232.874L387.503 206.919L387.493 180.965L387.474 129.057L387.552 77.1503L387.592 51.1957L387.678 25.2411C387.678 25.1125 387.782 25.0092 387.91 25.0113C388.037 25.0113 388.14 25.1146 388.14 25.2432V25.2411Z" fill="#1D1D1D"/>
<path d="M378.629 30.1706L378.688 54.8897L378.699 79.6088L378.716 129.049L378.625 178.489L378.578 203.209L378.484 227.928C378.484 228.031 378.399 228.113 378.296 228.113C378.192 228.113 378.11 228.029 378.11 227.928L378.051 203.209L378.041 178.489L378.024 129.049L378.114 79.6088L378.161 54.8897L378.256 30.1706C378.256 30.0673 378.34 29.9851 378.443 29.9851C378.547 29.9851 378.629 30.0694 378.629 30.1706Z" fill="#1D1D1D"/>
<path d="M369.122 35.1001L369.183 58.5857L369.192 82.0714L369.206 129.043L369.107 176.014L369.057 199.5L368.953 222.985C368.953 223.066 368.888 223.131 368.808 223.131C368.728 223.131 368.662 223.066 368.662 222.985L368.601 199.5L368.593 176.014L368.578 129.043L368.677 82.0714L368.728 58.5857L368.831 35.1001C368.831 35.02 368.896 34.9546 368.976 34.9546C369.057 34.9546 369.122 35.02 369.122 35.1001Z" fill="#1D1D1D"/>
<path d="M359.619 40.0296L359.68 62.2818L359.687 84.534L359.697 129.039L359.59 173.543L359.535 195.795L359.425 218.048C359.425 218.109 359.375 218.157 359.316 218.157C359.254 218.157 359.206 218.109 359.206 218.048L359.145 195.795L359.138 173.543L359.128 129.039L359.235 84.534L359.29 62.2818L359.4 40.0296C359.4 39.9684 359.45 39.9199 359.51 39.9199C359.571 39.9199 359.619 39.9684 359.619 40.0296Z" fill="#1D1D1D"/>
<path d="M350.121 44.959L350.18 65.9778L350.184 86.9967L350.188 129.032L350.074 171.068L350.015 192.087L349.901 213.103C349.901 213.148 349.865 213.181 349.823 213.181C349.781 213.181 349.745 213.145 349.745 213.103L349.686 192.084L349.682 171.066L349.678 129.03L349.792 86.9946L349.851 65.9757L349.965 44.9569C349.965 44.9126 350 44.8789 350.043 44.8789C350.085 44.8789 350.121 44.9148 350.121 44.9569V44.959Z" fill="#1D1D1D"/>
<path d="M340.626 49.8885L340.681 69.6718V89.4551V129.024L340.563 168.592L340.502 188.376L340.388 208.159C340.388 208.189 340.365 208.212 340.335 208.21C340.306 208.21 340.285 208.186 340.285 208.157L340.23 188.374V168.59V129.022L340.348 89.453L340.409 69.6697L340.523 49.8864C340.523 49.8569 340.546 49.8337 340.576 49.8358C340.605 49.8358 340.626 49.859 340.626 49.8885Z" fill="#1D1D1D"/>
<path d="M331.138 54.8181L331.185 73.368L331.18 91.9178L331.17 129.018L331.048 166.117L330.986 184.667L330.873 203.217C330.873 203.234 330.86 203.247 330.843 203.247C330.826 203.247 330.814 203.234 330.814 203.217L330.767 184.667L330.771 166.117L330.782 129.018L330.904 91.9178L330.965 73.368L331.079 54.8181C331.079 54.8012 331.092 54.7886 331.109 54.7886C331.126 54.7886 331.138 54.8012 331.138 54.8181Z" fill="#1D1D1D"/>
<path d="M321.654 59.7475L321.692 77.064L321.684 94.3804L321.663 129.013L321.541 163.646L321.477 180.963L321.368 198.279C321.368 198.279 321.361 198.292 321.355 198.292C321.349 198.292 321.342 198.285 321.342 198.279L321.304 180.963L321.313 163.646L321.334 129.013L321.456 94.3804L321.519 77.064L321.629 59.7475C321.629 59.7475 321.635 59.7349 321.642 59.7349C321.648 59.7349 321.654 59.7412 321.654 59.7475Z" fill="#1D1D1D"/>
<path d="M312.175 64.677L312.2 80.76L312.185 96.8409L312.152 129.007L312.029 161.171L311.966 177.252L311.861 193.335L311.835 177.252L311.85 161.171L311.884 129.005L312.006 96.8409L312.069 80.76L312.175 64.677Z" fill="#1D1D1D"/>
<path d="M435.488 1.06187L312.175 64.6771L435 0.125732L435.488 1.06187Z" fill="#1D1D1D"/>
<path d="M435.443 29.6372L312.139 78.9721L435.047 28.6589L435.443 29.6372Z" fill="#1D1D1D"/>
<path d="M435.39 58.2083L312.105 93.2671L435.097 57.1963L435.39 58.2083Z" fill="#1D1D1D"/>
<path d="M435.334 86.7753L312.069 107.562L435.154 85.7358L435.334 86.7753Z" fill="#1D1D1D"/>
<path d="M435.274 115.336L312.036 121.857L435.213 114.284L435.274 115.336Z" fill="#1D1D1D"/>
<path d="M435.213 143.89L312 136.155L435.274 142.838L435.213 143.89Z" fill="#1D1D1D"/>
<path d="M435.154 172.438L311.966 150.449L435.336 171.399L435.154 172.438Z" fill="#1D1D1D"/>
<path d="M435.097 200.98L311.93 164.745L435.39 199.966L435.097 200.98Z" fill="#1D1D1D"/>
<path d="M435.047 229.515L311.896 179.04L435.443 228.539L435.047 229.515Z" fill="#1D1D1D"/>
<path d="M435 258.048L311.861 193.335L435.488 257.114L435 258.048Z" fill="#1D1D1D"/>
<path d="M348.126 258.107C347.835 258.107 347.598 257.871 347.598 257.58V0.593755C347.598 0.302793 347.835 0.0666504 348.126 0.0666504C348.417 0.0666504 348.653 0.302793 348.653 0.593755V257.58C348.653 257.871 348.417 258.107 348.126 258.107Z" fill="#1D1D1D"/>
<path d="M342.952 5.52322L342.984 129.081L342.938 252.638C342.938 252.891 342.733 253.096 342.478 253.096C342.225 253.096 342.018 252.891 342.02 252.638L341.989 129.081L342.035 5.52322C342.035 5.27021 342.24 5.06358 342.495 5.06569C342.748 5.06569 342.952 5.27021 342.952 5.52322Z" fill="#1D1D1D"/>
<path d="M337.254 10.4526L337.311 129.074L337.225 247.696C337.225 247.913 337.047 248.09 336.83 248.09C336.613 248.09 336.436 247.913 336.436 247.696L336.379 129.074L336.465 10.4526C336.465 10.2355 336.643 10.0583 336.86 10.0583C337.077 10.0583 337.254 10.2355 337.254 10.4526Z" fill="#1D1D1D"/>
<path d="M331.562 15.3821L331.619 72.2251L331.642 129.068L331.598 185.911L331.52 242.754C331.52 242.939 331.368 243.089 331.185 243.089C330.999 243.089 330.849 242.939 330.849 242.754L330.792 185.911L330.769 129.068L330.813 72.2251L330.891 15.3821C330.891 15.1966 331.041 15.0469 331.227 15.0469C331.412 15.0469 331.562 15.1966 331.562 15.3821Z" fill="#1D1D1D"/>
<path d="M325.876 20.3117L325.931 47.4997L325.946 74.6878L325.973 129.064L325.917 183.44L325.887 210.628L325.82 237.816C325.82 237.972 325.693 238.096 325.537 238.096C325.381 238.096 325.256 237.972 325.256 237.816L325.202 210.628L325.187 183.44L325.159 129.064L325.216 74.6878L325.246 47.4997L325.313 20.3117C325.313 20.1556 325.44 20.0312 325.596 20.0312C325.752 20.0312 325.876 20.1556 325.876 20.3117Z" fill="#1D1D1D"/>
<path d="M320.193 25.2411L320.254 51.1957L320.271 77.1503L320.303 129.057L320.235 180.965L320.201 206.919L320.121 232.874C320.121 233.002 320.018 233.106 319.889 233.104C319.763 233.104 319.659 233 319.659 232.874L319.598 206.919L319.581 180.965L319.55 129.057L319.617 77.1503L319.651 51.1957L319.731 25.2411C319.731 25.1125 319.835 25.0092 319.963 25.0113C320.09 25.0113 320.193 25.1146 320.193 25.2411Z" fill="#1D1D1D"/>
<path d="M314.516 30.1706L314.583 54.8897L314.6 79.6088L314.632 129.049L314.556 178.489L314.518 203.209L314.429 227.928C314.429 228.031 314.345 228.113 314.242 228.113C314.138 228.113 314.056 228.029 314.056 227.928L313.989 203.209L313.972 178.489L313.94 129.049L314.016 79.6088L314.054 54.8897L314.143 30.1706C314.143 30.0673 314.227 29.9851 314.33 29.9851C314.434 29.9851 314.516 30.0694 314.516 30.1706Z" fill="#1D1D1D"/>
<path d="M308.841 35.1001L308.91 58.5857L308.927 82.0714L308.959 129.043L308.877 176.014L308.834 199.5L308.739 222.985C308.739 223.066 308.674 223.131 308.594 223.131C308.514 223.131 308.448 223.066 308.448 222.985L308.379 199.5L308.362 176.014L308.33 129.043L308.413 82.0714L308.455 58.5857L308.55 35.1001C308.55 35.02 308.615 34.9546 308.695 34.9546C308.775 34.9546 308.841 35.02 308.841 35.1001Z" fill="#1D1D1D"/>
<path d="M303.174 40.0296L303.246 62.2818L303.263 84.534L303.292 129.039L303.203 173.543L303.159 195.795L303.06 218.048C303.06 218.109 303.009 218.157 302.95 218.157C302.889 218.157 302.841 218.109 302.841 218.048L302.769 195.795L302.752 173.543L302.723 129.039L302.811 84.534L302.856 62.2818L302.955 40.0296C302.955 39.9684 303.005 39.9199 303.064 39.9199C303.125 39.9199 303.174 39.9684 303.174 40.0296Z" fill="#1D1D1D"/>
<path d="M297.51 44.9591L297.579 65.9779L297.594 86.9968L297.621 129.032L297.531 171.068L297.484 192.087L297.381 213.105C297.381 213.15 297.345 213.183 297.303 213.183C297.261 213.183 297.225 213.148 297.225 213.105L297.155 192.087L297.14 171.068L297.113 129.032L297.204 86.9968L297.25 65.9779L297.353 44.9591C297.353 44.9148 297.389 44.8811 297.431 44.8811C297.474 44.8811 297.51 44.9169 297.51 44.9591Z" fill="#1D1D1D"/>
<path d="M291.849 49.8885L291.917 69.6718L291.929 89.4551L291.952 129.024L291.858 168.592L291.809 188.376L291.706 208.159C291.706 208.189 291.682 208.212 291.653 208.21C291.623 208.21 291.602 208.186 291.602 208.157L291.535 188.374L291.522 168.59L291.499 129.022L291.594 89.453L291.642 69.6697L291.746 49.8864C291.746 49.8569 291.769 49.8337 291.798 49.8358C291.828 49.8358 291.849 49.859 291.849 49.8885Z" fill="#1D1D1D"/>
<path d="M286.195 54.8181L286.256 73.368L286.265 91.9178L286.282 129.018L286.187 166.117L286.138 184.667L286.039 203.217C286.039 203.234 286.026 203.247 286.01 203.247C285.993 203.247 285.98 203.234 285.98 203.217L285.919 184.667L285.91 166.117L285.894 129.018L285.988 91.9178L286.037 73.368L286.136 54.8181C286.136 54.8012 286.149 54.7886 286.166 54.7886C286.182 54.7886 286.195 54.8012 286.195 54.8181Z" fill="#1D1D1D"/>
<path d="M280.545 59.7475L280.598 77.064L280.602 94.3804L280.611 129.013L280.516 163.646L280.467 180.963L280.372 198.279C280.372 198.279 280.366 198.292 280.36 198.292C280.353 198.292 280.347 198.285 280.347 198.279L280.294 180.963L280.29 163.646L280.282 129.013L280.377 94.3804L280.425 77.064L280.52 59.7475C280.52 59.7475 280.526 59.7349 280.533 59.7349C280.539 59.7349 280.545 59.7412 280.545 59.7475Z" fill="#1D1D1D"/>
<path d="M274.9 64.677L274.942 80.76V96.8409L274.94 129.007L274.849 161.171L274.803 177.252L274.714 193.335L274.672 177.252L274.67 161.171L274.672 129.005L274.765 96.8409L274.811 80.76L274.9 64.677Z" fill="#1D1D1D"/>
<path d="M348.474 0.990031L274.9 64.6769L347.778 0.197266L348.474 0.990031Z" fill="#1D1D1D"/>
<path d="M348.423 29.5846L274.879 78.9721L347.828 28.7117L348.423 29.5846Z" fill="#1D1D1D"/>
<path d="M348.356 58.1768L274.858 93.2672L347.896 57.228L348.356 58.1768Z" fill="#1D1D1D"/>
<path d="M348.273 86.7628L274.837 107.562L347.978 85.7507L348.273 86.7628Z" fill="#1D1D1D"/>
<path d="M348.176 115.336L274.818 121.857L348.075 114.286L348.176 115.336Z" fill="#1D1D1D"/>
<path d="M348.073 143.888L274.796 136.155L348.176 142.84L348.073 143.888Z" fill="#1D1D1D"/>
<path d="M347.978 172.423L274.775 150.449L348.273 171.413L347.978 172.423Z" fill="#1D1D1D"/>
<path d="M347.894 200.946L274.754 164.745L348.356 199.999L347.894 200.946Z" fill="#1D1D1D"/>
<path d="M347.828 229.463L274.733 179.04L348.423 228.592L347.828 229.463Z" fill="#1D1D1D"/>
<path d="M347.778 257.977L274.714 193.335L348.474 257.184L347.778 257.977Z" fill="#1D1D1D"/>
<path d="M261.006 258.107C260.715 258.107 260.479 257.871 260.479 257.58V0.593755C260.479 0.302793 260.715 0.0666504 261.006 0.0666504C261.297 0.0666504 261.533 0.302793 261.533 0.593755V257.58C261.533 257.871 261.297 258.107 261.006 258.107Z" fill="#1D1D1D"/>
<path d="M259.667 5.52322L259.703 129.081L259.663 252.638C259.663 252.891 259.458 253.096 259.203 253.096C258.948 253.096 258.745 252.891 258.745 252.638L258.71 129.081L258.75 5.52322C258.75 5.27021 258.954 5.06358 259.209 5.06569C259.462 5.06569 259.669 5.27021 259.667 5.52322Z" fill="#1D1D1D"/>
<path d="M257.805 10.4526L257.872 129.074L257.796 247.696C257.796 247.913 257.619 248.09 257.402 248.09C257.185 248.09 257.008 247.913 257.008 247.696L256.94 129.074L257.016 10.4526C257.016 10.2355 257.193 10.0583 257.41 10.0583C257.628 10.0583 257.805 10.2355 257.805 10.4526Z" fill="#1D1D1D"/>
<path d="M255.947 15.3821L256.01 72.2251L256.04 129.068L256.002 185.911L255.932 242.754C255.932 242.939 255.782 243.089 255.597 243.089C255.411 243.089 255.262 242.939 255.262 242.754L255.198 185.911L255.169 129.068L255.207 72.2251L255.276 15.3821C255.276 15.1966 255.426 15.0469 255.612 15.0469C255.797 15.0469 255.947 15.1966 255.947 15.3821Z" fill="#1D1D1D"/>
<path d="M254.093 20.3117L254.152 47.4997L254.171 74.6878L254.209 129.064L254.163 183.44L254.137 210.628L254.074 237.816C254.074 237.972 253.948 238.096 253.791 238.096C253.635 238.096 253.511 237.972 253.511 237.816L253.452 210.628L253.433 183.44L253.395 129.064L253.441 74.6878L253.467 47.4997L253.53 20.3117C253.53 20.1556 253.657 20.0312 253.813 20.0312C253.969 20.0312 254.093 20.1556 254.093 20.3117Z" fill="#1D1D1D"/>
<path d="M252.246 25.2411L252.313 51.1957L252.336 77.1503L252.379 129.057L252.324 180.965L252.296 206.919L252.223 232.874C252.223 233.002 252.119 233.106 251.991 233.104C251.864 233.104 251.761 233 251.761 232.874L251.693 206.919L251.67 180.965L251.628 129.057L251.683 77.1503L251.71 51.1957L251.784 25.2411C251.784 25.1125 251.887 25.0092 252.016 25.0113C252.142 25.0113 252.246 25.1146 252.246 25.2411Z" fill="#1D1D1D"/>
<path d="M250.4 30.1706L250.474 54.8897L250.5 79.6088L250.546 129.049L250.485 178.489L250.453 203.209L250.371 227.928C250.371 228.031 250.287 228.113 250.183 228.113C250.08 228.113 249.998 228.029 249.998 227.928L249.924 203.209L249.899 178.489L249.852 129.049L249.913 79.6088L249.945 54.8897L250.027 30.1706C250.027 30.0673 250.112 29.9851 250.215 29.9851C250.318 29.9851 250.4 30.0694 250.4 30.1706Z" fill="#1D1D1D"/>
<path d="M248.561 35.1001L248.639 58.5857L248.665 82.0714L248.713 129.043L248.648 176.014L248.614 199.5L248.528 222.985C248.528 223.066 248.462 223.131 248.382 223.131C248.302 223.131 248.237 223.066 248.237 222.985L248.159 199.5L248.133 176.014L248.085 129.043L248.15 82.0714L248.184 58.5857L248.27 35.1001C248.27 35.02 248.336 34.9546 248.416 34.9546C248.496 34.9546 248.561 35.02 248.561 35.1001Z" fill="#1D1D1D"/>
<path d="M246.727 40.0296L246.807 62.2818L246.832 84.534L246.883 129.039L246.815 173.543L246.78 195.795L246.689 218.048C246.689 218.109 246.638 218.157 246.579 218.157C246.518 218.157 246.47 218.109 246.47 218.048L246.389 195.795L246.364 173.543L246.313 129.039L246.381 84.534L246.417 62.2818L246.508 40.0296C246.508 39.9684 246.558 39.9199 246.617 39.9199C246.678 39.9199 246.727 39.9684 246.727 40.0296Z" fill="#1D1D1D"/>
<path d="M244.898 44.9591L244.978 65.9779L245.004 86.9968L245.052 129.032L244.983 171.068L244.947 192.087L244.856 213.105C244.856 213.15 244.82 213.183 244.778 213.183C244.736 213.183 244.7 213.148 244.7 213.105L244.62 192.087L244.595 171.068L244.546 129.032L244.616 86.9968L244.651 65.9779L244.742 44.9591C244.742 44.9148 244.778 44.8811 244.82 44.8811C244.862 44.8811 244.898 44.9169 244.898 44.9591Z" fill="#1D1D1D"/>
<path d="M243.072 49.8885L243.15 69.6718L243.175 89.4551L243.222 129.024L243.152 168.592L243.116 188.376L243.025 208.159C243.025 208.189 243.002 208.212 242.973 208.21C242.943 208.21 242.922 208.186 242.92 208.157L242.842 188.374L242.817 168.59L242.77 129.022L242.84 89.453L242.876 69.6697L242.966 49.8864C242.966 49.8569 242.99 49.8337 243.019 49.8358C243.049 49.8358 243.07 49.859 243.072 49.8885Z" fill="#1D1D1D"/>
<path d="M241.252 54.8181L241.326 73.368L241.349 91.9178L241.391 129.018L241.324 166.117L241.288 184.667L241.201 203.217C241.201 203.234 241.189 203.247 241.172 203.247C241.155 203.247 241.142 203.234 241.142 203.217L241.069 184.667L241.045 166.117L241.003 129.018L241.071 91.9178L241.107 73.368L241.193 54.8181C241.193 54.8012 241.206 54.7886 241.223 54.7886C241.239 54.7886 241.252 54.8012 241.252 54.8181Z" fill="#1D1D1D"/>
<path d="M239.436 59.7475L239.504 77.064L239.523 94.3804L239.561 129.013L239.495 163.646L239.461 180.963L239.381 198.279C239.381 198.279 239.375 198.292 239.369 198.292C239.362 198.292 239.356 198.285 239.356 198.279L239.288 180.963L239.27 163.646L239.232 129.013L239.297 94.3804L239.331 77.064L239.411 59.7475C239.411 59.7475 239.417 59.7349 239.423 59.7349C239.43 59.7349 239.436 59.7412 239.436 59.7475Z" fill="#1D1D1D"/>
<path d="M237.625 64.677L237.682 80.76L237.698 96.8409L237.73 129.007L237.669 161.171L237.637 177.252L237.566 193.335L237.506 177.252L237.492 161.171L237.46 129.005L237.521 96.8409L237.551 80.76L237.625 64.677Z" fill="#1D1D1D"/>
<path d="M261.502 0.775001L237.625 64.6769L260.511 0.412354L261.502 0.775001Z" fill="#1D1D1D"/>
<path d="M261.483 29.3715L237.618 78.9721L260.53 28.9246L261.483 29.3715Z" fill="#1D1D1D"/>
<path d="M261.447 57.9912L237.612 93.2671L260.565 57.4114L261.447 57.9912Z" fill="#1D1D1D"/>
<path d="M261.36 86.6468L237.606 107.562L260.652 85.8667L261.36 86.6468Z" fill="#1D1D1D"/>
<path d="M261.158 115.315L237.597 121.857L260.854 114.305L261.158 115.315Z" fill="#1D1D1D"/>
<path d="M260.852 143.869L237.591 136.155L261.162 142.861L260.852 143.869Z" fill="#1D1D1D"/>
<path d="M260.65 172.307L237.584 150.449L261.363 171.529L260.65 172.307Z" fill="#1D1D1D"/>
<path d="M260.565 200.763L237.578 164.745L261.447 200.183L260.565 200.763Z" fill="#1D1D1D"/>
<path d="M260.53 229.25L237.572 179.04L261.485 228.803L260.53 229.25Z" fill="#1D1D1D"/>
<path d="M260.511 257.762L237.566 193.335L261.502 257.401L260.511 257.762Z" fill="#1D1D1D"/>
<path d="M218.014 0.59375L218.126 8.62471L218.21 16.6557L218.377 32.7176C218.463 43.4263 218.541 54.1328 218.592 64.8415C218.659 75.5501 218.674 86.2567 218.714 96.9653L218.754 129.089L218.714 161.213C218.674 171.922 218.659 182.628 218.592 193.337C218.541 204.046 218.463 214.752 218.377 225.461L218.21 241.523L218.126 249.554L218.014 257.585L217.902 249.554L217.818 241.523L217.651 225.461C217.565 214.752 217.487 204.046 217.436 193.337C217.369 182.628 217.354 171.922 217.314 161.213L217.274 129.089L217.314 96.9653C217.354 86.2567 217.369 75.5501 217.436 64.8415C217.487 54.1328 217.565 43.4263 217.651 32.7176L217.818 16.6557L217.902 8.62471L218.014 0.59375Z" fill="#1D1D1D"/>
</svg>
