<?xml version="1.0" encoding="UTF-8"?><svg id="Capa_2" xmlns="http://www.w3.org/2000/svg" viewBox="0 0 521.04 505.43"><defs><style>.cls-1{fill:none;stroke:#a7d5f3;stroke-miterlimit:10;stroke-width:5px;}</style></defs><g id="Capa_1-2"><path class="cls-1" d="M10.7,503.87c-27.23-34.08,21.55-114.92,27.8-128.77,8.38-17.87,15.32-34.5,18.85-52.69,2.79-13.06,4.64-27.03,7.52-40.37,5.99-27.66,17-50.31,47.26-62.63,45.19-20.48,100.64-12.45,78.86-75.31-6.54-21.88-20.07-42.83-23.4-65.26-2.02-15.79,4.06-31.86,14.23-44.47,12.17-13.35,28.37-18.72,48.89-23.72,34.16-6.85,67.71-16.72,96.76,5.89,53.76,41.96,21.52,93.76,19.26,146.73-1.69,21.64,12.64,31.51,33.05,41.28,21.36,9.78,48.89,20.3,70.74,30.08,27.67,11.33,36.68,29.92,39.99,56.02,4.64,28.99,1.75,56.9,7.04,86.19,4.08,23.39,22.5,95.77,20.9,119.92"/></g></svg>