<svg width="32" height="32" viewBox="0 0 32 32" fill="none" xmlns="http://www.w3.org/2000/svg">
<rect width="32" height="32" fill="#1D1D1D"/>
<path d="M12.8851 21.7179C11.9704 20.332 9.66285 15.9088 9.66285 15.9088H7.75325L6.74434 21.7319H2L5.02325 4.03577C8.05697 4.19985 14.6306 3.37247 16.9277 5.36237C20.6701 8.21456 18.2578 14.1144 14.0651 15.242C14.4875 16.9177 18.1321 22.849 23.9098 23.1493V28.3265C16.7567 27.953 14.0511 23.4809 12.8886 21.7144L12.8851 21.7179ZM11.4398 7.82007H9.13221L8.36418 12.3165H10.7241C14.0127 12.8018 15.1822 7.66646 11.4398 7.82007Z" fill="#EADEC4"/>
<path d="M19.7273 11.4227C20.8933 10.2847 22.3701 9.71912 24.1575 9.71912C25.9449 9.71912 27.4146 10.2882 28.5667 11.4227C29.7327 12.5573 30.3157 13.9922 30.3157 15.7167C30.3157 17.4413 29.7327 18.8761 28.5667 20.0107C27.4146 21.1488 25.9449 21.7144 24.1575 21.7144C22.3701 21.7144 20.8933 21.1453 19.7273 20.0107C18.5753 18.8726 17.9993 17.4413 17.9993 15.7167C17.9993 13.9922 18.5753 12.5573 19.7273 11.4227ZM22.4643 17.6159C22.9112 18.1081 23.4767 18.356 24.1575 18.356C24.8382 18.356 25.4038 18.1116 25.8506 17.6159C26.2975 17.1236 26.5209 16.4918 26.5209 15.7167C26.5209 14.9417 26.2975 14.3098 25.8506 13.8176C25.4038 13.3254 24.8382 13.0775 24.1575 13.0775C23.4767 13.0775 22.9112 13.3254 22.4643 13.8176C22.0175 14.3098 21.794 14.9417 21.794 15.7167C21.794 16.4918 22.0175 17.1236 22.4643 17.6159Z" fill="#EADEC4"/>
</svg>
