<svg width="256" height="256" viewBox="0 0 256 256" fill="none" xmlns="http://www.w3.org/2000/svg">
<rect width="256" height="256" fill="#1D1D1D"/>
<path d="M102.558 171.638C95.453 160.871 77.527 126.511 77.527 126.511H62.6927L54.8552 171.746H18L41.4854 34.2779C65.0521 35.5525 116.118 29.1252 133.962 44.5832C163.034 66.7398 144.295 112.572 111.725 121.331C115.006 134.348 143.319 180.424 188.201 182.756V222.975C132.634 220.073 111.616 185.333 102.585 171.61L102.558 171.638ZM91.3308 63.6753H73.4049L67.4386 98.605H85.7713C111.318 102.375 120.403 62.482 91.3308 63.6753Z" fill="#EADEC4"/>
<path d="M155.712 91.6625C164.77 82.8216 176.242 78.4282 190.127 78.4282C204.012 78.4282 215.429 82.8487 224.379 91.6625C233.437 100.476 237.965 111.622 237.965 125.019C237.965 138.416 233.437 149.562 224.379 158.376C215.429 167.217 204.012 171.61 190.127 171.61C176.242 171.61 164.77 167.19 155.712 158.376C146.763 149.535 142.288 138.416 142.288 125.019C142.288 111.622 146.763 100.476 155.712 91.6625ZM176.974 139.772C180.445 143.596 184.839 145.522 190.127 145.522C195.415 145.522 199.809 143.623 203.28 139.772C206.751 135.948 208.487 131.04 208.487 125.019C208.487 118.999 206.751 114.09 203.28 110.266C199.809 106.443 195.415 104.517 190.127 104.517C184.839 104.517 180.445 106.443 176.974 110.266C173.503 114.09 171.767 118.999 171.767 125.019C171.767 131.04 173.503 135.948 176.974 139.772Z" fill="#EADEC4"/>
</svg>
