<?xml version="1.0" encoding="UTF-8"?><svg id="Capa_1" xmlns="http://www.w3.org/2000/svg" viewBox="0 0 20 20"><defs><style>.cls-1{fill:#49021f;}.cls-1,.cls-2{stroke-width:0px;}.cls-2{fill:#f36;}</style></defs><path class="cls-1" d="M3.52.01l12.92-.02c1.96,0,3.54,1.62,3.55,3.63l.02,12.73c0,2.01-1.58,3.64-3.54,3.64l-12.92.02c-1.96,0-3.54-1.62-3.55-3.63L-.01,3.65C-.02,1.64,1.56.02,3.52.01Z"/><g id="vlpa"><g id="vlpb"><path class="cls-2" d="M7.64,6.7v7.12c.01.08-.02.11-.08.11h-1.35c-.06,0-.09-.03-.09-.11v-7.12c-.01-.06.02-.09.08-.09h1.35s.08.02.09.07c0,0,0,.01,0,.02Z"/><path class="cls-2" d="M11.64,14c-.51,0-1.02-.09-1.49-.31-.44-.2-.8-.53-1.04-.94-.26-.42-.38-.95-.38-1.57,0-.51.12-1.02.38-1.46.26-.45.64-.82,1.1-1.07.48-.27,1.06-.4,1.75-.4.03,0,.08,0,.15,0s.13,0,.21.01v-2.18s.02-.08.07-.08h1.4s.06.02.07.05h0s.01,6.59.01,6.59c0,.12,0,.26.01.41.01.15.02.28.03.4,0,.05-.02.09-.07.11-.36.15-.74.26-1.13.33-.35.06-.7.1-1.06.1h0ZM12.32,12.62v-3.04c-.07-.01-.13-.03-.19-.03-.08,0-.15-.01-.23-.01-.27,0-.54.06-.78.18-.23.12-.43.29-.59.51s-.23.52-.23.88c0,.24.04.48.12.71.07.19.17.35.31.49.13.12.29.22.47.28.19.06.38.09.57.09.1,0,.2,0,.29-.01.09,0,.17,0,.25-.03h0Z"/></g></g></svg>