<?xml version="1.0" encoding="UTF-8"?><svg id="Capa_2" xmlns="http://www.w3.org/2000/svg" viewBox="0 0 163.51 48.69"><defs><style>.cls-1{fill:#000;stroke-width:0px;}</style></defs><g id="Capa_1-2"><path class="cls-1" d="M87.53,21.74c.53.57.79,1.3.79,2.19,0,1.19-.39,2.19-1.16,3-.77.8-1.71,1.2-2.82,1.2-.84,0-1.52-.28-2.04-.85-.52-.57-.78-1.3-.78-2.19,0-1.2.39-2.19,1.16-2.98.77-.81,1.71-1.22,2.8-1.22.84,0,1.52.28,2.05.85ZM39,21.59c-.56,0-1.02.19-1.37.56-.35.37-.55.85-.59,1.44h3.78c.03-.57-.13-1.05-.46-1.43-.33-.38-.79-.57-1.36-.57ZM107.86,20.83c-.81,0-1.53.27-2.16.82-.6.55-1,1.19-1.2,1.94h5.62c.13-.79,0-1.44-.41-1.97-.41-.53-1.02-.79-1.85-.79ZM65.88,20.89c-.97,0-1.85.38-2.62,1.14-.77.73-1.16,1.78-1.16,3.14,0,.92.25,1.64.75,2.17.5.53,1.13.79,1.89.79,1.05,0,1.94-.41,2.66-1.22.72-.81,1.08-1.82,1.08-3.02,0-.89-.24-1.62-.71-2.17s-1.1-.83-1.89-.83ZM137.43,20.89c-1.09,0-2.03.41-2.8,1.22-.77.79-1.16,1.78-1.16,2.98,0,.89.26,1.62.78,2.19.52.57,1.2.85,2.04.85,1.11,0,2.05-.4,2.82-1.2.77-.81,1.16-1.81,1.16-3,0-.89-.26-1.62-.79-2.19-.53-.57-1.21-.85-2.05-.85ZM163.51,0v48.69H0V0h163.51ZM28.08,29.73l7.08-14.62h-3.34l-1.88,4.16c-.64,1.41-1.29,2.91-1.94,4.48-.21-.6-.85-2.09-1.9-4.48l-1.88-4.16h-3.36l7.1,14.62h.12ZM43.68,23.91c0-1.31-.41-2.41-1.24-3.32-.83-.91-1.97-1.36-3.42-1.36s-2.65.51-3.62,1.52c-.97.99-1.46,2.24-1.46,3.76s.51,2.83,1.52,3.8c1.03.99,2.39,1.48,4.08,1.48,1.55,0,2.79-.24,3.74-.72v-2.54c-.33.19-.83.36-1.48.52-.69.15-1.35.22-1.98.22-.81,0-1.47-.19-1.96-.56-.49-.37-.77-.9-.82-1.58h6.56c.05-.48.08-.89.08-1.22ZM52.14,19.29c-.08-.04-.29-.06-.64-.06-1.23,0-2.21.64-2.96,1.92-.01-.05-.02-.27-.02-.66l-.06-.98h-2.72v10h2.98v-4.26c0-.92.27-1.67.8-2.26.53-.6,1.19-.9,1.96-.9.28,0,.5.04.66.12v-2.92ZM70.3,23.65c0-1.31-.36-2.36-1.08-3.16-.69-.81-1.63-1.22-2.82-1.22-.77,0-1.52.2-2.24.6-.71.4-1.25.87-1.62,1.42h-.04l.18-.74.12-1.04h-1.72l-2.28,14.4h1.86l.84-5.3c.05-.31.08-.58.08-.82h.04c.2.56.59,1.03,1.17,1.4s1.24.56,1.99.56c1.51,0,2.8-.58,3.88-1.74,1.09-1.15,1.64-2.6,1.64-4.36ZM79.14,19.33c-.16-.04-.36-.06-.6-.06-.68,0-1.32.21-1.93.63-.61.42-1.12,1-1.53,1.75h-.02l.14-.74.2-1.4h-1.74l-1.58,10h1.86l.7-4.36c.16-1.07.59-2.01,1.28-2.82.69-.84,1.5-1.26,2.42-1.26.21,0,.38.02.5.06l.3-1.8ZM88.36,28.01c1.19-1.16,1.78-2.58,1.78-4.26,0-1.32-.41-2.39-1.22-3.22-.8-.84-1.86-1.26-3.18-1.26-1.67,0-3.09.58-4.26,1.74-1.19,1.16-1.78,2.58-1.78,4.26,0,1.31.4,2.38,1.2,3.22.81.84,1.87,1.26,3.18,1.26,1.68,0,3.11-.58,4.28-1.74ZM102.16,19.51h-2.06l-1.94,3.62-.74,1.36c-.49.93-.81,1.51-.94,1.74-.24.44-.48.87-.72,1.28l-.54-2.36-.44-2.02-.84-3.62h-2.06l2.62,9.88c-.67,1.15-1.26,1.96-1.79,2.44-.53.48-1.15.72-1.87.72-.45,0-.81-.04-1.06-.12l-.24,1.54c.24.12.65.18,1.24.18,1.24,0,2.27-.39,3.1-1.18.81-.75,1.76-2.05,2.84-3.92l5.44-9.54ZM111.98,23.21c0-1.13-.34-2.07-1.02-2.8-.65-.76-1.6-1.14-2.84-1.14-1.56,0-2.92.59-4.08,1.76-1.15,1.19-1.72,2.61-1.72,4.28,0,1.33.41,2.41,1.22,3.22.81.81,1.92,1.22,3.32,1.22,1.48,0,2.77-.29,3.88-.86l.26-1.7c-1.07.63-2.32.94-3.76.94-1.04,0-1.83-.29-2.36-.86s-.74-1.35-.62-2.34v-.02h7.44l.06-.22c.04-.15.08-.29.11-.44.03-.15.06-.32.09-.52s.03-.37.02-.52ZM122.81,20.05c-.89-.52-1.88-.78-2.96-.78-1.73,0-3.19.58-4.36,1.74s-1.76,2.59-1.76,4.28c0,1.32.41,2.39,1.22,3.22.83.83,1.91,1.24,3.24,1.24,1.12,0,2.21-.27,3.26-.8l.28-1.74c-1.07.59-2.13.88-3.18.88-.88,0-1.58-.28-2.11-.84-.53-.56-.79-1.29-.79-2.18,0-1.2.39-2.19,1.16-2.96.79-.79,1.75-1.18,2.88-1.18,1.03,0,1.97.29,2.84.88l.28-1.76ZM130.85,19.51h-3.02l.48-3h-1.82l-.48,3h-1.66l-.24,1.52h1.64l-.9,5.74c-.15.99.01,1.73.47,2.23s1.13.75,2.01.75,1.68-.15,2.32-.46l.26-1.62c-.67.29-1.32.44-1.96.44-.99,0-1.38-.63-1.18-1.9l.82-5.18h3.02l.24-1.52ZM142.09,23.75c0-1.32-.41-2.39-1.22-3.22-.8-.84-1.86-1.26-3.18-1.26-1.67,0-3.09.58-4.26,1.74-1.19,1.16-1.78,2.58-1.78,4.26,0,1.31.4,2.38,1.2,3.22.81.84,1.87,1.26,3.18,1.26,1.68,0,3.11-.58,4.28-1.74,1.19-1.16,1.78-2.58,1.78-4.26Z"/></g></svg>