<?xml version="1.0" encoding="UTF-8"?><svg id="Capa_2" xmlns="http://www.w3.org/2000/svg" viewBox="0 0 134 31.22"><defs><style>.cls-1{fill:#000;stroke-width:0px;}</style></defs><g id="Capa_1-2"><path class="cls-1" d="M60.92,16.69c0,.73-.25,1.37-.74,1.92-.48.56-1.07.84-1.78.84-.41,0-.75-.12-1-.35s-.38-.54-.38-.93c0-.63.34-1.08,1.01-1.36s1.64-.32,2.89-.12ZM77.94,12.59c-.57,0-1.04.18-1.41.54-.37.36-.55.81-.55,1.36s.18.99.55,1.34.84.52,1.41.52,1.08-.17,1.44-.52.54-.79.54-1.34-.18-1.02-.55-1.37c-.37-.35-.84-.53-1.43-.53ZM75.8,22.57c0,.44.22.78.65,1.02s1.02.36,1.75.36c.77,0,1.39-.13,1.86-.39.47-.26.7-.6.7-1.03,0-.95-.89-1.42-2.68-1.42-.65,0-1.2.14-1.63.42-.43.28-.65.63-.65,1.04ZM29.52,12.79c-.67,0-1.22.22-1.66.67-.44.45-.69,1.02-.76,1.71h4.68c.01-.69-.18-1.26-.59-1.71-.41-.45-.96-.67-1.67-.67ZM15.06,8.81h-1.84v10.16h1.9c1.61,0,2.89-.47,3.84-1.4.96-.93,1.44-2.16,1.44-3.68s-.49-2.73-1.46-3.66c-.97-.95-2.27-1.42-3.88-1.42ZM87.47,16.81c-.67.28-1.01.73-1.01,1.36,0,.39.13.7.38.93s.59.35,1,.35c.71,0,1.3-.28,1.78-.84.49-.55.74-1.19.74-1.92-1.25-.2-2.22-.16-2.89.12ZM134,15.61c0,8.62-6.99,15.61-15.61,15.61H15.61C6.99,31.22,0,24.23,0,15.61S6.99,0,15.61,0h102.78c8.62,0,15.61,6.99,15.61,15.61ZM22.94,13.89c0-2.15-.72-3.88-2.16-5.2-1.41-1.33-3.31-2-5.7-2h-4.38v14.4h4.44c2.35,0,4.23-.66,5.66-1.98,1.43-1.35,2.14-3.09,2.14-5.22ZM34.14,15.51c0-1.32-.41-2.43-1.22-3.32-.8-.91-1.92-1.36-3.36-1.36s-2.6.5-3.56,1.5c-.96,1-1.44,2.25-1.44,3.76s.5,2.81,1.5,3.8c.99.97,2.31,1.46,3.96,1.46,1.52,0,2.76-.26,3.72-.78v-2.14c-.37.24-.89.44-1.56.6-.67.16-1.33.24-1.98.24-.92,0-1.66-.24-2.22-.71-.56-.47-.85-1.13-.88-1.97h6.98l.04-.44c.01-.29.02-.51.02-.64ZM43.08,18.41c0-.83-.25-1.47-.74-1.94s-1.33-.89-2.52-1.26c-.65-.2-1.12-.4-1.4-.59-.28-.19-.42-.44-.42-.75,0-.45.31-.77.92-.94.23-.05.55-.08.98-.08.91.04,1.77.28,2.58.72v-2.14c-.92-.4-1.93-.6-3.02-.6s-2,.27-2.68.81c-.68.54-1.02,1.25-1.02,2.13s.25,1.5.74,1.98c.49.48,1.28.89,2.36,1.22.76.24,1.28.45,1.56.64.28.19.42.43.42.74,0,.69-.57,1.04-1.7,1.04-1.05,0-2.15-.29-3.28-.88v2.18c.99.44,2.1.66,3.34.66s2.15-.26,2.84-.78c.69-.52,1.04-1.24,1.04-2.16ZM53,18.35c-.89.57-1.84.86-2.84.86-.91,0-1.64-.29-2.21-.86s-.85-1.33-.85-2.26.28-1.69.85-2.26,1.3-.86,2.21-.86c1.03,0,1.95.29,2.78.86v-2.24c-.99-.51-2-.76-3.04-.76-1.57,0-2.85.5-3.82,1.5-.97.97-1.46,2.23-1.46,3.76s.49,2.79,1.46,3.78c.99.99,2.26,1.48,3.82,1.48,1.07,0,2.1-.26,3.1-.78v-2.22ZM63.4,14.75c0-1.28-.37-2.25-1.11-2.92-.74-.67-1.84-1-3.31-1s-2.71.24-3.6.72v2.2c.89-.56,1.97-.84,3.22-.84,1.59,0,2.38.65,2.38,1.96v.38c-1.95-.27-3.48-.12-4.6.44-1.13.56-1.7,1.45-1.7,2.68,0,.92.3,1.65.89,2.18s1.36.8,2.29.8c.87,0,1.59-.24,2.18-.72.57-.49.94-.94,1.1-1.34h.04l-.04.76.04,1.04h2.22v-6.34ZM72.1,10.89c-.12-.04-.33-.06-.62-.06-.64,0-1.22.19-1.75.57s-.96.9-1.29,1.57v-.7c0-.07-.01-.46-.04-1.18h-2.24v10h2.44v-4.3c0-.96.27-1.81.82-2.54.53-.72,1.23-1.08,2.08-1.08.09,0,.19,0,.28.02.09.01.17.03.24.04l.08.02v-2.36ZM83.28,11.09h-3.68c-.47-.17-1.02-.26-1.66-.26-1.17,0-2.17.33-3,1-.8.65-1.2,1.52-1.2,2.6,0,.75.21,1.4.63,1.97.42.57,1,.99,1.73,1.27-.47.15-.83.35-1.09.62-.26.27-.39.56-.39.88,0,.72.49,1.16,1.48,1.32-.77.16-1.41.46-1.9.9s-.74.94-.74,1.5c0,.84.43,1.49,1.28,1.96s1.99.7,3.42.7c1.52,0,2.73-.29,3.64-.86.92-.56,1.38-1.34,1.38-2.34,0-.87-.32-1.53-.96-1.98-.64-.45-1.65-.76-3.02-.92-.83-.09-1.4-.2-1.73-.31s-.49-.27-.49-.47c0-.17.15-.33.45-.47.3-.14.67-.23,1.11-.27,1.03-.09,1.88-.46,2.56-1.1.67-.64,1-1.44,1-2.4,0-.63-.22-1.18-.66-1.66.2.05.39.08.56.08h1.28v-1.76ZM92.84,14.75c0-1.28-.37-2.25-1.11-2.92-.74-.67-1.84-1-3.31-1s-2.71.24-3.6.72v2.2c.89-.56,1.97-.84,3.22-.84,1.59,0,2.38.65,2.38,1.96v.38c-1.95-.27-3.48-.12-4.6.44-1.13.56-1.7,1.45-1.7,2.68,0,.92.3,1.65.89,2.18s1.36.8,2.29.8c.87,0,1.59-.24,2.18-.72.57-.49.94-.94,1.1-1.34h.04l-.04.76.04,1.04h2.22v-6.34ZM104.96,14.43c0-1.11.41-2.09,1.24-2.94.84-.85,1.94-1.28,3.3-1.28,1.27,0,2.45.31,3.54.92l.6-3.8c-1.11-.63-2.43-.94-3.96-.94-2.48,0-4.59.85-6.34,2.54-1.75,1.68-2.62,3.68-2.62,6,0,1.87.59,3.41,1.76,4.62,1.19,1.23,2.73,1.84,4.64,1.84,1.79,0,3.3-.3,4.54-.9l.6-3.84c-1.31.61-2.69.92-4.14.92-.97,0-1.74-.29-2.31-.88-.57-.59-.85-1.34-.85-2.26ZM124.74,11.09h-4.2l-1.4,2.64c-.03.05-.28.64-.76,1.76l-.16.4c.03-.49-.02-1.07-.14-1.72-.07-.4-.13-.72-.18-.96-.04-.24-.12-.62-.24-1.14l-.2-.98h-4.2l2.8,10h2.72l5.96-10Z"/></g></svg>