<?xml version="1.0" encoding="utf-8"?>
<!-- Generator: Adobe Illustrator 28.3.0, SVG Export Plug-In . SVG Version: 6.00 Build 0)  -->
<svg version="1.1" id="Capa_1" xmlns="http://www.w3.org/2000/svg" xmlns:xlink="http://www.w3.org/1999/xlink" x="0px" y="0px"
	 viewBox="0 0 303 166" style="enable-background:new 0 0 303 166;" xml:space="preserve">
<style type="text/css">
	.st0{fill:none;}
</style>
<path class="st0" d="M79.3,156.3c-2.3,0-4.5-0.9-6.2-2.6L2.6,83.3c-3.4-3.4-3.4-9,0-12.4L70.8,2.6c3.4-3.4,9-3.4,12.4,0
	s3.4,9,0,12.4l-62,62l64.3,64.3c3.4,3.4,3.4,9,0,12.4C83.8,155.4,81.6,156.2,79.3,156.3L79.3,156.3z"/>
<path class="st0" d="M200.4,109.9c-3.6-5.5-12.7-22.9-12.7-22.9h-7.5l-4,23h-18.7l11.9-69.8c11.9,0.6,37.8-2.6,46.8,5.2
	c14.7,11.3,5.2,34.5-11.3,39c1.7,6.6,16,30,38.7,31.2V136C215.6,134.5,205,116.9,200.4,109.9L200.4,109.9z M194.7,55.1h-9.1l-3,17.7
	h9.3C204.9,74.7,209.5,54.5,194.7,55.1z"/>
<path class="st0" d="M227.1,68.9c4.5-4.5,10.3-6.7,17.3-6.7s12.7,2.2,17.2,6.7c4.5,4.5,6.8,10.1,6.8,17c0,6.8-2.3,12.5-6.8,17
	c-4.5,4.5-10.2,6.7-17.2,6.7s-12.7-2.2-17.3-6.7c-4.5-4.5-6.7-10.1-6.7-17C220.4,79,222.6,73.4,227.1,68.9z M237.8,93.3
	c1.7,1.9,3.9,2.9,6.6,2.9s4.9-1,6.6-2.9c1.7-1.9,2.6-4.4,2.6-7.5s-0.9-5.6-2.6-7.5c-1.7-1.9-3.9-2.9-6.6-2.9s-4.9,1-6.6,2.9
	c-1.7,1.9-2.6,4.4-2.6,7.5S236,91.4,237.8,93.3z"/>
</svg>
