<?xml version="1.0" encoding="UTF-8"?><svg id="Capa_2" xmlns="http://www.w3.org/2000/svg" viewBox="0 0 423.65 422.23"><defs><style>.cls-1{fill:none;stroke:#ed8e6a;stroke-miterlimit:10;stroke-width:7px;}</style></defs><g id="Capa_1-2"><path class="cls-1" d="M10.12,420.08c-21.98-28.32,17.4-95.49,22.45-106.99,6.77-14.85,12.37-28.66,15.22-43.78,2.26-10.85,3.74-22.46,6.07-33.54,4.84-22.98,13.73-41.8,38.15-52.04,36.48-17.02,81.26-10.35,63.67-62.57-5.28-18.18-16.2-35.59-18.89-54.22-1.63-13.12,3.28-26.47,11.49-36.95,9.82-11.09,22.9-15.56,39.47-19.71,27.58-5.69,54.67-13.89,78.12,4.89,43.41,34.87,17.38,77.9,15.55,121.91-1.36,17.98,10.21,26.18,26.68,34.3,17.24,8.13,39.47,16.87,57.12,25,22.34,9.41,29.61,24.86,32.28,46.55,3.75,24.09,1.41,47.28,5.69,71.62,3.29,19.44,18.17,79.58,16.87,99.64"/></g></svg>