<?xml version="1.0" encoding="UTF-8"?><svg id="Capa_2" xmlns="http://www.w3.org/2000/svg" viewBox="0 0 674.42 562.61"><defs><style>.cls-1{fill:none;stroke:#c6a857;stroke-linecap:round;stroke-linejoin:round;stroke-width:12px;}</style></defs><g id="Capa_1-2"><path class="cls-1" d="M16.53,556.61c-34.95-37.43,27.66-126.21,35.69-141.41,10.76-19.63,19.66-37.89,24.19-57.87,3.59-14.34,5.95-29.69,9.65-44.34,7.69-30.38,21.83-55.25,60.66-68.78,58.01-22.49,129.19-13.67,101.22-82.71-8.4-24.03-25.76-47.04-30.03-71.67-2.6-17.34,5.21-34.98,18.27-48.83,15.62-14.66,36.42-20.56,62.76-26.05,43.85-7.52,86.91-18.36,124.21,6.47,69.01,46.08,27.63,102.97,24.72,161.14-2.16,23.77,16.23,34.61,42.42,45.33,27.41,10.74,62.76,22.29,90.81,33.04,35.52,12.44,47.08,32.86,51.33,61.53,5.96,31.84,2.25,62.49,9.04,94.66,5.24,25.69,28.88,105.18,26.83,131.7"/></g></svg>