<svg width="578" height="54" viewBox="0 0 578 54" fill="none" xmlns="http://www.w3.org/2000/svg">
<path d="M-2.77956e-05 53C24.0829 53 24.0829 0.999976 48.1658 0.999977C72.2487 0.999978 72.2487 53 96.3316 53C120.415 53 120.404 0.99998 144.487 0.999981C168.57 0.999982 168.57 53 192.653 53C216.736 53 216.736 0.999984 240.819 0.999985C264.902 0.999986 264.902 53 288.975 53C313.048 53 313.068 0.999988 337.151 0.999989C361.234 0.999991 361.234 53 385.317 53C409.399 53 409.399 0.999993 433.482 0.999994C457.565 0.999995 457.565 53 481.648 53C505.731 53 505.731 0.999997 529.824 0.999998C553.917 0.999999 553.907 53 578 53" stroke="#C6A857" stroke-width="2" stroke-miterlimit="10"/>
</svg>
