<svg width="248" height="45" viewBox="0 0 248 45" fill="none" xmlns="http://www.w3.org/2000/svg">
<rect width="248" height="45" rx="6" fill="#EADEC4"/>
<path d="M20.3021 7.52997L39.653 7.5C42.5886 7.5 44.9551 9.92757 44.9701 12.9396L45 32.0155C45 35.0275 42.6336 37.47 39.698 37.47L20.347 37.5C17.4114 37.5 15.0449 35.0724 15.03 32.0604L15 12.9845C15 9.97253 17.3665 7.52997 20.3021 7.52997Z" fill="#49021F"/>
<path d="M25.6387 18.481V29.5144C25.6542 29.6384 25.6077 29.6849 25.5147 29.6849H23.4227C23.3297 29.6849 23.2832 29.6384 23.2832 29.5144V18.481C23.2677 18.388 23.3142 18.3415 23.4072 18.3415H25.4992C25.4992 18.3415 25.6232 18.3725 25.6387 18.45C25.6387 18.45 25.6387 18.4655 25.6387 18.481Z" fill="#FF3366"/>
<path d="M31.8376 29.7933C31.0473 29.7933 30.257 29.6538 29.5286 29.3129C28.8468 29.0029 28.2889 28.4916 27.917 27.8562C27.5141 27.2054 27.3281 26.3841 27.3281 25.4233C27.3281 24.633 27.5141 23.8426 27.917 23.1608C28.3199 22.4635 28.9088 21.8901 29.6216 21.5027C30.3655 21.0843 31.2643 20.8828 32.3335 20.8828C32.38 20.8828 32.4575 20.8828 32.566 20.8828C32.6744 20.8828 32.7674 20.8828 32.8914 20.8983V17.5201C32.8914 17.5201 32.9224 17.3961 32.9999 17.3961H35.1694C35.1694 17.3961 35.2624 17.4271 35.2779 17.4736L35.2933 27.6858C35.2933 27.8717 35.2934 28.0887 35.3089 28.3211C35.3244 28.5535 35.3398 28.755 35.3553 28.941C35.3553 29.0184 35.3243 29.0804 35.2469 29.1114C34.689 29.3439 34.1001 29.5143 33.4958 29.6228C32.9534 29.7158 32.411 29.7778 31.8531 29.7778L31.8376 29.7933ZM32.8914 27.6548V22.9438C32.7829 22.9283 32.6899 22.8974 32.597 22.8974C32.473 22.8974 32.3645 22.8819 32.2405 22.8819C31.8221 22.8819 31.4037 22.9748 31.0318 23.1608C30.6754 23.3467 30.3655 23.6102 30.1175 23.9511C29.8696 24.292 29.7611 24.7569 29.7611 25.3148C29.7611 25.6867 29.8231 26.0586 29.947 26.415C30.0555 26.7095 30.2105 26.9574 30.4274 27.1744C30.6289 27.3603 30.8768 27.5153 31.1558 27.6083C31.4502 27.7012 31.7447 27.7477 32.0391 27.7477C32.1941 27.7477 32.349 27.7477 32.4885 27.7322C32.6279 27.7322 32.7519 27.7322 32.8759 27.6858L32.8914 27.6548Z" fill="#FF3366"/>
<path d="M58.392 29H53.808L65.184 11.48H65.4L71.208 29H66.624L65.808 26.36H60L58.392 29ZM64.056 19.28L61.752 23.408H65.04C64.576 21.744 64.248 20.368 64.056 19.28ZM82.9761 11.72H87.2481L84.5121 29H80.6481L80.6961 28.064L80.8641 27.296H80.8161C80.4641 27.872 79.9041 28.36 79.1361 28.76C78.3681 29.144 77.5761 29.336 76.7601 29.336C75.3841 29.336 74.2561 28.872 73.3761 27.944C72.4961 27.016 72.0561 25.736 72.0561 24.104C72.0561 21.88 72.7121 20.088 74.0241 18.728C75.3521 17.352 76.8961 16.664 78.6561 16.664C79.4401 16.664 80.1201 16.8 80.6961 17.072C81.2881 17.344 81.7121 17.712 81.9681 18.176H82.0161C82.0001 18.016 82.0321 17.68 82.1121 17.168L82.9761 11.72ZM79.0401 20.216C78.2401 20.216 77.5521 20.528 76.9761 21.152C76.4161 21.76 76.1361 22.536 76.1361 23.48C76.1361 24.168 76.3201 24.728 76.6881 25.16C77.0561 25.576 77.5441 25.784 78.1521 25.784C78.9201 25.784 79.6001 25.488 80.1921 24.896C80.7841 24.304 81.0801 23.512 81.0801 22.52C81.0801 21.816 80.8881 21.256 80.5041 20.84C80.1201 20.424 79.6321 20.216 79.0401 20.216ZM94.9453 16.664C96.6253 16.664 97.9773 17.176 99.0013 18.2C100.025 19.208 100.537 20.512 100.537 22.112C100.537 24.144 99.7933 25.856 98.3053 27.248C96.8493 28.64 95.0653 29.336 92.9533 29.336C91.2893 29.336 89.9373 28.832 88.8973 27.824C87.8733 26.8 87.3613 25.496 87.3613 23.912C87.3613 21.864 88.0973 20.144 89.5693 18.752C91.0253 17.36 92.8173 16.664 94.9453 16.664ZM93.5053 25.784C94.2893 25.784 94.9853 25.48 95.5933 24.872C96.1853 24.28 96.4813 23.504 96.4813 22.544C96.4813 21.84 96.2893 21.28 95.9053 20.864C95.5213 20.432 95.0173 20.216 94.3933 20.216C93.6093 20.216 92.9133 20.52 92.3053 21.128C91.7133 21.72 91.4173 22.496 91.4173 23.456C91.4173 24.16 91.6093 24.728 91.9933 25.16C92.3773 25.576 92.8813 25.784 93.5053 25.784ZM109.751 20.216C108.983 20.216 108.303 20.512 107.711 21.104C107.119 21.696 106.823 22.488 106.823 23.48C106.823 24.184 107.015 24.744 107.399 25.16C107.783 25.576 108.271 25.784 108.863 25.784C109.663 25.784 110.351 25.48 110.927 24.872C111.503 24.248 111.791 23.464 111.791 22.52C111.791 21.816 111.599 21.256 111.215 20.84C110.847 20.424 110.359 20.216 109.751 20.216ZM105.359 29H101.471L104.207 11.72H108.503L107.639 17.168L107.399 18.176H107.447C108.375 17.168 109.639 16.664 111.239 16.664C112.583 16.664 113.687 17.128 114.551 18.056C115.415 18.984 115.847 20.256 115.847 21.872C115.847 24.112 115.183 25.92 113.855 27.296C112.543 28.656 110.967 29.336 109.127 29.336C108.311 29.336 107.583 29.144 106.943 28.76C106.303 28.36 105.895 27.872 105.719 27.296H105.671C105.687 27.456 105.655 27.712 105.575 28.064L105.359 29ZM124.258 16.664C125.826 16.664 127.034 17.112 127.882 18.008C128.714 18.888 129.13 20.024 129.13 21.416C129.13 22.376 128.978 23.192 128.674 23.864H121.354C121.338 24.488 121.554 24.968 122.002 25.304C122.45 25.624 123.09 25.784 123.922 25.784C124.658 25.784 125.466 25.696 126.346 25.52C127.21 25.344 127.794 25.176 128.098 25.016L127.546 28.592C126.458 29.088 124.93 29.336 122.962 29.336C121.106 29.336 119.634 28.84 118.546 27.848C117.49 26.872 116.962 25.568 116.962 23.936C116.962 21.904 117.682 20.184 119.122 18.776C120.546 17.368 122.258 16.664 124.258 16.664ZM121.642 21.896H125.074C125.17 21.304 125.098 20.832 124.858 20.48C124.634 20.128 124.25 19.952 123.706 19.952C123.178 19.952 122.722 20.136 122.338 20.504C121.97 20.856 121.738 21.32 121.642 21.896ZM139.186 11.72V29H136.882V11.72H139.186ZM143.653 29V17H145.741L145.789 18.68C145.789 19.176 145.757 19.48 145.693 19.592H145.741C146.029 18.888 146.581 18.24 147.397 17.648C148.213 17.024 149.189 16.712 150.325 16.712C153.061 16.712 154.429 18.296 154.429 21.464V29H152.197V21.92C152.197 20.944 152.037 20.176 151.717 19.616C151.413 19.056 150.813 18.776 149.917 18.776C148.749 18.776 147.781 19.192 147.013 20.024C146.261 20.856 145.885 21.88 145.885 23.096V29H143.653ZM163.602 29H158.538V11.72H163.506C166.258 11.72 168.49 12.512 170.202 14.096C171.898 15.68 172.746 17.768 172.746 20.36C172.746 22.952 171.906 25.04 170.226 26.624C168.562 28.208 166.354 29 163.602 29ZM163.482 13.664H160.842V27.056H163.578C165.594 27.056 167.234 26.44 168.498 25.208C169.762 23.992 170.394 22.376 170.394 20.36C170.394 18.344 169.762 16.728 168.498 15.512C167.218 14.28 165.546 13.664 163.482 13.664ZM180.868 16.712C182.565 16.712 183.893 17.256 184.853 18.344C185.813 19.432 186.293 20.752 186.293 22.304C186.293 22.448 186.285 22.68 186.269 23C186.253 23.304 186.245 23.464 186.245 23.48H177.317V23.504C177.349 24.688 177.741 25.624 178.493 26.312C179.245 27 180.245 27.344 181.493 27.344C183.205 27.344 184.653 26.968 185.837 26.216V28.256C184.621 28.944 183.125 29.288 181.349 29.288C179.445 29.288 177.909 28.704 176.741 27.536C175.573 26.368 174.989 24.856 174.989 23C174.989 21.176 175.549 19.68 176.669 18.512C177.805 17.312 179.205 16.712 180.868 16.712ZM177.34 21.896H184.085C184.101 20.952 183.813 20.168 183.221 19.544C182.629 18.904 181.837 18.584 180.845 18.584C179.901 18.584 179.101 18.904 178.445 19.544C177.805 20.168 177.437 20.952 177.34 21.896ZM194.87 25.88C194.87 25.416 194.678 25.048 194.294 24.776C193.926 24.504 193.23 24.2 192.206 23.864C190.958 23.464 190.038 22.984 189.446 22.424C188.87 21.848 188.582 21.072 188.582 20.096C188.582 19.104 188.982 18.296 189.782 17.672C190.582 17.032 191.614 16.712 192.878 16.712C194.094 16.712 195.222 16.952 196.262 17.432V19.448C195.19 18.888 194.142 18.608 193.118 18.608C192.382 18.608 191.79 18.744 191.342 19.016C190.894 19.288 190.67 19.672 190.67 20.168C190.67 20.6 190.854 20.96 191.222 21.248C191.606 21.52 192.246 21.808 193.142 22.112C194.518 22.56 195.494 23.064 196.07 23.624C196.646 24.184 196.934 24.944 196.934 25.904C196.934 26.96 196.542 27.792 195.758 28.4C194.974 28.992 193.91 29.288 192.566 29.288C191.062 29.288 189.758 29.024 188.654 28.496V26.456C190.014 27.112 191.294 27.44 192.494 27.44C193.214 27.44 193.79 27.312 194.222 27.056C194.654 26.784 194.87 26.392 194.87 25.88ZM200.161 29V17H202.393V29H200.161ZM199.873 13.52C199.873 13.104 200.001 12.776 200.257 12.536C200.513 12.28 200.849 12.152 201.265 12.152C201.681 12.152 202.017 12.28 202.273 12.536C202.529 12.792 202.657 13.12 202.657 13.52C202.657 13.92 202.529 14.248 202.273 14.504C202.017 14.744 201.681 14.864 201.265 14.864C200.849 14.864 200.513 14.744 200.257 14.504C200.001 14.248 199.873 13.92 199.873 13.52ZM209.194 26.096C209.194 26.384 209.386 26.6 209.77 26.744C210.154 26.872 210.906 27 212.026 27.128C213.658 27.32 214.858 27.68 215.626 28.208C216.41 28.736 216.802 29.52 216.802 30.56C216.802 31.696 216.274 32.592 215.218 33.248C214.162 33.92 212.77 34.256 211.042 34.256C209.346 34.256 208.002 33.968 207.01 33.392C206.034 32.832 205.546 32.04 205.546 31.016C205.546 30.344 205.858 29.728 206.482 29.168C207.106 28.624 207.898 28.256 208.858 28.064C208.282 27.984 207.826 27.808 207.49 27.536C207.17 27.264 207.01 26.928 207.01 26.528C207.01 26.176 207.154 25.848 207.442 25.544C207.746 25.24 208.154 25.008 208.666 24.848C207.786 24.528 207.09 24.024 206.578 23.336C206.082 22.648 205.834 21.856 205.834 20.96C205.834 19.712 206.298 18.696 207.226 17.912C208.17 17.112 209.33 16.712 210.706 16.712C211.426 16.712 212.058 16.808 212.602 17H216.97V18.68H215.314L214.642 18.584L214.498 18.56C215.202 19.216 215.554 20.016 215.554 20.96C215.554 22.128 215.138 23.096 214.306 23.864C213.474 24.648 212.426 25.072 211.162 25.136H211.138C210.594 25.184 210.13 25.304 209.746 25.496C209.378 25.672 209.194 25.872 209.194 26.096ZM210.706 23.576C211.538 23.576 212.21 23.336 212.722 22.856C213.25 22.376 213.514 21.76 213.514 21.008C213.514 20.256 213.25 19.64 212.722 19.16C212.21 18.664 211.538 18.416 210.706 18.416C209.89 18.416 209.218 18.664 208.69 19.16C208.178 19.64 207.922 20.256 207.922 21.008C207.922 21.76 208.178 22.376 208.69 22.856C209.218 23.336 209.89 23.576 210.706 23.576ZM211.066 32.672C212.122 32.672 212.97 32.488 213.61 32.12C214.25 31.768 214.57 31.296 214.57 30.704C214.57 29.392 213.346 28.736 210.898 28.736C209.986 28.736 209.226 28.928 208.618 29.312C208.01 29.712 207.706 30.192 207.706 30.752C207.706 31.36 208.002 31.832 208.594 32.168C209.202 32.504 210.026 32.672 211.066 32.672ZM219.614 29V17H221.702L221.75 18.68C221.75 19.176 221.718 19.48 221.654 19.592H221.702C221.99 18.888 222.542 18.24 223.358 17.648C224.174 17.024 225.15 16.712 226.286 16.712C229.022 16.712 230.39 18.296 230.39 21.464V29H228.158V21.92C228.158 20.944 227.998 20.176 227.678 19.616C227.374 19.056 226.774 18.776 225.878 18.776C224.71 18.776 223.742 19.192 222.974 20.024C222.222 20.856 221.846 21.88 221.846 23.096V29H219.614Z" fill="black"/>
</svg>
