<svg width="176" height="45" viewBox="0 0 176 45" fill="none" xmlns="http://www.w3.org/2000/svg">
<rect width="175.498" height="45" rx="6" fill="#EADEC4"/>
<path d="M43.4822 13.7445L33.3939 7.93333C33.3939 7.93333 31.7823 7.00354 29.2564 7.00354C26.7304 7.00354 25.0723 7.96432 25.0723 7.96432L15.7124 13.3106L29.9227 21.4772V37.9809L39.2826 32.6346C39.2826 32.6346 40.9563 31.7049 42.227 29.5199C43.3427 27.5983 43.4977 25.7232 43.4977 25.7232V13.7445H43.4822ZM28.2801 16.4254C28.2801 16.4254 30.3566 16.038 32.1387 17.0452C33.8898 18.0525 34.9436 18.6724 34.9436 18.6724V22.2055C34.9436 23.8947 33.5024 25.6457 33.5024 25.6457V19.4317L28.2801 16.4254ZM36.5398 30.0622L33.5024 31.7978V30.1552L35.8734 28.807C38.1359 27.1799 38.5078 24.7779 38.5078 23.9566V16.5958L32.0303 12.8767C32.0303 12.8767 31.054 12.2413 29.2719 12.2413C27.4898 12.2413 26.5445 12.8302 26.5445 12.8302L24.282 14.1319L22.8408 13.3106L25.9866 11.513C25.9866 11.513 27.2263 10.8312 29.2719 10.8312C31.1625 10.8312 32.6346 11.575 32.6346 11.575L39.9335 15.79V23.8327C39.98 25.0724 39.3911 28.0942 36.5553 30.0777H36.5398V30.0622Z" fill="#01609F"/>
<path d="M15 18.6569L24.9643 24.375V26.0796L19.2925 22.8409L15.7283 24.8709L24.9488 30.2017V31.8443L15.062 26.1416C15.093 26.808 15.6819 28.869 16.8596 30.4496C18.0218 32.0613 19.37 32.7431 19.37 32.7431L28.513 37.9964V22.2985L15 14.5658V18.6723V18.6569Z" fill="#01609F"/>
<path d="M58.762 29.336C56.73 29.336 55.034 29.024 53.674 28.4L54.346 24.176C55.578 24.88 56.874 25.296 58.234 25.424C58.602 25.472 59.05 25.48 59.578 25.448C61.194 25.352 62.002 24.904 62.002 24.104C62.002 23.736 61.81 23.424 61.426 23.168C61.042 22.912 60.282 22.552 59.146 22.088C57.738 21.528 56.714 20.904 56.074 20.216C55.45 19.512 55.138 18.6 55.138 17.48C55.138 15.656 55.834 14.184 57.226 13.064C58.602 11.944 60.394 11.384 62.602 11.384C64.394 11.384 65.89 11.656 67.09 12.2L66.442 16.256C65.402 15.536 64.042 15.176 62.362 15.176C61.514 15.176 60.826 15.32 60.298 15.608C59.786 15.896 59.53 16.264 59.53 16.712C59.53 17.048 59.73 17.368 60.13 17.672C60.546 17.976 61.242 18.344 62.218 18.776C63.674 19.4 64.722 20.056 65.362 20.744C66.018 21.432 66.346 22.336 66.346 23.456C66.346 25.264 65.674 26.696 64.33 27.752C62.986 28.808 61.13 29.336 58.762 29.336ZM76.9638 17H82.0518L76.9638 22.304L78.0198 24.608C78.3398 25.36 78.8358 25.736 79.5078 25.736C79.8598 25.736 80.2518 25.664 80.6838 25.52L80.1318 28.928C79.5558 29.2 78.7878 29.336 77.8278 29.336C76.9318 29.336 76.2198 29.152 75.6918 28.784C75.1638 28.416 74.7238 27.816 74.3718 26.984L73.3878 24.632L72.1878 25.976L71.7078 29H67.5078L70.2438 11.72H74.5398L73.0518 21.152L76.9638 17ZM88.4439 16.664C90.0119 16.664 91.2199 17.112 92.0679 18.008C92.8999 18.888 93.3159 20.024 93.3159 21.416C93.3159 22.376 93.1639 23.192 92.8599 23.864H85.5399C85.5239 24.488 85.7399 24.968 86.1879 25.304C86.6359 25.624 87.2759 25.784 88.1079 25.784C88.8439 25.784 89.6519 25.696 90.5319 25.52C91.3959 25.344 91.9799 25.176 92.2839 25.016L91.7319 28.592C90.6439 29.088 89.1159 29.336 87.1479 29.336C85.2919 29.336 83.8199 28.84 82.7319 27.848C81.6759 26.872 81.1479 25.568 81.1479 23.936C81.1479 21.904 81.8679 20.184 83.3079 18.776C84.7319 17.368 86.4439 16.664 88.4439 16.664ZM85.8279 21.896H89.2599C89.3559 21.304 89.2839 20.832 89.0439 20.48C88.8199 20.128 88.4359 19.952 87.8919 19.952C87.3639 19.952 86.9079 20.136 86.5239 20.504C86.1559 20.856 85.9239 21.32 85.8279 21.896ZM94.7874 20.312L95.3154 17H96.8754L97.4514 13.4H101.603L101.027 17H104.003L103.475 20.312H100.499L99.8514 24.416C99.7714 24.88 99.8434 25.232 100.067 25.472C100.291 25.712 100.627 25.832 101.075 25.832C101.635 25.832 102.299 25.672 103.067 25.352L102.515 28.808C101.763 29.16 100.667 29.336 99.2274 29.336C98.0754 29.336 97.1634 29.064 96.4914 28.52C95.8194 27.976 95.4754 27.152 95.4594 26.048C95.4754 25.552 95.5154 25.128 95.5794 24.776L96.2754 20.312H94.7874ZM110.425 27.296C111.689 27.296 112.905 26.944 114.073 26.24V28.328C112.889 28.968 111.633 29.288 110.305 29.288C108.481 29.288 106.977 28.696 105.793 27.512C104.625 26.344 104.041 24.84 104.041 23C104.041 21.16 104.625 19.656 105.793 18.488C106.977 17.304 108.481 16.712 110.305 16.712C111.585 16.712 112.817 17.024 114.001 17.648V19.76C112.865 19.056 111.673 18.704 110.425 18.704C109.225 18.704 108.241 19.104 107.473 19.904C106.705 20.688 106.321 21.72 106.321 23C106.321 24.264 106.697 25.296 107.449 26.096C108.217 26.896 109.209 27.296 110.425 27.296ZM119.492 29H117.26V11.72H119.468V18.392C119.468 18.504 119.46 18.656 119.444 18.848C119.444 19.04 119.436 19.208 119.42 19.352C119.404 19.496 119.396 19.576 119.396 19.592H119.42C119.772 18.872 120.324 18.216 121.076 17.624C121.86 17.016 122.812 16.712 123.932 16.712C126.668 16.712 128.036 18.296 128.036 21.464V29H125.804V21.92C125.804 20.944 125.644 20.176 125.324 19.616C125.02 19.056 124.42 18.776 123.524 18.776C122.356 18.776 121.388 19.192 120.62 20.024C119.868 20.856 119.492 21.88 119.492 23.096V29ZM142.228 17V29H140.14L140.092 27.32C140.092 27.144 140.116 26.888 140.164 26.552L140.188 26.408H140.14C139.868 27.08 139.324 27.736 138.508 28.376C137.708 28.984 136.764 29.288 135.676 29.288C132.94 29.288 131.572 27.704 131.572 24.536V17H133.804V24.08C133.804 25.056 133.956 25.824 134.26 26.384C134.58 26.944 135.188 27.224 136.084 27.224C137.204 27.224 138.14 26.816 138.892 26C139.628 25.168 139.996 24.136 139.996 22.904V17H142.228ZM148.86 34.28H146.628V17H148.692L148.74 18.248L148.668 19.136H148.716C149.068 18.464 149.628 17.896 150.396 17.432C151.18 16.952 152.036 16.712 152.964 16.712C154.564 16.712 155.892 17.304 156.948 18.488C158.004 19.672 158.532 21.176 158.532 23C158.532 24.856 158.004 26.368 156.948 27.536C155.924 28.704 154.612 29.288 153.012 29.288C152.116 29.288 151.284 29.064 150.516 28.616C149.748 28.168 149.188 27.608 148.836 26.936H148.788C148.836 27.176 148.86 27.504 148.86 27.92V34.28ZM152.652 27.344C153.74 27.344 154.636 26.944 155.34 26.144C156.028 25.344 156.372 24.296 156.372 23C156.372 21.72 156.028 20.68 155.34 19.88C154.652 19.064 153.756 18.656 152.652 18.656C151.644 18.656 150.764 19.032 150.012 19.784C149.26 20.536 148.884 21.608 148.884 23C148.884 24.392 149.26 25.464 150.012 26.216C150.764 26.968 151.644 27.344 152.652 27.344Z" fill="black"/>
</svg>
