<svg width="169" height="45" viewBox="0 0 169 45" fill="none" xmlns="http://www.w3.org/2000/svg">
<rect width="169" height="45" rx="6" fill="#EADEC4"/>
<path fill-rule="evenodd" clip-rule="evenodd" d="M44.985 12.0168L35.415 33H26.43L30.435 24.3005H30.255C26.955 29.113 22.02 32.2764 15 33V24.4183C15 24.4183 19.5 24.1154 22.14 21.0024H15V12H23.025V19.4038H23.205L26.49 12H32.55V19.3534H32.73L36.135 12H45L44.985 12.0168Z" fill="#146EF5"/>
<path d="M61.968 29.24L56.616 11.72H61.536L62.856 16.904C63.208 18.232 63.464 19.392 63.624 20.384L64.968 18.152L66.096 16.304L68.928 11.768H69.12L70.008 14.6C70.872 17.368 71.424 19.296 71.664 20.384C71.84 20.128 72.224 19.472 72.816 18.416L74.976 14.504C75.904 12.84 76.424 11.912 76.536 11.72H81.456L70.512 29.24H70.296L68.16 22.352L67.632 20.576C67.632 20.592 67.472 20.848 67.152 21.344C66.944 21.712 66.736 22.048 66.528 22.352L62.184 29.24H61.968ZM85.188 16.664C86.756 16.664 87.964 17.112 88.812 18.008C89.644 18.888 90.06 20.024 90.06 21.416C90.06 22.376 89.908 23.192 89.604 23.864H82.284C82.268 24.488 82.484 24.968 82.932 25.304C83.38 25.624 84.02 25.784 84.852 25.784C85.588 25.784 86.396 25.696 87.276 25.52C88.14 25.344 88.724 25.176 89.028 25.016L88.476 28.592C87.388 29.088 85.86 29.336 83.892 29.336C82.036 29.336 80.564 28.84 79.476 27.848C78.42 26.872 77.892 25.568 77.892 23.936C77.892 21.904 78.612 20.184 80.052 18.776C81.476 17.368 83.188 16.664 85.188 16.664ZM82.572 21.896H86.004C86.1 21.304 86.028 20.832 85.788 20.48C85.564 20.128 85.18 19.952 84.636 19.952C84.108 19.952 83.652 20.136 83.268 20.504C82.9 20.856 82.668 21.32 82.572 21.896ZM99.1569 20.216C98.3889 20.216 97.7089 20.512 97.1169 21.104C96.5249 21.696 96.2289 22.488 96.2289 23.48C96.2289 24.184 96.4209 24.744 96.8049 25.16C97.1889 25.576 97.6769 25.784 98.2689 25.784C99.0689 25.784 99.7569 25.48 100.333 24.872C100.909 24.248 101.197 23.464 101.197 22.52C101.197 21.816 101.005 21.256 100.621 20.84C100.253 20.424 99.7649 20.216 99.1569 20.216ZM94.7649 29H90.8769L93.6129 11.72H97.9089L97.0449 17.168L96.8049 18.176H96.8529C97.7809 17.168 99.0449 16.664 100.645 16.664C101.989 16.664 103.093 17.128 103.957 18.056C104.821 18.984 105.253 20.256 105.253 21.872C105.253 24.112 104.589 25.92 103.261 27.296C101.949 28.656 100.373 29.336 98.5329 29.336C97.7169 29.336 96.9889 29.144 96.3489 28.76C95.7089 28.36 95.3009 27.872 95.1249 27.296H95.0769C95.0929 27.456 95.0609 27.712 94.9809 28.064L94.7649 29ZM105.486 18.824V17H107.334V15.656C107.334 14.36 107.718 13.336 108.486 12.584C109.27 11.816 110.334 11.432 111.678 11.432C112.27 11.432 112.758 11.48 113.142 11.576V13.52C112.758 13.424 112.342 13.376 111.894 13.376C111.11 13.376 110.502 13.592 110.07 14.024C109.638 14.44 109.422 15.048 109.422 15.848V17H112.614V18.824H109.494V29H107.262V18.824H105.486ZM115.082 25.928V11.72H117.314V25.472C117.314 26.112 117.418 26.576 117.626 26.864C117.85 27.152 118.21 27.296 118.706 27.296C119.122 27.296 119.474 27.248 119.762 27.152V29.072C119.33 29.216 118.794 29.288 118.154 29.288C117.178 29.288 116.418 29.008 115.874 28.448C115.346 27.888 115.082 27.048 115.082 25.928ZM127.672 16.712C129.464 16.712 130.944 17.312 132.112 18.512C133.28 19.68 133.864 21.176 133.864 23C133.864 24.824 133.28 26.328 132.112 27.512C130.928 28.696 129.448 29.288 127.672 29.288C125.912 29.288 124.44 28.696 123.256 27.512C122.088 26.328 121.504 24.824 121.504 23C121.504 21.176 122.088 19.68 123.256 18.512C124.44 17.312 125.912 16.712 127.672 16.712ZM127.672 27.344C128.856 27.344 129.816 26.936 130.552 26.12C131.32 25.304 131.704 24.264 131.704 23C131.704 21.736 131.32 20.696 130.552 19.88C129.816 19.064 128.856 18.656 127.672 18.656C126.52 18.656 125.56 19.064 124.792 19.88C124.04 20.712 123.664 21.752 123.664 23C123.664 24.248 124.04 25.288 124.792 26.12C125.56 26.936 126.52 27.344 127.672 27.344ZM143.711 17.168H144.935L147.959 25.712L151.247 17H153.599L148.559 29.288H147.335L144.311 21.104L141.287 29.288H140.063L135.023 17H137.399L140.663 25.712L143.711 17.168Z" fill="black"/>
</svg>
