<svg width="154" height="45" viewBox="0 0 154 45" fill="none" xmlns="http://www.w3.org/2000/svg">
<rect width="153.32" height="45" rx="6" fill="#EADEC4"/>
<path d="M17.4794 34.8971L15 7.00354H42.3204L39.841 34.8816L28.637 37.9964" fill="#E44E28"/>
<path d="M28.6685 35.6257V9.29724H39.8415L37.7184 33.1152" fill="#EC662B"/>
<path d="M20.0522 12.6908H28.6373V16.1H23.8024L24.1278 19.6022H28.6373V23.0114H20.9975M21.1525 24.747H24.5772L24.8097 27.4899L28.6218 28.5282V32.0923L21.6019 30.1398" fill="#EBEBEB"/>
<path d="M37.2068 12.6908H28.6372V16.1H36.8969M36.6024 19.6022H28.6527V23.0114H32.8833L32.4803 27.4589L28.6682 28.4972V32.0458L35.6881 30.1088" fill="white"/>
<path d="M70.9283 11.72L68.1923 29H63.7763L64.8803 22.064H58.4963L57.3923 29H53.0003L55.7363 11.72H60.1283L59.0723 18.392H65.4563L66.5123 11.72H70.9283ZM87.4283 11.72L86.8523 15.416H82.2443L80.0843 29H75.6683L77.8283 15.416H73.2203L73.7963 11.72H87.4283ZM100.555 21.152L96.8586 24.224L94.1226 21.152L93.1386 20.216L91.7466 29H87.5706L90.3546 11.48H90.4506L97.6506 19.136L107.299 11.48H107.419L104.635 29H100.411L101.803 20.216L100.555 21.152ZM120.13 25.304L119.554 29H108.922L111.658 11.72H116.05L113.89 25.304H120.13ZM127.096 28.16V26.048C128.168 26.832 129.464 27.224 130.984 27.224C132.168 27.224 133.128 26.896 133.864 26.24C134.6 25.584 134.968 24.712 134.968 23.624C134.968 22.568 134.584 21.72 133.816 21.08C133.064 20.44 132.096 20.12 130.912 20.12C129.648 20.12 128.512 20.352 127.504 20.816L127.864 11.72H136.288V13.712H129.904L129.712 18.464C130.272 18.256 130.936 18.152 131.704 18.152C133.32 18.152 134.664 18.68 135.736 19.736C136.808 20.76 137.344 22.12 137.344 23.816C137.344 25.48 136.768 26.808 135.616 27.8C134.48 28.792 133.008 29.288 131.2 29.288C129.584 29.288 128.216 28.912 127.096 28.16Z" fill="black"/>
</svg>
