<svg width="134" height="45" viewBox="0 0 134 45" fill="none" xmlns="http://www.w3.org/2000/svg">
<rect width="133.443" height="45" rx="6" fill="#EADEC4"/>
<path d="M31.9648 22.488C31.9648 23.7267 30.9606 24.7308 29.7219 24.7308C28.4832 24.7308 27.479 23.7267 27.479 22.488C27.479 21.2493 28.4832 20.2451 29.7219 20.2451C30.9606 20.2451 31.9648 21.2493 31.9648 22.488Z" fill="#397C97" stroke="#397C97"/>
<path d="M29.7217 28.1129C37.8523 28.1129 44.4434 25.5945 44.4434 22.4877C44.4434 19.381 37.8523 16.8625 29.7217 16.8625C21.5911 16.8625 15 19.381 15 22.4877C15 25.5945 21.5911 28.1129 29.7217 28.1129Z" stroke="#397C97"/>
<path d="M37.0845 35.2407C39.775 33.6873 38.6606 26.72 34.5953 19.6788C30.53 12.6375 25.0533 8.18873 22.3628 9.74209C19.6723 11.2954 20.7868 18.2627 24.8521 25.304C28.9174 32.3452 34.394 36.794 37.0845 35.2407Z" stroke="#397C97"/>
<path d="M34.5948 25.3213C38.6601 18.2801 39.7746 11.3128 37.084 9.75947C34.3935 8.20611 28.9169 12.6549 24.8516 19.6961C20.7863 26.7374 19.6718 33.7047 22.3623 35.258C25.0528 36.8114 30.5295 32.3626 34.5948 25.3213Z" stroke="#397C97"/>
<path d="M62.9234 26.024L62.0594 23.312H60.3314L59.4194 29H55.1234L57.8594 11.72H64.0514C66.0034 11.72 67.5314 12.152 68.6354 13.016C69.7394 13.88 70.2914 15.104 70.2914 16.688C70.2914 18.112 69.9154 19.336 69.1634 20.36C68.4114 21.368 67.3714 22.136 66.0434 22.664L66.5234 24.344C66.7794 25.32 67.3794 25.808 68.3234 25.808C68.3874 25.808 68.5954 25.792 68.9474 25.76L68.4194 29.144C67.9074 29.272 67.3394 29.336 66.7154 29.336C65.7394 29.336 64.9554 29.088 64.3634 28.592C63.7714 28.08 63.2914 27.224 62.9234 26.024ZM63.6674 15.416H61.5794L60.8834 19.808H63.0194C63.8674 19.808 64.5394 19.592 65.0354 19.16C65.5474 18.712 65.8034 18.072 65.8034 17.24C65.8034 16.648 65.6114 16.2 65.2274 15.896C64.8434 15.576 64.3234 15.416 63.6674 15.416ZM77.3892 16.664C78.9572 16.664 80.1652 17.112 81.0132 18.008C81.8452 18.888 82.2612 20.024 82.2612 21.416C82.2612 22.376 82.1092 23.192 81.8052 23.864H74.4852C74.4692 24.488 74.6852 24.968 75.1332 25.304C75.5812 25.624 76.2212 25.784 77.0532 25.784C77.7892 25.784 78.5972 25.696 79.4772 25.52C80.3412 25.344 80.9252 25.176 81.2292 25.016L80.6772 28.592C79.5892 29.088 78.0612 29.336 76.0932 29.336C74.2372 29.336 72.7652 28.84 71.6772 27.848C70.6212 26.872 70.0932 25.568 70.0932 23.936C70.0932 21.904 70.8132 20.184 72.2532 18.776C73.6772 17.368 75.3892 16.664 77.3892 16.664ZM74.7732 21.896H78.2052C78.3012 21.304 78.2292 20.832 77.9892 20.48C77.7652 20.128 77.3812 19.952 76.8372 19.952C76.3092 19.952 75.8532 20.136 75.4692 20.504C75.1012 20.856 74.8692 21.32 74.7732 21.896ZM90.3897 20.216C89.5897 20.216 88.9017 20.528 88.3257 21.152C87.7657 21.76 87.4857 22.536 87.4857 23.48C87.4857 24.168 87.6697 24.728 88.0377 25.16C88.4057 25.576 88.8937 25.784 89.5017 25.784C90.2697 25.784 90.9497 25.488 91.5417 24.896C92.1337 24.304 92.4297 23.512 92.4297 22.52C92.4297 21.816 92.2377 21.256 91.8537 20.84C91.4697 20.424 90.9817 20.216 90.3897 20.216ZM93.8937 17H97.7577L95.8617 29H91.9977L92.0457 28.064L92.2137 27.296H92.1657C91.8137 27.888 91.2537 28.376 90.4857 28.76C89.7177 29.144 88.9017 29.336 88.0377 29.336C86.6777 29.336 85.5657 28.872 84.7017 27.944C83.8377 27.016 83.4057 25.736 83.4057 24.104C83.4057 21.864 84.0617 20.064 85.3737 18.704C86.6857 17.344 88.2617 16.664 90.1017 16.664C90.9177 16.664 91.6457 16.856 92.2857 17.24C92.9417 17.608 93.3577 18.08 93.5337 18.656H93.5817C93.5657 18.448 93.5897 18.192 93.6537 17.888L93.8937 17ZM103.079 23.432C103.079 24.12 103.295 24.664 103.727 25.064C104.159 25.448 104.751 25.64 105.503 25.64C106.031 25.64 106.599 25.536 107.207 25.328C107.815 25.12 108.287 24.904 108.623 24.68L107.999 28.496C106.783 29.056 105.535 29.336 104.255 29.336C102.543 29.336 101.191 28.84 100.199 27.848C99.2069 26.824 98.7109 25.528 98.7109 23.96C98.7109 21.896 99.4229 20.168 100.847 18.776C102.255 17.368 104.055 16.664 106.247 16.664C107.543 16.664 108.687 16.936 109.679 17.48L109.079 21.32C108.791 21.064 108.383 20.84 107.855 20.648C107.343 20.456 106.839 20.36 106.343 20.36C105.415 20.36 104.639 20.648 104.015 21.224C103.391 21.8 103.079 22.536 103.079 23.432ZM110.311 20.312L110.839 17H112.399L112.975 13.4H117.127L116.551 17H119.527L118.999 20.312H116.023L115.375 24.416C115.295 24.88 115.367 25.232 115.591 25.472C115.815 25.712 116.151 25.832 116.599 25.832C117.159 25.832 117.823 25.672 118.591 25.352L118.039 28.808C117.287 29.16 116.191 29.336 114.751 29.336C113.599 29.336 112.687 29.064 112.015 28.52C111.343 27.976 110.999 27.152 110.983 26.048C110.999 25.552 111.039 25.128 111.103 24.776L111.799 20.312H110.311Z" fill="black"/>
</svg>
