<svg width="163" height="45" viewBox="0 0 163 45" fill="none" xmlns="http://www.w3.org/2000/svg">
<rect width="162.584" height="45" rx="6" fill="#EADEC4"/>
<path d="M17.1694 28.8614L17.3244 28.7064L17.7893 33.0454H17.4794L17.1694 28.8614Z" fill="#201012"/>
<path d="M36.3854 21.2526H36.2305L37.7801 33.0298H38.4L36.3854 21.2526Z" fill="#361514"/>
<path fill-rule="evenodd" clip-rule="evenodd" d="M33.2856 33.0298L34.2154 37.9887L38.7094 37.5238L42.5836 33.0298H33.2856Z" fill="url(#paint0_linear_257_121)"/>
<path fill-rule="evenodd" clip-rule="evenodd" d="M42.5843 33.0298H38.0903L38.7102 37.5238L42.5843 33.0298Z" fill="url(#paint1_linear_257_121)"/>
<path fill-rule="evenodd" clip-rule="evenodd" d="M15 32.8904L17.9443 37.3843L21.6635 38.0042L22.9032 33.0453H17.6344L15 32.8904Z" fill="url(#paint2_linear_257_121)"/>
<path d="M17.6344 33.0298H15L17.9443 37.5238L17.6344 33.0298Z" fill="#541614"/>
<path d="M17.6347 33.0299L17.3248 28.6909L15.1553 32.8749L17.6347 33.0299Z" fill="#201012"/>
<path fill-rule="evenodd" clip-rule="evenodd" d="M36.23 21.1131L28.7917 7.01135L17.3242 28.7064L36.23 21.1131Z" fill="url(#paint3_linear_257_121)"/>
<path fill-rule="evenodd" clip-rule="evenodd" d="M17.3242 28.6909L36.385 21.0977L38.0896 32.8749H17.6341L17.3242 28.6909Z" fill="url(#paint4_linear_257_121)"/>
<path d="M36.2305 21.113L37.9351 32.8903H42.4291L36.2305 21.113Z" fill="#361514"/>
<path fill-rule="evenodd" clip-rule="evenodd" d="M24.2974 25.9015L31.5807 22.9572L28.7914 6.99585L24.2974 25.9015Z" fill="url(#paint5_linear_257_121)"/>
<path fill-rule="evenodd" clip-rule="evenodd" d="M31.5809 23.1122L33.1305 33.0299H22.9028L24.4525 25.9015C24.2975 25.9015 31.5809 23.1122 31.5809 23.1122Z" fill="url(#paint6_linear_257_121)"/>
<path d="M55.9765 29H51.3925L62.7685 11.48H62.9845L68.7925 29H64.2085L63.3925 26.36H57.5845L55.9765 29ZM61.6405 19.28L59.3365 23.408H62.6245C62.1605 21.744 61.8325 20.368 61.6405 19.28ZM83.6749 17L81.7789 29H77.8909L77.9629 27.776C77.9789 27.536 78.0509 27.28 78.1789 27.008H78.1309C77.7629 27.6 77.1629 28.136 76.3309 28.616C75.5469 29.096 74.7309 29.336 73.8829 29.336C72.5549 29.336 71.5869 28.92 70.9789 28.088C70.3709 27.256 70.1949 26.056 70.4509 24.488L71.6269 17H75.9229L74.8429 23.84C74.6669 24.944 75.0109 25.496 75.8749 25.496C76.5309 25.496 77.0909 25.264 77.5549 24.8C78.0189 24.336 78.3069 23.744 78.4189 23.024L79.3789 17H83.6749ZM84.5457 20.312L85.0737 17H86.6337L87.2097 13.4H91.3617L90.7857 17H93.7617L93.2337 20.312H90.2577L89.6097 24.416C89.5297 24.88 89.6017 25.232 89.8257 25.472C90.0497 25.712 90.3857 25.832 90.8337 25.832C91.3937 25.832 92.0577 25.672 92.8257 25.352L92.2737 28.808C91.5217 29.16 90.4257 29.336 88.9857 29.336C87.8337 29.336 86.9217 29.064 86.2497 28.52C85.5777 27.976 85.2337 27.152 85.2177 26.048C85.2337 25.552 85.2737 25.128 85.3377 24.776L86.0337 20.312H84.5457ZM101.858 16.664C103.538 16.664 104.89 17.176 105.914 18.2C106.938 19.208 107.45 20.512 107.45 22.112C107.45 24.144 106.706 25.856 105.218 27.248C103.762 28.64 101.978 29.336 99.8659 29.336C98.2019 29.336 96.8499 28.832 95.8099 27.824C94.7859 26.8 94.2739 25.496 94.2739 23.912C94.2739 21.864 95.0099 20.144 96.4819 18.752C97.9379 17.36 99.7299 16.664 101.858 16.664ZM100.418 25.784C101.202 25.784 101.898 25.48 102.506 24.872C103.098 24.28 103.394 23.504 103.394 22.544C103.394 21.84 103.202 21.28 102.818 20.864C102.434 20.432 101.93 20.216 101.306 20.216C100.522 20.216 99.8259 20.52 99.2179 21.128C98.6259 21.72 98.3299 22.496 98.3299 23.456C98.3299 24.16 98.5219 24.728 98.9059 25.16C99.2899 25.576 99.7939 25.784 100.418 25.784ZM114.527 27.296C115.791 27.296 117.007 26.944 118.175 26.24V28.328C116.991 28.968 115.735 29.288 114.407 29.288C112.583 29.288 111.079 28.696 109.895 27.512C108.727 26.344 108.143 24.84 108.143 23C108.143 21.16 108.727 19.656 109.895 18.488C111.079 17.304 112.583 16.712 114.407 16.712C115.687 16.712 116.919 17.024 118.103 17.648V19.76C116.967 19.056 115.775 18.704 114.527 18.704C113.327 18.704 112.343 19.104 111.575 19.904C110.807 20.688 110.423 21.72 110.423 23C110.423 24.264 110.799 25.296 111.551 26.096C112.319 26.896 113.311 27.296 114.527 27.296ZM121.237 19.664V17.6C122.325 17.008 123.733 16.712 125.461 16.712C128.821 16.712 130.501 18.256 130.501 21.344V29H128.437L128.413 27.584L128.485 26.624H128.437C128.277 26.992 127.909 27.48 127.333 28.088C126.533 28.888 125.509 29.288 124.261 29.288C123.125 29.288 122.205 28.968 121.501 28.328C120.813 27.688 120.469 26.832 120.469 25.76C120.469 24.256 121.157 23.176 122.533 22.52C123.909 21.864 125.829 21.712 128.293 22.064V21.464C128.293 19.592 127.245 18.656 125.149 18.656C123.661 18.656 122.357 18.992 121.237 19.664ZM124.645 27.488C125.637 27.488 126.485 27.088 127.189 26.288C127.893 25.488 128.245 24.6 128.245 23.624C126.437 23.336 125.053 23.384 124.093 23.768C123.149 24.136 122.677 24.776 122.677 25.688C122.677 26.216 122.853 26.648 123.205 26.984C123.573 27.32 124.053 27.488 124.645 27.488ZM143.104 11.72H145.336V29H143.272L143.224 27.584L143.296 26.696H143.248C142.896 27.416 142.336 28.024 141.568 28.52C140.768 29.032 139.912 29.288 139 29.288C137.4 29.288 136.072 28.704 135.016 27.536C133.96 26.368 133.432 24.856 133.432 23C133.432 21.16 133.952 19.648 134.992 18.464C136.048 17.296 137.368 16.712 138.952 16.712C139.848 16.712 140.68 16.92 141.448 17.336C142.216 17.752 142.776 18.272 143.128 18.896H143.176C143.128 18.656 143.104 18.328 143.104 17.912V11.72ZM139.312 18.656C138.224 18.656 137.328 19.064 136.624 19.88C135.936 20.664 135.592 21.704 135.592 23C135.592 24.28 135.936 25.32 136.624 26.12C137.328 26.936 138.224 27.344 139.312 27.344C140.32 27.344 141.2 26.968 141.952 26.216C142.704 25.464 143.08 24.392 143.08 23C143.08 21.608 142.704 20.536 141.952 19.784C141.2 19.032 140.32 18.656 139.312 18.656Z" fill="black"/>
<defs>
<linearGradient id="paint0_linear_257_121" x1="35.0627" y1="38.9551" x2="37.8009" y2="33.4026" gradientUnits="userSpaceOnUse">
<stop stop-color="#9B1E22"/>
<stop offset="0.6" stop-color="#CB2E29"/>
<stop offset="1" stop-color="#CB2E29"/>
</linearGradient>
<linearGradient id="paint1_linear_257_121" x1="40.346" y1="32.3876" x2="40.346" y2="36.527" gradientUnits="userSpaceOnUse">
<stop stop-color="#A62024"/>
<stop offset="1" stop-color="#A62025"/>
</linearGradient>
<linearGradient id="paint2_linear_257_121" x1="18.9299" y1="33.9503" x2="18.9299" y2="39.0827" gradientUnits="userSpaceOnUse">
<stop stop-color="#B32827"/>
<stop offset="1" stop-color="#8C181D"/>
</linearGradient>
<linearGradient id="paint3_linear_257_121" x1="27.056" y1="24.6928" x2="27.056" y2="10.4361" gradientUnits="userSpaceOnUse">
<stop stop-color="#7E171C"/>
<stop offset="0.8" stop-color="#BE2A28"/>
<stop offset="1" stop-color="#AC2125"/>
</linearGradient>
<linearGradient id="paint4_linear_257_121" x1="16.8858" y1="26.9954" x2="37.6836" y2="26.9954" gradientUnits="userSpaceOnUse">
<stop stop-color="#4B1715"/>
<stop offset="1" stop-color="#401414"/>
</linearGradient>
<linearGradient id="paint5_linear_257_121" x1="27.8771" y1="7.15081" x2="27.8771" y2="26.3974" gradientUnits="userSpaceOnUse">
<stop stop-color="#DE482F"/>
<stop offset="1" stop-color="#C93029"/>
</linearGradient>
<linearGradient id="paint6_linear_257_121" x1="28.097" y1="33.4387" x2="28.097" y2="23.3236" gradientUnits="userSpaceOnUse">
<stop stop-color="#771617"/>
<stop offset="1" stop-color="#8C181D"/>
</linearGradient>
</defs>
</svg>
