<svg width="261" height="76" viewBox="0 0 261 76" fill="none" xmlns="http://www.w3.org/2000/svg">
<rect x="2.5" y="2.5" width="256" height="71" rx="8.5" stroke="#EADEC4" stroke-width="5"/>
<path d="M61.3426 37.9909C61.1696 37.694 60.9479 37.4158 60.6283 37.1602C58.1286 35.1566 53.6064 35.0589 50.4751 35.3897C47.761 35.6754 45.4342 36.9046 43.4644 38.7728C42.7539 39.4495 42.1638 40.2013 41.4495 40.8854C40.9571 41.3553 40.4571 42.1522 39.8407 42.4605C38.8107 42.9717 38.634 42.3703 38.634 41.438C38.6453 39.3329 38.9761 37.4008 39.2354 35.3446C39.367 34.2807 39.5249 33.2395 39.6452 32.1794C39.7542 31.1833 40.0737 30.9991 41.0511 30.9728C42.8517 30.9239 44.6861 30.751 46.3363 30.2172C47.9828 29.6872 49.7646 28.9579 51.5201 28.9579C52.4787 28.9579 53.2154 29.4842 54.1364 29.5631C55.016 29.6383 55.8769 29.5932 56.7001 29.3112C57.5309 29.0256 59.151 28.4316 59.5457 27.5482C59.8465 26.8716 59.433 25.9394 59.3615 25.3454C59.26 24.4696 58.5496 24.3267 58.2 23.511C57.8842 22.7817 58.1361 21.951 57.7075 21.3195C57.2903 20.6992 57.1963 19.797 56.9106 19.1016C56.6324 18.4062 56.3806 17.6544 56.0047 17.0379C55.5047 16.2184 55.2566 15.7711 54.3281 15.4703C53.7342 15.2786 53.1628 14.9328 52.5313 14.8614C50.8811 14.6772 49.1632 15.0719 47.6934 15.6245C45.562 16.4289 43.2877 17.1807 41.3969 18.4889C40.0474 19.4211 38.7543 20.3496 37.4236 21.357C36.6755 21.9247 35.8523 22.4171 35.1982 23.0749C35.1117 23.1614 35.0253 23.2667 34.9388 23.3757C33.4841 23.8869 31.7286 28.2813 31.0632 29.3413C29.522 31.7998 27.8229 34.1567 26.5636 36.7805C24.4698 41.1598 23.0338 47.227 24.7856 51.9634C25.4547 53.7753 27.1914 55.73 29.2062 55.948C31.4091 56.1886 33.5104 56.354 35.6606 57.0946C37.1228 57.5983 38.5626 58.1997 40.085 58.5117C41.9382 58.8876 43.8403 58.7561 45.7236 58.7561C47.6445 58.7561 47.5844 58.9666 49.7834 59.0455C50.2157 59.0606 51.257 59.1621 51.6893 59.132L52.5163 59.1621L63.9927 59.5643V39.2239L61.3426 37.9909ZM34.0028 24.323L34.499 23.9095C34.3524 24.0786 34.1945 24.2327 34.0028 24.323Z" fill="#FCC21B"/>
<path d="M58.6245 23.4547C58.0644 21.1692 58.3163 21.6015 56.9329 18.0942C55.8954 15.4591 54.0798 14.8502 52.0913 14.8239C52.704 14.899 53.2979 14.9855 53.8279 15.3802C54.3617 15.7711 54.7564 17.4026 55.091 18.004C55.2677 18.3236 55.4519 18.7934 55.6173 19.237C55.8466 19.876 56.0232 20.4625 56.0232 20.4625C56.4292 21.5526 56.8164 22.9923 56.8728 23.1803C56.8991 23.2592 56.9029 23.3306 56.8991 23.3983C56.8954 23.4848 56.8728 23.5599 56.839 23.6276C56.7525 23.7892 56.6021 23.9058 56.433 23.9772C56.136 24.1012 55.6248 24.1388 55.3729 23.7742C55.1248 23.4133 54.6474 22.2593 54.5497 21.9097L53.6362 19.5753C53.6362 19.5753 53.4408 19.2069 53.125 19.128C52.8731 19.0641 52.4634 19.1806 52.3206 19.4062C52.1364 19.6956 52.283 20.1317 52.283 20.1317C52.283 20.1317 53.8731 24.1689 53.9482 24.3869C54.0911 24.8042 53.8242 25.0523 53.5347 25.1876C53.2378 25.3154 52.7341 25.3605 52.4822 25.0072C52.2341 24.6689 50.7117 21.0338 50.5989 20.7669L50.5876 20.7369C50.5876 20.7369 50.3922 20.3685 50.0764 20.2933C49.8245 20.2294 49.411 20.3422 49.2719 20.5715C49.0502 20.9361 49.2156 21.3083 49.2156 21.3083C49.5464 22.0413 51.0538 25.3756 51.1252 25.571C51.2793 25.9733 51.0274 26.2289 50.7455 26.368C50.4636 26.5033 49.9674 26.5672 49.7042 26.2289C49.4411 25.8906 47.4901 22.0112 47.4901 22.0112C47.4901 22.0112 47.2608 21.6654 46.9376 21.6203C46.6819 21.5827 46.2647 21.7293 46.167 21.9774C46.0504 22.2781 46.2008 22.7066 46.2008 22.7066C46.2008 22.7066 48.1555 26.6311 48.2608 26.8416C48.4562 27.2438 48.2232 27.5258 47.945 27.6949C47.6668 27.8603 47.1669 27.9693 46.8624 27.6461C46.6218 27.3867 45.0505 24.6689 44.4077 23.5562C43.1823 24.4997 43.904 25.7402 44.1333 26.4732C44.2724 26.9093 44.3025 28.3941 43.5807 29.0482C43.092 29.4918 42.5207 29.5933 42.0733 29.5895C41.8591 29.5707 41.641 29.5406 41.4268 29.5068C41.3741 29.4955 41.3365 29.4805 41.3365 29.4805C41.3365 29.4805 41.3516 29.4918 41.3591 29.4955C40.9306 29.4354 40.502 29.3602 40.0585 29.2549C39.7013 29.1685 39.333 29.2474 39.0398 29.4579C38.7428 29.6684 38.5548 29.9992 38.521 30.3601L37.2955 43.765C37.2655 44.0995 37.6677 45.0694 37.882 45.325C38.6751 43.8853 38.818 43.5883 40.0397 42.3403C40.0321 42.3515 40.2013 39.4571 40.2013 39.4571L40.8855 31.9652C45.4415 32.6607 49.2043 31.3563 50.8132 30.6571C51.877 31.3751 54.061 32.0179 58.1321 30.3188C58.1847 30.2962 58.2298 30.2699 58.2787 30.2473C59.6094 29.6384 60.147 28.6911 60.3537 27.9881C60.8912 26.1349 59.038 24.1238 58.6245 23.4547ZM58.1885 26.5409C58.1584 26.7364 58.0832 26.9055 57.978 27.0596C57.7449 27.398 57.3803 27.6385 57.0683 27.7701C56.0082 28.2137 55.0948 28.5896 54.8692 28.646C54.0234 28.864 53.5874 28.6497 53.3769 28.2701C53.1663 27.8904 53.0611 27.225 53.5498 26.8566C53.9445 26.5597 56.4179 25.4132 57.3652 24.9771C57.5908 24.8719 57.7336 24.808 57.7336 24.808C57.7336 24.808 58.3238 25.5635 58.1885 26.5409Z" fill="#E48C15"/>
<path d="M63.9999 58.6809C46.7345 58.5343 31.5854 55.8767 28.9766 55.1474C27.3226 54.685 24.6048 51.5274 24.3755 50.5876C25.4318 54.4858 28.3563 56.8427 29.8938 57.681C31.4313 58.5193 47.4073 61.0454 63.9961 61.1845V58.6809H63.9999Z" fill="#E48C15"/>
<path d="M59.9113 47.3623C57.374 49.1666 53.6675 49.5501 51.0061 49.5501C48.5176 49.5501 46.6042 49.223 46.5854 49.2193C46.3035 49.1704 46.0216 49.3208 45.905 49.5801C45.7885 49.8433 45.8674 50.1515 46.093 50.3282C46.2396 50.441 49.7243 53.1024 54.3479 53.1024C55.0847 53.1024 55.8177 53.0347 56.5319 52.8956C60.0429 52.2228 60.9225 49.3095 60.9 47.8622C60.8962 47.6292 60.7647 47.4187 60.5579 47.3134C60.3474 47.2082 60.0993 47.227 59.9113 47.3623Z" fill="#E48C15"/>
<path d="M80.528 61.672C76.464 61.672 73.072 61.048 70.352 59.8L71.696 51.352C74.16 52.76 76.752 53.592 79.472 53.848C80.208 53.944 81.104 53.96 82.16 53.896C85.392 53.704 87.008 52.808 87.008 51.208C87.008 50.472 86.624 49.848 85.856 49.336C85.088 48.824 83.568 48.104 81.296 47.176C78.48 46.056 76.432 44.808 75.152 43.432C73.904 42.024 73.28 40.2 73.28 37.96C73.28 34.312 74.672 31.368 77.456 29.128C80.208 26.888 83.792 25.768 88.208 25.768C91.792 25.768 94.784 26.312 97.184 27.4L95.888 35.512C93.808 34.072 91.088 33.352 87.728 33.352C86.032 33.352 84.656 33.64 83.6 34.216C82.576 34.792 82.064 35.528 82.064 36.424C82.064 37.096 82.464 37.736 83.264 38.344C84.096 38.952 85.488 39.688 87.44 40.552C90.352 41.8 92.448 43.112 93.728 44.488C95.04 45.864 95.696 47.672 95.696 49.912C95.696 53.528 94.352 56.392 91.664 58.504C88.976 60.616 85.264 61.672 80.528 61.672ZM141.824 53.752L146.144 26.44H154.688L150.656 51.832C150.368 53.592 150.976 54.472 152.48 54.472C153.28 54.472 154.16 54.264 155.12 53.848L153.968 60.904C152.752 61.416 150.976 61.672 148.64 61.672C146.144 61.672 144.288 61.016 143.072 59.704C141.856 58.36 141.44 56.376 141.824 53.752Z" fill="#C6A857"/>
<path d="M116.932 37H127.108L116.932 47.608L119.044 52.216C119.684 53.72 120.676 54.472 122.02 54.472C122.724 54.472 123.508 54.328 124.372 54.04L123.268 60.856C122.116 61.4 120.58 61.672 118.66 61.672C116.868 61.672 115.444 61.304 114.388 60.568C113.332 59.832 112.452 58.632 111.748 56.968L109.78 52.264L107.38 54.952L106.42 61H98.0195L103.492 26.44H112.084L109.108 45.304L116.932 37ZM158.184 53.752L162.504 26.44H171.048L167.016 51.832C166.728 53.592 167.336 54.472 168.84 54.472C169.64 54.472 170.52 54.264 171.48 53.848L170.328 60.904C169.112 61.416 167.336 61.672 165 61.672C162.504 61.672 160.648 61.016 159.432 59.704C158.216 58.36 157.8 56.376 158.184 53.752Z" fill="#ED8E6A"/>
<path d="M126.566 61L130.358 37H138.95L135.158 61H126.566ZM131.078 30.856C131.078 29.32 131.574 28.088 132.566 27.16C133.558 26.2 134.854 25.72 136.454 25.72C137.702 25.72 138.662 26.056 139.334 26.728C140.038 27.368 140.39 28.264 140.39 29.416C140.39 30.952 139.894 32.2 138.902 33.16C137.91 34.12 136.63 34.6 135.062 34.6C133.814 34.6 132.838 34.264 132.134 33.592C131.43 32.92 131.078 32.008 131.078 30.856ZM185.002 53.656C185.002 53.272 184.762 52.952 184.282 52.696C183.802 52.44 182.954 52.152 181.738 51.832C179.466 51.224 177.77 50.392 176.65 49.336C175.562 48.28 175.018 46.856 175.018 45.064C175.018 42.408 175.978 40.296 177.898 38.728C179.818 37.128 182.426 36.328 185.722 36.328C188.794 36.328 191.498 36.808 193.834 37.768L192.682 45.016C190.922 44.088 189.002 43.48 186.922 43.192C185.77 43.128 185.082 43.112 184.858 43.144C183.546 43.304 182.89 43.752 182.89 44.488C182.89 45.192 183.834 45.784 185.722 46.264C188.25 46.936 190.074 47.784 191.194 48.808C192.314 49.832 192.874 51.208 192.874 52.936C192.874 55.688 191.834 57.832 189.754 59.368C187.674 60.904 184.794 61.672 181.114 61.672C178.106 61.672 175.402 61.16 173.002 60.136L174.154 52.696C175.21 53.336 176.49 53.896 177.993 54.376C179.626 54.824 180.986 55.048 182.074 55.048C184.026 55.048 185.002 54.584 185.002 53.656Z" fill="#A7D5F3"/>
<path d="M199.657 37.9909C199.83 37.6939 200.052 37.4158 200.371 37.1602C202.871 35.1566 207.393 35.0588 210.525 35.3896C213.239 35.6753 215.566 36.9045 217.535 38.7728C218.246 39.4494 218.836 40.2013 219.55 40.8854C220.043 41.3553 220.543 42.1522 221.159 42.4605C222.189 42.9717 222.366 42.3703 222.366 41.438C222.355 39.3329 222.024 37.4007 221.764 35.3445C221.633 34.2807 221.475 33.2394 221.355 32.1794C221.246 31.1832 220.926 30.999 219.949 30.9727C218.148 30.9238 216.314 30.7509 214.664 30.2171C213.017 29.6871 211.235 28.9578 209.48 28.9578C208.521 28.9578 207.784 29.4841 206.863 29.563C205.984 29.6382 205.123 29.5931 204.3 29.3112C203.469 29.0255 201.849 28.4315 201.454 27.5481C201.153 26.8715 201.567 25.9392 201.638 25.3453C201.74 24.4694 202.45 24.3266 202.8 23.5109C203.116 22.7816 202.864 21.9508 203.292 21.3193C203.71 20.6991 203.803 19.7969 204.089 19.1014C204.367 18.406 204.619 17.6542 204.995 17.0377C205.495 16.2182 205.743 15.7709 206.672 15.4702C207.266 15.2784 207.837 14.9326 208.469 14.8612C210.119 14.677 211.837 15.0717 213.306 15.6243C215.438 16.4287 217.712 17.1805 219.603 18.4887C220.952 19.421 222.246 20.3495 223.576 21.3569C224.324 21.9245 225.148 22.417 225.802 23.0748C225.888 23.1613 225.975 23.2665 226.061 23.3755C227.516 23.8868 229.271 28.2812 229.937 29.3412C231.478 31.7997 233.177 34.1566 234.436 36.7805C236.53 41.1598 237.966 47.227 236.214 51.9635C235.545 53.7754 233.809 55.7301 231.794 55.9481C229.591 56.1887 227.49 56.3541 225.339 57.0947C223.877 57.5984 222.437 58.1998 220.915 58.5118C219.062 58.8877 217.16 58.7562 215.276 58.7562C213.355 58.7562 213.415 58.9667 211.216 59.0456C210.784 59.0607 209.743 59.1622 209.311 59.1321L208.484 59.1622L197.007 59.5644V39.2239L199.657 37.9909ZM226.997 24.3228L226.501 23.9093C226.648 24.0785 226.805 24.2326 226.997 24.3228Z" fill="#FCC21B"/>
<path d="M202.375 23.4546C202.935 21.169 202.684 21.6013 204.067 18.0941C205.104 15.459 206.92 14.85 208.909 14.8237C208.296 14.8989 207.702 14.9853 207.172 15.38C206.638 15.771 206.243 17.4024 205.909 18.0039C205.732 18.3234 205.548 18.7933 205.383 19.2369C205.153 19.8759 204.977 20.4623 204.977 20.4623C204.571 21.5525 204.183 22.9922 204.127 23.1801C204.101 23.2591 204.097 23.3305 204.101 23.3982C204.105 23.4846 204.127 23.5598 204.161 23.6275C204.247 23.7891 204.398 23.9057 204.567 23.9771C204.864 24.1011 205.375 24.1387 205.627 23.7741C205.875 23.4132 206.352 22.2592 206.45 21.9096L207.364 19.5752C207.364 19.5752 207.559 19.2068 207.875 19.1278C208.127 19.0639 208.536 19.1805 208.679 19.406C208.864 19.6955 208.717 20.1315 208.717 20.1315C208.717 20.1315 207.127 24.1688 207.052 24.3868C206.909 24.8041 207.176 25.0522 207.465 25.1875C207.762 25.3153 208.266 25.3604 208.518 25.0071C208.766 24.6687 210.288 21.0337 210.401 20.7668L210.412 20.7367C210.412 20.7367 210.608 20.3683 210.924 20.2932C211.175 20.2293 211.589 20.342 211.728 20.5713C211.95 20.936 211.784 21.3081 211.784 21.3081C211.454 22.0411 209.946 25.3755 209.875 25.5709C209.721 25.9732 209.972 26.2288 210.254 26.3679C210.536 26.5032 211.033 26.5671 211.296 26.2288C211.559 25.8905 213.51 22.0111 213.51 22.0111C213.51 22.0111 213.739 21.6652 214.062 21.6201C214.318 21.5825 214.735 21.7291 214.833 21.9772C214.95 22.278 214.799 22.7065 214.799 22.7065C214.799 22.7065 212.844 26.631 212.739 26.8415C212.544 27.2437 212.777 27.5257 213.055 27.6948C213.333 27.8602 213.833 27.9692 214.138 27.646C214.378 27.3866 215.949 24.6687 216.592 23.5561C217.818 24.4996 217.096 25.7401 216.867 26.4731C216.728 26.9092 216.698 28.394 217.419 29.0481C217.908 29.4917 218.479 29.5932 218.927 29.5894C219.141 29.5706 219.359 29.5405 219.573 29.5067C219.626 29.4954 219.663 29.4804 219.663 29.4804C219.663 29.4804 219.648 29.4917 219.641 29.4954C220.069 29.4353 220.498 29.3601 220.942 29.2548C221.299 29.1684 221.667 29.2473 221.96 29.4578C222.257 29.6683 222.445 29.9991 222.479 30.36L223.704 43.765C223.735 44.0995 223.332 45.0694 223.118 45.325C222.325 43.8853 222.182 43.5883 220.96 42.3403C220.968 42.3515 220.799 39.457 220.799 39.457L220.115 31.9652C215.558 32.6606 211.796 31.3562 210.187 30.657C209.123 31.375 206.939 32.0178 202.868 30.3187C202.815 30.2961 202.77 30.2698 202.721 30.2472C201.39 29.6383 200.853 28.691 200.646 27.988C200.109 26.1348 201.962 24.1237 202.375 23.4546ZM202.811 26.5408C202.841 26.7363 202.917 26.9054 203.022 27.0595C203.255 27.3979 203.62 27.6384 203.932 27.77C204.992 28.2136 205.905 28.5895 206.131 28.6459C206.976 28.8639 207.413 28.6496 207.623 28.27C207.834 27.8903 207.939 27.2249 207.45 26.8565C207.055 26.5596 204.582 25.413 203.635 24.977C203.409 24.8717 203.266 24.8078 203.266 24.8078C203.266 24.8078 202.676 25.5634 202.811 26.5408Z" fill="#E48C15"/>
<path d="M197 58.6809C214.265 58.5343 229.415 55.8766 232.023 55.1474C233.677 54.685 236.395 51.5274 236.625 50.5876C235.568 54.4858 232.644 56.8427 231.106 57.681C229.569 58.5193 213.593 61.0454 197.004 61.1845V58.6809H197Z" fill="#E48C15"/>
<path d="M201.089 47.3623C203.626 49.1667 207.333 49.5501 209.994 49.5501C212.483 49.5501 214.396 49.223 214.415 49.2193C214.697 49.1704 214.979 49.3208 215.095 49.5802C215.212 49.8433 215.133 50.1515 214.907 50.3282C214.761 50.441 211.276 53.1024 206.653 53.1024C205.916 53.1024 205.183 53.0348 204.468 52.8957C200.957 52.2228 200.078 49.3095 200.1 47.8622C200.104 47.6292 200.236 47.4187 200.442 47.3134C200.653 47.2082 200.901 47.227 201.089 47.3623Z" fill="#E48C15"/>
</svg>
