<svg width="290" height="46" viewBox="0 0 290 46" fill="none" xmlns="http://www.w3.org/2000/svg">
<rect y="0.467285" width="289.838" height="45" rx="6" fill="#C6A857"/>
<path d="M20.4238 7.54834H40.4143C43.5136 7.54834 45.8381 10.0278 45.8381 13.1271V32.8075C45.8381 35.9068 43.3587 38.3862 40.4143 38.3862H20.4238C17.3245 38.3862 15 35.9068 15 32.8075V13.1271C15 10.0278 17.4794 7.54834 20.4238 7.54834Z" fill="#20244D"/>
<path d="M27.3971 26.144H22.5932L21.6634 29.2433C21.6634 29.3983 21.5084 29.3983 21.3535 29.3983H19.029C18.874 29.3983 18.874 29.2433 18.874 29.0883L23.0581 16.8462C23.0581 16.6912 23.2131 16.5362 23.2131 16.3813C23.2131 16.0713 23.368 15.7614 23.368 15.4515C23.368 15.4515 23.368 15.2965 23.523 15.2965H26.9322C27.0355 15.2965 27.0872 15.3482 27.0872 15.4515L31.7361 28.9334C31.7361 29.0367 31.6845 29.0883 31.5812 29.0883H28.6368C28.5335 29.0883 28.4819 29.0367 28.4819 28.9334L27.3971 26.144ZM23.368 23.5096H26.6223C26.4673 23.1997 26.4673 22.8898 26.3124 22.5798C26.3124 22.1149 26.1574 21.805 26.0024 21.3401C25.8475 21.0302 25.8475 20.5653 25.6925 20.1004C25.5375 19.7905 25.3826 19.3256 25.3826 19.0157C25.2276 18.5508 25.0726 18.2408 25.0726 17.9309C24.9177 18.5508 24.7627 19.0157 24.6077 19.6355C24.2978 20.2554 24.1428 20.8752 23.9879 21.65C23.8329 22.2699 23.523 22.8898 23.368 23.5096Z" fill="#9294C9"/>
<path d="M39.1746 24.8887H35.1455C35.1455 25.3536 35.3005 25.6635 35.6104 26.1284C35.7654 26.4383 36.2303 26.7483 36.5402 26.9032C37.0051 27.0582 37.625 27.2132 38.2448 27.2132C38.7097 27.2132 39.1746 27.2132 39.6395 27.0582C40.1044 27.0582 40.4143 26.9032 40.7243 26.7483C40.7243 26.7483 40.8792 26.7483 40.8792 26.9032V29.0727L40.7243 29.2277C40.2594 29.3827 39.9494 29.5376 39.4845 29.6926C38.8647 29.8476 38.2448 29.8476 37.625 29.8476C36.6952 29.8476 35.7654 29.6926 35.1455 29.3827C34.5257 29.0727 33.9058 28.6078 33.4409 28.143C32.976 27.6781 32.6661 27.0582 32.5111 26.4383C32.3561 25.8185 32.2012 25.1986 32.2012 24.5788C32.2012 23.8039 32.3561 23.1841 32.5111 22.4093C32.6661 21.7894 32.976 21.1696 33.4409 20.5497C33.9058 20.0848 34.3707 19.6199 34.9905 19.31C35.6104 19.0001 36.3852 18.8451 37.1601 18.8451C37.7799 18.8451 38.5548 19.0001 39.1746 19.31C39.6395 19.6199 40.1044 19.9298 40.5693 20.3947C40.8792 20.8596 41.1892 21.3245 41.3441 21.9444C41.4991 22.4093 41.6541 23.0291 41.6541 23.494V24.8887C41.6541 25.0437 41.4991 25.0437 41.4991 25.0437H40.2594C39.7945 24.8887 39.4845 24.8887 39.1746 24.8887ZM35.1455 23.0446H38.7097C38.813 23.0446 38.9163 22.993 39.0196 22.8897V22.7347C39.0196 22.5797 39.0196 22.4248 38.8647 22.2698C38.7097 21.495 37.9349 21.0301 37.1601 21.0301C36.3852 21.0301 35.7654 21.34 35.4554 22.1148C35.1455 22.4248 35.1455 22.7347 35.1455 23.0446Z" fill="#9294C9"/>
<path d="M59.2299 29.4673H54.6459L66.0219 11.9473H66.2379L72.0459 29.4673H67.4619L66.6459 26.8273H60.8379L59.2299 29.4673ZM64.8939 19.7473L62.5899 23.8753H65.8779C65.4139 22.2113 65.0859 20.8353 64.8939 19.7473ZM83.814 12.1873H88.086L85.35 29.4673H81.486L81.534 28.5313L81.702 27.7633H81.654C81.302 28.3393 80.742 28.8273 79.974 29.2273C79.206 29.6113 78.414 29.8033 77.598 29.8033C76.222 29.8033 75.094 29.3393 74.214 28.4113C73.334 27.4833 72.894 26.2033 72.894 24.5713C72.894 22.3473 73.55 20.5553 74.862 19.1953C76.19 17.8193 77.734 17.1313 79.494 17.1313C80.278 17.1313 80.958 17.2673 81.534 17.5393C82.126 17.8113 82.55 18.1793 82.806 18.6433H82.854C82.838 18.4833 82.87 18.1473 82.95 17.6353L83.814 12.1873ZM79.878 20.6833C79.078 20.6833 78.39 20.9953 77.814 21.6193C77.254 22.2273 76.974 23.0033 76.974 23.9473C76.974 24.6353 77.158 25.1953 77.526 25.6273C77.894 26.0433 78.382 26.2513 78.99 26.2513C79.758 26.2513 80.438 25.9553 81.03 25.3633C81.622 24.7713 81.918 23.9793 81.918 22.9873C81.918 22.2833 81.726 21.7233 81.342 21.3073C80.958 20.8913 80.47 20.6833 79.878 20.6833ZM95.7832 17.1313C97.4632 17.1313 98.8152 17.6433 99.8392 18.6673C100.863 19.6753 101.375 20.9793 101.375 22.5793C101.375 24.6113 100.631 26.3233 99.1432 27.7153C97.6872 29.1073 95.9032 29.8033 93.7912 29.8033C92.1272 29.8033 90.7752 29.2993 89.7352 28.2913C88.7112 27.2673 88.1992 25.9633 88.1992 24.3793C88.1992 22.3313 88.9352 20.6113 90.4072 19.2193C91.8632 17.8273 93.6552 17.1313 95.7832 17.1313ZM94.3432 26.2513C95.1272 26.2513 95.8232 25.9473 96.4312 25.3393C97.0232 24.7473 97.3192 23.9713 97.3192 23.0113C97.3192 22.3073 97.1272 21.7473 96.7432 21.3313C96.3592 20.8993 95.8552 20.6833 95.2312 20.6833C94.4472 20.6833 93.7512 20.9873 93.1432 21.5953C92.5512 22.1873 92.2552 22.9633 92.2552 23.9233C92.2552 24.6273 92.4472 25.1953 92.8312 25.6273C93.2152 26.0433 93.7192 26.2513 94.3432 26.2513ZM110.589 20.6833C109.821 20.6833 109.141 20.9793 108.549 21.5713C107.957 22.1633 107.661 22.9553 107.661 23.9473C107.661 24.6513 107.853 25.2113 108.237 25.6273C108.621 26.0433 109.109 26.2513 109.701 26.2513C110.501 26.2513 111.189 25.9473 111.765 25.3393C112.341 24.7153 112.629 23.9313 112.629 22.9873C112.629 22.2833 112.437 21.7233 112.053 21.3073C111.685 20.8913 111.197 20.6833 110.589 20.6833ZM106.197 29.4673H102.309L105.045 12.1873H109.341L108.477 17.6353L108.237 18.6433H108.285C109.213 17.6353 110.477 17.1313 112.077 17.1313C113.421 17.1313 114.525 17.5953 115.389 18.5233C116.253 19.4513 116.685 20.7233 116.685 22.3393C116.685 24.5793 116.021 26.3873 114.693 27.7633C113.381 29.1233 111.805 29.8033 109.965 29.8033C109.149 29.8033 108.421 29.6113 107.781 29.2273C107.141 28.8273 106.733 28.3393 106.557 27.7633H106.509C106.525 27.9233 106.493 28.1793 106.413 28.5313L106.197 29.4673ZM125.096 17.1313C126.664 17.1313 127.872 17.5793 128.72 18.4753C129.552 19.3553 129.968 20.4913 129.968 21.8833C129.968 22.8433 129.816 23.6593 129.512 24.3313H122.192C122.176 24.9553 122.392 25.4353 122.84 25.7713C123.288 26.0913 123.928 26.2513 124.76 26.2513C125.496 26.2513 126.304 26.1633 127.184 25.9873C128.048 25.8113 128.632 25.6433 128.936 25.4833L128.384 29.0593C127.296 29.5553 125.768 29.8033 123.8 29.8033C121.944 29.8033 120.472 29.3073 119.384 28.3153C118.328 27.3393 117.8 26.0353 117.8 24.4033C117.8 22.3713 118.52 20.6513 119.96 19.2433C121.384 17.8353 123.096 17.1313 125.096 17.1313ZM122.48 22.3633H125.912C126.008 21.7713 125.936 21.2993 125.696 20.9473C125.472 20.5953 125.088 20.4193 124.544 20.4193C124.016 20.4193 123.56 20.6033 123.176 20.9713C122.808 21.3233 122.576 21.7873 122.48 22.3633ZM138.145 29.4673H135.697L143.665 11.8993H143.713L151.681 29.4673H149.233L147.529 25.6273H139.825L138.145 29.4673ZM140.665 23.7313H146.689C145.361 20.7553 144.361 18.3713 143.689 16.5793C142.921 18.5633 141.913 20.9473 140.665 23.7313ZM152.426 19.2913V17.4673H154.274V16.1233C154.274 14.8273 154.658 13.8033 155.426 13.0513C156.21 12.2833 157.274 11.8993 158.618 11.8993C159.21 11.8993 159.698 11.9473 160.082 12.0433V13.9873C159.698 13.8913 159.282 13.8433 158.834 13.8433C158.05 13.8433 157.442 14.0593 157.01 14.4913C156.578 14.9073 156.362 15.5153 156.362 16.3153V17.4673H159.554V19.2913H156.434V29.4673H154.202V19.2913H152.426ZM160.879 19.2913V17.4673H162.871V13.8673H165.055V17.4673H168.679V19.2913H165.055V25.5073C165.055 27.0273 165.647 27.7873 166.831 27.7873C167.615 27.7873 168.367 27.6113 169.087 27.2593V29.2033C168.399 29.5713 167.503 29.7553 166.399 29.7553C165.343 29.7553 164.487 29.4593 163.831 28.8673C163.175 28.2593 162.847 27.3633 162.847 26.1793V19.2913H160.879ZM176.433 17.1793C178.129 17.1793 179.457 17.7233 180.417 18.8113C181.377 19.8993 181.857 21.2193 181.857 22.7713C181.857 22.9153 181.849 23.1473 181.833 23.4673C181.817 23.7713 181.809 23.9313 181.809 23.9473H172.881V23.9713C172.913 25.1553 173.305 26.0913 174.057 26.7793C174.809 27.4673 175.809 27.8113 177.057 27.8113C178.769 27.8113 180.217 27.4353 181.401 26.6833V28.7233C180.185 29.4113 178.689 29.7553 176.913 29.7553C175.009 29.7553 173.473 29.1713 172.305 28.0033C171.137 26.8353 170.553 25.3233 170.553 23.4673C170.553 21.6433 171.113 20.1473 172.233 18.9793C173.369 17.7793 174.769 17.1793 176.433 17.1793ZM172.905 22.3633H179.649C179.665 21.4193 179.377 20.6353 178.785 20.0113C178.193 19.3713 177.401 19.0513 176.409 19.0513C175.465 19.0513 174.665 19.3713 174.009 20.0113C173.369 20.6353 173.001 21.4193 172.905 22.3633ZM187.219 29.4673H184.987V17.4673H187.075L187.099 19.1473L187.075 20.0353H187.099C187.899 18.1313 189.131 17.1793 190.795 17.1793C191.083 17.1793 191.323 17.2033 191.515 17.2513V19.4113C191.323 19.3633 191.115 19.3393 190.891 19.3393C189.787 19.3393 188.899 19.8433 188.227 20.8513C187.555 21.8273 187.219 22.9553 187.219 24.2353V29.4673ZM211.664 27.5233V29.4673H200.696V12.1873H211.304V14.1313H203V19.7473H210.008V21.6913H203V27.5233H211.664ZM213.363 19.2913V17.4673H215.211V16.1233C215.211 14.8273 215.595 13.8033 216.363 13.0513C217.147 12.2833 218.211 11.8993 219.555 11.8993C220.147 11.8993 220.635 11.9473 221.019 12.0433V13.9873C220.635 13.8913 220.219 13.8433 219.771 13.8433C218.987 13.8433 218.379 14.0593 217.947 14.4913C217.515 14.9073 217.299 15.5153 217.299 16.3153V17.4673H220.491V19.2913H217.371V29.4673H215.139V19.2913H213.363ZM221.519 19.2913V17.4673H223.367V16.1233C223.367 14.8273 223.751 13.8033 224.519 13.0513C225.303 12.2833 226.367 11.8993 227.711 11.8993C228.303 11.8993 228.791 11.9473 229.175 12.0433V13.9873C228.791 13.8913 228.375 13.8433 227.927 13.8433C227.143 13.8433 226.535 14.0593 226.103 14.4913C225.671 14.9073 225.455 15.5153 225.455 16.3153V17.4673H228.647V19.2913H225.527V29.4673H223.295V19.2913H221.519ZM235.988 17.1793C237.684 17.1793 239.012 17.7233 239.972 18.8113C240.932 19.8993 241.412 21.2193 241.412 22.7713C241.412 22.9153 241.404 23.1473 241.388 23.4673C241.372 23.7713 241.364 23.9313 241.364 23.9473H232.436V23.9713C232.468 25.1553 232.86 26.0913 233.612 26.7793C234.364 27.4673 235.364 27.8113 236.612 27.8113C238.324 27.8113 239.772 27.4353 240.956 26.6833V28.7233C239.74 29.4113 238.244 29.7553 236.468 29.7553C234.564 29.7553 233.028 29.1713 231.86 28.0033C230.692 26.8353 230.108 25.3233 230.108 23.4673C230.108 21.6433 230.668 20.1473 231.788 18.9793C232.924 17.7793 234.324 17.1793 235.988 17.1793ZM232.46 22.3633H239.204C239.22 21.4193 238.932 20.6353 238.34 20.0113C237.748 19.3713 236.956 19.0513 235.964 19.0513C235.02 19.0513 234.22 19.3713 233.564 20.0113C232.924 20.6353 232.556 21.4193 232.46 22.3633ZM250.203 27.7633C251.467 27.7633 252.683 27.4113 253.851 26.7073V28.7953C252.667 29.4353 251.411 29.7553 250.083 29.7553C248.259 29.7553 246.755 29.1633 245.571 27.9793C244.403 26.8113 243.819 25.3073 243.819 23.4673C243.819 21.6273 244.403 20.1233 245.571 18.9553C246.755 17.7713 248.259 17.1793 250.083 17.1793C251.363 17.1793 252.595 17.4913 253.779 18.1153V20.2273C252.643 19.5233 251.451 19.1713 250.203 19.1713C249.003 19.1713 248.019 19.5713 247.251 20.3713C246.483 21.1553 246.099 22.1873 246.099 23.4673C246.099 24.7313 246.475 25.7633 247.227 26.5633C247.995 27.3633 248.987 27.7633 250.203 27.7633ZM255.52 19.2913V17.4673H257.512V13.8673H259.696V17.4673H263.32V19.2913H259.696V25.5073C259.696 27.0273 260.288 27.7873 261.472 27.7873C262.256 27.7873 263.008 27.6113 263.728 27.2593V29.2033C263.04 29.5713 262.144 29.7553 261.04 29.7553C259.984 29.7553 259.128 29.4593 258.472 28.8673C257.816 28.2593 257.488 27.3633 257.488 26.1793V19.2913H255.52ZM271.482 26.3473C271.482 25.8833 271.29 25.5153 270.906 25.2433C270.538 24.9713 269.842 24.6673 268.818 24.3313C267.57 23.9313 266.65 23.4513 266.058 22.8913C265.482 22.3153 265.194 21.5393 265.194 20.5633C265.194 19.5713 265.594 18.7633 266.394 18.1393C267.194 17.4993 268.226 17.1793 269.49 17.1793C270.706 17.1793 271.834 17.4193 272.874 17.8993V19.9153C271.802 19.3553 270.754 19.0753 269.73 19.0753C268.994 19.0753 268.402 19.2113 267.954 19.4833C267.506 19.7553 267.282 20.1393 267.282 20.6353C267.282 21.0673 267.466 21.4273 267.834 21.7153C268.218 21.9873 268.858 22.2753 269.754 22.5793C271.13 23.0273 272.106 23.5313 272.682 24.0913C273.258 24.6513 273.546 25.4113 273.546 26.3713C273.546 27.4273 273.154 28.2593 272.37 28.8673C271.586 29.4593 270.522 29.7553 269.178 29.7553C267.674 29.7553 266.37 29.4913 265.266 28.9633V26.9233C266.626 27.5793 267.906 27.9073 269.106 27.9073C269.826 27.9073 270.402 27.7793 270.834 27.5233C271.266 27.2513 271.482 26.8593 271.482 26.3473Z" fill="black"/>
</svg>
