<svg width="160" height="45" viewBox="0 0 160 45" fill="none" xmlns="http://www.w3.org/2000/svg">
<rect width="159.534" height="45" rx="6" fill="#EADEC4"/>
<path d="M26.6283 24.0689C26.7833 22.0544 27.7131 20.3498 29.2628 18.9551C30.6574 17.7154 32.672 16.9406 34.8415 16.9406C37.011 16.9406 38.8706 17.7154 40.4203 18.9551C41.9699 20.1948 42.8997 22.0544 43.0547 24.0689C43.2096 26.0835 42.2798 28.098 40.8852 29.4927C39.3355 30.8874 37.321 31.8171 34.8415 31.8171C32.3621 31.8171 30.3475 30.8874 28.7979 29.4927C27.2482 28.098 26.4734 26.0835 26.6283 24.0689Z" fill="white"/>
<path d="M31.122 23.9141C31.122 22.8293 31.7418 21.8995 32.5167 21.2797C33.2915 20.6598 34.2213 20.1949 35.306 20.1949C36.3908 20.1949 37.4756 20.5049 38.0954 21.2797C38.8702 21.8995 39.3351 22.8293 39.4901 23.9141C39.4901 24.9988 39.1802 25.9286 38.4053 26.7034C37.6305 27.4783 36.5458 27.9432 35.306 27.9432C34.0663 27.9432 32.9816 27.4783 32.2067 26.7034C31.4319 25.9286 30.967 24.8439 31.122 23.9141Z" fill="#275888"/>
<path d="M24.4589 26.0835C24.4589 26.5484 24.6138 27.3232 24.7688 27.9431C25.2337 29.1828 25.8536 30.4225 26.7834 31.5072C27.7132 32.592 28.9529 33.5218 30.3476 34.1416C31.7423 34.7615 33.4469 35.0714 34.9965 35.0714C36.5462 35.0714 38.2508 34.7615 39.6455 34.1416C41.0402 33.5218 42.2799 32.592 43.2097 31.5072C44.1395 30.4225 44.9143 29.1828 45.2242 27.9431C45.3792 27.3232 45.5342 26.5484 45.5342 25.9285V23.914C45.3792 22.6743 44.9143 21.4346 44.1395 20.3498C43.5196 19.2651 42.7448 18.4902 41.815 17.7154L32.2071 10.2771C31.5873 9.81224 30.5025 9.81224 29.8827 10.2771C29.4178 10.5871 29.2628 11.5168 29.8827 11.9817L33.9118 15.236H21.6695C20.5847 15.236 19.655 15.8558 19.5 16.7856C19.345 17.7154 19.9649 18.3353 21.0496 18.3353H27.2483L16.0908 26.8583C15.006 27.6331 14.6961 29.0278 15.3159 29.8026C15.9358 30.7324 17.4854 30.7324 18.4152 29.8026L24.4589 24.8438C24.6138 24.9987 24.4589 25.6186 24.4589 26.0835ZM40.1104 28.253C38.8707 29.4927 37.166 30.2675 35.1515 30.2675C33.1369 30.2675 31.4323 29.4927 30.1926 28.253C29.7277 27.6331 29.2628 27.0133 28.9529 26.2384C28.6429 25.4636 28.6429 24.6888 28.6429 23.914C28.6429 23.1392 28.9529 22.3643 29.2628 21.7445C29.5727 21.1246 30.1926 20.5048 30.8125 20.0399C32.0522 19.1101 33.6018 18.4902 35.1515 18.4902C36.7011 18.4902 38.2508 18.9551 39.4905 20.0399C40.1104 20.5048 40.5753 21.1246 41.0402 21.7445C41.3501 22.3643 41.66 23.1392 41.66 23.914C41.66 24.6888 41.66 25.4636 41.3501 26.2384C41.1951 27.0133 40.7302 27.6331 40.1104 28.253Z" fill="#EB7704"/>
<path d="M67.9742 19.928C68.6302 20.136 69.1742 20.56 69.6062 21.2C70.0382 21.824 70.2542 22.536 70.2542 23.336C70.2542 25.16 69.5342 26.56 68.0942 27.536C66.6702 28.512 64.7662 29 62.3822 29H56.2142L58.9502 11.72H64.6862C66.5582 11.72 68.0382 12.088 69.1262 12.824C70.2142 13.56 70.7582 14.608 70.7582 15.968C70.7582 16.928 70.5022 17.752 69.9902 18.44C69.4942 19.112 68.8222 19.608 67.9742 19.928ZM62.5742 15.224L61.9982 18.776H63.7742C64.3662 18.776 64.8222 18.696 65.1422 18.536C65.8782 18.232 66.2462 17.64 66.2462 16.76C66.2462 15.736 65.6302 15.224 64.3982 15.224H62.5742ZM63.8942 21.632H61.5662L60.9422 25.496H63.1742C63.9102 25.496 64.5182 25.304 64.9982 24.92C65.4942 24.52 65.7422 23.968 65.7422 23.264C65.7422 22.736 65.5742 22.336 65.2382 22.064C64.9022 21.776 64.4542 21.632 63.8942 21.632ZM72.0401 25.376L74.2001 11.72H78.4721L76.4561 24.416C76.3121 25.296 76.6161 25.736 77.3681 25.736C77.7681 25.736 78.2081 25.632 78.6881 25.424L78.1121 28.952C77.5041 29.208 76.6161 29.336 75.4481 29.336C74.2001 29.336 73.2721 29.008 72.6641 28.352C72.0561 27.68 71.8481 26.688 72.0401 25.376ZM87.105 16.664C88.673 16.664 89.881 17.112 90.729 18.008C91.561 18.888 91.977 20.024 91.977 21.416C91.977 22.376 91.825 23.192 91.521 23.864H84.201C84.185 24.488 84.401 24.968 84.849 25.304C85.297 25.624 85.937 25.784 86.769 25.784C87.505 25.784 88.313 25.696 89.193 25.52C90.057 25.344 90.641 25.176 90.945 25.016L90.393 28.592C89.305 29.088 87.777 29.336 85.809 29.336C83.953 29.336 82.481 28.84 81.393 27.848C80.337 26.872 79.809 25.568 79.809 23.936C79.809 21.904 80.529 20.184 81.969 18.776C83.393 17.368 85.105 16.664 87.105 16.664ZM84.489 21.896H87.921C88.017 21.304 87.945 20.832 87.705 20.48C87.481 20.128 87.097 19.952 86.553 19.952C86.025 19.952 85.569 20.136 85.185 20.504C84.817 20.856 84.585 21.32 84.489 21.896ZM93.1455 29L95.0415 17H98.9295L98.8575 18.224C98.8575 18.528 98.7855 18.784 98.6415 18.992H98.6895C99.0575 18.4 99.6575 17.864 100.489 17.384C101.305 16.904 102.129 16.664 102.961 16.664C104.289 16.664 105.257 17.08 105.865 17.912C106.473 18.744 106.649 19.944 106.393 21.512L105.217 29H100.945L102.025 22.16C102.201 21.056 101.857 20.504 100.993 20.504C100.321 20.504 99.7455 20.736 99.2655 21.2C98.8015 21.664 98.5135 22.256 98.4015 22.976L97.4415 29H93.1455ZM117.32 11.72H119.552V29H117.488L117.44 27.584L117.512 26.696H117.464C117.112 27.416 116.552 28.024 115.784 28.52C114.984 29.032 114.128 29.288 113.216 29.288C111.616 29.288 110.288 28.704 109.232 27.536C108.176 26.368 107.648 24.856 107.648 23C107.648 21.16 108.168 19.648 109.208 18.464C110.264 17.296 111.584 16.712 113.168 16.712C114.064 16.712 114.896 16.92 115.664 17.336C116.432 17.752 116.992 18.272 117.344 18.896H117.392C117.344 18.656 117.32 18.328 117.32 17.912V11.72ZM113.528 18.656C112.44 18.656 111.544 19.064 110.84 19.88C110.152 20.664 109.808 21.704 109.808 23C109.808 24.28 110.152 25.32 110.84 26.12C111.544 26.936 112.44 27.344 113.528 27.344C114.536 27.344 115.416 26.968 116.168 26.216C116.92 25.464 117.296 24.392 117.296 23C117.296 21.608 116.92 20.536 116.168 19.784C115.416 19.032 114.536 18.656 113.528 18.656ZM128.809 16.712C130.505 16.712 131.833 17.256 132.793 18.344C133.753 19.432 134.233 20.752 134.233 22.304C134.233 22.448 134.225 22.68 134.209 23C134.193 23.304 134.185 23.464 134.185 23.48H125.257V23.504C125.289 24.688 125.681 25.624 126.433 26.312C127.185 27 128.185 27.344 129.433 27.344C131.145 27.344 132.593 26.968 133.777 26.216V28.256C132.561 28.944 131.065 29.288 129.289 29.288C127.385 29.288 125.849 28.704 124.681 27.536C123.513 26.368 122.929 24.856 122.929 23C122.929 21.176 123.489 19.68 124.609 18.512C125.745 17.312 127.145 16.712 128.809 16.712ZM125.281 21.896H132.025C132.041 20.952 131.753 20.168 131.161 19.544C130.569 18.904 129.777 18.584 128.785 18.584C127.841 18.584 127.041 18.904 126.385 19.544C125.745 20.168 125.377 20.952 125.281 21.896ZM139.595 29H137.363V17H139.451L139.475 18.68L139.451 19.568H139.475C140.275 17.664 141.507 16.712 143.171 16.712C143.459 16.712 143.699 16.736 143.891 16.784V18.944C143.699 18.896 143.491 18.872 143.267 18.872C142.163 18.872 141.275 19.376 140.603 20.384C139.931 21.36 139.595 22.488 139.595 23.768V29Z" fill="black"/>
</svg>
