<svg width="244" height="45" viewBox="0 0 244 45" fill="none" xmlns="http://www.w3.org/2000/svg">
<rect width="243.993" height="45" rx="6" fill="#EADEC4"/>
<path d="M44.6602 8.08063H23.5384C22.8101 8.08063 22.2212 8.68499 22.2212 9.39782V15.271L34.4634 18.8661L45.9929 15.271V9.41332C45.9929 8.68499 45.3885 8.09612 44.6757 8.09612H44.6602V8.08063Z" fill="#50A1D9"/>
<path d="M45.9927 15.2865H22.2056V22.4923L34.4478 24.6618L45.9772 22.4923V15.2865H45.9927Z" fill="#3A79BD"/>
<path d="M22.2056 22.4923V29.6981L33.735 31.1393L45.9772 29.6981V22.4923H22.2056Z" fill="#2A5BA7"/>
<path d="M23.5383 36.9194H44.6755C45.4039 36.9194 45.9927 36.315 45.9927 35.6022V29.7291H22.2056V35.6022C22.2056 36.3305 22.8099 36.9194 23.5228 36.9194H23.5383Z" fill="#17428E"/>
<path opacity="0.1" d="M30.961 13.8608H22.1899V31.8677H30.961C31.6893 31.8677 32.2782 31.2633 32.2782 30.5505V15.178C32.2782 14.4497 31.6738 13.8608 30.961 13.8608Z" fill="#010101"/>
<path opacity="0.2" d="M30.2483 14.5736H22.2056V32.5805H30.2483C30.9766 32.5805 31.5655 31.9761 31.5655 31.2633V15.9063C31.5655 15.178 30.9611 14.5891 30.2483 14.5891V14.5736Z" fill="#010101"/>
<path opacity="0.2" d="M30.2483 14.5736H22.2056V31.1548H30.2483C30.9766 31.1548 31.5655 30.5504 31.5655 29.8376V15.9063C31.5655 15.178 30.9611 14.5891 30.2483 14.5891V14.5736Z" fill="#010101"/>
<path opacity="0.2" d="M29.5354 14.5736H22.2056V31.1548H29.5354C30.2638 31.1548 30.8526 30.5504 30.8526 29.8376V15.9063C30.8526 15.178 30.2483 14.5891 29.5354 14.5891V14.5736Z" fill="#010101"/>
<path d="M16.3172 14.5736H29.5357C30.2641 14.5736 30.853 15.178 30.853 15.8908V29.1093C30.853 29.8376 30.2486 30.4265 29.5357 30.4265H16.3172C15.5889 30.4265 15 29.8221 15 29.1093V15.9063C15 15.178 15.6044 14.5891 16.3172 14.5891V14.5736Z" fill="url(#paint0_linear_257_2)"/>
<path d="M20.4236 24.6927C20.4545 24.8942 20.47 25.0646 20.47 25.2196H20.501C20.501 25.0801 20.532 24.9097 20.5785 24.7082C20.6095 24.5068 20.6405 24.3363 20.6715 24.1968L22.0507 18.2152H23.8483L25.2895 24.1194C25.3669 24.4758 25.4289 24.8632 25.4599 25.2351H25.4909C25.5219 24.8787 25.5684 24.5068 25.6459 24.1503L26.7926 18.2152H28.4198L26.4052 26.8157H24.4836L23.1199 21.1285C23.0735 20.9736 23.0425 20.7566 22.9805 20.4777C22.9185 20.1988 22.903 20.0283 22.8875 19.8888H22.8565C22.841 20.0283 22.81 20.2297 22.7635 20.5242C22.717 20.8031 22.686 20.9891 22.6551 21.144L21.3688 26.8157H19.4163L17.3862 18.2307H19.0599L20.3151 24.2278C20.3461 24.3518 20.3616 24.5068 20.3926 24.7082H20.4081L20.4236 24.6927Z" fill="white"/>
<path d="M69.6572 21.152L65.9612 24.224L63.2252 21.152L62.2412 20.216L60.8492 29H56.6732L59.4572 11.48H59.5532L66.7532 19.136L76.4012 11.48H76.5212L73.7372 29H69.5132L70.9052 20.216L69.6572 21.152ZM76.7998 29L78.6958 17H82.9918L81.0958 29H76.7998ZM79.0558 13.928C79.0558 13.16 79.3038 12.544 79.7998 12.08C80.2958 11.6 80.9438 11.36 81.7438 11.36C82.3678 11.36 82.8478 11.528 83.1838 11.864C83.5358 12.184 83.7118 12.632 83.7118 13.208C83.7118 13.976 83.4638 14.6 82.9678 15.08C82.4718 15.56 81.8318 15.8 81.0478 15.8C80.4238 15.8 79.9358 15.632 79.5838 15.296C79.2318 14.96 79.0558 14.504 79.0558 13.928ZM88.2928 23.432C88.2928 24.12 88.5088 24.664 88.9408 25.064C89.3728 25.448 89.9648 25.64 90.7168 25.64C91.2448 25.64 91.8128 25.536 92.4208 25.328C93.0288 25.12 93.5008 24.904 93.8368 24.68L93.2128 28.496C91.9968 29.056 90.7488 29.336 89.4688 29.336C87.7568 29.336 86.4048 28.84 85.4128 27.848C84.4208 26.824 83.9248 25.528 83.9248 23.96C83.9248 21.896 84.6368 20.168 86.0608 18.776C87.4688 17.368 89.2688 16.664 91.4608 16.664C92.7568 16.664 93.9008 16.936 94.8928 17.48L94.2928 21.32C94.0048 21.064 93.5968 20.84 93.0688 20.648C92.5568 20.456 92.0528 20.36 91.5568 20.36C90.6288 20.36 89.8528 20.648 89.2288 21.224C88.6048 21.8 88.2928 22.536 88.2928 23.432ZM99.4931 29H95.2211L97.1171 17H101.005C100.957 17.24 100.933 17.544 100.933 17.912C100.933 18.024 100.925 18.144 100.909 18.272C100.909 18.384 100.901 18.472 100.885 18.536C100.885 18.6 100.885 18.64 100.885 18.656C101.989 17.328 103.245 16.664 104.653 16.664C104.861 16.664 105.077 16.68 105.301 16.712H105.421L104.773 20.888H104.725C104.533 20.776 104.269 20.72 103.933 20.72C103.101 20.72 102.325 21.008 101.605 21.584C100.901 22.16 100.461 22.952 100.285 23.96L99.4931 29ZM112.79 16.664C114.47 16.664 115.822 17.176 116.846 18.2C117.87 19.208 118.382 20.512 118.382 22.112C118.382 24.144 117.638 25.856 116.15 27.248C114.694 28.64 112.91 29.336 110.798 29.336C109.134 29.336 107.782 28.832 106.742 27.824C105.718 26.8 105.206 25.496 105.206 23.912C105.206 21.864 105.942 20.144 107.414 18.752C108.87 17.36 110.662 16.664 112.79 16.664ZM111.35 25.784C112.134 25.784 112.83 25.48 113.438 24.872C114.03 24.28 114.326 23.504 114.326 22.544C114.326 21.84 114.134 21.28 113.75 20.864C113.366 20.432 112.862 20.216 112.238 20.216C111.454 20.216 110.758 20.52 110.15 21.128C109.558 21.72 109.262 22.496 109.262 23.456C109.262 24.16 109.454 24.728 109.838 25.16C110.222 25.576 110.726 25.784 111.35 25.784ZM124.931 25.328C124.931 25.136 124.811 24.976 124.571 24.848C124.331 24.72 123.907 24.576 123.299 24.416C122.163 24.112 121.315 23.696 120.755 23.168C120.211 22.64 119.939 21.928 119.939 21.032C119.939 19.704 120.419 18.648 121.379 17.864C122.339 17.064 123.643 16.664 125.291 16.664C126.827 16.664 128.179 16.904 129.347 17.384L128.771 21.008C127.891 20.544 126.931 20.24 125.891 20.096C125.315 20.064 124.971 20.056 124.859 20.072C124.203 20.152 123.875 20.376 123.875 20.744C123.875 21.096 124.347 21.392 125.291 21.632C126.555 21.968 127.467 22.392 128.027 22.904C128.587 23.416 128.867 24.104 128.867 24.968C128.867 26.344 128.347 27.416 127.307 28.184C126.267 28.952 124.827 29.336 122.987 29.336C121.483 29.336 120.131 29.08 118.931 28.568L119.507 24.848C120.035 25.168 120.675 25.448 121.427 25.688C122.243 25.912 122.923 26.024 123.467 26.024C124.443 26.024 124.931 25.792 124.931 25.328ZM137.868 16.664C139.548 16.664 140.9 17.176 141.924 18.2C142.948 19.208 143.46 20.512 143.46 22.112C143.46 24.144 142.716 25.856 141.228 27.248C139.772 28.64 137.988 29.336 135.876 29.336C134.212 29.336 132.86 28.832 131.82 27.824C130.796 26.8 130.284 25.496 130.284 23.912C130.284 21.864 131.02 20.144 132.492 18.752C133.948 17.36 135.74 16.664 137.868 16.664ZM136.428 25.784C137.212 25.784 137.908 25.48 138.516 24.872C139.108 24.28 139.404 23.504 139.404 22.544C139.404 21.84 139.212 21.28 138.828 20.864C138.444 20.432 137.94 20.216 137.316 20.216C136.532 20.216 135.836 20.52 135.228 21.128C134.636 21.72 134.34 22.496 134.34 23.456C134.34 24.16 134.532 24.728 134.916 25.16C135.3 25.576 135.804 25.784 136.428 25.784ZM144.706 20.312L145.234 17H146.866L147.01 16.064C147.25 14.592 147.882 13.448 148.906 12.632C149.946 11.8 151.314 11.384 153.01 11.384C153.682 11.384 154.234 11.432 154.666 11.528L154.114 15.104C153.794 14.992 153.386 14.936 152.89 14.936C151.706 14.936 151.026 15.48 150.85 16.568L150.778 17H153.394L152.866 20.312H150.442L148.234 34.28H143.962L146.17 20.312H144.706ZM153.907 20.312L154.435 17H155.995L156.571 13.4H160.723L160.147 17H163.123L162.595 20.312H159.619L158.971 24.416C158.891 24.88 158.963 25.232 159.187 25.472C159.411 25.712 159.747 25.832 160.195 25.832C160.755 25.832 161.419 25.672 162.187 25.352L161.635 28.808C160.883 29.16 159.787 29.336 158.347 29.336C157.195 29.336 156.283 29.064 155.611 28.52C154.939 27.976 154.595 27.152 154.579 26.048C154.595 25.552 154.635 25.128 154.699 24.776L155.395 20.312H153.907ZM175.232 29.288L168.296 11.72H170.792L173.552 18.944C173.824 19.68 174.384 21.272 175.232 23.72C175.52 22.904 176.12 21.392 177.032 19.184L179.96 11.96H180.008L182.936 19.184C183.848 21.392 184.448 22.904 184.736 23.72C185.584 21.272 186.144 19.68 186.416 18.944L189.176 11.72H191.672L184.736 29.288H184.688L180.968 19.904C180.424 18.528 180.096 17.664 179.984 17.312L179 19.904L175.28 29.288H175.232ZM197.197 16.712C198.989 16.712 200.469 17.312 201.637 18.512C202.805 19.68 203.389 21.176 203.389 23C203.389 24.824 202.805 26.328 201.637 27.512C200.453 28.696 198.973 29.288 197.197 29.288C195.437 29.288 193.965 28.696 192.781 27.512C191.613 26.328 191.029 24.824 191.029 23C191.029 21.176 191.613 19.68 192.781 18.512C193.965 17.312 195.437 16.712 197.197 16.712ZM197.197 27.344C198.381 27.344 199.341 26.936 200.077 26.12C200.845 25.304 201.229 24.264 201.229 23C201.229 21.736 200.845 20.696 200.077 19.88C199.341 19.064 198.381 18.656 197.197 18.656C196.045 18.656 195.085 19.064 194.317 19.88C193.565 20.712 193.189 21.752 193.189 23C193.189 24.248 193.565 25.288 194.317 26.12C195.085 26.936 196.045 27.344 197.197 27.344ZM208.819 29H206.587V17H208.675L208.699 18.68L208.675 19.568H208.699C209.499 17.664 210.731 16.712 212.395 16.712C212.683 16.712 212.923 16.736 213.115 16.784V18.944C212.923 18.896 212.715 18.872 212.491 18.872C211.387 18.872 210.499 19.376 209.827 20.384C209.155 21.36 208.819 22.488 208.819 23.768V29ZM224.536 11.72H226.768V29H224.704L224.656 27.584L224.728 26.696H224.68C224.328 27.416 223.768 28.024 223 28.52C222.2 29.032 221.344 29.288 220.432 29.288C218.832 29.288 217.504 28.704 216.448 27.536C215.392 26.368 214.864 24.856 214.864 23C214.864 21.16 215.384 19.648 216.424 18.464C217.48 17.296 218.8 16.712 220.384 16.712C221.28 16.712 222.112 16.92 222.88 17.336C223.648 17.752 224.208 18.272 224.56 18.896H224.608C224.56 18.656 224.536 18.328 224.536 17.912V11.72ZM220.744 18.656C219.656 18.656 218.76 19.064 218.056 19.88C217.368 20.664 217.024 21.704 217.024 23C217.024 24.28 217.368 25.32 218.056 26.12C218.76 26.936 219.656 27.344 220.744 27.344C221.752 27.344 222.632 26.968 223.384 26.216C224.136 25.464 224.512 24.392 224.512 23C224.512 21.608 224.136 20.536 223.384 19.784C222.632 19.032 221.752 18.656 220.744 18.656Z" fill="black"/>
<defs>
<linearGradient id="paint0_linear_257_2" x1="17.7584" y1="13.5508" x2="28.0945" y2="31.4648" gradientUnits="userSpaceOnUse">
<stop stop-color="#3267B0"/>
<stop offset="0.5" stop-color="#2D5DA9"/>
<stop offset="1" stop-color="#244C9B"/>
</linearGradient>
</defs>
</svg>
