<svg width="128" height="45" viewBox="0 0 128 45" fill="none" xmlns="http://www.w3.org/2000/svg">
<rect width="127.475" height="45" rx="6" fill="#EADEC4"/>
<path d="M28.7144 37.9926C28.296 37.9926 27.8931 37.8841 27.5367 37.6671L23.7555 35.4202C23.1822 35.0947 23.4611 35.0018 23.6471 34.9243C24.4064 34.6608 24.5614 34.5988 25.3517 34.1494C25.4292 34.103 25.5531 34.1185 25.6461 34.1649L28.5595 35.8851C28.6679 35.9315 28.8074 35.9315 28.9159 35.8851L40.2748 29.3301C40.3833 29.2681 40.4453 29.1441 40.4453 29.0201V15.9256C40.4453 15.7862 40.3833 15.6777 40.2748 15.6002L28.9159 9.04523C28.8074 8.98325 28.6834 8.98325 28.5595 9.04523L17.2005 15.6002C17.0765 15.6622 17.0145 15.7862 17.0145 15.9101V29.0046C17.0145 29.1286 17.0765 29.2371 17.185 29.3146L20.2998 31.1121C21.9889 31.9645 23.0272 30.9572 23.0272 29.9654V17.0414C23.0272 16.8554 23.1822 16.716 23.3681 16.716H24.8093C24.9953 16.716 25.1347 16.8554 25.1347 17.0414V29.9809C25.1347 32.2279 23.895 33.5296 21.772 33.5296C21.1056 33.5296 20.6097 33.5296 19.1531 32.8168L16.1777 31.0966C15.4339 30.6782 15 29.8724 15 29.0201V15.9256C15 15.0733 15.4494 14.2675 16.1777 13.8646L27.5522 7.30963C28.2805 6.90672 29.2258 6.90672 29.9387 7.30963L41.2976 13.8646C42.0259 14.283 42.4754 15.0888 42.4754 15.9256V29.0201C42.4754 29.8724 42.0259 30.6628 41.2976 31.0812L29.9387 37.6361C29.5667 37.8376 29.1638 37.9616 28.7454 37.9616" fill="#689F63"/>
<path d="M32.6973 28.0438C28.3273 28.0438 27.3975 26.0293 27.3975 24.3402C27.3975 24.1852 27.5369 24.0457 27.6919 24.0457H28.9936C29.1331 24.0457 29.257 24.1542 29.288 24.2937C29.4895 25.6109 30.0629 26.2772 32.7128 26.2772C34.8203 26.2772 35.7191 25.7968 35.7191 24.6811C35.7191 24.0457 35.4712 23.5654 32.1859 23.2399C29.443 22.9765 27.7539 22.3566 27.7539 20.1871C27.7539 18.1571 29.4585 16.9639 32.3099 16.9639C35.5176 16.9639 37.1138 18.0796 37.3152 20.4661C37.3152 20.5435 37.2997 20.6365 37.2378 20.683C37.1913 20.7295 37.0983 20.7605 37.0208 20.7605H35.7191C35.5796 20.7605 35.4711 20.652 35.4247 20.5435C35.0992 19.1644 34.3554 18.715 32.2944 18.715C30.0009 18.715 29.7219 19.5053 29.7219 20.1251C29.7219 20.8535 30.0474 21.0704 33.1467 21.4733C36.215 21.8762 37.6872 22.4496 37.6872 24.6191C37.6872 26.7886 35.8586 28.0438 32.6973 28.0438Z" fill="#689F63"/>
<path d="M70.6036 11.72L67.8196 29.24H67.6516L60.0436 21.44L58.8196 20.288L57.4516 29H53.1556L55.9396 11.48H56.1316L63.6676 19.256C63.7636 19.336 63.9716 19.536 64.2916 19.856C64.6116 20.16 64.8196 20.352 64.9156 20.432L66.2836 11.72H70.6036ZM78.5225 16.664C80.2025 16.664 81.5545 17.176 82.5785 18.2C83.6025 19.208 84.1145 20.512 84.1145 22.112C84.1145 24.144 83.3705 25.856 81.8825 27.248C80.4265 28.64 78.6425 29.336 76.5305 29.336C74.8665 29.336 73.5145 28.832 72.4745 27.824C71.4505 26.8 70.9385 25.496 70.9385 23.912C70.9385 21.864 71.6745 20.144 73.1465 18.752C74.6025 17.36 76.3945 16.664 78.5225 16.664ZM77.0825 25.784C77.8665 25.784 78.5625 25.48 79.1705 24.872C79.7625 24.28 80.0585 23.504 80.0585 22.544C80.0585 21.84 79.8665 21.28 79.4825 20.864C79.0985 20.432 78.5945 20.216 77.9705 20.216C77.1865 20.216 76.4905 20.52 75.8825 21.128C75.2905 21.72 74.9945 22.496 74.9945 23.456C74.9945 24.16 75.1865 24.728 75.5705 25.16C75.9545 25.576 76.4585 25.784 77.0825 25.784ZM96.1782 11.72H100.45L97.7142 29H93.8502L93.8982 28.064L94.0662 27.296H94.0182C93.6662 27.872 93.1062 28.36 92.3382 28.76C91.5702 29.144 90.7782 29.336 89.9622 29.336C88.5862 29.336 87.4582 28.872 86.5782 27.944C85.6982 27.016 85.2582 25.736 85.2582 24.104C85.2582 21.88 85.9142 20.088 87.2262 18.728C88.5542 17.352 90.0982 16.664 91.8582 16.664C92.6422 16.664 93.3222 16.8 93.8982 17.072C94.4902 17.344 94.9142 17.712 95.1702 18.176H95.2182C95.2022 18.016 95.2342 17.68 95.3142 17.168L96.1782 11.72ZM92.2422 20.216C91.4422 20.216 90.7542 20.528 90.1782 21.152C89.6182 21.76 89.3382 22.536 89.3382 23.48C89.3382 24.168 89.5222 24.728 89.8902 25.16C90.2582 25.576 90.7462 25.784 91.3542 25.784C92.1222 25.784 92.8022 25.488 93.3942 24.896C93.9862 24.304 94.2822 23.512 94.2822 22.52C94.2822 21.816 94.0902 21.256 93.7062 20.84C93.3222 20.424 92.8342 20.216 92.2422 20.216ZM107.835 16.664C109.403 16.664 110.611 17.112 111.459 18.008C112.291 18.888 112.707 20.024 112.707 21.416C112.707 22.376 112.555 23.192 112.251 23.864H104.931C104.915 24.488 105.131 24.968 105.579 25.304C106.027 25.624 106.667 25.784 107.499 25.784C108.235 25.784 109.043 25.696 109.923 25.52C110.787 25.344 111.371 25.176 111.675 25.016L111.123 28.592C110.035 29.088 108.507 29.336 106.539 29.336C104.683 29.336 103.211 28.84 102.123 27.848C101.067 26.872 100.539 25.568 100.539 23.936C100.539 21.904 101.259 20.184 102.699 18.776C104.123 17.368 105.835 16.664 107.835 16.664ZM105.219 21.896H108.651C108.747 21.304 108.675 20.832 108.435 20.48C108.211 20.128 107.827 19.952 107.283 19.952C106.755 19.952 106.299 20.136 105.915 20.504C105.547 20.856 105.315 21.32 105.219 21.896Z" fill="black"/>
</svg>
