<svg width="130" height="45" viewBox="0 0 130 45" fill="none" xmlns="http://www.w3.org/2000/svg">
<rect width="129.274" height="45" rx="6" fill="#EADEC4"/>
<path d="M17.4794 34.8971L15 7.00354H42.2739L39.7945 34.8971L28.637 37.9964L17.4794 34.8971Z" fill="#3655A2"/>
<path d="M37.6252 33.0375L39.7947 9.17303H28.6372V35.517L37.6252 33.0375Z" fill="#3C61AB"/>
<path d="M20.7336 19.5712L21.0436 22.9804H28.6369V19.5712H20.7336ZM20.4237 16.162H28.6369V12.7527H20.1138L20.4237 16.162ZM28.6369 28.5436L24.7627 27.4589L24.4528 24.6695H21.1985L21.6634 30.0933L28.6369 32.1078V28.5436Z" fill="#EBEBEB"/>
<path d="M28.6372 19.5712V22.9804H32.8213L32.3564 27.4744L28.6372 28.5591V32.1233L35.6106 30.1087V29.4889L36.3855 20.501L36.5404 19.5712L37.1603 12.5978H28.6372V16.007H33.4411L33.1312 19.5712H28.6372Z" fill="white"/>
<path d="M68.7459 12.536L68.0979 16.544C66.7379 15.776 65.2739 15.392 63.7059 15.392C61.9459 15.392 60.4979 15.96 59.3619 17.096C58.2419 18.216 57.6819 19.544 57.6819 21.08C57.6819 22.28 58.0579 23.296 58.8099 24.128C59.5619 24.928 60.6019 25.328 61.9299 25.328C63.6579 25.328 65.3539 24.944 67.0179 24.176L66.3699 28.232C64.8499 28.968 63.0339 29.336 60.9219 29.336C58.6179 29.336 56.7619 28.608 55.3539 27.152C53.9299 25.68 53.2179 23.832 53.2179 21.608C53.2179 18.808 54.2659 16.408 56.3619 14.408C58.4579 12.392 60.9859 11.384 63.9459 11.384C65.7699 11.384 67.3699 11.768 68.7459 12.536ZM74.2254 29.336C72.1934 29.336 70.4974 29.024 69.1374 28.4L69.8094 24.176C71.0414 24.88 72.3374 25.296 73.6974 25.424C74.0654 25.472 74.5134 25.48 75.0414 25.448C76.6574 25.352 77.4654 24.904 77.4654 24.104C77.4654 23.736 77.2734 23.424 76.8894 23.168C76.5054 22.912 75.7454 22.552 74.6094 22.088C73.2014 21.528 72.1774 20.904 71.5374 20.216C70.9134 19.512 70.6014 18.6 70.6014 17.48C70.6014 15.656 71.2974 14.184 72.6894 13.064C74.0654 11.944 75.8574 11.384 78.0654 11.384C79.8574 11.384 81.3534 11.656 82.5534 12.2L81.9054 16.256C80.8654 15.536 79.5054 15.176 77.8254 15.176C76.9774 15.176 76.2894 15.32 75.7614 15.608C75.2494 15.896 74.9934 16.264 74.9934 16.712C74.9934 17.048 75.1934 17.368 75.5934 17.672C76.0094 17.976 76.7054 18.344 77.6814 18.776C79.1374 19.4 80.1854 20.056 80.8254 20.744C81.4814 21.432 81.8094 22.336 81.8094 23.456C81.8094 25.264 81.1374 26.696 79.7934 27.752C78.4494 28.808 76.5934 29.336 74.2254 29.336ZM88.7801 29.336C86.7481 29.336 85.0521 29.024 83.6921 28.4L84.3641 24.176C85.5961 24.88 86.8921 25.296 88.2521 25.424C88.6201 25.472 89.0681 25.48 89.5961 25.448C91.2121 25.352 92.0201 24.904 92.0201 24.104C92.0201 23.736 91.8281 23.424 91.4441 23.168C91.0601 22.912 90.3001 22.552 89.1641 22.088C87.7561 21.528 86.7321 20.904 86.0921 20.216C85.4681 19.512 85.1561 18.6 85.1561 17.48C85.1561 15.656 85.8521 14.184 87.2441 13.064C88.6201 11.944 90.4121 11.384 92.6201 11.384C94.4121 11.384 95.9081 11.656 97.1081 12.2L96.4601 16.256C95.4201 15.536 94.0601 15.176 92.3801 15.176C91.5321 15.176 90.8441 15.32 90.3161 15.608C89.8041 15.896 89.5481 16.264 89.5481 16.712C89.5481 17.048 89.7481 17.368 90.1481 17.672C90.5641 17.976 91.2601 18.344 92.2361 18.776C93.6921 19.4 94.7401 20.056 95.3801 20.744C96.0361 21.432 96.3641 22.336 96.3641 23.456C96.3641 25.264 95.6921 26.696 94.3481 27.752C93.0041 28.808 91.1481 29.336 88.7801 29.336ZM110.07 16.256C110.07 15.392 109.766 14.72 109.158 14.24C108.55 13.744 107.718 13.496 106.662 13.496C105.398 13.496 104.182 13.792 103.014 14.384V12.272C104.182 11.712 105.494 11.432 106.95 11.432C108.63 11.432 109.966 11.856 110.958 12.704C111.966 13.552 112.47 14.656 112.47 16.016C112.47 16.96 112.182 17.792 111.606 18.512C111.03 19.232 110.27 19.76 109.326 20.096C110.35 20.384 111.174 20.928 111.798 21.728C112.438 22.528 112.758 23.464 112.758 24.536C112.758 25.928 112.214 27.072 111.126 27.968C110.054 28.848 108.662 29.288 106.95 29.288C105.35 29.288 103.934 28.968 102.702 28.328V26.216C104.046 26.888 105.414 27.224 106.806 27.224C107.862 27.224 108.718 26.96 109.374 26.432C110.03 25.888 110.358 25.184 110.358 24.32C110.358 23.28 109.958 22.472 109.158 21.896C108.374 21.32 107.27 21.032 105.846 21.032H105.342V19.208H106.038C107.206 19.208 108.166 18.936 108.918 18.392C109.686 17.848 110.07 17.136 110.07 16.256Z" fill="black"/>
</svg>
