<svg width="274" height="45" viewBox="0 0 274 45" fill="none" xmlns="http://www.w3.org/2000/svg">
<rect width="273.993" height="45" rx="6" fill="#EADEC4"/>
<path d="M20.4858 7.00354H40.5073C43.5446 7.00354 45.9931 9.51396 45.9931 12.6287V32.3712C45.9931 35.486 43.5446 37.9964 40.5073 37.9964H20.4858C17.4485 37.9964 15 35.486 15 32.3712V12.6287C15 9.51396 17.4485 7.00354 20.4858 7.00354Z" fill="#132035"/>
<path d="M21.973 28.7451V15.1237C21.973 15.0463 22.004 14.9688 22.1125 14.9688H22.8408C23.1508 14.9688 23.4607 14.9688 23.8326 14.9378C24.1735 14.9378 24.5609 14.9378 24.9484 14.9068H26.1106C27.1644 14.9068 28.0477 15.0463 28.7605 15.3097C29.3959 15.5267 30.0002 15.8986 30.4961 16.3945C30.9145 16.8129 31.2399 17.3397 31.4414 17.8976C31.6429 18.4555 31.7358 19.0289 31.7358 19.6177C31.7358 20.749 31.4724 21.6942 30.961 22.4381C30.4496 23.1819 29.7213 23.7398 28.8845 24.0652C28.0167 24.4061 27.0404 24.5146 25.9866 24.5146H24.7779V28.7761C24.7779 28.8536 24.7314 28.9466 24.6229 28.9621H22.1125C22.0195 28.9621 21.9575 28.9156 21.9575 28.7916V28.7451H21.973ZM24.7934 17.5257V21.9732C24.9793 21.9732 25.1343 22.0042 25.3048 22.0042H26.0021C26.5135 22.0042 27.0094 21.9267 27.4898 21.7717C27.9082 21.6477 28.2646 21.3998 28.5435 21.0589C28.807 20.718 28.9465 20.2841 28.9465 19.6952C28.9465 19.2923 28.869 18.8739 28.652 18.5175C28.4351 18.1765 28.1252 17.9131 27.7532 17.7581C27.2728 17.5567 26.7614 17.4947 26.2346 17.4947H24.8399V17.5412L24.7934 17.5257Z" fill="#53A0D8"/>
<path d="M39.7938 21.1674C39.3909 20.9504 38.988 20.8109 38.5541 20.718C38.0737 20.6095 37.5933 20.5475 37.0974 20.5475C36.834 20.5475 36.5705 20.5785 36.3226 20.625C36.1521 20.656 36.0127 20.7645 35.9197 20.8884C35.8577 20.9969 35.8267 21.1209 35.8267 21.2448C35.8267 21.3688 35.8732 21.4773 35.9662 21.5858C36.0746 21.7407 36.2296 21.8492 36.4156 21.9422C36.71 22.0972 37.0199 22.2521 37.3454 22.3761C38.0427 22.6085 38.7091 22.9495 39.3444 23.3369C39.7783 23.6003 40.1192 23.9722 40.3672 24.4371C40.5841 24.8555 40.6771 25.3359 40.6616 25.8008C40.6616 26.4207 40.4912 27.056 40.1502 27.5519C39.7938 28.0788 39.2824 28.4972 38.6936 28.7296C38.0737 28.9931 37.2989 29.148 36.3536 29.148C35.7647 29.148 35.1913 29.1015 34.587 28.9776C34.1376 28.9001 33.6882 28.7606 33.2698 28.5592C33.1923 28.5127 33.1148 28.4042 33.1148 28.3112V26.0177C33.1148 26.0177 33.1148 25.9403 33.1613 25.8938C33.1923 25.8628 33.2388 25.8938 33.2698 25.8938C33.7812 26.2037 34.308 26.4207 34.8659 26.5291C35.3618 26.6686 35.8732 26.7306 36.3846 26.7306C36.896 26.7306 37.2214 26.6686 37.4538 26.5446C37.6708 26.4671 37.7948 26.2192 37.7948 25.9868C37.7948 25.8008 37.7018 25.6303 37.4848 25.4599C37.2679 25.2894 36.865 25.088 36.2141 24.84C35.5478 24.6076 34.9434 24.2822 34.3855 23.8947C33.9826 23.6003 33.6417 23.2129 33.3937 22.7635C33.1768 22.3451 33.0838 21.8647 33.0993 21.4153C33.0993 20.8419 33.2543 20.2996 33.5487 19.8037C33.8741 19.2768 34.3545 18.8584 34.8969 18.5795C35.5013 18.254 36.2606 18.1301 37.1904 18.1301C37.7173 18.1301 38.2597 18.161 38.7865 18.254C39.1894 18.3005 39.5459 18.409 39.8868 18.564C39.9333 18.564 39.9798 18.626 40.0263 18.6879C40.0263 18.7344 40.0573 18.7964 40.0573 18.8429V21.0124C40.0573 21.0124 40.0263 21.1209 39.9953 21.1519C39.8868 21.1829 39.8093 21.1829 39.7628 21.1519H39.7783L39.7938 21.1674Z" fill="#53A0D8"/>
<path d="M59.3852 29H54.8012L66.1772 11.48H66.3932L72.2012 29H67.6172L66.8012 26.36H60.9932L59.3852 29ZM65.0492 19.28L62.7452 23.408H66.0332C65.5692 21.744 65.2412 20.368 65.0492 19.28ZM83.9692 11.72H88.2412L85.5052 29H81.6412L81.6892 28.064L81.8572 27.296H81.8092C81.4572 27.872 80.8972 28.36 80.1292 28.76C79.3612 29.144 78.5692 29.336 77.7532 29.336C76.3772 29.336 75.2492 28.872 74.3692 27.944C73.4892 27.016 73.0492 25.736 73.0492 24.104C73.0492 21.88 73.7052 20.088 75.0172 18.728C76.3452 17.352 77.8892 16.664 79.6492 16.664C80.4332 16.664 81.1132 16.8 81.6892 17.072C82.2812 17.344 82.7052 17.712 82.9612 18.176H83.0092C82.9932 18.016 83.0252 17.68 83.1052 17.168L83.9692 11.72ZM80.0332 20.216C79.2332 20.216 78.5452 20.528 77.9692 21.152C77.4092 21.76 77.1292 22.536 77.1292 23.48C77.1292 24.168 77.3132 24.728 77.6812 25.16C78.0492 25.576 78.5372 25.784 79.1452 25.784C79.9132 25.784 80.5932 25.488 81.1852 24.896C81.7772 24.304 82.0732 23.512 82.0732 22.52C82.0732 21.816 81.8812 21.256 81.4972 20.84C81.1132 20.424 80.6252 20.216 80.0332 20.216ZM95.9385 16.664C97.6185 16.664 98.9705 17.176 99.9945 18.2C101.018 19.208 101.53 20.512 101.53 22.112C101.53 24.144 100.786 25.856 99.2985 27.248C97.8425 28.64 96.0585 29.336 93.9465 29.336C92.2825 29.336 90.9305 28.832 89.8905 27.824C88.8665 26.8 88.3545 25.496 88.3545 23.912C88.3545 21.864 89.0905 20.144 90.5625 18.752C92.0185 17.36 93.8105 16.664 95.9385 16.664ZM94.4985 25.784C95.2825 25.784 95.9785 25.48 96.5865 24.872C97.1785 24.28 97.4745 23.504 97.4745 22.544C97.4745 21.84 97.2825 21.28 96.8985 20.864C96.5145 20.432 96.0105 20.216 95.3865 20.216C94.6025 20.216 93.9065 20.52 93.2985 21.128C92.7065 21.72 92.4105 22.496 92.4105 23.456C92.4105 24.16 92.6025 24.728 92.9865 25.16C93.3705 25.576 93.8745 25.784 94.4985 25.784ZM110.744 20.216C109.976 20.216 109.296 20.512 108.704 21.104C108.112 21.696 107.816 22.488 107.816 23.48C107.816 24.184 108.008 24.744 108.392 25.16C108.776 25.576 109.264 25.784 109.856 25.784C110.656 25.784 111.344 25.48 111.92 24.872C112.496 24.248 112.784 23.464 112.784 22.52C112.784 21.816 112.592 21.256 112.208 20.84C111.84 20.424 111.352 20.216 110.744 20.216ZM106.352 29H102.464L105.2 11.72H109.496L108.632 17.168L108.392 18.176H108.44C109.368 17.168 110.632 16.664 112.232 16.664C113.576 16.664 114.68 17.128 115.544 18.056C116.408 18.984 116.84 20.256 116.84 21.872C116.84 24.112 116.176 25.92 114.848 27.296C113.536 28.656 111.96 29.336 110.12 29.336C109.304 29.336 108.576 29.144 107.936 28.76C107.296 28.36 106.888 27.872 106.712 27.296H106.664C106.68 27.456 106.648 27.712 106.568 28.064L106.352 29ZM125.251 16.664C126.819 16.664 128.027 17.112 128.875 18.008C129.707 18.888 130.123 20.024 130.123 21.416C130.123 22.376 129.971 23.192 129.667 23.864H122.347C122.331 24.488 122.547 24.968 122.995 25.304C123.443 25.624 124.083 25.784 124.915 25.784C125.651 25.784 126.459 25.696 127.339 25.52C128.203 25.344 128.787 25.176 129.091 25.016L128.539 28.592C127.451 29.088 125.923 29.336 123.955 29.336C122.099 29.336 120.627 28.84 119.539 27.848C118.483 26.872 117.955 25.568 117.955 23.936C117.955 21.904 118.675 20.184 120.115 18.776C121.539 17.368 123.251 16.664 125.251 16.664ZM122.635 21.896H126.067C126.163 21.304 126.091 20.832 125.851 20.48C125.627 20.128 125.243 19.952 124.699 19.952C124.171 19.952 123.715 20.136 123.331 20.504C122.963 20.856 122.731 21.32 122.635 21.896ZM143.179 22.28H140.179V29H137.875V11.72H143.179C145.019 11.72 146.459 12.192 147.499 13.136C148.539 14.064 149.059 15.352 149.059 17C149.059 18.648 148.539 19.944 147.499 20.888C146.459 21.816 145.019 22.28 143.179 22.28ZM143.107 13.664H140.179V20.336H143.299C144.371 20.336 145.203 20.04 145.795 19.448C146.403 18.856 146.707 18.04 146.707 17C146.707 15.96 146.387 15.144 145.747 14.552C145.107 13.96 144.227 13.664 143.107 13.664ZM154.073 29H151.841V11.72H154.049V18.392C154.049 18.504 154.041 18.656 154.025 18.848C154.025 19.04 154.017 19.208 154.001 19.352C153.985 19.496 153.977 19.576 153.977 19.592H154.001C154.353 18.872 154.905 18.216 155.657 17.624C156.441 17.016 157.393 16.712 158.513 16.712C161.249 16.712 162.617 18.296 162.617 21.464V29H160.385V21.92C160.385 20.944 160.225 20.176 159.905 19.616C159.601 19.056 159.001 18.776 158.105 18.776C156.937 18.776 155.969 19.192 155.201 20.024C154.449 20.856 154.073 21.88 154.073 23.096V29ZM171.79 16.712C173.582 16.712 175.062 17.312 176.23 18.512C177.398 19.68 177.982 21.176 177.982 23C177.982 24.824 177.398 26.328 176.23 27.512C175.046 28.696 173.566 29.288 171.79 29.288C170.03 29.288 168.558 28.696 167.374 27.512C166.206 26.328 165.622 24.824 165.622 23C165.622 21.176 166.206 19.68 167.374 18.512C168.558 17.312 170.03 16.712 171.79 16.712ZM171.79 27.344C172.974 27.344 173.934 26.936 174.67 26.12C175.438 25.304 175.822 24.264 175.822 23C175.822 21.736 175.438 20.696 174.67 19.88C173.934 19.064 172.974 18.656 171.79 18.656C170.638 18.656 169.678 19.064 168.91 19.88C168.158 20.712 167.782 21.752 167.782 23C167.782 24.248 168.158 25.288 168.91 26.12C169.678 26.936 170.638 27.344 171.79 27.344ZM179.597 18.824V17H181.589V13.4H183.773V17H187.397V18.824H183.773V25.04C183.773 26.56 184.365 27.32 185.549 27.32C186.333 27.32 187.085 27.144 187.805 26.792V28.736C187.117 29.104 186.221 29.288 185.117 29.288C184.061 29.288 183.205 28.992 182.549 28.4C181.893 27.792 181.565 26.896 181.565 25.712V18.824H179.597ZM195.556 16.712C197.348 16.712 198.828 17.312 199.996 18.512C201.164 19.68 201.748 21.176 201.748 23C201.748 24.824 201.164 26.328 199.996 27.512C198.812 28.696 197.332 29.288 195.556 29.288C193.796 29.288 192.324 28.696 191.14 27.512C189.972 26.328 189.388 24.824 189.388 23C189.388 21.176 189.972 19.68 191.14 18.512C192.324 17.312 193.796 16.712 195.556 16.712ZM195.556 27.344C196.74 27.344 197.7 26.936 198.436 26.12C199.204 25.304 199.588 24.264 199.588 23C199.588 21.736 199.204 20.696 198.436 19.88C197.7 19.064 196.74 18.656 195.556 18.656C194.404 18.656 193.444 19.064 192.676 19.88C191.924 20.712 191.548 21.752 191.548 23C191.548 24.248 191.924 25.288 192.676 26.12C193.444 26.936 194.404 27.344 195.556 27.344ZM210.395 25.88C210.395 25.416 210.203 25.048 209.819 24.776C209.451 24.504 208.755 24.2 207.731 23.864C206.483 23.464 205.563 22.984 204.971 22.424C204.395 21.848 204.107 21.072 204.107 20.096C204.107 19.104 204.507 18.296 205.307 17.672C206.107 17.032 207.139 16.712 208.403 16.712C209.619 16.712 210.747 16.952 211.787 17.432V19.448C210.715 18.888 209.667 18.608 208.643 18.608C207.907 18.608 207.315 18.744 206.867 19.016C206.419 19.288 206.195 19.672 206.195 20.168C206.195 20.6 206.379 20.96 206.747 21.248C207.131 21.52 207.771 21.808 208.667 22.112C210.043 22.56 211.019 23.064 211.595 23.624C212.171 24.184 212.459 24.944 212.459 25.904C212.459 26.96 212.067 27.792 211.283 28.4C210.499 28.992 209.435 29.288 208.091 29.288C206.587 29.288 205.283 29.024 204.179 28.496V26.456C205.539 27.112 206.819 27.44 208.019 27.44C208.739 27.44 209.315 27.312 209.747 27.056C210.179 26.784 210.395 26.392 210.395 25.88ZM217.917 29H215.685V11.72H217.893V18.392C217.893 18.504 217.885 18.656 217.869 18.848C217.869 19.04 217.861 19.208 217.845 19.352C217.829 19.496 217.821 19.576 217.821 19.592H217.845C218.197 18.872 218.749 18.216 219.501 17.624C220.285 17.016 221.237 16.712 222.357 16.712C225.093 16.712 226.461 18.296 226.461 21.464V29H224.229V21.92C224.229 20.944 224.069 20.176 223.749 19.616C223.445 19.056 222.845 18.776 221.949 18.776C220.781 18.776 219.813 19.192 219.045 20.024C218.293 20.856 217.917 21.88 217.917 23.096V29ZM235.634 16.712C237.426 16.712 238.906 17.312 240.074 18.512C241.242 19.68 241.826 21.176 241.826 23C241.826 24.824 241.242 26.328 240.074 27.512C238.89 28.696 237.41 29.288 235.634 29.288C233.874 29.288 232.402 28.696 231.218 27.512C230.05 26.328 229.466 24.824 229.466 23C229.466 21.176 230.05 19.68 231.218 18.512C232.402 17.312 233.874 16.712 235.634 16.712ZM235.634 27.344C236.818 27.344 237.778 26.936 238.514 26.12C239.282 25.304 239.666 24.264 239.666 23C239.666 21.736 239.282 20.696 238.514 19.88C237.778 19.064 236.818 18.656 235.634 18.656C234.482 18.656 233.522 19.064 232.754 19.88C232.002 20.712 231.626 21.752 231.626 23C231.626 24.248 232.002 25.288 232.754 26.12C233.522 26.936 234.482 27.344 235.634 27.344ZM247.449 34.28H245.217V17H247.281L247.329 18.248L247.257 19.136H247.305C247.657 18.464 248.217 17.896 248.985 17.432C249.769 16.952 250.625 16.712 251.553 16.712C253.153 16.712 254.481 17.304 255.537 18.488C256.593 19.672 257.121 21.176 257.121 23C257.121 24.856 256.593 26.368 255.537 27.536C254.513 28.704 253.201 29.288 251.601 29.288C250.705 29.288 249.873 29.064 249.105 28.616C248.337 28.168 247.777 27.608 247.425 26.936H247.377C247.425 27.176 247.449 27.504 247.449 27.92V34.28ZM251.241 27.344C252.329 27.344 253.225 26.944 253.929 26.144C254.617 25.344 254.961 24.296 254.961 23C254.961 21.72 254.617 20.68 253.929 19.88C253.241 19.064 252.345 18.656 251.241 18.656C250.233 18.656 249.353 19.032 248.601 19.784C247.849 20.536 247.473 21.608 247.473 23C247.473 24.392 247.849 25.464 248.601 26.216C249.353 26.968 250.233 27.344 251.241 27.344Z" fill="black"/>
</svg>
