<svg width="131" height="45" viewBox="0 0 131 45" fill="none" xmlns="http://www.w3.org/2000/svg">
<rect width="130.766" height="45" rx="6" fill="#ED8E6A"/>
<path d="M20.2691 37.9964C23.0585 37.9964 25.383 35.6719 25.383 32.8826V27.7687H20.2691C17.4798 27.7687 15.1553 30.0932 15.1553 32.8826C15.1553 35.6719 17.3248 37.9964 20.2691 37.9964Z" fill="#4CB37D"/>
<path d="M15 22.5C15 19.7106 17.3245 17.3862 20.1139 17.3862H25.3827V27.7688H20.2688C17.3245 27.6138 15 25.2893 15 22.5Z" fill="#765FA6"/>
<path d="M15 12.1174C15 9.32806 17.3245 7.0036 20.2688 7.0036H25.3827V17.3862H20.2688C17.3245 17.3862 15 15.0617 15 12.1174Z" fill="#E95025"/>
<path d="M25.3828 7.0036H30.4967C33.286 7.0036 35.6105 9.32806 35.6105 12.1174C35.6105 14.9068 33.286 17.2312 30.4967 17.2312H25.3828V7.0036Z" fill="#EE7265"/>
<path d="M35.7655 22.5C35.7655 25.2893 33.441 27.6138 30.6516 27.6138C27.8623 27.6138 25.3828 25.2893 25.3828 22.5C25.3828 19.7106 27.7073 17.3862 30.4967 17.3862C33.286 17.3862 35.7655 19.7106 35.7655 22.5Z" fill="#46B7EA"/>
<path d="M59.9336 11.72L59.3576 15.416H52.9976L52.4696 18.728H57.8216L57.2456 22.328H51.8936L50.8376 29H46.4456L49.1816 11.72H59.9336ZM58.8379 29L60.7339 17H65.0299L63.1339 29H58.8379ZM61.0939 13.928C61.0939 13.16 61.3419 12.544 61.8379 12.08C62.3339 11.6 62.9819 11.36 63.7819 11.36C64.4059 11.36 64.8859 11.528 65.2219 11.864C65.5739 12.184 65.7499 12.632 65.7499 13.208C65.7499 13.976 65.5019 14.6 65.0059 15.08C64.5099 15.56 63.8699 15.8 63.0859 15.8C62.4619 15.8 61.9739 15.632 61.6219 15.296C61.2699 14.96 61.0939 14.504 61.0939 13.928ZM65.6749 33.704L66.2749 29.936C67.4589 30.608 68.7389 30.944 70.1149 30.944C71.3629 30.944 72.3709 30.704 73.1389 30.224C73.9069 29.76 74.3549 29.104 74.4829 28.256C74.5149 27.936 74.5469 27.776 74.5789 27.776H74.5309C73.5389 28.816 72.2109 29.336 70.5469 29.336C69.2029 29.336 68.0989 28.872 67.2349 27.944C66.3709 27.016 65.9389 25.744 65.9389 24.128C65.9389 21.904 66.6029 20.104 67.9309 18.728C69.2589 17.352 70.8269 16.664 72.6349 16.664C73.4669 16.664 74.2029 16.856 74.8429 17.24C75.4829 17.608 75.8909 18.08 76.0669 18.656H76.1149C76.0989 18.448 76.1229 18.192 76.1869 17.888L76.4269 17H80.2909L78.6109 27.608C78.5469 28.232 78.4509 28.712 78.3229 29.048C77.8429 30.856 76.8989 32.232 75.4909 33.176C74.0989 34.136 72.3549 34.616 70.2589 34.616C68.0989 34.616 66.5709 34.312 65.6749 33.704ZM72.0349 25.784C72.8029 25.784 73.4829 25.488 74.0749 24.896C74.6669 24.304 74.9629 23.512 74.9629 22.52C74.9629 21.816 74.7709 21.256 74.3869 20.84C74.0029 20.424 73.5149 20.216 72.9229 20.216C72.1389 20.216 71.4589 20.528 70.8829 21.152C70.3069 21.744 70.0189 22.52 70.0189 23.48C70.0189 24.184 70.2029 24.744 70.5709 25.16C70.9389 25.576 71.4269 25.784 72.0349 25.784ZM82.0121 29V17H84.1001L84.1481 18.68C84.1481 19.176 84.1161 19.48 84.0521 19.592H84.1001C84.4361 18.728 85.0041 18.032 85.8041 17.504C86.6041 16.976 87.5001 16.712 88.4921 16.712C89.4041 16.712 90.1801 16.96 90.8201 17.456C91.4761 17.936 91.9001 18.6 92.0921 19.448H92.1161C92.5001 18.648 93.0761 17.992 93.8441 17.48C94.6121 16.968 95.4281 16.712 96.2921 16.712C99.0921 16.712 100.492 18.296 100.492 21.464V29H98.2601V21.896C98.2601 20.872 98.0841 20.096 97.7321 19.568C97.3961 19.04 96.8201 18.776 96.0041 18.776C94.7881 18.776 93.8841 19.24 93.2921 20.168C92.6841 21.096 92.3801 22.184 92.3801 23.432V29H90.1481V21.872C90.1481 20.848 89.9801 20.08 89.6441 19.568C89.3241 19.04 88.7561 18.776 87.9401 18.776C86.7561 18.776 85.8441 19.24 85.2041 20.168C84.5641 21.064 84.2441 22.152 84.2441 23.432V29H82.0121ZM104.105 19.664V17.6C105.193 17.008 106.601 16.712 108.329 16.712C111.689 16.712 113.369 18.256 113.369 21.344V29H111.305L111.281 27.584L111.353 26.624H111.305C111.145 26.992 110.777 27.48 110.201 28.088C109.401 28.888 108.377 29.288 107.129 29.288C105.993 29.288 105.073 28.968 104.369 28.328C103.681 27.688 103.337 26.832 103.337 25.76C103.337 24.256 104.025 23.176 105.401 22.52C106.777 21.864 108.697 21.712 111.161 22.064V21.464C111.161 19.592 110.113 18.656 108.017 18.656C106.529 18.656 105.225 18.992 104.105 19.664ZM107.513 27.488C108.505 27.488 109.353 27.088 110.057 26.288C110.761 25.488 111.113 24.6 111.113 23.624C109.305 23.336 107.921 23.384 106.961 23.768C106.017 24.136 105.545 24.776 105.545 25.688C105.545 26.216 105.721 26.648 106.073 26.984C106.441 27.32 106.921 27.488 107.513 27.488Z" fill="black"/>
</svg>
