<svg width="80" height="73" viewBox="0 0 80 73" fill="none" xmlns="http://www.w3.org/2000/svg">
<path d="M65.0265 0H14.3965C3.32653 0 -3.58348 11.98 1.94652 21.57L27.2665 65.42C32.7965 75 46.6365 75 52.1665 65.42L77.4865 21.57C83.0165 11.99 76.1065 0 65.0365 0H65.0265ZM21.1665 15.83L19.9865 19.98C19.6965 20.99 18.2665 20.99 17.9765 19.98L16.7965 15.83C16.6065 15.16 17.1065 14.5 17.8065 14.5H20.1565C20.8465 14.5 21.3465 15.16 21.1665 15.83ZM31.5265 40.36L30.3465 44.51C30.0565 45.52 28.6265 45.52 28.3365 44.51L27.1565 40.36C26.9665 39.69 27.4665 39.03 28.1665 39.03H30.5165C31.2065 39.03 31.7065 39.69 31.5265 40.36ZM41.8965 57.68L40.7165 61.83C40.4265 62.84 38.9965 62.84 38.7065 61.83L37.5265 57.68C37.3365 57.01 37.8365 56.35 38.5365 56.35H40.8865C41.5765 56.35 42.0765 57.01 41.8965 57.68ZM41.8965 26.55L40.7165 30.7C40.4265 31.71 38.9965 31.71 38.7065 30.7L37.5265 26.55C37.3365 25.88 37.8365 25.22 38.5365 25.22H40.8865C41.5765 25.22 42.0765 25.88 41.8965 26.55ZM52.2565 40.36L51.0765 44.51C50.7865 45.52 49.3565 45.52 49.0665 44.51L47.8865 40.36C47.6965 39.69 48.1965 39.03 48.8965 39.03H51.2465C51.9365 39.03 52.4365 39.69 52.2565 40.36ZM62.6165 15.83L61.4365 19.98C61.1465 20.99 59.7165 20.99 59.4265 19.98L58.2465 15.83C58.0565 15.16 58.5565 14.5 59.2565 14.5H61.6065C62.2965 14.5 62.7965 15.16 62.6165 15.83ZM63.1465 8.82L50.3065 4.05C49.3365 3.69 48.2565 4.05 47.7065 4.93L41.5665 14.69C40.7165 16.05 38.7365 16.05 37.8765 14.69L32.1665 5.61C31.6165 4.74 30.5265 4.37 29.5665 4.73L16.2965 9.67C14.7065 10.26 13.0765 8.89 13.3965 7.22L14.3265 2.4C14.5265 1.37 15.4165 0.63 16.4665 0.63H63.1565C64.1965 0.63 65.0965 1.37 65.2965 2.4L66.0565 6.37C66.3765 8.04 64.7465 9.42 63.1565 8.82H63.1465Z" fill="#DC4405"/>
</svg>
