<svg width="189" height="103" viewBox="0 0 189 103" fill="none" xmlns="http://www.w3.org/2000/svg">
<path d="M0 89.7282C0 81.3139 4.56491 76.749 13.0245 76.749C19.8537 76.749 24.1107 79.8919 24.1107 84.8101C24.1107 89.1123 21.3029 91.277 15.3794 91.6303L9.00302 92.0741C9.36532 94.5105 10.9051 95.5702 14.2925 95.5702C16.3304 95.5702 18.7216 95.1264 20.533 94.4199C22.2087 93.7135 23.3861 94.0214 23.3861 95.4797V98.3599C23.3861 99.7366 22.6615 100.66 21.1671 101.195C19.0839 101.992 15.9228 102.572 13.1151 102.572C4.15733 102.572 0 98.4958 0 89.7282ZM12.164 87.1559C14.836 86.9386 16.0044 86.3589 16.0044 84.9822C16.0044 83.6055 14.8722 82.899 12.8796 82.899C10.5247 82.899 9.16605 84.4478 8.94868 87.3733L12.164 87.1559Z" fill="black"/>
<path d="M26.3206 89.7282C26.3206 81.0875 30.5685 76.749 39.164 76.749C41.6548 76.749 43.5025 77.1928 44.4082 77.5461C45.5857 77.9899 46.1744 78.8322 45.8574 80.1999L45.2687 83.216C44.9516 84.9007 44.0459 84.9459 42.5967 84.5474C41.3287 84.1489 40.6494 84.013 39.6078 84.013C36.5283 84.013 35.3599 85.6524 35.3599 89.5924C35.3599 93.5323 36.6279 95.3076 39.6531 95.3076C40.7852 95.3076 41.6457 95.1717 43.584 94.6917C44.9879 94.3837 45.7125 94.7822 45.7125 96.3763V99.2566C45.7125 100.679 45.2143 101.385 43.7651 101.874C42.5877 102.318 40.9121 102.581 38.8379 102.581C30.4689 102.581 26.3116 98.1969 26.3116 89.7373L26.3206 89.7282Z" fill="black"/>
<path d="M47.6236 89.6829C47.6236 81.0422 51.9168 76.749 60.5122 76.749C69.1077 76.749 73.4461 81.0422 73.4461 89.6829C73.4461 98.3237 69.1077 102.572 60.5122 102.572C51.9168 102.572 47.6236 98.2693 47.6236 89.6829ZM64.5428 89.6829C64.5428 85.5166 63.4106 83.9225 60.5213 83.9225C57.632 83.9225 56.536 85.5166 56.536 89.6829C56.536 93.8493 57.6682 95.3981 60.5213 95.3981C63.3744 95.3981 64.5428 93.804 64.5428 89.6829Z" fill="black"/>
<path d="M78.7447 100.461V87.4728H77.4767C76.0275 87.4728 75.4388 86.875 75.4388 85.3986V82.1742C75.4388 80.6979 76.0275 80.0548 77.4767 80.0548H78.7447V79.3211C78.7447 71.9032 82.5035 68.3979 90.4106 68.3979C92.6749 68.3979 93.309 69.041 93.309 71.1604V73.8777C93.309 75.2181 92.6749 75.9065 91.2711 75.9065C88.5086 75.9065 87.5123 77.0115 87.5123 79.8646V80.0457H90.003C91.4069 80.0457 92.0409 80.6888 92.0409 82.1651V85.3896C92.0409 86.8659 91.4069 87.4637 90.003 87.4637H87.5123V100.452C87.5123 101.974 86.9235 102.571 85.4743 102.571H80.8189C79.3697 102.571 78.7357 101.974 78.7357 100.452L78.7447 100.461Z" fill="black"/>
<path d="M94.8396 100.515V79.0127C94.8396 77.5726 95.4737 76.9385 96.8775 76.9385H100.546C101.995 76.9385 102.584 77.5273 102.584 78.9583V80.9419C103.671 78.8768 106.877 76.8208 109.232 76.8208C110.726 76.8208 111.36 77.5726 111.36 79.0127V84.0939C111.36 85.534 110.726 86.1137 109.277 86.1137C107.737 86.1137 105.301 85.7966 103.625 85.4796V100.506C103.625 101.991 103.037 102.571 101.542 102.571H96.8866C95.4827 102.571 94.8487 101.982 94.8487 100.506L94.8396 100.515Z" fill="black"/>
<path d="M113.027 89.8274C113.027 81.4765 117.592 76.8481 126.051 76.8481C132.881 76.8481 137.138 80.0635 137.138 84.9454C137.138 89.2115 134.33 91.3671 128.406 91.7203L122.03 92.1551C122.392 94.5734 123.932 95.6331 127.319 95.6331C129.357 95.6331 131.748 95.1893 133.56 94.4919C135.236 93.7854 136.413 94.0934 136.413 95.5516V98.4137C136.413 99.7814 135.688 100.696 134.194 101.231C132.111 102.019 128.95 102.598 126.142 102.598C117.184 102.598 113.027 98.5496 113.027 89.8455V89.8274ZM125.191 87.2822C127.863 87.0649 129.031 86.4942 129.031 85.1266C129.031 83.7589 127.899 83.0615 125.906 83.0615C123.552 83.0615 122.193 84.6013 121.966 87.4996L125.182 87.2822H125.191Z" fill="black"/>
<path d="M141.023 101.439C139.619 101.041 139.121 100.38 139.121 99.0572V96.4125C139.121 94.6463 140.027 94.4289 141.702 94.909C143.876 95.6154 146.358 95.9687 148.396 95.9687C150.977 95.9687 152.064 95.5702 152.064 94.601C152.064 93.6319 151.43 93.2334 149.166 92.7896L146.539 92.2642C142.11 91.4219 139.619 89.0851 139.619 85.0727C139.619 80.0458 144.229 76.8667 151.738 76.8667C154.229 76.8667 157.118 77.3105 158.703 77.8811C159.971 78.4064 160.424 79.1582 160.152 80.5712L159.745 82.8174C159.473 84.2303 158.748 84.5836 156.937 84.0492C155.307 83.6054 153.676 83.4786 152.146 83.4786C149.881 83.4786 148.658 83.9677 148.658 84.9821C148.658 85.8607 149.383 86.2139 151.557 86.6577L154.183 87.183C158.748 88.0616 161.103 90.2263 161.103 94.4108C161.103 99.4829 156.538 102.571 148.939 102.571C146.222 102.571 143.287 102.128 141.023 101.421V101.439Z" fill="black"/>
<path d="M164.364 100.47V70.4993C164.364 68.9596 164.998 68.3618 166.402 68.3618H171.057C172.552 68.3618 173.141 68.9687 173.141 70.4993V78.2253C175.305 76.8305 178.213 76.8576 180.006 77.1565C182.687 77.6003 188.701 79.765 188.701 87.4457V100.479C188.701 102.019 188.112 102.617 186.663 102.617H182.008C180.559 102.617 179.925 102.01 179.925 100.479V88.1522C179.925 85.598 178.566 83.9224 176.89 83.9224C175.668 83.9224 174.264 84.1941 173.132 85.127V100.488C173.132 102.028 172.543 102.626 171.048 102.626H166.393C164.989 102.626 164.355 102.019 164.355 100.488L164.364 100.47Z" fill="black"/>
<path d="M85.4834 5.05061L67.7038 35.8728C63.8182 42.6115 68.682 51.0258 76.4532 51.0258H112.031C119.811 51.0167 124.666 42.5934 120.78 35.8638L102.982 5.05061C99.0876 -1.68807 89.369 -1.67901 85.4834 5.05061ZM79.7139 37.3129L81.8242 39.4867C82.3405 40.0211 81.8333 40.8906 81.1178 40.7095L78.1741 39.9668C77.7031 39.849 77.4767 39.3056 77.7213 38.8889L78.5455 37.4579C78.79 37.0322 79.3697 36.9597 79.7048 37.3129H79.7139ZM98.2815 39.6135L100.392 41.7873C100.908 42.3217 100.401 43.1912 99.6854 43.01L96.7417 42.2673C96.2707 42.1496 96.0443 41.6061 96.2888 41.1895L97.1131 39.7584C97.3576 39.3327 97.9373 39.2603 98.2724 39.6135H98.2815ZM112.465 39.3961L114.576 41.5699C115.092 42.1043 114.585 42.9738 113.869 42.7927L110.926 42.0499C110.455 41.9322 110.228 41.3888 110.473 40.9721L111.297 39.5411C111.541 39.1154 112.121 39.0429 112.456 39.3961H112.465ZM93.5173 28.4639L95.6277 30.6377C96.1439 31.1721 95.6367 32.0416 94.9212 31.8604L91.9775 31.1177C91.5066 31 91.2801 30.4565 91.5247 30.0399L92.3489 28.6088C92.5934 28.1831 93.1731 28.1107 93.5082 28.4639H93.5173ZM105.555 27.0057L107.665 29.1794C108.181 29.7138 107.674 30.5833 106.958 30.4022L104.015 29.6595C103.544 29.5417 103.317 28.9983 103.562 28.5816L104.386 27.1506C104.631 26.7249 105.21 26.6524 105.545 27.0057H105.555ZM94.2691 12.0882L96.3794 14.262C96.8957 14.7963 96.3885 15.6658 95.673 15.4847L92.7293 14.742C92.2583 14.6242 92.0319 14.0808 92.2764 13.6642L93.1007 12.2331C93.3452 11.8074 93.9249 11.7349 94.26 12.0882H94.2691ZM90.1842 9.29852L82.7662 15.4394C82.2046 15.9013 82.0507 16.6893 82.3858 17.3324L86.1718 24.4968C86.6971 25.4931 85.9997 26.6977 84.8766 26.743L77.3408 27.0328C76.6162 27.06 76.0094 27.5944 75.8917 28.3099L74.2342 38.119C74.0349 39.2965 72.622 39.8037 71.7253 39.0248L69.1168 36.7695C68.5643 36.2895 68.4284 35.4834 68.7907 34.8493L85.1845 6.42733C85.5559 5.79332 86.3167 5.50348 87.0141 5.74803L89.6951 6.68094C90.8273 7.07041 91.0899 8.54676 90.1661 9.30757L90.1842 9.29852Z" fill="black"/>
</svg>
