<svg width="115" height="43" viewBox="0 0 115 43" fill="none" xmlns="http://www.w3.org/2000/svg">
<path d="M10.184 15.126C9.77333 15.126 9.456 15.014 9.232 14.79C9.008 14.5567 8.896 14.2347 8.896 13.824V6.432C8.896 6.012 9.008 5.69 9.232 5.466C9.46533 5.242 9.78733 5.13 10.198 5.13H13.642C14.762 5.13 15.6253 5.41933 16.232 5.998C16.848 6.56733 17.156 7.356 17.156 8.364C17.156 9.372 16.848 10.1653 16.232 10.744C15.6253 11.3133 14.762 11.598 13.642 11.598H11.472V13.824C11.472 14.2347 11.3647 14.5567 11.15 14.79C10.9353 15.014 10.6133 15.126 10.184 15.126ZM11.472 9.624H13.194C13.6793 9.624 14.0527 9.52133 14.314 9.316C14.5753 9.10133 14.706 8.784 14.706 8.364C14.706 7.93467 14.5753 7.61733 14.314 7.412C14.0527 7.20667 13.6793 7.104 13.194 7.104H11.472V9.624ZM19.3262 15.126C18.9156 15.126 18.5982 15.0187 18.3742 14.804C18.1596 14.5893 18.0522 14.2767 18.0522 13.866V9.232C18.0522 8.83067 18.1549 8.52267 18.3602 8.308C18.5749 8.09333 18.8782 7.986 19.2702 7.986C19.6622 7.986 19.9609 8.09333 20.1662 8.308C20.3716 8.52267 20.4742 8.83067 20.4742 9.232V9.806H20.3342C20.4276 9.246 20.6656 8.80267 21.0482 8.476C21.4402 8.14933 21.9256 7.97667 22.5042 7.958C22.7749 7.94867 22.9756 8.01867 23.1062 8.168C23.2462 8.308 23.3209 8.574 23.3302 8.966C23.3302 9.302 23.2602 9.568 23.1202 9.764C22.9802 9.96 22.7142 10.0767 22.3222 10.114L22.0002 10.142C21.5056 10.1887 21.1462 10.3287 20.9222 10.562C20.6982 10.786 20.5862 11.122 20.5862 11.57V13.866C20.5862 14.2767 20.4789 14.5893 20.2642 14.804C20.0496 15.0187 19.7369 15.126 19.3262 15.126ZM25.3545 15.126C24.9625 15.126 24.6592 15.0093 24.4445 14.776C24.2299 14.5427 24.1225 14.2067 24.1225 13.768V9.344C24.1225 8.90533 24.2299 8.56933 24.4445 8.336C24.6592 8.10267 24.9625 7.986 25.3545 7.986C25.7559 7.986 26.0639 8.10267 26.2785 8.336C26.5025 8.56933 26.6145 8.90533 26.6145 9.344V13.768C26.6145 14.2067 26.5072 14.5427 26.2925 14.776C26.0779 15.0093 25.7652 15.126 25.3545 15.126ZM25.3545 6.992C24.9159 6.992 24.5752 6.88933 24.3325 6.684C24.0992 6.47867 23.9825 6.18 23.9825 5.788C23.9825 5.40533 24.0992 5.11133 24.3325 4.906C24.5752 4.70067 24.9159 4.598 25.3545 4.598C25.8119 4.598 26.1572 4.70067 26.3905 4.906C26.6239 5.11133 26.7405 5.40533 26.7405 5.788C26.7405 6.18 26.6239 6.47867 26.3905 6.684C26.1572 6.88933 25.8119 6.992 25.3545 6.992ZM29.32 15.126C28.928 15.126 28.6247 15.0187 28.41 14.804C28.1954 14.5893 28.088 14.2767 28.088 13.866V9.232C28.088 8.83067 28.1907 8.52267 28.396 8.308C28.6107 8.09333 28.914 7.986 29.306 7.986C29.698 7.986 29.9967 8.09333 30.202 8.308C30.4074 8.52267 30.51 8.83067 30.51 9.232V10.002L30.356 9.316C30.552 8.90533 30.8414 8.57867 31.224 8.336C31.616 8.084 32.078 7.958 32.61 7.958C33.114 7.958 33.5434 8.07933 33.898 8.322C34.262 8.56467 34.5234 8.93333 34.682 9.428H34.486C34.7007 8.97067 35.0227 8.61133 35.452 8.35C35.8814 8.08867 36.3574 7.958 36.88 7.958C37.4214 7.958 37.8647 8.06533 38.21 8.28C38.5554 8.48533 38.812 8.812 38.98 9.26C39.1574 9.69867 39.246 10.254 39.246 10.926V13.866C39.246 14.2767 39.134 14.5893 38.91 14.804C38.6954 15.0187 38.3874 15.126 37.986 15.126C37.594 15.126 37.2907 15.0187 37.076 14.804C36.8614 14.5893 36.754 14.2767 36.754 13.866V10.996C36.754 10.5947 36.6934 10.3053 36.572 10.128C36.4507 9.95067 36.25 9.862 35.97 9.862C35.6247 9.862 35.3587 9.98333 35.172 10.226C34.9947 10.4687 34.906 10.814 34.906 11.262V13.866C34.906 14.2767 34.7987 14.5893 34.584 14.804C34.3694 15.0187 34.0614 15.126 33.66 15.126C33.2587 15.126 32.9507 15.0187 32.736 14.804C32.5214 14.5893 32.414 14.2767 32.414 13.866V10.996C32.414 10.5947 32.3534 10.3053 32.232 10.128C32.1107 9.95067 31.91 9.862 31.63 9.862C31.294 9.862 31.0327 9.98333 30.846 10.226C30.6687 10.4687 30.58 10.814 30.58 11.262V13.866C30.58 14.706 30.16 15.126 29.32 15.126ZM43.0868 15.154C42.5548 15.154 42.0835 15.056 41.6728 14.86C41.2715 14.664 40.9542 14.398 40.7208 14.062C40.4968 13.7167 40.3848 13.3247 40.3848 12.886C40.3848 12.382 40.5155 11.9853 40.7768 11.696C41.0382 11.4067 41.4582 11.2013 42.0368 11.08C42.6155 10.9493 43.3855 10.884 44.3468 10.884H45.1168V12.06H44.3468C43.9828 12.06 43.6795 12.088 43.4368 12.144C43.2035 12.1907 43.0308 12.27 42.9188 12.382C42.8068 12.4847 42.7508 12.62 42.7508 12.788C42.7508 13.0027 42.8255 13.18 42.9748 13.32C43.1335 13.46 43.3575 13.53 43.6468 13.53C43.8802 13.53 44.0855 13.4787 44.2628 13.376C44.4495 13.2733 44.5988 13.1333 44.7108 12.956C44.8228 12.7693 44.8788 12.5547 44.8788 12.312V10.688C44.8788 10.352 44.7902 10.114 44.6128 9.974C44.4448 9.834 44.1508 9.764 43.7308 9.764C43.5068 9.764 43.2548 9.792 42.9748 9.848C42.6948 9.89467 42.3822 9.98333 42.0368 10.114C41.7848 10.2073 41.5702 10.2213 41.3928 10.156C41.2155 10.0907 41.0755 9.97867 40.9728 9.82C40.8795 9.66133 40.8328 9.48867 40.8328 9.302C40.8422 9.11533 40.9028 8.938 41.0148 8.77C41.1362 8.602 41.3182 8.47133 41.5608 8.378C42.0088 8.21 42.4195 8.098 42.7928 8.042C43.1755 7.986 43.5255 7.958 43.8428 7.958C44.6082 7.958 45.2382 8.07 45.7328 8.294C46.2368 8.50867 46.6102 8.84467 46.8528 9.302C47.1048 9.75 47.2308 10.3287 47.2308 11.038V13.866C47.2308 14.2767 47.1328 14.5893 46.9368 14.804C46.7408 15.0187 46.4562 15.126 46.0828 15.126C45.7002 15.126 45.4062 15.0187 45.2008 14.804C45.0048 14.5893 44.9068 14.2767 44.9068 13.866V13.502L44.9908 13.698C44.9442 13.9967 44.8368 14.2533 44.6688 14.468C44.5008 14.6827 44.2815 14.8507 44.0108 14.972C43.7402 15.0933 43.4322 15.154 43.0868 15.154ZM49.9239 15.126C49.5132 15.126 49.1959 15.0187 48.9719 14.804C48.7572 14.5893 48.6499 14.2767 48.6499 13.866V9.232C48.6499 8.83067 48.7525 8.52267 48.9579 8.308C49.1725 8.09333 49.4759 7.986 49.8679 7.986C50.2599 7.986 50.5585 8.09333 50.7639 8.308C50.9692 8.52267 51.0719 8.83067 51.0719 9.232V9.806H50.9319C51.0252 9.246 51.2632 8.80267 51.6459 8.476C52.0379 8.14933 52.5232 7.97667 53.1019 7.958C53.3725 7.94867 53.5732 8.01867 53.7039 8.168C53.8439 8.308 53.9185 8.574 53.9279 8.966C53.9279 9.302 53.8579 9.568 53.7179 9.764C53.5779 9.96 53.3119 10.0767 52.9199 10.114L52.5979 10.142C52.1032 10.1887 51.7439 10.3287 51.5199 10.562C51.2959 10.786 51.1839 11.122 51.1839 11.57V13.866C51.1839 14.2767 51.0765 14.5893 50.8619 14.804C50.6472 15.0187 50.3345 15.126 49.9239 15.126ZM55.9522 15.126C55.5602 15.126 55.2569 15.0093 55.0422 14.776C54.8275 14.5427 54.7202 14.2067 54.7202 13.768V9.344C54.7202 8.90533 54.8275 8.56933 55.0422 8.336C55.2569 8.10267 55.5602 7.986 55.9522 7.986C56.3535 7.986 56.6615 8.10267 56.8762 8.336C57.1002 8.56933 57.2122 8.90533 57.2122 9.344V13.768C57.2122 14.2067 57.1049 14.5427 56.8902 14.776C56.6755 15.0093 56.3629 15.126 55.9522 15.126ZM55.9522 6.992C55.5135 6.992 55.1729 6.88933 54.9302 6.684C54.6969 6.47867 54.5802 6.18 54.5802 5.788C54.5802 5.40533 54.6969 5.11133 54.9302 4.906C55.1729 4.70067 55.5135 4.598 55.9522 4.598C56.4095 4.598 56.7549 4.70067 56.9882 4.906C57.2215 5.11133 57.3382 5.40533 57.3382 5.788C57.3382 6.18 57.2215 6.47867 56.9882 6.684C56.7549 6.88933 56.4095 6.992 55.9522 6.992ZM62.1437 15.154C61.3784 15.154 60.711 15.0093 60.1417 14.72C59.5724 14.4307 59.129 14.0153 58.8117 13.474C58.4944 12.9327 58.3357 12.2933 58.3357 11.556C58.3357 10.996 58.4244 10.4967 58.6017 10.058C58.779 9.61 59.0357 9.232 59.3717 8.924C59.7077 8.60667 60.109 8.36867 60.5757 8.21C61.0424 8.042 61.565 7.958 62.1437 7.958C62.909 7.958 63.5764 8.10267 64.1457 8.392C64.715 8.68133 65.1537 9.09667 65.4617 9.638C65.779 10.17 65.9377 10.8093 65.9377 11.556C65.9377 12.1067 65.849 12.606 65.6717 13.054C65.4944 13.502 65.2377 13.8847 64.9017 14.202C64.575 14.51 64.1737 14.748 63.6977 14.916C63.231 15.0747 62.713 15.154 62.1437 15.154ZM62.1437 13.32C62.3957 13.32 62.6197 13.2593 62.8157 13.138C63.0117 13.0073 63.161 12.816 63.2637 12.564C63.3757 12.3027 63.4317 11.9667 63.4317 11.556C63.4317 10.9307 63.3104 10.4827 63.0677 10.212C62.825 9.932 62.517 9.792 62.1437 9.792C61.8917 9.792 61.6677 9.85267 61.4717 9.974C61.2757 10.0953 61.1217 10.2867 61.0097 10.548C60.8977 10.8 60.8417 11.136 60.8417 11.556C60.8417 12.172 60.963 12.62 61.2057 12.9C61.4484 13.18 61.761 13.32 62.1437 13.32Z" fill="#5A4522"/>
<circle cx="3" cy="39.5" r="3" fill="#5A4522"/>
<path d="M3 39.5L7.5 19H63" stroke="#5A4522" stroke-width="2" stroke-linecap="round"/>
</svg>
