<svg width="401" height="218" viewBox="0 0 401 218" fill="none" xmlns="http://www.w3.org/2000/svg">
<path d="M0 190.535C0 172.667 9.69345 162.974 27.6571 162.974C42.1588 162.974 51.1984 169.648 51.1984 180.091C51.1984 189.227 45.2361 193.823 32.6577 194.574L19.1176 195.516C19.887 200.69 23.1566 202.94 30.3497 202.94C34.6772 202.94 39.7547 201.997 43.6013 200.497C47.1594 198.997 49.6597 199.651 49.6597 202.748V208.864C49.6597 211.787 48.1211 213.749 44.9476 214.884C40.524 216.576 33.8117 217.807 27.8494 217.807C8.82797 217.807 0 209.152 0 190.535ZM25.83 185.072C31.5037 184.611 33.9848 183.38 33.9848 180.456C33.9848 177.533 31.5807 176.033 27.3494 176.033C22.3488 176.033 19.4638 179.322 19.0022 185.534L25.83 185.072Z" fill="#A8AD00"/>
<path d="M55.8911 190.535C55.8911 172.186 64.9114 162.974 83.1635 162.974C88.4526 162.974 92.3762 163.916 94.2995 164.666C96.7998 165.609 98.0499 167.397 97.3768 170.301L96.1266 176.706C95.4535 180.283 93.5301 180.38 90.4529 179.533C87.7602 178.687 86.3178 178.399 84.106 178.399C77.5667 178.399 75.0857 181.88 75.0857 190.246C75.0857 198.612 77.7783 202.382 84.2021 202.382C86.6062 202.382 88.4334 202.094 92.5493 201.074C95.5304 200.42 97.069 201.267 97.069 204.652V210.768C97.069 213.787 96.0112 215.288 92.9339 216.326C90.4336 217.269 86.8755 217.826 82.4712 217.826C64.6998 217.826 55.8719 208.517 55.8719 190.554L55.8911 190.535Z" fill="#A8AD00"/>
<path d="M101.127 190.438C101.127 172.09 110.244 162.974 128.496 162.974C146.748 162.974 155.961 172.09 155.961 190.438C155.961 208.787 146.748 217.807 128.496 217.807C110.244 217.807 101.127 208.671 101.127 190.438ZM137.055 190.438C137.055 181.591 134.65 178.206 128.515 178.206C122.38 178.206 120.053 181.591 120.053 190.438C120.053 199.286 122.457 202.574 128.515 202.574C134.574 202.574 137.055 199.189 137.055 190.438Z" fill="#A8AD00"/>
<path d="M167.212 213.326V185.746H164.519C161.442 185.746 160.192 184.476 160.192 181.341V174.494C160.192 171.359 161.442 169.994 164.519 169.994H167.212V168.436C167.212 152.684 175.194 145.241 191.984 145.241C196.792 145.241 198.139 146.607 198.139 151.107V156.877C198.139 159.723 196.792 161.185 193.811 161.185C187.945 161.185 185.83 163.532 185.83 169.59V169.975H191.119C194.1 169.975 195.446 171.34 195.446 174.475V181.322C195.446 184.457 194.1 185.727 191.119 185.727H185.83V213.307C185.83 216.538 184.579 217.807 181.502 217.807H171.616C168.539 217.807 167.193 216.538 167.193 213.307L167.212 213.326Z" fill="#A8AD00"/>
<path d="M201.389 213.441V167.782C201.389 164.724 202.735 163.377 205.717 163.377H213.506C216.583 163.377 217.833 164.627 217.833 167.666V171.878C220.141 167.493 226.95 163.127 231.95 163.127C235.124 163.127 236.47 164.724 236.47 167.782V178.571C236.47 181.629 235.124 182.86 232.047 182.86C228.777 182.86 223.603 182.187 220.045 181.514V213.422C220.045 216.576 218.795 217.807 215.622 217.807H205.736C202.755 217.807 201.408 216.557 201.408 213.422L201.389 213.441Z" fill="#A8AD00"/>
<path d="M240.009 190.746C240.009 173.013 249.703 163.185 267.666 163.185C282.168 163.185 291.207 170.013 291.207 180.379C291.207 189.438 285.245 194.016 272.667 194.766L259.127 195.689C259.896 200.824 263.166 203.074 270.359 203.074C274.686 203.074 279.764 202.132 283.61 200.651C287.169 199.151 289.669 199.805 289.669 202.901V208.979C289.669 211.883 288.13 213.826 284.957 214.96C280.533 216.634 273.821 217.865 267.859 217.865C248.837 217.865 240.009 209.267 240.009 190.784V190.746ZM265.839 185.342C271.513 184.88 273.994 183.668 273.994 180.764C273.994 177.86 271.59 176.379 267.358 176.379C262.358 176.379 259.473 179.649 258.992 185.803L265.82 185.342H265.839Z" fill="#A8AD00"/>
<path d="M299.458 215.403C296.477 214.556 295.419 213.152 295.419 210.344V204.728C295.419 200.978 297.343 200.516 300.901 201.536C305.517 203.036 310.787 203.786 315.114 203.786C320.595 203.786 322.903 202.94 322.903 200.882C322.903 198.824 321.557 197.978 316.749 197.035L311.171 195.92C301.766 194.131 296.477 189.169 296.477 180.649C296.477 169.974 306.267 163.223 322.211 163.223C327.5 163.223 333.636 164.166 337.001 165.377C339.694 166.493 340.656 168.089 340.079 171.09L339.213 175.859C338.636 178.86 337.097 179.61 333.251 178.475C329.789 177.533 326.327 177.264 323.077 177.264C318.268 177.264 315.672 178.302 315.672 180.456C315.672 182.322 317.21 183.072 321.826 184.014L327.404 185.13C337.097 186.995 342.098 191.592 342.098 200.478C342.098 211.248 332.405 217.807 316.268 217.807C310.498 217.807 304.267 216.864 299.458 215.364V215.403Z" fill="#A8AD00"/>
<path d="M349.022 213.345V149.703C349.022 146.433 350.368 145.164 353.349 145.164H363.235C366.409 145.164 367.659 146.452 367.659 149.703V166.109C372.255 163.147 378.429 163.204 382.237 163.839C387.93 164.782 400.701 169.378 400.701 185.688V213.364C400.701 216.634 399.451 217.903 396.374 217.903H386.488C383.411 217.903 382.064 216.615 382.064 213.364V187.188C382.064 181.764 379.179 178.206 375.621 178.206C373.025 178.206 370.044 178.783 367.64 180.764V213.383C367.64 216.653 366.389 217.922 363.216 217.922H353.33C350.349 217.922 349.003 216.634 349.003 213.383L349.022 213.345Z" fill="#A8AD00"/>
<path d="M181.521 10.7248L143.767 76.1749C135.516 90.4843 145.844 108.352 162.346 108.352H237.893C254.415 108.333 264.724 90.4458 256.473 76.1556L218.68 10.7248C210.409 -3.58456 189.772 -3.56532 181.521 10.7248ZM169.27 79.2329L173.751 83.8488C174.848 84.9836 173.771 86.83 172.251 86.4453L166 84.8682C165 84.6182 164.519 83.4642 165.039 82.5795L166.789 79.5406C167.308 78.6367 168.539 78.4828 169.251 79.2329H169.27ZM208.698 84.1181L213.179 88.734C214.275 89.8688 213.198 91.7152 211.679 91.3305L205.428 89.7534C204.428 89.5034 203.947 88.3494 204.466 87.4647L206.217 84.4258C206.736 83.5219 207.967 83.368 208.678 84.1181H208.698ZM238.817 83.6565L243.298 88.2725C244.394 89.4072 243.317 91.2536 241.798 90.8689L235.547 89.2918C234.547 89.0418 234.066 87.8878 234.585 87.0031L236.336 83.9642C236.855 83.0603 238.086 82.9064 238.797 83.6565H238.817ZM198.581 60.4422L203.062 65.0582C204.159 66.1929 203.082 68.0393 201.562 67.6546L195.312 66.0775C194.311 65.8275 193.831 64.6735 194.35 63.7888L196.1 60.75C196.619 59.846 197.85 59.6922 198.562 60.4422H198.581ZM224.142 57.3457L228.623 61.9617C229.719 63.0964 228.642 64.9428 227.123 64.5581L220.872 62.981C219.872 62.731 219.391 61.577 219.911 60.6923L221.661 57.6534C222.18 56.7495 223.411 56.5956 224.123 57.3457H224.142ZM200.177 25.6689L204.659 30.2848C205.755 31.4196 204.678 33.2659 203.159 32.8813L196.908 31.3042C195.908 31.0541 195.427 29.9002 195.946 29.0154L197.696 25.9766C198.216 25.0727 199.447 24.9188 200.158 25.6689H200.177ZM191.503 19.7451L175.752 32.7851C174.559 33.766 174.232 35.4393 174.944 36.8048L182.983 52.0182C184.099 54.1338 182.618 56.6918 180.233 56.788L164.231 57.4034C162.692 57.4611 161.404 58.5959 161.154 60.1153L157.634 80.9447C157.211 83.4449 154.211 84.522 152.306 82.868L146.767 78.0789C145.594 77.0596 145.306 75.3479 146.075 74.0015L180.887 13.6482C181.675 12.3019 183.291 11.6865 184.772 12.2058L190.465 14.1868C192.869 15.0138 193.427 18.1488 191.465 19.7644L191.503 19.7451Z" fill="#DC4405"/>
</svg>
