<svg width="482" height="145" viewBox="0 0 482 145" fill="none" xmlns="http://www.w3.org/2000/svg">
<path d="M66.8477 52.7285L47.4126 86.417C43.1663 93.7812 48.4816 102.987 56.9743 102.987H95.8742C104.382 102.987 109.682 93.7664 105.436 86.4021L85.9859 52.7136C81.7396 45.3494 71.1089 45.3494 66.8626 52.7136L66.8477 52.7285ZM60.5376 87.9759L62.8538 90.3515C63.418 90.9305 62.8538 91.8808 62.0818 91.6878L58.8748 90.8712C58.3551 90.7375 58.1027 90.1585 58.3699 89.6982L59.2756 88.1393C59.5429 87.679 60.1813 87.6048 60.5525 87.9759H60.5376ZM80.8339 90.5L83.1501 92.8755C83.7143 93.4546 83.1501 94.4048 82.378 94.2118L79.171 93.3952C78.6513 93.2616 78.3989 92.6825 78.6662 92.2223L79.5719 90.6633C79.8391 90.203 80.4776 90.1288 80.8487 90.5H80.8339ZM96.3493 90.2624L98.6655 92.638C99.2297 93.217 98.6655 94.1673 97.8934 93.9742L94.6864 93.1576C94.1668 93.024 93.9144 92.445 94.1816 91.9847L95.0873 90.4257C95.3546 89.9655 95.993 89.8912 96.3642 90.2624H96.3493ZM75.6373 78.3104L77.9535 80.6859C78.5177 81.265 77.9535 82.2152 77.1815 82.0222L73.9745 81.2056C73.4548 81.0719 73.2024 80.4929 73.4696 80.0326L74.3753 78.4737C74.6426 78.0134 75.281 77.9392 75.6522 78.3104H75.6373ZM88.792 76.7217L91.1082 79.0973C91.6724 79.6763 91.1082 80.6265 90.3362 80.4335L87.1291 79.6169C86.6095 79.4833 86.3571 78.9042 86.6243 78.444L87.53 76.885C87.7973 76.4247 88.4357 76.3505 88.8069 76.7217H88.792ZM76.4539 60.4045L78.7701 62.7801C79.3343 63.3591 78.7701 64.3094 77.9981 64.1163L74.791 63.2997C74.2714 63.1661 74.019 62.5871 74.2862 62.1268L75.1919 60.5678C75.4592 60.1076 76.0976 60.0333 76.4688 60.4045H76.4539ZM71.9998 57.3608L63.8931 64.0718C63.2844 64.5766 63.1062 65.4377 63.4774 66.1356L67.6198 73.9749C68.1989 75.0588 67.4416 76.3802 66.2093 76.4247L57.9691 76.7365C57.1822 76.7662 56.514 77.3453 56.3804 78.1322L54.569 88.8519C54.3463 90.1436 52.8171 90.693 51.8223 89.8467L48.9716 87.382C48.3629 86.8624 48.2144 85.9716 48.6153 85.2737L66.536 54.2132C66.9368 53.5154 67.7683 53.2036 68.5403 53.4708L71.4801 54.4804C72.7124 54.911 73.0094 56.5145 71.9998 57.346V57.3608Z" fill="#DC4405"/>
<path d="M135.709 82.0071C135.709 68.214 143.192 60.731 157.06 60.731C168.255 60.731 175.233 65.883 175.233 73.9451C175.233 80.9975 170.63 84.546 160.92 85.1251L150.468 85.8526C151.062 89.8465 153.586 91.5836 159.138 91.5836C162.479 91.5836 166.399 90.8561 169.368 89.698C172.115 88.5399 174.045 89.0447 174.045 91.4352V96.1566C174.045 98.4134 172.857 99.9278 170.408 100.804C166.993 102.11 161.811 103.061 157.208 103.061C142.524 103.061 135.709 96.3793 135.709 82.0071ZM155.649 77.7905C160.029 77.4342 161.945 76.4839 161.945 74.2271C161.945 71.9704 160.089 70.8123 156.822 70.8123C152.962 70.8123 150.735 73.3512 150.379 78.1468L155.649 77.7905Z" fill="#A8AD00"/>
<path d="M178.856 82.0071C178.856 67.8428 185.819 60.731 199.909 60.731C203.992 60.731 207.021 61.4585 208.506 62.0375C210.436 62.765 211.401 64.1458 210.881 66.3878L209.916 71.3319C209.397 74.0935 207.912 74.1678 205.536 73.5145C203.458 72.8612 202.344 72.6385 200.637 72.6385C195.589 72.6385 193.673 75.3258 193.673 81.7844C193.673 88.243 195.752 91.1531 200.711 91.1531C202.567 91.1531 203.977 90.9304 207.155 90.1434C209.456 89.6386 210.644 90.2919 210.644 92.905V97.6265C210.644 99.9575 209.827 101.116 207.452 101.917C205.522 102.645 202.775 103.075 199.375 103.075C185.656 103.075 178.841 95.8894 178.841 82.022L178.856 82.0071Z" fill="#A8AD00"/>
<path d="M213.777 81.9329C213.777 67.7686 220.814 60.731 234.904 60.731C248.994 60.731 256.106 67.7686 256.106 81.9329C256.106 96.0972 248.994 103.061 234.904 103.061C220.814 103.061 213.777 96.0081 213.777 81.9329ZM241.511 81.9329C241.511 75.1031 239.655 72.49 234.919 72.49C230.183 72.49 228.386 75.1031 228.386 81.9329C228.386 88.7626 230.242 91.3015 234.919 91.3015C239.596 91.3015 241.511 88.6884 241.511 81.9329Z" fill="#A8AD00"/>
<path d="M264.792 99.6161V78.325H262.713C260.338 78.325 259.373 77.3451 259.373 74.925V69.6394C259.373 67.2193 260.338 66.1651 262.713 66.1651H264.792V64.9625C264.792 52.8025 270.954 47.0566 283.915 47.0566C287.627 47.0566 288.666 48.1108 288.666 51.5851V56.0393C288.666 58.2367 287.627 59.365 285.326 59.365C280.797 59.365 279.164 61.1764 279.164 65.8533V66.1503H283.247C285.548 66.1503 286.588 67.2044 286.588 69.6245V74.9102C286.588 77.3303 285.548 78.3102 283.247 78.3102H279.164V99.6012C279.164 102.096 278.199 103.075 275.823 103.075H268.192C265.816 103.075 264.777 102.096 264.777 99.6012L264.792 99.6161Z" fill="#A8AD00"/>
<path d="M291.19 99.6901V64.4427C291.19 62.0819 292.23 61.0426 294.531 61.0426H300.544C302.92 61.0426 303.885 62.0077 303.885 64.3536V67.6051C305.666 64.2199 310.922 60.8496 314.783 60.8496C317.233 60.8496 318.272 62.0819 318.272 64.4427V72.772C318.272 75.1327 317.233 76.0829 314.857 76.0829C312.333 76.0829 308.339 75.5633 305.592 75.0436V99.6753C305.592 102.11 304.627 103.06 302.177 103.06H294.546C292.245 103.06 291.205 102.095 291.205 99.6753L291.19 99.6901Z" fill="#A8AD00"/>
<path d="M320.989 82.1854C320.989 68.4961 328.472 60.9092 342.339 60.9092C353.534 60.9092 360.512 66.18 360.512 74.1827C360.512 81.1757 355.91 84.7094 346.2 85.2884L335.747 86.0011C336.341 89.9653 338.865 91.7025 344.418 91.7025C347.759 91.7025 351.678 90.975 354.648 89.8317C357.394 88.6736 359.325 89.1784 359.325 91.5688V96.2606C359.325 98.5025 358.137 100.002 355.687 100.878C352.272 102.17 347.09 103.12 342.488 103.12C327.804 103.12 320.989 96.4833 320.989 82.215V82.1854ZM340.944 77.9984C345.324 77.6421 347.239 76.7067 347.239 74.4648C347.239 72.2228 345.383 71.0796 342.117 71.0796C338.256 71.0796 336.029 73.6036 335.658 78.3547L340.929 77.9984H340.944Z" fill="#A8AD00"/>
<path d="M366.882 101.205C364.581 100.552 363.764 99.4679 363.764 97.3002V92.9648C363.764 90.0696 365.249 89.7132 367.995 90.5001C371.559 91.6582 375.627 92.2373 378.968 92.2373C383.199 92.2373 384.981 91.584 384.981 89.9953C384.981 88.4067 383.941 87.7534 380.23 87.0259L375.924 86.1647C368.664 84.7839 364.581 80.9533 364.581 74.376C364.581 66.1357 372.138 60.9243 384.446 60.9243C388.529 60.9243 393.266 61.6518 395.864 62.5872C397.942 63.4484 398.685 64.6807 398.239 66.9969L397.571 70.679C397.126 72.9952 395.938 73.5742 392.969 72.6982C390.296 71.9707 387.624 71.7628 385.114 71.7628C381.403 71.7628 379.398 72.5646 379.398 74.2275C379.398 75.6677 380.586 76.2467 384.149 76.9742L388.455 77.8354C395.938 79.2756 399.798 82.8241 399.798 89.6835C399.798 97.998 392.315 103.061 379.858 103.061C375.404 103.061 370.594 102.333 366.882 101.175V101.205Z" fill="#A8AD00"/>
<path d="M405.143 99.6161V50.4864C405.143 47.9623 406.183 46.9824 408.484 46.9824H416.115C418.565 46.9824 419.53 47.9772 419.53 50.4864V63.1511C423.079 60.8646 427.845 60.9092 430.785 61.3991C435.179 62.1267 445.038 65.6752 445.038 78.2657V99.6309C445.038 102.155 444.073 103.135 441.697 103.135H434.066C431.69 103.135 430.651 102.14 430.651 99.6309V79.4238C430.651 75.2368 428.424 72.4901 425.677 72.4901C423.673 72.4901 421.371 72.9355 419.516 74.4648V99.6458C419.516 102.17 418.55 103.15 416.101 103.15H408.469C406.168 103.15 405.128 102.155 405.128 99.6458L405.143 99.6161Z" fill="#A8AD00"/>
<path d="M473.649 18.9502H17.5548V131.166H473.649V18.9502Z" stroke="#5A4522" stroke-miterlimit="10" stroke-linecap="round" stroke-dasharray="2 2"/>
<path d="M1 47.0269H481.265" stroke="#5A4522" stroke-miterlimit="10" stroke-linecap="round" stroke-dasharray="2 2"/>
<path d="M1 75.0879H481.265" stroke="#5A4522" stroke-miterlimit="10" stroke-linecap="round" stroke-dasharray="2 2"/>
<path d="M1 103.165H481.265" stroke="#5A4522" stroke-miterlimit="10" stroke-linecap="round" stroke-dasharray="2 2"/>
<path d="M135.502 1V144.143" stroke="#5A4522" stroke-miterlimit="10" stroke-linecap="round" stroke-dasharray="2 2"/>
<path d="M163.667 1.26758V144.41" stroke="#5A4522" stroke-miterlimit="10" stroke-linecap="round" stroke-dasharray="2 2"/>
<path d="M191.817 1.26758V144.41" stroke="#5A4522" stroke-miterlimit="10" stroke-linecap="round" stroke-dasharray="2 2"/>
<path d="M219.983 1.26758V144.41" stroke="#5A4522" stroke-miterlimit="10" stroke-linecap="round" stroke-dasharray="2 2"/>
<path d="M248.133 1.26758V144.41" stroke="#5A4522" stroke-miterlimit="10" stroke-linecap="round" stroke-dasharray="2 2"/>
<path d="M45.7646 1.26758V144.41" stroke="#5A4522" stroke-miterlimit="10" stroke-linecap="round" stroke-dasharray="2 2"/>
<path d="M76.5 1.26758V144.41" stroke="#5A4522" stroke-miterlimit="10" stroke-linecap="round" stroke-dasharray="2 2"/>
<path d="M107.351 1.26758V144.41" stroke="#5A4522" stroke-miterlimit="10" stroke-linecap="round" stroke-dasharray="2 2"/>
<path d="M276.298 1.26758V144.41" stroke="#5A4522" stroke-miterlimit="10" stroke-linecap="round" stroke-dasharray="2 2"/>
<path d="M304.449 1.26758V144.41" stroke="#5A4522" stroke-miterlimit="10" stroke-linecap="round" stroke-dasharray="2 2"/>
<path d="M332.599 1.26758V144.41" stroke="#5A4522" stroke-miterlimit="10" stroke-linecap="round" stroke-dasharray="2 2"/>
<path d="M360.765 1.26758V144.41" stroke="#5A4522" stroke-miterlimit="10" stroke-linecap="round" stroke-dasharray="2 2"/>
<path d="M388.915 1.26758V144.41" stroke="#5A4522" stroke-miterlimit="10" stroke-linecap="round" stroke-dasharray="2 2"/>
<path d="M417.081 1.26758V144.41" stroke="#5A4522" stroke-miterlimit="10" stroke-linecap="round" stroke-dasharray="2 2"/>
<path d="M445.231 1.26758V144.41" stroke="#5A4522" stroke-miterlimit="10" stroke-linecap="round" stroke-dasharray="2 2"/>
<rect x="446" y="75" width="28" height="28" fill="#E3E48D"/>
<path d="M451.939 81.0854L468.061 97.2067" stroke="#5A4522" stroke-width="4" stroke-linecap="round"/>
<path d="M468.061 80.9395L451.939 97.0607" stroke="#5A4522" stroke-width="4" stroke-linecap="round"/>
<rect x="305" y="103" width="28" height="28" fill="#E3E48D"/>
<path d="M310.939 109.085L327.061 125.207" stroke="#5A4522" stroke-width="4" stroke-linecap="round"/>
<path d="M327.061 108.939L310.939 125.061" stroke="#5A4522" stroke-width="4" stroke-linecap="round"/>
<rect x="276" y="19" width="28" height="28" fill="#E3E48D"/>
<path d="M281.939 25.0854L298.061 41.2067" stroke="#5A4522" stroke-width="4" stroke-linecap="round"/>
<path d="M298.061 24.9395L281.939 41.0607" stroke="#5A4522" stroke-width="4" stroke-linecap="round"/>
<rect x="108" y="75" width="28" height="28" fill="#E3E48D"/>
<path d="M113.939 81.0854L130.061 97.2067" stroke="#5A4522" stroke-width="4" stroke-linecap="round"/>
<path d="M130.061 80.9395L113.939 97.0607" stroke="#5A4522" stroke-width="4" stroke-linecap="round"/>
<rect x="18" y="75" width="28" height="28" fill="#E3E48D"/>
<path d="M23.9394 81.0854L40.0606 97.2067" stroke="#5A4522" stroke-width="4" stroke-linecap="round"/>
<path d="M40.0606 80.9395L23.9394 97.0607" stroke="#5A4522" stroke-width="4" stroke-linecap="round"/>
</svg>
