<svg width="449" height="298" viewBox="0 0 449 298" fill="none" xmlns="http://www.w3.org/2000/svg">
<path d="M40.6391 219.128C40.6391 202.884 49.4516 194.071 65.7828 194.071C78.9667 194.071 87.1847 200.139 87.1847 209.633C87.1847 217.939 81.7643 222.118 70.329 222.8L58.0194 223.656C58.7188 228.36 61.6913 230.406 68.2307 230.406C72.1649 230.406 76.781 229.549 80.2781 228.185C83.5128 226.821 85.7859 227.416 85.7859 230.231V235.791C85.7859 238.449 84.3871 240.232 81.502 241.264C77.4804 242.803 71.3781 243.922 65.9577 243.922C48.6648 243.922 40.6391 236.053 40.6391 219.128ZM64.1217 214.162C69.2799 213.742 71.5355 212.623 71.5355 209.965C71.5355 207.308 69.3498 205.944 65.503 205.944C60.9569 205.944 58.3341 208.934 57.9145 214.581L64.1217 214.162Z" fill="#A8AD00"/>
<path d="M91.451 219.128C91.451 202.447 99.6516 194.071 116.245 194.071C121.053 194.071 124.62 194.928 126.369 195.61C128.642 196.467 129.779 198.093 129.167 200.733L128.03 206.556C127.418 209.808 125.67 209.895 122.872 209.126C120.424 208.357 119.113 208.094 117.102 208.094C111.157 208.094 108.901 211.259 108.901 218.865C108.901 226.471 111.349 229.899 117.189 229.899C119.375 229.899 121.036 229.636 124.778 228.71C127.488 228.115 128.887 228.884 128.887 231.962V237.522C128.887 240.267 127.925 241.631 125.128 242.575C122.854 243.432 119.62 243.939 115.616 243.939C99.4592 243.939 91.4335 235.476 91.4335 219.145L91.451 219.128Z" fill="#A8AD00"/>
<path d="M132.576 219.04C132.576 202.359 140.864 194.071 157.458 194.071C174.051 194.071 182.427 202.359 182.427 219.04C182.427 235.721 174.051 243.922 157.458 243.922C140.864 243.922 132.576 235.616 132.576 219.04ZM165.239 219.04C165.239 210.997 163.053 207.92 157.475 207.92C151.897 207.92 149.782 210.997 149.782 219.04C149.782 227.083 151.967 230.073 157.475 230.073C162.983 230.073 165.239 226.996 165.239 219.04Z" fill="#A8AD00"/>
<path d="M192.656 239.847V214.774H190.208C187.41 214.774 186.273 213.62 186.273 210.769V204.545C186.273 201.695 187.41 200.453 190.208 200.453H192.656V199.037C192.656 184.716 199.912 177.95 215.177 177.95C219.548 177.95 220.772 179.191 220.772 183.283V188.528C220.772 191.116 219.548 192.445 216.838 192.445C211.505 192.445 209.581 194.578 209.581 200.086V200.436H214.39C217.1 200.436 218.324 201.677 218.324 204.527V210.752C218.324 213.602 217.1 214.756 214.39 214.756H209.581V239.83C209.581 242.767 208.445 243.921 205.647 243.921H196.66C193.862 243.921 192.638 242.767 192.638 239.83L192.656 239.847Z" fill="#A8AD00"/>
<path d="M223.727 239.953V198.443C223.727 195.663 224.951 194.439 227.661 194.439H234.742C237.54 194.439 238.677 195.575 238.677 198.338V202.167C240.775 198.181 246.965 194.211 251.511 194.211C254.396 194.211 255.62 195.663 255.62 198.443V208.252C255.62 211.032 254.396 212.151 251.598 212.151C248.626 212.151 243.922 211.539 240.687 210.927V239.935C240.687 242.803 239.551 243.922 236.666 243.922H227.678C224.968 243.922 223.744 242.785 223.744 239.935L223.727 239.953Z" fill="#A8AD00"/>
<path d="M258.837 219.32C258.837 203.199 267.65 194.264 283.981 194.264C297.165 194.264 305.383 200.471 305.383 209.895C305.383 218.131 299.962 222.292 288.527 222.974L276.217 223.814C276.917 228.482 279.889 230.528 286.429 230.528C290.363 230.528 294.979 229.671 298.476 228.325C301.711 226.961 303.984 227.556 303.984 230.371V235.896C303.984 238.536 302.585 240.302 299.7 241.334C295.678 242.855 289.576 243.974 284.156 243.974C266.863 243.974 258.837 236.158 258.837 219.355V219.32ZM282.32 214.407C287.478 213.987 289.733 212.885 289.733 210.245C289.733 207.605 287.548 206.259 283.701 206.259C279.155 206.259 276.532 209.231 276.095 214.826L282.302 214.407H282.32Z" fill="#A8AD00"/>
<path d="M312.884 241.736C310.174 240.966 309.212 239.69 309.212 237.137V232.031C309.212 228.622 310.961 228.202 314.195 229.129C318.392 230.493 323.183 231.175 327.117 231.175C332.1 231.175 334.198 230.405 334.198 228.534C334.198 226.663 332.974 225.894 328.603 225.037L323.532 224.023C314.982 222.397 310.174 217.886 310.174 210.14C310.174 200.436 319.074 194.298 333.569 194.298C338.377 194.298 343.955 195.155 347.015 196.257C349.463 197.271 350.337 198.722 349.813 201.45L349.026 205.786C348.501 208.514 347.102 209.196 343.605 208.164C340.458 207.307 337.311 207.063 334.356 207.063C329.984 207.063 327.624 208.007 327.624 209.965C327.624 211.661 329.023 212.343 333.219 213.2L338.29 214.214C347.102 215.91 351.649 220.089 351.649 228.167C351.649 237.959 342.836 243.921 328.166 243.921C322.92 243.921 317.255 243.065 312.884 241.701V241.736Z" fill="#A8AD00"/>
<path d="M357.943 239.865V182.006C357.943 179.034 359.167 177.88 361.877 177.88H370.865C373.75 177.88 374.886 179.051 374.886 182.006V196.921C379.065 194.229 384.678 194.281 388.14 194.858C393.316 195.715 404.926 199.894 404.926 214.721V239.882C404.926 242.855 403.789 244.009 400.992 244.009H392.004C389.207 244.009 387.983 242.837 387.983 239.882V216.085C387.983 211.154 385.36 207.919 382.125 207.919C379.765 207.919 377.055 208.444 374.869 210.245V239.9C374.869 242.872 373.732 244.026 370.847 244.026H361.86C359.15 244.026 357.926 242.855 357.926 239.9L357.943 239.865Z" fill="#A8AD00"/>
<path d="M205.665 55.6584L171.341 115.161C163.84 128.17 173.229 144.413 188.232 144.413H256.914C271.934 144.396 281.306 128.135 273.804 115.143L239.446 55.6584C231.927 42.6494 213.166 42.6669 205.665 55.6584ZM194.526 117.941L198.601 122.137C199.597 123.169 198.618 124.847 197.237 124.498L191.554 123.064C190.645 122.837 190.208 121.787 190.68 120.983L192.271 118.221C192.743 117.399 193.862 117.259 194.509 117.941H194.526ZM230.371 122.382L234.445 126.578C235.442 127.61 234.463 129.289 233.081 128.939L227.399 127.505C226.489 127.278 226.052 126.229 226.524 125.424L228.116 122.662C228.588 121.84 229.707 121.7 230.354 122.382H230.371ZM257.753 121.962L261.827 126.159C262.824 127.19 261.845 128.869 260.463 128.519L254.781 127.086C253.871 126.858 253.434 125.809 253.906 125.005L255.497 122.242C255.97 121.42 257.089 121.28 257.736 121.962H257.753ZM221.174 100.858L225.248 105.054C226.245 106.086 225.265 107.764 223.884 107.415L218.201 105.981C217.292 105.754 216.855 104.704 217.327 103.9L218.918 101.137C219.39 100.316 220.51 100.176 221.156 100.858H221.174ZM244.412 98.0426L248.486 102.239C249.483 103.271 248.503 104.949 247.122 104.6L241.439 103.166C240.53 102.938 240.093 101.889 240.565 101.085L242.156 98.3223C242.628 97.5005 243.747 97.3606 244.394 98.0426H244.412ZM222.625 69.2444L226.699 73.4409C227.696 74.4725 226.717 76.1511 225.335 75.8014L219.653 74.3676C218.743 74.1403 218.306 73.0912 218.778 72.2868L220.37 69.5242C220.842 68.7024 221.961 68.5625 222.608 69.2444H222.625ZM214.739 63.859L200.419 75.7139C199.335 76.6057 199.038 78.1269 199.685 79.3684L206.993 93.1992C208.008 95.1225 206.661 97.4481 204.493 97.5355L189.945 98.095C188.547 98.1475 187.375 99.1791 187.148 100.56L183.948 119.497C183.563 121.77 180.836 122.749 179.105 121.245L174.069 116.892C173.002 115.965 172.74 114.409 173.439 113.185L205.088 58.3162C205.804 57.0922 207.273 56.5327 208.62 57.0048L213.795 58.8057C215.981 59.5576 216.488 62.4077 214.704 63.8765L214.739 63.859Z" fill="#DC4405"/>
<path d="M438.288 12.6802H7.24213V277.039H438.288V12.6802Z" stroke="#5A4522" stroke-miterlimit="10" stroke-linecap="round" stroke-dasharray="2 2"/>
<path d="M1 45.7271H447.59" stroke="#5A4522" stroke-miterlimit="10" stroke-linecap="round" stroke-dasharray="2 2"/>
<path d="M1 78.7739H447.59" stroke="#5A4522" stroke-miterlimit="10" stroke-linecap="round" stroke-dasharray="2 2"/>
<path d="M1 111.821H447.59" stroke="#5A4522" stroke-miterlimit="10" stroke-linecap="round" stroke-dasharray="2 2"/>
<path d="M1 144.868H447.59" stroke="#5A4522" stroke-miterlimit="10" stroke-linecap="round" stroke-dasharray="2 2"/>
<path d="M1 177.933H447.59" stroke="#5A4522" stroke-miterlimit="10" stroke-linecap="round" stroke-dasharray="2 2"/>
<path d="M1 210.979H447.59" stroke="#5A4522" stroke-miterlimit="10" stroke-linecap="round" stroke-dasharray="2 2"/>
<path d="M1 244.027H447.59" stroke="#5A4522" stroke-miterlimit="10" stroke-linecap="round" stroke-dasharray="2 2"/>
<path d="M40.3943 1V296.832" stroke="#5A4522" stroke-miterlimit="10" stroke-linecap="round" stroke-dasharray="2 2"/>
<path d="M73.5462 1.54199V297.374" stroke="#5A4522" stroke-miterlimit="10" stroke-linecap="round" stroke-dasharray="2 2"/>
<path d="M106.716 1.54199V297.374" stroke="#5A4522" stroke-miterlimit="10" stroke-linecap="round" stroke-dasharray="2 2"/>
<path d="M139.868 1.54199V297.374" stroke="#5A4522" stroke-miterlimit="10" stroke-linecap="round" stroke-dasharray="2 2"/>
<path d="M173.037 1.54199V297.374" stroke="#5A4522" stroke-miterlimit="10" stroke-linecap="round" stroke-dasharray="2 2"/>
<path d="M206.189 1.54199V297.374" stroke="#5A4522" stroke-miterlimit="10" stroke-linecap="round" stroke-dasharray="2 2"/>
<path d="M239.359 1.54199V297.374" stroke="#5A4522" stroke-miterlimit="10" stroke-linecap="round" stroke-dasharray="2 2"/>
<path d="M272.511 1.54199V297.374" stroke="#5A4522" stroke-miterlimit="10" stroke-linecap="round" stroke-dasharray="2 2"/>
<path d="M305.68 1.54199V297.374" stroke="#5A4522" stroke-miterlimit="10" stroke-linecap="round" stroke-dasharray="2 2"/>
<path d="M338.832 1.54199V297.374" stroke="#5A4522" stroke-miterlimit="10" stroke-linecap="round" stroke-dasharray="2 2"/>
<path d="M371.984 1.54199V297.374" stroke="#5A4522" stroke-miterlimit="10" stroke-linecap="round" stroke-dasharray="2 2"/>
<path d="M405.153 1.54199V297.374" stroke="#5A4522" stroke-miterlimit="10" stroke-linecap="round" stroke-dasharray="2 2"/>
<rect x="8" y="211" width="33" height="33" fill="#E3E48D"/>
<path d="M15 218.172L34 237.172" stroke="#5A4522" stroke-width="4" stroke-linecap="round"/>
<path d="M34 218L15 237" stroke="#5A4522" stroke-width="4" stroke-linecap="round"/>
<rect x="206" y="145" width="33" height="33" fill="#E3E48D"/>
<path d="M213 152.172L232 171.172" stroke="#5A4522" stroke-width="4" stroke-linecap="round"/>
<path d="M232 152L213 171" stroke="#5A4522" stroke-width="4" stroke-linecap="round"/>
<rect x="206" y="244" width="33" height="33" fill="#E3E48D"/>
<path d="M213 251.172L232 270.172" stroke="#5A4522" stroke-width="4" stroke-linecap="round"/>
<path d="M232 251L213 270" stroke="#5A4522" stroke-width="4" stroke-linecap="round"/>
<rect x="206" y="13" width="33" height="33" fill="#E3E48D"/>
<path d="M213 20.1719L232 39.1719" stroke="#5A4522" stroke-width="4" stroke-linecap="round"/>
<path d="M232 20L213 39" stroke="#5A4522" stroke-width="4" stroke-linecap="round"/>
<rect x="405" y="211" width="33" height="33" fill="#E3E48D"/>
<path d="M412 218.172L431 237.172" stroke="#5A4522" stroke-width="4" stroke-linecap="round"/>
<path d="M431 218L412 237" stroke="#5A4522" stroke-width="4" stroke-linecap="round"/>
</svg>
