<svg width="162" height="146" viewBox="0 0 162 146" fill="none" xmlns="http://www.w3.org/2000/svg">
<g clip-path="url(#clip0_209_449)">
<path d="M67.5 52.4879L47.5772 86.8489C43.2243 94.3601 48.673 103.749 57.3788 103.749H97.2548C105.976 103.749 111.409 94.345 107.056 86.8338L87.1184 52.4728C82.7655 44.9615 71.8681 44.9615 67.5152 52.4728L67.5 52.4879ZM61.0315 88.4541L63.4058 90.8771C63.9842 91.4677 63.4058 92.4369 62.6144 92.24L59.3269 91.4071C58.7942 91.2708 58.5355 90.6802 58.8095 90.2108L59.7379 88.6207C60.0118 88.1512 60.6663 88.0755 61.0468 88.4541H61.0315ZM81.8371 91.0134L84.2114 93.4364C84.7897 94.027 84.2114 94.9962 83.4199 94.7993L80.1325 93.9664C79.5998 93.8301 79.341 93.2395 79.615 92.7701L80.5434 91.18C80.8173 90.7105 81.4718 90.6348 81.8523 91.0134H81.8371ZM97.7418 90.7711L100.116 93.1941C100.694 93.7847 100.116 94.7539 99.3247 94.557L96.0372 93.7241C95.5045 93.5878 95.2458 92.9972 95.5197 92.5278L96.4481 90.9377C96.7221 90.4682 97.3765 90.3925 97.757 90.7711H97.7418ZM76.5101 78.5805L78.8844 81.0034C79.4628 81.594 78.8844 82.5632 78.093 82.3664L74.8055 81.5335C74.2728 81.3972 74.0141 80.8066 74.288 80.3371L75.2164 78.747C75.4904 78.2776 76.1448 78.2019 76.5253 78.5805H76.5101ZM89.9949 76.9601L92.3692 79.3831C92.9476 79.9737 92.3692 80.9429 91.5778 80.746L88.2903 79.9131C87.7576 79.7768 87.4989 79.1862 87.7728 78.7167L88.7012 77.1267C88.9752 76.6572 89.6296 76.5815 90.0101 76.9601H89.9949ZM77.3472 60.3172L79.7215 62.7402C80.2999 63.3308 79.7215 64.3 78.9301 64.1031L75.6426 63.2702C75.1099 63.1339 74.8512 62.5433 75.1251 62.0739L76.0535 60.4838C76.3275 60.0143 76.9819 59.9386 77.3624 60.3172H77.3472ZM72.7813 57.2128L64.4712 64.0577C63.8472 64.5726 63.6646 65.4509 64.0451 66.1627L68.2914 74.1585C68.885 75.264 68.1088 76.6118 66.8455 76.6572L58.3985 76.9752C57.5919 77.0055 56.907 77.5961 56.77 78.3987L54.9132 89.3325C54.6849 90.65 53.1172 91.2103 52.0975 90.3471L49.1753 87.8332C48.5513 87.3032 48.3991 86.3946 48.81 85.6828L67.1804 54.0023C67.5913 53.2906 68.4436 52.9725 69.235 53.2451L72.2486 54.2749C73.5118 54.7141 73.8162 56.3496 72.7813 57.1976V57.2128Z" fill="#DC4405"/>
<path d="M137.892 18.0513H16.9701V132.507H137.892V18.0513Z" stroke="#5A4522" stroke-miterlimit="10" stroke-linecap="round" stroke-dasharray="2 2"/>
<path d="M0 46.6729H162" stroke="#5A4522" stroke-miterlimit="10" stroke-dasharray="2 2"/>
<path d="M0 75.2944H162" stroke="#5A4522" stroke-miterlimit="10" stroke-dasharray="2 2"/>
<path d="M0 103.931H162" stroke="#5A4522" stroke-miterlimit="10" stroke-dasharray="2 2"/>
<path d="M45.8878 0V146" stroke="#5A4522" stroke-miterlimit="10" stroke-dasharray="2 2"/>
<path d="M77 0V146" stroke="#5A4522" stroke-miterlimit="10" stroke-dasharray="2 2"/>
<path d="M109.02 0V146" stroke="#5A4522" stroke-miterlimit="10" stroke-dasharray="2 2"/>
<rect x="17" y="18" width="29" height="29" fill="#E3E48D"/>
<path d="M23.1515 24.3027L39.8485 40.9997" stroke="#5A4522" stroke-width="4" stroke-linecap="round"/>
<path d="M39.8485 24.1514L23.1515 40.8483" stroke="#5A4522" stroke-width="4" stroke-linecap="round"/>
<rect x="109" y="104" width="29" height="29" fill="#E3E48D"/>
<path d="M115.151 110.303L131.848 127" stroke="#5A4522" stroke-width="4" stroke-linecap="round"/>
<path d="M131.848 110.151L115.151 126.848" stroke="#5A4522" stroke-width="4" stroke-linecap="round"/>
</g>
<defs>
<clipPath id="clip0_209_449">
<rect width="162" height="146" fill="white"/>
</clipPath>
</defs>
</svg>
