<svg width="115" height="43" viewBox="0 0 115 43" fill="none" xmlns="http://www.w3.org/2000/svg">
<path d="M12.564 15.154C12.1907 15.154 11.7987 15.126 11.388 15.07C10.9867 15.0233 10.604 14.9487 10.24 14.846C9.876 14.7433 9.54933 14.622 9.26 14.482C9.008 14.3607 8.83067 14.202 8.728 14.006C8.62533 13.8007 8.588 13.586 8.616 13.362C8.644 13.138 8.72333 12.942 8.854 12.774C8.98467 12.5967 9.15733 12.48 9.372 12.424C9.58667 12.3587 9.82933 12.3867 10.1 12.508C10.4547 12.676 10.856 12.8067 11.304 12.9C11.752 12.9933 12.172 13.04 12.564 13.04C13.18 13.04 13.6093 12.9607 13.852 12.802C14.104 12.634 14.23 12.4287 14.23 12.186C14.23 11.9713 14.1413 11.7987 13.964 11.668C13.796 11.5373 13.4927 11.4253 13.054 11.332L11.416 10.982C10.52 10.7953 9.85267 10.4687 9.414 10.002C8.97533 9.53533 8.756 8.93333 8.756 8.196C8.756 7.71067 8.854 7.272 9.05 6.88C9.25533 6.47867 9.54 6.138 9.904 5.858C10.2773 5.578 10.716 5.36333 11.22 5.214C11.7333 5.05533 12.3027 4.976 12.928 4.976C13.4133 4.976 13.9033 5.032 14.398 5.144C14.902 5.24667 15.336 5.40533 15.7 5.62C15.9147 5.732 16.0687 5.886 16.162 6.082C16.2553 6.278 16.2927 6.48333 16.274 6.698C16.2553 6.90333 16.1807 7.08533 16.05 7.244C15.9287 7.40267 15.7607 7.51 15.546 7.566C15.3407 7.61267 15.0933 7.57533 14.804 7.454C14.5333 7.33267 14.2253 7.244 13.88 7.188C13.544 7.12267 13.2173 7.09 12.9 7.09C12.5547 7.09 12.2607 7.132 12.018 7.216C11.7753 7.29067 11.5887 7.40267 11.458 7.552C11.3367 7.70133 11.276 7.874 11.276 8.07C11.276 8.266 11.3553 8.434 11.514 8.574C11.682 8.70467 11.9853 8.81667 12.424 8.91L14.048 9.26C14.9533 9.456 15.63 9.778 16.078 10.226C16.526 10.674 16.75 11.2573 16.75 11.976C16.75 12.4613 16.652 12.9 16.456 13.292C16.26 13.684 15.98 14.02 15.616 14.3C15.252 14.5707 14.8133 14.7807 14.3 14.93C13.7867 15.0793 13.208 15.154 12.564 15.154ZM21.5991 15.154C20.7591 15.154 20.0311 15.0093 19.4151 14.72C18.8085 14.4213 18.3418 14.0013 18.0151 13.46C17.6885 12.9187 17.5251 12.2793 17.5251 11.542C17.5251 10.8327 17.6791 10.212 17.9871 9.68C18.3045 9.13867 18.7338 8.71867 19.2751 8.42C19.8258 8.112 20.4511 7.958 21.1511 7.958C21.6645 7.958 22.1311 8.042 22.5511 8.21C22.9711 8.36867 23.3305 8.60667 23.6291 8.924C23.9278 9.232 24.1518 9.60533 24.3011 10.044C24.4598 10.4827 24.5391 10.9727 24.5391 11.514C24.5391 11.7007 24.4878 11.8407 24.3851 11.934C24.2825 12.018 24.1191 12.06 23.8951 12.06H19.6111V10.884H22.7191L22.4951 11.066C22.4951 10.7207 22.4485 10.4407 22.3551 10.226C22.2618 10.0113 22.1218 9.848 21.9351 9.736C21.7578 9.624 21.5338 9.568 21.2631 9.568C20.9738 9.568 20.7218 9.638 20.5071 9.778C20.3018 9.90867 20.1431 10.1047 20.0311 10.366C19.9191 10.6273 19.8631 10.954 19.8631 11.346V11.472C19.8631 12.1347 20.0078 12.6107 20.2971 12.9C20.5958 13.18 21.0531 13.32 21.6691 13.32C21.8745 13.32 22.1078 13.2967 22.3691 13.25C22.6398 13.194 22.8965 13.1193 23.1391 13.026C23.3818 12.9327 23.5918 12.9187 23.7691 12.984C23.9465 13.04 24.0818 13.1427 24.1751 13.292C24.2778 13.432 24.3338 13.5953 24.3431 13.782C24.3525 13.9593 24.3105 14.1367 24.2171 14.314C24.1238 14.482 23.9698 14.6127 23.7551 14.706C23.4285 14.8553 23.0785 14.9673 22.7051 15.042C22.3411 15.1167 21.9725 15.154 21.5991 15.154ZM29.1268 15.154C28.3521 15.154 27.6754 15.0093 27.0968 14.72C26.5274 14.4307 26.0841 14.0153 25.7668 13.474C25.4494 12.9233 25.2908 12.2793 25.2908 11.542C25.2908 10.982 25.3794 10.4827 25.5568 10.044C25.7341 9.596 25.9908 9.218 26.3268 8.91C26.6721 8.602 27.0781 8.36867 27.5448 8.21C28.0208 8.042 28.5481 7.958 29.1268 7.958C29.3974 7.958 29.6821 7.986 29.9808 8.042C30.2794 8.08867 30.5874 8.182 30.9048 8.322C31.1288 8.406 31.2828 8.53667 31.3668 8.714C31.4601 8.882 31.4974 9.064 31.4788 9.26C31.4694 9.456 31.4134 9.63333 31.3108 9.792C31.2174 9.95067 31.0821 10.058 30.9048 10.114C30.7368 10.17 30.5454 10.1467 30.3308 10.044C30.1814 9.96933 30.0228 9.918 29.8548 9.89C29.6961 9.85267 29.5421 9.834 29.3928 9.834C29.1408 9.834 28.9168 9.87133 28.7208 9.946C28.5341 10.0207 28.3754 10.1327 28.2448 10.282C28.1141 10.422 28.0114 10.5993 27.9368 10.814C27.8714 11.0287 27.8388 11.2713 27.8388 11.542C27.8388 12.0833 27.9741 12.508 28.2448 12.816C28.5154 13.124 28.8981 13.278 29.3928 13.278C29.5421 13.278 29.6961 13.264 29.8548 13.236C30.0134 13.1987 30.1721 13.1427 30.3308 13.068C30.5454 12.9653 30.7368 12.9467 30.9048 13.012C31.0728 13.068 31.2081 13.1753 31.3108 13.334C31.4134 13.4927 31.4694 13.67 31.4788 13.866C31.4881 14.0527 31.4461 14.2347 31.3528 14.412C31.2594 14.58 31.1008 14.706 30.8768 14.79C30.5688 14.93 30.2654 15.0233 29.9668 15.07C29.6774 15.126 29.3974 15.154 29.1268 15.154ZM34.97 15.154C34.3727 15.154 33.8827 15.0467 33.5 14.832C33.1173 14.608 32.828 14.2767 32.632 13.838C32.4453 13.3993 32.352 12.844 32.352 12.172V9.232C32.352 8.82133 32.4593 8.51333 32.674 8.308C32.8887 8.09333 33.1967 7.986 33.598 7.986C33.9993 7.986 34.3073 8.09333 34.522 8.308C34.7367 8.51333 34.844 8.82133 34.844 9.232V12.242C34.844 12.578 34.914 12.83 35.054 12.998C35.194 13.166 35.4133 13.25 35.712 13.25C36.048 13.25 36.3233 13.1287 36.538 12.886C36.7527 12.6433 36.86 12.3213 36.86 11.92V9.232C36.86 8.82133 36.9673 8.51333 37.182 8.308C37.3967 8.09333 37.7047 7.986 38.106 7.986C38.5073 7.986 38.8153 8.09333 39.03 8.308C39.2447 8.51333 39.352 8.82133 39.352 9.232V13.866C39.352 14.706 38.9507 15.126 38.148 15.126C37.756 15.126 37.4527 15.0187 37.238 14.804C37.0233 14.5893 36.916 14.2767 36.916 13.866V13.054L37.14 13.74C36.9347 14.1973 36.6453 14.5473 36.272 14.79C35.908 15.0327 35.474 15.154 34.97 15.154ZM42.0342 15.126C41.6422 15.126 41.3389 15.0187 41.1242 14.804C40.9096 14.5893 40.8022 14.2767 40.8022 13.866V9.232C40.8022 8.83067 40.9049 8.52267 41.1102 8.308C41.3249 8.09333 41.6282 7.986 42.0202 7.986C42.4122 7.986 42.7109 8.09333 42.9162 8.308C43.1216 8.52267 43.2242 8.83067 43.2242 9.232V9.89L43.0702 9.316C43.2942 8.87733 43.6116 8.54133 44.0222 8.308C44.4422 8.07467 44.9182 7.958 45.4502 7.958C46.0009 7.958 46.4536 8.06533 46.8082 8.28C47.1629 8.48533 47.4289 8.812 47.6062 9.26C47.7836 9.69867 47.8722 10.254 47.8722 10.926V13.866C47.8722 14.2767 47.7649 14.5893 47.5502 14.804C47.3356 15.0187 47.0276 15.126 46.6262 15.126C46.2249 15.126 45.9169 15.0187 45.7022 14.804C45.4876 14.5893 45.3802 14.2767 45.3802 13.866V11.024C45.3802 10.604 45.3056 10.3053 45.1562 10.128C45.0162 9.95067 44.8062 9.862 44.5262 9.862C44.1529 9.862 43.8542 9.98333 43.6302 10.226C43.4062 10.4593 43.2942 10.7767 43.2942 11.178V13.866C43.2942 14.706 42.8742 15.126 42.0342 15.126ZM51.9805 15.154C51.3925 15.154 50.8698 15.0093 50.4125 14.72C49.9645 14.4307 49.6098 14.0153 49.3485 13.474C49.0965 12.9327 48.9705 12.2933 48.9705 11.556C48.9705 10.8 49.0965 10.156 49.3485 9.624C49.6098 9.092 49.9645 8.68133 50.4125 8.392C50.8698 8.10267 51.3925 7.958 51.9805 7.958C52.4938 7.958 52.9558 8.07933 53.3665 8.322C53.7771 8.56467 54.0525 8.87733 54.1925 9.26H54.0385V6.264C54.0385 5.85333 54.1458 5.54067 54.3605 5.326C54.5751 5.11133 54.8831 5.004 55.2845 5.004C55.6765 5.004 55.9798 5.11133 56.1945 5.326C56.4185 5.54067 56.5305 5.85333 56.5305 6.264V13.866C56.5305 14.2767 56.4231 14.5893 56.2085 14.804C56.0031 15.0187 55.6998 15.126 55.2985 15.126C54.9065 15.126 54.6031 15.0187 54.3885 14.804C54.1738 14.5893 54.0665 14.2767 54.0665 13.866V13.068L54.2205 13.754C54.0898 14.174 53.8145 14.5147 53.3945 14.776C52.9838 15.028 52.5125 15.154 51.9805 15.154ZM52.7785 13.32C53.0305 13.32 53.2545 13.2593 53.4505 13.138C53.6465 13.0073 53.7958 12.816 53.8985 12.564C54.0105 12.3027 54.0665 11.9667 54.0665 11.556C54.0665 10.9307 53.9451 10.4827 53.7025 10.212C53.4598 9.932 53.1518 9.792 52.7785 9.792C52.5265 9.792 52.3025 9.85267 52.1065 9.974C51.9105 10.0953 51.7565 10.2867 51.6445 10.548C51.5325 10.8 51.4765 11.136 51.4765 11.556C51.4765 12.172 51.5978 12.62 51.8405 12.9C52.0831 13.18 52.3958 13.32 52.7785 13.32ZM60.3681 15.154C59.8361 15.154 59.3648 15.056 58.9541 14.86C58.5528 14.664 58.2354 14.398 58.0021 14.062C57.7781 13.7167 57.6661 13.3247 57.6661 12.886C57.6661 12.382 57.7968 11.9853 58.0581 11.696C58.3194 11.4067 58.7394 11.2013 59.3181 11.08C59.8968 10.9493 60.6668 10.884 61.6281 10.884H62.3981V12.06H61.6281C61.2641 12.06 60.9608 12.088 60.7181 12.144C60.4848 12.1907 60.3121 12.27 60.2001 12.382C60.0881 12.4847 60.0321 12.62 60.0321 12.788C60.0321 13.0027 60.1068 13.18 60.2561 13.32C60.4148 13.46 60.6388 13.53 60.9281 13.53C61.1614 13.53 61.3668 13.4787 61.5441 13.376C61.7308 13.2733 61.8801 13.1333 61.9921 12.956C62.1041 12.7693 62.1601 12.5547 62.1601 12.312V10.688C62.1601 10.352 62.0714 10.114 61.8941 9.974C61.7261 9.834 61.4321 9.764 61.0121 9.764C60.7881 9.764 60.5361 9.792 60.2561 9.848C59.9761 9.89467 59.6634 9.98333 59.3181 10.114C59.0661 10.2073 58.8514 10.2213 58.6741 10.156C58.4968 10.0907 58.3568 9.97867 58.2541 9.82C58.1608 9.66133 58.1141 9.48867 58.1141 9.302C58.1234 9.11533 58.1841 8.938 58.2961 8.77C58.4174 8.602 58.5994 8.47133 58.8421 8.378C59.2901 8.21 59.7008 8.098 60.0741 8.042C60.4568 7.986 60.8068 7.958 61.1241 7.958C61.8894 7.958 62.5194 8.07 63.0141 8.294C63.5181 8.50867 63.8914 8.84467 64.1341 9.302C64.3861 9.75 64.5121 10.3287 64.5121 11.038V13.866C64.5121 14.2767 64.4141 14.5893 64.2181 14.804C64.0221 15.0187 63.7374 15.126 63.3641 15.126C62.9814 15.126 62.6874 15.0187 62.4821 14.804C62.2861 14.5893 62.1881 14.2767 62.1881 13.866V13.502L62.2721 13.698C62.2254 13.9967 62.1181 14.2533 61.9501 14.468C61.7821 14.6827 61.5628 14.8507 61.2921 14.972C61.0214 15.0933 60.7134 15.154 60.3681 15.154ZM67.2051 15.126C66.7945 15.126 66.4771 15.0187 66.2531 14.804C66.0385 14.5893 65.9311 14.2767 65.9311 13.866V9.232C65.9311 8.83067 66.0338 8.52267 66.2391 8.308C66.4538 8.09333 66.7571 7.986 67.1491 7.986C67.5411 7.986 67.8398 8.09333 68.0451 8.308C68.2505 8.52267 68.3531 8.83067 68.3531 9.232V9.806H68.2131C68.3065 9.246 68.5445 8.80267 68.9271 8.476C69.3191 8.14933 69.8045 7.97667 70.3831 7.958C70.6538 7.94867 70.8545 8.01867 70.9851 8.168C71.1251 8.308 71.1998 8.574 71.2091 8.966C71.2091 9.302 71.1391 9.568 70.9991 9.764C70.8591 9.96 70.5931 10.0767 70.2011 10.114L69.8791 10.142C69.3845 10.1887 69.0251 10.3287 68.8011 10.562C68.5771 10.786 68.4651 11.122 68.4651 11.57V13.866C68.4651 14.2767 68.3578 14.5893 68.1431 14.804C67.9285 15.0187 67.6158 15.126 67.2051 15.126ZM73.2334 15.126C72.8414 15.126 72.5381 15.0093 72.3234 14.776C72.1088 14.5427 72.0014 14.2067 72.0014 13.768V9.344C72.0014 8.90533 72.1088 8.56933 72.3234 8.336C72.5381 8.10267 72.8414 7.986 73.2334 7.986C73.6348 7.986 73.9428 8.10267 74.1574 8.336C74.3814 8.56933 74.4934 8.90533 74.4934 9.344V13.768C74.4934 14.2067 74.3861 14.5427 74.1714 14.776C73.9568 15.0093 73.6441 15.126 73.2334 15.126ZM73.2334 6.992C72.7948 6.992 72.4541 6.88933 72.2114 6.684C71.9781 6.47867 71.8614 6.18 71.8614 5.788C71.8614 5.40533 71.9781 5.11133 72.2114 4.906C72.4541 4.70067 72.7948 4.598 73.2334 4.598C73.6908 4.598 74.0361 4.70067 74.2694 4.906C74.5028 5.11133 74.6194 5.40533 74.6194 5.788C74.6194 6.18 74.5028 6.47867 74.2694 6.684C74.0361 6.88933 73.6908 6.992 73.2334 6.992ZM79.4249 15.154C78.6596 15.154 77.9923 15.0093 77.4229 14.72C76.8536 14.4307 76.4103 14.0153 76.0929 13.474C75.7756 12.9327 75.6169 12.2933 75.6169 11.556C75.6169 10.996 75.7056 10.4967 75.8829 10.058C76.0603 9.61 76.3169 9.232 76.6529 8.924C76.9889 8.60667 77.3903 8.36867 77.8569 8.21C78.3236 8.042 78.8463 7.958 79.4249 7.958C80.1903 7.958 80.8576 8.10267 81.4269 8.392C81.9963 8.68133 82.4349 9.09667 82.7429 9.638C83.0603 10.17 83.2189 10.8093 83.2189 11.556C83.2189 12.1067 83.1303 12.606 82.9529 13.054C82.7756 13.502 82.5189 13.8847 82.1829 14.202C81.8563 14.51 81.4549 14.748 80.9789 14.916C80.5123 15.0747 79.9943 15.154 79.4249 15.154ZM79.4249 13.32C79.6769 13.32 79.9009 13.2593 80.0969 13.138C80.2929 13.0073 80.4423 12.816 80.5449 12.564C80.6569 12.3027 80.7129 11.9667 80.7129 11.556C80.7129 10.9307 80.5916 10.4827 80.3489 10.212C80.1063 9.932 79.7983 9.792 79.4249 9.792C79.1729 9.792 78.9489 9.85267 78.7529 9.974C78.5569 10.0953 78.4029 10.2867 78.2909 10.548C78.1789 10.8 78.1229 11.136 78.1229 11.556C78.1229 12.172 78.2443 12.62 78.4869 12.9C78.7296 13.18 79.0423 13.32 79.4249 13.32Z" fill="#5A4522"/>
<circle cx="3" cy="39.5" r="3" fill="#5A4522"/>
<path d="M3 39.5L7.5 19H63" stroke="#5A4522" stroke-width="2" stroke-linecap="round"/>
</svg>
