<svg width="435" height="61" viewBox="0 0 435 61" fill="none" xmlns="http://www.w3.org/2000/svg">
<path d="M23.5778 6.26235L2.479 42.8347C-2.13083 50.8294 3.63951 60.8227 12.8592 60.8227H55.089C64.3248 60.8227 70.079 50.8132 65.4692 42.8186L44.3542 6.24624C39.7444 -1.74842 28.2037 -1.74842 23.5939 6.24624L23.5778 6.26235ZM16.7275 44.5271L19.242 47.106C19.8545 47.7346 19.242 48.7662 18.4038 48.5567L14.9223 47.6702C14.3582 47.5251 14.0841 46.8965 14.3743 46.3968L15.3575 44.7044C15.6476 44.2047 16.3407 44.1242 16.7437 44.5271H16.7275ZM38.7612 47.2672L41.2757 49.8461C41.8882 50.4748 41.2757 51.5063 40.4375 51.2968L36.956 50.4103C36.3918 50.2652 36.1178 49.6366 36.4079 49.1369L37.3912 47.4445C37.6813 46.9449 38.3744 46.8643 38.7773 47.2672H38.7612ZM55.6048 47.0093L58.1192 49.5883C58.7317 50.2169 58.1192 51.2484 57.2811 51.0389L53.7995 50.1524C53.2354 50.0073 52.9614 49.3787 53.2515 48.879L54.2347 47.1866C54.5249 46.687 55.218 46.6064 55.6209 47.0093H55.6048ZM33.1198 34.0341L35.6343 36.613C36.2468 37.2417 35.6343 38.2732 34.7961 38.0637L31.3146 37.1772C30.7504 37.0321 30.4764 36.4035 30.7666 35.9038L31.7498 34.2114C32.0399 33.7118 32.733 33.6312 33.1359 34.0341H33.1198ZM47.4006 32.3095L49.915 34.8884C50.5275 35.517 49.915 36.5486 49.0769 36.339L45.5953 35.4525C45.0312 35.3075 44.7572 34.6789 45.0473 34.1792L46.0305 32.4868C46.3207 31.9871 47.0138 31.9065 47.4167 32.3095H47.4006ZM34.0063 14.5955L36.5208 17.1744C37.1333 17.803 36.5208 18.8346 35.6826 18.6251L32.2011 17.7386C31.6369 17.5935 31.3629 16.9649 31.6531 16.4652L32.6363 14.7728C32.9264 14.2731 33.6195 14.1925 34.0224 14.5955H34.0063ZM29.1708 11.2913L20.3703 18.5767C19.7094 19.1247 19.516 20.0596 19.919 20.8171L24.416 29.3276C25.0446 30.5042 24.2225 31.9387 22.8847 31.9871L13.9391 32.3256C13.0848 32.3578 12.3595 32.9864 12.2144 33.8407L10.248 45.4781C10.0062 46.8804 8.34604 47.4768 7.26612 46.558L4.17142 43.8824C3.51057 43.3182 3.34938 42.3511 3.78457 41.5936L23.2393 7.87418C23.6745 7.11662 24.5771 6.77814 25.4153 7.06827L28.6067 8.16431C29.9445 8.63174 30.2669 10.3725 29.1708 11.2751V11.2913Z" fill="#DC4405"/>
<path d="M98.3343 38.0479C98.3343 23.074 106.458 14.9504 121.512 14.9504C133.666 14.9504 141.241 20.5435 141.241 29.2957C141.241 36.9519 136.244 40.8041 125.703 41.4327L114.356 42.2225C115.001 46.5584 117.741 48.4442 123.769 48.4442C127.396 48.4442 131.651 47.6544 134.874 46.3972C137.856 45.14 139.952 45.688 139.952 48.283V53.4086C139.952 55.8586 138.662 57.5027 136.003 58.4536C132.295 59.872 126.67 60.9036 121.674 60.9036C105.733 60.9036 98.3343 53.6504 98.3343 38.0479ZM119.981 33.4703C124.736 33.0835 126.815 32.0519 126.815 29.6019C126.815 27.152 124.8 25.8947 121.254 25.8947C117.064 25.8947 114.646 28.651 114.259 33.8572L119.981 33.4703Z" fill="#A8AD00"/>
<path d="M145.174 38.0479C145.174 22.6711 152.734 14.9504 168.03 14.9504C172.462 14.9504 175.75 15.7402 177.362 16.3688C179.458 17.1586 180.505 18.6576 179.941 21.0915L178.893 26.4589C178.329 29.4569 176.717 29.5375 174.139 28.8283C171.882 28.1191 170.673 27.8773 168.82 27.8773C163.339 27.8773 161.26 30.7947 161.26 37.8061C161.26 44.8176 163.517 47.9768 168.9 47.9768C170.915 47.9768 172.446 47.735 175.895 46.8807C178.394 46.3327 179.683 47.0419 179.683 49.8787V55.0043C179.683 57.5349 178.797 58.7921 176.218 59.6625C174.122 60.4523 171.141 60.9197 167.449 60.9197C152.556 60.9197 145.158 53.1185 145.158 38.064L145.174 38.0479Z" fill="#A8AD00"/>
<path d="M183.084 37.9673C183.084 22.5905 190.724 14.9504 206.02 14.9504C221.317 14.9504 229.037 22.5905 229.037 37.9673C229.037 53.3441 221.317 60.9036 206.02 60.9036C190.724 60.9036 183.084 53.2474 183.084 37.9673ZM213.193 37.9673C213.193 30.5529 211.178 27.7161 206.037 27.7161C200.895 27.7161 198.945 30.5529 198.945 37.9673C198.945 45.3817 200.959 48.1379 206.037 48.1379C211.114 48.1379 213.193 45.3011 213.193 37.9673Z" fill="#A8AD00"/>
<path d="M238.467 57.1644V34.0508H236.21C233.631 34.0508 232.583 32.987 232.583 30.3597V24.6216C232.583 21.9943 233.631 20.8499 236.21 20.8499H238.467V19.5443C238.467 6.34348 245.156 0.105713 259.227 0.105713C263.256 0.105713 264.385 1.25011 264.385 5.02178V9.85726C264.385 12.2428 263.256 13.4678 260.758 13.4678C255.842 13.4678 254.069 15.4342 254.069 20.5114V20.8338H258.502C261 20.8338 262.128 21.9782 262.128 24.6055V30.3436C262.128 32.9709 261 34.0347 258.502 34.0347H254.069V57.1483C254.069 59.8561 253.021 60.9199 250.442 60.9199H242.158C239.579 60.9199 238.45 59.8561 238.45 57.1483L238.467 57.1644Z" fill="#A8AD00"/>
<path d="M267.125 57.2442V18.9795C267.125 16.4167 268.253 15.2884 270.751 15.2884H277.279C279.858 15.2884 280.906 16.3361 280.906 18.8828V22.4127C282.84 18.7377 288.546 15.0789 292.737 15.0789C295.396 15.0789 296.525 16.4167 296.525 18.9795V28.0218C296.525 30.5846 295.396 31.6162 292.817 31.6162C290.077 31.6162 285.741 31.0521 282.76 30.4879V57.2281C282.76 59.8715 281.712 60.9031 279.052 60.9031H270.768C268.269 60.9031 267.141 59.8554 267.141 57.2281L267.125 57.2442Z" fill="#A8AD00"/>
<path d="M299.474 38.2408C299.474 23.3797 307.598 15.1433 322.652 15.1433C334.805 15.1433 342.381 20.8653 342.381 29.553C342.381 37.1447 337.384 40.9809 326.843 41.6095L315.496 42.3832C316.14 46.6868 318.881 48.5726 324.909 48.5726C328.535 48.5726 332.791 47.7828 336.014 46.5417C338.996 45.2845 341.092 45.8325 341.092 48.4275V53.5209C341.092 55.9548 339.802 57.5827 337.143 58.5337C333.435 59.936 327.81 60.9675 322.813 60.9675C306.872 60.9675 299.474 53.7627 299.474 38.273V38.2408ZM321.137 33.6954C325.892 33.3086 327.971 32.2931 327.971 29.8593C327.971 27.4254 325.956 26.1843 322.41 26.1843C318.22 26.1843 315.802 28.9244 315.399 34.0823L321.121 33.6954H321.137Z" fill="#A8AD00"/>
<path d="M349.296 58.8885C346.797 58.1793 345.911 57.0027 345.911 54.6494V49.9429C345.911 46.7998 347.523 46.413 350.505 47.2673C354.373 48.5245 358.789 49.1531 362.416 49.1531C367.01 49.1531 368.944 48.4439 368.944 46.7192C368.944 44.9946 367.816 44.2854 363.786 43.4956L359.112 42.5607C351.23 41.0617 346.797 36.9032 346.797 29.7628C346.797 20.8172 355.002 15.1597 368.364 15.1597C372.796 15.1597 377.938 15.9495 380.759 16.9649C383.015 17.8998 383.821 19.2376 383.337 21.752L382.612 25.7494C382.129 28.2638 380.839 28.8924 377.615 27.9415C374.714 27.1517 371.813 26.926 369.089 26.926C365.059 26.926 362.883 27.7964 362.883 29.6016C362.883 31.1651 364.173 31.7937 368.041 32.5835L372.716 33.5184C380.839 35.0818 385.03 38.9341 385.03 46.3807C385.03 55.407 376.906 60.9033 363.383 60.9033C358.548 60.9033 353.325 60.1135 349.296 58.8563V58.8885Z" fill="#A8AD00"/>
<path d="M390.832 57.1639V3.82857C390.832 1.08847 391.961 0.0246582 394.459 0.0246582H402.744C405.403 0.0246582 406.451 1.10459 406.451 3.82857V17.5774C410.303 15.0952 415.477 15.1436 418.669 15.6755C423.44 16.4653 434.142 20.3176 434.142 33.9858V57.18C434.142 59.9201 433.095 60.9839 430.516 60.9839H422.231C419.652 60.9839 418.524 59.904 418.524 57.18V35.2431C418.524 30.6977 416.106 27.7158 413.124 27.7158C410.948 27.7158 408.45 28.1994 406.435 29.8596V57.1961C406.435 59.9362 405.387 61.0001 402.728 61.0001H394.443C391.945 61.0001 390.816 59.9201 390.816 57.1961L390.832 57.1639Z" fill="#A8AD00"/>
</svg>
