<?xml version="1.0" encoding="UTF-8"?>
<svg id="Capa_1" data-name="Capa 1" xmlns="http://www.w3.org/2000/svg" version="1.1" viewBox="0 0 234 234">
  <defs>
    <style>
      .cls-1 {
        fill: none;
        stroke: #5a4522;
        stroke-width: 3px;
      }

      .cls-2 {
        fill: #5a4522;
        stroke-width: 0px;
      }
    </style>
  </defs>
  <path class="cls-2" d="M198.6,142.2c0-.1.1-.2.3-.3.1,0,.3,0,.4,0l12.1,4.6c.1,0,.2.1.3.3,0,.1,0,.3,0,.4l-3.7,9.6c0,.1-.1.2-.3.3-.1,0-.3,0-.4,0l-2.6-1c-.1,0-.2-.1-.3-.3,0-.1,0-.3,0-.4l2.2-5.6-1.2-.5-2,5.2c0,.1-.1.2-.3.3-.1,0-.3,0-.4,0l-2.4-.9c-.1,0-.2-.1-.3-.3,0-.1,0-.3,0-.4l2-5.2-1.2-.5-2.2,5.8c0,.1-.1.2-.3.3-.1,0-.3,0-.4,0l-2.6-1c-.1,0-.2-.1-.3-.3,0-.1,0-.3,0-.4l3.7-9.7Z"/>
  <path class="cls-2" d="M193.7,154.3c0-.1.2-.2.3-.3.1,0,.3,0,.4,0l11.2,6.4c.1,0,.2.2.3.3,0,.1,0,.3,0,.4l-2,3.5c0,.1-.2.2-.3.3-.1,0-.3,0-.4,0l-8.1-4.6-2.7,4.8c0,.1-.2.2-.3.3-.1,0-.3,0-.4,0l-2.6-1.5c-.1,0-.2-.2-.3-.3,0-.1,0-.3,0-.4l5-8.8Z"/>
  <path class="cls-2" d="M187.7,164.7c0-.1.2-.2.4-.2.1,0,.3,0,.4.1l10.2,7.9c.1,0,.2.2.2.4,0,.1,0,.3-.1.4l-6.3,8.1c0,.1-.2.2-.4.2-.2,0-.3,0-.4-.1l-2.2-1.7c-.1,0-.2-.2-.2-.4,0-.1,0-.3.1-.4l3.7-4.7-1-.8-3.4,4.4c0,.1-.2.2-.4.2-.1,0-.3,0-.4-.1l-2.1-1.6c-.1,0-.2-.2-.2-.4,0-.2,0-.3.1-.4l3.4-4.4-1-.8-3.8,4.9c0,.1-.2.2-.4.2-.2,0-.3,0-.4-.1l-2.2-1.7c-.1,0-.2-.2-.2-.4,0-.1,0-.3.1-.4l6.4-8.2Z"/>
  <path class="cls-2" d="M175.1,178.7c.9-.9,1.9-1.5,2.9-1.9,1-.4,2-.5,2.9-.3,1,.2,1.9.7,2.8,1.6.4.4.8.8,1.2,1.3.4.5.8.9,1.2,1.3.8.9,1.3,1.9,1.4,2.9.1,1,0,2-.5,2.9-.5,1-1.2,1.9-2.1,2.7-.6.6-1.3,1.1-2,1.5-.7.4-1.4.7-2.2.8-.8.1-1.5,0-2.2-.1-.7-.2-1.4-.6-2-1.3,0,0-.1-.2-.1-.3,0-.1,0-.2.1-.3l3-2.8c.2-.1.3-.2.4-.2.1,0,.3,0,.5.2.4.2.7.3,1,.2.3,0,.6-.2.8-.5.3-.3.5-.6.5-1,0-.3-.2-.7-.6-1.2-.7-.8-1.5-1.6-2.3-2.5-.4-.4-.8-.6-1.2-.7-.4,0-.7.2-1,.5-.3.2-.4.5-.5.8,0,.3,0,.6.1,1,.1.2.1.4.1.5,0,.1-.1.3-.3.4l-3,2.8c0,0-.2.1-.3.1-.1,0-.2,0-.3-.1-.6-.7-1-1.4-1.2-2.1-.2-.7-.1-1.5,0-2.2.2-.7.5-1.5,1-2.1.4-.7,1-1.3,1.6-1.9Z"/>
  <path class="cls-2" d="M164.2,187.3c1.1-.7,2.1-1.2,3.1-1.4,1-.2,2-.2,2.9.2.9.4,1.8,1,2.5,2.1.3.4.6.9,1,1.5.3.5.7,1,1,1.5.6,1.1.9,2.1.9,3.1,0,1-.4,1.9-1,2.8-.6.9-1.4,1.7-2.5,2.3-.7.5-1.5.8-2.2,1.1-.8.3-1.5.4-2.3.4-.8,0-1.5-.2-2.2-.5-.7-.3-1.3-.9-1.8-1.6,0,0,0-.2,0-.3,0-.1,0-.2.2-.3l3.4-2.3c.2-.1.3-.2.5-.2.1,0,.3.1.5.2.4.3.7.4,1,.4.3,0,.6-.1.9-.3.4-.2.6-.5.7-.9,0-.3,0-.8-.3-1.3-.6-.9-1.2-1.9-1.9-2.8-.4-.5-.7-.8-1.1-.8-.3,0-.7,0-1.1.3-.3.2-.5.4-.6.7-.1.3-.1.6,0,1,0,.2,0,.4,0,.5,0,.1-.2.2-.3.4l-3.4,2.3c0,0-.2,0-.3,0-.1,0-.2,0-.3-.2-.5-.8-.8-1.5-.8-2.3,0-.7,0-1.5.4-2.2.3-.7.7-1.4,1.3-2,.6-.6,1.2-1.1,1.9-1.6Z"/>
  <path class="cls-2" d="M157.2,191.8c.1,0,.3,0,.4,0,.1,0,.2.1.3.3l5.7,11.6c0,.1,0,.3,0,.4,0,.1-.1.2-.3.3l-3.7,1.8c-.1,0-.3,0-.4,0-.1,0-.2-.1-.3-.3l-5.7-11.6c0-.1,0-.3,0-.4,0-.1.1-.2.3-.3l3.7-1.8Z"/>
  <path class="cls-2" d="M145.2,196.7c1.2-.4,2.4-.6,3.4-.6,1.1,0,2,.4,2.8.9.8.6,1.4,1.4,1.8,2.5.2.5.4,1.1.6,1.6.2.6.4,1.1.6,1.7.3,1.1.4,2.2.1,3.1-.3,1-.8,1.8-1.6,2.5-.8.7-1.8,1.3-3,1.7s-2.4.6-3.5.5c-1.1,0-2-.4-2.8-1-.8-.6-1.4-1.4-1.8-2.5-.2-.5-.4-1.1-.6-1.7-.2-.6-.4-1.1-.5-1.7-.3-1.1-.4-2.2,0-3.1.3-.9.8-1.8,1.6-2.5.8-.7,1.8-1.3,3-1.7ZM146.5,200.4c-.4.1-.7.4-.9.7-.2.3-.2.8,0,1.3.2.6.3,1.1.5,1.6.2.5.4,1,.6,1.6.1.3.3.6.5.8.2.2.4.3.6.3.2,0,.5,0,.8,0,.3,0,.5-.2.7-.4.2-.2.3-.4.3-.7,0-.3,0-.6-.1-.9-.2-.5-.3-1-.5-1.6-.2-.5-.4-1.1-.6-1.6-.2-.5-.5-.9-.8-1-.3-.2-.7-.2-1.1,0ZM151.9,210.5c.2,0,.3,0,.4.2,0,.1,0,.2,0,.3l-1.1,3c0,.2-.2.4-.2.4,0,0-.2.1-.3.2l-3.7,1.3c-.2,0-.4,0-.5-.3,0,0,0-.2,0-.3l2-3.2c0-.1.2-.2.2-.3,0-.1.2-.2.4-.3l2.8-1Z"/>
  <path class="cls-2" d="M137.5,199.4c.1,0,.3,0,.4,0,.1,0,.2.2.2.3l2.1,12.7c0,.1,0,.3,0,.4,0,.1-.2.2-.3.2l-3.1.5c-.3,0-.5,0-.6,0-.1,0-.2-.2-.3-.2l-4.2-4.9.9,5.4c0,.1,0,.3,0,.4s-.2.2-.3.2l-3.6.6c-.1,0-.3,0-.4,0-.1,0-.2-.2-.2-.3l-2.1-12.7c0-.1,0-.3,0-.4,0-.1.2-.2.3-.2l3.1-.5c.3,0,.5,0,.6,0,.1.1.2.2.3.2l4.2,4.5-.8-5c0-.1,0-.3,0-.4s.2-.2.3-.2l3.6-.6Z"/>
  <path class="cls-2" d="M118.7,201.7c.1,0,.3,0,.4.2s.1.2.1.4l-.7,12.9c0,.1,0,.3-.2.4-.1.1-.2.1-.4.1l-5.8-.3c-1.3,0-2.4-.3-3.3-.8-1-.5-1.7-1.1-2.3-2-.6-.8-.8-1.9-.8-3.1,0-.6,0-1.1,0-1.5,0-.4,0-.9.1-1.5.1-1.2.5-2.3,1.1-3.1.6-.8,1.4-1.3,2.4-1.7,1-.3,2.1-.5,3.4-.4l5.9.3ZM114,205.3h-1.3c-.3,0-.6,0-.8,0-.2.1-.4.3-.6.5-.2.2-.3.5-.3.9,0,.4,0,.7,0,1,0,.3,0,.6,0,.9,0,.3,0,.7,0,1,0,.6.2,1,.5,1.2.3.3.7.4,1.1.4h1.2c0,0,.3-6.1.3-6.1Z"/>
  <path class="cls-2" d="M104.7,200.7c.1,0,.3.1.3.2s.1.3,0,.4l-2.7,12.6c0,.1-.1.3-.2.3-.1,0-.3.1-.4,0l-10-2.2c-.1,0-.3-.1-.3-.2,0-.1-.1-.3,0-.4l.6-2.8c0-.1.1-.3.2-.3.1,0,.3-.1.4,0l5.9,1.3.3-1.2-5.4-1.2c-.1,0-.3-.1-.3-.2,0-.1-.1-.3,0-.4l.5-2.5c0-.1.1-.3.2-.3.1,0,.3-.1.4,0l5.4,1.2.3-1.2-6-1.3c-.1,0-.3-.1-.3-.2,0-.1-.1-.3,0-.4l.6-2.8c0-.1.1-.3.2-.3.1,0,.3-.1.4,0l10.2,2.2Z"/>
  <path class="cls-2" d="M82.5,193.7c1.2.5,2.1,1.2,2.9,1.9.7.8,1.2,1.6,1.4,2.6.2,1,0,2-.4,3.2-.2.5-.5,1-.7,1.6-.3.6-.5,1.1-.8,1.6-.6,1.1-1.3,1.9-2.1,2.4-.9.5-1.8.7-2.9.6-1.1,0-2.2-.4-3.3-.9-.8-.4-1.5-.8-2.1-1.3-.6-.5-1.2-1.1-1.6-1.7-.4-.6-.6-1.3-.7-2.1,0-.7,0-1.5.4-2.4,0-.1.1-.2.3-.2.1,0,.2,0,.3,0l3.7,1.7c.2,0,.3.2.4.3,0,.1,0,.3,0,.5,0,.4,0,.8.2,1,.2.2.4.4.7.6.4.2.8.2,1.1.1.3-.1.6-.4.9-1,.5-1,1-2,1.4-3.1.2-.6.3-1,.2-1.3-.1-.3-.4-.6-.8-.8-.3-.1-.6-.2-.9-.2-.3,0-.6.2-.9.5-.2.2-.3.3-.4.3-.1,0-.3,0-.5,0l-3.7-1.7c-.1,0-.2-.1-.2-.3,0-.1,0-.2,0-.3.4-.8.9-1.4,1.5-1.9.6-.4,1.3-.7,2-.8.8-.1,1.5,0,2.3,0,.8.2,1.6.4,2.4.8Z"/>
  <path class="cls-2" d="M70.5,186.9c1.1.7,1.9,1.5,2.5,2.4.6.9.9,1.8.9,2.8,0,1-.3,2-.9,3-.3.5-.6.9-1,1.5-.3.5-.7,1-1,1.5-.7.9-1.5,1.6-2.4,2-.9.4-1.9.4-3,.2-1.1-.2-2.1-.7-3.2-1.4-1.1-.7-1.9-1.5-2.5-2.5-.6-.9-.9-1.9-.9-2.8,0-1,.3-2,.9-3,.3-.5.6-1,1-1.5.3-.5.7-1,1-1.4.7-1,1.5-1.6,2.5-2,.9-.4,1.9-.4,2.9-.2,1,.2,2.1.7,3.2,1.4ZM68.3,190.1c-.4-.2-.7-.3-1.1-.3-.4,0-.7.3-1,.8-.3.5-.7.9-1,1.4-.3.5-.6.9-.9,1.4-.2.3-.3.6-.3.9,0,.3,0,.5.1.7.1.2.3.4.5.6.2.2.5.2.7.3.2,0,.5,0,.7-.1.2-.1.5-.3.7-.7.3-.4.6-.9.9-1.4.3-.5.6-.9.9-1.4.3-.5.4-.9.3-1.3,0-.4-.3-.7-.7-.9Z"/>
  <path class="cls-2" d="M63.7,182.2c.1,0,.2.2.2.4,0,.2,0,.3-.1.4l-8.8,9.5c0,.1-.2.2-.4.2-.2,0-.3,0-.4-.1l-2.9-2.7c-.1,0-.2-.2-.2-.4,0-.2,0-.3.1-.4l6.3-6.9-4.1-3.8c-.1,0-.2-.2-.2-.4,0-.2,0-.3.1-.4l2-2.2c0-.1.2-.2.4-.2.2,0,.3,0,.4.1l7.4,6.8Z"/>
  <path class="cls-2" d="M51.5,169.4c.8,1,1.4,2,1.7,3.1.3,1,.3,2,0,2.9-.3.9-.9,1.8-1.8,2.6-.4.4-.9.7-1.3,1.1-.5.4-.9.7-1.4,1.1-1,.7-1.9,1.1-2.9,1.1s-2-.1-2.9-.7c-.9-.5-1.8-1.3-2.6-2.3-.8-1-1.4-2.1-1.6-3.1-.3-1-.3-2,0-3,.3-1,.9-1.8,1.8-2.6.4-.4.9-.8,1.4-1.1.5-.4.9-.7,1.4-1.1,1-.7,1.9-1.1,2.9-1.1,1,0,1.9.2,2.9.7.9.5,1.8,1.3,2.6,2.3ZM48.5,171.8c-.3-.3-.6-.5-1-.6-.4,0-.8.1-1.2.4-.5.3-.9.7-1.4,1s-.9.7-1.3,1.1c-.3.2-.5.5-.6.7-.1.2-.1.5,0,.7,0,.2.2.5.3.7.2.2.4.4.6.5.2,0,.5.1.7,0,.3,0,.5-.2.8-.4.4-.3.9-.7,1.3-1,.4-.3.9-.7,1.3-1.1.4-.4.7-.7.7-1.1,0-.4,0-.7-.4-1.1Z"/>
  <path class="cls-2" d="M46.5,163c0,.1,0,.3,0,.4,0,.1-.1.3-.3.3l-11.3,6.3c-.1,0-.3,0-.4,0-.1,0-.3-.1-.3-.3l-2.9-5.2c-.9-1.7-1.3-3.2-1.1-4.6.2-1.4,1-2.4,2.3-3.1.8-.4,1.6-.6,2.3-.6.8,0,1.5.2,2.1.6l2.8-4.4c0,0,.1-.1.2-.2.1,0,.2,0,.3,0,.1,0,.2,0,.3.2l2,3.6c.1.2.2.4.1.6s-.1.3-.2.4l-2.5,3.4.4.7,3.3-1.9c.1,0,.3,0,.4,0,.1,0,.3.1.3.3l1.9,3.4ZM37.2,163l-.7-1.3c-.1-.3-.3-.4-.6-.4-.3,0-.5,0-.7.1-.2.1-.4.3-.5.6-.1.2-.1.5,0,.8l.7,1.3,1.9-1Z"/>
  <path class="cls-2" d="M39.9,150.7c0,.1,0,.3,0,.4,0,.1-.2.2-.3.3l-12.1,4.4c-.1,0-.3,0-.4,0-.1,0-.2-.2-.3-.3l-3.5-9.6c0-.1,0-.3,0-.4,0-.1.2-.2.3-.3l2.7-1c.1,0,.3,0,.4,0,.1,0,.2.2.3.3l2,5.6,1.2-.4-1.9-5.2c0-.1,0-.3,0-.4,0-.1.2-.2.3-.3l2.4-.9c.1,0,.3,0,.4,0,.1,0,.2.2.3.3l1.9,5.2,1.2-.4-2.1-5.8c0-.1,0-.3,0-.4,0-.1.2-.2.3-.3l2.7-1c.1,0,.3,0,.4,0,.1,0,.2.2.3.3l3.6,9.8Z"/>
  <path class="cls-2" d="M29.4,118.1c0,.5-.1,1-.4,1.4-.2.4-.6.8-1,1-.4.3-.9.4-1.4.4-.5,0-1-.1-1.4-.4-.4-.2-.8-.6-1-1-.3-.4-.4-.9-.4-1.4,0-.5.1-1,.4-1.4.2-.4.6-.8,1-1,.4-.3.9-.4,1.4-.4.5,0,1,.1,1.4.4.4.2.8.6,1,1,.3.4.4.9.4,1.4Z"/>
  <path class="cls-2" d="M34.7,99.2c0,.1-.1.2-.3.3-.1,0-.3,0-.4,0l-12.4-3.5c-.1,0-.2-.1-.3-.3,0-.1,0-.3,0-.4l2.8-9.9c0-.1.1-.2.3-.3.1,0,.3,0,.4,0l2.7.8c.1,0,.2.1.3.3,0,.1,0,.3,0,.4l-1.6,5.8,1.2.3,1.5-5.4c0-.1.1-.2.3-.3.1,0,.3,0,.4,0l2.5.7c.1,0,.2.1.3.3,0,.1,0,.3,0,.4l-1.5,5.4,1.2.3,1.7-5.9c0-.1.1-.2.3-.3.1,0,.3,0,.4,0l2.7.8c.1,0,.2.1.3.3,0,.1,0,.3,0,.4l-2.8,10Z"/>
  <path class="cls-2" d="M38.3,87c0,.1-.2.2-.3.3-.1,0-.3,0-.4,0l-11.8-5.3c-.1,0-.2-.2-.3-.3,0-.1,0-.3,0-.4l1.6-3.7c0-.1.2-.2.3-.3.1,0,.3,0,.4,0l8.6,3.8,2.3-5.1c0-.1.2-.2.3-.3.1,0,.3,0,.4,0l2.8,1.2c.1,0,.2.2.3.3,0,.1,0,.3,0,.4l-4.1,9.2Z"/>
  <path class="cls-2" d="M43.2,76.2c0,.1-.2.2-.3.2-.1,0-.3,0-.4,0l-10.9-6.9c-.1,0-.2-.2-.2-.3,0-.1,0-.3,0-.4l5.5-8.7c0-.1.2-.2.3-.2.1,0,.3,0,.4,0l2.4,1.5c.1,0,.2.2.2.3,0,.1,0,.3,0,.4l-3.2,5.1,1.1.7,3-4.7c0-.1.2-.2.3-.2.1,0,.3,0,.4,0l2.2,1.4c.1,0,.2.2.2.3,0,.1,0,.3,0,.4l-3,4.7,1.1.7,3.3-5.2c0-.1.2-.2.3-.2.1,0,.3,0,.4,0l2.4,1.5c.1,0,.2.2.2.3,0,.1,0,.3,0,.4l-5.6,8.8Z"/>
  <path class="cls-2" d="M54.5,60.8c-.9,1-1.7,1.7-2.7,2.2-.9.5-1.9.7-2.9.6-1-.1-2-.6-2.9-1.4-.4-.4-.9-.7-1.3-1.2-.5-.4-.9-.8-1.3-1.2-.9-.9-1.4-1.8-1.6-2.8-.2-1-.1-2,.3-3,.4-1,1-2,1.8-2.9.6-.6,1.2-1.2,1.9-1.6.7-.5,1.4-.8,2.1-1,.7-.2,1.5-.2,2.2,0,.7.1,1.4.5,2.1,1.1,0,0,.1.2.1.3,0,.1,0,.2-.1.3l-2.7,3c-.1.2-.3.3-.4.3-.1,0-.3,0-.5-.1-.4-.2-.8-.2-1-.1-.3,0-.5.3-.8.5-.3.3-.4.7-.4,1,0,.3.2.7.7,1.2.8.8,1.6,1.5,2.5,2.2.5.4.9.6,1.2.5.3,0,.7-.2,1-.6.2-.3.4-.5.4-.8,0-.3,0-.6-.2-1-.1-.2-.2-.4-.2-.5,0-.1,0-.3.2-.4l2.7-3c0,0,.2-.1.3-.1.1,0,.2,0,.3,0,.7.6,1.1,1.3,1.3,2,.2.7.3,1.4.2,2.2s-.4,1.5-.7,2.2c-.4.7-.9,1.4-1.4,2Z"/>
  <path class="cls-2" d="M64.5,51.3c-1,.8-2,1.4-3,1.7-1,.3-2,.4-2.9.1-.9-.3-1.8-.9-2.7-1.8-.4-.4-.7-.9-1.1-1.4-.4-.5-.8-1-1.1-1.4-.7-1-1.1-2-1.2-3,0-1,.2-2,.7-2.9.5-.9,1.3-1.8,2.2-2.6.7-.5,1.4-1,2.1-1.3.7-.4,1.5-.6,2.2-.7.8,0,1.5,0,2.2.3.7.3,1.3.7,1.9,1.4,0,0,.1.2,0,.3,0,.1,0,.2-.2.3l-3.2,2.6c-.2.1-.3.2-.4.2-.1,0-.3,0-.5-.2-.4-.2-.7-.3-1-.3-.3,0-.6.2-.8.4-.3.3-.5.6-.6.9,0,.3.1.8.5,1.2.7.9,1.4,1.7,2.1,2.6.4.5.8.7,1.1.7.3,0,.7-.1,1-.4.3-.2.5-.5.5-.8.1-.3,0-.6,0-1,0-.2-.1-.4,0-.5,0-.1.1-.3.3-.4l3.2-2.6c0,0,.2-.1.3,0,.1,0,.2,0,.3.1.6.7.9,1.4,1,2.2.1.7,0,1.5-.2,2.2-.2.7-.6,1.4-1.1,2.1-.5.6-1.1,1.2-1.7,1.8Z"/>
  <path class="cls-2" d="M70.9,46.3c-.1,0-.3,0-.4,0-.1,0-.3-.1-.3-.2l-6.8-11c0-.1,0-.3,0-.4,0-.1.1-.3.2-.3l3.5-2.2c.1,0,.3,0,.4,0,.1,0,.3.1.3.2l6.8,11c0,.1,0,.3,0,.4,0,.1-.1.3-.2.3l-3.5,2.2Z"/>
  <path class="cls-2" d="M82.2,40.2c-1.2.5-2.3.8-3.4.9-1.1,0-2-.2-2.9-.7-.8-.5-1.5-1.3-2.1-2.3-.2-.5-.5-1-.7-1.6-.3-.6-.5-1.1-.7-1.6-.4-1.1-.6-2.1-.4-3.1.2-1,.6-1.9,1.3-2.7.7-.8,1.7-1.5,2.9-2,1.2-.5,2.3-.8,3.4-.9,1.1,0,2,.2,2.9.7.9.5,1.6,1.3,2.1,2.3.3.5.5,1,.8,1.6.3.6.5,1.1.7,1.6.4,1.1.6,2.1.4,3.1-.2,1-.6,1.8-1.4,2.6-.7.8-1.7,1.4-2.9,2ZM80.5,36.7c.4-.2.7-.4.8-.8.1-.4,0-.8-.1-1.3-.2-.5-.4-1.1-.7-1.6-.2-.5-.5-1-.7-1.5-.2-.3-.4-.6-.6-.7-.2-.2-.4-.3-.7-.3-.2,0-.5,0-.8.2-.3.1-.5.3-.6.5-.1.2-.2.4-.3.7,0,.3,0,.6.2.9.2.5.4,1,.7,1.5.2.5.5,1,.7,1.5.3.5.6.8.9,1,.3.1.7,0,1.1,0ZM74.1,27.2c-.2,0-.3,0-.4-.2,0,0,0-.2,0-.3l.8-3.1c0-.2.1-.4.2-.4,0,0,.2-.2.3-.2l3.6-1.6c.2-.1.4,0,.5.2,0,0,0,.2,0,.3l-1.7,3.4c0,.1-.1.2-.2.4s-.2.2-.4.3l-2.7,1.2Z"/>
  <path class="cls-2" d="M90.1,36.6c-.1,0-.3,0-.4,0-.1,0-.2-.2-.3-.3l-3.3-12.5c0-.1,0-.3,0-.4,0-.1.2-.2.3-.3l3.1-.8c.3,0,.5,0,.6,0,.1,0,.2.2.3.2l4.7,4.5-1.4-5.3c0-.1,0-.3,0-.4,0-.1.2-.2.3-.3l3.5-.9c.1,0,.3,0,.4,0,.1,0,.2.2.3.3l3.3,12.5c0,.1,0,.3,0,.4,0,.1-.2.2-.3.3l-3.1.8c-.3,0-.5,0-.6,0-.2,0-.3-.2-.3-.2l-4.6-4.1,1.3,4.9c0,.1,0,.3,0,.4,0,.1-.2.2-.3.3l-3.5.9Z"/>
  <path class="cls-2" d="M108,32.6c-.1,0-.3,0-.4-.1-.1-.1-.2-.2-.2-.4l-.5-12.9c0-.1,0-.3.1-.4.1-.1.2-.2.4-.2l5.8-.2c1.3,0,2.4.1,3.4.5,1,.4,1.8,1,2.4,1.7.6.8,1,1.8,1.1,3,0,.6,0,1.1.1,1.5,0,.4,0,.9,0,1.5,0,1.3-.3,2.3-.8,3.2-.5.8-1.3,1.5-2.2,1.9-.9.4-2.1.7-3.3.7l-5.9.2ZM112.3,28.5h1.3c.3,0,.6-.1.8-.2.2-.1.4-.3.6-.6.1-.2.2-.6.2-.9,0-.4,0-.7,0-1,0-.3,0-.6,0-.9,0-.3,0-.7,0-1,0-.6-.2-1-.6-1.2-.3-.2-.7-.3-1.2-.3h-1.2c0,0,.3,6.2.3,6.2Z"/>
  <path class="cls-2" d="M122.5,32.2c-.1,0-.3,0-.4-.2,0-.1-.1-.3-.1-.4l1.5-12.8c0-.1,0-.3.2-.4.1,0,.3-.1.4-.1l10.2,1.2c.1,0,.3,0,.4.2,0,.1.1.3.1.4l-.3,2.8c0,.1,0,.3-.2.4-.1,0-.3.1-.4.1l-6-.7-.2,1.3,5.5.7c.1,0,.3,0,.4.2,0,.1.1.3.1.4l-.3,2.6c0,.1,0,.3-.2.4-.1,0-.2.1-.4.1l-5.5-.7-.2,1.3,6.1.7c.1,0,.3,0,.4.2,0,.1.1.3.1.4l-.3,2.8c0,.1,0,.3-.2.4-.1,0-.3.1-.4.1l-10.3-1.2Z"/>
  <path class="cls-2" d="M145,36.9c-1.2-.4-2.2-1-3-1.6-.8-.7-1.4-1.5-1.7-2.4-.3-.9-.2-2,.1-3.2.2-.5.4-1.1.6-1.7.2-.6.4-1.2.6-1.7.5-1.2,1.1-2,1.9-2.6.8-.6,1.8-.9,2.8-.9,1.1,0,2.2.1,3.4.5.8.3,1.5.6,2.2,1.1.7.4,1.3,1,1.7,1.6.5.6.8,1.3.9,2,.2.7,0,1.5-.2,2.4,0,.1-.1.2-.2.3-.1,0-.2,0-.3,0l-3.9-1.3c-.2,0-.3-.2-.4-.3,0-.1,0-.3,0-.5,0-.5,0-.8-.3-1-.2-.2-.5-.4-.8-.5-.4-.1-.8-.1-1.1,0-.3.1-.6.5-.8,1.1-.4,1-.8,2.1-1.1,3.2-.2.6-.2,1,0,1.3.2.3.5.5.9.7.3.1.6.1.9,0,.3,0,.6-.3.8-.6.1-.2.3-.3.4-.3.1,0,.3,0,.5,0l3.9,1.3c.1,0,.2.1.2.2,0,.1,0,.2,0,.3-.3.9-.8,1.5-1.3,2-.6.5-1.2.8-2,1-.7.2-1.5.2-2.3.2-.8,0-1.6-.3-2.4-.5Z"/>
  <path class="cls-2" d="M158,42.7c-1.1-.6-2.1-1.4-2.7-2.2-.7-.8-1.1-1.7-1.2-2.7-.1-1,.1-2,.6-3.1.3-.5.5-1,.8-1.5.3-.5.6-1.1.9-1.6.6-1,1.4-1.7,2.2-2.2.9-.4,1.9-.6,2.9-.5,1.1,0,2.2.5,3.3,1.1,1.1.6,2.1,1.4,2.7,2.2.7.8,1,1.8,1.1,2.7.1,1,0,2-.6,3.1-.3.5-.5,1-.8,1.6-.3.5-.6,1-.9,1.5-.6,1-1.4,1.7-2.3,2.2-.9.4-1.8.6-2.9.5-1-.1-2.1-.5-3.3-1.1ZM159.9,39.2c.4.2.8.3,1.1.2.4-.1.7-.4,1-.9.3-.5.6-1,.9-1.5.3-.5.5-1,.8-1.5.2-.3.2-.6.2-.9,0-.3,0-.5-.2-.7-.1-.2-.3-.4-.6-.5-.2-.1-.5-.2-.8-.2-.2,0-.5,0-.7.2-.2.2-.4.4-.6.7-.3.5-.5,1-.8,1.4-.3.5-.5,1-.8,1.5-.2.5-.3.9-.2,1.3.1.4.4.6.7.8Z"/>
  <path class="cls-2" d="M164.8,46.4c-.1,0-.2-.2-.2-.4,0-.1,0-.3.1-.4l7.8-10.3c0-.1.2-.2.4-.2.1,0,.3,0,.4.1l3.2,2.4c.1,0,.2.2.2.4,0,.1,0,.3-.1.4l-5.7,7.4,4.4,3.4c.1,0,.2.2.2.4,0,.1,0,.3-.1.4l-1.8,2.4c0,.1-.2.2-.4.2-.1,0-.3,0-.4-.1l-8-6.1Z"/>
  <path class="cls-2" d="M178.2,58c-.9-.9-1.6-1.9-2-2.9-.4-1-.5-2-.3-2.9.2-1,.7-1.9,1.5-2.7.4-.4.8-.8,1.2-1.2.4-.4.9-.8,1.3-1.2.9-.8,1.8-1.2,2.8-1.4,1-.2,2,0,2.9.4,1,.4,1.9,1.1,2.8,2,.9.9,1.5,1.9,1.9,2.9s.5,2,.3,3c-.2,1-.7,1.9-1.5,2.7-.4.4-.8.8-1.3,1.3-.4.4-.9.8-1.3,1.2-.9.8-1.8,1.3-2.8,1.4-1,.2-1.9,0-2.9-.4-1-.4-1.9-1.1-2.8-2ZM181.1,55.3c.3.3.6.5,1,.5.4,0,.8-.2,1.2-.6.4-.4.8-.8,1.3-1.2.4-.4.8-.8,1.2-1.2.3-.3.4-.5.5-.8,0-.3,0-.5,0-.7,0-.2-.2-.5-.4-.7-.2-.2-.4-.3-.7-.4-.2,0-.5,0-.7,0-.3,0-.5.2-.8.5-.4.4-.8.7-1.2,1.1s-.8.8-1.2,1.2c-.4.4-.6.8-.6,1.2,0,.4.2.7.5,1Z"/>
  <path class="cls-2" d="M184,63.9c0-.1-.1-.3,0-.4,0-.1.1-.3.2-.3l10.6-7.3c.1,0,.3-.1.4,0,.1,0,.3.1.3.2l3.4,4.9c1.1,1.6,1.6,3.1,1.5,4.4-.1,1.4-.8,2.5-2,3.4-.7.5-1.5.8-2.3.8-.8,0-1.5,0-2.2-.4l-2.4,4.6c0,0,0,.1-.1.2,0,0-.2,0-.3,0-.1,0-.2,0-.3-.2l-2.3-3.4c-.2-.2-.2-.4-.2-.6,0-.2,0-.3.1-.4l2.2-3.6-.5-.7-3.1,2.2c-.1,0-.3.1-.4,0-.1,0-.3-.1-.3-.2l-2.2-3.2ZM193.2,63l.8,1.2c.2.3.4.4.6.4.3,0,.5,0,.7-.2.2-.2.4-.4.5-.6.1-.2,0-.5-.1-.8l-.8-1.2-1.7,1.2Z"/>
  <path class="cls-2" d="M192,75.9c0-.1,0-.3,0-.4,0-.1.1-.2.3-.3l11.7-5.5c.1,0,.3,0,.4,0,.1,0,.2.1.3.3l4.4,9.3c0,.1,0,.3,0,.4,0,.1-.1.2-.3.3l-2.5,1.2c-.1,0-.3,0-.4,0-.1,0-.2-.1-.3-.3l-2.6-5.4-1.1.5,2.4,5c0,.1,0,.3,0,.4s-.1.2-.3.3l-2.4,1.1c-.1,0-.3,0-.4,0s-.2-.1-.3-.3l-2.4-5-1.1.5,2.6,5.6c0,.1,0,.3,0,.4s-.1.2-.3.3l-2.6,1.2c-.1,0-.3,0-.4,0-.1,0-.2-.1-.3-.3l-4.4-9.4Z"/>
  <path class="cls-2" d="M198.6,92.8c-.4-1.4-.6-2.6-.5-3.7.1-1,.4-1.9.9-2.5.5-.6,1.1-1.1,1.8-1.3.1,0,.2,0,.3,0,.1,0,.2.2.2.3l1.1,3.6c0,.2,0,.4,0,.5,0,.1,0,.3-.1.4,0,.2,0,.3-.1.5,0,.2,0,.3,0,.5,0,.2,0,.4.1.6.1.4.3.8.4,1,.2.2.4.3.5.3.2,0,.3-.2.3-.3,0-.2,0-.4,0-.8,0-.4,0-.9-.2-1.6-.2-1.1-.2-2,0-2.8.1-.8.4-1.5.9-2.1.5-.6,1.1-1,2-1.2.9-.3,1.7-.2,2.5,0,.8.3,1.5.8,2.2,1.6.6.8,1.1,1.7,1.5,2.9.3,1,.4,1.8.4,2.7,0,.8-.2,1.5-.4,2.2-.2.6-.6,1.1-.9,1.5-.4.4-.8.7-1.2.8-.1,0-.2,0-.3,0,0,0-.2-.1-.2-.2l-1.1-3.8c0-.2,0-.3,0-.5,0-.1,0-.2.1-.4,0,0,0-.2.1-.4,0-.2,0-.4,0-.7,0-.3-.2-.5-.4-.7-.1-.1-.3-.1-.4,0-.1,0-.2.1-.3.3,0,.1,0,.4,0,.7,0,.3,0,.8.2,1.4.2,1.3.3,2.4.2,3.3-.1.9-.4,1.6-.8,2.1-.5.5-1.1.9-1.9,1.2-.9.3-1.8.2-2.7-.1-.8-.3-1.6-.9-2.2-1.8-.6-.9-1.1-1.9-1.5-3.1Z"/>
  <path class="cls-2" d="M205.9,116c0-.5.1-1,.4-1.4.2-.4.6-.8,1-1,.4-.3.9-.4,1.4-.4.5,0,1,.1,1.4.4.4.2.8.6,1,1,.3.4.4.9.4,1.4,0,.5-.1,1-.4,1.4-.2.4-.6.8-1,1-.4.3-.9.4-1.4.4-.5,0-1-.1-1.4-.4-.4-.2-.8-.6-1-1-.3-.4-.4-.9-.4-1.4Z"/>
  <path class="cls-1" d="M188,117c0,39.2-31.8,71-71,71s-71-31.8-71-71,31.8-71,71-71,71,31.8,71,71Z"/>
  <path class="cls-1" d="M230,117c0,62.4-50.6,113-113,113S4,179.4,4,117,54.6,4,117,4s113,50.6,113,113Z"/>
</svg>