<?xml version="1.0" encoding="UTF-8"?>
<svg id="Capa_1" data-name="Capa 1" xmlns="http://www.w3.org/2000/svg" version="1.1" viewBox="0 0 234 234">
  <defs>
    <style>
      .cls-1 {
        fill: none;
        stroke: #5a4522;
        stroke-width: 3px;
      }

      .cls-2 {
        fill: #5a4522;
        stroke-width: 0px;
      }
    </style>
  </defs>
  <path class="cls-2" d="M29.4,117c0,.5-.1,1-.4,1.4-.2.4-.6.8-1,1-.4.3-.9.4-1.4.4s-1,0-1.4-.4c-.4-.2-.8-.6-1-1-.3-.4-.4-.9-.4-1.4s.1-1,.4-1.4c.2-.4.6-.8,1-1,.4-.3.9-.4,1.4-.4s1,0,1.4.4c.4.2.8.6,1,1,.3.4.4.9.4,1.4Z"/>
  <g>
    <path class="cls-2" d="M34.7,99.2c0,0,0,.2-.3.3h-.4l-12.4-3.5c-.1,0-.2,0-.3-.3v-.4l2.8-9.9c0,0,.1-.2.3-.3h.4l2.7.8c.1,0,.2,0,.3.3v.4l-1.6,5.8,1.2.3,1.5-5.4c0,0,.1-.2.3-.3h.4l2.5.7c0,0,.2,0,.3.3v.4l-1.5,5.4,1.2.3,1.7-5.9c0,0,0-.2.3-.3h.4l2.7.8c0,0,.2,0,.3.3v.4l-2.8,10v-.2Z"/>
    <path class="cls-2" d="M38.3,87c0,0-.2.2-.3.3h-.4l-11.8-5.3c-.1,0-.2-.2-.3-.3v-.4l1.6-3.7c0,0,.2-.2.3-.3h.4l8.6,3.8,2.3-5.1c0,0,.2-.2.3-.3h.4l2.8,1.2c0,0,.2.2.3.3v.4l-4.1,9.2v.2Z"/>
    <path class="cls-2" d="M43.2,76.2c0,0-.2.2-.3.2h-.4l-10.9-6.9c-.1,0-.2-.2-.2-.3v-.4l5.5-8.7c0,0,.2-.2.3-.2h.4l2.4,1.5c0,0,.2.2.2.3v.4l-3.2,5.1,1.1.7,3-4.7c0,0,.2-.2.3-.2h.4l2.2,1.4c0,0,.2.2.2.3v.4l-3,4.7,1.1.7,3.3-5.2c0,0,.2-.2.3-.2h.4l2.4,1.5c0,0,.2.2.2.3v.4l-5.6,8.8h-.1Z"/>
    <path class="cls-2" d="M54.5,60.8c-.9,1-1.7,1.7-2.7,2.2-.9.5-1.9.7-2.9.6-1,0-2-.6-2.9-1.4-.4-.4-.9-.7-1.3-1.2-.5-.4-.9-.8-1.3-1.2-.9-.9-1.4-1.8-1.6-2.8-.2-1,0-2,.3-3,.4-1,1-2,1.8-2.9.6-.6,1.2-1.2,1.9-1.6.7-.5,1.4-.8,2.1-1,.7-.2,1.5-.2,2.2,0,.7,0,1.4.5,2.1,1.1,0,0,0,.2,0,.3s0,.2,0,.3l-2.7,3c0,.2-.3.3-.4.3s-.3,0-.5,0c-.4-.2-.8-.2-1,0-.3,0-.5.3-.8.5-.3.3-.4.7-.4,1s.2.7.7,1.2c.8.8,1.6,1.5,2.5,2.2.5.4.9.6,1.2.5.3,0,.7-.2,1-.6.2-.3.4-.5.4-.8s0-.6-.2-1c0-.2-.2-.4-.2-.5s0-.3.2-.4l2.7-3s.2,0,.3,0h.3c.7.6,1.1,1.3,1.3,2s.3,1.4.2,2.2-.4,1.5-.7,2.2c-.4.7-.9,1.4-1.4,2h-.2Z"/>
    <path class="cls-2" d="M64.5,51.3c-1,.8-2,1.4-3,1.7s-2,.4-2.9,0c-.9-.3-1.8-.9-2.7-1.8-.4-.4-.7-.9-1.1-1.4-.4-.5-.8-1-1.1-1.4-.7-1-1.1-2-1.2-3,0-1,.2-2,.7-2.9s1.3-1.8,2.2-2.6c.7-.5,1.4-1,2.1-1.3.7-.4,1.5-.6,2.2-.7.8,0,1.5,0,2.2.3s1.3.7,1.9,1.4c0,0,0,.2,0,.3,0,0,0,.2-.2.3l-3.2,2.6c-.2,0-.3.2-.4.2s-.3,0-.5-.2c-.4-.2-.7-.3-1-.3s-.6.2-.8.4c-.3.3-.5.6-.6.9,0,.3,0,.8.5,1.2.7.9,1.4,1.7,2.1,2.6.4.5.8.7,1.1.7s.7,0,1-.4c.3-.2.5-.5.5-.8,0-.3,0-.6,0-1s0-.4,0-.5c0,0,0-.3.3-.4l3.2-2.6s.2,0,.3,0c0,0,.2,0,.3,0,.6.7.9,1.4,1,2.2,0,.7,0,1.5-.2,2.2s-.6,1.4-1.1,2.1c-.5.6-1.1,1.2-1.7,1.8v.2Z"/>
    <path class="cls-2" d="M70.9,46.3h-.4c0,0-.3,0-.3-.2l-6.8-11v-.4c0,0,0-.3.2-.3l3.5-2.2h.4c0,0,.3,0,.3.2l6.8,11v.4c0,0,0,.3-.2.3,0,0-3.5,2.2-3.5,2.2Z"/>
    <path class="cls-2" d="M82.2,40.2c-1.2.5-2.3.8-3.4.9-1.1,0-2-.2-2.9-.7-.8-.5-1.5-1.3-2.1-2.3-.2-.5-.5-1-.7-1.6-.3-.6-.5-1.1-.7-1.6-.4-1.1-.6-2.1-.4-3.1.2-1,.6-1.9,1.3-2.7.7-.8,1.7-1.5,2.9-2,1.2-.5,2.3-.8,3.4-.9,1.1,0,2,.2,2.9.7s1.6,1.3,2.1,2.3c.3.5.5,1,.8,1.6s.5,1.1.7,1.6c.4,1.1.6,2.1.4,3.1s-.6,1.8-1.4,2.6c-.7.8-1.7,1.4-2.9,2h0ZM80.5,36.7c.4-.2.7-.4.8-.8,0-.4,0-.8,0-1.3-.2-.5-.4-1.1-.7-1.6-.2-.5-.5-1-.7-1.5-.2-.3-.4-.6-.6-.7-.2-.2-.4-.3-.7-.3s-.5,0-.8.2c-.3.1-.5.3-.6.5s-.2.4-.3.7c0,.3,0,.6.2.9.2.5.4,1,.7,1.5.2.5.5,1,.7,1.5.3.5.6.8.9,1,.3,0,.7,0,1.1,0h0ZM74.1,27.2c-.2,0-.3,0-.4-.2v-.3l.8-3.1c0-.2,0-.4.2-.4,0,0,.2-.2.3-.2l3.6-1.6c.2-.1.4,0,.5.2v.3l-1.7,3.4c0,.1,0,.2-.2.4s-.2.2-.4.3c0,0-2.7,1.2-2.7,1.2Z"/>
    <path class="cls-2" d="M90.1,36.6h-.4c0,0-.2-.2-.3-.3l-3.3-12.5v-.4c0-.1.2-.2.3-.3l3.1-.8h.6c0,0,.2.2.3.2l4.7,4.5-1.4-5.3v-.4c0-.1.2-.2.3-.3l3.5-.9h.4c0,0,.2.2.3.3l3.3,12.5v.4c0,0-.2.2-.3.3l-3.1.8h-.6c-.2,0-.3-.2-.3-.2l-4.6-4.1,1.3,4.9v.4c0,0-.2.2-.3.3,0,0-3.5.9-3.5.9Z"/>
    <path class="cls-2" d="M108,32.6c0,0-.3,0-.4,0s-.2-.2-.2-.4l-.5-12.9c0-.1,0-.3,0-.4s.2-.2.4-.2l5.8-.2c1.3,0,2.4.1,3.4.5s1.8,1,2.4,1.7c.6.8,1,1.8,1.1,3,0,.6,0,1.1,0,1.5v1.5c0,1.3-.3,2.3-.8,3.2-.5.8-1.3,1.5-2.2,1.9-.9.4-2.1.7-3.3.7l-5.9.2ZM112.3,28.5h1.3c.3,0,.6-.1.8-.2.2-.1.4-.3.6-.6,0-.2.2-.6.2-.9v-2.9c0-.6-.2-1-.6-1.2-.3-.2-.7-.3-1.2-.3h-1.2l.3,6.2h-.2Z"/>
    <path class="cls-2" d="M122.5,32.2c0,0-.3,0-.4-.2,0-.1,0-.3,0-.4l1.5-12.8c0-.1,0-.3.2-.4,0,0,.3-.1.4-.1l10.2,1.2c.1,0,.3,0,.4.2,0,.1.1.3.1.4l-.3,2.8c0,.1,0,.3-.2.4-.1,0-.3.1-.4.1l-6-.7-.2,1.3,5.5.7c.1,0,.3,0,.4.2,0,.1.1.3.1.4l-.3,2.6c0,.1,0,.3-.2.4-.1,0-.2.1-.4.1l-5.5-.7-.2,1.3,6.1.7c.1,0,.3,0,.4.2,0,.1.1.3.1.4l-.3,2.8c0,0,0,.3-.2.4-.1,0-.3,0-.4,0l-10.3-1.2v-.2Z"/>
    <path class="cls-2" d="M145,36.9c-1.2-.4-2.2-1-3-1.6-.8-.7-1.4-1.5-1.7-2.4s-.2-2,.1-3.2c.2-.5.4-1.1.6-1.7.2-.6.4-1.2.6-1.7.5-1.2,1.1-2,1.9-2.6.8-.6,1.8-.9,2.8-.9s2.2.1,3.4.5c.8.3,1.5.6,2.2,1.1.7.4,1.3,1,1.7,1.6.5.6.8,1.3.9,2,.2.7,0,1.5-.2,2.4,0,.1-.1.2-.2.3h-.3l-3.9-1.3c-.2,0-.3-.2-.4-.3v-.5c0-.5,0-.8-.3-1-.2-.2-.5-.4-.8-.5-.4-.1-.8-.1-1.1,0s-.6.5-.8,1.1c-.4,1-.8,2.1-1.1,3.2-.2.6-.2,1,0,1.3s.5.5.9.7c.3,0,.6,0,.9,0,.3,0,.6-.3.8-.6.1-.2.3-.3.4-.3h.5l3.9,1.3c.1,0,.2,0,.2.2v.3c-.3.9-.8,1.5-1.3,2-.6.5-1.2.8-2,1-.7.2-1.5.2-2.3.2s-1.6-.3-2.4-.5h0Z"/>
    <path class="cls-2" d="M158,42.7c-1.1-.6-2.1-1.4-2.7-2.2-.7-.8-1.1-1.7-1.2-2.7-.1-1,.1-2,.6-3.1.3-.5.5-1,.8-1.5s.6-1.1.9-1.6c.6-1,1.4-1.7,2.2-2.2.9-.4,1.9-.6,2.9-.5,1.1,0,2.2.5,3.3,1.1s2.1,1.4,2.7,2.2c.7.8,1,1.8,1.1,2.7.1,1,0,2-.6,3.1-.3.5-.5,1-.8,1.6-.3.5-.6,1-.9,1.5-.6,1-1.4,1.7-2.3,2.2-.9.4-1.8.6-2.9.5-1,0-2.1-.5-3.3-1.1h.2ZM159.9,39.2c.4.2.8.3,1.1.2.4,0,.7-.4,1-.9s.6-1,.9-1.5c.3-.5.5-1,.8-1.5.2-.3.2-.6.2-.9s0-.5-.2-.7c-.1-.2-.3-.4-.6-.5-.2,0-.5-.2-.8-.2s-.5,0-.7.2-.4.4-.6.7c-.3.5-.5,1-.8,1.4-.3.5-.5,1-.8,1.5-.2.5-.3.9-.2,1.3.1.4.4.6.7.8h0Z"/>
    <path class="cls-2" d="M164.8,46.4c-.1,0-.2-.2-.2-.4s0-.3.1-.4l7.8-10.3c0,0,.2-.2.4-.2s.3,0,.4,0l3.2,2.4c.1,0,.2.2.2.4s0,.3-.1.4l-5.7,7.4,4.4,3.4c.1,0,.2.2.2.4s0,.3-.1.4l-1.8,2.4c0,0-.2.2-.4.2s-.3,0-.4,0l-8-6.1h0Z"/>
    <path class="cls-2" d="M178.2,58c-.9-.9-1.6-1.9-2-2.9s-.5-2-.3-2.9c.2-1,.7-1.9,1.5-2.7.4-.4.8-.8,1.2-1.2s.9-.8,1.3-1.2c.9-.8,1.8-1.2,2.8-1.4s2,0,2.9.4c1,.4,1.9,1.1,2.8,2,.9.9,1.5,1.9,1.9,2.9s.5,2,.3,3-.7,1.9-1.5,2.7c-.4.4-.8.8-1.3,1.3-.4.4-.9.8-1.3,1.2-.9.8-1.8,1.3-2.8,1.4-1,.2-1.9,0-2.9-.4s-1.9-1.1-2.8-2l.2-.2ZM181.1,55.3c.3.3.6.5,1,.5s.8-.2,1.2-.6c.4-.4.8-.8,1.3-1.2.4-.4.8-.8,1.2-1.2.3-.3.4-.5.5-.8v-.7c0-.2-.2-.5-.4-.7s-.4-.3-.7-.4h-.7c-.3,0-.5.2-.8.5-.4.4-.8.7-1.2,1.1s-.8.8-1.2,1.2-.6.8-.6,1.2.2.7.5,1h-.1Z"/>
    <path class="cls-2" d="M184,63.9c0,0-.1-.3,0-.4,0,0,.1-.3.2-.3l10.6-7.3c.1,0,.3,0,.4,0,.1,0,.3,0,.3.2l3.4,4.9c1.1,1.6,1.6,3.1,1.5,4.4-.1,1.4-.8,2.5-2,3.4-.7.5-1.5.8-2.3.8s-1.5,0-2.2-.4l-2.4,4.6s0,0-.1.2h-.3c-.1,0-.2,0-.3-.2l-2.3-3.4c-.2-.2-.2-.4-.2-.6s0-.3.1-.4l2.2-3.6-.5-.7-3.1,2.2c-.1,0-.3,0-.4,0-.1,0-.3,0-.3-.2l-2.2-3.2h0ZM193.2,63l.8,1.2c.2.3.4.4.6.4.3,0,.5,0,.7-.2s.4-.4.5-.6c.1-.2,0-.5-.1-.8l-.8-1.2s-1.7,1.2-1.7,1.2Z"/>
    <path class="cls-2" d="M192,75.9v-.4c0,0,.1-.2.3-.3l11.7-5.5h.4c.1,0,.2,0,.3.3l4.4,9.3v.4c0,0-.1.2-.3.3l-2.5,1.2h-.4c-.1,0-.2,0-.3-.3l-2.6-5.4-1.1.5,2.4,5v.4c0,0-.1.2-.3.3l-2.4,1.1h-.4c0,0-.2,0-.3-.3l-2.4-5-1.1.5,2.6,5.6v.4c0,0-.1.2-.3.3l-2.6,1.2h-.4c-.1,0-.2,0-.3-.3l-4.4-9.4h0Z"/>
    <path class="cls-2" d="M198.6,92.8c-.4-1.4-.6-2.6-.5-3.7.1-1,.4-1.9.9-2.5s1.1-1.1,1.8-1.3h.3c.1,0,.2.2.2.3l1.1,3.6v.5c0,0,0,.3-.1.4,0,.2,0,.3-.1.5v.5c0,.2,0,.4.1.6.1.4.3.8.4,1,.2.2.4.3.5.3.2,0,.3-.2.3-.3v-.8c0-.4,0-.9-.2-1.6-.2-1.1-.2-2,0-2.8.1-.8.4-1.5.9-2.1s1.1-1,2-1.2c.9-.3,1.7-.2,2.5,0,.8.3,1.5.8,2.2,1.6.6.8,1.1,1.7,1.5,2.9.3,1,.4,1.8.4,2.7s-.2,1.5-.4,2.2c-.2.6-.6,1.1-.9,1.5-.4.4-.8.7-1.2.8h-.3s-.2,0-.2-.2l-1.1-3.8v-.5c0,0,0-.2.1-.4,0,0,0-.2.1-.4v-.7c0-.3-.2-.5-.4-.7-.1,0-.3,0-.4,0-.1,0-.2,0-.3.3v.7c0,.3,0,.8.2,1.4.2,1.3.3,2.4.2,3.3s-.4,1.6-.8,2.1c-.5.5-1.1.9-1.9,1.2-.9.3-1.8.2-2.7,0-.8-.3-1.6-.9-2.2-1.8-.6-.9-1.1-1.9-1.5-3.1l-.5-.4Z"/>
  </g>
  <g>
    <path class="cls-2" d="M199.4,134.4c0,0,0-.2.3-.3h.4l12.4,3.5c.1,0,.2,0,.3.3v.4l-2.8,9.9c0,0-.1.2-.3.3h-.4l-2.7-.8c-.1,0-.2,0-.3-.3v-.4l1.6-5.8-1.2-.3-1.5,5.4c0,0-.1.2-.3.3h-.4l-2.5-.7c0,0-.2,0-.3-.3v-.4l1.5-5.4-1.2-.3-1.7,5.9c0,0,0,.2-.3.3h-.4l-2.7-.8c0,0-.2,0-.3-.3v-.4l2.8-10v.2Z"/>
    <path class="cls-2" d="M195.8,146.6c0,0,.2-.2.3-.3h.4l11.8,5.3c.1,0,.2.2.3.3v.4l-1.6,3.7c0,0-.2.2-.3.3h-.4l-8.6-3.8-2.3,5.1c0,0-.2.2-.3.3h-.4l-2.8-1.2c0,0-.2-.2-.3-.3v-.4l4.1-9.2v-.2Z"/>
    <path class="cls-2" d="M190.9,157.4c0,0,.2-.2.3-.2h.4l10.9,6.9c.1,0,.2.2.2.3v.4l-5.5,8.7c0,0-.2.2-.3.2h-.4l-2.4-1.5c0,0-.2-.2-.2-.3v-.4l3.2-5.1-1.1-.7-3,4.7c0,0-.2.2-.3.2h-.4l-2.2-1.4c0,0-.2-.2-.2-.3v-.4l3-4.7-1.1-.7-3.3,5.2c0,0-.2.2-.3.2h-.4l-2.4-1.5c0,0-.2-.2-.2-.3v-.4l5.6-8.8h.1Z"/>
    <path class="cls-2" d="M179.6,172.8c.9-1,1.7-1.7,2.7-2.2.9-.5,1.9-.7,2.9-.6,1,0,2,.6,2.9,1.4.4.4.9.7,1.3,1.2.5.4.9.8,1.3,1.2.9.9,1.4,1.8,1.6,2.8.2,1,0,2-.3,3-.4,1-1,2-1.8,2.9-.6.6-1.2,1.2-1.9,1.6-.7.5-1.4.8-2.1,1-.7.2-1.5.2-2.2,0-.7,0-1.4-.5-2.1-1.1,0,0,0-.2,0-.3s0-.2,0-.3l2.7-3c0-.2.3-.3.4-.3s.3,0,.5,0c.4.2.8.2,1,0,.3,0,.5-.3.8-.5.3-.3.4-.7.4-1s-.2-.7-.7-1.2c-.8-.8-1.6-1.5-2.5-2.2-.5-.4-.9-.6-1.2-.5-.3,0-.7.2-1,.6-.2.3-.4.5-.4.8s0,.6.2,1c0,.2.2.4.2.5s0,.3-.2.4l-2.7,3s-.2,0-.3,0h-.3c-.7-.6-1.1-1.3-1.3-2s-.3-1.4-.2-2.2.4-1.5.7-2.2c.4-.7.9-1.4,1.4-2h.2Z"/>
    <path class="cls-2" d="M169.6,182.3c1-.8,2-1.4,3-1.7s2-.4,2.9,0c.9.3,1.8.9,2.7,1.8.4.4.7.9,1.1,1.4.4.5.8,1,1.1,1.4.7,1,1.1,2,1.2,3,0,1-.2,2-.7,2.9s-1.3,1.8-2.2,2.6c-.7.5-1.4,1-2.1,1.3-.7.4-1.5.6-2.2.7-.8,0-1.5,0-2.2-.3s-1.3-.7-1.9-1.4c0,0,0-.2,0-.3,0,0,0-.2.2-.3l3.2-2.6c.2,0,.3-.2.4-.2s.3,0,.5.2c.4.2.7.3,1,.3s.6-.2.8-.4c.3-.3.5-.6.6-.9,0-.3,0-.8-.5-1.2-.7-.9-1.4-1.7-2.1-2.6-.4-.5-.8-.7-1.1-.7s-.7,0-1,.4c-.3.2-.5.5-.5.8,0,.3,0,.6,0,1s0,.4,0,.5c0,0,0,.3-.3.4l-3.2,2.6s-.2,0-.3,0c0,0-.2,0-.3,0-.6-.7-.9-1.4-1-2.2,0-.7,0-1.5.2-2.2s.6-1.4,1.1-2.1c.5-.6,1.1-1.2,1.7-1.8v-.2Z"/>
    <path class="cls-2" d="M163.2,187.3h.4c0,0,.3,0,.3.2l6.8,11v.4c0,0,0,.3-.2.3l-3.5,2.2h-.4c0,0-.3,0-.3-.2l-6.8-11v-.4c0,0,0-.3.2-.3,0,0,3.5-2.2,3.5-2.2Z"/>
    <path class="cls-2" d="M151.9,193.4c1.2-.5,2.3-.8,3.4-.9,1.1,0,2,.2,2.9.7.8.5,1.5,1.3,2.1,2.3.2.5.5,1,.7,1.6.3.6.5,1.1.7,1.6.4,1.1.6,2.1.4,3.1-.2,1-.6,1.9-1.3,2.7-.7.8-1.7,1.5-2.9,2-1.2.5-2.3.8-3.4.9-1.1,0-2-.2-2.9-.7s-1.6-1.3-2.1-2.3c-.3-.5-.5-1-.8-1.6s-.5-1.1-.7-1.6c-.4-1.1-.6-2.1-.4-3.1s.6-1.8,1.4-2.6c.7-.8,1.7-1.4,2.9-2h0ZM153.6,196.9c-.4.2-.7.4-.8.8,0,.4,0,.8,0,1.3.2.5.4,1.1.7,1.6.2.5.5,1,.7,1.5.2.3.4.6.6.7.2.2.4.3.7.3s.5,0,.8-.2c.3-.1.5-.3.6-.5s.2-.4.3-.7c0-.3,0-.6-.2-.9-.2-.5-.4-1-.7-1.5-.2-.5-.5-1-.7-1.5-.3-.5-.6-.8-.9-1-.3,0-.7,0-1.1,0h0ZM160,206.4c.2,0,.3,0,.4.2v.3l-.8,3.1c0,.2,0,.4-.2.4,0,0-.2.2-.3.2l-3.6,1.6c-.2.1-.4,0-.5-.2v-.3l1.7-3.4c0-.1,0-.2.2-.4s.2-.2.4-.3c0,0,2.7-1.2,2.7-1.2Z"/>
    <path class="cls-2" d="M144,197h.4c0,0,.2.2.3.3l3.3,12.5v.4c0,.1-.2.2-.3.3l-3.1.8h-.6c0,0-.2-.2-.3-.2l-4.7-4.5,1.4,5.3v.4c0,.1-.2.2-.3.3l-3.5.9h-.4c0,0-.2-.2-.3-.3l-3.3-12.5v-.4c0,0,.2-.2.3-.3l3.1-.8h.6c.2,0,.3.2.3.2l4.6,4.1-1.3-4.9v-.4c0,0,.2-.2.3-.3,0,0,3.5-.9,3.5-.9Z"/>
    <path class="cls-2" d="M126.1,201c0,0,.3,0,.4,0s.2.2.2.4l.5,12.9c0,.1,0,.3,0,.4s-.2.2-.4.2l-5.8.2c-1.3,0-2.4-.1-3.4-.5s-1.8-1-2.4-1.7c-.6-.8-1-1.8-1.1-3,0-.6,0-1.1,0-1.5v-1.5c0-1.3.3-2.3.8-3.2.5-.8,1.3-1.5,2.2-1.9.9-.4,2.1-.7,3.3-.7l5.9-.2ZM121.8,205.1h-1.3c-.3,0-.6.1-.8.2-.2.1-.4.3-.6.6,0,.2-.2.6-.2.9v2.9c0,.6.2,1,.6,1.2.3.2.7.3,1.2.3h1.2l-.3-6.2h.2Z"/>
    <path class="cls-2" d="M111.6,201.4c0,0,.3,0,.4.2,0,.1,0,.3,0,.4l-1.5,12.8c0,.1,0,.3-.2.4,0,0-.3.1-.4.1l-10.2-1.2c-.1,0-.3,0-.4-.2,0-.1-.1-.3-.1-.4l.3-2.8c0-.1,0-.3.2-.4.1,0,.3-.1.4-.1l6,.7.2-1.3-5.5-.7c-.1,0-.3,0-.4-.2,0-.1-.1-.3-.1-.4l.3-2.6c0-.1,0-.3.2-.4.1,0,.2-.1.4-.1l5.5.7.2-1.3-6.1-.7c-.1,0-.3,0-.4-.2,0-.1-.1-.3-.1-.4l.3-2.8c0,0,0-.3.2-.4.1,0,.3,0,.4,0l10.3,1.2v.2Z"/>
    <path class="cls-2" d="M89.1,196.7c1.2.4,2.2,1,3,1.6.8.7,1.4,1.5,1.7,2.4s.2,2-.1,3.2c-.2.5-.4,1.1-.6,1.7-.2.6-.4,1.2-.6,1.7-.5,1.2-1.1,2-1.9,2.6-.8.6-1.8.9-2.8.9s-2.2-.1-3.4-.5c-.8-.3-1.5-.6-2.2-1.1-.7-.4-1.3-1-1.7-1.6-.5-.6-.8-1.3-.9-2-.2-.7,0-1.5.2-2.4,0-.1.1-.2.2-.3h.3l3.9,1.3c.2,0,.3.2.4.3v.5c0,.5,0,.8.3,1,.2.2.5.4.8.5.4.1.8.1,1.1,0s.6-.5.8-1.1c.4-1,.8-2.1,1.1-3.2.2-.6.2-1,0-1.3s-.5-.5-.9-.7c-.3,0-.6,0-.9,0-.3,0-.6.3-.8.6-.1.2-.3.3-.4.3h-.5l-3.9-1.3c-.1,0-.2,0-.2-.2v-.3c.3-.9.8-1.5,1.3-2,.6-.5,1.2-.8,2-1,.7-.2,1.5-.2,2.3-.2s1.6.3,2.4.5h0Z"/>
    <path class="cls-2" d="M76.1,190.9c1.1.6,2.1,1.4,2.7,2.2.7.8,1.1,1.7,1.2,2.7.1,1-.1,2-.6,3.1-.3.5-.5,1-.8,1.5s-.6,1.1-.9,1.6c-.6,1-1.4,1.7-2.2,2.2-.9.4-1.9.6-2.9.5-1.1,0-2.2-.5-3.3-1.1s-2.1-1.4-2.7-2.2c-.7-.8-1-1.8-1.1-2.7-.1-1,0-2,.6-3.1.3-.5.5-1,.8-1.6.3-.5.6-1,.9-1.5.6-1,1.4-1.7,2.3-2.2.9-.4,1.8-.6,2.9-.5,1,0,2.1.5,3.3,1.1h-.2ZM74.2,194.4c-.4-.2-.8-.3-1.1-.2-.4,0-.7.4-1,.9s-.6,1-.9,1.5c-.3.5-.5,1-.8,1.5-.2.3-.2.6-.2.9s0,.5.2.7c.1.2.3.4.6.5.2,0,.5.2.8.2s.5,0,.7-.2.4-.4.6-.7c.3-.5.5-1,.8-1.4.3-.5.5-1,.8-1.5.2-.5.3-.9.2-1.3-.1-.4-.4-.6-.7-.8h0Z"/>
    <path class="cls-2" d="M69.3,187.2c.1,0,.2.2.2.4s0,.3-.1.4l-7.8,10.3c0,0-.2.2-.4.2s-.3,0-.4,0l-3.2-2.4c-.1,0-.2-.2-.2-.4s0-.3.1-.4l5.7-7.4-4.4-3.4c-.1,0-.2-.2-.2-.4s0-.3.1-.4l1.8-2.4c0,0,.2-.2.4-.2s.3,0,.4,0l8,6.1h0Z"/>
    <path class="cls-2" d="M55.9,175.6c.9.9,1.6,1.9,2,2.9s.5,2,.3,2.9c-.2,1-.7,1.9-1.5,2.7-.4.4-.8.8-1.2,1.2s-.9.8-1.3,1.2c-.9.8-1.8,1.2-2.8,1.4s-2,0-2.9-.4c-1-.4-1.9-1.1-2.8-2-.9-.9-1.5-1.9-1.9-2.9s-.5-2-.3-3,.7-1.9,1.5-2.7c.4-.4.8-.8,1.3-1.3.4-.4.9-.8,1.3-1.2.9-.8,1.8-1.3,2.8-1.4,1-.2,1.9,0,2.9.4s1.9,1.1,2.8,2l-.2.2ZM53,178.3c-.3-.3-.6-.5-1-.5s-.8.2-1.2.6c-.4.4-.8.8-1.3,1.2-.4.4-.8.8-1.2,1.2-.3.3-.4.5-.5.8v.7c0,.2.2.5.4.7s.4.3.7.4h.7c.3,0,.5-.2.8-.5.4-.4.8-.7,1.2-1.1s.8-.8,1.2-1.2.6-.8.6-1.2-.2-.7-.5-1h.1Z"/>
    <path class="cls-2" d="M50.1,169.7c0,0,.1.3,0,.4,0,0-.1.3-.2.3l-10.6,7.3c-.1,0-.3,0-.4,0-.1,0-.3,0-.3-.2l-3.4-4.9c-1.1-1.6-1.6-3.1-1.5-4.4.1-1.4.8-2.5,2-3.4.7-.5,1.5-.8,2.3-.8s1.5,0,2.2.4l2.4-4.6s0,0,.1-.2h.3c.1,0,.2,0,.3.2l2.3,3.4c.2.2.2.4.2.6s0,.3-.1.4l-2.2,3.6.5.7,3.1-2.2c.1,0,.3,0,.4,0,.1,0,.3,0,.3.2l2.2,3.2h0ZM40.9,170.6l-.8-1.2c-.2-.3-.4-.4-.6-.4-.3,0-.5,0-.7.2s-.4.4-.5.6c-.1.2,0,.5.1.8l.8,1.2s1.7-1.2,1.7-1.2Z"/>
    <path class="cls-2" d="M42.1,157.7v.4c0,0-.1.2-.3.3l-11.7,5.5h-.4c-.1,0-.2,0-.3-.3l-4.4-9.3v-.4c0,0,.1-.2.3-.3l2.5-1.2h.4c.1,0,.2,0,.3.3l2.6,5.4,1.1-.5-2.4-5v-.4c0,0,.1-.2.3-.3l2.4-1.1h.4c0,0,.2,0,.3.3l2.4,5,1.1-.5-2.6-5.6v-.4c0,0,.1-.2.3-.3l2.6-1.2h.4c.1,0,.2,0,.3.3l4.4,9.4h0Z"/>
    <path class="cls-2" d="M35.5,140.8c.4,1.4.6,2.6.5,3.7-.1,1-.4,1.9-.9,2.5s-1.1,1.1-1.8,1.3h-.3c-.1,0-.2-.2-.2-.3l-1.1-3.6v-.5c0,0,0-.3.1-.4,0-.2,0-.3.1-.5v-.5c0-.2,0-.4-.1-.6-.1-.4-.3-.8-.4-1-.2-.2-.4-.3-.5-.3-.2,0-.3.2-.3.3v.8c0,.4,0,.9.2,1.6.2,1.1.2,2,0,2.8-.1.8-.4,1.5-.9,2.1s-1.1,1-2,1.2c-.9.3-1.7.2-2.5,0-.8-.3-1.5-.8-2.2-1.6-.6-.8-1.1-1.7-1.5-2.9-.3-1-.4-1.8-.4-2.7s.2-1.5.4-2.2c.2-.6.6-1.1.9-1.5.4-.4.8-.7,1.2-.8h.3s.2,0,.2.2l1.1,3.8v.5c0,0,0,.2-.1.4,0,0,0,.2-.1.4v.7c0,.3.2.5.4.7.1,0,.3,0,.4,0,.1,0,.2,0,.3-.3v-.7c0-.3,0-.8-.2-1.4-.2-1.3-.3-2.4-.2-3.3s.4-1.6.8-2.1c.5-.5,1.1-.9,1.9-1.2.9-.3,1.8-.2,2.7,0,.8.3,1.6.9,2.2,1.8.6.9,1.1,1.9,1.5,3.1l.5.4Z"/>
  </g>
  <path class="cls-2" d="M205.9,117c0-.5.1-1,.4-1.4.2-.4.6-.8,1-1,.4-.3.9-.4,1.4-.4s1,0,1.4.4c.4.2.8.6,1,1,.3.4.4.9.4,1.4s-.1,1-.4,1.4c-.2.4-.6.8-1,1-.4.3-.9.4-1.4.4s-1,0-1.4-.4c-.4-.2-.8-.6-1-1-.3-.4-.4-.9-.4-1.4Z"/>
  <path class="cls-1" d="M188,117c0,39.2-31.8,71-71,71s-71-31.8-71-71,31.8-71,71-71,71,31.8,71,71Z"/>
  <path class="cls-1" d="M230,117c0,62.4-50.6,113-113,113S4,179.4,4,117,54.6,4,117,4s113,50.6,113,113Z"/>
</svg>