<svg width="79" height="73" viewBox="0 0 79 73" fill="none" xmlns="http://www.w3.org/2000/svg">
<path d="M27.0988 7.24561L1.93371 51.3214C-3.56455 60.9563 3.31789 73 14.3144 73H64.6831C75.6988 73 82.562 60.9369 77.0637 51.302L51.8794 7.22618C46.3812 -2.40873 32.6163 -2.40873 27.118 7.22618L27.0988 7.24561ZM18.9283 53.3805L21.9274 56.4885C22.6579 57.2461 21.9274 58.4893 20.9277 58.2368L16.7752 57.1684C16.1023 56.9936 15.7755 56.236 16.1215 55.6338L17.2942 53.5942C17.6403 52.992 18.4669 52.8949 18.9475 53.3805H18.9283ZM45.2084 56.6634L48.2075 59.7714C48.938 60.529 48.2075 61.7722 47.2078 61.5197L43.0553 60.4513C42.3824 60.2765 42.0556 59.5189 42.4016 58.9167L43.5743 56.8771C43.9204 56.2749 44.7471 56.1777 45.2277 56.6634H45.2084ZM65.2982 56.3526L68.2973 59.4606C69.0278 60.2182 68.2973 61.4614 67.2976 61.2089L63.1451 60.1405C62.4722 59.9657 62.1454 59.2081 62.4914 58.6059L63.6641 56.5662C64.0102 55.9641 64.8368 55.8669 65.3175 56.3526H65.2982ZM38.4798 40.7153L41.4789 43.8233C42.2094 44.5809 41.4789 45.8241 40.4792 45.5716L36.3267 44.5032C35.6538 44.3284 35.327 43.5708 35.673 42.9686L36.8457 40.9289C37.1918 40.3268 38.0184 40.2296 38.499 40.7153H38.4798ZM55.5129 38.6368L58.5119 41.7448C59.2425 42.5024 58.5119 43.7456 57.5122 43.4931L53.3597 42.4247C52.6868 42.2499 52.36 41.4923 52.7061 40.8901L53.8788 38.8504C54.2248 38.2483 55.0515 38.1511 55.5321 38.6368H55.5129ZM39.5372 17.2885L42.5362 20.3965C43.2668 21.1541 42.5362 22.3973 41.5365 22.1448L37.384 21.0764C36.7111 20.9015 36.3843 20.144 36.7304 19.5418L37.9031 17.5021C38.2491 16.8999 39.0758 16.8028 39.5564 17.2885H39.5372ZM33.7698 13.3063L23.2731 22.0865C22.4849 22.7469 22.2542 23.8736 22.7348 24.7866L28.0985 35.0431C28.8483 36.4611 27.8678 38.19 26.2721 38.2483L15.6025 38.6562C14.5835 38.695 13.7184 39.4526 13.5454 40.4822L11.2 54.5072C10.9116 56.1972 8.93149 56.9159 7.64344 55.8087L3.9523 52.5841C3.16409 51.9042 2.97184 50.7387 3.49091 49.8257L26.6951 9.18813C27.2142 8.27514 28.2907 7.86721 29.2904 8.21687L33.0969 9.53778C34.6926 10.1011 35.077 12.199 33.7698 13.2869V13.3063Z" fill="#DC4405"/>
</svg>
