<svg width="115" height="43" viewBox="0 0 115 43" fill="none" xmlns="http://www.w3.org/2000/svg">
<path d="M12.564 15.154C12.1907 15.154 11.7987 15.126 11.388 15.07C10.9867 15.0233 10.604 14.9487 10.24 14.846C9.876 14.7433 9.54933 14.622 9.26 14.482C9.008 14.3607 8.83067 14.202 8.728 14.006C8.62533 13.8007 8.588 13.586 8.616 13.362C8.644 13.138 8.72333 12.942 8.854 12.774C8.98467 12.5967 9.15733 12.48 9.372 12.424C9.58667 12.3587 9.82933 12.3867 10.1 12.508C10.4547 12.676 10.856 12.8067 11.304 12.9C11.752 12.9933 12.172 13.04 12.564 13.04C13.18 13.04 13.6093 12.9607 13.852 12.802C14.104 12.634 14.23 12.4287 14.23 12.186C14.23 11.9713 14.1413 11.7987 13.964 11.668C13.796 11.5373 13.4927 11.4253 13.054 11.332L11.416 10.982C10.52 10.7953 9.85267 10.4687 9.414 10.002C8.97533 9.53533 8.756 8.93333 8.756 8.196C8.756 7.71067 8.854 7.272 9.05 6.88C9.25533 6.47867 9.54 6.138 9.904 5.858C10.2773 5.578 10.716 5.36333 11.22 5.214C11.7333 5.05533 12.3027 4.976 12.928 4.976C13.4133 4.976 13.9033 5.032 14.398 5.144C14.902 5.24667 15.336 5.40533 15.7 5.62C15.9147 5.732 16.0687 5.886 16.162 6.082C16.2553 6.278 16.2927 6.48333 16.274 6.698C16.2553 6.90333 16.1807 7.08533 16.05 7.244C15.9287 7.40267 15.7607 7.51 15.546 7.566C15.3407 7.61267 15.0933 7.57533 14.804 7.454C14.5333 7.33267 14.2253 7.244 13.88 7.188C13.544 7.12267 13.2173 7.09 12.9 7.09C12.5547 7.09 12.2607 7.132 12.018 7.216C11.7753 7.29067 11.5887 7.40267 11.458 7.552C11.3367 7.70133 11.276 7.874 11.276 8.07C11.276 8.266 11.3553 8.434 11.514 8.574C11.682 8.70467 11.9853 8.81667 12.424 8.91L14.048 9.26C14.9533 9.456 15.63 9.778 16.078 10.226C16.526 10.674 16.75 11.2573 16.75 11.976C16.75 12.4613 16.652 12.9 16.456 13.292C16.26 13.684 15.98 14.02 15.616 14.3C15.252 14.5707 14.8133 14.7807 14.3 14.93C13.7867 15.0793 13.208 15.154 12.564 15.154ZM19.0791 15.126C18.6871 15.126 18.3838 15.0093 18.1691 14.776C17.9545 14.5427 17.8471 14.2067 17.8471 13.768V9.344C17.8471 8.90533 17.9545 8.56933 18.1691 8.336C18.3838 8.10267 18.6871 7.986 19.0791 7.986C19.4805 7.986 19.7885 8.10267 20.0031 8.336C20.2271 8.56933 20.3391 8.90533 20.3391 9.344V13.768C20.3391 14.2067 20.2318 14.5427 20.0171 14.776C19.8025 15.0093 19.4898 15.126 19.0791 15.126ZM19.9751 7.104C19.8445 7.272 19.6858 7.37 19.4991 7.398C19.3218 7.41667 19.1538 7.384 18.9951 7.3C18.8365 7.20667 18.7198 7.08067 18.6451 6.922C18.5798 6.754 18.5938 6.56733 18.6871 6.362L19.6111 4.5C19.7231 4.276 19.8725 4.13133 20.0591 4.066C20.2458 4.00067 20.4325 3.996 20.6191 4.052C20.8151 4.108 20.9831 4.206 21.1231 4.346C21.2725 4.486 21.3611 4.64933 21.3891 4.836C21.4265 5.02267 21.3705 5.214 21.2211 5.41L19.9751 7.104ZM23.0446 15.126C22.6526 15.126 22.3493 15.0187 22.1346 14.804C21.92 14.5893 21.8126 14.2767 21.8126 13.866V9.232C21.8126 8.83067 21.9153 8.52267 22.1206 8.308C22.3353 8.09333 22.6386 7.986 23.0306 7.986C23.4226 7.986 23.7213 8.09333 23.9266 8.308C24.132 8.52267 24.2346 8.83067 24.2346 9.232V10.002L24.0806 9.316C24.2766 8.90533 24.566 8.57867 24.9486 8.336C25.3406 8.084 25.8026 7.958 26.3346 7.958C26.8386 7.958 27.268 8.07933 27.6226 8.322C27.9866 8.56467 28.248 8.93333 28.4066 9.428H28.2106C28.4253 8.97067 28.7473 8.61133 29.1766 8.35C29.606 8.08867 30.082 7.958 30.6046 7.958C31.146 7.958 31.5893 8.06533 31.9346 8.28C32.28 8.48533 32.5366 8.812 32.7046 9.26C32.882 9.69867 32.9706 10.254 32.9706 10.926V13.866C32.9706 14.2767 32.8586 14.5893 32.6346 14.804C32.42 15.0187 32.112 15.126 31.7106 15.126C31.3186 15.126 31.0153 15.0187 30.8006 14.804C30.586 14.5893 30.4786 14.2767 30.4786 13.866V10.996C30.4786 10.5947 30.418 10.3053 30.2966 10.128C30.1753 9.95067 29.9746 9.862 29.6946 9.862C29.3493 9.862 29.0833 9.98333 28.8966 10.226C28.7193 10.4687 28.6306 10.814 28.6306 11.262V13.866C28.6306 14.2767 28.5233 14.5893 28.3086 14.804C28.094 15.0187 27.786 15.126 27.3846 15.126C26.9833 15.126 26.6753 15.0187 26.4606 14.804C26.246 14.5893 26.1386 14.2767 26.1386 13.866V10.996C26.1386 10.5947 26.078 10.3053 25.9566 10.128C25.8353 9.95067 25.6346 9.862 25.3546 9.862C25.0186 9.862 24.7573 9.98333 24.5706 10.226C24.3933 10.4687 24.3046 10.814 24.3046 11.262V13.866C24.3046 14.706 23.8846 15.126 23.0446 15.126ZM38.9535 15.154C38.4215 15.154 37.9455 15.028 37.5255 14.776C37.1148 14.5147 36.8441 14.174 36.7135 13.754L36.8675 13.18V13.866C36.8675 14.2767 36.7601 14.5893 36.5455 14.804C36.3401 15.0187 36.0415 15.126 35.6495 15.126C35.2481 15.126 34.9401 15.0187 34.7255 14.804C34.5201 14.5893 34.4175 14.2767 34.4175 13.866V6.264C34.4175 5.85333 34.5248 5.54067 34.7395 5.326C34.9541 5.11133 35.2575 5.004 35.6495 5.004C36.0508 5.004 36.3588 5.11133 36.5735 5.326C36.7975 5.54067 36.9095 5.85333 36.9095 6.264V9.26H36.7415C36.8815 8.87733 37.1568 8.56467 37.5675 8.322C37.9781 8.07933 38.4401 7.958 38.9535 7.958C39.5508 7.958 40.0735 8.10267 40.5215 8.392C40.9788 8.68133 41.3335 9.092 41.5855 9.624C41.8375 10.156 41.9635 10.8 41.9635 11.556C41.9635 12.2933 41.8375 12.9327 41.5855 13.474C41.3335 14.0153 40.9788 14.4307 40.5215 14.72C40.0735 15.0093 39.5508 15.154 38.9535 15.154ZM38.1695 13.32C38.4215 13.32 38.6408 13.2593 38.8275 13.138C39.0235 13.0073 39.1775 12.816 39.2895 12.564C39.4015 12.3027 39.4575 11.9667 39.4575 11.556C39.4575 10.9307 39.3361 10.4827 39.0935 10.212C38.8508 9.932 38.5428 9.792 38.1695 9.792C37.9175 9.792 37.6935 9.85267 37.4975 9.974C37.3015 10.0953 37.1475 10.2867 37.0355 10.548C36.9235 10.8 36.8675 11.136 36.8675 11.556C36.8675 12.172 36.9888 12.62 37.2315 12.9C37.4741 13.18 37.7868 13.32 38.1695 13.32ZM46.5851 15.154C45.8198 15.154 45.1524 15.0093 44.5831 14.72C44.0138 14.4307 43.5704 14.0153 43.2531 13.474C42.9358 12.9327 42.7771 12.2933 42.7771 11.556C42.7771 10.996 42.8658 10.4967 43.0431 10.058C43.2204 9.61 43.4771 9.232 43.8131 8.924C44.1491 8.60667 44.5504 8.36867 45.0171 8.21C45.4838 8.042 46.0064 7.958 46.5851 7.958C47.3504 7.958 48.0178 8.10267 48.5871 8.392C49.1564 8.68133 49.5951 9.09667 49.9031 9.638C50.2204 10.17 50.3791 10.8093 50.3791 11.556C50.3791 12.1067 50.2904 12.606 50.1131 13.054C49.9358 13.502 49.6791 13.8847 49.3431 14.202C49.0164 14.51 48.6151 14.748 48.1391 14.916C47.6724 15.0747 47.1544 15.154 46.5851 15.154ZM46.5851 13.32C46.8371 13.32 47.0611 13.2593 47.2571 13.138C47.4531 13.0073 47.6024 12.816 47.7051 12.564C47.8171 12.3027 47.8731 11.9667 47.8731 11.556C47.8731 10.9307 47.7518 10.4827 47.5091 10.212C47.2664 9.932 46.9584 9.792 46.5851 9.792C46.3331 9.792 46.1091 9.85267 45.9131 9.974C45.7171 10.0953 45.5631 10.2867 45.4511 10.548C45.3391 10.8 45.2831 11.136 45.2831 11.556C45.2831 12.172 45.4044 12.62 45.6471 12.9C45.8898 13.18 46.2024 13.32 46.5851 13.32ZM54.139 15.154C53.243 15.154 52.5803 14.916 52.151 14.44C51.731 13.9547 51.521 13.2267 51.521 12.256V6.264C51.521 5.85333 51.6283 5.54067 51.843 5.326C52.0576 5.11133 52.361 5.004 52.753 5.004C53.1543 5.004 53.4623 5.11133 53.677 5.326C53.901 5.54067 54.013 5.85333 54.013 6.264V12.172C54.013 12.5173 54.0783 12.7693 54.209 12.928C54.349 13.0867 54.5263 13.166 54.741 13.166C54.8063 13.166 54.8716 13.1613 54.937 13.152C55.0116 13.1333 55.091 13.1193 55.175 13.11C55.3336 13.11 55.4503 13.1707 55.525 13.292C55.609 13.4133 55.651 13.6607 55.651 14.034C55.651 14.3607 55.5856 14.608 55.455 14.776C55.3243 14.9347 55.1236 15.0373 54.853 15.084C54.7783 15.0933 54.671 15.1073 54.531 15.126C54.391 15.1447 54.2603 15.154 54.139 15.154ZM59.8058 15.154C59.0405 15.154 58.3731 15.0093 57.8038 14.72C57.2345 14.4307 56.7911 14.0153 56.4738 13.474C56.1565 12.9327 55.9978 12.2933 55.9978 11.556C55.9978 10.996 56.0865 10.4967 56.2638 10.058C56.4411 9.61 56.6978 9.232 57.0338 8.924C57.3698 8.60667 57.7711 8.36867 58.2378 8.21C58.7045 8.042 59.2271 7.958 59.8058 7.958C60.5711 7.958 61.2385 8.10267 61.8078 8.392C62.3771 8.68133 62.8158 9.09667 63.1238 9.638C63.4411 10.17 63.5998 10.8093 63.5998 11.556C63.5998 12.1067 63.5111 12.606 63.3338 13.054C63.1565 13.502 62.8998 13.8847 62.5638 14.202C62.2371 14.51 61.8358 14.748 61.3598 14.916C60.8931 15.0747 60.3751 15.154 59.8058 15.154ZM59.8058 13.32C60.0578 13.32 60.2818 13.2593 60.4778 13.138C60.6738 13.0073 60.8231 12.816 60.9258 12.564C61.0378 12.3027 61.0938 11.9667 61.0938 11.556C61.0938 10.9307 60.9725 10.4827 60.7298 10.212C60.4871 9.932 60.1791 9.792 59.8058 9.792C59.5538 9.792 59.3298 9.85267 59.1338 9.974C58.9378 10.0953 58.7838 10.2867 58.6718 10.548C58.5598 10.8 58.5038 11.136 58.5038 11.556C58.5038 12.172 58.6251 12.62 58.8678 12.9C59.1105 13.18 59.4231 13.32 59.8058 13.32Z" fill="#5A4522"/>
<circle cx="3" cy="39.5" r="3" fill="#5A4522"/>
<path d="M3 39.5L7.5 19H63" stroke="#5A4522" stroke-width="2" stroke-linecap="round"/>
</svg>
