<svg width="233" height="73" viewBox="0 0 233 73" fill="none" xmlns="http://www.w3.org/2000/svg">
<path d="M141.921 0H91.2907C80.2207 0 73.3107 11.98 78.8407 21.57L104.161 65.42C109.691 75 123.531 75 129.061 65.42L154.381 21.57C159.911 11.99 153.001 0 141.931 0H141.921ZM98.0607 15.83L96.8807 19.98C96.5907 20.99 95.1607 20.99 94.8707 19.98L93.6907 15.83C93.5007 15.16 94.0007 14.5 94.7007 14.5H97.0507C97.7407 14.5 98.2407 15.16 98.0607 15.83ZM108.421 40.36L107.241 44.51C106.951 45.52 105.521 45.52 105.231 44.51L104.051 40.36C103.861 39.69 104.361 39.03 105.061 39.03H107.411C108.101 39.03 108.601 39.69 108.421 40.36ZM118.791 57.68L117.611 61.83C117.321 62.84 115.891 62.84 115.601 61.83L114.421 57.68C114.231 57.01 114.731 56.35 115.431 56.35H117.781C118.471 56.35 118.971 57.01 118.791 57.68ZM118.791 26.55L117.611 30.7C117.321 31.71 115.891 31.71 115.601 30.7L114.421 26.55C114.231 25.88 114.731 25.22 115.431 25.22H117.781C118.471 25.22 118.971 25.88 118.791 26.55ZM129.151 40.36L127.971 44.51C127.681 45.52 126.251 45.52 125.961 44.51L124.781 40.36C124.591 39.69 125.091 39.03 125.791 39.03H128.141C128.831 39.03 129.331 39.69 129.151 40.36ZM139.511 15.83L138.331 19.98C138.041 20.99 136.611 20.99 136.321 19.98L135.141 15.83C134.951 15.16 135.451 14.5 136.151 14.5H138.501C139.191 14.5 139.691 15.16 139.511 15.83ZM140.041 8.82L127.201 4.05C126.231 3.69 125.151 4.05 124.601 4.93L118.461 14.69C117.611 16.05 115.631 16.05 114.771 14.69L109.061 5.61C108.511 4.74 107.421 4.37 106.461 4.73L93.1907 9.67C91.6007 10.26 89.9707 8.89 90.2907 7.22L91.2207 2.4C91.4207 1.37 92.3107 0.63 93.3607 0.63H140.051C141.091 0.63 141.991 1.37 142.191 2.4L142.951 6.37C143.271 8.04 141.641 9.42 140.051 8.82H140.041Z" fill="white"/>
<path d="M21.8407 60.39V72.58H57.5907V60.45C53.5507 58.8 47.0207 57.73 39.6507 57.73C32.2807 57.73 25.8907 58.78 21.8407 60.39Z" fill="white"/>
<path d="M65.0307 68.2299C63.3207 68.2299 61.9407 66.8399 61.9407 65.1299V63.1099C61.9407 61.6499 60.3407 60.2999 57.6507 59.1999C53.6107 57.5499 47.0807 56.4799 39.7107 56.4799C32.3407 56.4799 25.9607 57.5299 21.9007 59.1499C19.1307 60.2499 17.4907 61.6199 17.4907 63.1099V65.1299C17.4907 66.8399 16.1107 68.2299 14.4007 68.2299C3.33069 68.2299 -3.58931 60.6499 1.95069 51.0599L27.2607 7.2099C32.8007 -2.3701 46.6307 -2.3701 52.1607 7.2099L77.4807 51.0599C83.0207 60.6499 76.1007 68.2299 65.0307 68.2299Z" fill="white"/>
<path d="M153.781 57.5398C153.781 57.8398 153.791 58.1298 153.811 58.4098C154.051 61.4598 155.631 66.0598 159.261 68.9698C162.291 71.3998 166.321 72.3898 171.241 71.9298C170.781 70.0198 170.561 68.0798 170.561 66.1198C170.561 63.6898 170.911 61.2298 171.611 58.7498C170.941 57.8298 170.171 56.8398 169.231 55.6698C165.531 51.1298 161.321 46.8898 159.141 44.7698C158.861 44.4998 158.621 44.2698 158.401 44.0598C156.941 46.5598 153.781 52.5598 153.781 57.5298V57.5398ZM170.481 53.5598C170.661 53.7798 170.841 53.9998 171.021 54.2198C171.561 54.8898 172.051 55.4998 172.491 56.0798C172.931 54.9298 173.441 53.7998 174.031 52.6798C174.041 52.6498 174.061 52.6198 174.081 52.5898C175.421 50.0498 177.051 47.7398 178.911 45.7198C179.911 44.6298 180.941 43.6598 182.001 42.8298C182.021 42.6798 182.041 42.5098 182.041 42.3098C182.041 40.9898 181.431 38.5098 178.701 34.0698L178.671 34.0198C178.671 34.0198 178.631 33.9498 178.611 33.9198C176.301 30.1898 173.451 26.5698 171.961 24.7298C171.801 24.5298 171.641 24.3498 171.501 24.1798C166.921 29.7398 160.931 38.4898 160.921 42.6598C160.921 42.8998 160.941 43.1298 160.981 43.3398C163.141 45.4498 166.971 49.3298 170.471 53.5398L170.481 53.5598ZM174.011 23.5998C175.291 25.1798 177.301 27.7598 179.211 30.5898C180.241 27.7798 181.901 25.2598 184.171 23.0698C184.801 22.4698 185.471 21.8998 186.201 21.3398C186.161 19.7398 185.661 17.9498 184.711 16.0098C184.711 16.0098 184.701 15.9798 184.691 15.9698C184.571 15.7198 184.441 15.4698 184.311 15.2298C182.871 12.5698 180.991 10.3398 179.961 9.20977C179.961 9.20977 179.951 9.18976 179.941 9.18976C178.201 11.5198 174.201 17.4998 174.031 23.6198L174.011 23.5998ZM181.931 7.94977C182.741 8.84976 183.891 10.2498 185.011 11.9298C185.791 10.0398 186.901 8.32977 188.311 6.82977C188.781 6.32977 189.261 5.86977 189.761 5.44977C189.671 4.64977 188.691 3.57977 187.101 2.54977C186.971 2.46977 186.841 2.39977 186.731 2.32977C185.101 3.33977 182.231 5.57977 181.921 7.94977H181.931ZM193.351 0.00976562C191.561 0.00976562 189.631 0.819766 189.161 1.56977C190.421 2.49977 191.291 3.20977 191.731 4.16977C191.801 4.12977 192.661 3.85977 193.351 3.89977C194.041 3.85977 194.901 4.11977 194.961 4.16977C195.411 3.20977 196.271 2.49977 197.531 1.56977C197.071 0.819766 195.141 0.00976562 193.351 0.00976562ZM212.671 59.0698L212.551 58.6798C212.031 56.9898 211.341 55.3098 210.471 53.6798C209.251 51.3598 207.701 49.1398 205.991 47.2998C205.251 46.4798 204.481 45.7398 203.701 45.0798L202.581 44.1898H202.571C199.461 41.9098 195.061 40.6398 193.371 40.1398C191.671 40.6398 187.161 41.8998 184.051 44.1898H184.041L182.921 45.0798C182.141 45.7398 181.371 46.4898 180.631 47.2998C178.921 49.1398 177.371 51.3598 176.151 53.6798C175.281 55.3098 174.591 56.9898 174.071 58.6798L173.951 59.0698C173.251 61.4398 172.901 63.8098 172.901 66.1298C172.901 68.1198 173.151 70.0698 173.671 71.9998C175.961 72.3098 186.471 72.4398 193.371 72.4098C200.271 72.4398 210.671 72.3098 212.961 71.9998C213.481 70.0698 213.731 68.1198 213.731 66.1298C213.731 63.8098 213.381 61.4398 212.681 59.0698H212.671ZM228.201 44.0698C227.981 44.2798 227.731 44.5198 227.461 44.7798C225.281 46.8998 221.071 51.1398 217.371 55.6798C216.431 56.8398 215.661 57.8298 214.991 58.7598C215.691 61.2398 216.041 63.6998 216.041 66.1298C216.041 68.0898 215.811 70.0298 215.361 71.9398C220.291 72.3998 224.311 71.4098 227.341 68.9798C230.971 66.0698 232.551 61.4698 232.791 58.4198C232.811 58.1298 232.821 57.8398 232.821 57.5498C232.821 52.5798 229.661 46.5798 228.201 44.0798V44.0698ZM216.121 53.5598C219.631 49.3398 223.451 45.4698 225.611 43.3598C225.651 43.1498 225.671 42.9198 225.671 42.6798C225.671 38.5098 219.681 29.7598 215.091 24.1998C214.951 24.3698 214.801 24.5498 214.631 24.7498C213.131 26.5798 210.281 30.2098 207.981 33.9398C207.971 33.9698 207.951 33.9998 207.921 34.0398L207.891 34.0898C205.161 38.5398 204.551 41.0098 204.551 42.3298C204.551 42.5298 204.561 42.6998 204.591 42.8498C205.641 43.6798 206.681 44.6498 207.681 45.7398C209.541 47.7598 211.171 50.0698 212.511 52.6098C212.521 52.6398 212.541 52.6698 212.561 52.6998C213.141 53.8198 213.661 54.9498 214.101 56.0998C214.551 55.5198 215.031 54.9098 215.571 54.2398C215.751 54.0198 215.931 53.7998 216.111 53.5798L216.121 53.5598ZM200.831 24.7398C200.831 24.7398 200.811 24.7198 200.801 24.7098C200.131 24.0698 199.401 23.4698 198.581 22.8698C198.491 22.8098 198.401 22.7398 198.301 22.6798C198.291 22.6698 198.271 22.6598 198.261 22.6498C198.261 22.6498 198.254 22.6464 198.241 22.6398C198.241 22.6398 198.221 22.6198 198.211 22.6198C196.851 21.6698 194.841 20.8498 193.361 20.4598C191.871 20.8498 189.751 21.6698 188.401 22.6198C188.391 22.6198 188.381 22.6298 188.371 22.6398C188.371 22.6398 188.361 22.6398 188.351 22.6498C188.341 22.6598 188.321 22.6698 188.311 22.6798C188.221 22.7398 188.131 22.8098 188.031 22.8698C187.201 23.4698 186.481 24.0698 185.811 24.7098C185.801 24.7198 185.791 24.7298 185.781 24.7398C183.301 27.1398 181.641 29.9598 180.851 33.1498C181.181 33.6898 181.481 34.2098 181.761 34.7098C183.201 37.2898 184.031 39.4498 184.291 41.2298C187.511 39.1898 190.991 37.7298 193.371 37.7298C196.361 37.8298 199.121 39.1898 202.341 41.2298C202.591 39.4498 203.431 37.2898 204.871 34.7098C205.151 34.2098 205.451 33.6898 205.781 33.1498C204.981 29.9598 203.321 27.1398 200.851 24.7398H200.831ZM206.671 9.16977C206.671 9.16977 206.661 9.18976 206.651 9.18976C205.621 10.3198 203.741 12.5498 202.301 15.2098C202.171 15.4598 202.041 15.6998 201.921 15.9498C201.921 15.9598 201.911 15.9698 201.901 15.9898C200.951 17.9398 200.451 19.7198 200.411 21.3198C201.141 21.8798 201.811 22.4498 202.441 23.0498C204.711 25.2398 206.371 27.7598 207.401 30.5698C209.311 27.7298 211.321 25.1498 212.601 23.5798C212.431 17.4598 208.431 11.4698 206.691 9.14977L206.671 9.16977ZM196.601 8.41977C195.651 7.40977 194.621 6.59977 193.361 6.59977C192.101 6.59977 191.071 7.41977 190.121 8.41977C188.481 10.1498 187.321 12.2098 186.671 14.5498C186.741 14.6898 186.811 14.8398 186.881 14.9898C186.881 14.9998 186.891 14.9998 186.891 15.0098C186.901 15.0298 186.911 15.0498 186.921 15.0698C187.741 16.7398 188.261 18.3498 188.481 19.8598C189.971 18.9698 192.071 18.1598 193.351 18.1598C194.631 18.1598 196.731 18.9798 198.211 19.8598C198.431 18.3498 198.961 16.7398 199.781 15.0698C199.791 15.0498 199.801 15.0298 199.811 15.0098V14.9898H199.821C199.881 14.8398 199.961 14.6898 200.031 14.5498C199.381 12.2198 198.231 10.1598 196.581 8.41977H196.601ZM199.851 2.32977C199.741 2.38977 199.621 2.46977 199.481 2.54977C197.891 3.57977 196.921 4.64977 196.821 5.44977C197.321 5.86977 197.811 6.32977 198.271 6.82977C199.681 8.32977 200.791 10.0398 201.571 11.9298C202.691 10.2498 203.851 8.84976 204.651 7.94977C204.341 5.58977 201.461 3.33977 199.841 2.32977H199.851Z" fill="white"/>
</svg>
