<?xml version="1.0" encoding="UTF-8"?><svg id="Capa_1" xmlns="http://www.w3.org/2000/svg" viewBox="0 0 20 20"><defs><style>.cls-1{fill:#036e6e;}.cls-1,.cls-2,.cls-3,.cls-4,.cls-5,.cls-6,.cls-7,.cls-8,.cls-9,.cls-10,.cls-11,.cls-12{fill-rule:evenodd;stroke-width:0px;}.cls-2{fill:#102222;}.cls-3{fill:#162d2c;}.cls-4{fill:#02696a;}.cls-5{fill:#0c1616;}.cls-6{fill:#014242;}.cls-7{fill:#066362;}.cls-8{fill:#153838;}.cls-13{stroke-width:.03px;}.cls-13,.cls-14{fill:none;stroke:#231f20;stroke-miterlimit:2.29;}.cls-9{fill:#037b7e;}.cls-10{fill:#0d2323;}.cls-14{stroke-width:.22px;}.cls-11{fill:#091212;}.cls-12{fill:#055455;}</style></defs><g id="Capa_1-2"><path class="cls-13" d="M8.9,4L13,0H3.8l-1.8,4h6.9Z"/><path class="cls-13" d="M2,4l4.9,1.9,2-1.9"/><path class="cls-13" d="M8.8,6.6l-1.9-.8-4.6,4.3,4.5,4.2,2-.8V4"/><path class="cls-13" d="M8.9,4l9.1,6L13,0"/><path class="cls-13" d="M18,10l-9.2-3.4"/><path class="cls-13" d="M8.8,13.4v2.6"/><path class="cls-13" d="M13,20l-6.2-5.8-4.8,1.8,1.8,4h9.2Z"/><path class="cls-13" d="M13,20l5-10-9.2,6.1"/><path class="cls-13" d="M18,10l-9.2,3.5"/><path class="cls-14" d="M8.8,16.1l-6.8-.1"/><path class="cls-11" d="M8.8,6.6l9.2,3.4-9.1-6-.1,2.6h0Z"/><path class="cls-5" d="M18,10l-9.2,3.5v2.6h0l9.2-6.1"/><path class="cls-7" d="M8.9,4l9.1,6L13,0l-4.1,4Z"/><path class="cls-6" d="M18,10l-9.2,6.1,4.2,3.9,5-10h0Z"/><path class="cls-12" d="M8.8,13.4l9.2-3.4-9.2-3.4v6.8Z"/><path class="cls-1" d="M8.8,13.4v-6.9l-1.9-.7-4.6,4.3,4.5,4.2,2-.9"/><path class="cls-10" d="M6.9,5.8l1.9.8v-2.6l-1.9,1.8Z"/><path class="cls-2" d="M8.8,13.4l-2,.8,2,1.8v-2.6Z"/><path class="cls-4" d="M8.8,16.1l-6.8-.1,1.8,4h9.2l-4.2-3.9h0"/><path class="cls-9" d="M2,4h6.8L13,0H3.8l-1.8,4"/><path class="cls-8" d="M8.9,4H2l4.9,1.9c0-.1,2-1.9,2-1.9Z"/><path class="cls-3" d="M6.8,14.2l-4.8,1.8h6.8l-2-1.8"/></g></svg>