<?xml version="1.0" encoding="UTF-8"?><svg id="Capa_2" xmlns="http://www.w3.org/2000/svg" viewBox="0 0 14.7 18.37"><defs><style>.cls-1{fill:#102222;}.cls-1,.cls-2,.cls-3,.cls-4,.cls-5,.cls-6,.cls-7,.cls-8,.cls-9,.cls-10,.cls-11,.cls-12{fill-rule:evenodd;}.cls-2{fill:#153838;}.cls-3{fill:#055455;}.cls-4{fill:#091212;}.cls-13{stroke-width:.03px;}.cls-13,.cls-14{fill:none;stroke:#231f20;stroke-miterlimit:2.29;}.cls-14{stroke-width:.22px;}.cls-5{fill:#066362;}.cls-6{fill:#0d2323;}.cls-7{fill:#014242;}.cls-8{fill:#162d2c;}.cls-9{fill:#037b7e;}.cls-10{fill:#036e6e;}.cls-11{fill:#0c1616;}.cls-12{fill:#02696a;}</style></defs><g id="Capa_1-2"><path class="cls-13" d="m6.31,3.66L10.11.01H1.64L.05,3.64l6.26.02Z"/><path class="cls-13" d="m.05,3.64l4.48,1.7,1.78-1.68"/><path class="cls-13" d="m6.3,6.03l-1.77-.69L.32,9.25l4.12,3.81,1.84-.72.03-8.68"/><path class="cls-13" d="m6.31,3.66l8.38,5.49L10.11.01"/><path class="cls-13" d="m14.69,9.15l-8.39-3.11"/><path class="cls-13" d="m6.28,12.35l-.02,2.41"/><path class="cls-13" d="m10.12,18.35l-5.68-5.29L.02,14.73l1.61,3.63h8.5Z"/><path class="cls-13" d="m10.12,18.35l4.57-9.21-8.43,5.61"/><path class="cls-13" d="m14.69,9.15l-8.41,3.2"/><path class="cls-14" d="m6.26,14.76l-6.24-.03"/><path class="cls-4" d="m6.3,6.03l8.39,3.11L6.31,3.66v2.37Z"/><path class="cls-11" d="m14.69,9.15l-8.41,3.2-.02,2.41h0s8.43-5.61,8.43-5.61"/><path class="cls-5" d="m6.31,3.66l8.38,5.49L10.11.01l-3.8,3.65Z"/><path class="cls-7" d="m14.69,9.15l-8.43,5.61,3.87,3.6,4.57-9.21Z"/><path class="cls-3" d="m6.28,12.35l8.41-3.2-8.39-3.11-.02,6.31Z"/><path class="cls-10" d="m6.28,12.35l.02-6.31-1.77-.69L.32,9.25l4.12,3.81,1.84-.72"/><path class="cls-6" d="m4.53,5.34l1.77.69v-2.37s-1.77,1.68-1.77,1.68Z"/><path class="cls-1" d="m6.28,12.35l-1.84.72,1.82,1.69.02-2.41Z"/><path class="cls-12" d="m6.26,14.76l-6.24-.03,1.61,3.63h8.5l-3.87-3.6h0"/><path class="cls-9" d="m.05,3.64l6.26.02L10.11.01H1.64L.05,3.64"/><path class="cls-2" d="m6.31,3.66l-6.26-.02,4.48,1.7,1.78-1.68Z"/><path class="cls-8" d="m4.44,13.07L.02,14.73l6.24.03h0s-1.82-1.69-1.82-1.69"/></g></svg>