<?xml version="1.0" encoding="UTF-8"?><svg id="Capa_2" xmlns="http://www.w3.org/2000/svg" xmlns:xlink="http://www.w3.org/1999/xlink" viewBox="0 0 18.81 18.34"><defs><style>.cls-1{fill:#1f090b;}.cls-2{fill:url(#Degradado_sin_nombre_24);}.cls-3{fill:#e73f1e;fill-rule:evenodd;}</style><linearGradient id="Degradado_sin_nombre_24" x1="2.95" y1="614.98" x2="16.18" y2="614.98" gradientTransform="translate(0 -605.89)" gradientUnits="userSpaceOnUse"><stop offset=".14" stop-color="#fff"/><stop offset="1" stop-color="#ecedeb"/></linearGradient></defs><g id="Capa_1-2"><rect class="cls-1" x=".78" y=".78" width="17.24" height="16.77"/><path class="cls-2" d="m15.96,10.98c-.38-.41-1.18-.62-2.3-.62-.63,0-1.34.06-2.13.2-.45-.42-.89-.93-1.32-1.51-.3-.42-.57-.85-.82-1.28.4-1.23.67-2.41.67-3.32,0-.67-.22-1.79-1.22-1.79-.26,0-.54.16-.68.41-.42.73-.23,2.37.54,4.05-.27.81-.57,1.61-.95,2.53-.31.76-.69,1.54-1.09,2.25-2.18.86-3.57,1.84-3.71,2.63-.05.26.03.51.24.71.13.12.39.27.78.27,1.25,0,2.65-1.83,3.69-3.71.58-.2,1.19-.38,1.82-.56.68-.18,1.33-.32,1.95-.43,1.51,1.37,2.85,1.58,3.52,1.58.83,0,1.07-.34,1.15-.56.13-.32.02-.67-.16-.85Zm-7.57-7.78c.1-.17.27-.28.45-.28.38,0,.58.33.58.93,0,.65-.2,1.71-.6,2.92-.73-1.7-.74-3.06-.44-3.57ZM3.21,14.58c.13-.65,1.36-1.53,3.26-2.32-1.06,1.81-2.1,2.92-2.76,2.92-.13,0-.25-.04-.34-.13-.13-.13-.19-.3-.16-.48Zm8.02-3.97c-.56.1-1.17.24-1.78.4-.54.14-1.07.31-1.58.47.3-.56.56-1.1.75-1.59.24-.59.48-1.2.68-1.81.22.38.45.74.71,1.11.38.54.79,1.02,1.21,1.43h0Zm.55.16c1.28-.24,2.4-.19,2.88-.09.49.1.75.4.67.84-.09.45-.62.66-1.21.52-.94-.23-1.72-.74-2.34-1.27Z"/><path class="cls-3" d="m0,0v18.34h18.81V0H0Zm.78.78h17.24v16.77H.78V.78Z"/></g></svg>