<?xml version="1.0" encoding="UTF-8"?><svg id="Capa_1" xmlns="http://www.w3.org/2000/svg" xmlns:xlink="http://www.w3.org/1999/xlink" viewBox="0 0 20 20"><defs><style>.cls-1{fill:#1f090b;}.cls-1,.cls-2,.cls-3{stroke-width:0px;}.cls-2{fill:#e73f1e;fill-rule:evenodd;}.cls-3{fill:url(#Degradado_sin_nombre_2);}</style><linearGradient id="Degradado_sin_nombre_2" x1="3.14" y1="-1707.74" x2="17.2" y2="-1707.74" gradientTransform="translate(0 -1697.89) scale(1 -1)" gradientUnits="userSpaceOnUse"><stop offset=".14" stop-color="#fff"/><stop offset="1" stop-color="#ecedeb"/></linearGradient></defs><g id="Capa_1-2"><rect class="cls-1" x=".9" y=".9" width="18.3" height="18.4"/><path class="cls-3" d="M17,12c-.4-.4-1.3-.7-2.4-.7-.6,0-1.4.1-2.2.2-.4-.4-1-1-1.4-1.6-.4-.5-.7-1-1-1.4.4-1.3.7-2.6.7-3.6,0-.8-.2-2-1.3-2-.3.1-.5.3-.7.5-.5.8-.3,2.5.6,4.4-.3.9-.6,1.7-1,2.7-.3.9-.7,1.6-1.2,2.4-2.3,1-3.8,2-3.9,2.8,0,.3,0,.5.2.8.1.1.4.3.9.3,1.3,0,2.9-2,3.9-4,.6-.2,1.3-.4,1.9-.7.7-.2,1.4-.3,2-.4,1.6,1.5,3,1.7,3.7,1.7.9,0,1.2-.3,1.2-.7.2-.1.1-.5,0-.7h0ZM8.9,3.5c.1-.2.4-.3.5-.3.4,0,.6.3.6,1s-.2,1.8-.6,3.1c-.8-1.7-.8-3.3-.5-3.8h0ZM3.4,16c.1-.7,1.5-1.6,3.5-2.5-1.2,2-2.2,3.2-3,3.2-.1,0-.2,0-.3-.1-.2-.3-.2-.4-.2-.6h0ZM11.9,11.6c-.6.1-1.3.2-1.9.4-.5.1-1.2.3-1.7.5.3-.7.6-1.2.9-1.7.2-.7.5-1.3.7-2,.2.4.5.8.7,1.2.5.6.9,1.1,1.3,1.6h0ZM12.6,11.8c1.4-.2,2.6-.2,3.1-.1s.9.4.7.9c-.1.4-.6.8-1.3.5-1.1-.2-1.9-.8-2.5-1.3Z"/><path class="cls-2" d="M0,0v20h20V0H0ZM.9.9h18.3v18.4H.9V.9Z"/></g></svg>