<?xml version="1.0" encoding="UTF-8"?><svg id="Capa_1" xmlns="http://www.w3.org/2000/svg" viewBox="0 0 20 20"><defs><style>.cls-1{fill:#9294c9;}.cls-1,.cls-2{stroke-width:0px;}.cls-2{fill:#20244d;}</style></defs><g id="Capa_1-2"><g id="vlpa"><g id="vlpb"><g id="vlpc"><g id="vlpd"><path class="cls-2" d="M3.55.05h12.9c2,0,3.5,1.6,3.5,3.6v12.7c0,2-1.6,3.6-3.5,3.6H3.55C1.55,19.95.05,18.35.05,16.35V3.65C.05,1.65,1.65.05,3.55.05Z"/></g></g></g><g id="vlpe"><g id="vlpf"><path class="cls-1" d="M8.05,12.05h-3.1l-.6,2c0,.1-.1.1-.2.1h-1.5c-.1,0-.1-.1-.1-.2l2.7-7.9c0-.1.1-.2.1-.3,0-.2.1-.4.1-.6,0,0,0-.1.1-.1h2.2q.1,0,.1.1l3,8.7q0,.1-.1.1h-1.9q-.1,0-.1-.1l-.7-1.8h0ZM5.45,10.35h2.1c-.1-.2-.1-.4-.2-.6,0-.3-.1-.5-.2-.8-.1-.2-.1-.5-.2-.8-.1-.2-.2-.5-.2-.7-.1-.3-.2-.5-.2-.7h0c-.1.4-.2.7-.3,1.1-.2.4-.3.8-.4,1.3-.1.4-.3.8-.4,1.2h0Z"/><path class="cls-1" d="M15.65,11.25h-2.6c0,.3.1.5.3.8.1.2.4.4.6.5.3.1.7.2,1.1.2.3,0,.6,0,.9-.1.3,0,.5-.1.7-.2,0,0,.1,0,.1.1v1.4l-.1.1c-.3.1-.5.2-.8.3-.4.1-.8.1-1.2.1-.6,0-1.2-.1-1.6-.3-.4-.2-.8-.5-1.1-.8s-.5-.7-.6-1.1c-.1-.4-.2-.8-.2-1.2,0-.5.1-.9.2-1.4.1-.4.3-.8.6-1.2.3-.3.6-.6,1-.8.4-.2.9-.3,1.4-.3.4,0,.9.1,1.3.3.3.2.6.4.9.7.2.3.4.6.5,1,.1.3.2.7.2,1v.9c0,.1-.1.1-.1.1h-.8c-.3-.1-.5-.1-.7-.1h0ZM13.05,10.05h2.3q.1,0,.2-.1v-.1c0-.1,0-.2-.1-.3-.1-.5-.6-.8-1.1-.8s-.9.2-1.1.7c-.2.2-.2.4-.2.6h0Z"/></g></g></g></g></svg>