<?xml version="1.0" encoding="UTF-8"?><svg id="Capa_2" xmlns="http://www.w3.org/2000/svg" viewBox="0 0 18.81 18.34"><defs><style>.cls-1{fill:#20244d;}.cls-2{fill:#9294c9;}</style></defs><g id="Capa_1-2"><g id="vlpa"><g id="vlpb"><g id="vlpc"><g id="vlpd"><path class="cls-1" d="m3.33,0h12.15c1.84,0,3.33,1.49,3.33,3.33v11.68c0,1.84-1.49,3.33-3.33,3.33H3.33c-1.84,0-3.33-1.49-3.33-3.33V3.33C0,1.49,1.49,0,3.33,0Z"/></g></g></g><g id="vlpe"><g id="vlpf"><path class="cls-2" d="m7.56,10.97h-2.92l-.6,1.85c-.02.07-.08.12-.15.11h-1.47c-.09,0-.11-.05-.09-.14l2.52-7.23c.02-.08.05-.15.08-.24.03-.16.05-.34.05-.51,0-.04.02-.08.06-.09h2.03c.05,0,.09.02.1.06l2.86,7.99c.02.09,0,.13-.08.13h-1.64c-.05,0-.11-.03-.13-.09l-.64-1.88v.04Zm-2.46-1.56h1.99c-.05-.16-.11-.36-.18-.56-.07-.21-.14-.44-.21-.67-.08-.24-.15-.48-.23-.72s-.15-.47-.21-.7c-.06-.22-.12-.42-.17-.61h-.02c-.07.34-.16.67-.27,1.01-.12.38-.24.77-.36,1.16-.1.4-.23.77-.34,1.1Z"/><path class="cls-2" d="m14.66,10.27h-2.48c.03.24.11.49.24.7.14.21.34.38.57.47.31.13.66.2,1,.2.27,0,.55-.03.82-.09.24-.03.48-.09.7-.18.04-.03.06-.02.06.06v1.2s0,.06-.02.09c-.02.02-.03.04-.05.05-.25.11-.51.19-.78.24-.37.07-.74.1-1.11.09-.6,0-1.1-.09-1.5-.27-.38-.16-.72-.42-.99-.74-.25-.31-.43-.65-.54-1.03-.11-.37-.16-.75-.16-1.14,0-.42.06-.84.2-1.25.13-.39.32-.75.59-1.07.26-.31.58-.56.95-.74s.81-.24,1.31-.24c.42,0,.83.07,1.21.24.32.14.6.35.82.63.2.27.37.56.47.89.1.31.15.63.15.96,0,.19,0,.35-.02.5-.02.15-.02.26-.03.33,0,.05-.05.1-.11.1-.05,0-.13,0-.26.02-.13.02-.27.02-.45.02s-.37-.03-.57-.03h0Zm-2.48-1.14h1.65c.2,0,.35,0,.45,0,.06,0,.13-.02.18-.06v-.08c0-.1-.02-.2-.05-.29-.14-.44-.56-.74-1.02-.72-.43-.02-.84.2-1.04.6-.09.18-.15.37-.17.56Z"/></g></g></g></g></svg>