<?xml version="1.0" encoding="UTF-8"?><svg id="Capa_1" xmlns="http://www.w3.org/2000/svg" xmlns:xlink="http://www.w3.org/1999/xlink" viewBox="0 0 20 20"><defs><style>.cls-1{fill:#361514;}.cls-1,.cls-2,.cls-3,.cls-4,.cls-5,.cls-6,.cls-7,.cls-8,.cls-9,.cls-10{stroke-width:0px;}.cls-2{fill:url(#Degradado_sin_nombre_3);}.cls-2,.cls-3,.cls-4,.cls-6,.cls-7,.cls-9,.cls-10{fill-rule:evenodd;}.cls-3{fill:url(#Degradado_sin_nombre_8);}.cls-4{fill:url(#Degradado_sin_nombre_5);}.cls-5{fill:#541614;}.cls-6{fill:url(#Degradado_sin_nombre_6);}.cls-7{fill:url(#Degradado_sin_nombre_9);}.cls-8{fill:#201012;}.cls-9{fill:url(#Degradado_sin_nombre_4);}.cls-10{fill:url(#Degradado_sin_nombre_7);}</style><linearGradient id="Degradado_sin_nombre_9" x1="-2086.05" y1="-72.47" x2="-2085.82" y2="-72.47" gradientTransform="translate(14911.33 -33034) rotate(-63.75) scale(17.37 -17.37)" gradientUnits="userSpaceOnUse"><stop offset="0" stop-color="#9b1e22"/><stop offset=".6" stop-color="#cb2e29"/><stop offset="1" stop-color="#cb2e29"/></linearGradient><linearGradient id="Degradado_sin_nombre_8" x1="-1924.52" y1="217.46" x2="-1924.31" y2="217.46" gradientTransform="translate(-2748.7 24496.27) rotate(90) scale(12.72 -12.72)" gradientUnits="userSpaceOnUse"><stop offset="0" stop-color="#a62024"/><stop offset="1" stop-color="#a62025"/></linearGradient><linearGradient id="Degradado_sin_nombre_3" x1="-1939.39" y1="203.33" x2="-1939.16" y2="203.33" gradientTransform="translate(-2924.25 27944.61) rotate(90) scale(14.4 -14.4)" gradientUnits="userSpaceOnUse"><stop offset="0" stop-color="#b32827"/><stop offset="1" stop-color="#8c181d"/></linearGradient><linearGradient id="Degradado_sin_nombre_4" x1="-2092.93" y1="19.1" x2="-2092.7" y2="19.1" gradientTransform="translate(772.68 -83705.79) rotate(-90) scale(40 -40)" gradientUnits="userSpaceOnUse"><stop offset="0" stop-color="#7e171c"/><stop offset=".8" stop-color="#be2a28"/><stop offset="1" stop-color="#ac2125"/></linearGradient><linearGradient id="Degradado_sin_nombre_5" x1="-144.43" y1="-1574.55" x2="-131.4" y2="-1574.55" gradientTransform="translate(151.08 -1608.88) scale(1.03 -1.03)" gradientUnits="userSpaceOnUse"><stop offset="0" stop-color="#4b1715"/><stop offset="1" stop-color="#401414"/></linearGradient><linearGradient id="Degradado_sin_nombre_6" x1="-2020.85" y1="103.38" x2="-2020.62" y2="103.38" gradientTransform="translate(-5572.84 109126) rotate(90) scale(54 -54)" gradientUnits="userSpaceOnUse"><stop offset="0" stop-color="#de482f"/><stop offset="1" stop-color="#c93029"/></linearGradient><linearGradient id="Degradado_sin_nombre_7" x1="-2109.01" y1="-.62" x2="-2108.78" y2="-.62" gradientTransform="translate(-8.19 -59836.64) rotate(-90) scale(28.38 -28.38)" gradientUnits="userSpaceOnUse"><stop offset="0" stop-color="#771617"/><stop offset="1" stop-color="#8c181d"/></linearGradient></defs><g id="Capa_1-2"><path class="cls-8" d="M2.5,14.1h0l.1-.1.3,2.8h-.2l-.2-2.7Z"/><path class="cls-1" d="M14.9,9.2h-.1l1,7.6h.4l-1.3-7.6h0Z"/><path class="cls-7" d="M12.9,16.8l.6,3.2,2.9-.3,2.5-2.9s-6,0-6,0Z"/><path class="cls-3" d="M18.9,16.8h-2.9l.4,2.9s2.5-2.9,2.5-2.9Z"/><path class="cls-2" d="M1.1,16.7l1.9,2.9,2.4.4.8-3.2h-3.4l-1.7-.1Z"/><path class="cls-5" d="M2.8,16.8h-1.7l1.9,2.9-.2-2.9h0Z"/><path class="cls-8" d="M2.8,16.8l-.2-2.8-1.4,2.7,1.6.1h0Z"/><path class="cls-9" d="M14.8,9.1L10,0,2.6,14l12.2-4.9h0Z"/><path class="cls-4" d="M2.6,14l12.3-4.9,1.1,7.6H2.8l-.2-2.7h0Z"/><path class="cls-1" d="M14.8,9.1l1.1,7.6h2.9l-4-7.6Z"/><path class="cls-6" d="M7.1,12.2l4.7-1.9L10,0l-2.9,12.2Z"/><path class="cls-10" d="M11.8,10.4l1,6.4h-6.6l1-4.6c-.1,0,4.6-1.8,4.6-1.8Z"/></g></svg>