<?xml version="1.0" encoding="UTF-8"?><svg id="Capa_2" xmlns="http://www.w3.org/2000/svg" xmlns:xlink="http://www.w3.org/1999/xlink" viewBox="0 0 16.28 18.34"><defs><style>.cls-1{fill:url(#Degradado_sin_nombre_6);}.cls-1,.cls-2,.cls-3,.cls-4,.cls-5,.cls-6,.cls-7{fill-rule:evenodd;}.cls-2{fill:url(#Degradado_sin_nombre_10);}.cls-3{fill:url(#Degradado_sin_nombre_7);}.cls-4{fill:url(#Degradado_sin_nombre_11);}.cls-8{fill:#541614;}.cls-9{fill:#201012;}.cls-10{fill:#361514;}.cls-5{fill:url(#Degradado_sin_nombre_8);}.cls-6{fill:url(#Degradado_sin_nombre_9);}.cls-7{fill:url(#Degradado_sin_nombre_5);}</style><linearGradient id="Degradado_sin_nombre_11" x1="-177.49" y1="133.48" x2="-177.28" y2="133.48" gradientTransform="translate(3454.92 -1720.7) rotate(-63.75) scale(17.37 -17.37)" gradientUnits="userSpaceOnUse"><stop offset="0" stop-color="#9b1e22"/><stop offset=".6" stop-color="#cb2e29"/><stop offset="1" stop-color="#cb2e29"/></linearGradient><linearGradient id="Degradado_sin_nombre_10" x1="-115.89" y1="146.92" x2="-115.69" y2="146.92" gradientTransform="translate(-1853.28 1489.1) rotate(90) scale(12.72 -12.72)" gradientUnits="userSpaceOnUse"><stop offset="0" stop-color="#a62024"/><stop offset="1" stop-color="#a62025"/></linearGradient><linearGradient id="Degradado_sin_nombre_9" x1="-120.32" y1="150.2" x2="-120.11" y2="150.2" gradientTransform="translate(-2161.26 1748.56) rotate(90) scale(14.4 -14.4)" gradientUnits="userSpaceOnUse"><stop offset="0" stop-color="#b32827"/><stop offset="1" stop-color="#8c181d"/></linearGradient><linearGradient id="Degradado_sin_nombre_8" x1="-166.34" y1="145.44" x2="-166.13" y2="145.44" gradientTransform="translate(5824.02 -6643.02) rotate(-90) scale(40 -40)" gradientUnits="userSpaceOnUse"><stop offset="0" stop-color="#7e171c"/><stop offset=".8" stop-color="#be2a28"/><stop offset="1" stop-color="#ac2125"/></linearGradient><linearGradient id="Degradado_sin_nombre_5" x1="-90.33" y1="-391.6" x2="-78.38" y2="-391.6" gradientTransform="translate(94.14 -390.52) scale(1.03 -1.03)" gradientUnits="userSpaceOnUse"><stop offset="0" stop-color="#4b1715"/><stop offset="1" stop-color="#401414"/></linearGradient><linearGradient id="Degradado_sin_nombre_6" x1="-143.77" y1="147.02" x2="-143.56" y2="147.02" gradientTransform="translate(-7931.52 7763.61) rotate(90) scale(54 -54)" gradientUnits="userSpaceOnUse"><stop offset="0" stop-color="#de482f"/><stop offset="1" stop-color="#c93029"/></linearGradient><linearGradient id="Degradado_sin_nombre_7" x1="-170.75" y1="145.16" x2="-170.54" y2="145.16" gradientTransform="translate(4127.15 -4830.26) rotate(-90) scale(28.38 -28.38)" gradientUnits="userSpaceOnUse"><stop offset="0" stop-color="#771617"/><stop offset="1" stop-color="#8c181d"/></linearGradient></defs><g id="Capa_1-2"><path class="cls-9" d="m1.27,12.95l.04-.08.06-.03.26,2.55h-.18s-.18-2.44-.18-2.44Z"/><path class="cls-10" d="m12.62,8.46l-.04-.07-.09.04.9,6.97h.37l-1.14-6.93Z"/><path class="cls-4" d="m10.77,15.4l.53,2.94,2.67-.3,2.31-2.64h-5.51Z"/><path class="cls-2" d="m16.28,15.4h-2.68l.37,2.64,2.31-2.64Z"/><path class="cls-6" d="m0,15.35l1.76,2.65,2.16.34.72-2.94H1.55S0,15.35,0,15.35Z"/><path class="cls-8" d="m1.55,15.39L0,15.35l1.77,2.68-.22-2.63Z"/><path class="cls-9" d="m1.55,15.39l-.24-2.52-1.31,2.47,1.55.04Z"/><path class="cls-5" d="m12.58,8.39L8.12,0,1.31,12.87l11.28-4.48Z"/><path class="cls-7" d="m1.31,12.87l11.28-4.48,1.01,7.01H1.55s-.24-2.52-.24-2.52Z"/><path class="cls-10" d="m12.58,8.39l1.01,7.01h2.68l-3.69-7.01Z"/><path class="cls-1" d="m5.51,11.21l4.3-1.7L8.12,0l-2.61,11.21Z"/><path class="cls-3" d="m9.81,9.51l.96,5.89h-6.14s.88-4.19.88-4.19l4.3-1.7Z"/></g></svg>