<?xml version="1.0" encoding="UTF-8"?><svg id="Capa_1" xmlns="http://www.w3.org/2000/svg" viewBox="0 0 21 21"><defs><style>.cls-1{fill:none;}.cls-1,.cls-2{stroke-width:0px;}.cls-2{fill:#fff;}</style></defs><path class="cls-2" d="M8.56,9.85c1.1-.53,1.68-1.33,1.68-2.57,0-2.45-1.83-3.05-3.93-3.05H.5v12.31h5.97c2.24,0,4.34-1.07,4.34-3.57,0-1.55-.73-2.69-2.25-3.11ZM3.2,6.33h2.54c.98,0,1.85.27,1.85,1.41,0,1.05-.68,1.47-1.65,1.47h-2.74s0-2.87,0-2.87ZM6.1,14.45h-2.89v-3.39h2.95c1.19,0,1.94.5,1.94,1.76s-.9,1.63-2,1.63ZM18.55,6.09h-4.99v-1.21h4.99s0,1.21,0,1.21ZM20.5,12.21c0-2.64-1.54-4.83-4.34-4.83s-4.56,2.04-4.56,4.72,1.75,4.68,4.56,4.68c2.13,0,3.51-.96,4.17-3h-2.16c-.23.76-1.19,1.16-1.93,1.16-1.43,0-2.19-.84-2.19-2.27h6.43c.01-.15.02-.3.02-.46ZM14.06,11.13c.08-1.17.86-1.9,2.03-1.9s1.85.72,1.95,1.9h-3.98Z"/><rect class="cls-1" x=".5" y=".5" width="20" height="20"/></svg>