<?xml version="1.0" encoding="UTF-8"?><svg id="Capa_2" xmlns="http://www.w3.org/2000/svg" viewBox="0 0 22.58 18.34"><defs><style>.cls-1{fill:#fff;}.cls-2{fill:#eb7704;}.cls-3{fill:#275888;}</style></defs><g id="Capa_1-2"><path class="cls-1" d="m8.45,10.42c.08-1.46.8-2.76,1.88-3.67,1.06-.9,2.49-1.45,4.05-1.45s2.98.55,4.04,1.45c1.08.91,1.8,2.21,1.88,3.67.08,1.5-.52,2.91-1.58,3.94-1.08,1.05-2.62,1.72-4.35,1.72s-3.27-.66-4.35-1.72c-1.06-1.04-1.67-2.43-1.58-3.94h0Z"/><path class="cls-3" d="m11.7,10.24c.04-.75.41-1.42.97-1.89.55-.46,1.28-.74,2.08-.74s1.53.28,2.08.74c.56.47.92,1.13.97,1.89.04.77-.27,1.49-.81,2.03-.56.54-1.35.88-2.23.88s-1.68-.34-2.23-.88c-.55-.53-.86-1.25-.81-2.02h0Z"/><path class="cls-2" d="m6.92,11.83c0,.29.1.87.24,1.31.3.95.8,1.82,1.5,2.59.72.79,1.6,1.43,2.62,1.88,1.07.47,2.23.72,3.44.72,1.21,0,2.37-.25,3.44-.73,1.02-.46,1.9-1.1,2.62-1.89.7-.78,1.2-1.65,1.5-2.6.15-.48.24-.96.28-1.45.04-.48.02-.96-.05-1.44-.13-.94-.46-1.82-.96-2.61-.45-.74-1.04-1.38-1.74-1.92h0S12.77.28,12.77.28c0,0-.01,0-.02-.01-.46-.36-1.24-.35-1.75,0-.51.36-.57.96-.12,1.33h0s2.94,2.4,2.94,2.4H4.87s-.01,0-.01,0c-.74,0-1.45.49-1.59,1.1-.14.63.36,1.15,1.13,1.15h0s4.54,0,4.54,0L.81,12.46s-.02.02-.03.02C.01,13.07-.23,14.04.25,14.66c.49.63,1.53.63,2.3,0l4.42-3.62s-.06.49-.06.78v.02Zm11.39,1.64c-.91.93-2.19,1.46-3.57,1.46-1.38,0-2.66-.52-3.57-1.45-.45-.45-.77-.97-.98-1.53-.2-.55-.27-1.12-.22-1.7.05-.57.22-1.11.49-1.6.27-.48.63-.92,1.08-1.29.89-.72,2.01-1.11,3.19-1.11,1.18,0,2.31.39,3.2,1.11.45.37.82.8,1.08,1.29.27.49.44,1.03.49,1.6.05.58-.03,1.16-.22,1.7-.2.56-.53,1.08-.98,1.53h0Z"/></g></svg>