<?xml version="1.0" encoding="UTF-8"?><svg id="Capa_1" xmlns="http://www.w3.org/2000/svg" viewBox="0 0 20 20"><defs><style>.cls-1{fill:#fff;}.cls-1,.cls-2,.cls-3{stroke-width:0px;}.cls-2{fill:#275888;}.cls-3{fill:#eb7704;}</style></defs><g id="Capa_1-2"><path class="cls-1" d="M7.65,11.01c.1-1.3.7-2.4,1.7-3.3.9-.8,2.2-1.3,3.6-1.3s2.6.5,3.6,1.3,1.6,2,1.7,3.3-.5,2.6-1.4,3.5c-1,.9-2.3,1.5-3.9,1.5s-2.9-.6-3.9-1.5c-1-.9-1.5-2.2-1.4-3.5h0Z"/><path class="cls-2" d="M10.55,10.91c0-.7.4-1.3.9-1.7s1.1-.7,1.8-.7,1.4.2,1.8.7c.5.4.8,1,.9,1.7,0,.7-.2,1.3-.7,1.8s-1.2.8-2,.8-1.5-.3-2-.8c-.5-.5-.8-1.2-.7-1.8h0Z"/><path class="cls-3" d="M6.25,12.31c0,.3.1.8.2,1.2.3.8.7,1.6,1.3,2.3.6.7,1.4,1.3,2.3,1.7.9.4,2,.6,3,.6s2.1-.2,3-.6,1.7-1,2.3-1.7c.6-.7,1.1-1.5,1.3-2.3.1-.4.2-.9.2-1.3v-1.3c-.1-.8-.4-1.6-.9-2.3-.4-.7-.9-1.2-1.5-1.7h0l-6.2-4.8h0c-.4-.3-1.1-.3-1.5,0-.3.2-.4.8,0,1.1h0l2.6,2.1h-7.9c-.7,0-1.3.4-1.4,1-.1.6.3,1,1,1h4L.85,12.81h0c-.7.5-.9,1.4-.5,1.9.4.6,1.4.6,2,0l3.9-3.2c.1.1,0,.5,0,.8h0ZM16.35,13.71c-.8.8-1.9,1.3-3.2,1.3s-2.4-.5-3.2-1.3c-.3-.4-.6-.8-.8-1.3s-.2-1-.2-1.5.2-1,.4-1.4.6-.8,1-1.1c.8-.6,1.8-1,2.8-1s2,.3,2.8,1c.4.3.7.7,1,1.1.2.4.4.9.4,1.4s0,1-.2,1.5c-.1.5-.4.9-.8,1.3h0Z"/></g></svg>