<?xml version="1.0" encoding="UTF-8"?><svg id="Capa_1" xmlns="http://www.w3.org/2000/svg" viewBox="0 0 20 20"><defs><style>.cls-1{fill:#fff;}.cls-1,.cls-2,.cls-3,.cls-4{stroke-width:0px;}.cls-2{fill:#3c61ab;}.cls-3{fill:#3655a2;}.cls-4{fill:#ebebeb;}</style></defs><g id="Capa_1-2"><path class="cls-3" d="M2.8,18L1.2,0h17.6l-1.6,18-7.2,2-7.2-2h0Z"/><path class="cls-2" d="M15.8,16.8l1.4-15.4h-7.2v17l5.8-1.6h0Z"/><path class="cls-4" d="M4.9,8.1l.2,2.2h4.9v-2.2h-5.1ZM4.7,5.9h5.3v-2.2h-5.5l.2,2.2ZM10,13.9h0l-2.5-.7-.2-1.8h-2.1l.3,3.5,4.5,1.3h0v-2.3h0Z"/><path class="cls-1" d="M10,8.1v2.2h2.7l-.3,2.9-2.4.7v2.3l4.5-1.3v-.4l.5-5.8.1-.6.4-4.5h-5.5v2.2h3.1l-.2,2.3h-2.9Z"/></g></svg>