<?xml version="1.0" encoding="UTF-8"?><svg id="Capa_2" xmlns="http://www.w3.org/2000/svg" viewBox="0 0 16.17 18.34"><defs><style>.cls-1{fill:#fff;}.cls-2{fill:#3c61ab;}.cls-3{fill:#3655a2;}.cls-4{fill:#ebebeb;}</style></defs><g id="Capa_1-2"><path class="cls-3" d="m1.47,16.51L0,0h16.17l-1.47,16.5-6.62,1.84-6.6-1.83Z"/><path class="cls-2" d="m13.44,15.45l1.26-14.1h-6.61v15.59l5.35-1.48Z"/><path class="cls-4" d="m3.37,7.47l.18,2.02h4.53v-2.02H3.37Zm-.18-2.07h4.89v-2.02H3.01l.18,2.02Zm4.89,7.33h0s-2.25-.61-2.25-.61l-.14-1.61h-2.03l.28,3.18,4.15,1.15h0s0-2.11,0-2.11Z"/><path class="cls-1" d="m8.08,7.47v2.02h2.49l-.23,2.63-2.26.61v2.11l4.15-1.15.03-.34.48-5.33.05-.54.37-4.1h-5.07v2.02h2.85l-.18,2.07h-2.67Z"/></g></svg>