<svg width="135" height="125" viewBox="0 0 135 125" fill="none" xmlns="http://www.w3.org/2000/svg">
<path d="M121.5 46.0813V90.625C121.5 94.769 119.722 98.7433 116.557 101.674C113.393 104.604 109.101 106.25 104.625 106.25H30.375C25.8995 106.25 21.6072 104.604 18.4426 101.674C15.2779 98.7433 13.5 94.769 13.5 90.625V46.0813L65.7855 74.5687C66.3049 74.8524 66.897 75.002 67.5 75.002C68.103 75.002 68.6951 74.8524 69.2145 74.5687L121.5 46.0813ZM104.625 25C108.777 24.9994 112.784 26.4163 115.879 28.9796C118.973 31.543 120.939 35.0728 121.399 38.8938L67.5 68.25L13.6013 38.8938C14.0613 35.0728 16.0267 31.543 19.1214 28.9796C22.216 26.4163 26.2228 24.9994 30.375 25H104.625Z" fill="#EADEC4"/>
</svg>
