<?xml version="1.0" encoding="UTF-8"?><svg id="Capa_2" xmlns="http://www.w3.org/2000/svg" viewBox="0 0 12.23 18.34"><defs><style>.cls-1{fill:#e95025;}.cls-2{fill:#4cb37d;}.cls-3{fill:#765fa6;}.cls-4{fill:#ee7265;}.cls-5{fill:#46b7ea;}</style></defs><g id="Capa_1-2"><path id="path0_fill" class="cls-2" d="m3.06,18.34c1.69,0,3.06-1.37,3.06-3.06v-3.06h-3.06c-1.69,0-3.06,1.37-3.06,3.06s1.37,3.06,3.06,3.06Z"/><path id="path1_fill" class="cls-3" d="m0,9.17c0-1.69,1.37-3.06,3.06-3.06h3.06v6.11h-3.06c-1.69,0-3.06-1.37-3.06-3.06Z"/><path id="path1_fill-2" class="cls-1" d="m0,3.06C0,1.37,1.37,0,3.06,0h3.06v6.11h-3.06c-1.69,0-3.06-1.37-3.06-3.06Z"/><path id="path2_fill" class="cls-4" d="m6.11,0h3.06c1.69,0,3.06,1.37,3.06,3.06s-1.37,3.06-3.06,3.06h-3.06V0Z"/><path id="path3_fill" class="cls-5" d="m12.23,9.17c0,1.69-1.37,3.06-3.06,3.06s-3.06-1.37-3.06-3.06,1.37-3.06,3.06-3.06,3.06,1.37,3.06,3.06Z"/></g></svg>