<?xml version="1.0" encoding="UTF-8"?><svg id="Capa_2" xmlns="http://www.w3.org/2000/svg" viewBox="0 0 18.34 18.34"><defs><style>.cls-1{fill:#ea5235;}</style></defs><g id="Capa_1-2"><path class="cls-1" d="m17.99,8.35L9.99.35c-.46-.46-1.21-.46-1.67,0l-1.66,1.66,2.11,2.11c.49-.17,1.05-.05,1.44.34.39.39.5.96.33,1.45l2.03,2.03c.49-.17,1.06-.06,1.45.33.55.55.55,1.44,0,1.99-.55.55-1.44.55-1.99,0-.41-.41-.51-1.02-.31-1.53l-1.9-1.9v4.99c.13.07.26.15.37.27.55.55.55,1.44,0,1.99-.55.55-1.44.55-1.99,0-.55-.55-.55-1.44,0-1.99.14-.14.29-.24.46-.31v-5.04c-.17-.07-.32-.17-.46-.31-.42-.42-.52-1.03-.3-1.54l-2.08-2.08L.35,8.32c-.46.46-.46,1.21,0,1.67l8.01,8.01c.46.46,1.21.46,1.67,0l7.97-7.97c.46-.46.46-1.21,0-1.67"/></g></svg>