<?xml version="1.0" encoding="UTF-8"?><svg id="Capa_1" xmlns="http://www.w3.org/2000/svg" viewBox="0 0 20 20"><defs><style>.cls-1{fill:#ea5235;stroke-width:0px;}</style></defs><g id="Capa_1-2"><path class="cls-1" d="M19.6,9.15L10.9.45c-.5-.5-1.3-.5-1.8,0l-1.8,1.7,2.3,2.3c.5-.2,1.2-.1,1.5.3.4.4.5,1.1.3,1.5l2.2,2.2c.5-.2,1.2-.1,1.5.3.7.7.7,1.5,0,2.2s-1.5.7-2.2,0c-.4-.4-.5-1.1-.3-1.6l-2-2v5.4c.1.1.3.1.4.3.7.7.7,1.5,0,2.2s-1.4.7-2,.1c-.7-.7-.7-1.5,0-2.2.1-.1.3-.2.5-.3v-5.5c-.2-.1-.4-.2-.5-.4-.5-.5-.6-1.1-.4-1.6l-2.2-2.3L.4,9.05c-.5.5-.5,1.3,0,1.8l8.7,8.7c.5.5,1.3.5,1.8,0l8.7-8.7c.5-.4.5-1.3,0-1.7"/></g></svg>