<?xml version="1.0" encoding="UTF-8"?><svg id="Capa_1" xmlns="http://www.w3.org/2000/svg" viewBox="0 0 21 21"><defs><style>.cls-1{fill:#fff;stroke-width:0px;}</style></defs><path class="cls-1" d="M7.17,16.51c0,.14-.13.14-.26.14s-.26,0-.26-.14.13-.14.26-.14.26,0,.26.14ZM5.88,16.36q0,.14.13.14c.13,0,.26,0,.26-.14s0-.14-.13-.28c-.13.14-.26.14-.26.28ZM7.68,16.22c-.13,0-.26.14-.13.14,0,.14.13.14.26.14s.26-.14.13-.14c0-.14-.13-.14-.26-.14ZM10.37.5C4.73.5.5,4.75.5,10.56c0,4.53,2.82,8.5,6.79,9.92.51.14.64-.28.64-.57v-2.55s-2.82.57-3.33-1.27c0,0-.51-1.13-1.15-1.56,0,0-.9-.71,0-.57,0,0,1.03.14,1.54,1.13.9,1.56,2.31,1.13,2.95.85.13-.71.38-1.13.64-1.42-2.18-.28-4.49-.57-4.49-4.53,0-1.13.26-1.7.9-2.41,0-.28-.38-1.42.26-2.83.9-.28,2.82,1.13,2.82,1.13.77-.28,1.67-.28,2.56-.28s1.67.14,2.56.28c0,0,1.92-1.42,2.82-1.13.51,1.42.26,2.55.13,2.83.64.71,1.03,1.27,1.03,2.41,0,3.97-2.31,4.25-4.62,4.53.38.28.64.99.64,1.98v3.4c0,.28.13.57.64.57,3.97-1.42,6.67-5.24,6.67-9.92-.13-5.81-4.62-10.06-10.13-10.06ZM4.35,14.66v.28s.13.14.26,0v-.28h-.26ZM3.96,14.38s0,.14.13.14h.13s0-.14-.13-.14c0-.14-.13-.14-.13,0ZM5.24,15.8v.28c.13.14.26.14.26,0v-.28h-.26ZM4.86,15.23v.28c0,.14.13.14.26.14v-.28c-.13-.14-.26-.28-.26-.14Z"/></svg>