<?xml version="1.0" encoding="utf-8"?>
<!-- Generator: Adobe Illustrator 28.1.0, SVG Export Plug-In . SVG Version: 6.00 Build 0)  -->
<svg version="1.1" id="Capa_1" xmlns="http://www.w3.org/2000/svg" xmlns:xlink="http://www.w3.org/1999/xlink" x="0px" y="0px"
	 viewBox="0 0 15.5 16" style="enable-background:new 0 0 15.5 16;" xml:space="preserve">
<style type="text/css">
	.st0{fill:#FFFFFF;}
</style>
<path class="st0" d="M5.2,12.3c0,0.1-0.1,0.1-0.2,0.1c-0.1,0-0.2,0-0.2-0.1c0-0.1,0.1-0.1,0.2-0.1C5.1,12.2,5.2,12.2,5.2,12.3z
	 M4.2,12.2c0,0.1,0,0.1,0.1,0.1c0.1,0,0.2,0,0.2-0.1s0-0.1-0.1-0.2C4.3,12.1,4.2,12.1,4.2,12.2z M5.6,12.1c-0.1,0-0.2,0.1-0.1,0.1
	c0,0.1,0.1,0.1,0.2,0.1c0.1,0,0.2-0.1,0.1-0.1C5.8,12.1,5.7,12.1,5.6,12.1z M7.7,1C3.3,1,0,4,0,8.1c0,3.2,2.2,6,5.3,7
	c0.4,0.1,0.5-0.2,0.5-0.4c0-0.2,0-1.2,0-1.8c0,0-2.2,0.4-2.6-0.9c0,0-0.4-0.8-0.9-1.1c0,0-0.7-0.5,0-0.4c0,0,0.8,0.1,1.2,0.8
	c0.7,1.1,1.8,0.8,2.3,0.6c0.1-0.5,0.3-0.8,0.5-1c-1.7-0.2-3.5-0.4-3.5-3.2c0-0.8,0.2-1.2,0.7-1.7C3.5,5.8,3.2,5,3.7,4
	c0.7-0.2,2.2,0.8,2.2,0.8c0.6-0.2,1.3-0.2,2-0.2s1.3,0.1,2,0.2c0,0,1.5-1,2.2-0.8c0.4,1,0.2,1.8,0.1,2c0.5,0.5,0.8,0.9,0.8,1.7
	c0,2.8-1.8,3-3.6,3.2c0.3,0.2,0.5,0.7,0.5,1.4c0,1,0,2.2,0,2.4c0,0.2,0.1,0.4,0.5,0.4c3.1-1,5.2-3.7,5.2-7C15.5,4,12,1,7.7,1z M3,11
	c0,0,0,0.1,0,0.2c0,0,0.1,0.1,0.2,0c0,0,0-0.1,0-0.2C3.1,11,3.1,11,3,11z M2.7,10.8c0,0,0,0.1,0.1,0.1c0,0,0.1,0,0.1,0
	c0,0,0-0.1-0.1-0.1C2.8,10.7,2.7,10.7,2.7,10.8z M3.7,11.8c0,0,0,0.1,0,0.2c0.1,0.1,0.2,0.1,0.2,0c0,0,0-0.1,0-0.2
	C3.8,11.8,3.8,11.8,3.7,11.8z M3.4,11.4c0,0,0,0.1,0,0.2s0.1,0.1,0.2,0.1c0,0,0-0.1,0-0.2C3.5,11.4,3.4,11.3,3.4,11.4z"/>
</svg>
