<?xml version="1.0" encoding="UTF-8"?><svg id="Capa_1" xmlns="http://www.w3.org/2000/svg" viewBox="0 0 20 20"><defs><style>.cls-1{fill:#eadec4;fill-rule:evenodd;stroke-width:0px;}</style></defs><path id="e-2" class="cls-1" d="M-.02,10.2C-.02,14.62,2.87,18.5,6.83,19.68c.43.11.64-.22.64-.43v-1.83c-2.46.43-3.21-.54-3.32-1.18-.11-.32-.54-1.18-1.07-1.4-.32-.22-.75-.65,0-.65s1.39.65,1.5,1.08c.96,1.51,2.25,1.08,2.89.75.11-.65.32-1.08.64-1.4-2.14-.22-4.6-1.18-4.6-4.95,0-1.08.32-1.94,1.07-2.8,0-.11-.32-1.08.21-2.48,0,0,.75-.22,2.78,1.08.75-.22,1.61-.32,2.46-.32s1.71.11,2.46.32c1.93-1.29,2.78-1.08,2.78-1.08.54,1.4.21,2.37.11,2.58.54.65,1.07,1.62,1.07,2.8,0,3.88-2.25,4.74-4.6,4.95.32.32.64.97.64,1.83v2.8c0,.22.21.54.64.43,3.96-1.4,6.85-5.06,6.85-9.48C20,4.82,15.61.19,9.94.19S-.02,4.71-.02,10.2Z"/></svg>