<?xml version="1.0" encoding="UTF-8"?><svg id="Capa_2" xmlns="http://www.w3.org/2000/svg" xmlns:xlink="http://www.w3.org/1999/xlink" viewBox="0 0 18.86 18.86"><defs><style>.cls-1{fill:url(#Degradado_sin_nombre_3);}.cls-1,.cls-2{fill-rule:evenodd;}.cls-2,.cls-3{fill:#010101;}.cls-4{fill:rgba(255,255,255,0);stroke:rgba(186,186,186,.5);stroke-width:2px;}.cls-5{fill:none;}.cls-6{fill:url(#Degradado_sin_nombre_4);}</style><linearGradient id="Degradado_sin_nombre_4" x1="-153.27" y1="288.64" x2="-153.27" y2="288.49" gradientTransform="translate(17175.47 32329.06) scale(112 -112)" gradientUnits="userSpaceOnUse"><stop offset="0" stop-color="#fff"/><stop offset="1" stop-color="#e0e0e0"/></linearGradient><linearGradient id="Degradado_sin_nombre_3" x1="-153.2" y1="288.03" x2="-153.2" y2="288.18" gradientTransform="translate(15942.17 29251.06) scale(104 -101.5)" gradientUnits="userSpaceOnUse"><stop offset="0" stop-color="#492779"/><stop offset="1" stop-color="#833189"/></linearGradient></defs><g id="Capa_1-2"><path class="cls-5" d="m0,0h18.86v18.86H0V0Z"/><circle id="b" class="cls-3" cx="9.43" cy="9.43" r="8.25"/><circle id="b-2" class="cls-4" cx="9.43" cy="9.43" r="8.25"/><circle class="cls-6" cx="9.43" cy="9.43" r="8.25"/><path id="e" class="cls-2" d="m1.77,9.43c0,3.39,2.19,6.26,5.24,7.27.38.07.53-.16.53-.36,0-.18,0-.79,0-1.43-1.92.35-2.42-.47-2.58-.9-.09-.22-.46-.9-.79-1.08-.27-.14-.65-.5,0-.51.6,0,1.03.56,1.18.79.69,1.16,1.79.83,2.23.63.07-.5.27-.83.49-1.03-1.7-.19-3.49-.85-3.49-3.78,0-.83.3-1.52.79-2.06-.08-.19-.34-.98.08-2.03,0,0,.64-.2,2.11.79.61-.17,1.26-.26,1.92-.26s1.3.09,1.92.26c1.47-1,2.11-.79,2.11-.79.42,1.05.15,1.84.08,2.03.49.54.79,1.22.79,2.06,0,2.94-1.79,3.59-3.5,3.78.28.24.52.7.52,1.42,0,1.03,0,1.85,0,2.11,0,.2.14.44.53.36,3.03-1.02,5.22-3.89,5.22-7.27,0-4.24-3.43-7.67-7.66-7.67S1.77,5.2,1.77,9.43Z"/><path id="e-2" class="cls-1" d="m1.77,9.43c0,3.39,2.19,6.26,5.24,7.27.38.07.53-.16.53-.36,0-.18,0-.79,0-1.43-1.92.35-2.42-.47-2.58-.9-.09-.22-.46-.9-.79-1.08-.27-.14-.65-.5,0-.51.6,0,1.03.56,1.18.79.69,1.16,1.79.83,2.23.63.07-.5.27-.83.49-1.03-1.7-.19-3.49-.85-3.49-3.78,0-.83.3-1.52.79-2.06-.08-.19-.34-.98.08-2.03,0,0,.64-.2,2.11.79.61-.17,1.26-.26,1.92-.26s1.3.09,1.92.26c1.47-1,2.11-.79,2.11-.79.42,1.05.15,1.84.08,2.03.49.54.79,1.22.79,2.06,0,2.94-1.79,3.59-3.5,3.78.28.24.52.7.52,1.42,0,1.03,0,1.85,0,2.11,0,.2.14.44.53.36,3.03-1.02,5.22-3.89,5.22-7.27,0-4.24-3.43-7.67-7.66-7.67S1.77,5.2,1.77,9.43Z"/><path id="e-3" class="cls-2" d="m1.77,9.43c0,3.39,2.19,6.26,5.24,7.27.38.07.53-.16.53-.36,0-.18,0-.79,0-1.43-1.92.35-2.42-.47-2.58-.9-.09-.22-.46-.9-.79-1.08-.27-.14-.65-.5,0-.51.6,0,1.03.56,1.18.79.69,1.16,1.79.83,2.23.63.07-.5.27-.83.49-1.03-1.7-.19-3.49-.85-3.49-3.78,0-.83.3-1.52.79-2.06-.08-.19-.34-.98.08-2.03,0,0,.64-.2,2.11.79.61-.17,1.26-.26,1.92-.26s1.3.09,1.92.26c1.47-1,2.11-.79,2.11-.79.42,1.05.15,1.84.08,2.03.49.54.79,1.22.79,2.06,0,2.94-1.79,3.59-3.5,3.78.28.24.52.7.52,1.42,0,1.03,0,1.85,0,2.11,0,.2.14.44.53.36,3.03-1.02,5.22-3.89,5.22-7.27,0-4.24-3.43-7.67-7.66-7.67S1.77,5.2,1.77,9.43Z"/></g></svg>