<?xml version="1.0" encoding="UTF-8"?><svg id="Capa_1" xmlns="http://www.w3.org/2000/svg" xmlns:xlink="http://www.w3.org/1999/xlink" viewBox="0 0 20 20"><defs><style>.cls-1{fill:url(#Degradado_sin_nombre_10);fill-rule:evenodd;}.cls-1,.cls-2{stroke-width:0px;}.cls-2{fill:url(#Degradado_sin_nombre_11);}</style><linearGradient id="Degradado_sin_nombre_11" x1="-3944.56" y1="190.59" x2="-3944.56" y2="190.41" gradientTransform="translate(441800.44 21346.21) scale(112 -112)" gradientUnits="userSpaceOnUse"><stop offset="0" stop-color="#fff"/><stop offset="1" stop-color="#e0e0e0"/></linearGradient><linearGradient id="Degradado_sin_nombre_10" x1="-3941.86" y1="187.92" x2="-3941.86" y2="188.1" gradientTransform="translate(409963.5 19091.94) scale(104 -101.5)" gradientUnits="userSpaceOnUse"><stop offset="0" stop-color="#492779"/><stop offset="1" stop-color="#833189"/></linearGradient></defs><g id="Capa_1-2"><circle class="cls-2" cx="10" cy="10" r="10"/><path id="e-2" class="cls-1" d="M.7,10c0,4.1,2.7,7.7,6.4,8.8.4.1.6-.2.6-.4v-1.7c-2.3.4-3-.5-3.1-1.1-.1-.3-.5-1.1-1-1.3-.3-.2-.7-.6,0-.6s1.3.6,1.4,1c.9,1.4,2.1,1,2.7.7.1-.6.3-1,.6-1.3-2-.2-4.3-1.1-4.3-4.6,0-1,.3-1.8,1-2.6,0-.1-.3-1,.2-2.3,0,0,.7-.2,2.6,1,.7-.2,1.5-.3,2.3-.3s1.6.1,2.3.3c1.8-1.2,2.6-1,2.6-1,.5,1.3.2,2.2.1,2.4.5.6,1,1.5,1,2.6,0,3.6-2.1,4.4-4.3,4.6.3.3.6.9.6,1.7v2.6c0,.2.2.5.6.4,3.7-1.3,6.4-4.7,6.4-8.8C19.4,5,15.3.7,10,.7S.7,4.9.7,10Z"/></g></svg>