<?xml version="1.0" encoding="UTF-8"?><svg id="Capa_1" xmlns="http://www.w3.org/2000/svg" viewBox="0 0 20 20"><defs><style>.cls-1{fill:#f4991c;}.cls-1,.cls-2{stroke-width:0px;}.cls-2{fill:#2d0e0f;}</style></defs><g id="Capa_1-2"><g id="vlpa"><g id="vlpb"><g id="vlpc"><g id="vlpd"><path class="cls-2" d="M3.54,0h12.92c1.96,0,3.54,1.62,3.54,3.63v12.74c0,2.01-1.58,3.63-3.54,3.63H3.54c-1.96,0-3.54-1.62-3.54-3.63V3.63C0,1.62,1.58,0,3.54,0Z"/></g></g></g><g id="vlpe"><g id="vlpf"><path class="cls-1" d="M9.67,11.96h-3.1l-.64,2.01c-.02.08-.09.13-.16.12h-1.56c-.1,0-.12-.05-.1-.15l2.68-7.93c.02-.09.05-.17.09-.28.03-.17.05-.37.05-.56,0-.04.02-.09.06-.1h2.16c.06,0,.1.02.11.07l3.04,8.8c.02.1,0,.14-.09.14h-1.74c-.05,0-.12-.03-.14-.1l-.68-2.04h0l.02.02ZM7.05,10.23h2.12c-.05-.17-.12-.39-.19-.61-.07-.23-.15-.48-.22-.73-.09-.26-.16-.52-.24-.79s-.16-.51-.22-.76c-.06-.24-.13-.46-.18-.67h-.02c-.07.37-.17.73-.29,1.1-.13.41-.26.84-.38,1.26-.12.44-.24.84-.36,1.2h0Z"/><path class="cls-1" d="M14.16,6.58c-.28,0-.54-.1-.74-.29-.19-.22-.29-.49-.29-.79s.1-.57.3-.76.47-.29.74-.29c.33,0,.57.1.75.29.18.21.29.48.28.76,0,.29-.1.58-.29.79-.19.21-.48.32-.75.29h0ZM13.23,13.99v-6.58c0-.09.03-.12.11-.12h1.65c.07,0,.11.04.11.12v6.58c0,.1-.03.14-.11.14h-1.64c-.09,0-.13-.05-.13-.14h.01Z"/></g></g></g></g></svg>