<?xml version="1.0" encoding="UTF-8"?><svg id="Capa_2" xmlns="http://www.w3.org/2000/svg" viewBox="0 0 18.81 18.34"><defs><style>.cls-1{fill:#2d0e0f;}.cls-2{fill:#f4991c;}</style></defs><g id="Capa_1-2"><g id="vlpa"><g id="vlpb"><g id="vlpc"><g id="vlpd"><path class="cls-1" d="m3.33,0h12.15c1.84,0,3.33,1.49,3.33,3.33v11.68c0,1.84-1.49,3.33-3.33,3.33H3.33c-1.84,0-3.33-1.49-3.33-3.33V3.33C0,1.49,1.49,0,3.33,0Z"/></g></g></g><g id="vlpe"><g id="vlpf"><path class="cls-2" d="m9.09,10.97h-2.92l-.6,1.84c-.02.07-.08.12-.15.11h-1.47c-.09,0-.11-.05-.09-.14l2.52-7.27c.02-.08.05-.16.08-.26.03-.16.05-.34.05-.51,0-.04.02-.08.06-.09h2.03c.06,0,.09.02.1.06l2.86,8.07c.02.09,0,.13-.08.13h-1.64c-.05,0-.11-.03-.13-.09l-.64-1.87h0Zm-2.46-1.59h1.99c-.05-.16-.11-.36-.18-.56-.07-.21-.14-.44-.21-.67-.08-.24-.15-.48-.23-.72s-.15-.47-.21-.7c-.06-.22-.12-.42-.17-.61h-.02c-.07.34-.16.67-.27,1.01-.12.38-.24.77-.36,1.16-.11.4-.23.77-.34,1.1Z"/><path class="cls-2" d="m13.32,6.03c-.26,0-.51-.09-.7-.27-.18-.2-.27-.45-.27-.72,0-.27.09-.52.28-.7s.44-.27.7-.27c.31,0,.54.09.71.27.17.19.27.44.26.7,0,.27-.09.53-.27.72-.18.19-.45.29-.71.27h0Zm-.88,6.8v-6.03c0-.08.03-.11.1-.11h1.55c.07,0,.1.04.1.11v6.03c0,.09-.03.13-.1.13h-1.54c-.08,0-.12-.05-.12-.13Z"/></g></g></g></g></svg>