<?xml version="1.0" encoding="UTF-8"?><svg id="Capa_1" xmlns="http://www.w3.org/2000/svg" viewBox="0 0 20 20"><defs><style>.cls-1{fill:#49021f;}.cls-1,.cls-2{stroke-width:0px;}.cls-2{fill:#f36;}</style></defs><path class="cls-1" d="M3.54,0h12.92c1.96,0,3.54,1.62,3.54,3.63v12.74c0,2.01-1.58,3.63-3.54,3.63H3.54c-1.96,0-3.54-1.62-3.54-3.63V3.63C0,1.62,1.58,0,3.54,0Z"/><g id="vlpa"><g id="vlpb"><path class="cls-2" d="M7.16,6v8.58c0,.09-.04.13-.12.13h-1.63c-.08,0-.11-.04-.11-.13V6c0-.08.04-.11.12-.11h1.62s.1.02.11.08c0,0,0,.02,0,.03Z"/><path class="cls-2" d="M11.97,14.82c-.62,0-1.23-.12-1.79-.38-.53-.24-.96-.64-1.26-1.13-.31-.51-.46-1.14-.46-1.9,0-.62.15-1.22.46-1.76.32-.54.78-.99,1.33-1.29.58-.33,1.28-.48,2.11-.48.04,0,.1,0,.18,0s.16,0,.26.02v-2.63c0-.06.03-.09.08-.09h1.69s.07.02.08.06v7.95c0,.15,0,.32.02.5.02.18.03.34.03.48,0,.06-.03.11-.08.13-.43.18-.89.32-1.36.4-.42.07-.85.12-1.28.12h0ZM12.79,13.15v-3.67c-.07-.02-.15-.03-.22-.04-.09,0-.18-.02-.28-.02-.32,0-.65.07-.94.22-.28.14-.53.35-.71.62s-.28.62-.28,1.06c0,.29.04.58.14.86.08.22.21.43.38.59.16.15.35.27.57.33.22.07.46.11.69.11.12,0,.24,0,.35-.02.11,0,.21,0,.3-.04h0Z"/></g></g></svg>