<?xml version="1.0" encoding="utf-8"?>
<!-- Generator: Adobe Illustrator 28.1.0, SVG Export Plug-In . SVG Version: 6.00 Build 0)  -->
<svg version="1.1" id="Capa_1" xmlns="http://www.w3.org/2000/svg" xmlns:xlink="http://www.w3.org/1999/xlink" x="0px" y="0px"
	 viewBox="0 0 14 16" style="enable-background:new 0 0 14 16;" xml:space="preserve">
<style type="text/css">
	.st0{fill:#FFFFFF;}
</style>
<path class="st0" d="M7,4.4C5,4.4,3.4,6,3.4,8S5,11.6,7,11.6S10.6,10,10.6,8S9,4.4,7,4.4z M7,10.3c-1.3,0-2.3-1-2.3-2.3
	s1-2.3,2.3-2.3s2.3,1,2.3,2.3S8.3,10.3,7,10.3z M11.6,4.3c0,0.5-0.4,0.8-0.8,0.8c-0.5,0-0.8-0.4-0.8-0.8s0.4-0.8,0.8-0.8
	S11.6,3.8,11.6,4.3z M14,5.1C13.9,4,13.6,3,12.8,2.2C12,1.4,11,1.1,9.9,1C8.7,1,5.3,1,4.1,1C3,1.1,2,1.4,1.2,2.2S0.1,4,0,5.1
	C0,6.3,0,9.7,0,10.9C0.1,12,0.4,13,1.2,13.8s1.8,1.1,2.9,1.1c1.2,0.1,4.6,0.1,5.8,0c1.1-0.1,2.1-0.3,2.9-1.1
	c0.8-0.8,1.1-1.8,1.1-2.9C14,9.7,14,6.3,14,5.1z M12.5,12.1c-0.2,0.6-0.7,1.1-1.3,1.3C10.2,13.8,8,13.7,7,13.7s-3.2,0.1-4.1-0.3
	c-0.6-0.2-1.1-0.7-1.3-1.3C1.2,11.2,1.3,9,1.3,8S1.2,4.8,1.5,3.9c0.2-0.6,0.7-1.1,1.3-1.3C3.8,2.2,6,2.3,7,2.3s3.2-0.1,4.1,0.3
	c0.6,0.2,1.1,0.7,1.3,1.3C12.8,4.8,12.7,7,12.7,8S12.8,11.2,12.5,12.1z"/>
</svg>
