<?xml version="1.0" encoding="UTF-8"?><svg id="Capa_2" xmlns="http://www.w3.org/2000/svg" viewBox="0 0 234.66 234.66"><defs><style>.cls-1{fill:#1d1d1d;}.cls-1,.cls-2{stroke-width:0px;}.cls-2{fill:#eadec4;}</style></defs><g id="Capa_1-2"><path class="cls-2" d="M117.33,234.66C52.63,234.66,0,182.02,0,117.33S52.63,0,117.33,0s117.33,52.63,117.33,117.33-52.63,117.33-117.33,117.33Z"/><path class="cls-1" d="M117.3,91.68c-14.31,0-25.71,11.45-25.71,25.76s11.46,25.76,25.71,25.76,25.71-11.45,25.71-25.76-11.46-25.76-25.71-25.76ZM117.3,133.89c-9.3,0-16.46-7.15-16.46-16.45s7.15-16.45,16.46-16.45,16.46,7.15,16.46,16.45-7.15,16.45-16.46,16.45ZM150.17,90.93c0,3.6-2.85,5.7-5.7,5.7-3.55,0-5.7-2.85-5.7-5.7s2.85-5.7,5.7-5.7,5.7,2.15,5.7,5.7ZM167.33,96.68c-.7-7.85-2.85-15.05-8.55-20.76-5.7-5.7-12.86-7.85-20.71-8.6h-41.47c-7.85.7-15.01,2.85-20.71,8.6-5.7,5.7-7.85,12.9-8.55,20.76v41.51c.7,7.85,2.85,15.05,8.55,20.75,5.7,5.7,12.86,7.85,20.71,7.85,8.55.7,32.87.7,41.47,0,7.85-.7,15.01-2.15,20.71-7.85,5.7-5.7,7.85-12.9,7.85-20.75.7-8.6.7-32.91.7-41.51ZM156.67,146.8c-1.45,4.3-5,7.85-9.3,9.3-7.15,2.85-22.86,2.15-30.02,2.15s-22.86.7-29.31-2.15c-4.3-1.45-7.85-5-9.3-9.3-2.85-6.45-2.15-22.21-2.15-29.36s-.7-22.91,1.45-29.36c1.45-4.3,5-7.85,9.3-9.3,7.15-2.85,22.86-2.15,30.02-2.15s22.86-.7,29.31,2.15c4.3,1.45,7.85,5,9.3,9.3,2.85,6.45,2.15,22.21,2.15,29.36s.7,22.91-1.45,29.36Z"/></g></svg>