<?xml version="1.0" encoding="UTF-8"?><svg id="Capa_1" xmlns="http://www.w3.org/2000/svg" viewBox="0 0 20 20"><defs><style>.cls-1{fill:#f6df1c;}.cls-1,.cls-2{stroke-width:0px;}.cls-2{fill:#010101;}</style></defs><g id="Capa_1-2"><rect class="cls-1" y=".01" width="20" height="19.99"/><path class="cls-2" d="M13.44,15.63c.4.65.93,1.14,1.85,1.14.77,0,1.28-.39,1.28-.93,0-.64-.51-.87-1.36-1.24l-.47-.2c-1.35-.58-2.26-1.3-2.26-2.83,0-1.41,1.07-2.49,2.75-2.49,1.2,0,2.05.41,2.67,1.5l-1.46.94c-.33-.58-.67-.81-1.21-.81s-.89.35-.89.81c0,.57.35.8,1.16,1.14l.47.2c1.59.69,2.5,1.38,2.5,2.95,0,1.69-1.33,2.62-3.12,2.62s-2.87-.83-3.42-1.92l1.53-.88h0ZM6.79,15.79c.29.52.57.97,1.21.97s1-.24,1-1.18v-6.39h1.88v6.41c0,1.94-1.15,2.83-2.8,2.83-1.5,0-2.38-.77-2.82-1.71l1.53-.93h.01Z"/></g></svg>