<?xml version="1.0" encoding="UTF-8"?><svg id="Capa_2" xmlns="http://www.w3.org/2000/svg" viewBox="0 0 18.34 18.34"><defs><style>.cls-1{fill:#f6df1c;}.cls-2{fill:#010101;}</style></defs><g id="Capa_1-2"><rect class="cls-1" width="18.34" height="18.34"/><path class="cls-2" d="m12.32,14.33c.37.6.85,1.05,1.7,1.05.71,0,1.17-.36,1.17-.85,0-.59-.47-.8-1.25-1.14l-.43-.18c-1.24-.53-2.07-1.19-2.07-2.6,0-1.29.98-2.28,2.52-2.28,1.1,0,1.88.38,2.45,1.38l-1.34.86c-.3-.53-.61-.74-1.11-.74s-.82.32-.82.74c0,.52.32.73,1.06,1.05l.43.18c1.46.63,2.29,1.27,2.29,2.71,0,1.55-1.22,2.4-2.86,2.4s-2.63-.76-3.14-1.76l1.4-.81Zm-6.09.15c.27.48.52.89,1.11.89s.92-.22.92-1.08v-5.86h1.72v5.88c0,1.78-1.05,2.6-2.57,2.6-1.38,0-2.18-.71-2.59-1.57l1.4-.85Z"/></g></svg>