<svg width="140" height="140" viewBox="0 0 140 140" fill="none" xmlns="http://www.w3.org/2000/svg">
<path d="M129.768 0H9.99288C3.98318 0 0 4.9602 0 9.99027V129.734C0 135.742 3.98318 139.724 9.99288 139.724H129.768C135.777 139.724 139.76 134.764 139.76 129.734V9.99027C139.76 5.03007 135.777 0 129.768 0ZM41.9281 119.743H21.9424V52.8855H42.9065L41.9281 119.743ZM31.9353 43.9432C24.9472 43.9432 19.9858 38.983 19.9858 31.9968C19.9858 25.0106 24.9472 20.0504 31.9353 20.0504C38.9233 20.0504 43.8848 25.0106 43.8848 31.9968C43.8848 38.983 38.9233 43.9432 31.9353 43.9432ZM119.775 119.743H98.8107V87.8165C98.8107 79.8523 98.8107 69.862 88.8178 69.862C77.8466 69.862 75.8201 77.8263 75.8201 86.8385V119.743H54.856V52.8855H74.8417V61.8977C77.8466 56.9375 84.8346 50.9294 94.8275 50.9294C115.792 50.9294 119.775 64.9018 119.775 82.8564V119.813V119.743Z" fill="#EADEC4"/>
</svg>
