<?xml version="1.0" encoding="UTF-8"?><svg id="Capa_1" xmlns="http://www.w3.org/2000/svg" viewBox="0 0 20 20"><defs><style>.cls-1{fill:#010101;}.cls-1,.cls-2,.cls-3{stroke-width:0px;}.cls-2{fill:#42768c;}.cls-3{fill:#fff;}</style></defs><g id="Capa_1-2"><rect class="cls-3" x="2.13" width="15.75" height="20"/><path class="cls-2" d="M15.63,16.02c-.16-.09-.27-.16-.33-.19-.19-.1-.32-.17-.5-.26s-.37-.15-.57-.17c-.1,0-.2,0-.28.02-.1.02-.19.05-.26.11-.09.05-.16.12-.22.19-.07.08-.11.15-.15.25-.02.05-.04.12-.04.19h2.49s-.04-.05-.07-.08l-.05-.05h-.01Z"/><path class="cls-2" d="M6.67,15.93c-.17-.05-.35-.1-.53-.12-.17-.02-.36-.03-.53,0-.04,0-.09.01-.13.02-.04,0-.09.02-.13.03-.09.02-.17.07-.25.11-.1.05-.2.12-.29.17h2.53s-.1-.03-.14-.04c-.17-.05-.35-.12-.52-.17h.01Z"/><path class="cls-2" d="M16.97,11.31c-.19-.21-.38-.4-.57-.62-.2-.22-.38-.45-.55-.71l-.03-.04h0v-.04s-.05-.07-.08-.1c-.04-.07-.08-.13-.11-.2-.07-.13-.14-.26-.2-.39-.14.08-.29.15-.46.2-.1.03-.2.05-.29.05-.04,0-.1,0-.14-.01s-.1-.03-.13-.07c.08.05.19.07.27.05.1-.01.19-.04.27-.08.15-.07.29-.15.44-.24-.11-.25-.19-.5-.24-.77-.07-.29-.09-.59-.08-.88,0-.15.02-.29.04-.45.01-.08.03-.14.04-.22l.05-.21h-.02c-.1.02-.21.04-.31.04-.21,0-.4-.05-.6-.14-.19-.08-.36-.2-.5-.34s-.24-.33-.27-.53c.03.2.14.37.28.51.14.14.32.24.5.32.19.07.38.11.58.11.1,0,.2-.02.28-.04.02,0,.04-.01.08-.02.07-.24.15-.48.23-.72.05-.15.1-.31.14-.46-.04-.31-.13-.61-.27-.88-.15-.31-.38-.58-.65-.8-.14-.11-.27-.22-.39-.35s-.23-.27-.29-.44-.09-.34-.1-.51c0-.17.01-.35.03-.52-.02.17-.03.35-.02.52,0,.17.03.35.11.51.07.16.17.29.29.43.12.12.26.23.4.34.28.21.52.49.69.8.12.22.21.45.26.7,0-.03.01-.08.02-.11.04-.27.03-.55-.03-.81-.03-.13-.08-.26-.13-.39s-.11-.26-.17-.38c-.12-.25-.25-.5-.41-.73.19.22.33.46.47.71.07.12.13.25.2.37.04.08.08.15.11.24.11-.09.19-.21.23-.34.07-.15.1-.33.14-.49s.08-.34.16-.49c.04-.08.1-.15.15-.21.07-.05.14-.1.23-.12-.08.02-.16.07-.22.12-.07.05-.11.13-.14.21-.07.15-.1.33-.13.49-.03.17-.07.34-.12.51-.03.09-.07.16-.12.24-.04.07-.09.12-.15.16,0,.02.02.04.02.07.04.14.08.28.1.43s.02.29,0,.44c-.02.29-.09.58-.16.85-.07.27-.14.55-.2.82l-.03.21c-.01.07-.02.13-.03.2-.01.13-.02.26-.01.4.01.53.17,1.06.43,1.53.07.12.13.23.21.35.03.05.08.11.11.16.02.03.04.05.05.08l.07.09c.15.2.32.38.5.57,0-.03.02-.07.03-.09.05-.16.14-.31.22-.45.07-.11.13-.22.2-.33v-3.11s-.03-.09-.05-.13c-.12-.29-.25-.59-.37-.88-.12-.29-.23-.6-.31-.91s-.12-.63-.1-.95c-.01.32.04.63.13.94s.21.6.34.88l.26.56c-.02-.12-.03-.24-.03-.36,0-.15.01-.32.05-.47.02-.08.04-.15.08-.23V.62H2.73v15.53h1.98c.11-.09.23-.16.35-.24.08-.04.16-.09.26-.12.04-.02.09-.03.13-.04s.1-.02.14-.03c.19-.03.37-.03.57-.02.19.02.37.05.56.1.16.04.32.09.48.13-.01-.01-.02-.02-.03-.03-.1-.09-.2-.17-.28-.27-.04-.04-.09-.1-.12-.15s-.05-.12-.08-.19c-.03-.13-.03-.26-.01-.38,0,.13,0,.26.03.38.02.05.04.12.08.17s.08.1.12.14c.09.09.2.16.29.25.05.04.1.09.14.13.05.02.11.03.15.04h.03l.03.02.07.02.13.04s.09.02.12.04h5.27c0-.08.02-.15.04-.22.03-.11.09-.21.15-.29s.15-.16.24-.23c.1-.07.2-.11.31-.14.09-.02.17-.03.26-.04-.05-.01-.11-.03-.16-.04-.32-.08-.64-.11-.97-.09s-.67.07-1,.11-.68.09-1.01.09h-.26c-.09,0-.17-.02-.26-.03-.17-.03-.33-.07-.5-.1-.16-.03-.33-.05-.5-.05-.09,0-.16,0-.25.03-.08.02-.16.05-.23.1.07-.05.14-.09.23-.12.08-.02.16-.04.25-.04.17-.01.34,0,.51.02s.34.04.5.07c.08,0,.16.02.25.01s.16,0,.25-.01c.67-.05,1.32-.24,2.01-.32.35-.04.71-.02,1.05.03.35.05.69.15,1.01.31.03.01.07.03.1.04-.05-.07-.12-.13-.19-.2-.28-.28-.61-.52-.96-.75-.17-.11-.36-.22-.55-.33s-.38-.22-.57-.35c-.14-.1-.27-.2-.4-.29-.32.02-.63.08-.95.14-.36.08-.72.19-1.1.27-.37.09-.75.17-1.15.2-.2.01-.39.02-.59,0-.1,0-.2-.02-.29-.03h-.08l-.07-.02s-.1-.02-.14-.03c-.19-.04-.37-.1-.56-.14-.19-.04-.36-.1-.53-.11-.19-.02-.36,0-.53.03-.09.02-.17.04-.26.08-.04.01-.09.03-.13.05s-.09.03-.13.05c-.36.13-.74.21-1.11.25-.37.05-.75.09-1.12.19.36-.11.74-.17,1.11-.24s.74-.15,1.08-.31c.04-.02.09-.03.13-.05s.09-.04.13-.05c.09-.03.19-.07.27-.1.19-.05.39-.08.59-.07.1,0,.2.02.29.03-.13-.08-.25-.16-.38-.25-.32-.23-.62-.48-.95-.69-.33-.21-.67-.4-.99-.61-.33-.21-.65-.43-.96-.68.31.24.63.46.97.65s.68.39,1.01.59c.34.2.64.45.96.67.16.11.33.22.49.29.05.02.1.04.15.07.17.03.35.08.51.11.04,0,.09.01.14.02h.07l.07.02c.09,0,.19.01.27.02.19,0,.36,0,.55-.03.36-.04.72-.14,1.08-.25.03,0,.07-.02.1-.03-.2-.12-.39-.24-.6-.37-.28-.17-.57-.37-.82-.62l-.35-.35c-.12-.12-.24-.23-.36-.33s-.26-.19-.4-.24c-.07-.03-.14-.05-.22-.07l-.04.1c.04.07.02.19-.19.35-.22.17-.5.19-.5.19,0,0,.09-.27.31-.45.19-.14.29-.16.36-.12l.03-.08c-.07-.01-.13-.02-.2-.03-.04,0-.08,0-.12-.01s-.08,0-.12,0h-.25c-.16,0-.33,0-.5-.02-.17-.02-.34-.05-.49-.14-.04-.02-.08-.04-.11-.07l-.05-.03-.05-.03c-.07-.04-.13-.1-.21-.15-.26-.21-.51-.44-.73-.69s-.43-.51-.59-.81c.17.28.38.55.61.79s.48.46.74.65c.07.04.13.1.21.14l.05.03.05.03s.07.04.11.05c.14.07.31.1.47.11.16.01.33,0,.49,0h.03v-.1c-.08,0-.16-.05-.27-.25-.14-.24-.12-.52-.12-.52,0,0,.26.12.4.36s.12.35.04.39h-.01v.11h.45c.17.01.35.04.51.11.16.05.32.14.46.24s.27.21.39.33l.37.34c.23.22.5.39.8.56.27.15.55.29.82.47.21-.07.43-.13.64-.2.19-.05.37-.1.57-.14.02,0,.04,0,.07-.01-.07-.07-.12-.14-.17-.22-.14-.19-.25-.39-.35-.6-.1-.21-.17-.43-.23-.63l-.02-.08v-.04l-.02-.04-.04-.15c-.02-.11-.05-.21-.08-.32-.01-.07-.03-.14-.04-.21-.26-.04-.51-.13-.75-.24-.25-.11-.48-.24-.71-.36s-.46-.24-.71-.33c-.24-.09-.49-.14-.74-.15h-.2c-.07,0-.13-.01-.21-.02-.13-.02-.26-.05-.39-.09-.26-.08-.5-.2-.73-.33-.23-.14-.44-.32-.6-.52-.17-.21-.31-.44-.37-.7.08.25.22.48.4.68s.39.35.61.48c.23.13.47.23.72.29.12.03.25.05.38.07h.39c.27,0,.55.04.81.13.26.08.5.2.74.31.24.11.47.23.71.32.2.08.39.14.6.17,0-.04-.02-.1-.02-.14-.03-.2-.05-.39-.07-.59-.22-.09-.43-.2-.62-.32-.22-.14-.41-.31-.6-.49-.37-.36-.65-.79-.91-1.22-.02-.03-.03-.05-.04-.09-.1.08-.21.14-.32.19-.14.05-.29.08-.44.09-.15,0-.29,0-.45-.05-.07-.02-.14-.05-.21-.1s-.12-.09-.19-.13c-.05-.04-.12-.09-.17-.12-.03-.02-.07-.03-.1-.04l-.1-.04c-.13-.05-.27-.1-.41-.14-.27-.1-.56-.19-.82-.31.27.12.55.2.83.28.14.04.28.09.41.13l.11.03s.07.02.11.04c.07.03.13.08.19.12s.12.09.19.12.13.07.2.08c.14.03.28.04.43.03.14-.01.28-.04.41-.1.11-.04.22-.11.31-.2-.45-.83-.79-1.7-1.24-2.52.2.31.37.62.53.95.1-.08.17-.19.22-.31.05-.13.08-.27.11-.41.03-.14.05-.28.11-.43.03-.07.07-.13.11-.19s.1-.11.16-.14c-.05.04-.11.09-.15.15-.04.05-.08.12-.1.19-.04.13-.07.27-.08.43-.02.14-.04.28-.09.43-.02.07-.05.14-.1.21-.04.05-.09.11-.14.16.04.1.1.19.14.28.23.45.47.88.73,1.31.26.41.57.82.93,1.15.19.16.37.31.58.43.15.09.32.16.48.23v-.41c.02-.34.07-.68.15-1-.13.01-.25,0-.37-.04-.13-.03-.25-.1-.36-.17-.22-.15-.39-.35-.53-.57-.14-.22-.24-.47-.28-.72-.02-.13-.03-.26-.02-.39,0-.13.03-.26.09-.38.02-.07.05-.12.1-.17.04-.05.09-.1.13-.14.1-.09.22-.14.33-.21s.23-.12.33-.19c.05-.03.1-.08.15-.12.04-.04.1-.09.13-.13.09-.1.15-.21.2-.33s.08-.24.09-.37c.02-.26-.01-.51-.05-.76.04.25.09.51.07.76,0,.13-.03.26-.08.38-.04.12-.11.23-.2.33-.04.05-.09.1-.13.14s-.1.09-.15.12c-.11.08-.22.13-.33.2-.11.05-.23.12-.32.21-.1.08-.17.19-.22.31-.1.23-.1.49-.05.74.05.25.15.48.28.7.14.21.31.4.52.53.11.07.22.12.34.15.12.03.24.04.36.03v.03c.02-.08.04-.15.07-.23.09-.26.17-.5.27-.75-.01-.05-.03-.11-.05-.15-.05-.11-.15-.2-.25-.28-.1-.09-.2-.16-.28-.27-.04-.05-.08-.11-.09-.17,0-.07.01-.13.04-.19-.03.05-.04.12-.03.19s.05.12.1.16c.09.1.2.16.29.25.1.08.21.17.28.28.02.02.03.05.04.08.21-.51.44-1.03.63-1.54,0-.02.02-.04.02-.07l-.14-.05h0c-.07.05-.19.03-.36-.19-.17-.22-.2-.5-.2-.5,0,0,.28.08.45.29.14.17.16.28.13.35l.13.05c.07-.16.11-.33.14-.5.04-.21.05-.43.04-.63s-.05-.43-.1-.63-.1-.43-.14-.63c.05.21.11.41.17.62s.11.41.13.63c.02.2.02.39,0,.58h.09c-.01-.08.04-.17.22-.31.22-.16.51-.17.51-.17,0,0-.1.27-.32.44s-.34.15-.39.08h0s-.11-.01-.11-.01v.04c-.03.22-.09.43-.16.63-.13.4-.29.81-.44,1.21-.02.05-.04.12-.07.17.02-.02.04-.04.07-.07.08-.08.17-.14.26-.21.04-.03.09-.07.13-.1l.07-.04h.02s.02-.02.04-.02c.05-.02.11-.03.16-.04.05,0,.11-.02.15-.04s.09-.05.12-.1c.02-.02.03-.04.05-.07s.03-.04.04-.07c.04-.1.07-.21.1-.31.02-.11.04-.22.07-.32-.02.11-.03.22-.05.33-.02.11-.04.22-.09.32-.01.02-.02.05-.04.08s-.03.04-.05.07c-.03.04-.08.08-.13.11s-.11.04-.16.04c-.05.01-.1.02-.15.04l-.03.02h-.02s-.07.05-.07.05c0,0-.09.07-.13.1-.09.07-.16.14-.24.21-.07.07-.13.14-.2.22-.02.08-.05.15-.08.23-.03.1-.07.21-.1.31l-.02.08-.02.08s-.03.1-.04.15c-.11.4-.16.82-.17,1.24,0,.41.04.83.13,1.24.04.21.09.41.14.61.03.1.05.21.09.31l.04.15v.03l.02.03.02.08c.14.39.32.76.57,1.07.24.31.57.56.92.76.17.11.36.21.55.31h.02c.01-.08.02-.14.03-.22.02-.15.04-.31.04-.46s-.02-.29-.05-.45c-.04-.14-.1-.29-.16-.43-.02-.03-.03-.07-.05-.11-.02-.03-.03-.07-.05-.1-.02-.04-.03-.04-.05-.09h-.14s-.08.02-.12.03c-.03.01-.08.03-.1.07s-.04.07-.04.11c-.01-.04,0-.09.02-.13s.07-.07.1-.1c.04-.02.08-.04.12-.05.03,0,.05-.02.09-.02h0c-.1-.13-.2-.25-.29-.38-.1-.13-.2-.26-.26-.39s-.13-.29-.13-.46c.02.15.08.31.16.44.08.13.19.25.29.37s.22.23.33.35c.05.05.11.12.15.19.02.03.04.07.07.1s.04.07.07.11c.08.14.15.28.21.45h0s.01,0,.02-.01c.02-.02.04-.03.08-.04.04-.02.1-.04.15-.05.1-.03.21-.04.31-.05-.1.02-.2.05-.29.1-.04.02-.09.04-.13.08s-.08.05-.09.1h0c.03.13.05.25.07.38.01.16,0,.33,0,.49,0,.11-.02.22-.03.33.1.05.21.11.31.17.33.19.64.39.95.64.03-.19.07-.36.09-.55.02-.19.04-.36.05-.53,0-.09.01-.17.01-.27v-.13h0s0,.02,0,0h0v-.11c-.02-.15-.07-.32-.13-.47-.07-.15-.15-.29-.26-.44-.11-.14-.23-.28-.35-.41l-.19-.21-.1-.11-.02-.02h0s-.01-.01-.01-.01l-.04-.07c-.22-.25-.43-.5-.6-.77-.05-.03-.1-.08-.15-.11-.05-.03-.11-.05-.17-.07s-.13,0-.19,0c-.13.02-.27.04-.4.03s-.26-.07-.38-.13c.12.05.25.1.38.11.13,0,.26-.02.39-.05.07-.02.14-.02.21-.02s.14.03.2.07h0c-.2-.32-.37-.65-.48-1-.12-.36-.19-.75-.17-1.13s.1-.75.25-1.1c-.12.36-.17.73-.15,1.1.02.37.11.73.25,1.07.07.14.13.28.21.41.04-.03.09-.05.13-.09.07-.04.13-.1.17-.16.1-.13.19-.28.25-.44.03-.11.07-.23.08-.34,0-.15-.07-.32-.04-.48,0,.16.07.32.08.48h0c-.01.12-.04.23-.07.35h0c-.05.16-.14.32-.24.46-.04.08-.12.14-.19.2-.04.03-.09.07-.13.1.1.15.2.31.31.45.22.29.47.57.73.82l.05.04h.01v.02h0l.02.02.11.1.21.2c.14.13.28.26.4.41.1.11.2.23.27.36.11-.07.21-.13.33-.19.07-.03.14-.04.22-.05.08,0,.14,0,.22-.02-.07.02-.14.03-.22.04s-.14.03-.2.07c-.11.07-.21.13-.31.22.01.02.02.04.03.05.1.19.19.38.22.6,0,.02.01.05.01.08v.07h0v.03h0s0,.1.01.15c0,.1,0,.2.01.29,0,.2,0,.39-.01.58-.02.37-.07.73-.11,1.1,0,0,.02.02.02.03.03.04.08.1.11.14l.04.07.05.07c.07.1.13.2.19.29.11.17.2.35.28.53h.64v-4.5c-.12-.11-.22-.22-.31-.33l-.02.07Z"/><path class="cls-2" d="M17.25,10.67v-.77c-.1.2-.19.39-.21.58.07.07.14.13.21.2Z"/><path class="cls-2" d="M17.2,5.42c0,.14.02.29.05.44v-.97s-.01.05-.02.08c-.03.14-.04.31-.03.46Z"/><path class="cls-1" d="M3.83,19.38c-.24,0-.43-.02-.55-.07-.12-.04-.23-.11-.32-.21-.09-.09-.14-.2-.19-.31s-.05-.27-.05-.48v-1.55h.55v1.54c0,.15,0,.26.02.32s.03.11.07.15c.05.07.12.11.2.13s.19.04.32.04h.64v.44h-.69,0Z"/><path class="cls-1" d="M5.29,16.77v1.56c0,.24.04.41.13.51s.24.14.46.14.37-.04.46-.14c.09-.1.13-.26.13-.51v-1.56h.55v1.57c0,.19-.01.33-.03.45-.02.11-.07.2-.12.26-.11.12-.23.22-.39.27-.15.05-.36.09-.59.09s-.44-.03-.59-.09-.29-.15-.39-.27c-.05-.07-.09-.14-.11-.25s-.03-.26-.03-.45v-1.57h.55-.01Z"/><path class="cls-1" d="M7.55,16.77h.81l.67,2.01.67-2.01h.81v2.61h-.53l.04-2.03-.67,2.03h-.58l-.69-2.05.05,2.05h-.56v-2.61h-.02Z"/><path class="cls-1" d="M11.6,19.38h-.57v-2.61h.57s0,2.61,0,2.61Z"/><path class="cls-2" d="M11.97,18.05c0-.45.11-.79.32-1,.22-.22.55-.33.98-.33s.77.11.98.33.32.57.32,1.03-.11.81-.32,1.03-.53.33-.98.33-.77-.11-.98-.34c-.21-.22-.32-.57-.32-1.05h0ZM13.27,17.16c-.23,0-.41.08-.52.22-.11.14-.17.37-.17.67,0,.32.05.56.17.71s.29.23.53.23.41-.08.53-.22c.12-.15.17-.38.17-.69s-.05-.53-.17-.69c-.11-.15-.29-.22-.53-.22h-.01Z"/><path class="cls-2" d="M14.95,16.77h.7l1.07,1.88-.02-1.88h.56v2.61h-.63l-1.12-1.97.02,1.97h-.57v-2.61h0Z"/></g></svg>