<?xml version="1.0" encoding="UTF-8"?><svg id="Capa_2" xmlns="http://www.w3.org/2000/svg" viewBox="0 0 14.44 18.34"><defs><style>.cls-1{fill:#fff;}.cls-2{fill:#42768c;}.cls-3{fill:#010101;}</style></defs><g id="Capa_1-2"><rect class="cls-1" width="14.44" height="18.34"/><path class="cls-2" d="m12.38,14.69q-.22-.13-.3-.17c-.17-.09-.29-.16-.46-.24s-.34-.14-.52-.16c-.09,0-.18,0-.26.02-.09.02-.17.05-.24.1-.08.05-.15.11-.2.17-.06.07-.1.14-.14.23-.02.05-.04.11-.04.17h2.28s-.04-.05-.06-.07c-.02-.02-.03-.03-.05-.05Z"/><path class="cls-2" d="m4.17,14.61c-.16-.05-.32-.09-.49-.11-.16-.02-.33-.03-.49,0-.04,0-.08.01-.12.02-.04,0-.08.02-.12.03-.08.02-.16.06-.23.1-.09.05-.18.11-.27.16h2.32s-.09-.03-.13-.04c-.16-.05-.32-.11-.48-.16Z"/><path class="cls-2" d="m13.61,10.37c-.17-.19-.35-.37-.52-.57-.18-.2-.35-.41-.5-.65l-.03-.04h0s0,0,0,0h0s0-.02,0-.02v-.02s-.05-.06-.07-.09c-.04-.06-.07-.12-.1-.18-.06-.12-.13-.24-.18-.36-.13.07-.27.14-.42.18-.09.03-.18.05-.27.05-.04,0-.09,0-.13-.01s-.09-.03-.12-.06c.07.05.17.06.25.05.09-.01.17-.04.25-.07.14-.06.27-.14.4-.22-.1-.23-.17-.46-.22-.71-.06-.27-.08-.54-.07-.81,0-.14.02-.27.04-.41.01-.07.03-.13.04-.2l.05-.19s-.01,0-.02,0c-.09.02-.19.04-.28.04-.19,0-.37-.05-.55-.13-.17-.07-.33-.18-.46-.31-.13-.13-.22-.3-.25-.49.03.18.13.34.26.47.13.13.29.22.46.29.17.06.35.1.53.1.09,0,.18-.02.26-.04.02,0,.04-.01.07-.02.06-.22.14-.44.21-.66.05-.14.09-.28.13-.42-.04-.28-.12-.56-.25-.81-.14-.28-.35-.53-.6-.73-.13-.1-.25-.2-.36-.32-.11-.12-.21-.25-.27-.4-.06-.15-.08-.31-.09-.47,0-.16.01-.32.03-.48-.02.16-.03.32-.02.48,0,.16.03.32.1.47.06.15.16.27.27.39.11.11.24.21.37.31.26.19.48.45.63.73.11.2.19.41.24.64,0-.03.01-.07.02-.1.04-.25.03-.5-.03-.74-.03-.12-.07-.24-.12-.36-.05-.12-.1-.24-.16-.35-.11-.23-.23-.46-.38-.67.17.2.3.42.43.65.06.11.12.23.18.34.04.07.07.14.1.22.1-.08.17-.19.21-.31.06-.14.09-.3.13-.45.04-.15.07-.31.15-.45.04-.07.09-.14.14-.19.06-.05.13-.09.21-.11-.07.02-.15.06-.2.11-.06.05-.1.12-.13.19-.06.14-.09.3-.12.45-.03.16-.06.31-.11.47-.03.08-.06.15-.11.22-.04.06-.08.11-.14.15,0,.02.02.04.02.06.04.13.07.26.09.39.02.13.02.27,0,.4-.02.27-.08.53-.15.78-.06.25-.13.5-.18.75l-.03.19c-.01.06-.02.12-.03.18-.01.12-.02.24-.01.37.01.49.16.97.39,1.4.06.11.12.21.19.32.03.05.07.1.1.15.02.03.04.05.05.07l.06.08c.14.18.29.35.46.52,0-.03.02-.06.03-.08.05-.15.13-.28.2-.41.06-.1.12-.2.18-.3v-2.85s-.03-.08-.05-.12c-.11-.27-.23-.54-.34-.81-.11-.27-.21-.55-.28-.83s-.11-.58-.09-.87c-.01.29.04.58.12.86.08.28.19.55.31.81.08.17.16.34.24.51-.02-.11-.03-.22-.03-.33,0-.14.01-.29.05-.43.02-.07.04-.14.07-.21V.57H.55v14.24h1.82c.1-.08.21-.15.32-.22.07-.04.15-.08.24-.11.04-.02.08-.03.12-.04.04-.01.09-.02.13-.03.17-.03.34-.03.52-.02.17.02.34.05.51.09.15.04.29.08.44.12-.01-.01-.02-.02-.03-.03-.09-.08-.18-.16-.26-.25-.04-.04-.08-.09-.11-.14-.03-.05-.05-.11-.07-.17-.03-.12-.03-.24-.01-.35,0,.12,0,.24.03.35.02.05.04.11.07.16.03.05.07.09.11.13.08.08.18.15.27.23.05.04.09.08.13.12.05.02.1.03.14.04h.03s.03.02.03.02l.06.02.12.04s.08.02.11.04h4.83c0-.07.02-.14.04-.2.03-.1.08-.19.14-.27s.14-.15.22-.21c.09-.06.18-.1.28-.13.08-.02.16-.03.24-.04-.05-.01-.1-.03-.15-.04-.29-.07-.59-.1-.89-.08-.3.02-.61.06-.92.1-.31.04-.62.08-.93.08-.08,0-.16,0-.24,0-.08,0-.16-.02-.24-.03-.16-.03-.3-.06-.46-.09-.15-.03-.3-.05-.46-.05-.08,0-.15,0-.23.03-.07.02-.15.05-.21.09.06-.05.13-.08.21-.11.07-.02.15-.04.23-.04.16-.01.31,0,.47.02s.31.04.46.06c.07,0,.15.02.23.01s.15,0,.23-.01c.61-.05,1.21-.22,1.84-.29.32-.04.65-.02.96.03.32.05.63.14.93.28.03.01.06.03.09.04-.05-.06-.11-.12-.17-.18-.26-.26-.56-.48-.88-.69-.16-.1-.33-.2-.5-.3-.17-.1-.35-.2-.52-.32-.13-.09-.25-.18-.37-.27-.29.02-.58.07-.87.13-.33.07-.66.17-1.01.25-.34.08-.69.16-1.05.18-.18.01-.36.02-.54,0-.09,0-.18-.02-.27-.03h-.07s-.06-.02-.06-.02c-.04,0-.09-.02-.13-.03-.17-.04-.34-.09-.51-.13-.17-.04-.33-.09-.49-.1-.17-.02-.33,0-.49.03-.08.02-.16.04-.24.07-.04.01-.08.03-.12.05-.04.02-.08.03-.12.05-.33.12-.68.19-1.02.23-.34.05-.69.08-1.03.17.33-.1.68-.16,1.02-.22.34-.06.68-.14.99-.28.04-.02.08-.03.12-.05.04-.02.08-.04.12-.05.08-.03.17-.06.25-.09.17-.05.36-.07.54-.06.09,0,.18.02.27.03-.12-.07-.23-.15-.35-.23-.29-.21-.57-.44-.87-.63-.3-.19-.61-.37-.91-.56-.3-.19-.6-.39-.88-.62.28.22.58.42.89.6.31.18.62.36.93.54.31.18.59.41.88.61.15.1.3.2.45.27.05.02.09.04.14.06.16.03.32.07.47.1.04,0,.08.01.13.02h.06s.06.02.06.02c.08,0,.17.01.25.02.17,0,.33,0,.5-.03.33-.04.66-.13.99-.23.03,0,.06-.02.09-.03-.18-.11-.36-.22-.55-.34-.26-.16-.52-.34-.75-.57l-.32-.32c-.11-.11-.22-.21-.33-.3s-.24-.17-.37-.22c-.06-.03-.13-.05-.2-.06l-.04.09c.04.06.02.17-.17.32-.2.16-.46.17-.46.17,0,0,.08-.25.28-.41.17-.13.27-.15.33-.11l.03-.07c-.06-.01-.12-.02-.18-.03-.04,0-.07,0-.11-.01s-.07,0-.11,0c-.07,0-.15,0-.23,0-.15,0-.3,0-.46-.02-.16-.02-.31-.05-.45-.13-.04-.02-.07-.04-.1-.06l-.05-.03-.05-.03c-.06-.04-.12-.09-.19-.14-.24-.19-.47-.4-.67-.63s-.39-.47-.54-.74c.16.26.35.5.56.72.21.22.44.42.68.6.06.04.12.09.19.13l.05.03.05.03s.06.04.1.05c.13.06.28.09.43.1s.3,0,.45,0h.03v-.09c-.07,0-.15-.05-.25-.23-.13-.22-.11-.48-.11-.48,0,0,.24.11.37.33.13.22.11.32.04.36,0,0,0,0-.01,0v.1h.17s.08,0,.12,0c.04,0,.08,0,.12,0,.16.01.32.04.47.1.15.05.29.13.42.22.13.09.25.19.36.3l.34.31c.21.2.46.36.73.51.25.14.5.27.75.43.19-.06.39-.12.59-.18.17-.05.34-.09.52-.13.02,0,.04,0,.06-.01-.06-.06-.11-.13-.16-.2-.13-.17-.23-.36-.32-.55-.09-.19-.16-.39-.21-.58l-.02-.07v-.04s-.02-.04-.02-.04l-.04-.14c-.02-.1-.05-.19-.07-.29-.01-.06-.03-.13-.04-.19-.24-.04-.47-.12-.69-.22-.23-.1-.44-.22-.65-.33-.21-.11-.42-.22-.65-.3-.22-.08-.45-.13-.68-.14h-.09s-.06,0-.09,0c-.06,0-.12-.01-.19-.02-.12-.02-.24-.05-.36-.08-.24-.07-.46-.18-.67-.3-.21-.13-.4-.29-.55-.48-.16-.19-.28-.4-.34-.64.07.23.2.44.37.62s.36.32.56.44c.21.12.43.21.66.27.11.03.23.05.35.06.06,0,.12,0,.18,0,.03,0,.06,0,.09,0,.03,0,.06,0,.09,0,.25,0,.5.04.74.12.24.07.46.18.68.28.22.1.43.21.65.29.18.07.36.13.55.16,0-.04-.02-.09-.02-.13-.03-.18-.05-.36-.06-.54-.2-.08-.39-.18-.57-.29-.2-.13-.38-.28-.55-.45-.34-.33-.6-.72-.83-1.12-.02-.03-.03-.05-.04-.08-.09.07-.19.13-.29.17-.13.05-.27.07-.4.08-.14,0-.27,0-.41-.05-.06-.02-.13-.05-.19-.09-.06-.04-.11-.08-.17-.12-.05-.04-.11-.08-.16-.11-.03-.02-.06-.03-.09-.04l-.09-.04c-.12-.05-.25-.09-.38-.13-.25-.09-.51-.17-.75-.28.25.11.5.18.76.26.13.04.26.08.38.12l.1.03s.06.02.1.04c.06.03.12.07.17.11s.11.08.17.11.12.06.18.07c.13.03.26.04.39.03.13-.01.26-.04.38-.09.1-.04.2-.1.28-.18-.41-.76-.72-1.56-1.14-2.31.18.28.34.57.49.87.09-.07.16-.17.2-.28.05-.12.07-.25.1-.38.03-.13.05-.26.1-.39.03-.06.06-.12.1-.17s.09-.1.15-.13c-.05.04-.1.08-.14.14-.04.05-.07.11-.09.17-.04.12-.06.25-.07.39-.02.13-.04.26-.08.39-.02.06-.05.13-.09.19-.04.05-.08.1-.13.15.04.09.09.17.13.26.21.41.43.81.67,1.2.24.38.52.75.85,1.05.17.15.34.28.53.39.14.08.29.15.44.21,0-.13,0-.26,0-.38.02-.31.06-.62.14-.92-.12.01-.23,0-.34-.04-.12-.03-.23-.09-.33-.16-.2-.14-.36-.32-.49-.52-.13-.2-.22-.43-.26-.66-.02-.12-.03-.24-.02-.36,0-.12.03-.24.08-.35.02-.06.05-.11.09-.16.04-.05.08-.09.12-.13.09-.08.2-.13.3-.19s.21-.11.3-.17c.05-.03.09-.07.14-.11.04-.04.09-.08.12-.12.08-.09.14-.19.18-.3.04-.11.07-.22.08-.34.02-.24-.01-.47-.05-.7.04.23.08.47.06.7,0,.12-.03.24-.07.35-.04.11-.1.21-.18.3-.04.05-.08.09-.12.13-.04.04-.09.08-.14.11-.1.07-.2.12-.3.18-.1.05-.21.11-.29.19-.09.07-.16.17-.2.28-.09.21-.09.45-.05.68.05.23.14.44.26.64.13.19.28.37.48.49.1.06.2.11.31.14.11.03.22.04.33.03v.03c.02-.07.04-.14.06-.21.08-.24.16-.46.25-.69-.01-.05-.03-.1-.05-.14-.05-.1-.14-.18-.23-.26-.09-.08-.18-.15-.26-.25-.04-.05-.07-.1-.08-.16,0-.06.01-.12.04-.17-.03.05-.04.11-.03.17.01.06.05.11.09.15.08.09.18.15.27.23.09.07.19.16.26.26.02.02.03.05.04.07.19-.47.4-.94.58-1.41,0-.02.02-.04.02-.06l-.13-.05s0,0,0,0c-.06.05-.17.03-.33-.17-.16-.2-.18-.46-.18-.46,0,0,.26.07.41.27.13.16.15.26.12.32l.12.05c.06-.15.1-.3.13-.46.04-.19.05-.39.04-.58s-.05-.39-.09-.58c-.04-.19-.09-.39-.13-.58.05.19.1.38.16.57s.1.38.12.58c.02.18.02.36,0,.53h.08c-.01-.07.04-.16.2-.28.2-.15.47-.16.47-.16,0,0-.09.25-.29.4-.2.15-.31.14-.36.07,0,0,0,0,0-.01h-.1s0,.03,0,.04c-.03.2-.08.39-.15.58-.12.37-.27.74-.4,1.11-.02.05-.04.11-.06.16.02-.02.04-.04.06-.06.07-.07.16-.13.24-.19.04-.03.08-.06.12-.09l.06-.04h0s0,0,0,0h0s0,0,0,0h.02s.02-.02.04-.02c.05-.02.1-.03.15-.04.05,0,.1-.02.14-.04.04-.02.08-.05.11-.09.02-.02.03-.04.05-.06.02-.02.03-.04.04-.06.04-.09.06-.19.09-.28.02-.1.04-.2.06-.29-.02.1-.03.2-.05.3-.02.1-.04.2-.08.29-.01.02-.02.05-.04.07s-.03.04-.05.06c-.03.04-.07.07-.12.1s-.1.04-.15.04c-.05.01-.09.02-.14.04l-.03.02h-.02s0,.01,0,.01h0s0,0,0,0l-.06.04s-.08.06-.12.09c-.08.06-.15.13-.22.19-.06.06-.12.13-.18.2-.02.07-.05.14-.07.21-.03.09-.06.19-.09.28l-.02.07-.02.07s-.03.09-.04.14c-.1.37-.15.75-.16,1.14,0,.38.04.76.12,1.14.04.19.08.38.13.56.03.09.05.19.08.28l.04.14v.03s.02.03.02.03l.02.07c.13.36.29.7.52.98.22.28.52.51.84.7.16.1.33.19.5.28,0,0,.01,0,.02,0,.01-.07.02-.13.03-.2.02-.14.04-.28.04-.42s-.02-.27-.05-.41c-.04-.13-.09-.27-.15-.39-.02-.03-.03-.06-.05-.1-.02-.03-.03-.06-.05-.09-.02-.04-.03-.04-.05-.08h-.02s-.07,0-.11,0-.07.02-.11.03c-.03.01-.07.03-.09.06s-.04.06-.04.1c-.01-.04,0-.08.02-.12.02-.04.06-.06.09-.09.04-.02.07-.04.11-.05.03,0,.05-.02.08-.02h0c-.09-.12-.18-.23-.27-.35-.09-.12-.18-.24-.24-.36s-.12-.27-.12-.42c.02.14.07.28.15.4.07.12.17.23.27.34s.2.21.3.32c.05.05.1.11.14.17.02.03.04.06.06.09s.04.06.06.1c.07.13.14.26.19.41,0,0,0,0,0,0,0,0,.01,0,.02-.01.02-.02.04-.03.07-.04.04-.02.09-.04.14-.05.09-.03.19-.04.28-.05-.09.02-.18.05-.27.09-.04.02-.08.04-.12.07s-.07.05-.08.09h0c.03.12.05.23.06.35.01.15,0,.3,0,.45,0,.1-.02.2-.03.3.09.05.19.1.28.16.3.17.59.36.87.59.03-.17.06-.33.08-.5.02-.17.04-.33.05-.49,0-.08.01-.16.01-.25v-.12h0s0,.02,0,0h0v-.05s0-.04,0-.05c-.02-.14-.06-.29-.12-.43-.06-.14-.14-.27-.24-.4-.1-.13-.21-.26-.32-.38l-.17-.19-.09-.1-.02-.02h0s0-.01,0-.01h-.01s-.04-.06-.04-.06c-.2-.23-.39-.46-.55-.71-.05-.03-.09-.07-.14-.1-.05-.03-.1-.05-.16-.06s-.12,0-.17,0c-.12.02-.25.04-.37.03-.12-.01-.24-.06-.35-.12.11.05.23.09.35.1.12,0,.24-.02.36-.05.06-.02.13-.02.19-.02.06,0,.13.03.18.06,0,0,0,0,0,0-.18-.29-.34-.6-.44-.92-.11-.33-.17-.69-.16-1.04.01-.35.09-.69.23-1.01-.11.33-.16.67-.14,1.01.02.34.1.67.23.98.06.13.12.26.19.38.04-.03.08-.05.12-.08.06-.04.12-.09.16-.15.09-.12.17-.26.23-.4.03-.1.06-.21.07-.31,0-.14-.06-.29-.04-.44,0,.15.06.29.07.44h0c-.01.11-.04.21-.06.32h0c-.05.15-.13.29-.22.42-.04.07-.11.13-.17.18-.04.03-.08.06-.12.09.09.14.18.28.28.41.2.27.43.52.67.75l.05.04h.01s0,.02,0,.02c0,0,0,0,0,0h0s0,0,0,0l.02.02.1.09.19.18c.13.12.26.24.37.38.09.1.18.21.25.33.1-.06.19-.12.3-.17.06-.03.13-.04.2-.05.07,0,.13,0,.2-.02-.06.02-.13.03-.2.04-.07.01-.13.03-.18.06-.1.06-.19.12-.28.2.01.02.02.04.03.05.09.17.17.35.2.55,0,.02.01.05.01.07v.04s0,.02,0,.02h0s0,.03,0,.03h0s0,.09.01.14c0,.09,0,.18.01.27,0,.18,0,.36-.01.53-.02.34-.06.67-.1,1.01,0,0,.02.02.02.03.03.04.07.09.1.13l.04.06.05.06c.06.09.12.18.17.27.1.16.18.32.26.49h.59v-4.13c-.11-.1-.2-.2-.28-.3Z"/><path class="cls-2" d="m13.87,9.78v-.71c-.09.18-.17.36-.19.53.06.06.13.12.19.18Z"/><path class="cls-2" d="m13.82,4.97c0,.13.02.27.05.4v-.89s-.01.05-.02.07c-.03.13-.04.28-.03.42Z"/><path class="cls-3" d="m1.56,17.77c-.22,0-.39-.02-.5-.06-.11-.04-.21-.1-.29-.19-.08-.08-.13-.18-.17-.28s-.05-.25-.05-.44v-1.42h.5v1.41c0,.14,0,.24.02.29s.03.1.06.14c.05.06.11.1.18.12.07.02.17.04.29.04h.59v.4h-.63Z"/><path class="cls-3" d="m2.9,15.38v1.43c0,.22.04.38.12.47.08.09.22.13.42.13s.34-.04.42-.13c.08-.09.12-.24.12-.47v-1.43h.5v1.44c0,.17-.01.3-.03.41-.02.1-.06.18-.11.24-.1.11-.21.2-.36.25-.14.05-.33.08-.54.08s-.4-.03-.54-.08-.27-.14-.36-.25c-.05-.06-.08-.13-.1-.23s-.03-.24-.03-.41v-1.44h.5Z"/><path class="cls-3" d="m4.97,15.38h.74l.61,1.84.61-1.84h.74v2.39h-.49l.04-1.86-.61,1.86h-.53l-.63-1.88.05,1.88h-.51v-2.39h0Z"/><path class="cls-3" d="m8.69,17.77h-.52v-2.39h.52v2.39Z"/><path class="cls-2" d="m9.03,16.55c0-.41.1-.72.29-.92.2-.2.5-.3.9-.3s.71.1.9.3c.19.2.29.52.29.94s-.1.74-.29.94-.49.3-.9.3-.71-.1-.9-.31c-.19-.2-.29-.52-.29-.96Zm1.19-.81c-.21,0-.38.07-.48.2s-.16.34-.16.61c0,.29.05.51.16.65s.27.21.49.21.38-.07.49-.2c.11-.14.16-.35.16-.63s-.05-.49-.16-.63c-.1-.14-.27-.2-.49-.2Z"/><path class="cls-2" d="m11.76,15.38h.64l.98,1.72-.02-1.72h.51v2.39h-.58l-1.03-1.81.02,1.81h-.52v-2.39h0Z"/></g></svg>