<?xml version="1.0" encoding="UTF-8"?><svg id="Capa_1" xmlns="http://www.w3.org/2000/svg" xmlns:xlink="http://www.w3.org/1999/xlink" viewBox="0 0 20 20"><defs><style>.cls-1{fill:url(#Degradado_sin_nombre_13);}.cls-1,.cls-2,.cls-3,.cls-4,.cls-5,.cls-6,.cls-7,.cls-8{stroke-width:0px;}.cls-2{fill:#17428e;}.cls-3{opacity:.2;}.cls-3,.cls-8{fill:#010101;isolation:isolate;}.cls-4{fill:#50a1d9;}.cls-5{fill:#3a79bd;}.cls-6{fill:#fff;}.cls-7{fill:#2a5ba7;}.cls-8{opacity:.1;}</style><linearGradient id="Degradado_sin_nombre_13" x1="1.78" y1="927.89" x2="8.45" y2="916.32" gradientTransform="translate(0 932.11) scale(1 -1)" gradientUnits="userSpaceOnUse"><stop offset="0" stop-color="#3267b0"/><stop offset=".5" stop-color="#2d5da9"/><stop offset="1" stop-color="#244c9b"/></linearGradient></defs><g id="Capa_1-2"><path class="cls-4" d="M19.14.7H5.51c-.47,0-.85.39-.85.85h0v3.79l7.9,2.32,7.44-2.32V1.55c0-.47-.39-.85-.85-.85h-.01Z"/><path class="cls-5" d="M20,5.34H4.65v4.65l7.9,1.4,7.44-1.4v-4.65h.01Z"/><path class="cls-7" d="M4.65,10v4.65l7.44.93,7.9-.93v-4.65H4.65Z"/><path class="cls-2" d="M5.51,19.3h13.64c.47,0,.85-.39.85-.85h0v-3.79H4.65v3.79c0,.47.39.85.85.85h.01Z"/><path class="cls-8" d="M10.3,4.42h-5.66v11.62h5.66c.47,0,.85-.39.85-.85V5.27c0-.47-.39-.85-.85-.85Z"/><path class="cls-3" d="M9.84,4.89h-5.19v11.62h5.19c.47,0,.85-.39.85-.85V5.74c0-.47-.39-.85-.85-.85Z"/><path class="cls-3" d="M9.84,4.89h-5.19v10.7h5.19c.47,0,.85-.39.85-.85V5.74c0-.47-.39-.85-.85-.85Z"/><path class="cls-3" d="M9.38,4.89h-4.73v10.7h4.73c.47,0,.85-.39.85-.85V5.74c0-.47-.39-.85-.85-.85Z"/><path class="cls-1" d="M.85,4.89h8.53c.47,0,.85.39.85.85v8.53c0,.47-.39.85-.85.85H.85c-.47,0-.85-.39-.85-.85V5.74c0-.47.39-.85.85-.85Z"/><path class="cls-6" d="M3.5,11.42c.02.13.03.24.03.34h.02c0-.09.02-.2.05-.33.02-.13.04-.24.06-.33l.89-3.86h1.16l.93,3.81c.05.23.09.48.11.72h.02c.02-.23.05-.47.1-.7l.74-3.83h1.05l-1.3,5.55h-1.24l-.88-3.67c-.03-.1-.05-.24-.09-.42s-.05-.29-.06-.38h-.02c-.01.09-.03.22-.06.41-.03.18-.05.3-.07.4l-.83,3.66h-1.26l-1.31-5.54h1.08l.81,3.87c.02.08.03.18.05.31h.01Z"/></g></svg>