<?xml version="1.0" encoding="UTF-8"?><svg id="Capa_2" xmlns="http://www.w3.org/2000/svg" xmlns:xlink="http://www.w3.org/1999/xlink" viewBox="0 0 19.72 18.34"><defs><style>.cls-1{fill:#fff;}.cls-2{fill:#0e7d42;}.cls-3{fill:#1a5d38;}.cls-4{fill:#1fa367;}.cls-5{fill:#4eb47f;}.cls-6{fill:url(#Degradado_sin_nombre_22);}.cls-7{opacity:.1;}.cls-7,.cls-8{fill:#010101;isolation:isolate;}.cls-8{opacity:.2;}</style><linearGradient id="Degradado_sin_nombre_22" x1="1.75" y1="-1286.64" x2="8.33" y2="-1275.24" gradientTransform="translate(0 1290.11)" gradientUnits="userSpaceOnUse"><stop offset="0" stop-color="#1b8950"/><stop offset=".5" stop-color="#147f44"/><stop offset="1" stop-color="#116732"/></linearGradient></defs><g id="Capa_1-2"><path class="cls-3" d="m12.38,8.71l-7.79-1.38v10.16c0,.46.38.84.84.84h13.45c.46,0,.84-.38.84-.84h0v-3.74l-7.34-5.04Z"/><path class="cls-4" d="m12.38,0h-6.95c-.46,0-.84.38-.84.84h0v3.74l7.79,4.58,4.13,1.38,3.21-1.38v-4.58L12.38,0Z"/><path class="cls-2" d="m4.58,4.58h7.79v4.58h-7.79v-4.58Z"/><path class="cls-7" d="m10.16,3.67h-5.58v11.46h5.58c.46,0,.84-.38.84-.84V4.51c0-.46-.38-.84-.84-.84Z"/><path class="cls-8" d="m9.7,4.13h-5.12v11.46h5.12c.46,0,.84-.38.84-.84V4.97c0-.46-.38-.84-.84-.84Z"/><path class="cls-8" d="m9.7,4.13h-5.12v10.55h5.12c.46,0,.84-.38.84-.84V4.97c0-.46-.38-.84-.84-.84Z"/><path class="cls-8" d="m9.25,4.13h-4.66v10.55h4.66c.46,0,.84-.38.84-.84V4.97c0-.46-.38-.84-.84-.84Z"/><path class="cls-6" d="m.84,4.13h8.41c.46,0,.84.38.84.84v8.41c0,.46-.38.84-.84.84H.84c-.46,0-.84-.38-.84-.84V4.97c0-.46.38-.84.84-.84Z"/><path class="cls-1" d="m2.6,11.9l1.77-2.74-1.62-2.72h1.3l.88,1.74c.08.17.14.29.17.37h.01c.06-.13.12-.26.18-.38l.94-1.73h1.2l-1.66,2.71,1.7,2.75h-1.27l-1.02-1.91c-.05-.08-.09-.17-.12-.26h-.02c-.03.09-.07.17-.12.25l-1.05,1.92h-1.28Z"/><path class="cls-5" d="m18.87,0h-6.5v4.58h7.34V.84c0-.46-.38-.84-.84-.84h0Z"/><path class="cls-2" d="m12.38,9.17h7.34v4.58h-7.34v-4.58Z"/></g></svg>