<?xml version="1.0" encoding="UTF-8"?><svg id="Capa_2" xmlns="http://www.w3.org/2000/svg" xmlns:xlink="http://www.w3.org/1999/xlink" viewBox="0 0 19.72 18.34"><defs><style>.cls-1{fill:#fff;}.cls-2{fill:#50a1d9;}.cls-3{fill:#17428e;}.cls-4{opacity:.1;}.cls-4,.cls-5{fill:#010101;isolation:isolate;}.cls-5{opacity:.2;}.cls-6{fill:#3a79bd;}.cls-7{fill:#2a5ba7;}.cls-8{fill:url(#Degradado_sin_nombre_23);}</style><linearGradient id="Degradado_sin_nombre_23" x1="1.75" y1="-906.64" x2="8.33" y2="-895.24" gradientTransform="translate(0 910.11)" gradientUnits="userSpaceOnUse"><stop offset="0" stop-color="#3267b0"/><stop offset=".5" stop-color="#2d5da9"/><stop offset="1" stop-color="#244c9b"/></linearGradient></defs><g id="Capa_1-2"><path class="cls-2" d="m18.87,0H5.43c-.46,0-.84.38-.84.84h0v3.74l7.79,2.29,7.34-2.29V.84c0-.46-.38-.84-.84-.84h0Z"/><path class="cls-6" d="m19.72,4.58H4.58v4.58l7.79,1.38,7.34-1.38v-4.58Z"/><path class="cls-7" d="m4.58,9.17v4.58l7.34.92,7.79-.92v-4.58H4.58Z"/><path class="cls-3" d="m5.43,18.34h13.45c.46,0,.84-.38.84-.84h0v-3.74H4.58v3.74c0,.46.38.84.84.84h0Z"/><path class="cls-4" d="m10.16,3.67h-5.58v11.46h5.58c.46,0,.84-.38.84-.84V4.51c0-.46-.38-.84-.84-.84Z"/><path class="cls-5" d="m9.7,4.13h-5.12v11.46h5.12c.46,0,.84-.38.84-.84V4.97c0-.46-.38-.84-.84-.84Z"/><path class="cls-5" d="m9.7,4.13h-5.12v10.55h5.12c.46,0,.84-.38.84-.84V4.97c0-.46-.38-.84-.84-.84Z"/><path class="cls-5" d="m9.25,4.13h-4.66v10.55h4.66c.46,0,.84-.38.84-.84V4.97c0-.46-.38-.84-.84-.84Z"/><path class="cls-8" d="m.84,4.13h8.41c.46,0,.84.38.84.84v8.41c0,.46-.38.84-.84.84H.84c-.46,0-.84-.38-.84-.84V4.97c0-.46.38-.84.84-.84Z"/><path class="cls-1" d="m3.45,10.57c.02.13.03.24.03.34h.02c0-.09.02-.2.05-.33.02-.13.04-.24.06-.33l.88-3.81h1.14l.92,3.76c.05.23.09.47.11.71h.02c.02-.23.05-.46.1-.69l.73-3.78h1.04l-1.28,5.47h-1.22l-.87-3.62c-.03-.1-.05-.24-.09-.41s-.05-.29-.06-.37h-.02c-.01.09-.03.22-.06.4-.03.18-.05.3-.07.39l-.82,3.61h-1.24l-1.29-5.46h1.06l.8,3.82c.02.08.03.18.05.31Z"/></g></svg>