<?xml version="1.0" encoding="UTF-8"?><svg id="Capa_1" xmlns="http://www.w3.org/2000/svg" xmlns:xlink="http://www.w3.org/1999/xlink" viewBox="0 0 20 20"><defs><style>.cls-1{fill:url(#Degradado_sin_nombre_12);}.cls-1,.cls-2,.cls-3,.cls-4,.cls-5,.cls-6,.cls-7,.cls-8{stroke-width:0px;}.cls-2{opacity:.2;}.cls-2,.cls-8{fill:#010101;isolation:isolate;}.cls-3{fill:#0e7d42;}.cls-4{fill:#4eb47f;}.cls-5{fill:#fff;}.cls-6{fill:#1a5d38;}.cls-7{fill:#1fa367;}.cls-8{opacity:.1;}</style><linearGradient id="Degradado_sin_nombre_12" x1="1.78" y1="1047.88" x2="8.45" y2="1036.32" gradientTransform="translate(0 1052.11) scale(1 -1)" gradientUnits="userSpaceOnUse"><stop offset="0" stop-color="#1b8950"/><stop offset=".5" stop-color="#147f44"/><stop offset="1" stop-color="#116732"/></linearGradient></defs><g id="Capa_1-2"><path class="cls-6" d="M12.56,9.54l-7.9-1.4v10.3c0,.47.39.85.85.85h13.64c.47,0,.85-.39.85-.85h0v-3.79s-7.44-5.11-7.44-5.11Z"/><path class="cls-7" d="M12.56.7h-7.05c-.47,0-.85.39-.85.85h0v3.79l7.9,4.65,4.19,1.4,3.26-1.4v-4.65L12.56.7Z"/><path class="cls-3" d="M4.65,5.35h7.9v4.65h-7.9v-4.65Z"/><path class="cls-8" d="M10.3,4.43h-5.66v11.62h5.66c.47,0,.85-.39.85-.85V5.28c0-.47-.39-.85-.85-.85Z"/><path class="cls-2" d="M9.84,4.89h-5.19v11.62h5.19c.47,0,.85-.39.85-.85V5.75c0-.47-.39-.85-.85-.85Z"/><path class="cls-2" d="M9.84,4.89h-5.19v10.7h5.19c.47,0,.85-.39.85-.85V5.75c0-.47-.39-.85-.85-.85Z"/><path class="cls-2" d="M9.38,4.89h-4.73v10.7h4.73c.47,0,.85-.39.85-.85V5.75c0-.47-.39-.85-.85-.85Z"/><path class="cls-1" d="M.85,4.89h8.53c.47,0,.85.39.85.85v8.53c0,.47-.39.85-.85.85H.85c-.47,0-.85-.39-.85-.85V5.75c0-.47.39-.85.85-.85Z"/><path class="cls-5" d="M2.64,12.77l1.8-2.78-1.64-2.76h1.32l.89,1.76c.08.17.14.29.17.38h.01c.06-.13.12-.26.18-.39l.95-1.75h1.22l-1.68,2.75,1.72,2.79h-1.29l-1.03-1.94c-.05-.08-.09-.17-.12-.26h-.02c-.03.09-.07.17-.12.25l-1.06,1.95h-1.3.01Z"/><path class="cls-4" d="M19.14.7h-6.59v4.65h7.44V1.56c0-.47-.39-.85-.85-.85h0Z"/><path class="cls-3" d="M12.56,10.01h7.44v4.65h-7.44s0-4.65,0-4.65Z"/></g></svg>