<?xml version="1.0" encoding="UTF-8"?><svg id="Capa_2" xmlns="http://www.w3.org/2000/svg" viewBox="0 0 18.34 18.34"><defs><style>.cls-1{fill:#fff;}.cls-2{fill:#3076a1;}</style></defs><g id="Capa_1-2"><rect class="cls-2" x="0" y="0" width="18.34" height="18.34" rx="3.01" ry="3.01"/><path id="path16-3" class="cls-1" d="m14.73,12.72c-.72-.02-1.28.05-1.74.25-.13.05-.35.05-.37.22.07.07.08.19.14.29.11.18.3.42.47.55.19.14.38.29.57.41.35.22.75.34,1.09.56.2.13.4.29.59.42.1.07.16.19.29.23v-.03c-.06-.08-.08-.2-.14-.29-.09-.09-.18-.17-.27-.26-.26-.35-.58-.66-.93-.91-.29-.2-.92-.47-1.03-.8,0,0,0,0-.02-.02.2-.02.43-.09.62-.14.31-.08.58-.06.9-.14.14-.04.29-.08.43-.13v-.08c-.16-.16-.28-.38-.45-.53-.46-.4-.96-.78-1.48-1.11-.28-.18-.64-.3-.93-.45-.11-.05-.29-.08-.35-.17-.16-.2-.25-.46-.37-.69-.26-.49-.51-1.04-.74-1.56-.16-.35-.26-.7-.46-1.02-.93-1.53-1.93-2.45-3.48-3.36-.33-.19-.73-.27-1.15-.37-.22,0-.45-.03-.67-.04-.14-.06-.29-.23-.41-.31-.51-.32-1.83-1.02-2.21-.1-.24.58.36,1.16.57,1.46.15.21.35.44.46.67.06.15.08.31.14.48.14.4.28.84.47,1.2.1.19.21.39.33.56.07.1.2.14.22.31-.13.18-.13.45-.21.67-.32,1.02-.2,2.27.26,3.02.14.22.49.72.94.53.4-.16.31-.67.43-1.12.03-.11,0-.18.06-.25,0,0,0,.02,0,.02.13.25.25.49.37.75.28.44.76.9,1.17,1.2.22.16.39.44.66.54v-.03h-.02c-.05-.08-.13-.12-.21-.18-.16-.16-.34-.36-.47-.54-.38-.5-.71-1.06-1.01-1.64-.14-.28-.27-.58-.39-.86-.05-.11-.05-.27-.14-.32-.13.2-.33.37-.43.61-.17.39-.19.86-.25,1.36-.04,0-.02,0-.04.02-.29-.07-.39-.37-.49-.62-.27-.64-.31-1.66-.08-2.4.06-.19.33-.78.22-.96-.05-.17-.23-.27-.33-.4-.12-.17-.24-.39-.32-.58-.22-.5-.32-1.06-.56-1.56-.11-.23-.3-.48-.45-.69-.17-.24-.36-.41-.49-.7-.04-.1-.11-.26-.04-.37.02-.07.05-.1.13-.12.12-.1.45.03.57.08.33.13.61.26.89.45.13.09.26.26.42.31h.19c.29.06.61.02.88.1.48.15.91.38,1.29.62,1.18.75,2.15,1.81,2.8,3.07.11.21.15.4.25.61.19.44.42.89.61,1.32.19.42.37.85.64,1.2.13.19.67.29.92.39.18.08.46.15.62.25.31.19.61.4.9.61.14.11.59.33.62.51h0Z"/><path id="path18-4" class="cls-1" d="m5.71,5.77s.02-.02.02-.02c.13-.09.19-.23.19-.45"/></g></svg>