<?xml version="1.0" encoding="UTF-8"?><svg id="Capa_1" xmlns="http://www.w3.org/2000/svg" viewBox="0 0 20 20"><defs><style>.cls-1{fill:#3076a1;}.cls-1,.cls-2{stroke-width:0px;}.cls-2{fill:#fff;}</style></defs><g id="Capa_1-2"><rect class="cls-1" width="20" height="20" rx="3.28" ry="3.28"/><path id="path16-3" class="cls-2" d="M16.06,13.87c-.79-.02-1.4.05-1.9.27-.14.05-.38.05-.4.24.08.08.09.21.15.32.12.2.33.46.51.6.21.15.41.32.62.45.38.24.82.37,1.19.61.22.14.44.32.64.46.11.08.17.21.32.25v-.03c-.07-.09-.09-.22-.15-.32-.1-.1-.2-.19-.29-.28-.28-.38-.63-.72-1.01-.99-.32-.22-1-.51-1.12-.87l-.02-.02c.22-.02.47-.1.68-.15.34-.09.63-.07.98-.15.15-.04.32-.09.47-.14v-.09c-.17-.17-.31-.41-.49-.58-.5-.44-1.05-.85-1.61-1.21-.31-.2-.7-.33-1.01-.49-.12-.05-.32-.09-.38-.19-.17-.22-.27-.5-.4-.75-.28-.53-.56-1.13-.81-1.7-.17-.38-.28-.76-.5-1.11-1.01-1.67-2.1-2.67-3.79-3.66-.36-.21-.8-.29-1.25-.4-.24,0-.49-.03-.73-.04-.15-.07-.32-.25-.45-.34-.56-.35-2-1.11-2.41-.11-.26.63.39,1.26.62,1.59.16.23.38.48.5.73.07.16.09.34.15.52.15.44.31.92.51,1.31.11.21.23.43.36.61.08.11.22.15.24.34-.14.2-.14.49-.23.73-.35,1.11-.22,2.48.28,3.29.15.24.53.79,1.03.58.44-.17.34-.73.47-1.22.03-.12,0-.2.07-.27v.02c.14.27.27.53.4.82.31.48.83.98,1.28,1.31.24.17.43.48.72.59v-.03h-.02c-.05-.09-.14-.13-.23-.2-.17-.17-.37-.39-.51-.59-.41-.55-.77-1.16-1.1-1.79-.15-.31-.29-.63-.43-.94-.05-.12-.05-.29-.15-.35-.14.22-.36.4-.47.67-.19.43-.21.94-.27,1.48-.04,0-.02,0-.04.02-.32-.08-.43-.4-.53-.68-.29-.7-.34-1.81-.09-2.62.07-.21.36-.85.24-1.05-.05-.19-.25-.29-.36-.44-.13-.19-.26-.43-.35-.63-.24-.55-.35-1.16-.61-1.7-.12-.25-.33-.52-.49-.75-.19-.26-.39-.45-.53-.76-.04-.11-.12-.28-.04-.4.02-.08.05-.11.14-.13.13-.11.49.03.62.09.36.14.67.28.97.49.14.1.28.28.46.34h.21c.32.07.67.02.96.11.52.16.99.41,1.41.68,1.29.82,2.34,1.97,3.05,3.35.12.23.16.44.27.67.21.48.46.97.67,1.44.21.46.4.93.7,1.31.14.21.73.32,1,.43.2.09.5.16.68.27.34.21.67.44.98.67.15.12.64.36.68.56h0Z"/><path id="path18-4" class="cls-2" d="M6.23,6.29l.02-.02c.14-.1.21-.25.21-.49"/></g></svg>