<?xml version="1.0" encoding="UTF-8"?><svg id="Capa_2" xmlns="http://www.w3.org/2000/svg" viewBox="0 0 16.27 18.34"><defs><style>.cls-1{fill:#689f63;}</style></defs><g id="Capa_1-2"><path class="cls-1" d="m8.14,18.34c-.25,0-.49-.06-.7-.19l-2.24-1.33c-.34-.19-.17-.25-.06-.29.45-.16.54-.19,1.01-.46.05-.03.12-.02.17.01l1.72,1.02c.06.03.15.03.21,0l6.72-3.88c.06-.04.1-.11.1-.18v-7.75c0-.08-.04-.15-.1-.19l-6.72-3.88c-.06-.04-.14-.04-.21,0L1.32,5.1c-.07.04-.11.11-.11.18v7.75c0,.07.04.14.1.18l1.84,1.06c1,.5,1.61-.09,1.61-.68v-7.65c0-.11.09-.19.2-.19h.85c.11,0,.19.08.19.19v7.66c0,1.33-.73,2.1-1.99,2.1-.39,0-.69,0-1.55-.42l-1.76-1.02c-.44-.25-.7-.72-.7-1.23v-7.75c0-.5.27-.98.7-1.22L7.43.18c.43-.24.99-.24,1.41,0l6.72,3.88c.43.25.7.72.7,1.22v7.75c0,.5-.27.97-.7,1.22l-6.72,3.88c-.22.12-.46.19-.71.19"/><path class="cls-1" d="m10.5,12.45c-2.59,0-3.14-1.19-3.14-2.19,0-.09.08-.17.17-.17h.77c.08,0,.16.06.17.15.12.78.46,1.17,2.03,1.17,1.25,0,1.78-.28,1.78-.94,0-.38-.15-.66-2.09-.85-1.62-.16-2.62-.52-2.62-1.81,0-1.2,1.01-1.91,2.7-1.91,1.9,0,2.84.66,2.96,2.07,0,.05-.01.1-.05.13-.03.03-.08.05-.13.05h-.77c-.08,0-.15-.06-.17-.13-.19-.82-.63-1.08-1.85-1.08-1.36,0-1.52.47-1.52.83,0,.43.19.56,2.03.8,1.82.24,2.69.58,2.69,1.86s-1.08,2.03-2.95,2.03"/></g></svg>