<?xml version="1.0" encoding="UTF-8"?><svg id="Capa_2" xmlns="http://www.w3.org/2000/svg" viewBox="0 0 18.81 18.34"><defs><style>.cls-1{fill:#53a0d8;}.cls-2{fill:#132035;}</style></defs><g id="Capa_1-2"><g id="Layer_2"><g id="Surfaces"><g id="Photo_Surface"><g id="Outline_no_shadow"><path class="cls-2" d="m3.33,0h12.15c1.84,0,3.33,1.49,3.33,3.33v11.68c0,1.84-1.49,3.33-3.33,3.33H3.33c-1.84,0-3.33-1.49-3.33-3.33V3.33C0,1.49,1.49,0,3.33,0Z"/></g></g></g><g id="Outlined_Mnemonics_Logos"><g id="Ps"><path class="cls-1" d="m4.23,12.86V4.8c0-.05.02-.09.08-.09.13,0,.26,0,.44,0,.19,0,.38,0,.6-.02.21,0,.44,0,.68-.02.24,0,.48,0,.71,0,.64,0,1.18.08,1.61.24.39.13.75.35,1.05.64.25.25.45.56.57.89.12.33.18.67.18,1.02,0,.67-.16,1.23-.47,1.67s-.75.77-1.26.96c-.53.2-1.12.27-1.76.27-.19,0-.31,0-.39,0s-.19,0-.34,0v2.52c0,.05-.03.1-.09.11h-1.52c-.06,0-.09-.03-.09-.1Zm1.71-6.64v2.63c.11,0,.21.02.31.02h.42c.31,0,.61-.05.9-.14.25-.07.47-.22.64-.42.16-.2.24-.46.24-.81,0-.24-.05-.49-.18-.7-.13-.2-.32-.36-.55-.45-.29-.12-.6-.16-.92-.16-.2,0-.38,0-.53,0-.16,0-.27,0-.32,0h0Z"/><path class="cls-1" d="m15.05,8.38c-.24-.13-.49-.21-.75-.27-.29-.06-.58-.1-.88-.1-.16,0-.32.02-.47.05-.1.02-.19.08-.24.16-.04.06-.06.14-.06.21s.03.14.08.2c.07.09.16.16.27.21.18.09.37.18.56.26.42.14.83.34,1.21.57.26.16.47.38.62.65.13.25.19.53.18.81,0,.37-.1.74-.31,1.04-.22.31-.53.56-.88.7-.38.16-.85.25-1.42.25-.36,0-.71-.03-1.07-.1-.27-.05-.55-.13-.8-.25-.05-.03-.09-.09-.09-.15v-1.36s0-.05.03-.07c.02-.02.05,0,.07,0,.31.18.63.31.97.38.3.08.61.12.92.12s.51-.04.65-.11c.13-.05.21-.19.21-.33,0-.11-.06-.21-.19-.31-.13-.1-.38-.22-.77-.37-.4-.14-.77-.33-1.11-.56-.24-.17-.45-.4-.6-.67-.13-.25-.19-.53-.18-.8,0-.34.09-.66.27-.95.2-.31.49-.56.82-.72.37-.19.83-.27,1.39-.27.32,0,.65.02.97.07.24.03.46.09.67.18.03,0,.06.04.08.07,0,.03.02.06.02.09v1.28s-.02.06-.04.08c-.07.02-.11.02-.14,0Z"/></g></g></g></g></svg>