<?xml version="1.0" encoding="UTF-8"?><svg id="Capa_2" xmlns="http://www.w3.org/2000/svg" viewBox="0 0 18.19 18.19"><defs><style>.cls-1{fill:#fff;}.cls-2{fill:#ed6c3f;}</style></defs><g id="Capa_1-2"><path class="cls-2" d="m16.3,3.54C13.23-.44,7.51-1.17,3.54,1.9-.44,4.97-1.17,10.68,1.9,14.66c3.07,3.98,8.78,4.71,12.76,1.64,0,0,0,0,0,0,3.97-3.07,4.71-8.78,1.64-12.76h0Z"/><path class="cls-1" d="m12.17,5.8l-3.84,3.87-1.08-1.11c3.78-3.78,4.15-3.43,4.92-2.75h0Z"/><path class="cls-2" d="m8.33,9.77s-.07-.01-.09-.04l-1.09-1.09c-.05-.05-.05-.14,0-.19,3.72-3.72,4.23-3.55,5.11-2.75.03.02.05.06.05.1,0,.04,0,.07-.04.1l-3.84,3.84s-.06.04-.1.04h0Zm-.89-1.22l.89.89,3.64-3.64c-.26-.33-.72-.4-1.08-.18-.66.3-1.72,1.2-3.46,2.93Z"/><path class="cls-1" d="m9.43,10.73l-1.05-1.07,3.84-3.79c1.03,1.01-.5,2.69-2.79,4.86h0Z"/><path class="cls-2" d="m9.43,10.87s-.07-.02-.09-.04l-1.07-1.05s-.02-.08,0-.12c-.01-.03-.01-.07,0-.1l3.84-3.84c.06-.05.14-.05.2,0,.25.23.39.56.38.9,0,1.02-1.17,2.31-3.15,4.19-.03.03-.06.04-.1.05h0Zm-.85-1.21l.86.86c1.52-1.43,2.96-2.91,2.97-3.91,0-.21-.06-.42-.2-.58l-3.63,3.64Z"/><path class="cls-1" d="m7.28,8.57l.76.76s.02.05,0,.06c0,0,0,0,0,0l-1.6.34c-.07.01-.13-.02-.17-.08s-.02-.13.03-.18l.93-.92s.03,0,.05.02Z"/><path class="cls-2" d="m6.4,9.89c-.1,0-.2-.06-.25-.14-.06-.11-.04-.25.05-.34l.92-.93c.07-.06.17-.06.24,0l.76.76s.06.11.05.17-.07.11-.13.12l-1.6.34-.05.03Zm.85-1.15l-.86.86,1.42-.3-.56-.55Z"/><path class="cls-1" d="m14.2,3.67c-.55-.53-1.41-.55-1.99-.05s-.67,1.36-.23,1.97,1.29.79,1.95.4l-1.03-1.03,1.3-1.29Z"/><path class="cls-2" d="m13.18,6.33c-.64,0-1.22-.4-1.47-1-.24-.6-.11-1.28.34-1.74.63-.62,1.64-.62,2.27,0,.03.02.05.06.05.1,0,.04-.02.07-.05.1l-1.23,1.16.93.92s.04.07.04.11c0,.04-.03.08-.06.1-.25.16-.54.24-.83.25h0Zm0-2.94c-.54,0-1.02.33-1.23.82s-.09,1.07.29,1.45c.39.39.97.5,1.47.28l-.89-.89s-.05-.06-.05-.1c0-.04.02-.07.05-.09l1.18-1.19c-.24-.18-.52-.28-.82-.28h0Z"/><path class="cls-1" d="m14.23,3.69l-1.3,1.29,1.03,1.03c.1-.06.2-.13.29-.21.56-.6.55-1.53-.02-2.11Z"/><path class="cls-2" d="m13.94,6.12s-.07-.01-.09-.04l-1.03-1.03s-.05-.06-.05-.1c0-.04.02-.07.05-.09l1.29-1.27c.04-.06.13-.08.19-.04.02.01.03.02.04.04.63.62.64,1.62.02,2.25,0,0-.02.02-.02.02-.09.09-.19.18-.3.24-.03.01-.06.02-.09,0h0Zm-.83-1.17l.86.86c.06-.04.11-.09.17-.14.25-.25.39-.59.39-.95,0-.32-.12-.63-.33-.86l-1.09,1.09Z"/><path class="cls-1" d="m12.32,5.96c-.21-.2-.54-.2-.76,0l-3.43,3.43.57.58,3.63-3.18c.11-.11.18-.26.17-.41s-.07-.3-.18-.41h0Z"/><path class="cls-2" d="m8.67,10.09s-.07-.01-.09-.04l-.58-.58c-.05-.05-.05-.14,0-.19l3.43-3.42c.27-.27.71-.27.99,0,.14.14.21.32.2.52,0,.19-.09.37-.24.5l-3.63,3.18s-.06.03-.09.02h0Zm-.4-.71l.38.39,3.56-3.1c.09-.08.14-.19.14-.3s-.04-.23-.13-.31c-.17-.16-.43-.16-.6,0l-3.36,3.33Z"/><path class="cls-1" d="m5.47,13.29s-.02.06,0,.09l.15.66c.01.08-.02.16-.09.2-.07.04-.16.03-.22-.02l-1.04-1,3.24-3.26h1.12l.76.76c-1.18,1.03-2.5,1.9-3.92,2.58Z"/><path class="cls-2" d="m5.4,14.4c-.09,0-.17-.04-.23-.1l-.99-.99s-.05-.06-.05-.1c0-.04.02-.07.05-.09l3.26-3.27s.04-.03.07-.04h1.13s.06-.01.09,0l.76.76s.04.07.04.11c0,.04-.02.07-.05.1l-.06.05c-1.19.99-2.49,1.83-3.89,2.49l.14.61c.04.18-.07.35-.24.39-.02,0-.04,0-.07,0l.04.06Zm-.92-1.19l.89.9s.04.02.06,0c.01-.02.01-.04,0-.05l-.15-.66c-.02-.1.02-.2.11-.24,1.36-.66,2.63-1.48,3.79-2.44l-.62-.62h-1.02l-3.07,3.12Z"/><path class="cls-1" d="m3.49,13.99l.76-.76,1.17,1.17-1.86-.13c-.07,0-.12-.05-.14-.12s.01-.13.07-.16h0Z"/><path class="cls-2" d="m5.44,14.51l-1.85-.13c-.11-.01-.2-.09-.24-.19s-.02-.22.06-.3l.76-.76c.05-.05.14-.05.19,0l1.16,1.16s.03.11,0,.15c-.02.03-.04.05-.08.06h0Zm-1.85-.42l1.52.1-.83-.78-.68.68Z"/><path class="cls-1" d="m8.74,10.04l-1.53.24.89-.88.64.64Z"/><path class="cls-2" d="m7.21,10.42c-.05,0-.1-.03-.12-.08-.03-.05-.03-.11,0-.15l.88-.89c.06-.05.14-.05.2,0l.64.64s.03.09,0,.14c-.01.05-.05.09-.11.1l-1.52.24h.02Zm.89-.83l-.49.49.85-.13-.36-.36Z"/><path class="cls-1" d="m8.74,10.04l-1.07.14c-.07.02-.15-.03-.16-.1-.01-.04,0-.09.03-.12l.55-.55.64.64Z"/><path class="cls-2" d="m7.64,10.32c-.1,0-.19-.06-.24-.14-.06-.11-.04-.24.05-.33l.55-.55c.06-.05.14-.05.2,0l.64.64c.05.05.06.14,0,.19-.02.02-.05.04-.09.04l-1.06.14h-.05Zm0-.28l.8-.1-.36-.36-.45.45h0Zm6.6-5.48s-.09-.07-.14-.05c-.03.01-.04.04-.05.06,0,.03,0,.06,0,.08.05.11.04.24-.04.34-.02.02-.03.04-.03.07,0,.03.01.05.03.07.02,0,.04,0,.06,0,.04,0,.07,0,.1-.03.13-.16.15-.37.07-.55h0Z"/></g></svg>