<?xml version="1.0" encoding="UTF-8"?><svg id="Capa_1" xmlns="http://www.w3.org/2000/svg" xmlns:xlink="http://www.w3.org/1999/xlink" viewBox="0 0 20 20"><defs><style>.cls-1{fill:url(#Degradado_sin_nombre_17);}.cls-1,.cls-2,.cls-3,.cls-4,.cls-5,.cls-6,.cls-7,.cls-8,.cls-9,.cls-10,.cls-11,.cls-12,.cls-13,.cls-14,.cls-15{stroke-width:0px;}.cls-2{fill:url(#Degradado_sin_nombre_14);}.cls-3{fill:url(#Degradado_sin_nombre_19);}.cls-4{fill:url(#Degradado_sin_nombre_14-2);}.cls-5{fill:url(#Degradado_sin_nombre_21);}.cls-6{fill:#272b5f;}.cls-7{fill:#131325;}.cls-8{fill:url(#Degradado_sin_nombre_15);}.cls-9{fill:url(#Degradado_sin_nombre_16);}.cls-10{fill:url(#Degradado_sin_nombre_18);}.cls-11{fill:#263168;}.cls-12{fill:url(#Degradado_sin_nombre_20);}.cls-13{fill:url(#Degradado_sin_nombre_23);}.cls-14{fill:#24224b;}.cls-15{fill:url(#Degradado_sin_nombre_22);}</style><linearGradient id="Degradado_sin_nombre_14" x1="-1327.66" y1="892.25" x2="-1327.51" y2="892.25" gradientTransform="translate(75228.2 -50544.9) scale(56.66)" gradientUnits="userSpaceOnUse"><stop offset="0" stop-color="#25326b"/><stop offset="1" stop-color="#26336d"/></linearGradient><linearGradient id="Degradado_sin_nombre_23" x1="-1405.77" y1="853.65" x2="-1405.61" y2="853.65" gradientTransform="translate(814.45 -43010.72) rotate(-120.2) scale(26.16 -26.16)" gradientUnits="userSpaceOnUse"><stop offset="0" stop-color="#293e7c"/><stop offset="1" stop-color="#263b7c"/><stop offset="1" stop-color="#263b7c"/></linearGradient><linearGradient id="Degradado_sin_nombre_22" x1="-1402.32" y1="855.91" x2="-1402.17" y2="855.91" gradientTransform="translate(-66.9 -45693.48) rotate(-121.5) scale(27.82 -27.82)" gradientUnits="userSpaceOnUse"><stop offset="0" stop-color="#304887"/><stop offset="1" stop-color="#224182"/></linearGradient><linearGradient id="Degradado_sin_nombre_21" x1="-1351.22" y1="829.2" x2="-1351.07" y2="829.2" gradientTransform="translate(48178.83 -20760.34) rotate(-54.87) scale(33.09 -33.09)" gradientUnits="userSpaceOnUse"><stop offset="0" stop-color="#273a7b"/><stop offset="0" stop-color="#273a7b"/><stop offset="1" stop-color="#263d7e"/></linearGradient><linearGradient id="Degradado_sin_nombre_20" x1="-1413.3" y1="821.61" x2="-1413.14" y2="821.61" gradientTransform="translate(9435.27 -29242.34) rotate(-102.31) scale(18.8 -18.8)" gradientUnits="userSpaceOnUse"><stop offset="0" stop-color="#24234e"/><stop offset="1" stop-color="#252b5c"/></linearGradient><linearGradient id="Degradado_sin_nombre_19" x1="-1482.59" y1="933.29" x2="-1482.44" y2="933.29" gradientTransform="translate(-13018.93 -13905.11) rotate(-165.32) scale(10.88 -10.88)" gradientUnits="userSpaceOnUse"><stop offset="0" stop-color="#262f65"/><stop offset="1" stop-color="#28336f"/></linearGradient><linearGradient id="Degradado_sin_nombre_18" x1="-1370.21" y1="828.45" x2="-1370.06" y2="828.45" gradientTransform="translate(34984.62 -35094.82) rotate(-76.26) scale(30.95 -30.95)" gradientUnits="userSpaceOnUse"><stop offset="0" stop-color="#1e1c3d"/><stop offset="1" stop-color="#252551"/></linearGradient><linearGradient id="Degradado_sin_nombre_17" x1="-1358.07" y1="828.24" x2="-1357.92" y2="828.24" gradientTransform="translate(43340.21 -28169.21) rotate(-64.42) scale(32.5 -32.5)" gradientUnits="userSpaceOnUse"><stop offset="0" stop-color="#28336f"/><stop offset="1" stop-color="#273a7b"/></linearGradient><linearGradient id="Degradado_sin_nombre_16" x1="-1361.5" y1="829.46" x2="-1361.36" y2="829.46" gradientTransform="translate(41938.08 -31962.25) rotate(-68.68) scale(33.08 -33.08)" gradientUnits="userSpaceOnUse"><stop offset="0" stop-color="#272c62"/><stop offset="1" stop-color="#272b5f"/></linearGradient><linearGradient id="Degradado_sin_nombre_15" x1="-1426.21" y1="782.12" x2="-1426.06" y2="782.12" gradientTransform="translate(9247.18 -19094.89) rotate(-92.93) scale(13.05 -13.05)" gradientUnits="userSpaceOnUse"><stop offset="0" stop-color="#252551"/><stop offset="0" stop-color="#252551"/><stop offset="1" stop-color="#262858"/></linearGradient><linearGradient id="Degradado_sin_nombre_14-2" x1="-1398.54" y1="806.83" x2="-1398.39" y2="806.83" gradientTransform="translate(16573.04 -25469.23) rotate(-86.95) scale(18.82 -18.82)" xlink:href="#Degradado_sin_nombre_14"/></defs><g id="Capa_1-2"><polygon class="cls-2" points="11.05 10.15 11.05 10.15 13.72 9.61 14.09 6.72 9.73 0 4.38 2.87 3.61 9.42 3.1 12.07 2.04 19.05 5.56 20 6.71 14.36 16.54 19.62 17.96 17.48 11.05 10.15"/><polygon class="cls-13" points="9.73 0 14.09 6.72 10.43 5.33 9.73 0"/><polygon class="cls-15" points="13.72 9.61 14.09 6.72 10.43 5.33 11.05 10.15 13.72 9.61"/><polygon class="cls-5" points="17.96 17.48 11.05 10.15 7.14 11.48 6.71 14.36 16.54 19.62 17.96 17.48"/><polygon class="cls-12" points="7.14 11.48 8.17 7.06 11.05 10.15 7.14 11.48"/><polygon class="cls-3" points="9.73 0 8.17 7.06 11.05 10.15 9.73 0"/><polygon class="cls-6" points="4.38 2.87 8.17 7.06 8.7 4.68 4.38 2.87"/><polygon class="cls-10" points="3.61 9.42 4.38 2.87 8.17 7.06 7.14 11.48 3.61 9.42"/><polygon class="cls-14" points="9.73 0 4.38 2.87 8.7 4.68 9.73 0"/><polygon class="cls-11" points="7.14 11.48 5.42 13.85 6.71 14.36 7.14 11.48"/><polygon class="cls-1" points="6.71 14.36 5.56 20 2.04 19.05 5.42 13.85 6.71 14.36"/><polygon class="cls-9" points="5.42 13.85 3.1 12.07 2.04 19.05 5.42 13.85"/><polygon class="cls-8" points="3.1 12.07 7.14 11.48 5.42 13.85 3.1 12.07"/><polygon class="cls-7" points="3.1 12.07 3.61 9.42 7.14 11.48 3.1 12.07"/><polygon class="cls-4" points="10.43 5.33 8.7 4.68 9.73 0 10.43 5.33"/></g></svg>