<?xml version="1.0" encoding="UTF-8"?><svg id="Capa_2" xmlns="http://www.w3.org/2000/svg" xmlns:xlink="http://www.w3.org/1999/xlink" viewBox="0 0 14.6 18.34"><defs><style>.cls-1{fill:url(#Degradado_sin_nombre_13);}.cls-2{fill:#263168;}.cls-3{fill:url(#Degradado_sin_nombre_21);}.cls-4{fill:url(#Degradado_sin_nombre_18);}.cls-5{fill:#131325;}.cls-6{fill:url(#Degradado_sin_nombre_15);}.cls-7{fill:url(#Degradado_sin_nombre_12-2);}.cls-8{fill:url(#Degradado_sin_nombre_19);}.cls-9{fill:#272b5f;}.cls-10{fill:url(#Degradado_sin_nombre_14);}.cls-11{fill:url(#Degradado_sin_nombre_20);}.cls-12{fill:#24224b;}.cls-13{fill:url(#Degradado_sin_nombre_17);}.cls-14{fill:url(#Degradado_sin_nombre_16);}.cls-15{fill:url(#Degradado_sin_nombre_12);}</style><linearGradient id="Degradado_sin_nombre_12" x1="-278.55" y1="-331.9" x2="-278.41" y2="-331.9" gradientTransform="translate(15783.32 -18796.24) scale(56.66 -56.66)" gradientUnits="userSpaceOnUse"><stop offset="0" stop-color="#25326b"/><stop offset="1" stop-color="#26336d"/></linearGradient><linearGradient id="Degradado_sin_nombre_21" x1="-299.68" y1="-327.82" x2="-299.54" y2="-327.82" gradientTransform="translate(3478.47 -11084.24) rotate(-120.2) scale(26.16)" gradientUnits="userSpaceOnUse"><stop offset="0" stop-color="#293e7c"/><stop offset="1" stop-color="#263b7c"/><stop offset="1" stop-color="#263b7c"/></linearGradient><linearGradient id="Degradado_sin_nombre_20" x1="-297.96" y1="-327.81" x2="-297.82" y2="-327.81" gradientTransform="translate(3455.48 -11821.75) rotate(-121.5) scale(27.82)" gradientUnits="userSpaceOnUse"><stop offset="0" stop-color="#304887"/><stop offset="1" stop-color="#224182"/></linearGradient><linearGradient id="Degradado_sin_nombre_19" x1="-288.73" y1="-313.89" x2="-288.59" y2="-313.89" gradientTransform="translate(13999.44 -1820.12) rotate(-54.87) scale(33.09)" gradientUnits="userSpaceOnUse"><stop offset="0" stop-color="#273a7b"/><stop offset="0" stop-color="#273a7b"/><stop offset="1" stop-color="#263d7e"/></linearGradient><linearGradient id="Degradado_sin_nombre_18" x1="-305.62" y1="-320.15" x2="-305.48" y2="-320.15" gradientTransform="translate(4663.37 -6888.07) rotate(-102.31) scale(18.8)" gradientUnits="userSpaceOnUse"><stop offset="0" stop-color="#24234e"/><stop offset="1" stop-color="#252b5c"/></linearGradient><linearGradient id="Degradado_sin_nombre_17" x1="-307.05" y1="-360.26" x2="-306.91" y2="-360.26" gradientTransform="translate(-2229.63 -4632.22) rotate(-165.32) scale(10.88)" gradientUnits="userSpaceOnUse"><stop offset="0" stop-color="#262f65"/><stop offset="1" stop-color="#28336f"/></linearGradient><linearGradient id="Degradado_sin_nombre_16" x1="-293.8" y1="-315.14" x2="-293.66" y2="-315.14" gradientTransform="translate(11636.17 -6507.6) rotate(-76.26) scale(30.95)" gradientUnits="userSpaceOnUse"><stop offset="0" stop-color="#1e1c3d"/><stop offset="1" stop-color="#252551"/></linearGradient><linearGradient id="Degradado_sin_nombre_15" x1="-289.56" y1="-314.01" x2="-289.42" y2="-314.01" gradientTransform="translate(13269.18 -4064.31) rotate(-64.42) scale(32.5)" gradientUnits="userSpaceOnUse"><stop offset="0" stop-color="#28336f"/><stop offset="1" stop-color="#273a7b"/></linearGradient><linearGradient id="Degradado_sin_nombre_14" x1="-290.32" y1="-314.43" x2="-290.19" y2="-314.43" gradientTransform="translate(13181.43 -5148.54) rotate(-68.68) scale(33.08)" gradientUnits="userSpaceOnUse"><stop offset="0" stop-color="#272c62"/><stop offset="1" stop-color="#272b5f"/></linearGradient><linearGradient id="Degradado_sin_nombre_13" x1="-313.44" y1="-311.03" x2="-313.3" y2="-311.03" gradientTransform="translate(3846.45 -4279.16) rotate(-92.93) scale(13.05)" gradientUnits="userSpaceOnUse"><stop offset="0" stop-color="#252551"/><stop offset="0" stop-color="#252551"/><stop offset="1" stop-color="#262858"/></linearGradient><linearGradient id="Degradado_sin_nombre_12-2" x1="-305.47" y1="-314.16" x2="-305.33" y2="-314.16" gradientTransform="translate(6216.45 -5420.69) rotate(-86.95) scale(18.82)" xlink:href="#Degradado_sin_nombre_12"/></defs><g id="Capa_1-2"><polygon class="cls-15" points="8.26 9.31 8.26 9.31 10.71 8.81 11.05 6.16 7.05 0 2.15 2.63 1.44 8.64 .97 11.07 0 17.47 3.23 18.34 4.28 13.17 13.3 17.99 14.6 16.03 8.26 9.31"/><polygon class="cls-3" points="7.05 0 11.05 6.16 7.69 4.89 7.05 0"/><polygon class="cls-11" points="10.71 8.81 11.05 6.16 7.69 4.89 8.26 9.31 10.71 8.81"/><polygon class="cls-8" points="14.6 16.03 8.26 9.31 4.68 10.53 4.28 13.17 13.3 17.99 14.6 16.03"/><polygon class="cls-4" points="4.68 10.53 5.62 6.47 8.26 9.31 4.68 10.53"/><polygon class="cls-13" points="7.05 0 5.62 6.47 8.26 9.31 7.05 0"/><polygon class="cls-9" points="2.15 2.63 5.62 6.47 6.11 4.29 2.15 2.63"/><polygon class="cls-14" points="1.44 8.64 2.15 2.63 5.62 6.47 4.68 10.53 1.44 8.64"/><polygon class="cls-12" points="7.05 0 2.15 2.63 6.11 4.29 7.05 0"/><polygon class="cls-2" points="4.68 10.53 3.1 12.7 4.28 13.17 4.68 10.53"/><polygon class="cls-6" points="4.28 13.17 3.23 18.34 0 17.47 3.1 12.7 4.28 13.17"/><polygon class="cls-10" points="3.1 12.7 .97 11.07 0 17.47 3.1 12.7"/><polygon class="cls-1" points=".97 11.07 4.68 10.53 3.1 12.7 .97 11.07"/><polygon class="cls-5" points=".97 11.07 1.44 8.64 4.68 10.53 .97 11.07"/><polygon class="cls-7" points="7.69 4.89 6.11 4.29 7.05 0 7.69 4.89"/></g></svg>