<?xml version="1.0" encoding="UTF-8"?><svg id="Capa_1" xmlns="http://www.w3.org/2000/svg" viewBox="0 0 20 20"><defs><style>.cls-1{fill:#01609f;stroke-width:0px;}</style></defs><g id="Capa_1-2"><path class="cls-1" d="M19.19,4.35L12.68.6s-1.04-.6-2.67-.6-2.7.62-2.7.62L1.26,4.07l9.17,5.27v10.65l6.04-3.45s1.08-.6,1.9-2.01c.72-1.24.82-2.45.82-2.45v-7.73h0ZM9.38,6.09s1.34-.25,2.49.4c1.13.65,1.81,1.05,1.81,1.05v2.28c0,1.09-.93,2.22-.93,2.22v-4.01s-3.37-1.94-3.37-1.94ZM14.71,14.89l-1.96,1.12v-1.06l1.53-.87c1.46-1.05,1.7-2.6,1.7-3.13v-4.75l-4.18-2.4s-.63-.41-1.78-.41-1.76.38-1.76.38l-1.46.84-.93-.53,2.03-1.16s.8-.44,2.12-.44c1.22,0,2.17.48,2.17.48l4.71,2.72v5.19c.03.8-.35,2.75-2.18,4.03h-.01Z"/><path class="cls-1" d="M.81,7.52l6.43,3.69v1.1l-3.66-2.09-2.3,1.31,5.95,3.44v1.06L.85,12.34c.02.43.4,1.76,1.16,2.78.75,1.04,1.62,1.48,1.62,1.48l5.9,3.39v-10.13L.81,4.87v2.65Z"/></g></svg>