<?xml version="1.0" encoding="UTF-8"?><svg id="Capa_2" xmlns="http://www.w3.org/2000/svg" viewBox="0 0 16.86 18.34"><defs><style>.cls-1{fill:#01609f;}</style></defs><g id="Capa_1-2"><path class="cls-1" d="m16.86,3.99L10.89.55s-.95-.55-2.45-.55-2.48.57-2.48.57L.42,3.73l8.41,4.83v9.77l5.54-3.16s.99-.55,1.74-1.84c.66-1.14.75-2.25.75-2.25V3.99h0Zm-9,1.59s1.23-.23,2.28.37c1.04.6,1.66.96,1.66.96,0,0,0,.84,0,2.09,0,1-.85,2.04-.85,2.04v-3.68s-3.09-1.78-3.09-1.78Zm4.89,8.07l-1.8,1.03v-.97l1.4-.8c1.34-.96,1.56-2.38,1.56-2.87v-4.36s-3.83-2.2-3.83-2.2c0,0-.58-.38-1.63-.38s-1.61.35-1.61.35l-1.34.77-.85-.49,1.86-1.06s.73-.4,1.94-.4c1.12,0,1.99.44,1.99.44l4.32,2.49v4.76c.03.73-.32,2.52-2,3.7Z"/><path class="cls-1" d="m0,6.9l5.9,3.38v1.01s-3.36-1.92-3.36-1.92l-2.11,1.2,5.46,3.15v.97S.04,11.32.04,11.32c.02.39.37,1.61,1.06,2.55.69.95,1.49,1.36,1.49,1.36l5.41,3.11v-9.29L0,4.47v2.43Z"/></g></svg>