<?xml version="1.0" encoding="UTF-8"?><svg id="Capa_2" xmlns="http://www.w3.org/2000/svg" xmlns:xlink="http://www.w3.org/1999/xlink" viewBox="0 0 22 22"><defs><style>.cls-1{fill:none;}.cls-1,.cls-2{stroke-width:0px;}.cls-2{fill:#fff;}.cls-3{clip-path:url(#clippath);}</style><clipPath id="clippath"><rect class="cls-1" width="22" height="22"/></clipPath></defs><g id="Capa_1-2"><g class="cls-3"><g id="Capa-1"><path class="cls-2" d="M18.02,22h-.02c-3.76-.12-8.16-3.77-11.19-6.8C3.76,12.17.12,7.76,0,4.02-.04,2.71,3.18.37,3.21.35c.84-.58,1.76-.38,2.14.15.26.36,2.7,4.06,2.96,4.48.28.43.24,1.08-.11,1.73-.19.36-.82,1.47-1.11,1.98.32.45,1.16,1.56,2.9,3.3,1.74,1.74,2.85,2.58,3.3,2.9.52-.29,1.62-.92,1.98-1.11.64-.34,1.29-.38,1.73-.11.45.27,4.14,2.73,4.48,2.97.29.2.47.54.51.94.04.4-.09.83-.35,1.2-.02.03-2.33,3.21-3.63,3.21Z"/></g></g></g></svg>