<?xml version="1.0" encoding="UTF-8"?><svg id="Capa_1" xmlns="http://www.w3.org/2000/svg" xmlns:xlink="http://www.w3.org/1999/xlink" viewBox="0 0 20 20"><defs><style>.cls-1{fill:url(#Degradado_sin_nombre_24);fill-rule:evenodd;}.cls-1,.cls-2,.cls-3,.cls-4{stroke-width:0px;}.cls-2{fill:#0866aa;}.cls-3{fill:#2178bd;}.cls-4{fill:#4096d2;}.cls-5{opacity:.25;}</style><linearGradient id="Degradado_sin_nombre_24" x1="9.99" y1="1336.12" x2="9.99" y2="1356" gradientTransform="translate(0 -1336.06)" gradientUnits="userSpaceOnUse"><stop offset="0" stop-color="#fff"/><stop offset="1" stop-color="#fff" stop-opacity="0"/></linearGradient></defs><g id="Capa_1-2"><path class="cls-2" d="M19.28,2.16L15.18.18c-.48-.23-1.05-.13-1.42.24L.27,12.71c-.36.33-.36.9,0,1.24l1.11,1c.29.27.75.29,1.06.04L18.67,2.69c.54-.41,1.32-.02,1.32.66v-.04c0-.48-.27-.92-.7-1.13h0Z"/><path class="cls-3" d="M19.28,17.84l-4.12,1.98c-.48.23-1.05.13-1.42-.24L.27,7.29c-.36-.33-.36-.9,0-1.24l1.11-1c.29-.27.75-.29,1.06-.04l16.23,12.31c.54.41,1.32.02,1.32-.66v.04c0,.48-.27.92-.7,1.13Z"/><path class="cls-4" d="M15.18,19.82c-.48.23-1.05.13-1.42-.24.47.47,1.25.13,1.25-.52V.94c0-.65-.79-.98-1.25-.52.38-.38.94-.47,1.42-.24l4.12,1.98c.43.21.7.65.7,1.13v13.42c0,.48-.27.92-.7,1.13,0,0-4.12,1.98-4.12,1.98Z"/><g class="cls-5"><path class="cls-1" d="M14.17,19.85c.31.12.67.12.99-.04l4.12-1.98c.43-.21.7-.65.7-1.13V3.29c0-.48-.27-.92-.7-1.13L15.17.18c-.41-.21-.9-.15-1.27.12-.05.04-.1.08-.15.13l-7.88,7.19-3.43-2.6c-.31-.24-.77-.23-1.06.04l-1.11,1c-.36.33-.37.9,0,1.24l2.97,2.71L.27,12.71c-.36.33-.36.9,0,1.24l1.11,1c.29.27.75.29,1.06.04l3.43-2.6,7.88,7.19c.12.12.27.22.43.28h-.01ZM14.99,5.46l-5.97,4.53,5.97,4.53s0-9.06,0-9.06Z"/></g></g></svg>