<?xml version="1.0" encoding="UTF-8"?><svg id="Capa_2" xmlns="http://www.w3.org/2000/svg" xmlns:xlink="http://www.w3.org/1999/xlink" viewBox="0 0 18.45 18.34"><defs><style>.cls-1{fill:url(#Degradado_sin_nombre_2);}.cls-1,.cls-2{fill-rule:evenodd;}.cls-3{fill:#4096d2;}.cls-4{fill:#2178bd;}.cls-2{fill:#fff;}.cls-5{fill:#0866aa;}.cls-6{mask:url(#mask);}.cls-7{opacity:.25;}</style><mask id="mask" x="0" y="0" width="18.45" height="18.34" maskUnits="userSpaceOnUse"><g id="mask0"><path class="cls-2" d="m13.08,18.26c.29.11.62.11.91-.04l3.8-1.83c.4-.19.65-.6.65-1.04V2.98c0-.44-.25-.85-.65-1.04L14,.11c-.38-.19-.83-.14-1.17.11-.05.04-.09.07-.14.12l-7.27,6.63-3.16-2.4c-.29-.22-.71-.21-.98.04l-1.02.92c-.33.3-.34.83,0,1.14l2.74,2.5L.26,11.67c-.33.3-.33.83,0,1.14l1.02.92c.27.25.69.27.98.04l3.16-2.4,7.27,6.63c.11.12.25.2.4.26Zm.76-13.28l-5.51,4.18,5.51,4.18V4.98Z"/></g></mask><linearGradient id="Degradado_sin_nombre_2" x1="9.22" y1="-256.06" x2="9.22" y2="-274.4" gradientTransform="translate(0 -256.06) scale(1 -1)" gradientUnits="userSpaceOnUse"><stop offset="0" stop-color="#fff"/><stop offset="1" stop-color="#fff" stop-opacity="0"/></linearGradient></defs><g id="Capa_1-2"><g class="cls-6"><path class="cls-5" d="m17.79,1.94L14,.11c-.44-.21-.97-.12-1.31.22L.25,11.67c-.33.3-.33.83,0,1.14l1.02.92c.27.25.69.27.98.04L17.22,2.42c.5-.38,1.22-.02,1.22.61v-.04c0-.44-.25-.85-.65-1.04Z"/><path class="cls-4" d="m17.79,16.4l-3.8,1.83c-.44.21-.97.12-1.31-.22L.25,6.67c-.33-.3-.33-.83,0-1.14l1.02-.92c.27-.25.69-.27.98-.04l14.97,11.36c.5.38,1.22.02,1.22-.61v.04c0,.44-.25.85-.65,1.04Z"/><path class="cls-3" d="m14,18.23c-.44.21-.97.12-1.31-.22.43.43,1.15.12,1.15-.48V.81c0-.6-.73-.9-1.15-.48.35-.35.87-.43,1.31-.22l3.8,1.83c.4.19.65.6.65,1.04v12.38c0,.44-.25.85-.65,1.04l-3.8,1.83Z"/><g class="cls-7"><path class="cls-1" d="m13.07,18.26c.29.11.62.11.91-.04l3.8-1.83c.4-.19.65-.6.65-1.04V2.98c0-.44-.25-.85-.65-1.04L13.99.11c-.38-.19-.83-.14-1.17.11-.05.04-.09.07-.14.12l-7.27,6.63-3.16-2.4c-.29-.22-.71-.21-.98.04l-1.02.92c-.33.3-.34.83,0,1.14l2.74,2.5L.25,11.67c-.33.3-.33.83,0,1.14l1.02.92c.27.25.69.27.98.04l3.16-2.4,7.27,6.63c.11.11.25.2.4.26Zm.76-13.28l-5.51,4.18,5.51,4.18V4.98Z"/></g></g></g></svg>