<?xml version="1.0" encoding="UTF-8"?><svg id="Capa_2" xmlns="http://www.w3.org/2000/svg" viewBox="0 0 22 20"><defs><style>.cls-1{fill:#fff;stroke-width:0px;}</style></defs><g id="Capa_1-2"><g id="Capa-1"><path class="cls-1" d="M17.21,15c-.9,1.11-2.08,1.99-3.44,2.5.31-.73.56-1.58.76-2.5h-2.06c-.48,1.98-1.15,3-1.46,3s-.98-1.02-1.46-3h-2.06c.19.92.44,1.77.76,2.5-1.37-.51-2.54-1.39-3.44-2.5h-2.44c1.73,2.98,4.96,5,8.65,5s6.92-2.02,8.65-5h-2.44ZM4.79,5c.9-1.11,2.08-1.99,3.44-2.5-.31.73-.56,1.58-.76,2.5h2.06c.48-1.98,1.15-3,1.46-3s.98,1.02,1.46,3h2.06c-.19-.92-.44-1.77-.76-2.5,1.37.51,2.54,1.39,3.44,2.5h2.44C17.92,2.02,14.69,0,11,0S4.09,2.02,2.35,5h2.44Z"/><path class="cls-1" d="M4.75,10.37l.54-3.37h1.5l-1.24,6h-1.3l-.85-3.47-.85,3.47h-1.31L0,7h1.51l.53,3.37.8-3.37h1.12l.8,3.37ZM12.36,10.37l.54-3.37h1.5l-1.24,6h-1.3l-.85-3.47-.85,3.47h-1.31l-1.24-6h1.51l.53,3.37.8-3.37h1.11l.8,3.37ZM19.96,10.37l.54-3.37h1.5l-1.24,6h-1.3l-.85-3.47-.85,3.47h-1.31l-1.24-6h1.51l.53,3.37.8-3.37h1.11l.8,3.37Z"/></g></g></svg>