<?xml version="1.0" encoding="UTF-8"?><svg id="Capa_2" xmlns="http://www.w3.org/2000/svg" viewBox="0 0 18.34 18.34"><defs><style>.cls-1{fill:#464443;}</style></defs><g id="Capa_1-2"><path class="cls-1" d="m1.3,9.17c0,3.11,1.81,5.8,4.43,7.08L1.98,5.97c-.44.98-.68,2.06-.68,3.2Z"/><path class="cls-1" d="m14.48,8.77c0-.97-.35-1.65-.65-2.17-.4-.65-.77-1.2-.77-1.84,0-.72.55-1.4,1.32-1.4.03,0,.07,0,.1,0-1.4-1.28-3.26-2.07-5.31-2.07-2.75,0-5.17,1.41-6.57,3.55.18,0,.36,0,.51,0,.82,0,2.1-.1,2.1-.1.42-.02.47.6.05.65,0,0-.43.05-.9.07l2.86,8.52,1.72-5.16-1.23-3.36c-.42-.02-.82-.07-.82-.07-.42-.02-.37-.67.05-.65,0,0,1.3.1,2.07.1.82,0,2.1-.1,2.1-.1.42-.02.47.6.05.65,0,0-.43.05-.9.07l2.84,8.46.78-2.62c.34-1.09.6-1.87.6-2.54Z"/><path class="cls-1" d="m9.31,9.86l-2.36,6.86c.7.21,1.45.32,2.22.32.92,0,1.79-.16,2.61-.45-.02-.03-.04-.07-.06-.11l-2.42-6.62Z"/><path class="cls-1" d="m16.07,5.4c.03.25.05.52.05.81,0,.8-.15,1.7-.6,2.82l-2.4,6.95c2.34-1.36,3.91-3.9,3.91-6.8,0-1.37-.35-2.65-.96-3.77Z"/><path class="cls-1" d="m9.17,0C4.11,0,0,4.11,0,9.17s4.11,9.17,9.17,9.17,9.17-4.11,9.17-9.17C18.34,4.11,14.23,0,9.17,0Zm0,17.92C4.35,17.92.42,13.99.42,9.17S4.35.42,9.17.42s8.75,3.92,8.75,8.75-3.92,8.75-8.75,8.75Z"/></g></svg>