<svg width="140" height="138" viewBox="0 0 140 138" fill="none" xmlns="http://www.w3.org/2000/svg">
<path fill-rule="evenodd" clip-rule="evenodd" d="M0.139764 70.0018C0.139764 100.881 20.3352 127.917 48.0077 136.231C51.0126 136.999 52.4801 134.694 52.4801 133.227V120.442C35.2895 123.446 30.0485 116.67 29.2798 112.198C28.5112 109.963 25.5063 103.955 21.8026 102.418C19.5665 100.881 16.5616 97.8767 21.8026 97.8767C27.0437 97.8767 31.516 102.418 32.2847 105.422C38.9932 115.971 48.0077 112.967 52.4801 110.661C53.2488 106.12 54.7162 103.116 56.9524 100.881C41.998 99.3438 24.8075 92.6371 24.8075 66.2991C24.8075 58.754 27.0437 52.7458 32.2847 46.7377C32.2847 45.9692 30.0485 39.1926 33.7522 29.412C33.7522 29.412 38.9932 27.8749 53.1789 36.957C58.4199 35.42 64.4296 34.7214 70.3694 34.7214C76.3092 34.7214 82.3189 35.4899 87.56 36.957C101.047 27.9448 106.987 29.412 106.987 29.412C110.76 39.1926 108.454 45.9692 107.755 47.4363C111.529 51.9773 115.233 58.754 115.233 66.9977C115.233 94.1042 99.5095 100.112 83.0876 101.579C85.3238 103.815 87.56 108.356 87.56 114.364V133.926C87.56 135.462 89.0274 137.698 92.0323 136.93C119.705 127.149 139.9 101.579 139.9 70.7004C139.9 32.3461 109.223 0 69.6007 0C29.9786 0 0 31.5776 0 69.9319L0.139764 70.0018Z" fill="#EADEC4"/>
</svg>
