<svg width="185" height="215" viewBox="0 0 185 215" fill="none" xmlns="http://www.w3.org/2000/svg">
<path d="M39.7498 6.93917C39.7498 3.10644 42.8461 0 46.6663 0H150.416L185 34.6963V194.3C185 198.133 181.903 201.239 178.083 201.239H46.6667C42.8465 201.239 39.7502 198.133 39.7502 194.3L39.7498 6.93917Z" fill="#FFC4A6"/>
<path d="M146.959 104.089H77.7917C73.9714 104.089 70.8751 100.983 70.8751 97.15V58.9837C70.8751 55.151 73.9714 52.0446 77.7917 52.0446H146.959C150.779 52.0446 153.875 55.151 153.875 58.9837V97.15C153.875 100.983 150.779 104.089 146.959 104.089Z" fill="#AFB9D2"/>
<path d="M98.5418 104.089H77.7917C73.9714 104.089 70.8751 100.983 70.8751 97.15V58.9837C70.8751 55.151 73.9714 52.0446 77.7917 52.0446H98.5418V104.089Z" fill="#9BF57D"/>
<path d="M153.875 69.3928H70.8751V58.9841C70.8751 55.1514 73.9714 52.0449 77.7917 52.0449H146.959C150.779 52.0449 153.875 55.1514 153.875 58.9841V69.3928Z" fill="#7DC86E"/>
<path d="M150.417 0V27.7571C150.417 31.5894 153.514 34.6963 157.333 34.6963H185L150.417 0Z" fill="#FF5800"/>
<path d="M119.292 176.952H25.9166C22.0963 176.952 19 173.845 19 170.012V135.316C19 131.483 22.0963 128.377 25.9166 128.377H119.292C123.112 128.377 126.208 131.483 126.208 135.316V170.012C126.208 173.845 123.112 176.952 119.292 176.952Z" fill="#9BF57D"/>
<path d="M43.208 157.264L51.2905 165.373C51.9235 166.008 52.7534 166.326 53.5829 166.326C54.4123 166.326 55.2426 166.008 55.8752 165.373C57.1414 164.103 57.1414 162.043 55.8752 160.773L47.7926 152.664L55.8752 144.555C57.1414 143.285 57.1414 141.225 55.8752 139.955C54.6089 138.685 52.556 138.685 51.2901 139.955L43.2076 148.064L35.1251 139.955C33.8588 138.685 31.8059 138.685 30.54 139.955C29.2738 141.226 29.2738 143.285 30.54 144.555L38.6226 152.664L30.54 160.773C29.2738 162.043 29.2738 164.103 30.54 165.373C31.173 166.008 32.0029 166.326 32.8323 166.326C33.6618 166.326 34.4917 166.008 35.1247 165.373L43.208 157.264Z" fill="#231F20"/>
<path d="M67.4168 166.326H84.7086C86.499 166.326 87.9509 164.87 87.9509 163.073C87.9509 161.277 86.4994 159.82 84.7086 159.82H70.6591V142.255C70.6591 140.459 69.2076 139.002 67.4168 139.002C65.6259 139.002 64.1744 140.458 64.1744 142.255V163.073C64.1744 164.87 65.6259 166.326 67.4168 166.326Z" fill="#231F20"/>
<path d="M102.943 155.82C106.735 156.771 108.802 157.618 109.096 158.342C108.59 158.863 106.685 159.82 103.729 159.82C100.458 159.82 98.3585 158.688 98.0087 158.201C97.2439 156.595 95.3306 155.901 93.7169 156.654C92.0931 157.411 91.3886 159.346 92.1433 160.974C93.8556 164.671 99.1961 166.326 103.729 166.326C110.506 166.326 115.617 162.97 115.617 158.519C115.617 152.293 108.936 150.617 104.516 149.508C100.723 148.557 98.6566 147.71 98.3622 146.986C98.8685 146.465 100.773 145.508 103.729 145.508C107 145.508 109.1 146.64 109.45 147.127C110.214 148.734 112.128 149.427 113.741 148.674C115.365 147.917 116.07 145.982 115.315 144.354C113.603 140.657 108.262 139.002 103.729 139.002C96.9519 139.002 91.8411 142.358 91.8411 146.809C91.8411 153.035 98.5223 154.711 102.943 155.82Z" fill="#231F20"/>
<path d="M146.959 48.7916H77.7917C72.1899 48.7916 67.6328 53.3636 67.6328 58.9837V97.15C67.6328 102.77 72.1899 107.342 77.7917 107.342H146.959C152.56 107.342 157.117 102.77 157.117 97.15V58.9837C157.117 53.364 152.56 48.7916 146.959 48.7916ZM101.784 83.4883V72.6458H122.967V83.4883H101.784ZM122.966 89.9937V100.836H101.784V89.9937H122.966ZM74.117 72.6454H95.2995V83.4879H74.117V72.6454ZM101.784 66.14V55.2975H122.967V66.14H101.784ZM129.451 72.6454H150.633V83.4879H129.451V72.6454ZM150.633 58.9837V66.14H129.451V55.2975H146.959C148.985 55.2975 150.633 56.9509 150.633 58.9837ZM77.7917 55.2975H95.2995V66.14H74.117V58.9837C74.117 56.9509 75.7655 55.2975 77.7917 55.2975ZM74.117 97.15V89.9937H95.2995V100.836H77.7917C75.7655 100.836 74.117 99.1828 74.117 97.15ZM146.959 100.836H129.451V89.9937H150.633V97.15C150.633 99.1828 148.985 100.836 146.959 100.836Z" fill="#696868"/>
<g clip-path="url(#clip0_499_10)">
<rect y="86" width="129" height="129" rx="16" fill="white"/>
<rect x="-82" y="4" width="294" height="294" rx="10" fill="#120949"/>
<path d="M102.371 114.802L69.9437 147.537L64.4501 153.062L58.9564 147.537L26.5239 114.802H26.1843L14.1981 189.443H40.283L44.3383 161.821L64.4551 181.322L84.1823 161.821L88.717 189.443H114.802L102.596 114.802H102.371Z" fill="white"/>
<path d="M100.604 105.877H28.3962L64.5 141.981L100.604 105.877Z" fill="#FF5800"/>
<path d="M4.86792 198.774H124.132V200.132C124.132 205.655 119.655 210.132 114.132 210.132H14.8679C9.34507 210.132 4.86792 205.655 4.86792 200.132V198.774Z" fill="#FF5800"/>
</g>
<defs>
<clipPath id="clip0_499_10">
<rect y="86" width="129" height="129" rx="16" fill="white"/>
</clipPath>
</defs>
</svg>
