<svg width="140" height="88" viewBox="0 0 140 88" fill="none" xmlns="http://www.w3.org/2000/svg">
<path d="M56.3235 39.2625C64.0103 35.5598 68.0634 29.9708 68.0634 21.3079C68.0634 4.19174 55.2753 0 40.6004 0H0V86.0002H41.7185C57.3717 86.0002 72.0465 78.5249 72.0465 61.0594C72.0465 50.2308 66.9453 42.2665 56.3235 39.3323V39.2625ZM18.8677 14.671H36.6172C43.4655 14.671 49.5451 16.5573 49.5451 24.5216C49.5451 31.8571 44.7932 34.7913 38.0149 34.7913H18.8677V14.7409V14.671ZM39.1329 71.399H18.9375V47.7158H39.5522C47.868 47.7158 53.109 51.2089 53.109 60.0115C53.109 68.8141 46.8198 71.399 39.1329 71.399ZM126.134 12.9943H91.2636V4.54104H126.134V12.9943ZM139.76 55.7499C139.76 37.3063 128.999 22.0065 109.432 22.0065C89.866 22.0065 77.5671 36.2584 77.5671 54.9814C77.5671 73.7044 89.7961 87.6768 109.432 87.6768C124.317 87.6768 133.96 80.9701 138.573 66.7182H123.478C121.871 72.0278 115.163 74.8222 109.991 74.8222C99.9986 74.8222 94.6877 68.9538 94.6877 58.9636H139.621C139.691 57.9156 139.76 56.8677 139.76 55.7499ZM94.7576 48.2048C95.3167 40.0309 100.767 34.931 108.943 34.931C117.119 34.931 121.871 39.9611 122.57 48.2048H94.7576Z" fill="#EADEC4"/>
</svg>
