<?xml version="1.0" encoding="UTF-8"?><svg id="Capa_2" xmlns="http://www.w3.org/2000/svg" viewBox="0 0 234.66 234.66"><defs><style>.cls-1{fill:#1d1d1d;}.cls-1,.cls-2{stroke-width:0px;}.cls-2{fill:#eadec4;}</style></defs><g id="Capa_1-2"><path class="cls-2" d="M117.33,234.66C52.63,234.66,0,182.02,0,117.33S52.63,0,117.33,0s117.33,52.63,117.33,117.33-52.63,117.33-117.33,117.33Z"/><path class="cls-1" d="M104.55,113.01c7.25-3.49,11.07-8.76,11.07-16.93,0-16.14-12.06-20.09-25.89-20.09h-38.28v81.07h39.33c14.76,0,28.59-7.05,28.59-23.51,0-10.21-4.81-17.72-14.82-20.48v-.07ZM69.24,89.83h16.73c6.46,0,12.19,1.78,12.19,9.29,0,6.92-4.48,9.68-10.87,9.68h-18.05v-18.97ZM88.34,143.31h-19.04v-22.33h19.43c7.84,0,12.78,3.29,12.78,11.59s-5.93,10.74-13.18,10.74ZM170.36,88.25h-32.87v-7.97h32.87v7.97ZM183.21,128.56c0-17.39-10.14-31.81-28.59-31.81s-30.04,13.44-30.04,31.09,11.53,30.82,30.04,30.82c14.03,0,23.12-6.32,27.47-19.76h-14.23c-1.51,5.01-7.84,7.64-12.71,7.64-9.42,0-14.43-5.53-14.43-14.95h42.36c.07-.99.13-1.98.13-3.03ZM140.78,121.44c.53-7.71,5.67-12.51,13.37-12.51s12.19,4.74,12.85,12.51h-26.22Z"/></g></svg>