<?xml version="1.0" encoding="UTF-8"?><svg id="Capa_2" xmlns="http://www.w3.org/2000/svg" viewBox="0 0 234.66 234.66"><defs><style>.cls-1{fill:#eadec4;stroke-width:0px;}</style></defs><g id="Capa_1-2"><path class="cls-1" d="M170.59,97.67c0-9.12-4.1-16.61-8.27-21.63.77-1.62,3.32-9.12-.85-19.93,0,0-6.57-1.62-21.48,8.34-5.8-1.62-12.44-2.47-19.01-2.47s-13.21.77-19.01,2.47c-15.69-10.04-21.48-8.34-21.48-8.34-4.1,10.82-1.62,18.31-1.62,19.16-5.8,6.64-8.27,13.29-8.27,21.63,0,29.12,19.01,36.54,35.55,38.24-2.47,2.47-4.1,5.79-4.95,10.82-4.95,2.55-14.91,5.87-22.33-5.79-.85-3.32-5.8-8.34-11.59-8.34s-2.47,3.32,0,5.02c4.1,1.7,7.42,8.34,8.27,10.82.85,4.94,6.65,12.44,25.65,9.12v9.09h-.02v5.82c0,1.46-1.2,3.46-3.63,3.48-.06,0-.11.01-.17.01,4.51,1.4,9.21,2.4,14.03,2.96v-.04c3.05.36,6.14.57,9.28.57s6.09-.18,9.07-.53c4.83-.56,9.52-1.56,14.03-2.96-2.55.09-3.8-2-3.8-3.49v-21.63c0-6.64-2.47-11.67-4.95-14.14,18.16-1.62,35.55-8.27,35.55-38.24Z"/><path class="cls-1" d="M117.33,234.66C52.63,234.66,0,182.02,0,117.33S52.63,0,117.33,0s117.33,52.63,117.33,117.33-52.63,117.33-117.33,117.33ZM117.33,10.7C58.54,10.7,10.7,58.54,10.7,117.33s47.83,106.62,106.62,106.62,106.62-47.83,106.62-106.62S176.12,10.7,117.33,10.7Z"/></g></svg>