<svg width="140" height="140" viewBox="0 0 140 140" fill="none" xmlns="http://www.w3.org/2000/svg">
<path d="M69.8103 34.0228C49.8246 34.0228 33.8919 50.0212 33.8919 70.0017C33.8919 89.9823 49.8945 105.981 69.8103 105.981C89.7262 105.981 105.729 89.9823 105.729 70.0017C105.729 50.0212 89.7262 34.0228 69.8103 34.0228ZM69.8103 92.9863C56.8126 92.9863 46.8197 82.9961 46.8197 70.0017C46.8197 57.0074 56.8126 47.0171 69.8103 47.0171C82.8081 47.0171 92.8009 57.0074 92.8009 70.0017C92.8009 82.9961 82.8081 92.9863 69.8103 92.9863ZM115.722 32.9749C115.722 38.0049 111.738 40.9391 107.755 40.9391C102.794 40.9391 99.789 36.957 99.789 32.9749C99.789 28.9927 103.772 25.0106 107.755 25.0106C111.738 25.0106 115.722 28.0147 115.722 32.9749ZM139.691 41.009C138.712 30.0407 135.707 19.9805 127.741 12.0163C119.775 4.05199 109.782 1.04793 98.8107 0H40.8799C29.9087 0.978068 19.9159 3.98213 11.9495 12.0163C3.98317 19.9805 0.978323 30.0407 0 41.009V98.9945C0.978323 109.963 3.98317 120.023 11.9495 127.987C19.9159 135.951 29.9087 138.956 40.8799 138.956C52.8294 139.934 86.7913 139.934 98.8107 138.956C109.782 137.977 119.775 135.951 127.741 127.987C135.707 120.023 138.712 109.963 138.712 98.9945C139.691 86.9782 139.691 53.0253 139.691 41.009ZM124.806 111.011C122.78 117.019 117.818 121.979 111.808 124.005C101.816 127.987 79.8731 127.009 69.8802 127.009C59.8874 127.009 37.945 127.987 28.9304 124.005C22.9207 121.979 17.9592 117.019 15.9327 111.011C11.9495 101.999 12.9278 79.992 12.9278 70.0017C12.9278 60.0115 11.9495 38.0049 14.9544 28.9927C16.9809 22.9846 21.9424 18.0244 27.9521 15.9984C37.945 12.0163 59.8874 12.9943 69.8802 12.9943C79.8731 12.9943 101.816 12.0163 110.83 15.9984C116.84 18.0244 121.801 22.9846 123.828 28.9927C127.811 38.0049 126.833 60.0115 126.833 70.0017C126.833 79.992 127.811 101.999 124.806 111.011Z" fill="#EADEC4"/>
</svg>
