<?xml version="1.0" encoding="UTF-8"?><svg id="Capa_2" xmlns="http://www.w3.org/2000/svg" viewBox="0 0 234.66 234.66"><defs><style>.cls-1{fill:#eadec4;stroke-width:0px;}</style></defs><g id="Capa_1-2"><path class="cls-1" d="M79.3,58.33c-7,0-11.97,4.98-11.97,11.98s4.97,11.98,11.97,11.98,11.97-4.98,11.97-11.98-4.97-11.98-11.97-11.98Z"/><polygon class="cls-1" points="69.29 158.33 89.32 158.33 90.3 91.26 69.29 91.26 69.29 158.33"/><path class="cls-1" d="M142.33,89.62c-10.01,0-17.02,6-20.03,10.95v-9h-20.03v66.76h21.01v-32.86c0-9,2.03-16.95,13.03-16.95,10.01,0,10.01,9.98,10.01,17.93v31.88h21.01v-36.83c0-17.93-3.99-31.88-25-31.88Z"/><path class="cls-1" d="M117.33,234.66C52.63,234.66,0,182.02,0,117.33S52.63,0,117.33,0s117.33,52.63,117.33,117.33-52.63,117.33-117.33,117.33ZM117.33,10.7C58.54,10.7,10.7,58.54,10.7,117.33s47.83,106.62,106.62,106.62,106.62-47.83,106.62-106.62S176.12,10.7,117.33,10.7Z"/></g></svg>