<svg width="129" height="129" viewBox="0 0 129 129" fill="none" xmlns="http://www.w3.org/2000/svg">
<path d="M24.1875 16.125C24.1875 11.8484 25.8864 7.74693 28.9104 4.7229C31.9344 1.69888 36.0359 0 40.3125 0L88.6875 0C92.9641 0 97.0656 1.69888 100.09 4.7229C103.114 7.74693 104.812 11.8484 104.812 16.125V112.875C104.812 117.152 103.114 121.253 100.09 124.277C97.0656 127.301 92.9641 129 88.6875 129H40.3125C36.0359 129 31.9344 127.301 28.9104 124.277C25.8864 121.253 24.1875 117.152 24.1875 112.875V16.125ZM72.5625 104.812C72.5625 102.674 71.7131 100.623 70.201 99.1115C68.689 97.5994 66.6383 96.75 64.5 96.75C62.3617 96.75 60.311 97.5994 58.799 99.1115C57.2869 100.623 56.4375 102.674 56.4375 104.812C56.4375 106.951 57.2869 109.002 58.799 110.514C60.311 112.026 62.3617 112.875 64.5 112.875C66.6383 112.875 68.689 112.026 70.201 110.514C71.7131 109.002 72.5625 106.951 72.5625 104.812Z" fill="#EADEC4"/>
</svg>
