<?xml version="1.0" encoding="utf-8"?>
<!-- Generator: Adobe Illustrator 28.3.0, SVG Export Plug-In . SVG Version: 6.00 Build 0)  -->
<svg version="1.1" id="Capa_2_00000029766424814190063130000003658086740896308365_"
	 xmlns="http://www.w3.org/2000/svg" xmlns:xlink="http://www.w3.org/1999/xlink" x="0px" y="0px" viewBox="0 0 1400 244"
	 style="enable-background:new 0 0 1400 244;" xml:space="preserve">
<style type="text/css">
	.st0{fill:#402E27;}
	.st1{enable-background:new    ;}
	.st2{fill:#A66953;}
</style>
<rect class="st0" width="1400" height="244"/>
<g class="st1">
	<path class="st2" d="M444,53.3l-3,7h-5.2l-4.8-13.5h6.2l2.1,7.3l3-7.1h3.7l3,7.1l2.1-7.3h6.2l-4.8,13.5h-5.2L444,53.3z"/>
	<path class="st2" d="M482.1,53.3l-3,7h-5.2l-4.8-13.5h6.2l2.1,7.3l3-7.1h3.7l3,7.1l2.1-7.3h6.2l-4.8,13.5h-5.2L482.1,53.3z"/>
	<path class="st2" d="M520.3,53.3l-3,7H512l-4.8-13.5h6.2l2.1,7.3l3-7.1h3.7l3,7.1l2.1-7.3h6.2l-4.8,13.5h-5.2L520.3,53.3z"/>
	<path class="st2" d="M550.9,60.7c-0.9,0-1.7-0.3-2.3-1c-0.6-0.6-1-1.4-1-2.3c0-0.9,0.3-1.7,1-2.4c0.6-0.6,1.4-1,2.3-1
		c0.9,0,1.7,0.3,2.3,1c0.6,0.6,1,1.4,1,2.4c0,0.9-0.3,1.7-1,2.3S551.8,60.7,550.9,60.7z"/>
	<path class="st2" d="M577,46.4c0.9,0,1.8,0.1,2.6,0.2c0.8,0.2,1.4,0.3,2,0.5s0.8,0.3,1,0.4l-1.8,3.4c-0.2-0.1-0.6-0.3-1.1-0.6
		c-0.6-0.2-1.2-0.4-1.9-0.4c-0.5,0-0.8,0.1-1.1,0.2c-0.3,0.1-0.4,0.3-0.4,0.5c0,0.2,0.2,0.4,0.5,0.6c0.3,0.2,0.9,0.3,1.6,0.4
		c0.6,0.1,1.3,0.3,2,0.6c0.7,0.3,1.3,0.7,1.8,1.3s0.7,1.3,0.7,2.3c0,1-0.2,1.8-0.7,2.5c-0.4,0.6-1,1.1-1.7,1.5
		c-0.7,0.3-1.5,0.6-2.3,0.7s-1.6,0.2-2.4,0.2c-1.1,0-2.1-0.1-2.9-0.3s-1.4-0.4-1.9-0.7c-0.5-0.2-0.8-0.4-1-0.6l1.8-3.8
		c0.3,0.2,0.8,0.5,1.4,0.8s1.3,0.4,2,0.4c0.6,0,1.1-0.1,1.4-0.2s0.5-0.3,0.5-0.6c0-0.2-0.1-0.3-0.2-0.5c-0.2-0.1-0.4-0.2-0.7-0.3
		c-0.3-0.1-0.7-0.2-1.1-0.3c-0.4-0.1-0.9-0.2-1.4-0.4c-0.5-0.2-1-0.4-1.4-0.8s-0.8-0.8-1.1-1.3c-0.3-0.5-0.4-1.1-0.4-1.9
		c0-0.9,0.3-1.7,0.9-2.3s1.4-1.1,2.4-1.4C574.9,46.5,575.9,46.4,577,46.4z"/>
	<path class="st2" d="M603.8,52.8c0,0.9,0.2,1.7,0.5,2.3c0.3,0.6,0.9,0.9,1.8,0.9c0.9,0,1.5-0.3,1.8-0.9c0.3-0.6,0.5-1.3,0.5-2.3
		v-6.1h5.7v6.6c0,1.5-0.3,2.8-0.9,3.9c-0.6,1.1-1.5,1.9-2.7,2.5c-1.2,0.6-2.6,0.9-4.3,0.9c-1.7,0-3.1-0.3-4.3-0.9
		c-1.2-0.6-2.1-1.4-2.7-2.5c-0.6-1.1-0.9-2.4-0.9-3.9v-6.6h5.7V52.8z"/>
	<path class="st2" d="M630,60.3V37.6h5.8v10.9c0.1-0.3,0.4-0.6,0.8-0.9c0.4-0.3,0.9-0.6,1.6-0.9c0.6-0.2,1.4-0.4,2.2-0.4
		c1.3,0,2.5,0.3,3.4,1c1,0.7,1.7,1.5,2.2,2.6c0.5,1.1,0.8,2.3,0.8,3.5c0,1.3-0.3,2.5-0.8,3.5c-0.5,1.1-1.3,2-2.2,2.6
		c-1,0.7-2.1,1-3.4,1c-0.6,0-1.3-0.1-1.9-0.3c-0.6-0.2-1.1-0.5-1.6-0.9c-0.5-0.4-0.8-0.8-1.1-1.2v2H630z M641,53.5
		c0-0.5-0.1-0.9-0.3-1.3c-0.2-0.4-0.5-0.7-0.9-1c-0.4-0.2-0.8-0.4-1.4-0.4s-1,0.1-1.4,0.4c-0.4,0.2-0.7,0.6-0.9,1
		c-0.2,0.4-0.3,0.8-0.3,1.3c0,0.5,0.1,0.9,0.3,1.3c0.2,0.4,0.5,0.7,0.9,0.9c0.4,0.2,0.8,0.3,1.4,0.3s1-0.1,1.4-0.3
		c0.4-0.2,0.7-0.5,0.9-0.9S641,54,641,53.5z"/>
	<path class="st2" d="M660.9,46.8h6.3L670,55l2.8-8.3h6.2l-5.6,13.5h-6.8L660.9,46.8z"/>
	<path class="st2" d="M698.9,54.7c0,0.4,0.2,0.7,0.4,0.9c0.2,0.3,0.6,0.5,1,0.6c0.4,0.1,0.9,0.2,1.4,0.2c0.6,0,1.1,0,1.6-0.1
		c0.5-0.1,0.9-0.2,1.3-0.3c0.4-0.1,0.7-0.3,0.9-0.5l2.1,3.6c-0.2,0.2-0.6,0.4-1.1,0.6c-0.5,0.2-1.2,0.4-2,0.6
		c-0.8,0.2-1.9,0.2-3.2,0.2c-1.5,0-2.9-0.3-4.1-0.8c-1.2-0.5-2.2-1.4-2.9-2.4c-0.7-1.1-1-2.4-1-4.1c0-1.3,0.3-2.5,0.9-3.6
		c0.6-1.1,1.4-1.9,2.6-2.5c1.1-0.6,2.5-0.9,4.1-0.9c1.5,0,2.9,0.3,4,0.8c1.1,0.5,2,1.3,2.6,2.4c0.6,1.1,0.9,2.4,0.9,4.1
		c0,0.1,0,0.3,0,0.5c0,0.3,0,0.4,0,0.5H698.9z M702.9,52.1c0-0.4-0.1-0.7-0.2-1s-0.4-0.5-0.6-0.7c-0.3-0.2-0.6-0.2-1-0.2
		c-0.4,0-0.7,0.1-1,0.2s-0.5,0.4-0.7,0.7c-0.2,0.3-0.3,0.6-0.3,1H702.9z"/>
</g>
<g class="st1">
	<path class="st2" d="M733,60.3h-5.8V46.8h5.8v2h-0.1c0.1-0.2,0.3-0.5,0.7-0.9c0.3-0.4,0.8-0.7,1.4-1c0.6-0.3,1.4-0.5,2.3-0.5
		c0.6,0,1.2,0.1,1.7,0.3c0.5,0.2,1,0.4,1.2,0.6L738,52c-0.1-0.2-0.4-0.4-0.8-0.6c-0.4-0.2-0.9-0.3-1.5-0.3c-0.7,0-1.2,0.1-1.6,0.4
		c-0.4,0.3-0.7,0.7-0.9,1.1s-0.3,0.8-0.3,1.2V60.3z"/>
</g>
<g class="st1">
	<path class="st2" d="M761.3,46.4c0.9,0,1.8,0.1,2.6,0.2c0.8,0.2,1.4,0.3,2,0.5s0.8,0.3,1,0.4l-1.8,3.4c-0.2-0.1-0.6-0.3-1.1-0.6
		c-0.6-0.2-1.2-0.4-1.9-0.4c-0.5,0-0.8,0.1-1.1,0.2c-0.3,0.1-0.4,0.3-0.4,0.5c0,0.2,0.2,0.4,0.5,0.6c0.3,0.2,0.9,0.3,1.6,0.4
		c0.6,0.1,1.3,0.3,2,0.6c0.7,0.3,1.3,0.7,1.8,1.3s0.7,1.3,0.7,2.3c0,1-0.2,1.8-0.7,2.5c-0.4,0.6-1,1.1-1.7,1.5
		c-0.7,0.3-1.5,0.6-2.3,0.7s-1.6,0.2-2.4,0.2c-1.1,0-2.1-0.1-2.9-0.3s-1.4-0.4-1.9-0.7c-0.5-0.2-0.8-0.4-1-0.6l1.8-3.8
		c0.3,0.2,0.8,0.5,1.4,0.8s1.3,0.4,2,0.4c0.6,0,1.1-0.1,1.4-0.2s0.5-0.3,0.5-0.6c0-0.2-0.1-0.3-0.2-0.5c-0.2-0.1-0.4-0.2-0.7-0.3
		c-0.3-0.1-0.7-0.2-1.1-0.3c-0.4-0.1-0.9-0.2-1.4-0.4c-0.5-0.2-1-0.4-1.4-0.8s-0.8-0.8-1.1-1.3c-0.3-0.5-0.4-1.1-0.4-1.9
		c0-0.9,0.3-1.7,0.9-2.3s1.4-1.1,2.4-1.4C759.2,46.5,760.2,46.4,761.3,46.4z"/>
	<path class="st2" d="M788.1,52.8c0,0.9,0.2,1.7,0.5,2.3c0.3,0.6,0.9,0.9,1.8,0.9c0.9,0,1.5-0.3,1.8-0.9c0.3-0.6,0.5-1.3,0.5-2.3
		v-6.1h5.7v6.6c0,1.5-0.3,2.8-0.9,3.9c-0.6,1.1-1.5,1.9-2.7,2.5c-1.2,0.6-2.6,0.9-4.3,0.9c-1.7,0-3.1-0.3-4.3-0.9
		c-1.2-0.6-2.1-1.4-2.7-2.5c-0.6-1.1-0.9-2.4-0.9-3.9v-6.6h5.7V52.8z"/>
	<path class="st2" d="M833.9,46.4c1,0,2,0.2,2.8,0.6s1.4,1.1,1.9,1.9c0.5,0.9,0.7,2,0.7,3.4v8h-5.7v-7.2c0-0.7-0.1-1.4-0.4-1.9
		c-0.2-0.5-0.7-0.8-1.5-0.8c-0.5,0-0.9,0.1-1.2,0.4s-0.6,0.6-0.7,1c-0.2,0.4-0.2,0.8-0.2,1.3v7.2h-5.3v-7.2c0-0.7-0.1-1.4-0.4-1.9
		c-0.2-0.5-0.7-0.8-1.5-0.8c-0.5,0-0.9,0.1-1.2,0.4c-0.3,0.2-0.6,0.6-0.7,1c-0.2,0.4-0.2,0.9-0.2,1.4v7.2h-5.8V46.8h5.8v1.9
		c0.1-0.3,0.4-0.7,0.9-1c0.5-0.4,1-0.6,1.7-0.9c0.7-0.2,1.4-0.4,2.1-0.4c0.8,0,1.5,0.1,2,0.3s1,0.5,1.3,0.8c0.4,0.4,0.7,0.8,0.9,1.3
		c0.2-0.4,0.5-0.7,0.9-1.1c0.5-0.4,1-0.7,1.7-0.9C832.3,46.5,833.1,46.4,833.9,46.4z"/>
	<path class="st2" d="M858.4,60.7c-0.9,0-1.7-0.3-2.3-1s-1-1.4-1-2.3c0-0.9,0.3-1.7,1-2.4c0.6-0.6,1.4-1,2.3-1c0.9,0,1.7,0.3,2.3,1
		c0.6,0.6,1,1.4,1,2.4c0,0.9-0.3,1.7-1,2.3S859.4,60.7,858.4,60.7z"/>
	<path class="st2" d="M884.6,46.4c0.9,0,1.8,0.1,2.6,0.2c0.8,0.2,1.4,0.3,2,0.5s0.8,0.3,1,0.4l-1.8,3.4c-0.2-0.1-0.6-0.3-1.1-0.6
		c-0.6-0.2-1.2-0.4-1.9-0.4c-0.5,0-0.8,0.1-1.1,0.2c-0.3,0.1-0.4,0.3-0.4,0.5c0,0.2,0.2,0.4,0.5,0.6c0.3,0.2,0.9,0.3,1.6,0.4
		c0.6,0.1,1.3,0.3,2,0.6s1.3,0.7,1.8,1.3s0.7,1.3,0.7,2.3c0,1-0.2,1.8-0.7,2.5c-0.4,0.6-1,1.1-1.7,1.5c-0.7,0.3-1.5,0.6-2.3,0.7
		s-1.6,0.2-2.4,0.2c-1.1,0-2.1-0.1-2.9-0.3c-0.8-0.2-1.4-0.4-1.9-0.7c-0.5-0.2-0.8-0.4-1-0.6l1.8-3.8c0.3,0.2,0.8,0.5,1.4,0.8
		s1.3,0.4,2,0.4c0.6,0,1.1-0.1,1.4-0.2s0.5-0.3,0.5-0.6c0-0.2-0.1-0.3-0.2-0.5s-0.4-0.2-0.7-0.3c-0.3-0.1-0.7-0.2-1.1-0.3
		c-0.4-0.1-0.9-0.2-1.4-0.4c-0.5-0.2-1-0.4-1.4-0.8s-0.8-0.8-1.1-1.3c-0.3-0.5-0.4-1.1-0.4-1.9c0-0.9,0.3-1.7,0.9-2.3
		c0.6-0.6,1.4-1.1,2.4-1.4C882.4,46.5,883.5,46.4,884.6,46.4z"/>
	<path class="st2" d="M915.9,46.4c1,0,1.9,0.2,2.8,0.6c0.9,0.4,1.7,1,2.3,1.8c0.6,0.8,0.9,2,0.9,3.3v8.2h-5.8V53
		c0-0.8-0.2-1.5-0.5-1.9s-0.9-0.7-1.5-0.7c-0.4,0-0.8,0.1-1.2,0.3c-0.4,0.2-0.7,0.5-1,0.9c-0.2,0.4-0.4,0.9-0.4,1.4v7.2h-5.8V37.6
		h5.8v11c0.1-0.4,0.4-0.7,0.8-1c0.4-0.3,0.9-0.6,1.6-0.8C914.5,46.5,915.2,46.4,915.9,46.4z"/>
	<path class="st2" d="M944.9,60.7c-1.5,0-2.9-0.3-4-0.9c-1.2-0.6-2.1-1.4-2.8-2.5c-0.7-1.1-1-2.3-1-3.7c0-1.4,0.3-2.6,1-3.7
		c0.7-1.1,1.6-1.9,2.8-2.6c1.2-0.6,2.5-0.9,4-0.9c1.5,0,2.8,0.3,4,0.9c1.2,0.6,2.1,1.5,2.7,2.6c0.7,1.1,1,2.3,1,3.7
		c0,1.4-0.3,2.6-1,3.7c-0.7,1.1-1.6,1.9-2.7,2.5C947.8,60.4,946.4,60.7,944.9,60.7z M944.9,55.9c0.5,0,0.8-0.1,1.2-0.3
		c0.3-0.2,0.6-0.5,0.8-0.8c0.2-0.4,0.3-0.8,0.3-1.3c0-0.5-0.1-0.9-0.3-1.3c-0.2-0.4-0.4-0.6-0.8-0.9c-0.3-0.2-0.7-0.3-1.2-0.3
		c-0.5,0-0.9,0.1-1.2,0.3c-0.3,0.2-0.6,0.5-0.8,0.9c-0.2,0.4-0.3,0.8-0.3,1.3c0,0.5,0.1,0.9,0.3,1.3c0.2,0.4,0.4,0.6,0.8,0.8
		S944.5,55.9,944.9,55.9z"/>
	<path class="st2" d="M973.9,67.2h-5.8V46.8h5.8v1.8c0.2-0.3,0.5-0.6,0.9-0.9c0.4-0.3,1-0.6,1.6-0.9c0.6-0.2,1.4-0.4,2.2-0.4
		c1.3,0,2.5,0.3,3.4,1c0.9,0.7,1.6,1.5,2.1,2.6c0.5,1.1,0.7,2.3,0.7,3.5c0,1.3-0.3,2.5-0.8,3.5c-0.5,1.1-1.3,2-2.2,2.6
		c-1,0.7-2.1,1-3.5,1c-0.9,0-1.7-0.2-2.3-0.5c-0.6-0.3-1.1-0.7-1.5-1.1s-0.6-0.7-0.7-0.9V67.2z M979.2,53.5c0-0.5-0.1-0.9-0.3-1.3
		c-0.2-0.4-0.5-0.7-0.9-1c-0.4-0.2-0.8-0.4-1.3-0.4c-0.5,0-1,0.1-1.4,0.4c-0.4,0.2-0.7,0.6-0.9,1c-0.2,0.4-0.3,0.8-0.3,1.3
		c0,0.5,0.1,0.9,0.3,1.3s0.5,0.7,0.9,0.9c0.4,0.2,0.9,0.3,1.4,0.3c0.5,0,0.9-0.1,1.3-0.3c0.4-0.2,0.7-0.5,0.9-0.9
		S979.2,54,979.2,53.5z"/>
</g>
<g class="st1">
	<path class="st2" d="M447.2,201.7c-0.9,0-1.7-0.3-2.3-1c-0.6-0.6-1-1.4-1-2.4c0-0.6,0.1-1.2,0.4-1.6c0.3-0.5,0.7-0.9,1.2-1.2
		c0.5-0.3,1-0.4,1.6-0.4c0.9,0,1.7,0.3,2.4,1s1,1.4,1,2.3c0,0.9-0.3,1.7-1,2.4C448.9,201.4,448.1,201.7,447.2,201.7z M444.1,218.2
		l1.2-15.2h3.9l1.2,15.2H444.1z"/>
	<path class="st2" d="M477.2,205h11.1v1.5c0,1.6-0.3,3.1-0.8,4.4c-0.5,1.4-1.3,2.6-2.2,3.6c-1,1-2.1,1.8-3.5,2.4
		c-1.4,0.6-2.9,0.9-4.5,0.9c-1.7,0-3.3-0.3-4.7-0.9c-1.4-0.6-2.6-1.4-3.6-2.4c-1-1-1.8-2.2-2.3-3.6c-0.5-1.4-0.8-2.8-0.8-4.4
		c0-1.6,0.3-3,0.8-4.4c0.5-1.4,1.3-2.6,2.3-3.6c1-1,2.2-1.8,3.6-2.4c1.4-0.6,2.9-0.9,4.7-0.9c1.5,0,2.8,0.2,3.9,0.5
		c1.1,0.3,2.1,0.7,2.8,1.3c0.8,0.5,1.4,1.1,1.9,1.7c0.5,0.6,0.9,1.2,1.3,1.7l-5.5,2.5c-0.4-0.6-0.9-1.1-1.6-1.6
		c-0.7-0.5-1.6-0.7-2.9-0.7c-0.8,0-1.5,0.2-2.2,0.5c-0.7,0.3-1.2,0.7-1.7,1.3c-0.5,0.5-0.8,1.2-1.1,1.9c-0.3,0.7-0.4,1.5-0.4,2.3
		c0,0.8,0.1,1.6,0.4,2.3c0.3,0.7,0.6,1.3,1.1,1.9c0.5,0.5,1,1,1.7,1.3c0.7,0.3,1.4,0.5,2.2,0.5c0.7,0,1.3-0.1,1.8-0.2
		c0.5-0.1,1-0.3,1.4-0.6c0.4-0.3,0.7-0.6,0.9-0.9s0.4-0.8,0.4-1.2h-4.7V205z"/>
</g>
<g class="st1">
	<path class="st2" d="M504.1,195.5h9.4c1.3,0,2.4,0.3,3.4,0.8c1,0.5,1.8,1.3,2.4,2.3c0.6,1,0.9,2.2,0.9,3.6c0,1.4-0.2,2.5-0.7,3.4
		c-0.5,0.9-1,1.5-1.7,1.9c-0.7,0.4-1.3,0.7-1.8,0.8l5.2,8.9h-6.5l-4.6-8.4h-0.3v8.4h-5.8V195.5z M509.9,204.9h1.6
		c0.7,0,1.4-0.2,2-0.5c0.6-0.3,0.9-1,0.9-2c0-1-0.3-1.6-0.9-1.9c-0.6-0.3-1.2-0.5-1.9-0.5h-1.6V204.9z"/>
</g>
<g class="st1">
	<path class="st2" d="M543.5,195.5h5.6l8.8,21.8h-6.1l-1.5-4h-8l-1.5,4h-6.2L543.5,195.5z M544.2,208.3h4.2l-2.1-5.8h0L544.2,208.3z
		"/>
</g>
<g class="st1">
	<path class="st2" d="M584,212c0.9,0,1.7-0.1,2.5-0.4c0.8-0.3,1.4-0.5,1.8-0.8l2.4,4.9c-0.5,0.4-1.4,0.9-2.7,1.3
		c-1.3,0.5-2.7,0.7-4.5,0.7c-1.6,0-3.1-0.3-4.5-0.8c-1.4-0.6-2.7-1.3-3.8-2.4c-1.1-1-1.9-2.2-2.6-3.6c-0.6-1.4-0.9-2.9-0.9-4.5
		c0-1.6,0.3-3.1,0.9-4.5c0.6-1.4,1.5-2.6,2.6-3.6c1.1-1,2.3-1.8,3.8-2.4c1.4-0.6,2.9-0.8,4.5-0.8c1.7,0,3.2,0.2,4.5,0.7
		c1.3,0.5,2.1,0.9,2.7,1.3l-2.4,4.9c-0.4-0.3-1-0.5-1.8-0.8c-0.8-0.3-1.6-0.4-2.5-0.4c-1.1,0-2,0.2-2.8,0.5
		c-0.8,0.3-1.4,0.7-1.9,1.3s-0.8,1.1-1.1,1.8c-0.2,0.7-0.3,1.3-0.3,2c0,0.7,0.1,1.4,0.3,2c0.2,0.7,0.6,1.3,1.1,1.8s1.1,1,1.9,1.3
		C582,211.8,582.9,212,584,212z"/>
	<path class="st2" d="M606.9,195.5h5.7v21.8h-5.7V195.5z"/>
	<path class="st2" d="M636.5,195.5h5.6l8.8,21.8h-6.1l-1.5-4h-8l-1.5,4h-6.2L636.5,195.5z M637.3,208.3h4.2l-2.1-5.8h0L637.3,208.3z
		"/>
	<path class="st2" d="M674.1,195.1c1.4,0,2.6,0.2,3.7,0.5c1.1,0.3,1.9,0.6,2.6,1c0.6,0.3,1,0.6,1.2,0.7l-2.7,4.6
		c-0.2-0.1-0.5-0.3-0.9-0.6c-0.4-0.2-0.9-0.5-1.5-0.7c-0.6-0.2-1.1-0.3-1.7-0.3c-0.7,0-1.3,0.1-1.7,0.3c-0.4,0.2-0.7,0.6-0.7,1
		c0,0.3,0.1,0.6,0.4,0.9c0.2,0.3,0.6,0.5,1.2,0.8c0.5,0.3,1.2,0.5,2.1,0.9c0.8,0.3,1.6,0.6,2.3,1s1.3,0.9,1.9,1.5
		c0.5,0.6,0.9,1.2,1.2,1.9c0.3,0.7,0.5,1.5,0.5,2.5c0,1.2-0.2,2.2-0.7,3c-0.5,0.8-1.1,1.5-1.9,2c-0.8,0.5-1.7,0.9-2.7,1.2
		s-2,0.4-3.1,0.4c-1.6,0-3-0.2-4.2-0.5s-2.2-0.7-3-1.1c-0.8-0.4-1.2-0.7-1.4-0.8l2.8-4.8c0.1,0.1,0.4,0.3,0.8,0.5
		c0.4,0.2,0.9,0.5,1.4,0.7c0.6,0.2,1.1,0.4,1.8,0.6s1.2,0.2,1.7,0.2c0.8,0,1.5-0.1,1.9-0.4c0.4-0.3,0.6-0.7,0.6-1.2
		c0-0.4-0.1-0.7-0.4-1c-0.3-0.3-0.7-0.6-1.2-0.9c-0.6-0.3-1.3-0.6-2.3-1c-0.9-0.4-1.8-0.8-2.7-1.4c-0.8-0.5-1.5-1.2-2-2.1
		c-0.5-0.9-0.8-1.9-0.8-3.2c0-1.3,0.4-2.4,1.1-3.3c0.7-0.9,1.7-1.6,2.8-2.1C671.5,195.4,672.8,195.1,674.1,195.1z"/>
	<path class="st2" d="M719.9,195.5h8.6c1.4,0,2.7,0.3,3.8,0.8c1.1,0.5,2,1.3,2.7,2.3c0.7,1,1,2.3,1,3.8c0,1.5-0.3,2.8-1,3.8
		c-0.7,1.1-1.6,1.9-2.7,2.4c-1.1,0.6-2.4,0.8-3.8,0.8h-2.8v7.9h-5.7V195.5z M725.7,204.9h1.2c0.6,0,1.1-0.1,1.5-0.2s0.8-0.4,1.1-0.8
		s0.4-0.8,0.4-1.4c0-0.6-0.1-1.1-0.4-1.4s-0.6-0.6-1.1-0.8s-1-0.2-1.5-0.2h-1.2V204.9z"/>
	<path class="st2" d="M751.3,206.4c0-1.6,0.3-3.1,0.9-4.4c0.6-1.4,1.4-2.6,2.4-3.6c1-1,2.2-1.8,3.6-2.4c1.4-0.6,2.9-0.9,4.5-0.9
		c1.6,0,3.1,0.3,4.5,0.9c1.4,0.6,2.6,1.4,3.6,2.4c1,1,1.8,2.2,2.4,3.6c0.6,1.4,0.8,2.8,0.8,4.4c0,1.6-0.3,3.1-0.8,4.4
		c-0.5,1.4-1.3,2.6-2.3,3.6c-1,1-2.2,1.8-3.6,2.4c-1.4,0.6-2.9,0.9-4.6,0.9c-1.7,0-3.3-0.3-4.7-0.9c-1.4-0.6-2.6-1.4-3.6-2.4
		c-1-1-1.8-2.2-2.3-3.6C751.5,209.5,751.3,208,751.3,206.4z M757.3,206.4c0,1.1,0.2,2.1,0.7,3c0.4,0.9,1.1,1.6,1.9,2.1
		c0.8,0.5,1.7,0.8,2.8,0.8c1.1,0,2-0.3,2.8-0.8c0.8-0.5,1.4-1.2,1.9-2.1c0.4-0.9,0.7-1.9,0.7-3s-0.2-2.1-0.7-3
		c-0.4-0.9-1.1-1.6-1.9-2.1c-0.8-0.5-1.7-0.8-2.8-0.8c-1.1,0-2,0.3-2.8,0.8c-0.8,0.5-1.4,1.2-1.9,2.1
		C757.5,204.3,757.3,205.3,757.3,206.4z"/>
	<path class="st2" d="M789.6,195.5h9.4c1.3,0,2.4,0.3,3.4,0.8c1,0.5,1.8,1.3,2.4,2.3c0.6,1,0.9,2.2,0.9,3.6c0,1.4-0.2,2.5-0.7,3.4
		c-0.5,0.9-1,1.5-1.7,1.9c-0.7,0.4-1.3,0.7-1.8,0.8l5.2,8.9h-6.5l-4.6-8.4h-0.3v8.4h-5.8V195.5z M795.4,204.9h1.6
		c0.7,0,1.4-0.2,2-0.5c0.6-0.3,0.9-1,0.9-2c0-1-0.3-1.6-0.9-1.9c-0.6-0.3-1.2-0.5-1.9-0.5h-1.6V204.9z"/>
	<path class="st2" d="M858.1,217.3h-6.4l-7.7-21.8h6.5l4.4,14.4l4.4-14.4h6.5L858.1,217.3z"/>
	<path class="st2" d="M881.2,195.5h14.3v5h-8.6v3.4h8.5v4.8h-8.5v3.5h8.6v5h-14.3V195.5z"/>
	<path class="st2" d="M912,195.5h9.4c1.3,0,2.4,0.3,3.4,0.8c1,0.5,1.8,1.3,2.4,2.3c0.6,1,0.9,2.2,0.9,3.6c0,1.4-0.2,2.5-0.7,3.4
		c-0.5,0.9-1,1.5-1.7,1.9s-1.3,0.7-1.8,0.8l5.2,8.9h-6.5l-4.6-8.4h-0.3v8.4H912V195.5z M917.8,204.9h1.6c0.7,0,1.4-0.2,2-0.5
		s0.9-1,0.9-2c0-1-0.3-1.6-0.9-1.9s-1.2-0.5-1.9-0.5h-1.6V204.9z"/>
	<path class="st2" d="M948.9,217.7c-0.6,0-1.1-0.1-1.6-0.4c-0.5-0.3-0.9-0.7-1.2-1.2s-0.4-1-0.4-1.7c0-0.9,0.3-1.7,1-2.4
		c0.6-0.6,1.4-1,2.3-1c0.9,0,1.7,0.3,2.4,1c0.6,0.6,1,1.4,1,2.4c0,0.9-0.3,1.7-1,2.3S949.8,217.7,948.9,217.7z M946.9,209.8
		l-1.2-15.2h6.3l-1.2,15.2H946.9z"/>
</g>
<g class="st1">
	<path class="st2" d="M208.3,138.7c-0.8,0-1.5-0.1-2.2-0.4c-0.7-0.3-1.3-0.6-1.8-1.1s-0.9-1-1.2-1.7c-0.3-0.7-0.4-1.4-0.4-2.2
		c0-0.8,0.1-1.5,0.4-2.2c0.3-0.7,0.7-1.2,1.2-1.7c0.5-0.5,1.1-0.8,1.8-1.1c0.7-0.3,1.4-0.4,2.2-0.4c0.7,0,1.4,0.1,2.1,0.4
		s1.3,0.6,1.8,1c0.5,0.4,1,1,1.3,1.6c0.3,0.6,0.5,1.3,0.5,2c0,0.7-0.1,1.2-0.4,1.6c-0.3,0.4-0.6,0.7-1,0.9c-0.4,0.2-0.8,0.3-1.3,0.3
		c-0.3,0-0.6-0.1-0.8-0.2s-0.4-0.3-0.6-0.5c-0.1,0.1-0.2,0.3-0.3,0.4s-0.4,0.3-0.6,0.4s-0.6,0.1-1.1,0.1c-0.5,0-0.9-0.1-1.3-0.4
		s-0.7-0.6-0.9-1c-0.2-0.4-0.3-0.8-0.3-1.3c0-0.5,0.1-0.9,0.3-1.3c0.2-0.4,0.5-0.7,0.8-0.9c0.4-0.2,0.7-0.3,1.2-0.3
		c0.2,0,0.4,0,0.5,0.1c0.2,0,0.3,0.1,0.5,0.2s0.3,0.2,0.5,0.3V131h1.7v2.3c0,0.1,0,0.2,0,0.3c0,0.1,0.1,0.2,0.1,0.3
		c0.1,0.1,0.2,0.1,0.3,0.1c0.2,0,0.3,0,0.4-0.1c0.1-0.1,0.2-0.2,0.2-0.4c0-0.2,0.1-0.4,0.1-0.6c0-0.4-0.1-0.8-0.3-1.2
		c-0.2-0.4-0.4-0.7-0.8-1c-0.3-0.3-0.7-0.5-1.1-0.6c-0.4-0.2-0.9-0.2-1.4-0.2c-0.5,0-1,0.1-1.4,0.3c-0.4,0.2-0.8,0.4-1.1,0.8
		s-0.6,0.7-0.8,1.1c-0.2,0.4-0.3,0.9-0.3,1.3s0.1,0.9,0.3,1.3c0.2,0.4,0.4,0.8,0.7,1.1c0.3,0.3,0.7,0.5,1.1,0.7
		c0.4,0.2,0.9,0.3,1.4,0.3c0.3,0,0.6,0,0.9-0.1s0.5-0.2,0.7-0.2c0.2-0.1,0.3-0.2,0.4-0.3l1.7,1.5c-0.1,0.2-0.4,0.3-0.7,0.5
		c-0.3,0.2-0.7,0.3-1.2,0.5C209.6,138.6,209,138.7,208.3,138.7z M208.4,134.2c0.2,0,0.4-0.1,0.6-0.2c0.2-0.2,0.2-0.4,0.2-0.6
		c0-0.1,0-0.3-0.1-0.4s-0.2-0.2-0.3-0.3s-0.3-0.1-0.4-0.1c-0.2,0-0.4,0.1-0.6,0.2c-0.2,0.2-0.2,0.3-0.2,0.6c0,0.2,0.1,0.4,0.2,0.6
		C208,134.1,208.2,134.2,208.4,134.2z"/>
	<path class="st2" d="M221.2,131.9c0.5,0,0.9,0,1.2,0.1c0.4,0.1,0.7,0.2,0.9,0.2c0.2,0.1,0.4,0.2,0.5,0.2l-0.9,1.6
		c-0.1-0.1-0.3-0.2-0.5-0.3c-0.3-0.1-0.6-0.2-0.9-0.2c-0.2,0-0.4,0-0.5,0.1c-0.1,0-0.2,0.1-0.2,0.3c0,0.1,0.1,0.2,0.2,0.3
		c0.2,0.1,0.4,0.1,0.7,0.2c0.3,0.1,0.6,0.2,0.9,0.3c0.3,0.1,0.6,0.3,0.8,0.6c0.2,0.3,0.3,0.6,0.3,1.1c0,0.5-0.1,0.9-0.3,1.2
		c-0.2,0.3-0.5,0.5-0.8,0.7c-0.3,0.2-0.7,0.3-1.1,0.3c-0.4,0.1-0.8,0.1-1.1,0.1c-0.5,0-1,0-1.4-0.1c-0.4-0.1-0.7-0.2-0.9-0.3
		c-0.2-0.1-0.4-0.2-0.5-0.3l0.9-1.8c0.1,0.1,0.4,0.2,0.7,0.4c0.3,0.1,0.6,0.2,1,0.2c0.3,0,0.5,0,0.7-0.1c0.1-0.1,0.2-0.2,0.2-0.3
		c0-0.1,0-0.2-0.1-0.2c-0.1-0.1-0.2-0.1-0.3-0.2c-0.1,0-0.3-0.1-0.5-0.1c-0.2,0-0.4-0.1-0.6-0.2c-0.2-0.1-0.5-0.2-0.7-0.4
		c-0.2-0.2-0.4-0.4-0.5-0.6c-0.1-0.2-0.2-0.5-0.2-0.9c0-0.4,0.1-0.8,0.4-1.1c0.3-0.3,0.7-0.5,1.1-0.7
		C220.2,132,220.7,131.9,221.2,131.9z"/>
	<path class="st2" d="M230.8,135c0,0.5,0.1,0.8,0.2,1.1c0.2,0.3,0.4,0.4,0.8,0.4c0.4,0,0.7-0.1,0.8-0.4s0.2-0.6,0.2-1.1v-2.9h2.7
		v3.2c0,0.7-0.1,1.3-0.4,1.8c-0.3,0.5-0.7,0.9-1.3,1.2c-0.6,0.3-1.3,0.4-2.1,0.4c-0.8,0-1.5-0.1-2.1-0.4c-0.6-0.3-1-0.7-1.3-1.2
		c-0.3-0.5-0.5-1.1-0.5-1.8v-3.2h2.7V135z"/>
	<path class="st2" d="M240.1,138.5v-10.8h2.8v5.2c0.1-0.1,0.2-0.3,0.4-0.5c0.2-0.2,0.4-0.3,0.7-0.4c0.3-0.1,0.7-0.2,1-0.2
		c0.6,0,1.2,0.2,1.6,0.5c0.5,0.3,0.8,0.7,1.1,1.3c0.2,0.5,0.4,1.1,0.4,1.7s-0.1,1.2-0.4,1.7c-0.2,0.5-0.6,0.9-1.1,1.2
		c-0.5,0.3-1,0.5-1.6,0.5c-0.3,0-0.6-0.1-0.9-0.2c-0.3-0.1-0.5-0.2-0.8-0.4s-0.4-0.4-0.5-0.6v1H240.1z M245.4,135.3
		c0-0.2-0.1-0.4-0.2-0.6c-0.1-0.2-0.3-0.3-0.4-0.5c-0.2-0.1-0.4-0.2-0.6-0.2c-0.2,0-0.5,0.1-0.6,0.2c-0.2,0.1-0.3,0.3-0.4,0.5
		c-0.1,0.2-0.2,0.4-0.2,0.6s0.1,0.4,0.2,0.6c0.1,0.2,0.3,0.3,0.4,0.5c0.2,0.1,0.4,0.2,0.6,0.2c0.2,0,0.5-0.1,0.6-0.2
		c0.2-0.1,0.3-0.3,0.4-0.5C245.3,135.7,245.4,135.5,245.4,135.3z"/>
	<path class="st2" d="M251.7,132.1h3l1.3,3.9l1.4-3.9h3l-2.7,6.4h-3.3L251.7,132.1z"/>
	<path class="st2" d="M266.6,135.9c0,0.2,0.1,0.3,0.2,0.5c0.1,0.1,0.3,0.2,0.5,0.3s0.4,0.1,0.7,0.1c0.3,0,0.5,0,0.7-0.1
		c0.2,0,0.4-0.1,0.6-0.2c0.2-0.1,0.3-0.1,0.4-0.2l1,1.7c-0.1,0.1-0.3,0.2-0.5,0.3c-0.2,0.1-0.5,0.2-1,0.3c-0.4,0.1-0.9,0.1-1.5,0.1
		c-0.7,0-1.4-0.1-1.9-0.4c-0.6-0.3-1-0.6-1.4-1.2c-0.3-0.5-0.5-1.2-0.5-1.9c0-0.6,0.1-1.2,0.4-1.7c0.3-0.5,0.7-0.9,1.2-1.2
		c0.5-0.3,1.2-0.4,1.9-0.4c0.7,0,1.4,0.1,1.9,0.4s0.9,0.6,1.2,1.2c0.3,0.5,0.4,1.2,0.4,1.9c0,0,0,0.1,0,0.2s0,0.2,0,0.2H266.6z
		 M268.5,134.6c0-0.2,0-0.3-0.1-0.5s-0.2-0.2-0.3-0.3c-0.1-0.1-0.3-0.1-0.5-0.1c-0.2,0-0.3,0-0.5,0.1s-0.3,0.2-0.3,0.3
		s-0.1,0.3-0.1,0.5H268.5z"/>
</g>
<g class="st1">
	<path class="st2" d="M278.7,138.5h-2.8v-6.4h2.8v1h0c0.1-0.1,0.2-0.3,0.3-0.4s0.4-0.3,0.7-0.5c0.3-0.1,0.7-0.2,1.1-0.2
		c0.3,0,0.6,0,0.8,0.1c0.3,0.1,0.5,0.2,0.6,0.3l-1.1,2.3c-0.1-0.1-0.2-0.2-0.4-0.3c-0.2-0.1-0.4-0.2-0.7-0.2c-0.3,0-0.6,0.1-0.8,0.2
		c-0.2,0.1-0.3,0.3-0.4,0.5c-0.1,0.2-0.1,0.4-0.1,0.6V138.5z"/>
</g>
<g class="st1">
	<path class="st2" d="M289,131.9c0.5,0,0.9,0,1.2,0.1c0.4,0.1,0.7,0.2,0.9,0.2c0.2,0.1,0.4,0.2,0.5,0.2l-0.9,1.6
		c-0.1-0.1-0.3-0.2-0.5-0.3c-0.3-0.1-0.6-0.2-0.9-0.2c-0.2,0-0.4,0-0.5,0.1c-0.1,0-0.2,0.1-0.2,0.3c0,0.1,0.1,0.2,0.2,0.3
		c0.2,0.1,0.4,0.1,0.7,0.2c0.3,0.1,0.6,0.2,0.9,0.3c0.3,0.1,0.6,0.3,0.8,0.6c0.2,0.3,0.3,0.6,0.3,1.1c0,0.5-0.1,0.9-0.3,1.2
		c-0.2,0.3-0.5,0.5-0.8,0.7c-0.3,0.2-0.7,0.3-1.1,0.3c-0.4,0.1-0.8,0.1-1.1,0.1c-0.5,0-1,0-1.4-0.1c-0.4-0.1-0.7-0.2-0.9-0.3
		c-0.2-0.1-0.4-0.2-0.5-0.3l0.9-1.8c0.1,0.1,0.4,0.2,0.7,0.4c0.3,0.1,0.6,0.2,1,0.2c0.3,0,0.5,0,0.7-0.1c0.1-0.1,0.2-0.2,0.2-0.3
		c0-0.1,0-0.2-0.1-0.2c-0.1-0.1-0.2-0.1-0.3-0.2c-0.1,0-0.3-0.1-0.5-0.1c-0.2,0-0.4-0.1-0.6-0.2c-0.2-0.1-0.5-0.2-0.7-0.4
		c-0.2-0.2-0.4-0.4-0.5-0.6c-0.1-0.2-0.2-0.5-0.2-0.9c0-0.4,0.1-0.8,0.4-1.1c0.3-0.3,0.7-0.5,1.1-0.7C288,132,288.5,131.9,289,131.9
		z"/>
	<path class="st2" d="M298.7,135c0,0.5,0.1,0.8,0.2,1.1c0.2,0.3,0.4,0.4,0.8,0.4c0.4,0,0.7-0.1,0.8-0.4s0.2-0.6,0.2-1.1v-2.9h2.7
		v3.2c0,0.7-0.1,1.3-0.4,1.8c-0.3,0.5-0.7,0.9-1.3,1.2c-0.6,0.3-1.3,0.4-2.1,0.4c-0.8,0-1.5-0.1-2.1-0.4c-0.6-0.3-1-0.7-1.3-1.2
		c-0.3-0.5-0.5-1.1-0.5-1.8v-3.2h2.7V135z"/>
	<path class="st2" d="M317.3,131.9c0.5,0,0.9,0.1,1.3,0.3c0.4,0.2,0.7,0.5,0.9,0.9s0.3,1,0.3,1.6v3.8h-2.7v-3.4
		c0-0.4-0.1-0.7-0.2-0.9c-0.1-0.2-0.3-0.4-0.7-0.4c-0.2,0-0.4,0.1-0.6,0.2c-0.2,0.1-0.3,0.3-0.3,0.5c-0.1,0.2-0.1,0.4-0.1,0.6v3.4
		h-2.5v-3.4c0-0.4-0.1-0.7-0.2-0.9c-0.1-0.2-0.3-0.4-0.7-0.4c-0.2,0-0.4,0.1-0.6,0.2c-0.2,0.1-0.3,0.3-0.4,0.5s-0.1,0.4-0.1,0.6v3.4
		H308v-6.4h2.8v0.9c0.1-0.2,0.2-0.3,0.4-0.5c0.2-0.2,0.5-0.3,0.8-0.4c0.3-0.1,0.6-0.2,1-0.2c0.4,0,0.7,0,1,0.1
		c0.3,0.1,0.5,0.2,0.6,0.4c0.2,0.2,0.3,0.4,0.4,0.6c0.1-0.2,0.2-0.3,0.4-0.5c0.2-0.2,0.5-0.3,0.8-0.4
		C316.6,131.9,316.9,131.9,317.3,131.9z"/>
	<path class="st2" d="M325.9,138.7c-0.4,0-0.8-0.2-1.1-0.5c-0.3-0.3-0.5-0.7-0.5-1.1c0-0.4,0.2-0.8,0.5-1.1c0.3-0.3,0.7-0.5,1.1-0.5
		c0.4,0,0.8,0.2,1.1,0.5c0.3,0.3,0.5,0.7,0.5,1.1c0,0.4-0.2,0.8-0.5,1.1C326.7,138.6,326.3,138.7,325.9,138.7z"/>
	<path class="st2" d="M335.2,131.9c0.5,0,0.9,0,1.2,0.1c0.4,0.1,0.7,0.2,0.9,0.2c0.2,0.1,0.4,0.2,0.5,0.2l-0.9,1.6
		c-0.1-0.1-0.3-0.2-0.5-0.3c-0.3-0.1-0.6-0.2-0.9-0.2c-0.2,0-0.4,0-0.5,0.1c-0.1,0-0.2,0.1-0.2,0.3c0,0.1,0.1,0.2,0.2,0.3
		c0.2,0.1,0.4,0.1,0.7,0.2c0.3,0.1,0.6,0.2,0.9,0.3c0.3,0.1,0.6,0.3,0.8,0.6c0.2,0.3,0.3,0.6,0.3,1.1c0,0.5-0.1,0.9-0.3,1.2
		c-0.2,0.3-0.5,0.5-0.8,0.7c-0.3,0.2-0.7,0.3-1.1,0.3c-0.4,0.1-0.8,0.1-1.1,0.1c-0.5,0-1,0-1.4-0.1c-0.4-0.1-0.7-0.2-0.9-0.3
		c-0.2-0.1-0.4-0.2-0.5-0.3l0.9-1.8c0.1,0.1,0.4,0.2,0.7,0.4c0.3,0.1,0.6,0.2,1,0.2c0.3,0,0.5,0,0.7-0.1c0.1-0.1,0.2-0.2,0.2-0.3
		c0-0.1,0-0.2-0.1-0.2c-0.1-0.1-0.2-0.1-0.3-0.2c-0.1,0-0.3-0.1-0.5-0.1c-0.2,0-0.4-0.1-0.6-0.2c-0.2-0.1-0.5-0.2-0.7-0.4
		c-0.2-0.2-0.4-0.4-0.5-0.6c-0.1-0.2-0.2-0.5-0.2-0.9c0-0.4,0.1-0.8,0.4-1.1c0.3-0.3,0.7-0.5,1.1-0.7
		C334.1,132,334.6,131.9,335.2,131.9z"/>
	<path class="st2" d="M347,131.9c0.5,0,0.9,0.1,1.4,0.3c0.4,0.2,0.8,0.5,1.1,0.9c0.3,0.4,0.4,0.9,0.4,1.6v3.9H347v-3.5
		c0-0.4-0.1-0.7-0.3-0.9c-0.2-0.2-0.4-0.3-0.7-0.3c-0.2,0-0.4,0.1-0.6,0.2c-0.2,0.1-0.3,0.2-0.5,0.4c-0.1,0.2-0.2,0.4-0.2,0.7v3.4
		h-2.8v-10.8h2.8v5.2c0.1-0.2,0.2-0.3,0.4-0.5c0.2-0.2,0.5-0.3,0.8-0.4C346.3,131.9,346.6,131.9,347,131.9z"/>
	<path class="st2" d="M357.6,138.7c-0.7,0-1.4-0.1-1.9-0.4c-0.6-0.3-1-0.7-1.3-1.2c-0.3-0.5-0.5-1.1-0.5-1.8c0-0.7,0.2-1.3,0.5-1.8
		c0.3-0.5,0.8-0.9,1.3-1.2c0.6-0.3,1.2-0.4,1.9-0.4c0.7,0,1.4,0.1,1.9,0.4c0.6,0.3,1,0.7,1.3,1.2c0.3,0.5,0.5,1.1,0.5,1.8
		c0,0.7-0.2,1.3-0.5,1.8c-0.3,0.5-0.7,0.9-1.3,1.2C359,138.6,358.3,138.7,357.6,138.7z M357.6,136.4c0.2,0,0.4,0,0.6-0.1
		c0.2-0.1,0.3-0.2,0.4-0.4c0.1-0.2,0.1-0.4,0.1-0.6c0-0.2,0-0.4-0.1-0.6c-0.1-0.2-0.2-0.3-0.4-0.4c-0.2-0.1-0.3-0.1-0.6-0.1
		c-0.2,0-0.4,0-0.6,0.1c-0.2,0.1-0.3,0.2-0.4,0.4c-0.1,0.2-0.1,0.4-0.1,0.6c0,0.2,0,0.4,0.1,0.6c0.1,0.2,0.2,0.3,0.4,0.4
		S357.4,136.4,357.6,136.4z"/>
	<path class="st2" d="M368.3,141.8h-2.7v-9.7h2.8v0.8c0.1-0.1,0.2-0.3,0.4-0.5c0.2-0.2,0.5-0.3,0.8-0.4c0.3-0.1,0.7-0.2,1-0.2
		c0.6,0,1.2,0.2,1.6,0.5c0.4,0.3,0.8,0.7,1,1.3c0.2,0.5,0.3,1.1,0.3,1.7s-0.1,1.2-0.4,1.7c-0.3,0.5-0.6,0.9-1.1,1.2
		c-0.5,0.3-1,0.5-1.6,0.5c-0.4,0-0.8-0.1-1.1-0.2c-0.3-0.1-0.5-0.3-0.7-0.5c-0.2-0.2-0.3-0.3-0.3-0.4V141.8z M370.8,135.3
		c0-0.2-0.1-0.4-0.2-0.6c-0.1-0.2-0.3-0.3-0.4-0.5c-0.2-0.1-0.4-0.2-0.6-0.2c-0.2,0-0.5,0.1-0.7,0.2c-0.2,0.1-0.3,0.3-0.4,0.5
		c-0.1,0.2-0.2,0.4-0.2,0.6s0.1,0.4,0.2,0.6c0.1,0.2,0.3,0.3,0.4,0.5c0.2,0.1,0.4,0.2,0.7,0.2c0.2,0,0.4-0.1,0.6-0.2
		c0.2-0.1,0.3-0.3,0.4-0.5S370.8,135.5,370.8,135.3z"/>
</g>
<path class="st2" d="M288.7,89.2c4.8,0,5.3,0,7.2,0.1c1.1,0,2.2,0.2,3.3,0.6c1.5,0.6,2.8,1.8,3.4,3.4c0.4,1.1,0.6,2.2,0.6,3.3
	c0.1,1.9,0.1,2.4,0.1,7.2s0,5.3-0.1,7.2c0,1.1-0.2,2.2-0.6,3.3c-0.6,1.6-1.8,2.8-3.4,3.4c-1.1,0.4-2.2,0.6-3.3,0.6
	c-1.9,0.1-2.4,0.1-7.2,0.1s-5.3,0-7.2-0.1c-1.1,0-2.2-0.2-3.3-0.6c-1.5-0.6-2.8-1.8-3.3-3.4c-0.4-1.1-0.6-2.2-0.6-3.3
	c-0.1-1.9-0.1-2.4-0.1-7.2s0-5.3,0.1-7.2c0-1.1,0.2-2.2,0.6-3.3c0.6-1.5,1.8-2.7,3.3-3.3c1.1-0.4,2.2-0.6,3.3-0.6
	C283.4,89.3,284,89.3,288.7,89.2 M288.7,86.1c-4.8,0-5.4,0-7.3,0.1c-1.5,0-2.9,0.3-4.3,0.8c-2.4,0.9-4.3,2.8-5.2,5.2
	c-0.5,1.4-0.8,2.8-0.8,4.3c-0.1,1.9-0.1,2.5-0.1,7.3s0,5.4,0.1,7.3c0.1,1.5,0.4,2.9,0.9,4.3c0.9,2.4,2.8,4.3,5.2,5.2
	c1.4,0.5,2.9,0.8,4.3,0.8c1.9,0.1,2.5,0.1,7.3,0.1s5.4,0,7.3-0.1c1.5,0,2.9-0.3,4.3-0.8c2.4-0.9,4.3-2.8,5.2-5.2
	c0.5-1.4,0.8-2.8,0.8-4.3c0.1-1.9,0.1-2.5,0.1-7.3s0-5.4-0.1-7.3c0-1.5-0.3-2.9-0.8-4.3c-0.9-2.4-2.8-4.3-5.2-5.2
	c-1.4-0.5-2.9-0.8-4.3-0.8C294.2,86,293.6,86,288.7,86.1L288.7,86.1L288.7,86.1z"/>
<path class="st2" d="M288.7,94.7c-5,0-9.1,4.1-9.1,9.1s4.1,9.1,9.1,9.1s9.1-4.1,9.1-9.1S293.8,94.7,288.7,94.7L288.7,94.7z
	 M288.7,109.8c-3.3,0-5.9-2.7-5.9-5.9s2.7-5.9,5.9-5.9s5.9,2.7,5.9,5.9l0,0C294.7,107.1,292,109.8,288.7,109.8z"/>
<circle class="st2" cx="298.2" cy="94.3" r="2.1"/>
<g class="st1">
	<path class="st2" d="M1030.4,138.3c-0.8,0-1.5-0.1-2.2-0.4c-0.7-0.3-1.3-0.6-1.8-1.1s-0.9-1-1.2-1.7s-0.4-1.4-0.4-2.2
		c0-0.8,0.1-1.5,0.4-2.2c0.3-0.7,0.7-1.2,1.2-1.7c0.5-0.5,1.1-0.8,1.8-1.1c0.7-0.3,1.4-0.4,2.2-0.4c0.7,0,1.4,0.1,2.1,0.4
		c0.7,0.2,1.3,0.6,1.8,1s1,1,1.3,1.6s0.5,1.3,0.5,2c0,0.7-0.1,1.2-0.4,1.6s-0.6,0.7-1,0.9c-0.4,0.2-0.8,0.3-1.3,0.3
		c-0.3,0-0.6-0.1-0.8-0.2c-0.3-0.1-0.4-0.3-0.6-0.5c-0.1,0.1-0.2,0.3-0.3,0.4c-0.1,0.2-0.4,0.3-0.6,0.4c-0.3,0.1-0.6,0.1-1.1,0.1
		c-0.5,0-0.9-0.1-1.3-0.4c-0.4-0.2-0.7-0.6-0.9-1c-0.2-0.4-0.3-0.8-0.3-1.3c0-0.5,0.1-0.9,0.3-1.3c0.2-0.4,0.5-0.7,0.8-0.9
		c0.4-0.2,0.7-0.3,1.2-0.3c0.2,0,0.4,0,0.5,0.1c0.2,0,0.3,0.1,0.5,0.2s0.3,0.2,0.5,0.3v-0.4h1.7v2.3c0,0.1,0,0.2,0,0.3
		c0,0.1,0.1,0.2,0.1,0.3c0.1,0.1,0.2,0.1,0.3,0.1c0.2,0,0.3,0,0.4-0.1c0.1-0.1,0.2-0.2,0.2-0.4s0.1-0.4,0.1-0.6
		c0-0.4-0.1-0.8-0.3-1.2s-0.4-0.7-0.8-1c-0.3-0.3-0.7-0.5-1.1-0.6c-0.4-0.1-0.9-0.2-1.4-0.2c-0.5,0-1,0.1-1.4,0.3
		c-0.4,0.2-0.8,0.4-1.1,0.8c-0.3,0.3-0.6,0.7-0.8,1.1c-0.2,0.4-0.3,0.9-0.3,1.3c0,0.5,0.1,0.9,0.3,1.3c0.2,0.4,0.4,0.8,0.7,1.1
		c0.3,0.3,0.7,0.5,1.1,0.7c0.4,0.2,0.9,0.3,1.4,0.3c0.3,0,0.6,0,0.9-0.1c0.3-0.1,0.5-0.2,0.7-0.2c0.2-0.1,0.3-0.2,0.4-0.3l1.7,1.5
		c-0.1,0.2-0.4,0.3-0.7,0.5c-0.3,0.2-0.7,0.3-1.2,0.5S1031.1,138.3,1030.4,138.3z M1030.5,133.8c0.2,0,0.4-0.1,0.6-0.2
		c0.2-0.2,0.2-0.4,0.2-0.6c0-0.1,0-0.3-0.1-0.4c-0.1-0.1-0.2-0.2-0.3-0.3c-0.1-0.1-0.3-0.1-0.4-0.1c-0.2,0-0.4,0.1-0.6,0.2
		c-0.2,0.2-0.2,0.3-0.2,0.6c0,0.2,0.1,0.4,0.2,0.6S1030.3,133.8,1030.5,133.8z"/>
	<path class="st2" d="M1043.2,131.4c0.5,0,0.9,0,1.2,0.1c0.4,0.1,0.7,0.2,0.9,0.2c0.2,0.1,0.4,0.2,0.5,0.2l-0.9,1.6
		c-0.1-0.1-0.3-0.2-0.5-0.3c-0.3-0.1-0.6-0.2-0.9-0.2c-0.2,0-0.4,0-0.5,0.1c-0.1,0-0.2,0.1-0.2,0.3c0,0.1,0.1,0.2,0.2,0.3
		c0.2,0.1,0.4,0.1,0.7,0.2c0.3,0.1,0.6,0.2,0.9,0.3s0.6,0.3,0.8,0.6c0.2,0.3,0.3,0.6,0.3,1.1c0,0.5-0.1,0.9-0.3,1.2
		c-0.2,0.3-0.5,0.5-0.8,0.7s-0.7,0.3-1.1,0.3c-0.4,0.1-0.8,0.1-1.1,0.1c-0.5,0-1,0-1.4-0.1c-0.4-0.1-0.7-0.2-0.9-0.3
		c-0.2-0.1-0.4-0.2-0.5-0.3l0.9-1.8c0.1,0.1,0.4,0.2,0.7,0.4c0.3,0.1,0.6,0.2,1,0.2c0.3,0,0.5,0,0.7-0.1c0.2-0.1,0.2-0.2,0.2-0.3
		c0-0.1,0-0.2-0.1-0.2s-0.2-0.1-0.3-0.2c-0.1,0-0.3-0.1-0.5-0.1c-0.2,0-0.4-0.1-0.6-0.2c-0.2-0.1-0.5-0.2-0.7-0.4
		c-0.2-0.2-0.4-0.4-0.5-0.6s-0.2-0.5-0.2-0.9c0-0.5,0.1-0.8,0.4-1.1c0.3-0.3,0.7-0.5,1.1-0.7
		C1042.2,131.5,1042.7,131.4,1043.2,131.4z"/>
	<path class="st2" d="M1052.9,134.5c0,0.5,0.1,0.8,0.2,1.1c0.2,0.3,0.4,0.4,0.8,0.4c0.4,0,0.7-0.1,0.8-0.4c0.2-0.3,0.2-0.6,0.2-1.1
		v-2.9h2.7v3.2c0,0.7-0.1,1.3-0.4,1.8c-0.3,0.5-0.7,0.9-1.3,1.2s-1.3,0.4-2.1,0.4c-0.8,0-1.5-0.1-2.1-0.4c-0.6-0.3-1-0.7-1.3-1.2
		c-0.3-0.5-0.5-1.1-0.5-1.8v-3.2h2.7V134.5z"/>
	<path class="st2" d="M1062.2,138.1v-10.8h2.8v5.2c0.1-0.1,0.2-0.3,0.4-0.5c0.2-0.2,0.4-0.3,0.7-0.4c0.3-0.1,0.7-0.2,1-0.2
		c0.6,0,1.2,0.2,1.6,0.5c0.5,0.3,0.8,0.7,1.1,1.3s0.4,1.1,0.4,1.7s-0.1,1.2-0.4,1.7c-0.2,0.5-0.6,0.9-1.1,1.2
		c-0.5,0.3-1,0.5-1.6,0.5c-0.3,0-0.6-0.1-0.9-0.2s-0.5-0.2-0.8-0.4s-0.4-0.4-0.5-0.6v1H1062.2z M1067.4,134.9c0-0.2-0.1-0.4-0.2-0.6
		c-0.1-0.2-0.3-0.3-0.4-0.5c-0.2-0.1-0.4-0.2-0.6-0.2c-0.2,0-0.5,0.1-0.6,0.2c-0.2,0.1-0.3,0.3-0.4,0.5c-0.1,0.2-0.2,0.4-0.2,0.6
		s0.1,0.4,0.2,0.6c0.1,0.2,0.3,0.3,0.4,0.5c0.2,0.1,0.4,0.2,0.6,0.2c0.2,0,0.5-0.1,0.6-0.2c0.2-0.1,0.3-0.3,0.4-0.5
		C1067.4,135.3,1067.4,135.1,1067.4,134.9z"/>
	<path class="st2" d="M1073.8,131.6h3l1.3,3.9l1.4-3.9h3l-2.7,6.4h-3.3L1073.8,131.6z"/>
	<path class="st2" d="M1088.7,135.4c0,0.2,0.1,0.3,0.2,0.5c0.1,0.1,0.3,0.2,0.5,0.3c0.2,0.1,0.4,0.1,0.7,0.1c0.3,0,0.5,0,0.7-0.1
		c0.2,0,0.4-0.1,0.6-0.2c0.2-0.1,0.3-0.1,0.4-0.2l1,1.7c-0.1,0.1-0.3,0.2-0.5,0.3c-0.2,0.1-0.6,0.2-1,0.3c-0.4,0.1-0.9,0.1-1.5,0.1
		c-0.7,0-1.4-0.1-1.9-0.4c-0.6-0.3-1-0.6-1.4-1.2c-0.3-0.5-0.5-1.2-0.5-1.9c0-0.6,0.1-1.2,0.4-1.7c0.3-0.5,0.7-0.9,1.2-1.2
		c0.5-0.3,1.2-0.4,1.9-0.4c0.7,0,1.4,0.1,1.9,0.4s0.9,0.6,1.2,1.2c0.3,0.5,0.4,1.2,0.4,1.9c0,0,0,0.1,0,0.2s0,0.2,0,0.2H1088.7z
		 M1090.6,134.2c0-0.2,0-0.3-0.1-0.5c-0.1-0.1-0.2-0.2-0.3-0.3c-0.1-0.1-0.3-0.1-0.5-0.1c-0.2,0-0.3,0-0.5,0.1
		c-0.1,0.1-0.3,0.2-0.3,0.3c-0.1,0.1-0.1,0.3-0.1,0.5H1090.6z"/>
</g>
<g class="st1">
	<path class="st2" d="M1100.8,138.1h-2.8v-6.4h2.8v1h0c0.1-0.1,0.2-0.3,0.3-0.4c0.2-0.2,0.4-0.3,0.7-0.5c0.3-0.1,0.7-0.2,1.1-0.2
		c0.3,0,0.6,0,0.8,0.1s0.5,0.2,0.6,0.3l-1.1,2.3c-0.1-0.1-0.2-0.2-0.4-0.3c-0.2-0.1-0.4-0.2-0.7-0.2c-0.3,0-0.6,0.1-0.8,0.2
		c-0.2,0.1-0.3,0.3-0.4,0.5c-0.1,0.2-0.1,0.4-0.1,0.6V138.1z"/>
</g>
<g class="st1">
	<path class="st2" d="M1111.1,131.4c0.5,0,0.9,0,1.2,0.1c0.4,0.1,0.7,0.2,0.9,0.2c0.2,0.1,0.4,0.2,0.5,0.2l-0.9,1.6
		c-0.1-0.1-0.3-0.2-0.5-0.3c-0.3-0.1-0.6-0.2-0.9-0.2c-0.2,0-0.4,0-0.5,0.1s-0.2,0.1-0.2,0.3c0,0.1,0.1,0.2,0.2,0.3
		c0.2,0.1,0.4,0.1,0.7,0.2c0.3,0.1,0.6,0.2,0.9,0.3c0.3,0.1,0.6,0.3,0.8,0.6c0.2,0.3,0.3,0.6,0.3,1.1c0,0.5-0.1,0.9-0.3,1.2
		c-0.2,0.3-0.5,0.5-0.8,0.7s-0.7,0.3-1.1,0.3c-0.4,0.1-0.8,0.1-1.1,0.1c-0.5,0-1,0-1.4-0.1c-0.4-0.1-0.7-0.2-0.9-0.3
		c-0.2-0.1-0.4-0.2-0.5-0.3l0.9-1.8c0.1,0.1,0.4,0.2,0.7,0.4c0.3,0.1,0.6,0.2,1,0.2c0.3,0,0.5,0,0.7-0.1c0.1-0.1,0.2-0.2,0.2-0.3
		c0-0.1,0-0.2-0.1-0.2s-0.2-0.1-0.3-0.2c-0.1,0-0.3-0.1-0.5-0.1c-0.2,0-0.4-0.1-0.6-0.2c-0.2-0.1-0.5-0.2-0.7-0.4
		c-0.2-0.2-0.4-0.4-0.5-0.6s-0.2-0.5-0.2-0.9c0-0.5,0.1-0.8,0.4-1.1s0.7-0.5,1.1-0.7C1110.1,131.5,1110.6,131.4,1111.1,131.4z"/>
	<path class="st2" d="M1120.7,134.5c0,0.5,0.1,0.8,0.2,1.1s0.4,0.4,0.8,0.4c0.4,0,0.7-0.1,0.8-0.4c0.2-0.3,0.2-0.6,0.2-1.1v-2.9h2.7
		v3.2c0,0.7-0.1,1.3-0.4,1.8c-0.3,0.5-0.7,0.9-1.3,1.2c-0.6,0.3-1.3,0.4-2.1,0.4c-0.8,0-1.5-0.1-2.1-0.4c-0.6-0.3-1-0.7-1.3-1.2
		c-0.3-0.5-0.5-1.1-0.5-1.8v-3.2h2.7V134.5z"/>
	<path class="st2" d="M1139.4,131.4c0.5,0,0.9,0.1,1.3,0.3c0.4,0.2,0.7,0.5,0.9,0.9s0.3,1,0.3,1.6v3.8h-2.7v-3.4
		c0-0.4-0.1-0.7-0.2-0.9c-0.1-0.2-0.3-0.4-0.7-0.4c-0.2,0-0.4,0.1-0.6,0.2c-0.2,0.1-0.3,0.3-0.3,0.5c-0.1,0.2-0.1,0.4-0.1,0.6v3.4
		h-2.5v-3.4c0-0.4-0.1-0.7-0.2-0.9c-0.1-0.2-0.3-0.4-0.7-0.4c-0.2,0-0.4,0.1-0.6,0.2c-0.2,0.1-0.3,0.3-0.4,0.5
		c-0.1,0.2-0.1,0.4-0.1,0.6v3.4h-2.8v-6.4h2.8v0.9c0.1-0.2,0.2-0.3,0.4-0.5c0.2-0.2,0.5-0.3,0.8-0.4c0.3-0.1,0.6-0.2,1-0.2
		c0.4,0,0.7,0,1,0.1s0.5,0.2,0.6,0.4s0.3,0.4,0.4,0.6c0.1-0.2,0.2-0.3,0.4-0.5c0.2-0.2,0.5-0.3,0.8-0.4
		C1138.6,131.5,1139,131.4,1139.4,131.4z"/>
	<path class="st2" d="M1147.9,138.3c-0.4,0-0.8-0.2-1.1-0.5c-0.3-0.3-0.5-0.7-0.5-1.1c0-0.4,0.2-0.8,0.5-1.1s0.7-0.5,1.1-0.5
		c0.4,0,0.8,0.2,1.1,0.5c0.3,0.3,0.5,0.7,0.5,1.1c0,0.4-0.2,0.8-0.5,1.1C1148.7,138.1,1148.4,138.3,1147.9,138.3z"/>
	<path class="st2" d="M1157.2,131.4c0.5,0,0.9,0,1.2,0.1c0.4,0.1,0.7,0.2,0.9,0.2c0.2,0.1,0.4,0.2,0.5,0.2l-0.9,1.6
		c-0.1-0.1-0.3-0.2-0.5-0.3c-0.3-0.1-0.6-0.2-0.9-0.2c-0.2,0-0.4,0-0.5,0.1c-0.1,0-0.2,0.1-0.2,0.3c0,0.1,0.1,0.2,0.2,0.3
		c0.2,0.1,0.4,0.1,0.7,0.2c0.3,0.1,0.6,0.2,0.9,0.3s0.6,0.3,0.8,0.6c0.2,0.3,0.3,0.6,0.3,1.1c0,0.5-0.1,0.9-0.3,1.2
		c-0.2,0.3-0.5,0.5-0.8,0.7s-0.7,0.3-1.1,0.3c-0.4,0.1-0.8,0.1-1.1,0.1c-0.5,0-1,0-1.4-0.1c-0.4-0.1-0.7-0.2-0.9-0.3
		c-0.2-0.1-0.4-0.2-0.5-0.3l0.9-1.8c0.1,0.1,0.4,0.2,0.7,0.4c0.3,0.1,0.6,0.2,1,0.2c0.3,0,0.5,0,0.7-0.1c0.2-0.1,0.2-0.2,0.2-0.3
		c0-0.1,0-0.2-0.1-0.2s-0.2-0.1-0.3-0.2c-0.1,0-0.3-0.1-0.5-0.1c-0.2,0-0.4-0.1-0.6-0.2c-0.2-0.1-0.5-0.2-0.7-0.4
		c-0.2-0.2-0.4-0.4-0.5-0.6s-0.2-0.5-0.2-0.9c0-0.5,0.1-0.8,0.4-1.1c0.3-0.3,0.7-0.5,1.1-0.7
		C1156.2,131.5,1156.7,131.4,1157.2,131.4z"/>
	<path class="st2" d="M1169,131.4c0.5,0,0.9,0.1,1.4,0.3s0.8,0.5,1.1,0.9s0.4,0.9,0.4,1.6v3.9h-2.8v-3.5c0-0.4-0.1-0.7-0.3-0.9
		s-0.4-0.3-0.7-0.3c-0.2,0-0.4,0.1-0.6,0.2s-0.3,0.3-0.5,0.4s-0.2,0.4-0.2,0.7v3.4h-2.8v-10.8h2.8v5.2c0.1-0.2,0.2-0.3,0.4-0.5
		c0.2-0.2,0.5-0.3,0.8-0.4S1168.7,131.4,1169,131.4z"/>
	<path class="st2" d="M1179.7,138.3c-0.7,0-1.4-0.1-1.9-0.4c-0.6-0.3-1-0.7-1.3-1.2s-0.5-1.1-0.5-1.8s0.2-1.3,0.5-1.8
		c0.3-0.5,0.8-0.9,1.3-1.2c0.6-0.3,1.2-0.4,1.9-0.4c0.7,0,1.4,0.1,1.9,0.4c0.6,0.3,1,0.7,1.3,1.2c0.3,0.5,0.5,1.1,0.5,1.8
		s-0.2,1.3-0.5,1.8s-0.7,0.9-1.3,1.2C1181,138.1,1180.4,138.3,1179.7,138.3z M1179.7,136c0.2,0,0.4,0,0.6-0.1s0.3-0.2,0.4-0.4
		c0.1-0.2,0.1-0.4,0.1-0.6c0-0.2,0-0.4-0.1-0.6c-0.1-0.2-0.2-0.3-0.4-0.4c-0.2-0.1-0.3-0.1-0.6-0.1c-0.2,0-0.4,0-0.6,0.1
		c-0.2,0.1-0.3,0.2-0.4,0.4s-0.1,0.4-0.1,0.6c0,0.2,0,0.4,0.1,0.6c0.1,0.2,0.2,0.3,0.4,0.4S1179.5,136,1179.7,136z"/>
	<path class="st2" d="M1190.3,141.3h-2.7v-9.7h2.8v0.8c0.1-0.1,0.2-0.3,0.4-0.5c0.2-0.2,0.5-0.3,0.8-0.4c0.3-0.1,0.7-0.2,1-0.2
		c0.6,0,1.2,0.2,1.6,0.5c0.4,0.3,0.8,0.7,1,1.3s0.3,1.1,0.3,1.7s-0.1,1.2-0.4,1.7c-0.3,0.5-0.6,0.9-1.1,1.2c-0.5,0.3-1,0.5-1.7,0.5
		c-0.4,0-0.8-0.1-1.1-0.2c-0.3-0.1-0.5-0.3-0.7-0.5c-0.2-0.2-0.3-0.3-0.3-0.4V141.3z M1192.9,134.9c0-0.2-0.1-0.4-0.2-0.6
		c-0.1-0.2-0.3-0.3-0.4-0.5c-0.2-0.1-0.4-0.2-0.6-0.2c-0.2,0-0.5,0.1-0.7,0.2c-0.2,0.1-0.3,0.3-0.4,0.5c-0.1,0.2-0.2,0.4-0.2,0.6
		s0.1,0.4,0.2,0.6c0.1,0.2,0.3,0.3,0.4,0.5c0.2,0.1,0.4,0.2,0.7,0.2c0.2,0,0.4-0.1,0.6-0.2c0.2-0.1,0.3-0.3,0.4-0.5
		C1192.8,135.3,1192.9,135.1,1192.9,134.9z"/>
</g>
<path class="st2" d="M1126.3,86.4h-30.9c-1.1,0-1.9,0.9-1.9,1.9v30.9c0,1.1,0.9,1.9,1.9,1.9h16.7v-13.5h-4.6v-5.2h4.5v-3.9
	c0-4.5,2.7-6.9,6.7-6.9c1.3,0,2.7,0.1,4.1,0.2v4.7h-2.8c-2.2,0-2.6,1-2.6,2.6v3.3h5.2l-0.7,5.2h-4.5v13.5h8.9c1.1,0,1.9-0.9,1.9-1.9
	V88.4C1128.2,87.3,1127.4,86.5,1126.3,86.4L1126.3,86.4z"/>
</svg>
