<?xml version="1.0" encoding="UTF-8"?><svg id="Capa_2" xmlns="http://www.w3.org/2000/svg" viewBox="0 0 759.5 183.33"><defs><style>.cls-1{fill:#402e27;}.cls-1,.cls-2{stroke-width:0px;}.cls-3{fill:none;stroke:#000;stroke-miterlimit:10;stroke-width:.5px;}.cls-2{fill:#a66953;}</style></defs><g id="_9.presentación_logotipo"><path class="cls-2" d="M175.05,109.37v19.39h7.51c3.56,0,6.45-2.15,6.45-4.81v-8.51c0-5.36-2.35-6.1-5.17-6.1-1.11,0-4.13.02-8.79.02Z"/><path class="cls-2" d="M175.05,143.11v19.39h7.51c3.56,0,6.45-2.15,6.45-4.81v-8.51c0-5.36-2.35-6.1-5.17-6.1-1.11,0-4.13.02-8.79.02Z"/><path class="cls-2" d="M557.32,18.15v19.39h7.51c3.56,0,6.45-2.15,6.45-4.81v-8.51c0-5.36-2.35-6.1-5.17-6.1-1.11,0-4.13.02-8.79.02Z"/><path class="cls-2" d="M.45,135.53h19.39v-7.51c0-3.56-2.15-6.45-4.81-6.45H6.53c-5.36,0-6.1,2.35-6.1,5.17,0,1.11.02,4.13.02,8.79Z"/><path class="cls-2" d="M609.97,135.53h19.39v-7.51c0-3.56-2.15-6.45-4.81-6.45h-8.51c-5.36,0-6.1,2.35-6.1,5.17,0,1.11.02,4.13.02,8.79Z"/><path class="cls-1" d="M74.6,37.35h27.91v86.6c0,2.49,2.55,4.63,5.88,4.79,5.38.26,8.08-1.33,8.08-4.78V37.35h27.91c-4.65,3.21-6.98,33.68-6.98,91.41,0,7.97-8.65,14.44-19.34,14.44h-17.15c-10.69,0-19.34-6.47-19.34-14.44,0-57.73-2.33-88.2-6.98-91.41Z"/><path class="cls-1" d="M197.94,101.68c-.99.42-2.06.72-3.22.91,8.6,1.67,12.9,5.73,12.9,18.56v7.06c0,7.97-8.66,14.98-19.34,14.98h-38.71c4.3-3.21,6.45-20.85,6.45-52.92s-2.15-49.72-6.45-52.92h38.71c10.68,0,19.34,6.46,19.34,13.13v27.79c0,11.44-3.22,20.78-9.67,23.41ZM175.05,51.67v43.12c1.49,0,2.86-.08,4.12-.24,2.65-.35,4.77-1.07,6.35-2.16,2.33-1.6,3.49-5.61,3.49-12.02v-23.89c0-2.66-2.89-4.81-6.45-4.81h-7.51ZM175.05,109.37v19.39h7.51c3.56,0,6.45-2.15,6.45-4.81v-8.51c0-5.36-2.35-6.1-5.17-6.1-1.11,0-4.13.02-8.79.02Z"/><path class="cls-1" d="M212.79,37.31h25.8l6.45,72.17,6.45-72.17h25.8c-4.73,3.53-11.18,38.81-19.35,105.85h-25.8c-8.17-67.04-14.62-102.32-19.35-105.85Z"/><path class="cls-1" d="M307.51,51.78v43.15c4.17,0,10.43-1.6,18.78-4.81v24.06c-8.35-3.21-14.61-4.81-18.78-4.81v19.4c8.35,0,14.61-1.6,18.78-4.81v19.24h-43.82c4.17-3.21,6.26-20.85,6.26-52.92s-2.09-49.72-6.26-52.92h43.82v19.24c-4.17-3.21-10.43-4.81-18.78-4.81Z"/><path class="cls-1" d="M359.57,109.35c-.73.13-1.44-.13-2.22,0,0,19.24,2.06,30.64,6.36,33.85h-32.25c4.3-3.21,6.45-20.85,6.45-52.92s-2.15-49.72-6.45-52.92h38.7c12.9.58,19.35,5.39,19.35,13.14v27.39c0,10.95-3.89,19.75-11.67,24.76,4.6,15.3,12.79,28.82,24.57,40.56h-25.8l-17.05-33.85ZM356.95,51.67v43.1c4.65,0,8.14-1.6,10.47-4.81,2.33-3.21,3.49-8.01,3.49-14.43v-19.05c0-2.66-2.89-4.81-6.45-4.81h-7.51Z"/><path class="cls-1" d="M458.02,37.35h27.91v86.6c0,2.49,2.55,4.63,5.88,4.79,5.38.26,8.08-1.33,8.08-4.78V37.35h27.91c-4.65,3.21-6.98,33.68-6.98,91.41,0,7.97-8.65,14.44-19.34,14.44h-17.15c-10.69,0-19.34-6.47-19.34-14.44,0-57.73-2.33-88.2-6.98-91.41Z"/><path class="cls-1" d="M532.99,37.35h25.59l12.79,27.32,12.79-27.32h25.59c-4.26,3.21-6.4,20.85-6.4,52.92s2.13,49.72,6.4,52.92h-25.59v-71.7l-12.79,24.52-12.79-24.52v71.7h-25.59c4.26-3.21,6.4-20.85,6.4-52.92s-2.13-49.72-6.4-52.92Z"/><path class="cls-1" d="M422.31,143.25c-12.22,0-19.1-3.73-19.1-11.85v-48.4c.17,1.6.52,3.83,1.33,6.41.24.75.82,2.53,2.45,5.91.9,1.86,1.6,3.13,3.69,6.83,4.03,7.11,5,8.69,6.1,11.64.73,1.94,1.17,3.58,1.42,4.62-1.39-.48-2.59-.63-3.46-.67-1.4-.06-2.3-.1-3.13.48-.96.67-1.22,1.75-1.48,2.77-.18.71-.55,2.3.18,4.06.47,1.13,1.18,1.81,1.52,2.12,1.51,1.41,3.27,1.75,4.06,1.85,5.5-.03,11-.05,16.5-.08,0-5.41-4.25-12.64-13.14-28.33-10.36-18.29-16.05-42.92-16.05-51.04s6.11-12.18,18.32-12.18h12.22c12.22,0,18.32,4.06,18.32,12.18l.68,57c-3.7-4-6.57-7.65-8.67-10.53-2.57-3.51-5.84-8.03-9.05-14.59-1.01-2.07-2.67-5.67-4.25-10.34-1.09-3.22-1.85-6.1-2.4-8.5.56.1,4.42.74,7.2-1.85.59-.55,2.91-2.69,2.22-5.36-.45-1.72-1.88-3.08-3.69-3.51h-12.56c2.59,21.79,9.73,35.77,16.04,44.66,2.67,3.76,15.27,20.99,15.27,34.51,0,8.12-6.11,12.18-18.32,12.18h-12.22Z"/><path class="cls-1" d="M50.32,37.4c12.22,0,19.1,3.73,19.1,11.85v48.4c-.17-1.6-.52-3.83-1.33-6.41-.24-.75-.82-2.53-2.45-5.91-.9-1.86-1.6-3.13-3.69-6.83-4.03-7.11-5-8.69-6.1-11.64-.73-1.94-1.17-3.58-1.42-4.62,1.39.48,2.59.63,3.46.67,1.4.06,2.3.1,3.13-.48.96-.67,1.22-1.75,1.48-2.77.18-.71.55-2.3-.18-4.06-.47-1.13-1.18-1.81-1.52-2.12-1.51-1.41-3.27-1.75-4.06-1.85-5.5.03-11,.05-16.5.08,0,5.41,4.25,12.64,13.14,28.33,10.36,18.29,16.05,42.92,16.05,51.04s-6.11,12.18-18.32,12.18h-12.22c-12.22,0-18.32-4.06-18.32-12.18l-.68-57c3.7,4,6.57,7.65,8.67,10.53,2.57,3.51,5.84,8.03,9.05,14.59,1.01,2.07,2.67,5.67,4.25,10.34,1.09,3.22,1.85,6.1,2.4,8.5-.56-.1-4.42-.74-7.2,1.85-.59.55-2.91,2.69-2.22,5.36.45,1.72,1.88,3.08,3.69,3.51h12.56c-2.59-21.79-9.73-35.77-16.04-44.66-2.67-3.76-15.27-20.99-15.27-34.51,0-8.12,6.11-12.18,18.32-12.18h12.22Z"/><rect class="cls-3" x="20.02" y="37.51" width="589.49" height="105.45"/><rect class="cls-3" x=".25" y="17.74" width="629.04" height="145"/><path class="cls-1" d="M718.13,41.18c11.31,0,17.68,3.46,17.68,10.97v44.81c-.16-1.48-.48-3.55-1.23-5.93-.22-.7-.76-2.35-2.27-5.47-.83-1.72-1.48-2.9-3.42-6.33-3.73-6.59-4.63-8.05-5.64-10.78-.67-1.8-1.08-3.32-1.32-4.28,1.28.44,2.4.58,3.21.62,1.29.06,2.13.09,2.9-.45.89-.62,1.13-1.62,1.37-2.57.16-.66.51-2.13-.17-3.76-.44-1.05-1.09-1.68-1.4-1.97-1.39-1.31-3.03-1.62-3.76-1.71-5.09.02-10.19.05-15.28.07,0,5.01,3.94,11.7,12.17,26.23,9.6,16.93,14.86,39.74,14.86,47.26s-5.66,11.28-16.97,11.28h-11.31c-11.31,0-16.97-3.76-16.97-11.28l-.63-52.78c3.42,3.71,6.08,7.08,8.03,9.75,2.38,3.25,5.41,7.44,8.38,13.51.94,1.91,2.47,5.25,3.93,9.58,1.01,2.98,1.72,5.65,2.22,7.87-.52-.09-4.09-.69-6.67,1.71-.55.51-2.7,2.49-2.05,4.96.42,1.6,1.74,2.85,3.42,3.25h11.63c-2.4-20.18-9.01-33.12-14.85-41.35-2.47-3.48-14.14-19.43-14.14-31.95,0-7.52,5.66-11.28,16.97-11.28h11.31Z"/><rect class="cls-3" x="690.07" y="41.29" width="45.67" height="97.64"/><rect class="cls-3" x="667.54" y="18.06" width="91.71" height="144.44"/><rect class="cls-2" x="690.18" y="18.35" width="22.93" height="22.93"/><rect class="cls-2" x="667.25" y="41.28" width="22.93" height="22.93"/><rect class="cls-2" x="713.11" y="139.29" width="22.93" height="22.93"/><rect class="cls-2" x="736.04" y="115.79" width="22.93" height="22.93"/><line class="cls-3" x1="712.84" x2="712.84" y2="183.33"/><line class="cls-3" x1="689.91" x2="689.91" y2="183.33"/></g></svg>