<?xml version="1.0" encoding="UTF-8"?><svg id="Capa_2" xmlns="http://www.w3.org/2000/svg" viewBox="0 0 45.96 98.01"><defs><style>.cls-1{fill:#402e27;stroke-width:0px;}</style></defs><g id="_9.presentación_logotipo"><path class="cls-1" d="M28.28,0c11.31,0,17.68,3.46,17.68,10.97v44.81c-.16-1.48-.48-3.55-1.23-5.93-.22-.7-.76-2.35-2.27-5.47-.83-1.72-1.48-2.9-3.42-6.33-3.73-6.59-4.63-8.05-5.64-10.78-.67-1.8-1.08-3.32-1.32-4.28,1.28.44,2.4.58,3.21.62,1.29.06,2.13.09,2.9-.45.89-.62,1.13-1.62,1.37-2.57.16-.66.51-2.13-.17-3.76-.44-1.05-1.09-1.68-1.4-1.97-1.39-1.31-3.03-1.62-3.76-1.71l-15.28.07c0,5.01,3.94,11.7,12.17,26.23,9.6,16.93,14.86,39.74,14.86,47.26s-5.66,11.28-16.97,11.28h-11.31c-11.31,0-16.97-3.76-16.97-11.28L.09,33.95c3.42,3.71,6.08,7.08,8.03,9.75,2.38,3.25,5.41,7.44,8.38,13.51.94,1.91,2.47,5.25,3.93,9.58,1.01,2.98,1.72,5.65,2.22,7.87-.52-.09-4.09-.69-6.67,1.71-.55.51-2.7,2.49-2.05,4.96.42,1.6,1.74,2.85,3.42,3.25h11.63c-2.4-20.18-9.01-33.12-14.85-41.35C11.67,39.75,0,23.8,0,11.28,0,3.76,5.66,0,16.97,0h11.31Z"/></g></svg>