<?xml version="1.0" encoding="UTF-8"?><svg id="Capa_2" xmlns="http://www.w3.org/2000/svg" viewBox="0 0 342.15 61.44"><defs><style>.cls-1{fill:#402e27;stroke-width:0px;}</style></defs><g id="_3.presentación"><path class="cls-1" d="M31.79.02h16.19v50.22c0,1.44,1.48,2.68,3.41,2.78,3.12.15,4.68-.77,4.68-2.77V.02h16.19c-2.7,1.86-4.05,19.53-4.05,53.01,0,4.62-5.02,8.37-11.22,8.37h-9.94c-6.2,0-11.22-3.75-11.22-8.37,0-33.48-1.35-51.15-4.05-53.01Z"/><path class="cls-1" d="M103.32,37.33c-.57.24-1.2.42-1.87.53,4.99.97,7.48,3.32,7.48,10.76v4.09c0,4.62-5.02,8.69-11.22,8.69h-22.45c2.49-1.86,3.74-12.09,3.74-30.69S77.76,1.88,75.27.02h22.45c6.19,0,11.22,3.75,11.22,7.62v16.12c0,6.63-1.87,12.05-5.61,13.58ZM90.04,8.33v25.01c.86,0,1.66-.05,2.39-.14,1.54-.2,2.77-.62,3.68-1.26,1.35-.93,2.02-3.25,2.02-6.97v-13.85c0-1.54-1.67-2.79-3.74-2.79h-4.36ZM90.04,41.79v11.25h4.36c2.06,0,3.74-1.25,3.74-2.79v-4.93c0-3.11-1.36-3.54-3-3.54-.64,0-2.4,0-5.1,0Z"/><path class="cls-1" d="M111.93,0h14.96l3.74,41.85,3.74-41.85h14.96c-2.74,2.05-6.48,22.51-11.22,61.39h-14.96C118.42,22.51,114.68,2.05,111.93,0Z"/><path class="cls-1" d="M166.86,8.4v25.02c2.42,0,6.05-.93,10.89-2.79v13.95c-4.84-1.86-8.47-2.79-10.89-2.79v11.25c4.84,0,8.47-.93,10.89-2.79v11.16h-25.41c2.42-1.86,3.63-12.09,3.63-30.69S154.76,1.88,152.34.02h25.41v11.16c-2.42-1.86-6.05-2.79-10.89-2.79Z"/><path class="cls-1" d="M197.06,41.78c-.42.07-.84-.07-1.29,0,0,11.16,1.2,17.77,3.69,19.63h-18.7c2.49-1.86,3.74-12.09,3.74-30.69S183.25,1.88,180.76.02h22.44c7.48.33,11.22,3.13,11.22,7.62v15.88c0,6.35-2.26,11.46-6.77,14.36,2.67,8.87,7.42,16.71,14.25,23.52h-14.96l-9.89-19.63ZM195.54,8.33v24.99c2.7,0,4.72-.93,6.07-2.79,1.35-1.86,2.02-4.65,2.02-8.37v-11.05c0-1.54-1.67-2.79-3.74-2.79h-4.36Z"/><path class="cls-1" d="M254.16.02h16.19v50.22c0,1.44,1.48,2.68,3.41,2.78,3.12.15,4.68-.77,4.68-2.77V.02h16.19c-2.7,1.86-4.05,19.53-4.05,53.01,0,4.62-5.02,8.37-11.22,8.37h-9.94c-6.2,0-11.22-3.75-11.22-8.37,0-33.48-1.35-51.15-4.05-53.01Z"/><path class="cls-1" d="M297.63.02h14.84l7.42,15.84L327.31.02h14.84c-2.47,1.86-3.71,12.09-3.71,30.69s1.24,28.83,3.71,30.69h-14.84V19.83l-7.42,14.22-7.42-14.22v41.58h-14.84c2.47-1.86,3.71-12.09,3.71-30.69s-1.24-28.83-3.71-30.69Z"/><path class="cls-1" d="M233.44,61.44c-7.08,0-11.08-2.16-11.08-6.87v-28.07c.1.93.3,2.22.77,3.72.14.44.48,1.47,1.42,3.43.52,1.08.93,1.82,2.14,3.96,2.34,4.13,2.9,5.04,3.54,6.75.42,1.13.68,2.08.83,2.68-.8-.28-1.5-.36-2.01-.39-.81-.04-1.34-.06-1.82.28-.55.39-.71,1.02-.86,1.61-.1.41-.32,1.34.11,2.36.27.66.68,1.05.88,1.23.87.82,1.9,1.01,2.36,1.07,3.19-.02,6.38-.03,9.57-.05,0-3.14-2.47-7.33-7.62-16.43-6.01-10.6-9.31-24.89-9.31-29.6S225.91.05,232.99.05h7.08c7.08,0,10.63,2.35,10.63,7.06l.39,33.06c-2.15-2.32-3.81-4.44-5.03-6.11-1.49-2.04-3.39-4.66-5.25-8.46-.59-1.2-1.55-3.29-2.46-6-.63-1.87-1.08-3.54-1.39-4.93.33.06,2.56.43,4.18-1.07.34-.32,1.69-1.56,1.29-3.11-.26-1-1.09-1.78-2.14-2.04h-7.28c1.5,12.64,5.65,20.75,9.3,25.9,1.55,2.18,8.86,12.17,8.86,20.01,0,4.71-3.54,7.06-10.63,7.06h-7.08Z"/><path class="cls-1" d="M17.71.05c7.08,0,11.08,2.16,11.08,6.87v28.07c-.1-.93-.3-2.22-.77-3.72-.14-.44-.48-1.47-1.42-3.43-.52-1.08-.93-1.82-2.14-3.96-2.34-4.13-2.9-5.04-3.54-6.75-.42-1.13-.68-2.08-.83-2.68.8.28,1.5.36,2.01.39.81.04,1.34.06,1.82-.28.55-.39.71-1.02.86-1.61.1-.41.32-1.34-.11-2.36-.27-.66-.68-1.05-.88-1.23-.87-.82-1.9-1.01-2.36-1.07-3.19.02-6.38.03-9.57.05,0,3.14,2.47,7.33,7.62,16.43,6.01,10.6,9.31,24.89,9.31,29.6s-3.54,7.06-10.63,7.06h-7.08c-7.08,0-10.63-2.35-10.63-7.06L.06,21.32c2.15,2.32,3.81,4.44,5.03,6.11,1.49,2.04,3.39,4.66,5.25,8.46.59,1.2,1.55,3.29,2.46,6,.63,1.87,1.08,3.54,1.39,4.93-.33-.06-2.56-.43-4.18,1.07-.34.32-1.69,1.56-1.29,3.11.26,1,1.09,1.78,2.14,2.04h7.28c-1.5-12.64-5.65-20.75-9.3-25.9C7.31,24.95,0,14.96,0,7.12,0,2.41,3.54.05,10.63.05h7.08Z"/></g></svg>