<?xml version="1.0" encoding="UTF-8"?><svg id="Capa_2" xmlns="http://www.w3.org/2000/svg" xmlns:xlink="http://www.w3.org/1999/xlink" viewBox="0 0 208.63 141.12"><defs><style>.cls-1{letter-spacing:0em;}.cls-2{fill:none;}.cls-2,.cls-3,.cls-4{stroke-width:0px;}.cls-5{letter-spacing:0em;}.cls-3{fill:#c12026;}.cls-6{letter-spacing:0em;}.cls-7{clip-path:url(#clippath);}.cls-8{fill:#000;font-family:MyriadPro-Regular, 'Myriad Pro';font-size:12px;}.cls-9{letter-spacing:0em;}.cls-4{fill:#b93a32;}</style><clipPath id="clippath"><rect class="cls-2" width="208.63" height="50.02"/></clipPath></defs><g id="Capa_1-2"><path class="cls-4" d="M205.56,112.11c-.58.58-1.39.94-2.27.94-1.77,0-3.21-1.44-3.21-3.21v-20.87h-11.24v20.87c0,1.77-1.44,3.21-3.21,3.21s-3.21-1.44-3.21-3.21v-14.45c0-3.55-2.88-6.42-6.42-6.42h-4.82l-1.61,1.61-4.82,4.82c0-3.55-2.87-6.42-6.42-6.42h-12.84c-3.55,0-6.42,2.87-6.42,6.42v17.23c-.47.27-1.02.43-1.61.43-1.77,0-3.21-1.44-3.21-3.21v-14.45c0-3.55-2.87-6.42-6.42-6.42h-4.82l-6.42,6.42v-14.45c0-3.55-2.87-6.42-6.42-6.42h-3.21l-9.63,9.63.94.94c.58-.58,1.39-.94,2.27-.94,1.77,0,3.21,1.44,3.21,3.21v25.25c-.47.27-1.02.43-1.61.43-1.77,0-3.21-1.44-3.21-3.21v-20.87h-22.47c-3.55,0-6.42,2.87-6.42,6.42v17.23c-.47.27-1.02.43-1.61.43-1.77,0-3.21-1.44-3.21-3.21v-27.29c0-3.55-2.87-6.42-6.42-6.42h-3.21l-8.03,8.03v-1.61c0-3.55-2.87-6.42-6.42-6.42h-4.82l-6.42,6.42c0-3.55-2.87-6.42-6.42-6.42h-3.21l-9.63,9.63.94.94c.58-.58,1.39-.94,2.27-.94,1.77,0,3.21,1.44,3.21,3.21v32.11h12.84v-36.48c.47-.28,1.02-.44,1.61-.44,1.77,0,3.21,1.44,3.21,3.21v33.71h12.84v-34.87c.47-.28,1.02-.44,1.61-.44,1.77,0,3.21,1.44,3.21,3.21v25.68c0,3.55,2.87,6.42,6.42,6.42h4.82l6.42-6.42h0c0,3.55,2.87,6.42,6.42,6.42h4.82l6.42-6.42.07.1c-.03.23-.07.47-.07.71,0,2.81,2.06,5.11,4.75,5.53l.07.09h4.82l6.42-6.42v6.42h12.84v-23.65c.47-.27,1.02-.43,1.61-.43,1.77,0,3.21,1.44,3.21,3.21v14.45c0,3.55,2.87,6.42,6.42,6.42h4.82l6.42-6.42c0,3.55,2.87,6.42,6.42,6.42h12.84c3.55,0,6.42-2.87,6.42-6.42v-17.22c.47-.28,1.02-.44,1.61-.44,1.77,0,3.21,1.44,3.21,3.21v14.45c0,3.55,2.88,6.42,6.42,6.42h4.82l6.42-6.42c0,3.55,2.88,6.42,6.42,6.42h4.82l8.03-8.03-.94-.94ZM87.71,111.44v1.16c-.47.28-1.02.44-1.61.44-1.19,0-2.21-.65-2.77-1.61-.28-.47-.44-1.02-.44-1.61v-9.63c0-1.77,1.44-3.21,3.21-3.21.59,0,1.13.17,1.61.44v14.01ZM155.13,100.92v8.92c0,1.69-1.31,3.06-2.97,3.19-.08,0-.15.03-.24.03s-.16-.02-.24-.03c-1.66-.12-2.97-1.49-2.97-3.19v-9.63c0-1.69,1.31-3.06,2.97-3.19.08,0,.15-.03.24-.03s.16.02.24.03c1.66.12,2.97,1.49,2.97,3.19v.71Z"/><g class="cls-7"><path class="cls-3" d="M198.33,39.39v-22.03h-11.81v24.86s-1.61,1.3-2.81,1.46-1.32-1.66-1.32-1.66v-20.27c0-3.95-6.42-5.85-6.42-5.85l-9.68,8.74c-.36-2.29-1.26-3.36-1.26-3.36l-16.69-5.08c-5.62,2.66-8.78,7.08-10.39,12.16s0,13.36,0,13.36c-.97,1.06-2.36,1.89-3.45,1.96-1.1.07-1.39-1.66-1.39-1.66v-19.54c0-4.25-6.42-6.08-6.42-6.08l-10.33,9.21v-14.29c0-6.98-6.49-8.44-6.49-8.44h-2.87l-8.71,7.91c5.91,0,6.42,6.25,6.42,6.25v23.93s-2.23,1.43-3.78,1.96c-1.55.53-1.71-3.26-1.71-3.26v-21.74s-6.39-.13-14.23,0c-8.1.17-13.43,8.34-14.39,12.23-.97,3.89,0,11,0,11-4.36,1.6-5-3.12-5-3.12V9.97c0-3.56-5.74-5.08-5.74-5.08h-4.91l-6.78,6.38c-.23-5.78-5.68-6.38-5.68-6.38h-5.33l-6.55,6.21c0-4.85-6.55-6.21-6.55-6.21h-4.45l-8.42,7.91s2.32-.27,4.23,1.53c1.9,1.76,2,4.02,2,4.02v31.81h13.04V14.23h1.61c2.36,0,3.1,2.99,3.1,2.99v32.84h12.84V14.53h1.78c2.32,0,3.07,2.73,3.07,2.73v25.33s-.36,4.52,3.2,6.78c3.55,2.29,7.29,1,7.29,1l8.26-7.61c4.39,7.94,11.33,7.44,11.33,7.44l4.87-4.72s2.26,3.89,4.2,4.52c4.68,1.5,6.13-.37,6.13-.37l6.65-6.45v6.85h11.65v-21.64h2c2,0,3,2.69,3,2.69v13.13s-.19,2.06,2.71,4.62c2.9,2.53,7.78,1.66,7.78,1.66l7.2-6.65c2.36,3.46,10.23,8.11,15.36,6.71,16.78-4.59,12.49-24.13,12.49-24.13h2.61c1.13,0,1.1,1.89,1.1,1.89v14.89s-.1,2.26,2.65,5.38c2.23,2.53,7.68,1.83,7.68,1.83l6.13-6.02c2,5.78,9.97,6.02,9.97,6.02l6.42-6.45c-5.36.53-5.2-4.59-5.2-4.59M87.57,40.45s-6.2-1.13-6.2-7.74,6.2-7.74,6.2-7.74v15.49ZM155.53,34.8c-.87,5.32-4.52,10.2-4.52,10.2,0,0-2.65-4.42-1.84-11.63s4.65-9.8,4.65-9.8c0,0,2.58,5.92,1.71,11.23"/></g><text class="cls-8" transform="translate(174.94 62.99)"><tspan class="cls-5" x="0" y="0">A</tspan><tspan class="cls-1" x="7.31" y="0">n</tspan><tspan class="cls-6" x="13.92" y="0">t</tspan><tspan x="17.82" y="0">es</tspan></text><text class="cls-8" transform="translate(160.52 137.51)"><tspan class="cls-9" x="0" y="0">D</tspan><tspan x="8.04" y="0">espués</tspan></text></g></svg>