<?xml version="1.0" encoding="UTF-8"?><svg id="Capa_2" xmlns="http://www.w3.org/2000/svg" viewBox="0 0 364.78 565.64"><defs><style>.cls-1{fill:#e3bd33;stroke-width:0px;}</style></defs><g id="Capa_1-2"><path class="cls-1" d="M19.2,57.6c10.6,0,19.2,8.6,19.2,19.2v191.99h0v136.61h-.02v121.84c0,21.21,17.19,38.4,38.4,38.4h28.8l48-48-5.61-5.61c-3.47,3.48-8.29,5.61-13.59,5.61-10.6,0-19.2-8.6-19.2-19.2v-83.95h.02V50.65c2.82-1.66,6.08-2.65,9.6-2.65,10.6,0,19.2,8.6,19.2,19.2v307.71c0,21.21,17.19,38.4,38.4,38.4h28.8l48-48-5.61-5.61c-3.47,3.47-8.29,5.61-13.59,5.61-10.6,0-19.2-8.6-19.2-19.2V60.24c2.82-1.66,6.08-2.65,9.6-2.65.66,0,1.31.03,1.95.1.24.02.48.07.72.11.39.05.79.1,1.17.18.31.06.61.15.91.23.3.08.61.14.91.23.35.11.69.25,1.04.37.24.09.48.16.71.26.38.16.75.35,1.12.53.18.09.36.16.54.26.41.22.8.47,1.19.72.12.08.25.15.37.23.43.28.83.59,1.23.91.07.06.15.11.23.17.43.35.84.72,1.24,1.11.03.03.07.06.11.1.43.42.83.86,1.22,1.31,0,0,0,0,.01.01,2.82,3.34,4.52,7.65,4.52,12.36v153.59c0,21.21,17.19,38.4,38.4,38.4h28.8l48-48-5.61-5.61c-3.47,3.48-8.29,5.61-13.59,5.61-10.6,0-19.2-8.6-19.2-19.2V38.4c0-21.21-17.19-38.4-38.4-38.4h-19.2l-48,48v-9.6c0-21.21-17.19-38.4-38.4-38.4h-28.8l-38.4,38.4C115.19,17.19,98,0,76.79,0h-19.2L0,57.6l5.61,5.61c3.47-3.47,8.29-5.61,13.59-5.61Z"/></g></svg>