<?xml version="1.0" encoding="UTF-8"?><svg id="Capa_2" xmlns="http://www.w3.org/2000/svg" viewBox="0 0 149.75 123.97"><defs><style>.cls-1{stroke-linejoin:round;stroke-width:2px;}.cls-1,.cls-2{fill:none;stroke:#b93a32;}.cls-3{fill:#b93a32;stroke-width:0px;}.cls-2{stroke-miterlimit:10;}</style></defs><g id="Capa_1-2"><path class="cls-3" d="M146.76,88c-1.41,1.41-3.37,2.28-5.53,2.28-4.31,0-7.81-3.49-7.81-7.81V16.11c0-8.62-6.99-15.61-15.61-15.61h-7.81l-19.52,19.52v-3.9c0-8.62-6.99-15.61-15.61-15.61h-11.71l-15.61,15.61c0-8.62-6.99-15.61-15.61-15.61h-7.81L.71,23.92l2.28,2.28c1.41-1.41,3.37-2.28,5.53-2.28,4.31,0,7.81,3.49,7.81,7.81v78.07h31.23V21.09c1.15-.67,2.47-1.08,3.9-1.08,4.31,0,7.81,3.49,7.81,7.81v81.97h31.23V25c1.15-.68,2.47-1.08,3.9-1.08,4.31,0,7.81,3.49,7.81,7.81v62.46c0,8.62,6.99,15.61,15.61,15.61h11.71l19.52-19.52-2.28-2.28Z"/><path class="cls-2" d="M146.76,88c-1.41,1.41-3.37,2.28-5.53,2.28-4.31,0-7.81-3.49-7.81-7.81V16.11c0-8.62-6.99-15.61-15.61-15.61h-7.81l-19.52,19.52v-3.9c0-8.62-6.99-15.61-15.61-15.61h-11.71l-15.61,15.61c0-8.62-6.99-15.61-15.61-15.61h-7.81L.71,23.92l2.28,2.28c1.41-1.41,3.37-2.28,5.53-2.28,4.31,0,7.81,3.49,7.81,7.81v78.07h31.23V21.09c1.15-.67,2.47-1.08,3.9-1.08,4.31,0,7.81,3.49,7.81,7.81v81.97h31.23V25c1.15-.68,2.47-1.08,3.9-1.08,4.31,0,7.81,3.49,7.81,7.81v62.46c0,8.62,6.99,15.61,15.61,15.61h11.71l19.52-19.52-2.28-2.28Z"/><polyline class="cls-1" points="1.71 109.8 1.71 122.97 148.04 122.97 148.04 109.8"/></g></svg>