<?xml version="1.0" encoding="UTF-8"?><svg id="Capa_2" xmlns="http://www.w3.org/2000/svg" viewBox="0 0 710.16 523.28"><defs><style>.cls-1{fill:#b93a32;stroke-width:0px;}</style></defs><g id="Capa_1-2"><path class="cls-1" d="M699.24,418.91c-6.76,6.77-16.13,10.92-26.45,10.92-20.64,0-37.38-16.73-37.38-37.38V74.75c0-41.29-33.47-74.75-74.75-74.75h-37.38l-93.44,93.44v-18.69c0-41.29-33.47-74.75-74.75-74.75h-56.07l-74.75,74.75C224.26,33.47,190.79,0,149.51,0h-37.38L0,112.13l10.92,10.92c6.76-6.77,16.13-10.92,26.46-10.92,20.64,0,37.38,16.73,37.38,37.38v373.77h149.51V98.6c5.5-3.23,11.84-5.16,18.69-5.16,20.64,0,37.38,16.73,37.38,37.38v392.46h149.51V117.29c5.5-3.23,11.85-5.16,18.69-5.16,20.64,0,37.38,16.73,37.38,37.38v299.01c0,41.29,33.47,74.75,74.75,74.75h56.06l93.44-93.44-10.92-10.92Z"/></g></svg>