<?xml version="1.0" encoding="UTF-8"?><svg id="Capa_2" xmlns="http://www.w3.org/2000/svg" viewBox="0 0 432.35 184.5"><defs><style>.cls-1{stroke-linejoin:round;stroke-width:2px;}.cls-1,.cls-2{fill:none;stroke:#b93a32;}.cls-3{fill:#b93a32;stroke-width:0px;}.cls-2{stroke-miterlimit:10;}</style></defs><g id="Capa_1-2"><path class="cls-3" d="M318.82,72.15v19.59c0,3.72-2.89,6.73-6.53,7-.17.01-.34.06-.52.06s-.34-.04-.52-.06c-3.65-.27-6.53-3.28-6.53-7v-21.15c0-3.72,2.88-6.73,6.53-7,.17-.01.34-.06.52-.06s.34.04.52.06c3.65.27,6.53,3.28,6.53,7v1.57ZM170.74,95.26v2.56c-1.04.6-2.24.97-3.53.97-2.6,0-4.86-1.43-6.08-3.53-.6-1.04-.97-2.24-.97-3.53v-21.15c0-3.9,3.16-7.05,7.05-7.05,1.29,0,2.49.36,3.53.97v30.76ZM429.58,96.73c-1.28,1.28-3.05,2.06-4.99,2.06-3.9,0-7.05-3.16-7.05-7.05v-45.83h-24.68v45.83c0,3.9-3.16,7.05-7.05,7.05s-7.05-3.16-7.05-7.05v-31.73c0-7.79-6.32-14.1-14.1-14.1h-10.58l-3.53,3.53-10.58,10.58c0-7.79-6.31-14.1-14.1-14.1h-28.21c-7.79,0-14.1,6.31-14.1,14.1v37.84c-1.04.6-2.24.94-3.53.94-3.89,0-7.05-3.16-7.05-7.05v-31.73c0-7.79-6.31-14.1-14.1-14.1h-10.58l-14.1,14.1v-31.73c0-7.79-6.31-14.1-14.1-14.1h-7.05l-21.15,21.15,2.06,2.06c1.28-1.28,3.04-2.06,4.99-2.06,3.89,0,7.05,3.16,7.05,7.05v55.47c-1.04.6-2.24.94-3.53.94-3.9,0-7.05-3.16-7.05-7.05v-45.83h-49.36c-7.79,0-14.1,6.31-14.1,14.1v37.84c-1.04.6-2.24.94-3.53.94-3.89,0-7.05-3.16-7.05-7.05V31.8c0-7.79-6.31-14.1-14.1-14.1h-7.05l-17.63,17.63v-3.53c0-7.79-6.31-14.1-14.1-14.1h-10.58l-14.1,14.1c0-7.79-6.32-14.1-14.1-14.1h-7.05L1.51,38.85l2.06,2.06c1.28-1.28,3.04-2.06,4.99-2.06,3.89,0,7.05,3.16,7.05,7.05v70.51h28.21V36.3c1.04-.61,2.23-.97,3.52-.97,3.9,0,7.05,3.16,7.05,7.05v74.04h28.21V39.82c1.04-.61,2.23-.97,3.53-.97,3.89,0,7.05,3.16,7.05,7.05v56.41c0,7.79,6.31,14.1,14.1,14.1h10.58l14.1-14.1c0,7.79,6.31,14.1,14.1,14.1h10.58l14.1-14.1.15.21c-.07.51-.15,1.02-.15,1.55,0,6.16,4.53,11.22,10.43,12.14l.14.2h10.58l14.1-14.1v14.1h28.21v-51.93c1.04-.6,2.24-.95,3.53-.95,3.89,0,7.05,3.16,7.05,7.05v31.73c0,7.79,6.31,14.1,14.1,14.1h10.58l14.1-14.1c0,7.79,6.31,14.1,14.1,14.1h28.21c7.79,0,14.1-6.31,14.1-14.1v-37.82c1.03-.61,2.24-.96,3.53-.96,3.89,0,7.05,3.16,7.05,7.05v31.73c0,7.79,6.31,14.1,14.1,14.1h10.58l14.1-14.1c0,7.79,6.31,14.1,14.1,14.1h10.58l17.63-17.63-2.06-2.06Z"/><path class="cls-2" d="M318.82,72.15v19.59c0,3.72-2.89,6.73-6.53,7-.17.01-.34.06-.52.06s-.34-.04-.52-.06c-3.65-.27-6.53-3.28-6.53-7v-21.15c0-3.72,2.88-6.73,6.53-7,.17-.01.34-.06.52-.06s.34.04.52.06c3.65.27,6.53,3.28,6.53,7v1.57ZM170.74,95.26v2.56c-1.04.6-2.24.97-3.53.97-2.6,0-4.86-1.43-6.08-3.53-.6-1.04-.97-2.24-.97-3.53v-21.15c0-3.9,3.16-7.05,7.05-7.05,1.29,0,2.49.36,3.53.97v30.76ZM429.58,96.73c-1.28,1.28-3.05,2.06-4.99,2.06-3.9,0-7.05-3.16-7.05-7.05v-45.83h-24.68v45.83c0,3.9-3.16,7.05-7.05,7.05s-7.05-3.16-7.05-7.05v-31.73c0-7.79-6.32-14.1-14.1-14.1h-10.58l-3.53,3.53-10.58,10.58c0-7.79-6.31-14.1-14.1-14.1h-28.21c-7.79,0-14.1,6.31-14.1,14.1v37.84c-1.04.6-2.24.94-3.53.94-3.89,0-7.05-3.16-7.05-7.05v-31.73c0-7.79-6.31-14.1-14.1-14.1h-10.58l-14.1,14.1v-31.73c0-7.79-6.31-14.1-14.1-14.1h-7.05l-21.15,21.15,2.06,2.06c1.28-1.28,3.04-2.06,4.99-2.06,3.89,0,7.05,3.16,7.05,7.05v55.47c-1.04.6-2.24.94-3.53.94-3.9,0-7.05-3.16-7.05-7.05v-45.83h-49.36c-7.79,0-14.1,6.31-14.1,14.1v37.84c-1.04.6-2.24.94-3.53.94-3.89,0-7.05-3.16-7.05-7.05V31.8c0-7.79-6.31-14.1-14.1-14.1h-7.05l-17.63,17.63v-3.53c0-7.79-6.31-14.1-14.1-14.1h-10.58l-14.1,14.1c0-7.79-6.32-14.1-14.1-14.1h-7.05L1.51,38.85l2.06,2.06c1.28-1.28,3.04-2.06,4.99-2.06,3.89,0,7.05,3.16,7.05,7.05v70.51h28.21V36.3c1.04-.61,2.23-.97,3.52-.97,3.9,0,7.05,3.16,7.05,7.05v74.04h28.21V39.82c1.04-.61,2.23-.97,3.53-.97,3.89,0,7.05,3.16,7.05,7.05v56.41c0,7.79,6.31,14.1,14.1,14.1h10.58l14.1-14.1c0,7.79,6.31,14.1,14.1,14.1h10.58l14.1-14.1.15.21c-.07.51-.15,1.02-.15,1.55,0,6.16,4.53,11.22,10.43,12.14l.14.2h10.58l14.1-14.1v14.1h28.21v-51.93c1.04-.6,2.24-.95,3.53-.95,3.89,0,7.05,3.16,7.05,7.05v31.73c0,7.79,6.31,14.1,14.1,14.1h10.58l14.1-14.1c0,7.79,6.31,14.1,14.1,14.1h28.21c7.79,0,14.1-6.31,14.1-14.1v-37.82c1.03-.61,2.24-.96,3.53-.96,3.89,0,7.05,3.16,7.05,7.05v31.73c0,7.79,6.31,14.1,14.1,14.1h10.58l14.1-14.1c0,7.79,6.31,14.1,14.1,14.1h10.58l17.63-17.63-2.06-2.06Z"/><polyline class="cls-1" points="429.14 14.17 429.14 1 1 1 1 14.17"/><polygon class="cls-3" points="207.55 147.24 187.38 150.17 201.98 164.4 198.53 184.5 216.58 175.01 234.62 184.5 231.17 164.4 245.77 150.17 225.6 147.24 216.58 128.96 207.55 147.24"/><polygon class="cls-3" points="277.05 128.96 270.82 141.59 256.89 143.61 266.97 153.43 264.59 167.31 277.05 160.76 289.51 167.31 287.13 153.43 297.21 143.61 283.28 141.59 277.05 128.96"/><polygon class="cls-3" points="156.1 128.96 149.88 141.59 135.95 143.61 146.02 153.43 143.65 167.31 156.1 160.76 168.56 167.31 166.18 153.43 176.26 143.61 162.33 141.59 156.1 128.96"/><polygon class="cls-3" points="337.52 128.96 332.85 138.43 322.4 139.95 329.96 147.32 328.18 157.72 337.52 152.81 346.87 157.72 345.08 147.32 352.64 139.95 342.19 138.43 337.52 128.96"/><polygon class="cls-3" points="95.63 128.96 90.96 138.43 80.51 139.95 88.07 147.32 86.29 157.72 95.63 152.81 104.97 157.72 103.19 147.32 110.75 139.95 100.3 138.43 95.63 128.96"/></g></svg>