<?xml version="1.0" encoding="UTF-8"?><svg id="Capa_2" xmlns="http://www.w3.org/2000/svg" xmlns:xlink="http://www.w3.org/1999/xlink" viewBox="0 0 713.16 166.04"><defs><style>.cls-1{fill:none;}.cls-1,.cls-2{stroke-width:0px;}.cls-2{fill:#c12026;}.cls-3{clip-path:url(#clippath);}</style><clipPath id="clippath"><rect class="cls-1" width="713.16" height="166.04"/></clipPath></defs><g id="Capa_1-2"><g class="cls-3"><path class="cls-2" d="M677.94,130.74V57.6h-40.38v82.52s-5.52,4.3-9.6,4.85-4.52-5.52-4.52-5.52v-67.29c0-13.13-21.95-19.42-21.95-19.42l-33.1,29.01c-1.21-7.61-4.3-11.14-4.3-11.14l-57.03-16.88c-19.2,8.83-30.01,23.5-35.52,40.38-5.52,16.88,0,44.35,0,44.35-3.31,3.53-8.05,6.29-11.8,6.51-3.75.22-4.74-5.52-4.74-5.52v-64.87c0-14.12-21.95-20.19-21.95-20.19l-35.3,30.56v-47.44c0-23.17-22.17-28.02-22.17-28.02h-9.82l-29.79,26.26c20.19,0,21.95,20.74,21.95,20.74v79.43s-7.61,4.74-12.91,6.51c-5.3,1.77-5.85-10.81-5.85-10.81V59.48s-21.84-.44-48.65,0c-27.69.55-45.89,27.69-49.2,40.6-3.31,12.91,0,36.52,0,36.52-14.89,5.3-17.1-10.37-17.1-10.37V33.11c0-11.8-19.64-16.88-19.64-16.88h-16.77l-23.17,21.18c-.77-19.2-19.42-21.18-19.42-21.18h-18.2l-22.39,20.63c0-16.11-22.39-20.63-22.39-20.63h-15.22l-28.79,26.26s7.94-.88,14.45,5.07c6.51,5.85,6.84,13.35,6.84,13.35v105.57h44.57V47.23h5.52c8.05,0,10.59,9.93,10.59,9.93v108.99h43.91V48.22h6.07c7.94,0,10.48,9.05,10.48,9.05v84.06s-1.21,15,10.92,22.5c12.13,7.61,24.93,3.31,24.93,3.31l28.24-25.26c15,26.37,38.72,24.71,38.72,24.71l16.66-15.67s7.72,12.91,14.34,15c16,4.96,20.96-1.21,20.96-1.21l22.73-21.4v22.73h39.82v-71.82h6.84c6.84,0,10.26,8.94,10.26,8.94v43.58s-.66,6.84,9.27,15.33c9.93,8.38,26.59,5.52,26.59,5.52l24.6-22.06c8.05,11.47,34.97,26.92,52.51,22.28,57.37-15.22,42.69-80.09,42.69-80.09h8.94c3.86,0,3.75,6.29,3.75,6.29v49.42s-.33,7.5,9.05,17.87c7.61,8.38,26.26,6.07,26.26,6.07l20.96-19.97c6.84,19.2,34.09,19.97,34.09,19.97l21.95-21.4c-18.31,1.77-17.76-15.22-17.76-15.22M299.32,134.27s-21.18-3.75-21.18-25.7,21.18-25.7,21.18-25.7v51.41ZM531.65,115.52c-2.98,17.65-15.44,33.87-15.44,33.87,0,0-9.05-14.67-6.29-38.61,2.76-23.94,15.89-32.54,15.89-32.54,0,0,8.83,19.64,5.85,37.29"/></g></g></svg>