<?xml version="1.0" encoding="UTF-8"?><svg id="Capa_2" xmlns="http://www.w3.org/2000/svg" viewBox="0 0 430.14 116.42"><defs><style>.cls-1{fill:none;stroke:#b93a32;stroke-linejoin:round;stroke-width:2px;}.cls-2{fill:#b93a32;stroke-width:0px;}</style></defs><g id="Capa_1-2"><path class="cls-2" d="M317.31,57.98v19.59c0,3.72-2.89,6.73-6.53,7-.17.01-.34.06-.52.06s-.34-.04-.52-.06c-3.65-.27-6.53-3.28-6.53-7v-21.15c0-3.72,2.88-6.73,6.53-7,.17-.01.34-.05.52-.05s.34.04.52.05c3.65.27,6.53,3.28,6.53,7v1.57ZM169.23,81.09v2.56c-1.04.6-2.24.97-3.53.97-2.6,0-4.86-1.43-6.08-3.53-.6-1.04-.97-2.24-.97-3.53v-21.15c0-3.89,3.16-7.05,7.05-7.05,1.29,0,2.49.36,3.53.97v30.76ZM428.08,82.56c-1.28,1.28-3.05,2.06-4.99,2.06-3.9,0-7.05-3.16-7.05-7.05V31.73h-24.68v45.83c0,3.9-3.16,7.05-7.05,7.05s-7.05-3.16-7.05-7.05v-31.73c0-7.79-6.32-14.1-14.1-14.1h-10.58l-3.53,3.53-10.58,10.58c0-7.79-6.31-14.1-14.1-14.1h-28.21c-7.79,0-14.1,6.31-14.1,14.1v37.84c-1.04.6-2.24.95-3.53.95-3.89,0-7.05-3.16-7.05-7.05v-31.73c0-7.79-6.31-14.1-14.1-14.1h-10.58l-14.1,14.1V14.1c0-7.79-6.31-14.1-14.1-14.1h-7.05l-21.15,21.15,2.06,2.06c1.28-1.28,3.04-2.06,4.99-2.06,3.89,0,7.05,3.16,7.05,7.05v55.47c-1.04.6-2.24.95-3.53.95-3.9,0-7.05-3.16-7.05-7.05V31.73h-49.36c-7.79,0-14.1,6.31-14.1,14.1v37.84c-1.04.6-2.24.95-3.53.95-3.89,0-7.05-3.16-7.05-7.05V17.63c0-7.79-6.31-14.1-14.1-14.1h-7.05l-17.63,17.63v-3.53c0-7.79-6.31-14.1-14.1-14.1h-10.58l-14.1,14.1c0-7.79-6.32-14.1-14.1-14.1h-7.05L0,24.68l2.06,2.06c1.28-1.28,3.04-2.06,4.99-2.06,3.89,0,7.05,3.16,7.05,7.05v70.51h28.21V22.13c1.04-.61,2.23-.97,3.52-.97,3.9,0,7.05,3.16,7.05,7.05v74.04h28.21V25.65c1.04-.61,2.23-.97,3.53-.97,3.89,0,7.05,3.16,7.05,7.05v56.41c0,7.79,6.31,14.1,14.1,14.1h10.58l14.1-14.1c0,7.79,6.31,14.1,14.1,14.1h10.58l14.1-14.1.15.21c-.07.51-.15,1.02-.15,1.55,0,6.16,4.53,11.22,10.43,12.14l.14.2h10.58l14.1-14.1v14.1h28.21v-51.93c1.04-.6,2.24-.95,3.53-.95,3.89,0,7.05,3.16,7.05,7.05v31.73c0,7.79,6.31,14.1,14.1,14.1h10.58l14.1-14.1c0,7.79,6.31,14.1,14.1,14.1h28.21c7.79,0,14.1-6.31,14.1-14.1v-37.82c1.03-.61,2.24-.96,3.53-.96,3.89,0,7.05,3.16,7.05,7.05v31.73c0,7.79,6.31,14.1,14.1,14.1h10.58l14.1-14.1c0,7.79,6.31,14.1,14.1,14.1h10.58l17.63-17.63-2.06-2.06Z"/><polyline class="cls-1" points="1 102.24 1 115.42 429.14 115.42 429.14 102.24"/></g></svg>