<?xml version="1.0" encoding="UTF-8"?><svg id="Capa_2" xmlns="http://www.w3.org/2000/svg" viewBox="0 0 1220 290"><defs><style>.cls-1{fill:#b93a32;stroke-width:0px;}</style></defs><g id="Capa_1-2"><path class="cls-1" d="M1214.16,234.16c-3.62,3.62-8.64,5.84-14.16,5.84-11.05,0-20-8.95-20-20V90h-70v130c0,11.05-8.95,20-20,20s-20-8.95-20-20v-90c0-22.09-17.91-40-40-40h-30l-10,10-30,30c0-22.09-17.91-40-40-40h-80c-22.09,0-40,17.91-40,40v107.32c-2.95,1.7-6.36,2.68-10,2.68-11.05,0-20-8.95-20-20v-90c0-22.09-17.91-40-40-40h-30l-40,40V40c0-22.09-17.91-40-40-40h-20l-60,60,5.84,5.84c3.62-3.62,8.63-5.84,14.16-5.84,11.05,0,20,8.95,20,20v157.32c-2.95,1.7-6.36,2.68-10,2.68-11.05,0-20-8.95-20-20V90h-140c-22.09,0-40,17.91-40,40v107.32c-2.95,1.7-6.36,2.68-10,2.68-11.05,0-20-8.95-20-20V50c0-22.09-17.91-40-40-40h-20l-50,50v-10c0-22.09-17.91-40-40-40h-30l-40,40c0-22.09-17.91-40-40-40h-20L0,70l5.84,5.84c3.62-3.62,8.63-5.84,14.16-5.84,11.05,0,20,8.95,20,20v200h80V62.76c2.94-1.73,6.34-2.76,10-2.76,11.05,0,20,8.95,20,20v210h80V72.76c2.94-1.73,6.34-2.76,10-2.76,11.05,0,20,8.95,20,20v160c0,22.09,17.91,40,40,40h30l40-40h0c0,22.09,17.91,40,40,40h30l40-40,.44.59c-.19,1.46-.44,2.9-.44,4.41,0,17.48,12.85,31.83,29.59,34.44l.41.56h30l40-40v40h80v-147.3c2.94-1.71,6.35-2.7,10-2.7,11.05,0,20,8.95,20,20v90c0,22.09,17.91,40,40,40h30l40-40c0,22.09,17.91,40,40,40h80c22.09,0,40-17.91,40-40v-107.27c2.93-1.73,6.34-2.73,10-2.73,11.05,0,20,8.95,20,20v90c0,22.09,17.91,40,40,40h30l40-40c0,22.09,17.91,40,40,40h30l50-50-5.84-5.84ZM480,230v7.25c-2.95,1.71-6.34,2.75-10,2.75-7.39,0-13.79-4.04-17.25-10-1.72-2.95-2.75-6.34-2.75-10v-60c0-11.05,8.95-20,20-20,3.66,0,7.05,1.03,10,2.75v87.25ZM900,164.44v55.56c0,10.54-8.18,19.08-18.53,19.84-.49.04-.96.16-1.47.16s-.97-.12-1.47-.16c-10.35-.77-18.53-9.3-18.53-19.84v-60c0-10.54,8.18-19.08,18.53-19.84.49-.04.96-.16,1.47-.16s.97.12,1.47.16c10.35.77,18.53,9.3,18.53,19.84v4.44Z"/></g></svg>